<svg version="1.1" xmlns="http://www.w3.org/2000/svg" xmlns:xlink="http://www.w3.org/1999/xlink" width="201.8957" height="65.50456" viewBox="0,0,201.8957,65.50456"><g transform="translate(-143.09448,-152.74772)"><g data-paper-data="{&quot;isPaintingLayer&quot;:true}" fill-rule="nonzero" stroke-linejoin="miter" stroke-miterlimit="10" stroke-dasharray="" stroke-dashoffset="0" style="mix-blend-mode: normal"><text transform="translate(204.97281,199.17358) scale(1.30567,1.10826)" font-size="40" xml:space="preserve" data-paper-data="{&quot;origPos&quot;:null}" fill="#000000" fill-rule="nonzero" stroke="none" stroke-width="0" stroke-linecap="butt" stroke-linejoin="miter" stroke-miterlimit="10" stroke-dasharray="" stroke-dashoffset="0" font-family="Handwriting" font-weight="normal" text-anchor="start" style="mix-blend-mode: normal"><tspan x="0" dy="0">Home</tspan></text><path d="M201.00013,201.35181l0.3927,-35.33333" data-paper-data="{&quot;origPos&quot;:null}" fill="none" stroke="#000000" stroke-width="1.5" stroke-linecap="round"/><path d="M162.82289,181.61262h27.1881v18.1254h-27.1881z" data-paper-data="{&quot;origPos&quot;:null}" fill="#000000" stroke="none" stroke-width="2.43142" stroke-linecap="butt"/><path d="M158.79176,187.64763l17.54071,-16.95602" data-paper-data="{&quot;origPos&quot;:null}" fill="#000000" stroke="#000000" stroke-width="5.75" stroke-linecap="round"/><path d="M177.01189,170.92236l17.54071,16.95602" data-paper-data="{&quot;origPos&quot;:null}" fill="#000000" stroke="#000000" stroke-width="5.75" stroke-linecap="round"/><path d="M168.37745,174.07701h15.78664l2.92345,9.20892l-21.63354,0.73081z" data-paper-data="{&quot;origPos&quot;:null}" fill="#000000" stroke="none" stroke-width="2.875" stroke-linecap="round"/><path d="M176.12968,205.49609v-13.38311" data-paper-data="{&quot;origPos&quot;:null}" fill="none" stroke="#faa51f" stroke-width="9" stroke-linecap="round"/><path d="M342.5488,197.98597c0,16.44898 -57.6025,10.58816 -99.03668,18.05302c-46.76067,8.42449 -118.44634,-21.37969 -95.11997,-42.04721c18.46446,-16.44898 56.55276,-28.27061 101.83432,-14.3206c43.67229,17.59573 87.28656,0.00443 94.00091,25.51788z" fill="#fae2bb" stroke="#000000" stroke-width="1.5" stroke-linecap="butt"/><text transform="translate(228.08957,197.26954) scale(0.92135,0.78204)" font-size="40" xml:space="preserve" fill="#000000" fill-rule="nonzero" stroke="none" stroke-width="0" stroke-linecap="butt" stroke-linejoin="miter" stroke-miterlimit="10" stroke-dasharray="" stroke-dashoffset="0" font-family="Handwriting" font-weight="normal" text-anchor="start" style="mix-blend-mode: normal"><tspan x="0" dy="0">Home</tspan></text><path d="M221.39114,170.71749l-0.35399,31.84999" fill="none" stroke="#000000" stroke-width="1.5" stroke-linecap="round"/><path d="M181.58785,183.09569h24.50776v16.3385h-24.50776z" fill="#000000" stroke="none" stroke-width="2.43142" stroke-linecap="butt"/><path d="M177.95414,188.53574l15.81146,-15.28441" fill="#000000" stroke="#000000" stroke-width="5.75" stroke-linecap="round"/><path d="M210.18949,188.74374l-15.81146,-15.28441" fill="#000000" stroke="#000000" stroke-width="5.75" stroke-linecap="round"/><path d="M186.59482,176.30298h14.23031l2.63524,8.30106l-19.50079,0.65876z" fill="#000000" stroke="none" stroke-width="2.875" stroke-linecap="round"/></g></g></svg>