<svg xmlns="http://www.w3.org/2000/svg" viewBox="0 0 250 148" height="148" width="250">
    <g id="Group">
        <path d="M 161.40625 42.443489 C 161.683121 42.040833 161.995621 42.040833 162.34375 42.443489 C 162.054688 42.778625 161.742188 42.778625 161.40625 42.443489 Z" opacity="0.064" stroke="none" fill-rule="evenodd" fill="#d897fc" id="Path"></path>
    </g>
    <g id="g1">
        <path d="M 163.28125 48.754799 C 163.072815 48.334145 163.072815 48.334145 163.28125 48.754799 Z" opacity="0.004" stroke="none" fill-rule="evenodd" fill="#000000" id="path1"></path>
    </g>
    <g id="g2">
        <path d="M 163.28125 48.754799 C 163.591248 48.700523 163.799377 48.805916 163.90625 49.070358 C 163.596252 49.124634 163.388123 49.019241 163.28125 48.754799 Z" opacity="0.004" stroke="none" fill-rule="evenodd" fill="#040023" id="path2"></path>
    </g>
    <g id="g3">
        <path d="M 163.90625 49.070358 C 164.322815 49.280838 164.322815 49.280838 163.90625 49.070358 Z" opacity="0.004" stroke="none" fill-rule="evenodd" fill="#000034" id="path3"></path>
    </g>
    <g id="g4">
        <path d="M 165.78125 52.226006 C 165.572815 52.436493 165.364685 52.646667 165.15625 52.857147 C 165.153442 52.286613 165.309692 51.760551 165.625 51.27932 C 165.829376 50.901909 165.985626 50.901909 166.09375 51.27932 C 165.897812 51.568687 165.793442 51.884247 165.78125 52.226006 Z" opacity="0.004" stroke="none" fill-rule="evenodd" fill="#000000" id="path4"></path>
    </g>
    <g id="g5">
        <path d="M 165.78125 52.226006 C 165.78125 52.75206 165.78125 53.277794 165.78125 53.803833 C 165.297501 53.702545 165.08905 53.386978 165.15625 52.857147 C 165.364685 52.646667 165.572815 52.436493 165.78125 52.226006 Z" opacity="0.004" stroke="none" fill-rule="evenodd" fill="#a000b4" id="path5"></path>
    </g>
    <g id="g6">
        <path d="M 164.53125 54.434959 C 164.860001 54.387962 165.172501 54.440331 165.46875 54.592751 C 165.18782 55.114059 164.87532 55.587402 164.53125 56.012794 C 164.53125 55.486748 164.53125 54.961014 164.53125 54.434959 Z" opacity="0.004" stroke="none" fill-rule="evenodd" fill="#e0ffed" id="path6"></path>
    </g>
    <g id="g7">
        <path d="M 165.15625 52.857147 C 165.08905 53.386978 165.297516 53.702545 165.78125 53.803833 C 165.78125 54.329887 165.78125 54.855621 165.78125 55.381668 C 165.574677 55.766029 165.366241 56.186668 165.15625 56.643929 C 164.94281 56.529373 164.734375 56.424294 164.53125 56.328354 C 164.53125 56.223267 164.53125 56.117882 164.53125 56.012794 C 164.87532 55.587402 165.18782 55.114059 165.46875 54.592751 C 165.172501 54.440331 164.860001 54.387962 164.53125 54.434959 C 164.623749 53.834435 164.832184 53.308403 165.15625 52.857147 Z" opacity="0.008" stroke="none" fill-rule="evenodd" fill="#5f1363" id="path7"></path>
    </g>
    <g id="g8">
        <path d="M 165.78125 55.381668 C 165.855942 56.002365 165.751877 56.581123 165.46875 57.117271 C 164.847183 57.281044 164.534683 57.018181 164.53125 56.328354 C 164.734375 56.424294 164.94281 56.529373 165.15625 56.643929 C 165.366241 56.186668 165.574677 55.766029 165.78125 55.381668 Z" opacity="0.004" stroke="none" fill-rule="evenodd" fill="#7c0ac5" id="path8"></path>
    </g>
    <g id="g9">
        <path d="M 152.65625 61.061829 C 153.072815 61.272316 153.072815 61.272316 152.65625 61.061829 Z" opacity="0.004" stroke="none" fill-rule="evenodd" fill="#000000" id="path9"></path>
    </g>
    <g id="g10">
        <path d="M 156.09375 68.950958 C 156.667816 68.994827 156.771881 69.205307 156.40625 69.582092 C 156.156876 69.437881 156.052811 69.227394 156.09375 68.950958 Z" opacity="0.006" stroke="none" fill-rule="evenodd" fill="#000001" id="path10"></path>
    </g>
    <g id="g11">
        <path d="M 154.21875 74.631126 C 153.814056 74.040398 153.866257 73.514664 154.375 73.053307 C 154.618744 73.648773 154.566559 74.17482 154.21875 74.631126 Z" opacity="0.004" stroke="none" fill-rule="evenodd" fill="#891cbe" id="path11"></path>
    </g>
    <g id="g12">
        <path d="M 155.46875 76.524521 C 155.554688 75.785469 155.815002 75.785469 156.25 76.524521 C 156.458435 77.050575 156.458435 77.576294 156.25 78.102348 C 156.219055 77.422935 155.958435 76.897202 155.46875 76.524521 Z" opacity="0.004" stroke="none" fill-rule="evenodd" fill="#450e97" id="path12"></path>
    </g>
    <g id="g13">
        <path d="M 154.53125 86.622604 C 154.874374 86.970055 154.926559 87.390686 154.6875 87.884857 C 154.134995 87.511864 154.082809 87.091202 154.53125 86.622604 Z" opacity="0.031" stroke="none" fill-rule="evenodd" fill="#090909" id="path13"></path>
    </g>
    <g id="g14">
        <path d="M 154.21875 74.631126 C 154.523438 75.355347 154.940002 75.986481 155.46875 76.524521 C 156.668121 79.568779 156.199371 82.30378 154.0625 84.729218 C 151.736572 87.498611 149.028137 89.812958 145.9375 91.671631 C 145.42157 92.713638 144.900635 93.765717 144.375 94.827293 C 142.758759 96.564484 141.040009 98.195007 139.21875 99.718544 C 137.316879 105.644531 133.462814 109.957375 127.65625 112.656708 C 128.435623 113.421326 128.435623 114.157547 127.65625 114.865677 C 127.072815 115.090042 126.604065 114.932251 126.25 114.392319 C 125.939064 115.221008 125.834999 116.062614 125.9375 116.91684 C 126.549065 117.576057 127.22625 117.839249 127.96875 117.705757 C 128.598755 118.81591 129.536255 119.552139 130.78125 119.914719 C 131.385315 120.759171 131.75 121.65316 131.875 122.597015 C 130.230621 125.398598 127.782501 126.503075 124.53125 125.910446 C 122.984375 125.36705 121.682503 124.473053 120.625 123.228149 C 119.502808 125.983665 117.471558 127.666885 114.53125 128.277191 C 111.570625 127.124115 108.70594 125.756775 105.9375 124.174843 C 105.508438 123.482178 105.404373 122.745644 105.625 121.965889 C 107.255318 120.163696 108.140938 118.112518 108.28125 115.81237 C 107.444687 114.339935 106.402817 113.077682 105.15625 112.025589 C 101.312805 110.398224 98.500305 107.820999 96.71875 104.294243 C 93.940315 103.117821 91.805 101.224426 90.3125 98.614082 C 86.722809 96.362823 85.629059 93.25988 87.03125 89.304901 C 86.037819 87.769043 85.412819 86.085831 85.15625 84.255859 C 85.293747 83.12204 85.554062 82.017563 85.9375 80.942429 C 86.09375 80.364006 86.458435 79.995735 87.03125 79.837952 C 86.053436 78.195442 85.532806 76.407135 85.46875 74.473351 C 85.981873 71.426567 87.544373 70.690353 90.15625 72.264389 C 91.666565 73.368874 93.177185 74.473351 94.6875 75.577827 C 96.023117 74.229095 97.533432 73.124619 99.21875 72.264389 C 102.428436 71.006866 105.657501 69.79731 108.90625 68.635391 C 107.364998 61.809418 106.323433 54.919685 105.78125 47.965889 C 105.549057 43.694389 106.695007 39.855232 109.21875 36.447762 C 107.84375 35.112915 106.645622 33.640175 105.625 32.029854 C 104.769058 29.678444 105.446251 27.942833 107.65625 26.823036 C 109.615318 26.571518 111.542503 26.729309 113.4375 27.296379 C 114.027496 27.202972 114.600616 27.045189 115.15625 26.823036 C 115.477509 20.152901 118.602509 18.364685 124.53125 21.45842 C 126.043747 22.904938 127.449997 24.430161 128.75 26.034111 C 131.753433 23.443108 134.201248 23.863846 136.09375 27.296379 C 135.777496 29.305946 135.152496 31.199341 134.21875 32.97654 C 137.366882 34.945976 139.815002 37.575592 141.5625 40.865677 C 143.782822 42.510078 144.928757 44.719032 145 47.492531 C 144.470001 48.73365 144.053436 49.995911 143.75 51.27932 C 143.689697 52.936035 143.533447 54.566559 143.28125 56.17057 C 143.274368 59.026123 143.430618 62.129082 143.75 65.479744 C 145.594055 67.656822 147.72937 69.49752 150.15625 71.002136 C 151.579071 72.178246 152.933121 73.388123 154.21875 74.631126 Z M 120.15625 111.552231 C 121.730942 114.90448 121.053757 117.744568 118.125 120.072495 C 117.971878 120.480515 117.919685 120.901482 117.96875 121.334747 C 117.2425 121.283646 116.721565 120.915695 116.40625 120.230278 C 116.005005 120.014435 115.64032 120.067123 115.3125 120.388054 C 114.706879 119.565704 113.925629 118.987274 112.96875 118.652443 C 113.385315 117.705757 113.385315 116.759064 112.96875 115.81237 C 113.465622 115.4823 113.934372 115.114021 114.375 114.707886 C 114.56781 114.408417 114.51593 114.145554 114.21875 113.918968 C 116.287498 113.48317 118.266563 112.69426 120.15625 111.552231 Z" opacity="0.91" stroke="none" fill-rule="evenodd" fill="#161215" id="path14"></path>
    </g>
    <g id="g15">
        <path d="M 108.90625 114.392319 C 109.858124 115.112122 110.899689 115.217529 112.03125 114.707886 C 112.272499 116.049042 112.428749 117.416382 112.5 118.810242 C 113.4375 119.546448 114.375 120.282974 115.3125 121.01918 C 115.46344 121.318336 115.515305 121.633911 115.46875 121.965889 C 113.164375 121.495377 111.289375 122.126503 109.84375 123.859268 C 108.288742 124.083328 107.455307 123.346802 107.34375 121.650314 C 107.15625 120.219864 107.78125 119.536034 109.21875 119.599152 C 108.950935 119.381721 108.742805 119.118851 108.59375 118.810242 C 108.873749 117.291428 108.978127 115.81868 108.90625 114.392319 Z" stroke="none" fill-rule="evenodd" fill="#f2b5a6" id="path15"></path>
    </g>
    <g id="g16">
        <path d="M 122.96875 121.650314 C 120.913124 121.718796 120.131874 120.667023 120.625 118.494667 C 121.564995 117.057892 121.929375 115.480072 121.71875 113.761192 C 123.211563 113.743851 124.461563 114.269882 125.46875 115.33902 C 124.814064 116.768845 125.230942 117.715546 126.71875 118.179108 C 126.99781 118.99453 127.101875 119.836136 127.03125 120.703621 C 126.08812 120.651558 125.15062 120.704254 124.21875 120.861404 C 123.649994 120.924522 123.233429 121.187698 122.96875 121.650314 Z" stroke="none" fill-rule="evenodd" fill="#f4b5a6" id="path16"></path>
    </g>
    <g id="g17">
        <path d="M 112.03125 114.707886 C 110.899689 115.217529 109.858124 115.112122 108.90625 114.392319 C 109.114685 113.130066 109.322815 113.130066 109.53125 114.392319 C 110.256569 114.477844 110.881569 114.267365 111.40625 113.761192 C 111.695313 114.031631 111.903755 114.347198 112.03125 114.707886 Z" stroke="none" fill-rule="evenodd" fill="#391f44" id="path17"></path>
    </g>
    <g id="g18">
        <path d="M 142.96875 68.319832 C 144.404373 70.140327 145.914688 71.928635 147.5 73.684433 C 148.415009 77.086548 148.935944 80.557762 149.0625 84.098083 C 149.384064 85.163116 150.061249 85.531372 151.09375 85.202545 C 153.279373 83.572983 154.529373 81.416718 154.84375 78.733475 C 154.895309 79.68586 154.843124 80.632545 154.6875 81.573555 C 152.723755 85.134399 150.01532 87.97448 146.5625 90.093819 C 147.181259 87.4254 147.858124 84.743088 148.59375 82.046921 C 148.209366 81.178162 147.896866 80.283844 147.65625 79.364609 C 147.992188 78.437477 148.044067 77.490784 147.8125 76.524521 C 146.948746 75.895287 146.688446 75.106369 147.03125 74.157784 C 146.071869 72.555977 144.874054 71.135933 143.4375 69.897652 C 143.190323 69.504776 143.034073 69.084122 142.96875 68.635391 C 142.96875 68.530312 142.96875 68.424911 142.96875 68.319832 Z" stroke="none" fill-rule="evenodd" fill="#7c38a0" id="path18"></path>
    </g>
    <g id="g19">
        <path d="M 91.71875 84.413658 C 94.681557 87.905373 94.056557 88.69429 89.84375 86.780396 C 89.058441 85.807816 88.225319 85.123993 87.34375 84.729218 C 87.961876 87.766846 89.316254 90.396454 91.40625 92.618332 C 87.384377 90.070145 85.665627 86.388443 86.25 81.573555 C 86.311256 81.009956 86.571564 80.589317 87.03125 80.311302 C 88.202812 81.969589 89.556877 83.49472 91.09375 84.886993 C 91.505005 85.053619 91.71344 84.895828 91.71875 84.413658 Z" stroke="none" fill-rule="evenodd" fill="#7c38a0" id="path19"></path>
    </g>
    <g id="g20">
        <path d="M 94.84375 78.733475 C 94.312813 78.783966 93.791878 78.731583 93.28125 78.575691 C 91.247185 77.602173 89.372185 76.392609 87.65625 74.946693 C 87.309685 74.60273 86.997185 74.60273 86.71875 74.946693 C 87.008125 76.373367 87.476875 77.74102 88.125 79.049042 C 89.522499 80.719017 90.720314 82.507317 91.71875 84.413658 C 87.894058 81.631302 86.175308 77.844528 86.5625 73.053307 C 86.805313 72.512108 87.22187 72.196548 87.8125 72.106613 C 88.805313 72.229996 89.690628 72.597946 90.46875 73.21109 C 91.578751 74.226891 92.776566 75.120888 94.0625 75.893387 C 94.014061 76.622665 94.014061 77.358871 94.0625 78.102348 C 94.395935 78.320396 94.760628 78.47818 95.15625 78.575691 C 95.084999 78.701607 94.980621 78.753983 94.84375 78.733475 Z" stroke="none" fill-rule="evenodd" fill="#7b379f" id="path20"></path>
    </g>
    <g id="g21">
        <path d="M 133.90625 66.426437 C 135.472183 67.956612 136.878433 69.639839 138.125 71.475479 C 138.333435 72.73774 138.333435 74 138.125 75.26226 C 137.832809 76.23893 137.259689 76.975464 136.40625 77.471214 C 134.56781 77.992531 133.05719 77.466797 131.875 75.893387 C 131.627823 75.500511 131.471573 75.079857 131.40625 74.631126 C 132.03125 75.411209 132.760315 76.094719 133.59375 76.682304 C 135.663742 77.722717 137.069992 77.143974 137.8125 74.946693 C 138.052185 73.65477 137.94812 72.392509 137.5 71.159912 C 136.678116 70.013786 135.740616 68.962006 134.6875 68.004265 C 134.345627 67.506302 134.084991 66.980263 133.90625 66.426437 Z" opacity="0.961" stroke="none" fill-rule="evenodd" fill="#241722" id="path21"></path>
    </g>
    <g id="g22">
        <path d="M 137.96875 62.955223 C 136.294998 63.589195 134.524063 63.957458 132.65625 64.0597 C 133.279373 64.7407 133.696259 65.52961 133.90625 66.426437 C 133.282181 65.791214 132.761246 65.054993 132.34375 64.217484 C 131.535629 63.908241 130.702194 63.803146 129.84375 63.901909 C 130.164368 66.310631 130.424683 68.730064 130.625 71.159912 C 130.712189 72.09304 130.972809 72.934334 131.40625 73.684433 C 131.40625 74 131.40625 74.315567 131.40625 74.631126 C 130.811249 73.673706 130.394379 72.621933 130.15625 71.475479 C 130.048431 68.921928 129.735931 66.397408 129.21875 63.901909 C 128.815323 63.976715 128.502823 63.871628 128.28125 63.586349 C 131.531876 63.662727 134.760925 63.45224 137.96875 62.955223 Z" opacity="0.925" stroke="none" fill-rule="evenodd" fill="#151314" id="path22"></path>
    </g>
    <g id="g23">
        <path d="M 111.71875 68.635391 C 113.70063 68.583008 115.679688 68.635391 117.65625 68.793175 C 120.487183 69.221397 121.164383 70.641441 119.6875 73.053307 C 117.464684 74.536774 115.068748 75.588554 112.5 76.208954 C 111.431564 76.116493 110.650314 75.590759 110.15625 74.631126 C 109.889374 74.953636 109.576874 75.216499 109.21875 75.420044 C 114.873436 77.445663 119.092186 81.179749 121.875 86.622604 C 122.420311 88.534607 122.420311 90.427994 121.875 92.302765 C 121.465942 93.084114 120.893127 93.71524 120.15625 94.196167 C 120.004379 92.732574 119.431252 91.470306 118.4375 90.409393 C 120.291252 94.239075 119.145317 96.553429 115 97.351807 C 114.635315 97.246727 114.270935 97.141335 113.90625 97.03624 C 114.738434 95.770515 114.738434 94.508263 113.90625 93.249466 C 114.247505 96.123634 112.945313 97.806549 110 98.298508 C 106.266251 97.477097 104.391251 95.162735 104.375 91.356079 C 104.735001 89.902267 105.464058 89.691788 106.5625 90.724945 C 107.045937 92.184753 107.462502 93.657494 107.8125 95.142868 C 108.145317 95.741165 108.405632 95.793869 108.59375 95.300636 C 107.739685 93.562187 107.94812 93.457108 109.21875 94.985069 C 109.478752 95.202171 109.686874 95.149475 109.84375 94.827293 C 108.77906 93.805489 107.89344 92.648315 107.1875 91.356079 C 107.083435 90.304298 106.979065 89.252213 106.875 88.200424 C 106.614685 88.831558 106.354065 89.462692 106.09375 90.093819 C 102.456879 88.004135 100.009064 84.953583 98.75 80.942429 C 98.766563 81.711143 98.714684 82.447365 98.59375 83.151382 C 97.760002 82.521835 97.239067 81.680222 97.03125 80.626869 C 96.858131 81.866409 96.233131 82.287048 95.15625 81.889122 C 94.744377 80.293007 95.160942 78.925652 96.40625 77.786781 C 95.832817 77.568405 95.260002 77.673813 94.6875 78.102348 C 94.489059 77.428612 94.593437 76.797493 95 76.208954 C 96.787186 74.279274 98.922813 72.85923 101.40625 71.94883 C 104.834694 70.691299 108.272194 69.586823 111.71875 68.635391 Z" stroke="none" fill-rule="evenodd" fill="#7c38a0" id="path23"></path>
    </g>
    <g id="g24">
        <path d="M 110.46875 69.582092 C 112.2425 69.529709 114.013435 69.582413 115.78125 69.739876 C 117.335938 70.22963 117.388123 70.70298 115.9375 71.159912 C 115.523125 71.079445 115.210625 70.868965 115 70.528786 C 114.133125 71.003082 113.24781 71.476433 112.34375 71.94883 C 110.071877 72.128067 107.884377 72.653801 105.78125 73.526649 C 104.484062 74.496071 103.025627 75.127197 101.40625 75.420044 C 100.615936 76.060326 99.782494 76.638756 98.90625 77.155647 C 98.611877 77.121567 98.351563 77.016487 98.125 76.840088 C 97.856873 75.278038 98.429688 74.120865 99.84375 73.368874 C 103.323441 71.777786 106.864998 70.515526 110.46875 69.582092 Z" stroke="none" fill-rule="evenodd" fill="#8f58ac" id="path24"></path>
    </g>
    <g id="g25">
        <path d="M 143.28125 66.110878 C 144.459061 67.458649 145.709061 68.773613 147.03125 70.055435 C 149.347488 71.551537 151.482803 73.28714 153.4375 75.26226 C 154.255005 76.281219 154.723755 77.4384 154.84375 78.733475 C 154.529373 81.416718 153.279373 83.572983 151.09375 85.202545 C 150.061249 85.531372 149.384064 85.163116 149.0625 84.098083 C 148.935944 80.557762 148.415009 77.086548 147.5 73.684433 C 145.914688 71.928635 144.404373 70.140327 142.96875 68.319832 C 142.874374 67.512291 142.97876 66.775772 143.28125 66.110878 Z" stroke="none" fill-rule="evenodd" fill="#8f57ac" id="path25"></path>
    </g>
    <g id="g26">
        <path d="M 133.90625 66.426437 C 134.084991 66.980263 134.345627 67.506302 134.6875 68.004265 C 135.740616 68.962006 136.678116 70.013786 137.5 71.159912 C 137.94812 72.392509 138.052185 73.65477 137.8125 74.946693 C 137.069992 77.143974 135.663742 77.722717 133.59375 76.682304 C 132.760315 76.094719 132.03125 75.411209 131.40625 74.631126 C 131.40625 74.315567 131.40625 74 131.40625 73.684433 C 130.972809 72.934334 130.712189 72.09304 130.625 71.159912 C 130.424683 68.730064 130.164368 66.310631 129.84375 63.901909 C 130.702194 63.803146 131.535629 63.908241 132.34375 64.217484 C 132.761246 65.054993 133.282181 65.791214 133.90625 66.426437 Z" stroke="none" fill-rule="evenodd" fill="#ec3cac" id="path26"></path>
    </g>
    <g id="g27">
        <path d="M 131.40625 73.684433 C 131.129059 70.956062 130.920624 68.221054 130.78125 65.479744 C 131.578125 65.499001 132.046875 65.91964 132.1875 66.742004 C 133.240311 69.551163 134.334061 72.338554 135.46875 75.104477 C 135.403427 75.694901 135.090927 76.063164 134.53125 76.208954 C 133.372177 75.453171 132.330627 74.611877 131.40625 73.684433 Z" stroke="none" fill-rule="evenodd" fill="#fe48d7" id="path27"></path>
    </g>
    <g id="g28">
        <path d="M 120.78125 62.00853 C 123.153122 62.7397 125.549057 63.265739 127.96875 63.586349 C 128.072815 63.586349 128.177185 63.586349 128.28125 63.586349 C 128.502823 63.871628 128.815323 63.976715 129.21875 63.901909 C 129.735931 66.397408 130.048431 68.921928 130.15625 71.475479 C 129.856873 71.332527 129.596252 71.122368 129.375 70.844353 C 129.270935 69.897652 129.166565 68.950958 129.0625 68.004265 C 128.770935 66.743584 128.25 65.586403 127.5 64.533051 C 126.464996 64.067276 125.371246 63.8041 124.21875 63.744141 C 122.965004 63.243645 121.819069 62.665215 120.78125 62.00853 Z" stroke="none" fill-rule="evenodd" fill="#79399c" id="path28"></path>
    </g>
    <g id="g29">
        <path d="M 142.65625 55.697227 C 142.465927 59.248917 142.674377 62.720131 143.28125 66.110878 C 142.97876 66.775772 142.874374 67.512291 142.96875 68.319832 C 142.96875 68.424911 142.96875 68.530312 142.96875 68.635391 C 142.760315 67.793785 142.552185 66.952484 142.34375 66.110878 C 142.241241 62.583168 142.345306 59.111954 142.65625 55.697227 Z" stroke="none" fill-rule="evenodd" fill="#4e2662" id="path29"></path>
    </g>
    <g id="g30">
        <path d="M 114.53125 58.221748 C 118.494995 60.169739 122.66156 61.589775 127.03125 62.48188 C 131.781555 63.119949 136.365005 62.541519 140.78125 60.746269 C 140.364685 61.272316 139.947815 61.79805 139.53125 62.324097 C 139.131256 62.775673 138.610321 62.986153 137.96875 62.955223 C 134.760925 63.45224 131.531876 63.662727 128.28125 63.586349 C 128.177185 63.586349 128.072815 63.586349 127.96875 63.586349 C 125.216248 62.718544 122.403748 61.982025 119.53125 61.377403 C 117.759369 60.483398 116.092819 59.431618 114.53125 58.221748 Z" stroke="none" fill-rule="evenodd" fill="#9f4d3c" id="path30"></path>
    </g>
    <g id="g31">
        <path d="M 114.53125 57.590622 C 121.177185 61.207314 128.260315 62.417183 135.78125 61.219612 C 136.167816 61.1464 136.480316 60.988617 136.71875 60.746269 C 137.568115 60.574921 138.401566 60.364754 139.21875 60.115143 C 139.702499 60.013847 139.910934 59.698288 139.84375 59.168434 C 137.415314 59.56385 134.967499 59.774017 132.5 59.799576 C 128.994064 59.626328 125.504684 59.31076 122.03125 58.852875 C 121.927185 58.852875 121.822815 58.852875 121.71875 58.852875 C 121.383125 58.289909 120.862503 57.921646 120.15625 57.748405 C 120.777504 57.691597 121.402504 57.743988 122.03125 57.906181 C 123.474068 58.217644 124.932503 58.428123 126.40625 58.537308 C 130.644058 59.005608 134.914993 58.900215 139.21875 58.221748 C 140.622818 58.435387 141.143753 59.276985 140.78125 60.746269 C 136.365005 62.541519 131.781555 63.119949 127.03125 62.48188 C 122.66156 61.589775 118.494995 60.169739 114.53125 58.221748 C 114.216873 57.939003 114.216873 57.728828 114.53125 57.590622 Z" stroke="none" fill-rule="evenodd" fill="#e88666" id="path31"></path>
    </g>
    <g id="g32">
        <path d="M 119.53125 61.377403 C 122.403748 61.982025 125.216248 62.718544 127.96875 63.586349 C 125.549057 63.265739 123.153122 62.7397 120.78125 62.00853 C 120.314064 61.854218 119.897186 61.644051 119.53125 61.377403 Z" opacity="0.949" stroke="none" fill-rule="evenodd" fill="#2a1c1e" id="path32"></path>
    </g>
    <g id="g33">
        <path d="M 143.59375 50.332626 C 143.295929 50.998459 142.775314 51.366722 142.03125 51.437096 C 140.174683 51.906662 138.299683 52.274925 136.40625 52.54158 C 136.770935 52.646667 137.135315 52.75206 137.5 52.857147 C 139.209991 52.427025 140.928741 52.163841 142.65625 52.068222 C 142.239685 52.594276 141.822815 53.12001 141.40625 53.646057 C 139.964371 54.133926 138.505936 54.554565 137.03125 54.908318 C 139.23407 55.503471 141.05687 54.925034 142.5 53.172707 C 142.655319 54.00769 142.707504 54.849304 142.65625 55.697227 C 142.345306 59.111954 142.241241 62.583168 142.34375 66.110878 C 142.26062 67.406265 142.41687 68.668526 142.8125 69.897652 C 143.843124 71.254585 144.989059 72.516838 146.25 73.684433 C 146.464996 73.946991 146.412811 74.15715 146.09375 74.315567 C 145.747177 73.971596 145.434677 73.971596 145.15625 74.315567 C 146.607193 75.303596 147.284378 76.670944 147.1875 78.417908 C 146.826248 77.94677 146.565628 77.999474 146.40625 78.575691 C 147.608124 80.127007 147.920624 81.862617 147.34375 83.782516 C 147.135315 83.572037 146.927185 83.361862 146.71875 83.151382 C 146.614685 83.309166 146.510315 83.466949 146.40625 83.624733 C 147.033127 84.87278 147.085312 86.187752 146.5625 87.56929 C 145.78157 89.908257 144.740005 92.117218 143.4375 94.196167 C 141.727188 95.923248 140.008438 97.658859 138.28125 99.402969 C 138.424057 99.53363 138.528427 99.691406 138.59375 99.876343 C 136.06781 105.424927 132.109695 109.579636 126.71875 112.341156 C 127.377182 112.740021 127.689682 113.318451 127.65625 114.076767 C 127.036247 114.113693 126.515625 113.903198 126.09375 113.445633 C 125.712814 113.686401 125.400314 114.001968 125.15625 114.392319 C 124.865944 114.01712 124.761879 113.596466 124.84375 113.130066 C 124.330307 113.123764 123.913742 113.334244 123.59375 113.761192 C 123.171249 113.439941 122.858749 113.019295 122.65625 112.498932 C 121.60656 113.423225 121.085625 113.160362 121.09375 111.710022 C 121.197815 111.341759 121.302185 110.973801 121.40625 110.605545 C 122.962502 109.666107 124.108437 108.508926 124.84375 107.134323 C 122.179688 109.559448 119.158752 111.400452 115.78125 112.656708 C 114.84375 112.761795 113.90625 112.867203 112.96875 112.972282 C 113.627182 113.371155 113.939682 113.949585 113.90625 114.707886 C 113.28125 114.707886 112.65625 114.707886 112.03125 114.707886 C 111.903755 114.347198 111.695305 114.031631 111.40625 113.761192 C 110.881569 114.267365 110.256569 114.477844 109.53125 114.392319 C 109.322815 113.130066 109.114685 113.130066 108.90625 114.392319 C 108.489685 114.392319 108.072815 114.392319 107.65625 114.392319 C 107.631561 113.941063 107.735626 113.520096 107.96875 113.130066 C 107.286255 113.32193 106.661255 113.111443 106.09375 112.498932 C 106.242805 112.190308 106.450935 111.927444 106.71875 111.710022 C 102.495621 110.338577 99.370621 107.656281 97.34375 103.663116 C 94.604996 102.74324 92.573746 101.060333 91.25 98.614082 C 92.564056 99.496384 93.970306 99.917351 95.46875 99.876343 C 93.815002 99.194077 92.148438 98.510254 90.46875 97.825165 C 87.453743 95.902115 86.464058 93.219803 87.5 89.778259 C 88.571251 91.439713 89.977501 92.701965 91.71875 93.565033 C 92.05188 93.941177 92.31218 93.836105 92.5 93.249466 C 93.010941 93.636353 93.479691 94.057007 93.90625 94.511734 C 92.179062 95.043137 90.616562 94.72757 89.21875 93.565033 C 89.114685 93.67012 89.010315 93.775513 88.90625 93.880608 C 89.458435 94.912498 90.1875 95.806488 91.09375 96.562904 C 93.44812 97.59259 95.531555 99.012634 97.34375 100.823029 C 96.510315 101.033508 95.677185 101.243683 94.84375 101.454147 C 97.759064 102.931 100.363121 104.877075 102.65625 107.292114 C 103.222191 107.015991 103.847191 106.910591 104.53125 106.976547 C 104.866562 107.371002 104.866562 107.791969 104.53125 108.238808 C 106.151878 109.644958 108.026878 110.538963 110.15625 110.921104 C 110.140625 110.261581 110.453125 109.840927 111.09375 109.658844 C 111.778122 110.052658 111.882187 110.578407 111.40625 111.236671 C 111.510315 111.341759 111.614685 111.447159 111.71875 111.552231 C 111.995621 111.291901 112.099686 110.976326 112.03125 110.605545 C 114.918747 110.822968 117.626877 110.244225 120.15625 108.869934 C 123.07531 107.186401 125.88781 105.345703 128.59375 103.347557 C 128.90625 103.452637 129.114685 103.663116 129.21875 103.978683 C 127.864685 106.08255 126.510315 108.186111 125.15625 110.289978 C 125.52906 110.884506 126.04969 111.042282 126.71875 110.763329 C 131.919373 107.892944 135.200623 103.527733 136.5625 97.667374 C 140.454376 95.238152 142.745926 91.872337 143.4375 87.56929 C 142.5 87.884857 141.5625 88.200424 140.625 88.515991 C 140.189072 88.427628 139.824371 88.217148 139.53125 87.884857 C 140.971863 87.38311 142.378113 86.857391 143.75 86.30703 C 143.996567 84.496643 143.892502 82.708641 143.4375 80.942429 C 142.847183 80.754044 142.274384 80.648636 141.71875 80.626869 C 142.104675 79.811127 142.625626 79.127296 143.28125 78.575691 C 142.756256 77.308067 142.391571 75.993111 142.1875 74.631126 C 141.85968 74.310204 141.494995 74.2575 141.09375 74.473351 C 139.795929 75.601486 138.441879 76.653587 137.03125 77.628998 C 136.738434 77.847366 136.530319 77.79467 136.40625 77.471214 C 137.259689 76.975464 137.832809 76.23893 138.125 75.26226 C 138.333435 74 138.333435 72.73774 138.125 71.475479 C 136.878433 69.639839 135.472183 67.956612 133.90625 66.426437 C 133.696243 65.52961 133.279373 64.7407 132.65625 64.0597 C 134.524063 63.957458 136.294998 63.589195 137.96875 62.955223 C 138.610321 62.986153 139.131256 62.775673 139.53125 62.324097 C 141.744064 61.268204 142.264999 59.638 141.09375 57.432838 C 139.848129 57.275368 138.598129 57.222664 137.34375 57.275055 C 138.056564 57.018181 138.681564 56.597221 139.21875 56.012794 C 138.037186 55.702599 136.891571 55.334328 135.78125 54.908318 C 136.910004 54.548882 137.951874 54.022842 138.90625 53.33049 C 136.350616 52.950562 133.850616 52.477203 131.40625 51.910454 C 131.993439 51.944206 132.097504 51.786438 131.71875 51.437096 C 131.314682 51.282471 130.897812 51.229782 130.46875 51.27932 C 130.327179 50.977005 130.119064 50.713829 129.84375 50.49041 C 130.701248 50.496391 131.534683 50.706894 132.34375 51.121536 C 135.160934 51.708168 137.973434 51.708168 140.78125 51.121536 C 141.757492 50.970375 142.642807 50.602119 143.4375 50.017059 C 143.56218 50.089005 143.614059 50.194412 143.59375 50.332626 Z" stroke="none" fill-rule="evenodd" fill="#7b38a0" id="path33"></path>
    </g>
    <g id="g34">
        <path d="M 110.46875 110.605545 C 111.241562 110.746597 111.293755 111.062164 110.625 111.552231 C 110.47406 111.253082 110.422195 110.937515 110.46875 110.605545 Z" stroke="none" fill-rule="evenodd" fill="#0e0612" id="path34"></path>
    </g>
    <g id="g35">
        <path d="M 114.21875 56.959488 C 121.385315 60.126503 128.885315 61.388771 136.71875 60.746269 C 136.480316 60.988617 136.167816 61.1464 135.78125 61.219612 C 128.260315 62.417183 121.177185 61.207314 114.53125 57.590622 C 114.427185 57.380142 114.322815 57.169968 114.21875 56.959488 Z" stroke="none" fill-rule="evenodd" fill="#a34e3e" id="path35"></path>
    </g>
    <g id="g36">
        <path d="M 139.53125 40.234535 C 136.868118 39.434586 134.160004 39.434586 131.40625 40.234535 C 131.510315 40.024063 131.614685 39.813889 131.71875 39.603409 C 132.923447 39.070419 133.756882 38.176422 134.21875 36.921112 C 132.086563 34.164642 129.274063 32.58683 125.78125 32.187637 C 119.21875 31.379692 113.854378 33.536041 109.6875 38.656723 C 109.03875 39.993767 108.517807 41.36142 108.125 42.759056 C 106.839684 50.406143 107.673119 57.769218 110.625 64.848618 C 111.131248 65.39801 111.599998 65.976761 112.03125 66.584221 C 112.34375 66.794701 112.65625 66.794701 112.96875 66.584221 C 113.235626 66.261711 113.548126 65.998863 113.90625 65.795303 C 114.603127 67.641678 115.644684 67.851845 117.03125 66.426437 C 117.894684 67.114693 118.832184 67.220085 119.84375 66.742004 C 120.859375 67.853424 121.796875 69.010597 122.65625 70.213219 C 121.936874 71.353043 121.468124 72.615303 121.25 74 C 119.264061 75.931885 119.055626 78.035759 120.625 80.311302 C 121.23719 80.705124 121.70594 81.231178 122.03125 81.889122 C 121.453438 83.43602 121.714058 84.803368 122.8125 85.99147 C 123.228119 87.86972 123.332184 89.763107 123.125 91.671631 C 123.066872 90.871368 122.910622 90.135162 122.65625 89.462692 C 122.710625 87.363228 122.137497 85.469841 120.9375 83.782516 C 118.929062 81.004295 116.480942 78.690247 113.59375 76.840088 C 115.455627 75.982063 117.330627 75.088074 119.21875 74.157784 C 122.062813 71.42878 121.646248 69.429985 117.96875 68.162048 C 115.382187 67.856583 112.830002 68.014359 110.3125 68.635391 C 110.017181 68.507591 109.808746 68.297104 109.6875 68.004265 C 107.954994 61.38623 106.96563 54.654297 106.71875 47.808105 C 106.583435 40.451965 109.8125 35.24514 116.40625 32.187637 C 126.465942 29.262383 134.590942 31.997345 140.78125 40.392319 C 140.369064 40.453857 139.952179 40.401161 139.53125 40.234535 Z" stroke="none" fill-rule="evenodd" fill="#7c38a0" id="path36"></path>
    </g>
    <g id="g37">
        <path d="M 137.34375 57.275055 C 138.598129 57.222664 139.848129 57.275368 141.09375 57.432838 C 142.264999 59.638 141.744064 61.268204 139.53125 62.324097 C 139.947815 61.79805 140.364685 61.272316 140.78125 60.746269 C 141.19313 59.77906 141.19313 58.779968 140.78125 57.748405 C 136.011871 58.240044 131.220306 58.502914 126.40625 58.537308 C 124.932503 58.428123 123.474068 58.217644 122.03125 57.906181 C 118.567497 56.466576 115.077812 55.099228 111.5625 53.803833 C 111.197815 53.90892 110.833435 54.014313 110.46875 54.1194 C 111.346558 55.374397 112.284058 56.583961 113.28125 57.748405 C 113.670311 57.998016 114.086876 58.1558 114.53125 58.221748 C 116.092819 59.431618 117.759369 60.483398 119.53125 61.377403 C 117.177498 60.636131 114.989998 59.531662 112.96875 58.063965 C 111.863747 57.053848 110.874062 55.949364 110 54.750534 C 109.739372 53.704758 110.155937 53.178696 111.25 53.172707 C 115.833748 54.963226 120.469063 56.593742 125.15625 58.063965 C 128.594376 58.113831 132.031876 58.008743 135.46875 57.748405 C 136.158752 57.688133 136.783752 57.530357 137.34375 57.275055 Z" opacity="0.925" stroke="none" fill-rule="evenodd" fill="#21171a" id="path37"></path>
    </g>
    <g id="g38">
        <path d="M 122.03125 58.852875 C 125.504684 59.31076 128.994064 59.626328 132.5 59.799576 C 134.967499 59.774017 137.415314 59.56385 139.84375 59.168434 C 139.910934 59.698288 139.702499 60.013847 139.21875 60.115143 C 139.08844 59.918221 138.87999 59.813141 138.59375 59.799576 C 132.956558 60.846626 127.435623 60.531052 122.03125 58.852875 Z" stroke="none" fill-rule="evenodd" fill="#a85140" id="path38"></path>
    </g>
    <g id="g39">
        <path d="M 121.71875 58.852875 C 121.822815 58.852875 121.927185 58.852875 122.03125 58.852875 C 127.435623 60.531052 132.956558 60.846626 138.59375 59.799576 C 138.87999 59.813141 139.08844 59.918221 139.21875 60.115143 C 138.401566 60.364754 137.568115 60.574921 136.71875 60.746269 C 128.885315 61.388771 121.385315 60.126503 114.21875 56.959488 C 113.71875 56.59848 113.197815 56.230217 112.65625 55.855011 C 112.8125 55.802315 112.96875 55.749924 113.125 55.697227 C 115.853745 57.1605 118.718124 58.212601 121.71875 58.852875 Z" opacity="0.916" stroke="none" fill-rule="evenodd" fill="#221a19" id="path39"></path>
    </g>
    <g id="g40">
        <path d="M 140.78125 60.746269 C 141.143753 59.276985 140.622818 58.435387 139.21875 58.221748 C 134.914993 58.900215 130.644058 59.005608 126.40625 58.537308 C 131.220306 58.502914 136.011871 58.240044 140.78125 57.748405 C 141.193115 58.779968 141.193115 59.77906 140.78125 60.746269 Z" stroke="none" fill-rule="evenodd" fill="#9c4b39" id="path40"></path>
    </g>
    <g id="g41">
        <path d="M 122.03125 57.906181 C 121.402504 57.743988 120.777504 57.691597 120.15625 57.748405 C 120.862503 57.921646 121.383125 58.289909 121.71875 58.852875 C 118.718124 58.212601 115.853745 57.1605 113.125 55.697227 C 112.96875 55.749924 112.8125 55.802315 112.65625 55.855011 C 113.197815 56.230217 113.71875 56.59848 114.21875 56.959488 C 114.322815 57.169968 114.427185 57.380142 114.53125 57.590622 C 114.216873 57.728828 114.216873 57.939003 114.53125 58.221748 C 114.086876 58.1558 113.670311 57.998016 113.28125 57.748405 C 112.284058 56.583961 111.346558 55.374397 110.46875 54.1194 C 110.833435 54.014313 111.197815 53.90892 111.5625 53.803833 C 115.077812 55.099228 118.567497 56.466576 122.03125 57.906181 Z" stroke="none" fill-rule="evenodd" fill="#c76b53" id="path41"></path>
    </g>
    <g id="g42">
        <path d="M 131.71875 39.603409 C 131.614685 39.813889 131.510315 40.024063 131.40625 40.234535 C 130.339996 40.405579 129.402496 40.826225 128.59375 41.496803 C 125.186874 38.189987 121.124374 37.085518 116.40625 38.183372 C 114.195938 38.663345 112.425003 39.767822 111.09375 41.496803 C 110.348129 41.772285 109.723129 42.245628 109.21875 42.916847 C 111.658752 41.530258 114.26281 40.373077 117.03125 39.445625 C 121.306877 38.43235 124.900627 39.536827 127.8125 42.759056 C 128.383438 43.417336 128.383438 44.048462 127.8125 44.652451 C 124.669067 42.864456 121.283752 42.286034 117.65625 42.916847 C 116.133743 43.264908 114.675629 43.79097 113.28125 44.494667 C 112.53157 45.119484 111.90657 45.803314 111.40625 46.545845 C 111.09375 46.650932 110.885315 46.861404 110.78125 47.176964 C 111.295624 47.90657 111.920624 48.537697 112.65625 49.070358 C 112.65625 49.175446 112.65625 49.280838 112.65625 49.385925 C 112.519379 49.365425 112.415001 49.417801 112.34375 49.543701 C 112.999054 50.561409 113.936554 51.192543 115.15625 51.437096 C 117.029068 51.613174 118.851868 51.981453 120.625 52.54158 C 121.790627 52.238632 122.988434 52.133553 124.21875 52.226006 C 124.307816 53.342484 123.78688 53.920914 122.65625 53.961617 C 123.272812 54.117821 123.897812 54.170525 124.53125 54.1194 C 123.339996 54.379433 122.089996 54.537216 120.78125 54.592751 C 124.775314 55.810829 127.639999 54.496193 129.375 50.648193 C 129.630005 51.065674 129.99469 51.275856 130.46875 51.27932 C 130.616562 51.723015 130.929062 51.933479 131.40625 51.910454 C 133.850616 52.477203 136.350616 52.950562 138.90625 53.33049 C 137.951874 54.022842 136.910004 54.548882 135.78125 54.908318 C 136.891571 55.334328 138.037186 55.702599 139.21875 56.012794 C 138.681564 56.597221 138.056564 57.018181 137.34375 57.275055 C 136.783752 57.530357 136.158752 57.688133 135.46875 57.748405 C 132.031876 58.008743 128.594376 58.113831 125.15625 58.063965 C 120.469063 56.593742 115.833748 54.963226 111.25 53.172707 C 110.155937 53.178696 109.739372 53.704758 110 54.750534 C 110.874062 55.949364 111.863747 57.053848 112.96875 58.063965 C 114.989998 59.531662 117.177498 60.636131 119.53125 61.377403 C 119.897186 61.644051 120.314064 61.854218 120.78125 62.00853 C 121.819069 62.665215 122.965004 63.243645 124.21875 63.744141 C 125.371246 63.8041 126.464996 64.067276 127.5 64.533051 C 128.25 65.586403 128.770935 66.743584 129.0625 68.004265 C 129.166565 68.950958 129.270935 69.897652 129.375 70.844353 C 129.596252 71.122368 129.856873 71.332527 130.15625 71.475479 C 130.394379 72.621933 130.811249 73.673706 131.40625 74.631126 C 131.471573 75.079857 131.627823 75.500511 131.875 75.893387 C 133.05719 77.466797 134.56781 77.992531 136.40625 77.471214 C 136.530319 77.79467 136.738434 77.847366 137.03125 77.628998 C 138.441879 76.653587 139.795929 75.601486 141.09375 74.473351 C 141.494995 74.2575 141.85968 74.310204 142.1875 74.631126 C 142.391571 75.993111 142.756256 77.308067 143.28125 78.575691 C 142.625626 79.127296 142.104675 79.811127 141.71875 80.626869 C 142.274384 80.648636 142.847183 80.754044 143.4375 80.942429 C 143.892502 82.708641 143.996567 84.496643 143.75 86.30703 C 142.378113 86.857391 140.971863 87.38311 139.53125 87.884857 C 139.824371 88.217148 140.189072 88.427628 140.625 88.515991 C 141.5625 88.200424 142.5 87.884857 143.4375 87.56929 C 142.745941 91.872337 140.454376 95.238152 136.5625 97.667374 C 135.200623 103.527733 131.919373 107.892944 126.71875 110.763329 C 126.04969 111.042282 125.52906 110.884506 125.15625 110.289978 C 126.510315 108.186111 127.864685 106.08255 129.21875 103.978683 C 129.114685 103.663116 128.90625 103.452637 128.59375 103.347557 C 125.887817 105.345703 123.075317 107.186401 120.15625 108.869934 C 117.626877 110.244225 114.918747 110.822968 112.03125 110.605545 C 112.099686 110.976326 111.995621 111.291901 111.71875 111.552231 C 111.614685 111.447159 111.510315 111.341759 111.40625 111.236671 C 111.882187 110.578407 111.778122 110.052658 111.09375 109.658844 C 110.453125 109.840927 110.140625 110.261581 110.15625 110.921104 C 108.026878 110.538963 106.151878 109.644958 104.53125 108.238808 C 104.866562 107.791969 104.866562 107.371002 104.53125 106.976547 C 103.847191 106.910591 103.222191 107.015991 102.65625 107.292114 C 100.363121 104.877075 97.759064 102.931 94.84375 101.454147 C 95.677185 101.243683 96.510315 101.033508 97.34375 100.823029 C 95.531555 99.012634 93.44812 97.59259 91.09375 96.562904 C 90.1875 95.806488 89.458435 94.912498 88.90625 93.880608 C 89.010315 93.775513 89.114685 93.67012 89.21875 93.565033 C 90.616562 94.72757 92.179062 95.043137 93.90625 94.511734 C 93.479691 94.057007 93.010941 93.636353 92.5 93.249466 C 92.31218 93.836105 92.05188 93.941177 91.71875 93.565033 C 91.855621 93.585533 91.959999 93.533157 92.03125 93.407242 C 91.755936 93.183838 91.547813 92.920654 91.40625 92.618332 C 89.316254 90.396454 87.961876 87.766846 87.34375 84.729218 C 88.225319 85.123993 89.058441 85.807816 89.84375 86.780396 C 94.056557 88.69429 94.681557 87.905373 91.71875 84.413658 C 90.720306 82.507317 89.522491 80.719017 88.125 79.049042 C 87.476875 77.74102 87.008125 76.373367 86.71875 74.946693 C 86.997185 74.60273 87.309685 74.60273 87.65625 74.946693 C 89.372185 76.392609 91.247185 77.602173 93.28125 78.575691 C 93.791878 78.731583 94.312813 78.783966 94.84375 78.733475 C 94.318123 79.711098 94.161873 80.762863 94.375 81.889122 C 95.172813 82.592522 96.058121 82.697617 97.03125 82.204681 C 97.389999 82.72506 97.806557 83.198395 98.28125 83.624733 C 98.577812 83.819435 98.838127 83.767044 99.0625 83.466949 C 100.486877 85.90564 102.309685 88.009506 104.53125 89.778259 C 103.68 91.676056 103.731873 93.569458 104.6875 95.45842 C 106.991257 98.719162 109.907806 99.455681 113.4375 97.667374 C 115.074997 98.197205 116.585312 97.934357 117.96875 96.878471 C 119.657196 95.527519 121.167816 94.002403 122.5 92.302765 C 122.655624 91.361755 122.707817 90.415062 122.65625 89.462692 C 122.910622 90.135162 123.066872 90.871368 123.125 91.671631 C 123.332184 89.763107 123.228119 87.86972 122.8125 85.99147 C 121.714058 84.803368 121.453438 83.43602 122.03125 81.889122 C 121.70594 81.231178 121.23719 80.705124 120.625 80.311302 C 119.055626 78.035759 119.264061 75.931885 121.25 74 C 121.468124 72.615303 121.936874 71.353043 122.65625 70.213219 C 121.796875 69.010597 120.859375 67.853424 119.84375 66.742004 C 118.832184 67.220085 117.894684 67.114693 117.03125 66.426437 C 115.644684 67.851845 114.603127 67.641678 113.90625 65.795303 C 113.548126 65.998863 113.235626 66.261711 112.96875 66.584221 C 112.65625 66.794701 112.34375 66.794701 112.03125 66.584221 C 111.599998 65.976761 111.131248 65.39801 110.625 64.848618 C 107.673119 57.769218 106.839684 50.406143 108.125 42.759056 C 108.517807 41.36142 109.038757 39.993767 109.6875 38.656723 C 113.854378 33.536041 119.21875 31.379692 125.78125 32.187637 C 129.274063 32.58683 132.086563 34.164642 134.21875 36.921112 C 133.756882 38.176422 132.923447 39.070419 131.71875 39.603409 Z" stroke="none" fill-rule="evenodd" fill="#8f59ac" id="path42"></path>
    </g>
    <g id="g43">
        <path d="M 132.34375 99.876343 C 133.694061 100.131943 133.902496 100.763077 132.96875 101.769714 C 132.584061 101.406509 132.584061 101.038567 132.96875 100.665253 C 132.576248 100.533661 132.367813 100.270782 132.34375 99.876343 Z" stroke="none" fill-rule="evenodd" fill="#3e264b" id="path43"></path>
    </g>
    <g id="g44">
        <path d="M 140.78125 75.26226 C 141.248444 75.235435 141.560944 75.445602 141.71875 75.893387 C 140.581558 77.537483 139.123123 78.799744 137.34375 79.680168 C 137.091248 79.582977 136.882813 79.425194 136.71875 79.206825 C 137.153748 78.503746 137.778748 78.135796 138.59375 78.102348 C 138.59375 77.786781 138.59375 77.471214 138.59375 77.155647 C 139.912506 77.178688 140.641876 76.547554 140.78125 75.26226 Z" stroke="none" fill-rule="evenodd" fill="#7c38a0" id="path44"></path>
    </g>
    <g id="g45">
        <path d="M 131.71875 55.381668 C 132.761887 55.600342 132.918137 56.126389 132.1875 56.959488 C 131.790939 56.516121 131.634689 55.990395 131.71875 55.381668 Z" stroke="none" fill-rule="evenodd" fill="#0a060d" id="path45"></path>
    </g>
    <g id="g46">
        <path d="M 129.84375 55.697227 C 130.923752 56.024155 131.028122 56.550209 130.15625 57.275055 C 129.554993 56.812752 129.450943 56.28669 129.84375 55.697227 Z" stroke="none" fill-rule="evenodd" fill="#19121c" id="path46"></path>
    </g>
    <g id="g47">
        <path d="M 124.53125 54.1194 C 123.897812 54.170525 123.272812 54.117821 122.65625 53.961617 C 123.78688 53.920914 124.307816 53.342484 124.21875 52.226006 C 125.604065 52.122826 126.958435 51.965042 128.28125 51.752663 C 127.485626 53.259491 126.235626 54.048401 124.53125 54.1194 Z" stroke="none" fill-rule="evenodd" fill="#7d39a2" id="path47"></path>
    </g>
    <g id="g48">
        <path d="M 112.65625 49.385925 C 117.04406 51.438683 121.62719 52.017426 126.40625 51.121536 C 127.248756 50.880119 128.029999 50.511864 128.75 50.017059 C 128.889999 50.619469 128.629684 50.987732 127.96875 51.121536 C 126.664063 51.434265 125.414063 51.802528 124.21875 52.226006 C 122.988434 52.133553 121.790627 52.238632 120.625 52.54158 C 118.851868 51.981453 117.029068 51.613174 115.15625 51.437096 C 113.936554 51.192543 112.999054 50.561409 112.34375 49.543701 C 112.415001 49.417801 112.519379 49.365425 112.65625 49.385925 Z" stroke="none" fill-rule="evenodd" fill="#773798" id="path48"></path>
    </g>
    <g id="g49">
        <path d="M 130.46875 51.27932 C 130.897812 51.229782 131.314682 51.282471 131.71875 51.437096 C 132.097504 51.786438 131.993439 51.944206 131.40625 51.910454 C 130.929062 51.933479 130.616562 51.723015 130.46875 51.27932 Z" opacity="0.969" stroke="none" fill-rule="evenodd" fill="#2c1a34" id="path49"></path>
    </g>
    <g id="g50">
        <path d="M 128.59375 41.496803 C 129.151871 42.713303 129.620621 43.975555 130 45.283585 C 130.326569 45.008095 130.586868 44.692528 130.78125 44.336884 C 131.483124 44.035515 132.212189 43.825035 132.96875 43.705757 C 133.177185 43.705757 133.28125 43.810844 133.28125 44.021324 C 131.655624 44.187309 130.614059 44.923523 130.15625 46.230278 C 131.8125 44.936768 133.6875 44.410736 135.78125 44.652451 C 135.068436 44.917213 134.339066 45.23278 133.59375 45.599152 C 133.303436 45.97435 133.199371 46.394997 133.28125 46.861404 C 132.98938 46.524391 132.884995 46.103737 132.96875 45.599152 C 131.894684 45.79921 130.904999 46.219856 130 46.861404 C 130.31282 47.712807 130.15657 48.501717 129.53125 49.228142 C 131.818115 50.406471 134.26593 50.985207 136.875 50.963753 C 137.510315 50.961861 138.08313 50.856781 138.59375 50.648193 C 138.802185 50.648193 139.010315 50.648193 139.21875 50.648193 C 140.695313 50.565834 142.049683 50.144859 143.28125 49.385925 C 143.922501 49.560432 144.026566 49.875999 143.59375 50.332626 C 143.614059 50.194412 143.56218 50.089005 143.4375 50.017059 C 142.642807 50.602119 141.757492 50.970375 140.78125 51.121536 C 137.973434 51.708168 135.160934 51.708168 132.34375 51.121536 C 131.534683 50.706894 130.701248 50.496391 129.84375 50.49041 C 130.119064 50.713829 130.327179 50.977005 130.46875 51.27932 C 129.99469 51.275856 129.630005 51.065674 129.375 50.648193 C 127.639999 54.496193 124.775314 55.810829 120.78125 54.592751 C 122.089996 54.537216 123.339996 54.379433 124.53125 54.1194 C 126.235626 54.048401 127.485626 53.259491 128.28125 51.752663 C 126.958435 51.965042 125.604065 52.122826 124.21875 52.226006 C 125.414063 51.802528 126.664063 51.434265 127.96875 51.121536 C 128.629684 50.987732 128.889999 50.619469 128.75 50.017059 C 128.029999 50.511864 127.248756 50.880119 126.40625 51.121536 C 121.62719 52.017426 117.04406 51.438683 112.65625 49.385925 C 112.65625 49.280838 112.65625 49.175446 112.65625 49.070358 C 113.929993 49.744408 115.284378 50.165375 116.71875 50.332626 C 120.606567 51.734673 124.460617 51.576889 128.28125 49.859268 C 129.378128 49.2575 129.742493 48.363503 129.375 47.176964 C 127.982185 45.468819 126.263435 44.732285 124.21875 44.96801 C 123.802185 44.757538 123.802185 44.547363 124.21875 44.336884 C 126.290314 44.25264 128.009064 44.988846 129.375 46.545845 C 129.365936 42.535957 127.439056 39.95874 123.59375 38.814499 C 118.994377 37.923019 114.827812 38.817024 111.09375 41.496803 C 112.425003 39.767822 114.195938 38.663345 116.40625 38.183372 C 121.124374 37.085518 125.186874 38.189987 128.59375 41.496803 Z" opacity="0.965" stroke="none" fill-rule="evenodd" fill="#1b161d" id="path50"></path>
    </g>
    <g id="g51">
        <path d="M 118.28125 47.808105 C 120.345001 50.493874 122.636871 50.704346 125.15625 48.439232 C 125.978745 48.700195 126.811874 48.963074 127.65625 49.228142 C 126.559372 49.877258 125.413437 50.402992 124.21875 50.805969 C 121.728752 50.635246 119.228752 50.477463 116.71875 50.332626 C 115.64032 49.713173 114.598434 48.976959 113.59375 48.123672 C 115.142502 47.80999 116.705002 47.70491 118.28125 47.808105 Z" stroke="none" fill-rule="evenodd" fill="#fbddf6" id="path51"></path>
    </g>
    <g id="g52">
        <path d="M 133.28125 47.492531 C 134.701874 49.603035 136.681244 50.391945 139.21875 49.859268 C 139.885941 49.58284 140.302811 49.109489 140.46875 48.439232 C 141.187195 48.189613 141.812195 48.400101 142.34375 49.070358 C 141.264069 49.597992 140.222183 50.124031 139.21875 50.648193 C 139.010315 50.648193 138.802185 50.648193 138.59375 50.648193 C 136.512497 50.332306 134.429062 49.964043 132.34375 49.543701 C 131.855942 49.246773 131.439072 48.878502 131.09375 48.439232 C 131.762817 47.981033 132.492188 47.665466 133.28125 47.492531 Z" stroke="none" fill-rule="evenodd" fill="#f9ddf4" id="path52"></path>
    </g>
    <g id="g53">
        <path d="M 142.34375 46.230278 C 142.997498 46.670166 143.518127 47.248917 143.90625 47.965889 C 143.736252 48.466064 143.527817 48.939407 143.28125 49.385925 C 142.049683 50.144859 140.695313 50.565834 139.21875 50.648193 C 140.222183 50.124031 141.264069 49.597992 142.34375 49.070358 C 141.812195 48.400101 141.187195 48.189613 140.46875 48.439232 C 140.634064 47.27417 140.321564 46.275093 139.53125 45.441368 C 140.449371 45.660995 141.386871 45.924179 142.34375 46.230278 Z" stroke="none" fill-rule="evenodd" fill="#ecbff2" id="path53"></path>
    </g>
    <g id="g54">
        <path d="M 133.28125 46.861404 C 133.28125 47.071884 133.28125 47.282066 133.28125 47.492531 C 132.492188 47.665466 131.762817 47.981033 131.09375 48.439232 C 131.439072 48.878502 131.855942 49.246773 132.34375 49.543701 C 134.429062 49.964043 136.512497 50.332306 138.59375 50.648193 C 138.08313 50.856781 137.510315 50.961861 136.875 50.963753 C 134.26593 50.985207 131.818115 50.406471 129.53125 49.228142 C 130.15657 48.501717 130.31282 47.712807 130 46.861404 C 130.904999 46.219856 131.894684 45.79921 132.96875 45.599152 C 132.884995 46.103737 132.98938 46.524391 133.28125 46.861404 Z" stroke="none" fill-rule="evenodd" fill="#e9bcf1" id="path54"></path>
    </g>
    <g id="g55">
        <path d="M 124.21875 44.96801 C 126.263435 44.732285 127.982185 45.468819 129.375 47.176964 C 129.742493 48.363503 129.378128 49.2575 128.28125 49.859268 C 124.460625 51.576889 120.606567 51.734673 116.71875 50.332626 C 119.228752 50.477463 121.728752 50.635246 124.21875 50.805969 C 125.413437 50.402992 126.559372 49.877258 127.65625 49.228142 C 126.811874 48.963074 125.978745 48.700195 125.15625 48.439232 C 125.207504 47.591309 125.155319 46.749695 125 45.914719 C 124.882187 45.459663 124.62188 45.144096 124.21875 44.96801 Z" stroke="none" fill-rule="evenodd" fill="#e7baef" id="path55"></path>
    </g>
    <g id="g56">
        <path d="M 118.28125 47.808105 C 116.705002 47.70491 115.142502 47.80999 113.59375 48.123672 C 114.598434 48.976959 115.64032 49.713173 116.71875 50.332626 C 115.284378 50.165375 113.929993 49.744408 112.65625 49.070358 C 111.920624 48.537697 111.295624 47.90657 110.78125 47.176964 C 112.863434 46.073753 115.050934 45.23246 117.34375 44.652451 C 117.552185 44.757538 117.760315 44.862938 117.96875 44.96801 C 117.613129 45.956047 117.717506 46.902748 118.28125 47.808105 Z" stroke="none" fill-rule="evenodd" fill="#ecbdf4" id="path56"></path>
    </g>
    <g id="g57">
        <path d="M 135.78125 44.652451 C 137.139374 44.60006 138.493439 44.652771 139.84375 44.810226 C 140.822815 45.081619 141.65625 45.554962 142.34375 46.230278 C 141.386871 45.924179 140.449371 45.660995 139.53125 45.441368 C 140.321564 46.275093 140.634064 47.27417 140.46875 48.439232 C 140.302811 49.109489 139.885941 49.58284 139.21875 49.859268 C 136.681244 50.391945 134.701874 49.603035 133.28125 47.492531 C 133.28125 47.282066 133.28125 47.071884 133.28125 46.861404 C 133.199371 46.394997 133.303436 45.97435 133.59375 45.599152 C 134.339066 45.23278 135.068436 44.917213 135.78125 44.652451 Z" opacity="0.996" stroke="none" fill-rule="evenodd" fill="#0c0a0b" id="path57"></path>
    </g>
    <g id="g58">
        <path d="M 124.21875 44.336884 C 123.802185 44.547363 123.802185 44.757538 124.21875 44.96801 C 124.62188 45.144096 124.882187 45.459663 125 45.914719 C 125.155319 46.749695 125.207504 47.591309 125.15625 48.439232 C 122.636871 50.704346 120.345001 50.493874 118.28125 47.808105 C 117.717506 46.902748 117.613129 45.956047 117.96875 44.96801 C 117.760315 44.862938 117.552185 44.757538 117.34375 44.652451 C 115.050934 45.23246 112.863434 46.073753 110.78125 47.176964 C 110.885315 46.861404 111.09375 46.650932 111.40625 46.545845 C 115.415619 44.221077 119.686249 43.484863 124.21875 44.336884 Z" opacity="0.995" stroke="none" fill-rule="evenodd" fill="#0a080a" id="path58"></path>
    </g>
    <g id="g59">
        <path d="M 131.40625 40.234535 C 131.010941 40.543488 130.59407 40.859047 130.15625 41.181236 C 130.260315 41.286324 130.364685 41.391716 130.46875 41.496803 C 131.226563 40.977692 132.059998 40.609741 132.96875 40.392319 C 135.060944 40.182472 137.144379 40.235176 139.21875 40.55011 C 142.694992 41.589256 144.413742 43.903297 144.375 47.492531 C 143.863129 46.78756 143.185944 46.366913 142.34375 46.230278 C 141.65625 45.554962 140.822815 45.081619 139.84375 44.810226 C 138.493439 44.652771 137.139374 44.60006 135.78125 44.652451 C 133.6875 44.410736 131.8125 44.936768 130.15625 46.230278 C 130.614059 44.923523 131.655624 44.187309 133.28125 44.021324 C 134.788757 43.866058 136.246872 43.655586 137.65625 43.390198 C 138.915939 43.528099 140.113754 43.843658 141.25 44.336884 C 141.510315 44.231796 141.770935 44.126411 142.03125 44.021324 C 140.170944 41.516991 137.670944 40.517609 134.53125 41.02346 C 132.670319 41.275902 131.315933 42.222595 130.46875 43.863541 C 130.490631 44.10495 130.594696 44.262733 130.78125 44.336884 C 130.586868 44.692528 130.326569 45.008095 130 45.283585 C 129.620636 43.975555 129.151886 42.713303 128.59375 41.496803 C 129.402512 40.826225 130.340012 40.405579 131.40625 40.234535 Z" stroke="none" fill-rule="evenodd" fill="#7c38a0" id="path59"></path>
    </g>
    <g id="g60">
        <path d="M 124.21875 44.336884 C 119.686249 43.484863 115.415619 44.221077 111.40625 46.545845 C 111.90657 45.803314 112.53157 45.119484 113.28125 44.494667 C 114.675629 43.79097 116.133743 43.264908 117.65625 42.916847 C 121.283752 42.286034 124.669067 42.864456 127.8125 44.652451 C 128.383438 44.048462 128.383438 43.417336 127.8125 42.759056 C 124.900627 39.536827 121.306877 38.43235 117.03125 39.445625 C 114.26281 40.373077 111.658752 41.530258 109.21875 42.916847 C 109.723129 42.245628 110.348129 41.772285 111.09375 41.496803 C 114.827812 38.817024 118.994377 37.923019 123.59375 38.814499 C 127.439056 39.95874 129.365936 42.535957 129.375 46.545845 C 128.009064 44.988846 126.290314 44.25264 124.21875 44.336884 Z" stroke="none" fill-rule="evenodd" fill="#79369d" id="path60"></path>
    </g>
    <g id="g61">
        <path d="M 137.65625 43.390198 C 137.092499 43.181297 136.467499 43.07621 135.78125 43.074631 C 134.745621 43.025085 133.808121 43.235252 132.96875 43.705757 C 132.212189 43.825035 131.483124 44.035515 130.78125 44.336884 C 130.594696 44.262733 130.490631 44.10495 130.46875 43.863541 C 131.315933 42.222595 132.670319 41.275902 134.53125 41.02346 C 137.670929 40.517609 140.170929 41.516991 142.03125 44.021324 C 141.770935 44.126411 141.510315 44.231796 141.25 44.336884 C 140.113754 43.843658 138.915939 43.528099 137.65625 43.390198 Z" stroke="none" fill-rule="evenodd" fill="#905aad" id="path61"></path>
    </g>
    <g id="g62">
        <path d="M 137.65625 43.390198 C 136.246872 43.655586 134.788757 43.866058 133.28125 44.021324 C 133.28125 43.810844 133.177185 43.705757 132.96875 43.705757 C 133.808121 43.235252 134.745621 43.025085 135.78125 43.074631 C 136.467499 43.07621 137.092499 43.181297 137.65625 43.390198 Z" opacity="0.992" stroke="none" fill-rule="evenodd" fill="#3b2148" id="path62"></path>
    </g>
    <g id="g63">
        <path d="M 139.53125 40.234535 C 139.322815 40.234535 139.21875 40.339622 139.21875 40.55011 C 137.144379 40.235176 135.060944 40.182472 132.96875 40.392319 C 132.059998 40.609741 131.226563 40.977692 130.46875 41.496803 C 130.364685 41.391716 130.260315 41.286324 130.15625 41.181236 C 130.594055 40.859047 131.010925 40.543488 131.40625 40.234535 C 134.160004 39.434586 136.868118 39.434586 139.53125 40.234535 Z" opacity="0.965" stroke="none" fill-rule="evenodd" fill="#2a1a30" id="path63"></path>
    </g>
    <g id="g64">
        <path d="M 131.71875 39.603409 C 129.48938 40.045197 127.510002 39.519165 125.78125 38.025581 C 125.833435 37.920509 125.885315 37.815102 125.9375 37.710014 C 127.60656 39.180565 129.481567 39.601524 131.5625 38.972282 C 131.707489 39.159721 131.759689 39.370209 131.71875 39.603409 Z" stroke="none" fill-rule="evenodd" fill="#140d17" id="path64"></path>
    </g>
    <g id="g65">
        <path d="M 127.65625 37.710014 C 128.868744 37.690773 130.118744 37.690773 131.40625 37.710014 C 130.167511 38.524498 128.917511 38.524498 127.65625 37.710014 Z" stroke="none" fill-rule="evenodd" fill="#120b14" id="path65"></path>
    </g>
    <g id="g66">
        <path d="M 115.78125 27.611938 C 115.517815 28.139977 115.10125 28.508148 114.53125 28.716415 C 113.382187 28.859215 112.236252 28.80661 111.09375 28.558632 C 108.190315 28.490074 107.096565 29.857498 107.8125 32.66098 C 108.442497 33.350174 109.11969 33.9813 109.84375 34.554375 C 111.650932 33.231834 113.629997 32.285133 115.78125 31.714287 C 113.735626 32.930473 111.756561 34.298134 109.84375 35.816628 C 107.895004 34.32338 106.645004 32.377296 106.09375 29.978676 C 106.187813 28.621506 106.916878 27.885155 108.28125 27.769722 C 110.793121 27.894279 113.293121 27.841698 115.78125 27.611938 Z" stroke="none" fill-rule="evenodd" fill="#ed3dad" id="path66"></path>
    </g>
    <g id="g67">
        <path d="M 130.15625 26.349678 C 131.628754 24.673714 133.139069 24.673714 134.6875 26.349678 C 135.131866 27.148087 135.235931 27.989578 135 28.874207 C 134.243118 30.138 133.722183 31.50544 133.4375 32.97654 C 127.819061 30.174927 122.037811 29.754181 116.09375 31.714287 C 117.644379 30.093895 119.519379 29.56794 121.71875 30.136459 C 123.532188 29.883034 124.469688 28.831154 124.53125 26.980812 C 124.451561 25.017899 123.826561 23.282295 122.65625 21.773994 C 118.747498 20.986115 116.820618 22.616539 116.875 26.665253 C 116.665314 26.902679 116.404999 27.007889 116.09375 26.980812 C 116.381874 20.661842 119.194374 19.136597 124.53125 22.405121 C 125.528748 23.889664 126.674377 25.257095 127.96875 26.507469 C 128.714066 26.683052 129.443115 26.63044 130.15625 26.349678 Z" stroke="none" fill-rule="evenodd" fill="#eb3cab" id="path67"></path>
    </g>
    <g id="g68">
        <path d="M 130.15625 26.349678 C 130.776245 26.386528 131.296875 26.176155 131.71875 25.718544 C 131.901871 25.784599 132.058121 25.889771 132.1875 26.034111 C 132.581879 27.42556 132.321259 28.635254 131.40625 29.663116 C 130.342804 29.954506 129.457504 29.691544 128.75 28.874207 C 128.541565 28.558632 128.541565 28.243065 128.75 27.927505 C 129.299377 27.427902 129.768127 26.901939 130.15625 26.349678 Z" stroke="none" fill-rule="evenodd" fill="#fe48d7" id="path68"></path>
    </g>
    <g id="g69">
        <path d="M 116.09375 31.714287 C 115.989685 31.714287 115.885315 31.714287 115.78125 31.714287 C 113.629997 32.285133 111.650932 33.231834 109.84375 34.554375 C 109.11969 33.9813 108.442497 33.350174 107.8125 32.66098 C 107.096565 29.857498 108.190315 28.490074 111.09375 28.558632 C 112.236252 28.80661 113.382187 28.859215 114.53125 28.716415 C 115.10125 28.508148 115.517815 28.139977 115.78125 27.611938 C 115.885315 27.401558 115.989685 27.191193 116.09375 26.980812 C 116.404999 27.007889 116.665314 26.902679 116.875 26.665253 C 116.820625 22.616539 118.747505 20.986115 122.65625 21.773994 C 123.826561 23.282295 124.451561 25.017899 124.53125 26.980812 C 124.469688 28.831154 123.532188 29.883034 121.71875 30.136459 C 119.519379 29.56794 117.644379 30.093895 116.09375 31.714287 Z" stroke="none" fill-rule="evenodd" fill="#fe49d8" id="path69"></path>
    </g>
    <g id="g70">
        <path d="M 129.21875 119.756935 C 129.384689 120.427185 129.801559 120.900536 130.46875 121.176971 C 129.935318 121.23851 129.414383 121.23851 128.90625 121.176971 C 129.165009 121.465714 129.477509 121.675888 129.84375 121.808105 C 129.332184 122.423767 128.863434 122.371071 128.4375 121.650314 C 128.284378 121.242294 128.232178 120.82132 128.28125 120.388054 C 128.111252 119.081619 128.423752 118.87114 129.21875 119.756935 Z" stroke="none" fill-rule="evenodd" fill="#e0a18f" id="path70"></path>
    </g>
    <g id="g71">
        <path d="M 129.21875 119.756935 C 130.218445 119.8396 130.843445 120.365334 131.09375 121.334747 C 129.81218 122.256836 128.56218 123.256226 127.34375 124.332626 C 126.565933 124.62957 125.940933 124.471802 125.46875 123.859268 C 126.642502 124.411522 127.475624 124.095955 127.96875 122.912582 C 128.60907 122.847572 128.71344 122.584709 128.28125 122.123672 C 127.454376 121.966827 126.620941 121.914131 125.78125 121.965889 C 126.439682 121.660423 127.169067 121.555023 127.96875 121.650314 C 127.96875 121.334747 127.96875 121.01918 127.96875 120.703621 C 127.96875 120.598534 127.96875 120.493149 127.96875 120.388054 C 128.072815 120.388054 128.177185 120.388054 128.28125 120.388054 C 128.232178 120.82132 128.284378 121.242294 128.4375 121.650314 C 128.863434 122.371071 129.332184 122.423767 129.84375 121.808105 C 129.477509 121.675888 129.165009 121.465714 128.90625 121.176971 C 129.414383 121.23851 129.935318 121.23851 130.46875 121.176971 C 129.801559 120.900536 129.384689 120.427185 129.21875 119.756935 Z" opacity="0.973" stroke="none" fill-rule="evenodd" fill="#59403c" id="path71"></path>
    </g>
    <g id="g72">
        <path d="M 127.96875 120.703621 C 127.96875 121.01918 127.96875 121.334747 127.96875 121.650314 C 127.169067 121.555023 126.439682 121.660423 125.78125 121.965889 C 125.176559 122.171005 124.551559 122.276093 123.90625 122.281456 C 125.200005 121.62886 126.554062 121.102829 127.96875 120.703621 Z" opacity="0.994" stroke="none" fill-rule="evenodd" fill="#191928" id="path72"></path>
    </g>
    <g id="g73">
        <path d="M 127.96875 120.388054 C 127.96875 120.493149 127.96875 120.598534 127.96875 120.703621 C 126.554062 121.102829 125.200005 121.62886 123.90625 122.281456 C 123.43219 122.284912 123.067505 122.495087 122.8125 122.912582 C 122.631561 122.461945 122.683754 122.040993 122.96875 121.650314 C 124.385307 121.182022 125.843758 120.971863 127.34375 121.01918 C 127.24469 120.049774 127.348747 119.103081 127.65625 118.179108 C 127.960625 118.886925 128.065002 119.623131 127.96875 120.388054 Z" stroke="none" fill-rule="evenodd" fill="#034884" id="path73"></path>
    </g>
    <g id="g74">
        <path d="M 112.96875 123.228149 C 112.443436 123.70401 111.818436 124.019577 111.09375 124.174843 C 110.572815 124.385323 110.052185 124.59549 109.53125 124.805969 C 109.549065 124.456009 109.65313 124.140442 109.84375 123.859268 C 111.289375 122.126503 113.164375 121.495377 115.46875 121.965889 C 115.557182 122.214867 115.713432 122.425346 115.9375 122.597015 C 115.781883 121.957359 115.834068 121.326233 116.09375 120.703621 C 116.398125 121.411438 116.502502 122.147644 116.40625 122.912582 C 115.196564 122.813179 114.050629 122.918259 112.96875 123.228149 Z" stroke="none" fill-rule="evenodd" fill="#1c3a67" id="path74"></path>
    </g>
    <g id="g75">
        <path d="M 118.90625 123.859268 C 117.280312 123.89682 116.655312 123.160301 117.03125 121.650314 C 117.207809 122.284607 117.520309 122.810341 117.96875 123.228149 C 118.802185 122.912582 118.802185 122.597015 117.96875 122.281456 C 118.247185 121.937477 118.559685 121.937477 118.90625 122.281456 C 119.19812 122.784775 119.19812 123.310501 118.90625 123.859268 Z" stroke="none" fill-rule="evenodd" fill="#da9684" id="path75"></path>
    </g>
    <g id="g76">
        <path d="M 109.21875 124.805969 C 109.21875 125.016449 109.114685 125.121529 108.90625 125.121529 C 107.658432 124.758316 106.720932 124.02179 106.09375 122.912582 C 106.503754 121.763611 106.868439 121.869003 107.1875 123.228149 C 107.789375 123.87159 108.46656 124.397614 109.21875 124.805969 Z" stroke="none" fill-rule="evenodd" fill="#e0dce2" id="path76"></path>
    </g>
    <g id="g77">
        <path d="M 112.96875 123.228149 C 114.119377 123.176079 115.264999 123.228462 116.40625 123.385918 C 116.667816 123.704964 116.771881 124.073235 116.71875 124.49041 C 117.255005 124.449707 117.77594 124.34462 118.28125 124.174843 C 118.28125 124.279922 118.28125 124.385323 118.28125 124.49041 C 117.480621 125.308037 116.751564 125.202942 116.09375 124.174843 C 115.687805 124.361023 115.427505 124.67659 115.3125 125.121529 C 114.717804 125.060318 114.144684 125.060318 113.59375 125.121529 C 113.489685 125.542191 113.385315 125.96315 113.28125 126.383789 C 112.417816 125.722366 111.688446 124.98584 111.09375 124.174843 C 111.818436 124.019577 112.443436 123.70401 112.96875 123.228149 Z" stroke="none" fill-rule="evenodd" fill="#f3b4a4" id="path77"></path>
    </g>
    <g id="g78">
        <path d="M 125.46875 123.859268 C 125.940933 124.471802 126.565933 124.62957 127.34375 124.332626 C 128.56218 123.256226 129.81218 122.256836 131.09375 121.334747 C 131.377502 121.950737 131.325317 122.581863 130.9375 123.228149 C 129.217499 125.149612 127.081871 125.833458 124.53125 125.27932 C 122.604065 123.964355 120.677185 122.649712 118.75 121.334747 C 118.506569 120.5755 118.766869 120.049461 119.53125 119.756935 C 120.252808 121.011307 121.190308 122.06308 122.34375 122.912582 C 123.335938 123.414642 124.377815 123.730202 125.46875 123.859268 Z" stroke="none" fill-rule="evenodd" fill="#ebe5ee" id="path78"></path>
    </g>
    <g id="g79">
        <path d="M 125.78125 121.965889 C 126.620941 121.914131 127.454376 121.966827 128.28125 122.123672 C 128.71344 122.584709 128.60907 122.847572 127.96875 122.912582 C 127.475624 124.095955 126.642502 124.411522 125.46875 123.859268 C 125.04937 123.451256 124.528435 123.188385 123.90625 123.070358 C 123.563126 122.827377 123.563126 122.564522 123.90625 122.281456 C 124.551559 122.276093 125.176559 122.171005 125.78125 121.965889 Z" stroke="none" fill-rule="evenodd" fill="#e7a492" id="path79"></path>
    </g>
    <g id="g80">
        <path d="M 127.96875 122.912582 C 127.451248 123.116432 126.930313 123.32692 126.40625 123.543716 C 126.197815 123.438629 125.989685 123.333229 125.78125 123.228149 C 126.046249 122.757629 126.462814 122.547165 127.03125 122.597015 C 127.414383 122.603317 127.726883 122.708405 127.96875 122.912582 Z" opacity="0.945" stroke="none" fill-rule="evenodd" fill="#411e1c" id="path80"></path>
    </g>
    <g id="g81">
        <path d="M 111.09375 124.174843 C 111.688446 124.98584 112.417816 125.722366 113.28125 126.383789 C 113.385315 125.96315 113.489685 125.542191 113.59375 125.121529 C 114.144691 125.060318 114.717812 125.060318 115.3125 125.121529 C 115.427505 124.67659 115.687813 124.361023 116.09375 124.174843 C 116.751564 125.202942 117.480621 125.308037 118.28125 124.49041 C 118.308128 124.804718 118.203758 125.067581 117.96875 125.27932 C 116.494377 125.99408 114.931877 126.467422 113.28125 126.699364 C 112.433746 126.424187 111.704681 125.950836 111.09375 125.27932 C 110.480309 125.012978 110.063751 125.170769 109.84375 125.75267 C 109.46563 125.616333 109.15313 125.405861 108.90625 125.121529 C 109.114685 125.121529 109.21875 125.016449 109.21875 124.805969 C 109.322815 124.805969 109.427185 124.805969 109.53125 124.805969 C 110.052185 124.59549 110.572815 124.385323 111.09375 124.174843 Z" opacity="0.984" stroke="none" fill-rule="evenodd" fill="#4b3633" id="path81"></path>
    </g>
    <g id="g82">
        <path d="M 109.84375 125.75267 C 110.063751 125.170769 110.480309 125.012978 111.09375 125.27932 C 111.704681 125.950836 112.433746 126.424187 113.28125 126.699364 C 114.931877 126.467422 116.494377 125.99408 117.96875 125.27932 C 118.203758 125.067581 118.308128 124.804718 118.28125 124.49041 C 118.28125 124.385323 118.28125 124.279922 118.28125 124.174843 C 118.591255 124.229118 118.79937 124.123718 118.90625 123.859268 C 119.96125 123.161888 120.1175 123.477448 119.375 124.805969 C 116.417191 127.660576 113.240005 127.976135 109.84375 125.75267 Z" stroke="none" fill-rule="evenodd" fill="#dfdce2" id="path82"></path>
    </g>
</svg>
