<svg xmlns="http://www.w3.org/2000/svg" viewBox="0 0 250 148" height="148" width="250">
    <g id="Group">
        <path d="M 131.40625 40.55011 C 131.299377 40.81456 131.091248 40.919952 130.78125 40.865677 C 130.033127 41.028198 129.303757 41.23835 128.59375 41.496803 C 123.640938 37.399498 118.328438 36.926155 112.65625 40.076752 C 112.112503 40.555466 111.591873 41.028816 111.09375 41.496803 C 110.660934 41.749886 110.713127 41.960365 111.25 42.12793 C 115.561874 39.77034 120.093124 39.296997 124.84375 40.707893 C 126.228752 41.300514 127.374374 42.194511 128.28125 43.390198 C 128.020935 43.495277 127.760315 43.60067 127.5 43.705757 C 123.816566 42.922203 120.118752 42.869514 116.40625 43.547981 C 114.961876 43.998283 113.607819 44.62941 112.34375 45.441368 C 111.815002 45.853813 111.398438 46.327156 111.09375 46.861404 C 110.306877 47.447403 110.306877 48.025841 111.09375 48.597015 C 115.931252 51.530182 121.139687 52.476883 126.71875 51.437096 C 127.5 51.157822 128.229065 50.789558 128.90625 50.332626 C 129.155624 50.476837 129.259689 50.687309 129.21875 50.963753 C 129.930313 51.263229 130.555313 51.683861 131.09375 52.226006 C 131.384064 52.4832 131.696564 52.746071 132.03125 53.014931 C 133.766876 53.54792 135.537811 53.916183 137.34375 54.1194 C 136.538437 54.771996 135.600937 55.192642 134.53125 55.381668 C 135.508438 55.886253 136.550003 56.254509 137.65625 56.486137 C 137.023132 56.989151 136.398132 57.462502 135.78125 57.906181 C 135.221252 58.161484 134.596252 58.31926 133.90625 58.379532 C 130.989685 58.590004 128.072815 58.590004 125.15625 58.379532 C 123.041252 57.824135 120.95813 57.245392 118.90625 56.643929 C 116.463127 55.381668 113.910942 54.329887 111.25 53.488274 C 110.556252 53.502464 110.087502 53.818031 109.84375 54.434959 C 110.355629 55.319817 110.928444 56.161423 111.5625 56.959488 C 112.015938 57.579254 112.588753 57.999901 113.28125 58.221748 C 114.385307 59.463501 115.739372 60.304802 117.34375 60.746269 C 117.552185 60.956741 117.760315 61.166916 117.96875 61.377403 C 117.535934 61.630486 117.588127 61.840965 118.125 62.00853 C 119.279694 62.364182 120.373444 62.837524 121.40625 63.428566 C 123.234695 63.600876 125.00563 64.021515 126.71875 64.690834 C 127.54969 66.008011 128.174683 67.42804 128.59375 68.950958 C 129.351257 69.541069 129.872192 70.277283 130.15625 71.159912 C 130.456558 73.482475 131.394058 75.533646 132.96875 77.313431 C 133.564697 77.667496 134.189697 77.930359 134.84375 78.102348 C 137.477814 78.87674 139.977814 78.456093 142.34375 76.840088 C 142.447815 76.945168 142.552185 77.050575 142.65625 77.155647 C 142.239685 77.681702 141.822815 78.207428 141.40625 78.733475 C 141.543121 79.050934 141.751251 79.050934 142.03125 78.733475 C 142.985931 80.870163 143.194061 83.079117 142.65625 85.360344 C 142.002502 85.379593 141.533752 85.695145 141.25 86.30703 C 141.153748 86.052063 140.997498 85.841568 140.78125 85.675903 C 139.151245 86.367622 139.25531 86.893677 141.09375 87.253723 C 141.504379 86.997192 141.869064 86.681625 142.1875 86.30703 C 142.395935 87.043259 142.395935 87.779778 142.1875 88.515991 C 139.516876 96.778732 134.985626 103.77388 128.59375 109.501068 C 128.017181 109.857025 127.392189 110.014801 126.71875 109.974411 C 127.514999 108.261848 128.40062 106.578934 129.375 104.925369 C 129.627502 104.269302 129.575317 103.638184 129.21875 103.031982 C 128.868118 103.388565 128.451248 103.59906 127.96875 103.663116 C 129.212189 102.437134 129.628754 100.964722 129.21875 99.245209 C 132.623428 96.061462 132.519379 92.958527 128.90625 89.93602 C 128.429688 89.617622 127.908752 89.459854 127.34375 89.462692 C 126.760941 86.772186 125.094376 85.299446 122.34375 85.044769 C 122.923126 84.922333 123.444061 84.501694 123.90625 83.782516 C 122.760933 82.642067 122.396248 81.274734 122.8125 79.680168 C 123.016876 80.057587 123.173126 80.057587 123.28125 79.680168 C 122.934067 79.329582 122.725624 78.908615 122.65625 78.417908 C 123.0625 77.450394 123.375 76.450996 123.59375 75.420044 C 123.537506 74.71286 123.277191 74.555084 122.8125 74.946693 C 122.376869 72.102829 121.96032 69.262741 121.5625 66.426437 C 121.433128 66.282219 121.276878 66.176826 121.09375 66.110878 C 120.677185 66.426437 120.260315 66.742004 119.84375 67.057571 C 118.439064 65.565582 116.772186 65.144928 114.84375 65.795303 C 114.222496 65.546326 114.118431 65.178375 114.53125 64.690834 C 114.199066 64.315948 113.782188 64.158165 113.28125 64.217484 C 113.175621 65.055931 113.384064 65.792145 113.90625 66.426437 C 113.792809 66.641968 113.688744 66.852448 113.59375 67.057571 C 112.550003 66.963844 111.664375 66.542892 110.9375 65.795303 C 109.971565 61.869362 108.93 57.977509 107.8125 54.1194 C 107.441254 49.750717 107.753754 45.437889 108.75 41.181236 C 110.97438 36.41494 114.672501 33.522476 119.84375 32.503197 C 123.712502 31.995148 127.462502 32.415787 131.09375 33.765465 C 132.1875 34.659462 133.28125 35.553772 134.375 36.447762 C 134.547501 37.368896 134.339066 38.21051 133.75 38.972282 C 132.975311 39.544716 132.194061 40.07077 131.40625 40.55011 Z" opacity="0.973" stroke="none" fill-rule="evenodd" fill="#8f58ac" id="Path"></path>
    </g>
    <g id="g1">
        <path d="M 109.53125 37.710014 C 106.459686 42.584557 105.209686 47.949158 105.78125 53.803833 C 105.781563 56.025406 105.937813 58.23436 106.25 60.430702 C 107.50531 64.985878 108.390625 69.614281 108.90625 74.315567 C 109.002808 75.642517 108.794693 76.904778 108.28125 78.102348 C 108.110313 78.95816 107.589684 79.431503 106.71875 79.522385 C 103.716248 79.757797 100.799683 79.337151 97.96875 78.260124 C 95.461563 76.995659 93.065628 75.575615 90.78125 74 C 90.78125 73.78952 90.885315 73.684433 91.09375 73.684433 C 94.954689 76.054016 99.069374 77.842003 103.4375 79.049042 C 104.293747 78.966675 105.126877 78.966675 105.9375 79.049042 C 106.970627 78.847076 107.595627 78.21595 107.8125 77.155647 C 108.18969 76.009201 108.34594 74.904724 108.28125 73.842216 C 106.831245 67.790314 105.68531 61.689499 104.84375 55.539444 C 104.96875 52.148384 105.229065 48.624466 105.625 44.96801 C 106.086876 42.989738 106.764061 41.096359 107.65625 39.287849 C 108.386253 38.813232 108.959068 38.182106 109.375 37.394455 C 109.499687 37.466408 109.551567 37.571808 109.53125 37.710014 Z" opacity="0.717" stroke="none" fill-rule="evenodd" fill="#0a060c" id="path1"></path>
    </g>
    <g id="g2">
        <path d="M 124.53125 44.652451 C 124.087814 44.352356 123.567192 44.247269 122.96875 44.336884 C 118.829376 44.019104 114.870941 44.860725 111.09375 46.861404 C 111.398438 46.327156 111.815002 45.853813 112.34375 45.441368 C 113.607819 44.62941 114.961876 43.998283 116.40625 43.547981 C 120.118752 42.869514 123.816566 42.922203 127.5 43.705757 C 127.760315 43.60067 128.020935 43.495277 128.28125 43.390198 C 127.374374 42.194511 126.228752 41.300514 124.84375 40.707893 C 120.093124 39.296997 115.561874 39.77034 111.25 42.12793 C 110.713127 41.960365 110.660934 41.749886 111.09375 41.496803 C 111.073441 41.63501 111.12532 41.740425 111.25 41.812363 C 116.125626 38.244263 121.281876 37.77092 126.71875 40.392319 C 128.688751 42.203354 129.626251 44.359924 129.53125 46.861404 C 128.165314 45.435379 126.498444 44.699158 124.53125 44.652451 Z" opacity="0.973" stroke="none" fill-rule="evenodd" fill="#7b389f" id="path2"></path>
    </g>
    <g id="g3">
        <path d="M 161.40625 47.808105 C 161.773438 47.738998 162.085938 47.844086 162.34375 48.123672 C 161.89032 48.567352 161.473755 49.040703 161.09375 49.543701 C 161.847504 50.185883 161.639069 50.50145 160.46875 50.49041 C 160.104065 51.06884 159.739685 51.647575 159.375 52.226006 C 159.150635 52.526115 158.89032 52.578499 158.59375 52.383797 C 159.029068 51.311195 159.393753 50.206718 159.6875 49.070358 C 160.253754 48.604271 160.826569 48.183624 161.40625 47.808105 Z" opacity="0.004" stroke="none" fill-rule="evenodd" fill="#000002" id="path3"></path>
    </g>
    <g id="g4">
        <path d="M 160.15625 49.070358 C 160.830002 49.187752 160.830002 49.503319 160.15625 50.017059 C 159.824371 49.725159 159.824371 49.409599 160.15625 49.070358 Z" opacity="0.004" stroke="none" fill-rule="evenodd" fill="#000084" id="path4"></path>
    </g>
    <g id="g5">
        <path d="M 177.96875 50.648193 C 178.316559 51.104492 178.368759 51.630547 178.125 52.226006 C 177.970627 51.710381 177.918762 51.184326 177.96875 50.648193 Z" opacity="0.004" stroke="none" fill-rule="evenodd" fill="#000000" id="path5"></path>
    </g>
    <g id="g6">
        <path d="M 146.40625 51.594879 C 147.191254 51.820824 147.191254 52.136398 146.40625 52.54158 C 146.222809 52.310272 146.222809 51.994705 146.40625 51.594879 Z" opacity="0.008" stroke="none" fill-rule="evenodd" fill="#060606" id="path6"></path>
    </g>
    <g id="g7">
        <path d="M 129.21875 50.963753 C 128.375946 54.014313 126.396873 55.487053 123.28125 55.381668 C 122.375938 55.5 121.542816 55.342216 120.78125 54.908318 C 122.810623 54.886848 124.789688 54.571297 126.71875 53.961617 C 127.412186 53.405273 128.037186 52.774147 128.59375 52.068222 C 127.130936 52.226654 125.672821 52.48951 124.21875 52.857147 C 123.482193 52.908569 122.753128 52.856201 122.03125 52.699364 C 124.508751 52.38884 126.904686 51.810402 129.21875 50.963753 Z" opacity="0.945" stroke="none" fill-rule="evenodd" fill="#19141a" id="path7"></path>
    </g>
    <g id="g8">
        <path d="M 123.28125 55.381668 C 123.620308 55.898552 122.370308 55.951256 119.53125 55.539444 C 119.090622 55.423325 118.778122 55.160461 118.59375 54.750534 C 120.439377 54.258881 122.314377 53.943321 124.21875 53.803833 C 124.21875 53.488274 124.21875 53.172707 124.21875 52.857147 C 125.672821 52.48951 127.130936 52.226654 128.59375 52.068222 C 128.037186 52.774147 127.412186 53.405273 126.71875 53.961617 C 124.789688 54.571297 122.810623 54.886848 120.78125 54.908318 C 121.542816 55.342216 122.375938 55.5 123.28125 55.381668 Z" opacity="0.976" stroke="none" fill-rule="evenodd" fill="#7a399d" id="path8"></path>
    </g>
    <g id="g9">
        <path d="M 146.71875 55.066101 C 146.965317 55.155411 147.173752 55.313194 147.34375 55.539444 C 146.932495 55.70607 146.72406 55.548286 146.71875 55.066101 Z" opacity="0.004" stroke="none" fill-rule="evenodd" fill="#000000" id="path9"></path>
    </g>
    <g id="g10">
        <path d="M 118.90625 56.643929 C 116.372818 56.019112 113.925003 55.17749 111.5625 54.1194 C 111.197815 54.224487 110.833435 54.329887 110.46875 54.434959 C 111.256874 55.819672 112.194374 57.081917 113.28125 58.221748 C 112.588745 57.999901 112.01593 57.579254 111.5625 56.959488 C 110.928436 56.161423 110.355621 55.319817 109.84375 54.434959 C 110.087502 53.818031 110.556252 53.502464 111.25 53.488274 C 113.910942 54.329887 116.463127 55.381668 118.90625 56.643929 Z" opacity="0.898" stroke="none" fill-rule="evenodd" fill="#1d1516" id="path10"></path>
    </g>
    <g id="g11">
        <path d="M 129.84375 56.012794 C 130.419998 56.23494 130.576248 56.655602 130.3125 57.275055 C 130 56.854408 129.6875 56.854408 129.375 57.275055 C 129.223755 56.740799 129.380005 56.319847 129.84375 56.012794 Z" opacity="0.973" stroke="none" fill-rule="evenodd" fill="#25192b" id="path11"></path>
    </g>
    <g id="g12">
        <path d="M 118.90625 56.643929 C 120.95813 57.245392 123.041252 57.824135 125.15625 58.379532 C 128.072815 58.590004 130.989685 58.590004 133.90625 58.379532 C 134.596252 58.31926 135.221252 58.161484 135.78125 57.906181 C 137.649368 57.619331 139.524368 57.566948 141.40625 57.748405 C 141.641251 57.960152 141.745621 58.223015 141.71875 58.537308 C 141.146561 58.065544 140.469376 57.855064 139.6875 57.906181 C 135.970001 58.605476 132.220001 59.026123 128.4375 59.168434 C 125.023445 59.030228 121.846245 58.188927 118.90625 56.643929 Z" opacity="0.957" stroke="none" fill-rule="evenodd" fill="#23191b" id="path12"></path>
    </g>
    <g id="g13">
        <path d="M 146.40625 58.221748 C 146.805313 58.598534 147.013748 59.12426 147.03125 59.799576 C 146.979065 60.325615 146.927185 60.851357 146.875 61.377403 C 146.616882 60.338234 146.460632 59.286461 146.40625 58.221748 Z" opacity="0.006" stroke="none" fill-rule="evenodd" fill="#000000" id="path13"></path>
    </g>
    <g id="g14">
        <path d="M 118.90625 56.643929 C 121.846245 58.188927 125.023445 59.030228 128.4375 59.168434 C 132.220001 59.026123 135.970001 58.605476 139.6875 57.906181 C 140.469376 57.855064 141.146561 58.065544 141.71875 58.537308 C 141.769684 59.281097 141.717819 60.017311 141.5625 60.746269 C 140.670303 61.917336 139.576553 62.758629 138.28125 63.270782 C 134.979996 63.882988 131.646561 64.040771 128.28125 63.744141 C 125.651558 63.261635 123.047188 62.683205 120.46875 62.00853 C 119.521873 61.408005 118.480309 60.987045 117.34375 60.746269 C 116.04438 59.826714 114.690315 58.9851 113.28125 58.221748 C 112.194374 57.081917 111.256874 55.819672 110.46875 54.434959 C 110.833435 54.329887 111.197815 54.224487 111.5625 54.1194 C 113.925003 55.17749 116.372818 56.019112 118.90625 56.643929 Z" opacity="0.973" stroke="none" fill-rule="evenodd" fill="#e68665" id="path14"></path>
    </g>
    <g id="g15">
        <path d="M 113.28125 58.221748 C 114.690315 58.9851 116.04438 59.826714 117.34375 60.746269 C 115.739372 60.304802 114.385307 59.463501 113.28125 58.221748 Z" opacity="0.914" stroke="none" fill-rule="evenodd" fill="#191317" id="path15"></path>
    </g>
    <g id="g16">
        <path d="M 112.65625 56.328354 C 112.675003 56.157005 112.779068 56.051918 112.96875 56.012794 C 121.372185 60.223389 130.226257 61.643417 139.53125 60.272926 C 138.543747 60.705566 137.501877 61.021126 136.40625 61.219612 C 133.90625 61.430099 131.40625 61.430099 128.90625 61.219612 C 125.680626 60.554085 122.451561 59.922958 119.21875 59.326225 C 116.942505 58.491875 114.755005 57.49247 112.65625 56.328354 Z" opacity="0.937" stroke="none" fill-rule="evenodd" fill="#221918" id="path16"></path>
    </g>
    <g id="g17">
        <path d="M 117.34375 60.746269 C 118.480309 60.987045 119.521873 61.408005 120.46875 62.00853 C 119.618439 61.862419 118.785004 61.652252 117.96875 61.377403 C 117.760315 61.166916 117.552185 60.956741 117.34375 60.746269 Z" opacity="0.929" stroke="none" fill-rule="evenodd" fill="#14120e" id="path17"></path>
    </g>
    <g id="g18">
        <path d="M 141.71875 58.537308 C 142.225632 61.198471 141.079681 62.776291 138.28125 63.270782 C 139.576553 62.758629 140.670303 61.917336 141.5625 60.746269 C 141.717819 60.017311 141.769684 59.281097 141.71875 58.537308 Z" opacity="0.922" stroke="none" fill-rule="evenodd" fill="#22181a" id="path18"></path>
    </g>
    <g id="g19">
        <path d="M 122.34375 85.044769 C 122.23687 85.309227 122.028755 85.414619 121.71875 85.360344 C 120.698433 85.268188 119.760933 85.478683 118.90625 85.99147 C 118.611877 85.957382 118.351563 85.85231 118.125 85.675903 C 117.269691 83.924202 117.165627 82.135895 117.8125 80.311302 C 118.940315 79.543213 119.6175 78.49144 119.84375 77.155647 C 119.078751 74.22847 118.401566 71.283302 117.8125 68.319832 C 116.349373 68.054756 114.943123 67.634109 113.59375 67.057571 C 113.688744 66.852448 113.792809 66.641968 113.90625 66.426437 C 113.384064 65.792145 113.175621 65.055931 113.28125 64.217484 C 113.782188 64.158165 114.199066 64.315948 114.53125 64.690834 C 114.118431 65.178375 114.222496 65.546326 114.84375 65.795303 C 116.772186 65.144928 118.439064 65.565582 119.84375 67.057571 C 120.260315 66.742004 120.677185 66.426437 121.09375 66.110878 C 121.276878 66.176826 121.433128 66.282219 121.5625 66.426437 C 121.96032 69.262741 122.376869 72.102829 122.8125 74.946693 C 123.277191 74.555084 123.537506 74.71286 123.59375 75.420044 C 123.375 76.450996 123.0625 77.450394 122.65625 78.417908 C 122.725624 78.908615 122.934067 79.329582 123.28125 79.680168 C 123.173126 80.057587 123.016876 80.057587 122.8125 79.680168 C 122.396248 81.274734 122.760933 82.642067 123.90625 83.782516 C 123.444061 84.501694 122.923126 84.922333 122.34375 85.044769 Z" stroke="none" fill-rule="evenodd" fill="#925eae" id="path19"></path>
    </g>
    <g id="g20">
        <path d="M 117.96875 61.377403 C 118.784996 61.652252 119.618431 61.862419 120.46875 62.00853 C 123.329369 63.282776 126.349998 64.01899 129.53125 64.217484 C 129.840622 66.520164 130.048752 68.834206 130.15625 71.159912 C 129.872192 70.277283 129.351257 69.541069 128.59375 68.950958 C 128.174683 67.42804 127.549683 66.008011 126.71875 64.690834 C 125.005623 64.021515 123.234688 63.600876 121.40625 63.428566 C 120.373436 62.837524 119.279686 62.364182 118.125 62.00853 C 117.588127 61.840965 117.535934 61.630486 117.96875 61.377403 Z" opacity="0.973" stroke="none" fill-rule="evenodd" fill="#7b389f" id="path20"></path>
    </g>
    <g id="g21">
        <path d="M 142.96875 56.012794 C 142.772186 60.580917 143.032806 65.104218 143.75 69.582092 C 144.47438 71.045052 145.203445 72.517479 145.9375 74 C 146.927185 75.209557 147.916565 76.419441 148.90625 77.628998 C 148.357498 77.67318 147.836884 77.515396 147.34375 77.155647 C 147.239685 77.260735 147.135315 77.366135 147.03125 77.471214 C 147.712494 77.972961 148.441559 78.393929 149.21875 78.733475 C 148.293121 79.761269 147.720306 80.918457 147.5 82.204681 C 147.708435 82.625351 147.916565 82.625351 148.125 82.204681 C 148.309998 80.668831 149.039063 79.511658 150.3125 78.733475 C 152.665009 79.552055 155.008759 79.552055 157.34375 78.733475 C 157.02626 79.802292 157.02626 80.959167 157.34375 82.204681 C 157.637497 81.162376 157.897812 80.110603 158.125 79.049042 C 158.55687 78.246559 159.129684 77.615433 159.84375 77.155647 C 160.200317 78.386665 160.460632 79.648926 160.625 80.942429 C 161.07843 81.562187 161.651245 81.982857 162.34375 82.204681 C 161.783752 82.459976 161.158752 82.61776 160.46875 82.67804 C 160.260315 82.888519 160.052185 83.098686 159.84375 83.309166 C 161.342514 83.034622 162.800613 83.24511 164.21875 83.940292 C 164.94249 84.403542 165.046555 84.981972 164.53125 85.675903 C 164.804062 88.383774 166.262497 89.69873 168.90625 89.620468 C 169.604385 89.314682 170.229385 88.894043 170.78125 88.358208 C 169.593124 88.684814 168.447189 88.527039 167.34375 87.884857 C 167.34375 88.200424 167.34375 88.515991 167.34375 88.831558 C 166.432816 88.451614 165.755936 87.82048 165.3125 86.938156 C 165.290619 85.904694 165.238434 84.905304 165.15625 83.940292 C 166.297501 83.782837 167.44313 83.730446 168.59375 83.782516 C 172.462204 84.060532 173.347488 85.848831 171.25 89.147133 C 170.54657 89.739441 169.76532 90.212791 168.90625 90.567162 C 163.291565 91.942398 159.64563 89.891235 157.96875 84.413658 C 157.757187 85.331627 157.652817 86.225616 157.65625 87.095955 C 154.155945 87.66333 150.822495 87.189987 147.65625 85.675903 C 147.277191 86.77597 146.860626 87.828064 146.40625 88.831558 C 145.893127 88.861206 145.320313 88.755829 144.6875 88.515991 C 144.52562 85.127136 144.160934 81.760994 143.59375 78.417908 C 143.706253 77.752701 143.914688 77.121567 144.21875 76.524521 C 143.496567 74.856125 142.611252 73.278297 141.5625 71.791046 C 141.228439 69.482689 140.968124 67.168648 140.78125 64.848618 C 141.720322 64.769722 142.293137 65.190376 142.5 66.110878 C 142.553131 62.689835 142.709381 59.323708 142.96875 56.012794 Z" stroke="none" fill-rule="evenodd" fill="#7f3ea2" id="path21"></path>
    </g>
    <g id="g22">
        <path d="M 120.46875 62.00853 C 123.047188 62.683205 125.651558 63.261635 128.28125 63.744141 C 131.646561 64.040771 134.979996 63.882988 138.28125 63.270782 C 137.725937 63.617912 137.100937 63.881096 136.40625 64.0597 C 135.246567 64.114922 134.100632 64.272705 132.96875 64.533051 C 134.425613 66.841408 135.988113 69.050362 137.65625 71.159912 C 138.059372 71.335999 138.319687 71.651566 138.4375 72.106613 C 139.04718 74.443367 138.47438 76.389145 136.71875 77.944565 C 136.102188 78.100769 135.477188 78.153465 134.84375 78.102348 C 134.189697 77.930359 133.564697 77.667496 132.96875 77.313431 C 131.394058 75.533646 130.456558 73.482475 130.15625 71.159912 C 130.048752 68.834206 129.840622 66.520164 129.53125 64.217484 C 126.349998 64.01899 123.329369 63.282776 120.46875 62.00853 Z" opacity="0.925" stroke="none" fill-rule="evenodd" fill="#21161d" id="path22"></path>
    </g>
    <g id="g23">
        <path d="M 137.65625 71.159912 C 138.642181 73.441139 138.329681 75.49231 136.71875 77.313431 C 135.277496 78.042702 134.027496 77.779526 132.96875 76.524521 C 131.908127 75.370499 131.231247 74.002846 130.9375 72.422173 C 130.824692 69.773323 130.564377 67.14341 130.15625 64.533051 C 131.014694 64.43428 131.848129 64.539368 132.65625 64.848618 C 133.983749 67.239334 135.650314 69.343208 137.65625 71.159912 Z" opacity="0.973" stroke="none" fill-rule="evenodd" fill="#ef3dad" id="path23"></path>
    </g>
    <g id="g24">
        <path d="M 146.71875 64.848618 C 146.958435 65.060677 147.16687 65.32354 147.34375 65.637535 C 147.340942 66.183449 147.236877 66.761879 147.03125 67.373138 C 146.724991 66.557083 146.620941 65.715485 146.71875 64.848618 Z" opacity="0.008" stroke="none" fill-rule="evenodd" fill="#080808" id="path24"></path>
    </g>
    <g id="g25">
        <path d="M 131.40625 40.55011 C 132.194061 40.07077 132.975311 39.544716 133.75 38.972282 C 134.339066 38.21051 134.547501 37.368896 134.375 36.447762 C 133.28125 35.553772 132.1875 34.659462 131.09375 33.765465 C 127.462502 32.415787 123.712502 31.995148 119.84375 32.503197 C 114.672501 33.522476 110.97438 36.41494 108.75 41.181236 C 107.753754 45.437889 107.441254 49.750717 107.8125 54.1194 C 108.93 57.977509 109.971565 61.869362 110.9375 65.795303 C 111.664375 66.542892 112.550003 66.963844 113.59375 67.057571 C 114.943123 67.634109 116.349373 68.054756 117.8125 68.319832 C 118.401566 71.283302 119.078751 74.22847 119.84375 77.155647 C 119.6175 78.49144 118.940315 79.543213 117.8125 80.311302 C 117.165627 82.135895 117.269691 83.924202 118.125 85.675903 C 118.351563 85.85231 118.611877 85.957382 118.90625 85.99147 C 119.760933 85.478683 120.698433 85.268188 121.71875 85.360344 C 120.582191 86.245804 119.592506 87.297607 118.75 88.515991 C 117.532501 87.182739 116.438751 85.76268 115.46875 84.255859 C 117.303123 79.423615 117.875938 74.426956 117.1875 69.266525 C 116.215004 68.249458 115.121254 68.091675 113.90625 68.793175 C 112.01062 70.886314 110.552185 73.253052 109.53125 75.893387 C 109.322815 75.36734 109.114685 74.841614 108.90625 74.315567 C 108.390625 69.614281 107.50531 64.985878 106.25 60.430702 C 105.937813 58.23436 105.781563 56.025406 105.78125 53.803833 C 105.209686 47.949158 106.459686 42.584557 109.53125 37.710014 C 113.831253 32.560318 119.351875 30.40403 126.09375 31.240944 C 132.211563 31.98819 137.055313 34.880989 140.625 39.918976 C 140.839996 40.181526 140.787811 40.391693 140.46875 40.55011 C 137.452179 39.730263 134.431244 39.730263 131.40625 40.55011 Z" opacity="0.973" stroke="none" fill-rule="evenodd" fill="#7d3ba1" id="path25"></path>
    </g>
    <g id="g26">
        <path d="M 167.65625 62.955223 C 168.512497 64.446899 168.460617 65.91964 167.5 67.373138 C 167.395935 65.89817 167.447815 64.425751 167.65625 62.955223 Z" opacity="0.012" stroke="none" fill-rule="evenodd" fill="#8a3eae" id="path26"></path>
    </g>
    <g id="g27">
        <path d="M 131.09375 66.426437 C 131.506866 66.372803 131.871567 66.477875 132.1875 66.742004 C 133.089691 69.090439 134.235626 71.299393 135.625 73.368874 C 135.881561 74.332603 135.829681 75.279297 135.46875 76.208954 C 134.509369 76.491699 133.728119 76.176132 133.125 75.26226 C 131.685928 72.518112 131.008743 69.572937 131.09375 66.426437 Z" opacity="0.973" stroke="none" fill-rule="evenodd" fill="#fe48d7" id="path27"></path>
    </g>
    <g id="g28">
        <path d="M 144.21875 67.057571 C 144.635315 67.268051 144.635315 67.268051 144.21875 67.057571 Z" opacity="0.008" stroke="none" fill-rule="evenodd" fill="#010000" id="path28"></path>
    </g>
    <g id="g29">
        <path d="M 109.21875 93.880608 C 109.010315 93.880608 108.802185 93.880608 108.59375 93.880608 C 107.864372 92.828506 107.291565 91.671326 106.875 90.409393 C 106.72406 90.708534 106.672195 91.024109 106.71875 91.356079 C 106.810944 92.061363 106.706566 92.692482 106.40625 93.249466 C 105.514061 91.522064 105.618439 89.839142 106.71875 88.200424 C 106.666565 88.095337 106.614685 87.989952 106.5625 87.884857 C 106.090622 88.423859 105.621872 88.949577 105.15625 89.462692 C 104.649071 87.541214 105.326256 86.173866 107.1875 85.360344 C 107.332497 85.547783 107.384689 85.758263 107.34375 85.99147 C 107.362503 86.162827 107.466568 86.267914 107.65625 86.30703 C 107.964691 85.275764 108.068756 84.223679 107.96875 83.151382 C 108.342812 80.904892 108.863441 78.695923 109.53125 76.524521 C 110.766563 73.853897 112.329063 71.382072 114.21875 69.108742 C 115.298752 68.754356 116.18438 69.017235 116.875 69.897652 C 117.571564 75.860886 116.477814 81.435974 113.59375 86.622604 C 113.750633 86.944794 113.958748 86.997498 114.21875 86.780396 C 114.443123 86.153351 114.755623 85.574615 115.15625 85.044769 C 116.561874 86.533302 117.603439 88.11113 118.28125 89.778259 C 119.257187 88.634323 120.298752 87.529854 121.40625 86.464828 C 122.552185 85.833687 123.697815 85.833687 124.84375 86.464828 C 125.416565 87.043259 125.989685 87.621994 126.5625 88.200424 C 126.765007 89.52359 126.192192 90.259804 124.84375 90.409393 C 123.867821 89.863144 122.826256 89.600273 121.71875 89.620468 C 123.238441 90.311562 124.592506 91.258255 125.78125 92.460556 C 126.679375 93.066124 127.616875 93.2239 128.59375 92.933899 C 127.823128 92.737305 127.094063 92.474121 126.40625 92.144997 C 126.658752 92.047791 126.867188 91.890015 127.03125 91.671631 C 126.430313 91.416672 125.805313 91.258873 125.15625 91.198303 C 125.92469 90.892197 126.653748 90.523941 127.34375 90.093819 C 130.623749 91.563721 131.613434 93.982841 130.3125 97.351807 C 128.737808 99.077957 126.810631 99.656387 124.53125 99.087418 C 125.00531 99.563293 125.578445 99.826477 126.25 99.876343 C 127.122498 99.650391 128.008133 99.545303 128.90625 99.560768 C 128.970932 101.044243 128.449997 102.254105 127.34375 103.189758 C 125.861557 103.36113 124.403122 103.36113 122.96875 103.189758 C 123.227501 103.478516 123.540001 103.688675 123.90625 103.820892 C 124.739685 103.925987 125.572815 104.031372 126.40625 104.136444 C 122.011566 105.881218 118.521873 104.776733 115.9375 100.823029 C 114.45031 98.768387 113.20031 96.559433 112.1875 94.196167 C 111.651253 93.864182 111.338753 94.074356 111.25 94.827293 C 110.260315 93.196762 109.270935 91.566559 108.28125 89.93602 C 108.072815 89.725563 107.864685 89.725563 107.65625 89.93602 C 108.483124 91.131714 109.003754 92.446663 109.21875 93.880608 Z" stroke="none" fill-rule="evenodd" fill="#803ea3" id="path29"></path>
    </g>
    <g id="g30">
        <path d="M 147.03125 70.213219 C 147.447815 70.423706 147.447815 70.423706 147.03125 70.213219 Z" opacity="0.004" stroke="none" fill-rule="evenodd" fill="#000000" id="path30"></path>
    </g>
    <g id="g31">
        <path d="M 87.65625 71.791046 C 89.041565 72.016357 90.1875 72.647491 91.09375 73.684433 C 90.885315 73.684433 90.78125 73.78952 90.78125 74 C 89.772186 72.919189 88.522186 72.498543 87.03125 72.73774 C 87.359688 72.509903 87.568123 72.194336 87.65625 71.791046 Z" stroke="none" fill-rule="evenodd" fill="#271730" id="path31"></path>
    </g>
    <g id="g32">
        <path d="M 147.03125 70.528786 C 147.316559 71.508934 147.576874 72.455627 147.8125 73.368874 C 147.122818 72.555344 146.550003 71.661346 146.09375 70.686569 C 146.360001 70.141273 146.672501 70.08857 147.03125 70.528786 Z" opacity="0.029" stroke="none" fill-rule="evenodd" fill="#0b0b0b" id="path32"></path>
    </g>
    <g id="g33">
        <path d="M 113.59375 71.791046 C 113.90625 71.791046 114.21875 71.791046 114.53125 71.791046 C 113.786568 74.96405 112.900932 78.119698 111.875 81.257996 C 111.820938 82.862335 111.612816 84.440155 111.25 85.99147 C 111.034691 86.261902 110.774376 86.472092 110.46875 86.622604 C 109.977806 86.367317 109.456871 86.261902 108.90625 86.30703 C 108.365623 84.048233 108.521873 81.839272 109.375 79.680168 C 110.45813 76.860596 111.86438 74.230995 113.59375 71.791046 Z" stroke="none" fill-rule="evenodd" fill="#925dae" id="path33"></path>
    </g>
    <g id="g34">
        <path d="M 148.28125 73.053307 C 148.869995 73.120209 149.28656 73.435768 149.53125 74 C 148.818436 74.240456 148.401871 73.924889 148.28125 73.053307 Z" opacity="0.014" stroke="none" fill-rule="evenodd" fill="#0b0b0b" id="path34"></path>
    </g>
    <g id="g35">
        <path d="M 147.96875 78.733475 C 148.138443 78.752411 148.242508 78.857498 148.28125 79.049042 C 147.636566 79.699425 147.115616 80.435638 146.71875 81.257996 C 146.38031 80.985031 146.328445 80.669472 146.5625 80.311302 C 147.095932 79.826279 147.564682 79.300232 147.96875 78.733475 Z" stroke="none" fill-rule="evenodd" fill="#371d39" id="path35"></path>
    </g>
    <g id="g36">
        <path d="M 166.09375 83.151382 C 165.680618 83.09774 165.315933 83.202812 165 83.466949 C 164.48999 83.14254 164.02124 82.826973 163.59375 82.520256 C 164.067825 82.5168 164.43251 82.306625 164.6875 81.889122 C 164.731262 81.011536 165.095642 80.328026 165.78125 79.837952 C 167.921875 79.18 170.005325 79.285088 172.03125 80.153519 C 173.391876 81.349503 173.600311 82.71685 172.65625 84.255859 C 170.566879 83.508919 168.379379 83.140663 166.09375 83.151382 Z" stroke="none" fill-rule="evenodd" fill="#7f3ea2" id="path36"></path>
    </g>
    <g id="g37">
        <path d="M 167.34375 80.942429 C 168.842178 80.733849 170.196243 81.0494 171.40625 81.889122 C 171.924377 83.22995 171.663742 83.440445 170.625 82.520256 C 170.345932 82.703598 170.033432 82.808998 169.6875 82.835815 C 168.866257 82.41581 167.980637 82.152931 167.03125 82.046921 C 166.888443 81.91626 166.784058 81.758492 166.71875 81.573555 C 166.950928 81.358345 167.159058 81.147858 167.34375 80.942429 Z" stroke="none" fill-rule="evenodd" fill="#915cae" id="path37"></path>
    </g>
    <g id="g38">
        <path d="M 162.34375 82.204681 C 162.721252 82.436325 163.137817 82.541389 163.59375 82.520256 C 164.02124 82.826973 164.48999 83.14254 165 83.466949 C 165.315933 83.202812 165.680618 83.09774 166.09375 83.151382 C 166.927185 83.361862 167.760315 83.572037 168.59375 83.782516 C 167.443115 83.730446 166.297485 83.782837 165.15625 83.940292 C 165.238434 84.905304 165.290619 85.904694 165.3125 86.938156 C 165.755936 87.82048 166.432816 88.451614 167.34375 88.831558 C 167.34375 88.515991 167.34375 88.200424 167.34375 87.884857 C 168.447189 88.527039 169.593124 88.684814 170.78125 88.358208 C 170.22937 88.894043 169.60437 89.314682 168.90625 89.620468 C 166.262497 89.69873 164.804062 88.383774 164.53125 85.675903 C 165.046555 84.981972 164.94249 84.403542 164.21875 83.940292 C 162.800613 83.24511 161.342499 83.034622 159.84375 83.309166 C 160.052185 83.098686 160.260315 82.888519 160.46875 82.67804 C 161.158752 82.61776 161.783752 82.459976 162.34375 82.204681 Z" stroke="none" fill-rule="evenodd" fill="#281728" id="path38"></path>
    </g>
    <g id="g39">
        <path d="M 147.96875 84.098083 C 150.30719 84.109131 152.59906 84.372002 154.84375 84.886993 C 155.260315 84.992088 155.677185 85.097473 156.09375 85.202545 C 156.539063 85.743431 156.434998 86.164093 155.78125 86.464828 C 153.304062 86.791107 150.908127 86.47554 148.59375 85.51812 C 148.113434 85.167847 147.905304 84.694504 147.96875 84.098083 Z" stroke="none" fill-rule="evenodd" fill="#925eae" id="path39"></path>
    </g>
    <g id="g40">
        <path d="M 121.71875 85.360344 C 122.028748 85.414619 122.23687 85.309227 122.34375 85.044769 C 125.094376 85.299446 126.760941 86.772186 127.34375 89.462692 C 127.908752 89.459854 128.429688 89.617622 128.90625 89.93602 C 132.519379 92.958527 132.623428 96.061462 129.21875 99.245209 C 129.628754 100.964722 129.212189 102.437134 127.96875 103.663116 C 127.175629 103.767563 126.654999 104.188217 126.40625 104.925369 C 122.365944 106.267464 118.980316 105.32077 116.25 102.085281 C 115.608131 101.28154 115.035316 100.439941 114.53125 99.560768 C 113.542183 98.196579 112.709061 96.724152 112.03125 95.142868 C 111.634995 95.435699 111.21843 95.488403 110.78125 95.300636 C 110.534683 94.554321 110.169998 93.870491 109.6875 93.249466 C 109.600616 93.538521 109.444366 93.748695 109.21875 93.880608 C 109.003754 92.446663 108.483124 91.131714 107.65625 89.93602 C 107.864685 89.725563 108.072815 89.725563 108.28125 89.93602 C 109.270935 91.566559 110.260315 93.196762 111.25 94.827293 C 111.338745 94.074356 111.651245 93.864182 112.1875 94.196167 C 113.20031 96.559433 114.45031 98.768387 115.9375 100.823029 C 118.521873 104.776733 122.011566 105.881218 126.40625 104.136444 C 125.572815 104.031372 124.739685 103.925987 123.90625 103.820892 C 123.540001 103.688675 123.227501 103.478516 122.96875 103.189758 C 124.403122 103.36113 125.861557 103.36113 127.34375 103.189758 C 128.449997 102.254105 128.970932 101.044243 128.90625 99.560768 C 128.008133 99.545303 127.122498 99.650391 126.25 99.876343 C 125.578445 99.826477 125.00531 99.563293 124.53125 99.087418 C 126.810623 99.656387 128.737808 99.077957 130.3125 97.351807 C 131.613434 93.982841 130.623749 91.563721 127.34375 90.093819 C 126.653748 90.523941 125.92469 90.892197 125.15625 91.198303 C 125.805313 91.258873 126.430313 91.416672 127.03125 91.671631 C 126.867188 91.890015 126.658752 92.047791 126.40625 92.144997 C 127.094055 92.474121 127.82312 92.737305 128.59375 92.933899 C 127.616875 93.2239 126.679375 93.066124 125.78125 92.460556 C 124.592506 91.258255 123.238441 90.311562 121.71875 89.620468 C 122.826248 89.600273 123.867813 89.863144 124.84375 90.409393 C 126.192184 90.259804 126.764999 89.52359 126.5625 88.200424 C 125.989685 87.621994 125.416565 87.043259 124.84375 86.464828 C 123.697815 85.833687 122.552185 85.833687 121.40625 86.464828 C 120.298752 87.529854 119.257187 88.634323 118.28125 89.778259 C 117.603439 88.11113 116.561874 86.533302 115.15625 85.044769 C 114.755623 85.574615 114.443123 86.153351 114.21875 86.780396 C 113.958748 86.997498 113.750626 86.944794 113.59375 86.622604 C 116.477814 81.435974 117.571564 75.860886 116.875 69.897652 C 116.18438 69.017235 115.298752 68.754356 114.21875 69.108742 C 112.329063 71.382072 110.766563 73.853897 109.53125 76.524521 C 109.53125 76.314034 109.53125 76.103874 109.53125 75.893387 C 110.552185 73.253052 112.01062 70.886314 113.90625 68.793175 C 115.121246 68.091675 116.214996 68.249458 117.1875 69.266525 C 117.875938 74.426956 117.303123 79.423615 115.46875 84.255859 C 116.438751 85.76268 117.532501 87.182739 118.75 88.515991 C 119.592506 87.297607 120.582191 86.245804 121.71875 85.360344 Z" stroke="none" fill-rule="evenodd" fill="#1d121b" id="path40"></path>
    </g>
    <g id="g41">
        <path d="M 138.59375 52.54158 C 137.836243 52.444382 137.107193 52.549789 136.40625 52.857147 C 137.284058 53.267372 138.117508 53.267372 138.90625 52.857147 C 140.260635 52.59301 141.615005 52.435226 142.96875 52.383797 C 142.522491 53.073303 142.001556 53.70443 141.40625 54.277191 C 140.071884 54.672905 138.717499 54.988464 137.34375 55.223885 C 139.54657 55.819031 141.36937 55.240601 142.8125 53.488274 C 142.967819 54.32325 143.020004 55.164871 142.96875 56.012794 C 142.709381 59.323708 142.553131 62.689835 142.5 66.110878 C 142.293137 65.190376 141.720322 64.769722 140.78125 64.848618 C 140.968124 67.168648 141.228439 69.482689 141.5625 71.791046 C 142.611252 73.278297 143.496567 74.856125 144.21875 76.524521 C 143.914688 77.121567 143.706253 77.752701 143.59375 78.417908 C 144.160934 81.760994 144.52562 85.127136 144.6875 88.515991 C 145.320313 88.755829 145.893127 88.861206 146.40625 88.831558 C 145.908127 90.842339 145.126877 92.735725 144.0625 94.511734 C 142.34375 96.667984 140.416565 98.614082 138.28125 100.349686 C 138.523758 100.908234 138.471878 101.486664 138.125 102.085281 C 135.712494 107.098671 132.014679 110.780365 127.03125 113.130066 C 127.639687 113.690521 127.743752 114.32164 127.34375 115.02346 C 126.519691 114.103271 125.842812 114.208344 125.3125 115.33902 C 125.024063 114.941727 124.763443 114.521065 124.53125 114.076767 C 123.592186 114.998207 123.019371 114.788055 122.8125 113.445633 C 122.46563 113.930649 121.99688 114.140823 121.40625 114.076767 C 121.355003 113.228836 121.407188 112.387222 121.5625 111.552231 C 122.695 110.640579 123.78875 109.693878 124.84375 108.712158 C 125.830315 108.163383 126.350937 107.427177 126.40625 106.503197 C 125.870316 107.254875 125.245316 107.886002 124.53125 108.396591 C 121.302818 111.288742 117.552818 113.182129 113.28125 114.076767 C 113.734383 114.502769 113.942818 115.028503 113.90625 115.654579 C 112.889061 115.807953 112.055626 115.492386 111.40625 114.707886 C 111.129379 114.968231 111.025314 115.283798 111.09375 115.654579 C 109.882813 115.852127 109.309685 115.326096 109.375 114.076767 C 109.004372 114.763748 108.431557 115.0793 107.65625 115.02346 C 107.603119 114.606285 107.707184 114.238007 107.96875 113.918968 C 107.640938 113.763718 107.328438 113.816116 107.03125 114.076767 C 105.885315 113.761192 105.78125 113.235153 106.71875 112.498932 C 102.416565 111.219955 99.291565 108.537643 97.34375 104.452019 C 94.974693 103.533737 92.943443 102.113693 91.25 100.191895 C 91.035004 99.929352 91.087189 99.719177 91.40625 99.560768 C 92.646873 100.373657 94.000938 100.741608 95.46875 100.665253 C 93.31469 99.893372 91.231255 98.946663 89.21875 97.825165 C 86.893433 95.743378 86.268433 93.271553 87.34375 90.409393 C 88.063744 91.242798 88.793129 92.084404 89.53125 92.933899 C 90.219376 93.491821 90.948441 93.860092 91.71875 94.038376 C 87.448128 91.045258 85.625 86.995277 86.25 81.889122 C 86.365005 81.444183 86.625313 81.128616 87.03125 80.942429 C 87.7425 82.031433 88.52375 83.083221 89.375 84.098083 C 89.999374 84.850708 90.676567 85.271347 91.40625 85.360344 C 88.428749 82.554024 86.657814 79.135506 86.09375 75.104477 C 85.970619 74.104767 86.283119 73.315857 87.03125 72.73774 C 88.522186 72.498543 89.772186 72.919189 90.78125 74 C 93.065628 75.575615 95.461563 76.995659 97.96875 78.260124 C 100.799683 79.337151 103.716248 79.757797 106.71875 79.522385 C 107.589684 79.431503 108.110313 78.95816 108.28125 78.102348 C 108.385315 78.102348 108.489685 78.102348 108.59375 78.102348 C 108.184998 79.451698 107.872498 80.819359 107.65625 82.204681 C 107.394371 82.312622 107.290001 82.522781 107.34375 82.835815 C 104.285316 82.249809 101.264687 81.460907 98.28125 80.469086 C 95.915001 79.11689 93.519058 77.85463 91.09375 76.682304 C 90.293755 75.873192 89.40844 75.189362 88.4375 74.631126 C 88.196251 74.676888 87.987816 74.781967 87.8125 74.946693 C 87.624382 75.805344 87.676567 76.646645 87.96875 77.471214 C 89.43969 81.177528 91.47094 84.543655 94.0625 87.56929 C 94.217186 88.19191 94.269371 88.823036 94.21875 89.462692 C 91.881561 89.281876 89.902191 88.335175 88.28125 86.622604 C 88.177185 86.727692 88.072815 86.833084 87.96875 86.938156 C 88.375938 87.71698 88.844688 88.453194 89.375 89.147133 C 91.597816 91.185989 93.837502 93.184464 96.09375 95.142868 C 95.425941 95.824478 94.592506 96.140045 93.59375 96.089554 C 91.734688 95.730438 89.963753 95.099319 88.28125 94.196167 C 88.177185 94.301239 88.072815 94.406639 87.96875 94.511734 C 88.428749 95.554657 89.157814 96.343582 90.15625 96.878471 C 92.348747 97.979156 94.536247 99.030937 96.71875 100.034111 C 97.082817 100.37619 97.499374 100.639053 97.96875 100.823029 C 98.245621 101.083374 98.349686 101.398926 98.28125 101.769714 C 97.722504 101.679794 97.201569 101.784866 96.71875 102.085281 C 98.091568 104.260162 99.914383 105.94339 102.1875 107.134323 C 102.940941 106.936455 103.722191 106.936455 104.53125 107.134323 C 104.442184 107.698555 104.546249 108.224594 104.84375 108.712158 C 107.115318 110.516869 109.511253 110.832436 112.03125 109.658844 C 112.671875 109.840927 112.984375 110.261581 112.96875 110.921104 C 118.109688 110.375504 122.588753 108.377022 126.40625 104.925369 C 126.654999 104.188217 127.175629 103.767563 127.96875 103.663116 C 128.451248 103.59906 128.868118 103.388565 129.21875 103.031982 C 129.575317 103.638184 129.627502 104.269302 129.375 104.925369 C 128.40062 106.578934 127.514999 108.261848 126.71875 109.974411 C 127.392189 110.014801 128.017181 109.857025 128.59375 109.501068 C 134.985626 103.77388 139.516876 96.778732 142.1875 88.515991 C 142.395935 87.779778 142.395935 87.043259 142.1875 86.30703 C 141.869064 86.681625 141.504379 86.997192 141.09375 87.253723 C 139.25531 86.893677 139.151245 86.367622 140.78125 85.675903 C 140.997498 85.841568 141.153748 86.052063 141.25 86.30703 C 141.533752 85.695145 142.002502 85.379593 142.65625 85.360344 C 143.194061 83.079117 142.985931 80.870163 142.03125 78.733475 C 141.751251 79.050934 141.543121 79.050934 141.40625 78.733475 C 141.822815 78.207428 142.239685 77.681702 142.65625 77.155647 C 142.552185 77.050575 142.447815 76.945168 142.34375 76.840088 C 139.977814 78.456093 137.477814 78.87674 134.84375 78.102348 C 135.477188 78.153465 136.102188 78.100769 136.71875 77.944565 C 138.47438 76.389145 139.04718 74.443367 138.4375 72.106613 C 138.319687 71.651566 138.059372 71.335999 137.65625 71.159912 C 135.988129 69.050362 134.425629 66.841408 132.96875 64.533051 C 134.100632 64.272705 135.246567 64.114922 136.40625 64.0597 C 137.100937 63.881096 137.725937 63.617912 138.28125 63.270782 C 141.079681 62.776291 142.225632 61.198471 141.71875 58.537308 C 141.745621 58.223015 141.641251 57.960152 141.40625 57.748405 C 139.524368 57.566948 137.649368 57.619331 135.78125 57.906181 C 136.398132 57.462502 137.023132 56.989151 137.65625 56.486137 C 136.550003 56.254509 135.508438 55.886253 134.53125 55.381668 C 135.600937 55.192642 136.538437 54.771996 137.34375 54.1194 C 135.537811 53.916183 133.766876 53.54792 132.03125 53.014931 C 131.696564 52.746071 131.384064 52.4832 131.09375 52.226006 C 131.522812 52.275551 131.939682 52.222855 132.34375 52.068222 C 131.505005 51.822723 130.77594 51.402077 130.15625 50.805969 C 134.156555 52.102638 138.219055 52.20771 142.34375 51.121536 C 142.97406 50.908836 143.49469 50.540581 143.90625 50.017059 C 144.150635 50.594223 143.942505 51.067566 143.28125 51.437096 C 141.747803 51.946419 140.185303 52.314697 138.59375 52.54158 Z" opacity="0.973" stroke="none" fill-rule="evenodd" fill="#7c399f" id="path41"></path>
    </g>
    <g id="g42">
        <path d="M 107.34375 83.466949 C 107.760315 84.308548 107.760315 85.149864 107.34375 85.99147 C 107.384689 85.758263 107.332497 85.547783 107.1875 85.360344 C 105.326256 86.173866 104.649071 87.541214 105.15625 89.462692 C 105.621872 88.949577 106.090622 88.423859 106.5625 87.884857 C 106.614685 87.989952 106.666565 88.095337 106.71875 88.200424 C 105.618439 89.839142 105.514061 91.522064 106.40625 93.249466 C 106.425003 93.420807 106.529068 93.525902 106.71875 93.565033 C 107.124062 92.784637 107.124062 92.048111 106.71875 91.356079 C 106.672195 91.024109 106.72406 90.708534 106.875 90.409393 C 107.291565 91.671326 107.864372 92.828506 108.59375 93.880608 C 108.101875 93.742699 107.73719 93.427124 107.5 92.933899 C 107.46563 93.926666 107.049065 94.242241 106.25 93.880608 C 105.117188 92.700378 104.856873 91.332718 105.46875 89.778259 C 104.330315 89.499924 103.96563 88.763397 104.375 87.56929 C 105.104065 86.412117 106.041565 85.465424 107.1875 84.729218 C 107.340622 84.321182 107.392815 83.900215 107.34375 83.466949 Z" stroke="none" fill-rule="evenodd" fill="#1f151c" id="path42"></path>
    </g>
    <g id="g43">
        <path d="M 106.71875 91.356079 C 107.124062 92.048111 107.124062 92.784637 106.71875 93.565033 C 106.529068 93.525902 106.425003 93.420807 106.40625 93.249466 C 106.706566 92.692482 106.810944 92.061363 106.71875 91.356079 Z" stroke="none" fill-rule="evenodd" fill="#4f275b" id="path43"></path>
    </g>
    <g id="g44">
        <path d="M 107.65625 82.204681 C 107.582184 82.612091 107.686249 82.927658 107.96875 83.151382 C 108.068748 84.223679 107.964684 85.275764 107.65625 86.30703 C 107.46656 86.267914 107.362495 86.162827 107.34375 85.99147 C 107.760315 85.149864 107.760315 84.308548 107.34375 83.466949 C 107.34375 83.256477 107.34375 83.046303 107.34375 82.835815 C 107.290001 82.522781 107.394371 82.312622 107.65625 82.204681 Z" stroke="none" fill-rule="evenodd" fill="#532a61" id="path44"></path>
    </g>
    <g id="g45">
        <path d="M 118.28125 77.155647 C 119.066559 77.633102 118.962494 78.053749 117.96875 78.417908 C 117.864685 78.312836 117.760315 78.207428 117.65625 78.102348 C 118.003746 77.860939 118.212181 77.545372 118.28125 77.155647 Z" opacity="0.957" stroke="none" fill-rule="evenodd" fill="#3a2147" id="path45"></path>
    </g>
    <g id="g46">
        <path d="M 87.96875 77.471214 C 88.297501 77.424194 88.610001 77.476578 88.90625 77.628998 C 89.914063 78.636597 91.007813 79.530594 92.1875 80.311302 C 92.449997 82.366577 93.543747 83.786613 95.46875 84.571426 C 97.211563 86.046066 98.617813 87.781662 99.6875 89.778259 C 101.011879 91.004532 102.157814 92.266785 103.125 93.565033 C 102.614059 93.139343 102.145309 93.192032 101.71875 93.722809 C 102.992493 95.111938 104.138443 96.584351 105.15625 98.140732 C 107.174065 99.080795 109.205315 99.975098 111.25 100.823029 C 111.741875 100.354721 112.15844 99.828674 112.5 99.245209 C 113.125931 99.863075 113.802811 99.968155 114.53125 99.560768 C 115.035316 100.439941 115.608131 101.28154 116.25 102.085281 C 118.980316 105.32077 122.365944 106.267464 126.40625 104.925369 C 122.588745 108.377022 118.10968 110.375504 112.96875 110.921104 C 112.984375 110.261581 112.671875 109.840927 112.03125 109.658844 C 109.511253 110.832436 107.115318 110.516869 104.84375 108.712158 C 104.546249 108.224594 104.442184 107.698555 104.53125 107.134323 C 103.722191 106.936455 102.940941 106.936455 102.1875 107.134323 C 99.914383 105.94339 98.091568 104.260162 96.71875 102.085281 C 97.201569 101.784866 97.722504 101.679794 98.28125 101.769714 C 98.349686 101.398926 98.245621 101.083374 97.96875 100.823029 C 97.499374 100.639053 97.082817 100.37619 96.71875 100.034111 C 94.536247 99.030937 92.348747 97.979156 90.15625 96.878471 C 89.157806 96.343582 88.428741 95.554657 87.96875 94.511734 C 88.072815 94.406639 88.177185 94.301239 88.28125 94.196167 C 89.963753 95.099319 91.734688 95.730438 93.59375 96.089554 C 94.592506 96.140045 95.425941 95.824478 96.09375 95.142868 C 93.837502 93.184464 91.597816 91.185989 89.375 89.147133 C 88.844688 88.453194 88.375938 87.71698 87.96875 86.938156 C 88.072815 86.833084 88.177185 86.727692 88.28125 86.622604 C 89.902191 88.335175 91.881561 89.281876 94.21875 89.462692 C 94.269371 88.823036 94.217186 88.19191 94.0625 87.56929 C 91.47094 84.543655 89.43969 81.177528 87.96875 77.471214 Z" opacity="0.973" stroke="none" fill-rule="evenodd" fill="#8f59ac" id="path46"></path>
    </g>
    <g id="g47">
        <path d="M 109.53125 76.524521 C 108.863441 78.695923 108.342812 80.904892 107.96875 83.151382 C 107.686256 82.927658 107.582191 82.612091 107.65625 82.204681 C 107.872498 80.819359 108.184998 79.451698 108.59375 78.102348 C 108.847809 77.546631 109.160309 77.020592 109.53125 76.524521 Z" stroke="none" fill-rule="evenodd" fill="#1e131b" id="path47"></path>
    </g>
    <g id="g48">
        <path d="M 101.09375 76.524521 C 101.370621 76.121857 101.683121 76.121857 102.03125 76.524521 C 101.742188 76.85965 101.429688 76.85965 101.09375 76.524521 Z" opacity="0.008" stroke="none" fill-rule="evenodd" fill="#9245cf" id="path48"></path>
    </g>
    <g id="g49">
        <path d="M 108.90625 74.315567 C 109.114685 74.841614 109.322815 75.36734 109.53125 75.893387 C 109.53125 76.103874 109.53125 76.314034 109.53125 76.524521 C 109.160309 77.020592 108.847809 77.546631 108.59375 78.102348 C 108.489685 78.102348 108.385315 78.102348 108.28125 78.102348 C 108.794693 76.904778 109.002808 75.642517 108.90625 74.315567 Z" stroke="none" fill-rule="evenodd" fill="#512866" id="path49"></path>
    </g>
    <g id="g50">
        <path d="M 107.34375 82.835815 C 107.34375 83.046303 107.34375 83.256477 107.34375 83.466949 C 107.392815 83.900215 107.340622 84.321182 107.1875 84.729218 C 106.041565 85.465424 105.104065 86.412117 104.375 87.56929 C 103.96563 88.763397 104.330315 89.499924 105.46875 89.778259 C 104.856873 91.332718 105.117188 92.700378 106.25 93.880608 C 107.049065 94.242241 107.46563 93.926666 107.5 92.933899 C 107.73719 93.427124 108.101875 93.742699 108.59375 93.880608 C 108.802185 94.722206 109.010315 94.722206 109.21875 93.880608 C 109.444374 93.748695 109.600624 93.538521 109.6875 93.249466 C 110.170006 93.870491 110.534691 94.554321 110.78125 95.300636 C 111.218437 95.488403 111.635002 95.435699 112.03125 95.142868 C 112.709068 96.724152 113.542183 98.196579 114.53125 99.560768 C 113.802818 99.968155 113.125938 99.863075 112.5 99.245209 C 112.15844 99.828674 111.741875 100.354721 111.25 100.823029 C 109.205315 99.975098 107.174065 99.080795 105.15625 98.140732 C 104.138443 96.584351 102.9925 95.111938 101.71875 93.722809 C 102.145309 93.192032 102.614059 93.139343 103.125 93.565033 C 102.157814 92.266785 101.011879 91.004532 99.6875 89.778259 C 98.617813 87.781662 97.211563 86.046066 95.46875 84.571426 C 93.543747 83.786613 92.449997 82.366577 92.1875 80.311302 C 91.007813 79.530594 89.914063 78.636597 88.90625 77.628998 C 88.610001 77.476578 88.297501 77.424194 87.96875 77.471214 C 87.676567 76.646645 87.624382 75.805344 87.8125 74.946693 C 87.987816 74.781967 88.196251 74.676888 88.4375 74.631126 C 89.40844 75.189362 90.293755 75.873192 91.09375 76.682304 C 93.519058 77.85463 95.915001 79.11689 98.28125 80.469086 C 101.264687 81.460907 104.285316 82.249809 107.34375 82.835815 Z" stroke="none" fill-rule="evenodd" fill="#935faf" id="path50"></path>
    </g>
    <g id="g51">
        <path d="M 108.59375 93.880608 C 108.802185 93.880608 109.010315 93.880608 109.21875 93.880608 C 109.010315 94.722206 108.802185 94.722206 108.59375 93.880608 Z" stroke="none" fill-rule="evenodd" fill="#2b1d25" id="path51"></path>
    </g>
    <g id="g52">
        <path d="M 138.59375 52.54158 C 138.59375 52.75206 138.697815 52.857147 138.90625 52.857147 C 138.117508 53.267372 137.284058 53.267372 136.40625 52.857147 C 137.107193 52.549789 137.836243 52.444382 138.59375 52.54158 Z" opacity="0.953" stroke="none" fill-rule="evenodd" fill="#371f42" id="path52"></path>
    </g>
    <g id="g53">
        <path d="M 87.65625 71.791046 C 87.568123 72.194336 87.359688 72.509903 87.03125 72.73774 C 86.283119 73.315857 85.970619 74.104767 86.09375 75.104477 C 86.657806 79.135506 88.428741 82.554024 91.40625 85.360344 C 90.676567 85.271347 89.999367 84.850708 89.375 84.098083 C 88.52375 83.083221 87.7425 82.031433 87.03125 80.942429 C 86.625305 81.128616 86.365005 81.444183 86.25 81.889122 C 85.625 86.995277 87.448128 91.045258 91.71875 94.038376 C 90.948441 93.860092 90.219376 93.491821 89.53125 92.933899 C 88.793121 92.084404 88.063744 91.242798 87.34375 90.409393 C 86.268433 93.271553 86.893433 95.743378 89.21875 97.825165 C 91.231247 98.946663 93.314682 99.893372 95.46875 100.665253 C 94.000938 100.741608 92.646873 100.373657 91.40625 99.560768 C 91.087189 99.719177 91.035004 99.929352 91.25 100.191895 C 92.943436 102.113693 94.974686 103.533737 97.34375 104.452019 C 99.291565 108.537643 102.416565 111.219955 106.71875 112.498932 C 105.78125 113.235153 105.885315 113.761192 107.03125 114.076767 C 107.32843 113.816116 107.64093 113.763718 107.96875 113.918968 C 107.707184 114.238007 107.603119 114.606285 107.65625 115.02346 C 108.431557 115.0793 109.004372 114.763748 109.375 114.076767 C 109.309685 115.326096 109.882813 115.852127 111.09375 115.654579 C 110.650307 115.954681 110.129692 116.059761 109.53125 115.970146 C 109.331245 115.392044 109.018745 115.286942 108.59375 115.654579 C 109.010315 117.021927 109.010315 118.38958 108.59375 119.756935 C 108.742805 120.065544 108.950935 120.328415 109.21875 120.545845 C 107.88343 120.490295 107.25843 121.121437 107.34375 122.439232 C 107.311249 123.116119 107.519684 123.69487 107.96875 124.174843 C 108.379372 124.431396 108.744057 124.746956 109.0625 125.121529 C 109.286568 124.94986 109.442818 124.739388 109.53125 124.49041 C 110.352188 123.827393 111.289688 123.406761 112.34375 123.228149 C 111.460312 123.8293 110.574997 124.460434 109.6875 125.121529 C 109.522491 125.536827 109.678741 125.747299 110.15625 125.75267 C 109.934685 126.037941 109.622185 126.143021 109.21875 126.068222 C 112.022812 128.658386 115.043442 128.921249 118.28125 126.857147 C 118.99688 126.296387 119.517815 125.612549 119.84375 124.805969 C 120.105629 124.698051 120.209999 124.487869 120.15625 124.174843 C 120.260315 124.174843 120.364685 124.174843 120.46875 124.174843 C 120.487183 125.45224 119.966248 126.451637 118.90625 127.172707 C 116.615936 129.0923 114.115936 129.407867 111.40625 128.1194 C 109.826881 127.111481 108.159996 126.269882 106.40625 125.594894 C 105.844688 125.091873 105.532188 124.460739 105.46875 123.701485 C 106.518127 122.058014 107.455627 120.322418 108.28125 118.494667 C 107.952499 117.950958 107.952499 117.424896 108.28125 116.91684 C 108.132187 116.465271 107.924057 116.044624 107.65625 115.654579 C 106.681252 114.843895 105.847816 113.897202 105.15625 112.814507 C 101.350319 111.442741 98.590004 108.918221 96.875 105.240936 C 94.011246 104.13678 91.823746 102.243378 90.3125 99.560768 C 86.564377 97.211395 85.470627 94.003357 87.03125 89.93602 C 85.05468 87.488197 84.58593 84.805901 85.625 81.889122 C 85.928741 81.319527 86.293442 80.793488 86.71875 80.311302 C 85.6175 78.232361 85.252808 76.023407 85.625 73.684433 C 86.064377 72.766464 86.741249 72.13533 87.65625 71.791046 Z" opacity="0.69" stroke="none" fill-rule="evenodd" fill="#161415" id="path53"></path>
    </g>
    <g id="g54">
        <path d="M 124.84375 108.712158 C 124.84375 108.501678 124.739685 108.396591 124.53125 108.396591 C 125.245316 107.886002 125.870316 107.254875 126.40625 106.503197 C 126.350937 107.427177 125.830315 108.163383 124.84375 108.712158 Z" opacity="0.973" stroke="none" fill-rule="evenodd" fill="#351f3f" id="path54"></path>
    </g>
    <g id="g55">
        <path d="M 102.96875 107.765457 C 103.430626 107.682777 103.847191 107.787872 104.21875 108.081032 C 103.605309 108.931152 103.188438 108.826065 102.96875 107.765457 Z" opacity="0.973" stroke="none" fill-rule="evenodd" fill="#40224e" id="path55"></path>
    </g>
    <g id="g56">
        <path d="M 160.46875 112.183365 C 160.592804 111.859924 160.800934 111.807228 161.09375 112.025589 C 160.908127 112.172012 160.699692 112.224709 160.46875 112.183365 Z" opacity="0.004" stroke="none" fill-rule="evenodd" fill="#9535aa" id="path56"></path>
    </g>
    <g id="g57">
        <path d="M 111.09375 111.552231 C 112.597809 112.181793 112.597809 112.49736 111.09375 112.498932 C 111.09375 112.183365 111.09375 111.867798 111.09375 111.552231 Z" opacity="0.973" stroke="none" fill-rule="evenodd" fill="#351e3f" id="path57"></path>
    </g>
    <g id="g58">
        <path d="M 144.21875 67.057571 C 144.049057 67.0765 143.944992 67.181587 143.90625 67.373138 C 145.343445 71.601395 147.687195 75.177681 150.9375 78.102348 C 153.187195 78.537514 155.42688 78.48481 157.65625 77.944565 C 159.286255 75.657974 161.473755 74.500809 164.21875 74.473351 C 164.6875 74.946693 165.15625 75.420044 165.625 75.893387 C 167.825317 74.960892 169.960632 75.118675 172.03125 76.366737 C 172.915634 77.187843 173.228134 78.134537 172.96875 79.206825 C 173.418747 80.273117 173.731247 81.377594 173.90625 82.520256 C 173.191559 84.096817 172.827179 85.780045 172.8125 87.56929 C 171.579681 90.539085 169.339996 91.906418 166.09375 91.671631 C 162.767181 91.754318 160.215317 90.386658 158.4375 87.56929 C 155.005936 88.881111 151.620316 88.670937 148.28125 86.938156 C 147.456238 90.068878 146.206238 93.014053 144.53125 95.773987 C 143.261566 97.424698 141.751251 98.792046 140 99.876343 C 137.922806 106.076561 133.964371 110.599548 128.125 113.445633 C 128.299072 114.184372 128.246887 114.920578 127.96875 115.654579 C 127.375626 116.043991 126.854691 115.938919 126.40625 115.33902 C 125.205002 117.633179 125.830002 118.737648 128.28125 118.652443 C 128.459686 119.032707 128.668121 119.40097 128.90625 119.756935 C 129.659698 120.028625 130.284698 120.44928 130.78125 121.01918 C 130.27594 120.849426 129.755005 120.744331 129.21875 120.703621 C 129.199997 120.53228 129.095932 120.427185 128.90625 120.388054 C 128.696869 120.953232 128.488434 121.479279 128.28125 121.965889 C 128.376877 121.055481 128.272812 120.213867 127.96875 119.441368 C 127.617813 119.044701 127.409683 119.14978 127.34375 119.756935 C 126.732185 119.097076 126.055313 118.46595 125.3125 117.863541 C 125.739685 115.984985 124.958435 115.038284 122.96875 115.02346 C 122.788124 114.410309 122.475624 114.304909 122.03125 114.707886 C 121.96875 116.430878 121.5 118.008698 120.625 119.441368 C 120.469681 120.170319 120.417816 120.906532 120.46875 121.650314 C 120.262184 121.265968 120.053749 120.845306 119.84375 120.388054 C 119.525307 120.762642 119.160622 121.078201 118.75 121.334747 C 118.515938 121.692932 118.56781 122.008492 118.90625 122.281456 C 120.380936 122.980431 121.630936 123.979507 122.65625 125.27932 C 125.327499 126.812653 127.931564 126.707573 130.46875 124.963753 C 131.228119 124.236374 131.540619 123.342377 131.40625 122.281456 C 131.215637 122.00029 131.111572 121.684723 131.09375 121.334747 C 131.948746 122.078857 132.209381 123.025558 131.875 124.174843 C 128.078751 127.931015 124.276566 127.931015 120.46875 124.174843 C 120.364685 123.754196 120.260315 123.754196 120.15625 124.174843 C 119.756866 124.085838 119.444366 123.875366 119.21875 123.543716 C 119.239059 123.405495 119.18718 123.300079 119.0625 123.228149 C 118.854065 123.648788 118.541565 123.964355 118.125 124.174843 C 117.616875 123.715698 117.252502 123.189651 117.03125 122.597015 C 116.927185 122.597015 116.822815 122.597015 116.71875 122.597015 C 116.666252 121.792007 116.353752 121.581535 115.78125 121.965889 C 115.78125 122.070969 115.78125 122.176361 115.78125 122.281456 C 115.677185 122.281456 115.572815 122.281456 115.46875 122.281456 C 114.588127 121.333183 113.598747 120.49157 112.5 119.756935 C 112.395935 118.494667 112.291565 117.232414 112.1875 115.970146 C 111.871567 115.706024 111.506874 115.600937 111.09375 115.654579 C 111.025314 115.283798 111.129379 114.968231 111.40625 114.707886 C 112.055626 115.492386 112.889061 115.807953 113.90625 115.654579 C 113.94281 115.028503 113.734375 114.502769 113.28125 114.076767 C 117.552811 113.182129 121.302811 111.288742 124.53125 108.396591 C 124.739685 108.396591 124.84375 108.501678 124.84375 108.712158 C 123.78875 109.693878 122.695 110.640579 121.5625 111.552231 C 121.407181 112.387222 121.354996 113.228836 121.40625 114.076767 C 121.99688 114.140823 122.46563 113.930649 122.8125 113.445633 C 123.019371 114.788055 123.592186 114.998207 124.53125 114.076767 C 124.763443 114.521065 125.024063 114.941727 125.3125 115.33902 C 125.842812 114.208344 126.519691 114.103271 127.34375 115.02346 C 127.743752 114.32164 127.639687 113.690521 127.03125 113.130066 C 132.014679 110.780365 135.712494 107.098671 138.125 102.085281 C 138.471863 101.486664 138.523743 100.908234 138.28125 100.349686 C 140.416565 98.614082 142.34375 96.667984 144.0625 94.511734 C 145.126877 92.735725 145.908127 90.842339 146.40625 88.831558 C 146.860626 87.828064 147.277191 86.77597 147.65625 85.675903 C 150.822495 87.189987 154.155945 87.66333 157.65625 87.095955 C 157.652817 86.225616 157.757187 85.331627 157.96875 84.413658 C 159.64563 89.891235 163.291565 91.942398 168.90625 90.567162 C 169.76532 90.212791 170.54657 89.739441 171.25 89.147133 C 173.347488 85.848831 172.462189 84.060532 168.59375 83.782516 C 167.760315 83.572037 166.927185 83.361862 166.09375 83.151382 C 168.379379 83.140663 170.566879 83.508919 172.65625 84.255859 C 173.600311 82.71685 173.391876 81.349503 172.03125 80.153519 C 170.005325 79.285088 167.921875 79.18 165.78125 79.837952 C 165.095642 80.328026 164.731262 81.011536 164.6875 81.889122 C 164.43251 82.306625 164.067825 82.5168 163.59375 82.520256 C 163.137817 82.541389 162.721252 82.436325 162.34375 82.204681 C 161.651245 81.982857 161.07843 81.562187 160.625 80.942429 C 160.460632 79.648926 160.200317 78.386665 159.84375 77.155647 C 159.129684 77.615433 158.55687 78.246559 158.125 79.049042 C 157.897812 80.110603 157.637497 81.162376 157.34375 82.204681 C 157.026245 80.959167 157.026245 79.802292 157.34375 78.733475 C 155.008759 79.552055 152.665009 79.552055 150.3125 78.733475 C 149.039063 79.511658 148.309998 80.668831 148.125 82.204681 C 147.916565 82.625351 147.708435 82.625351 147.5 82.204681 C 147.720306 80.918457 148.293121 79.761269 149.21875 78.733475 C 148.441559 78.393929 147.712494 77.972961 147.03125 77.471214 C 147.135315 77.366135 147.239685 77.260735 147.34375 77.155647 C 147.836884 77.515396 148.357498 77.67318 148.90625 77.628998 C 147.916565 76.419441 146.927185 75.209557 145.9375 74 C 145.20343 72.517479 144.474365 71.045052 143.75 69.582092 C 143.032806 65.104218 142.772186 60.580917 142.96875 56.012794 C 143.020004 55.164871 142.967819 54.32325 142.8125 53.488274 C 141.36937 55.240601 139.54657 55.819031 137.34375 55.223885 C 138.717499 54.988464 140.071884 54.672905 141.40625 54.277191 C 142.001556 53.70443 142.522491 53.073303 142.96875 52.383797 C 141.615005 52.435226 140.260635 52.59301 138.90625 52.857147 C 138.697815 52.857147 138.59375 52.75206 138.59375 52.54158 C 140.185303 52.314697 141.747803 51.946419 143.28125 51.437096 C 143.942505 51.067566 144.150635 50.594223 143.90625 50.017059 C 143.49469 50.540581 142.97406 50.908836 142.34375 51.121536 C 138.219055 52.20771 134.156555 52.102638 130.15625 50.805969 C 130.77594 51.402077 131.505005 51.822723 132.34375 52.068222 C 131.939682 52.222855 131.522812 52.275551 131.09375 52.226006 C 130.555313 51.683861 129.930313 51.263229 129.21875 50.963753 C 129.259689 50.687309 129.155624 50.476837 128.90625 50.332626 C 128.229065 50.789558 127.5 51.157822 126.71875 51.437096 C 121.139687 52.476883 115.931252 51.530182 111.09375 48.597015 C 110.30687 48.025841 110.30687 47.447403 111.09375 46.861404 C 114.870941 44.860725 118.829376 44.019104 122.96875 44.336884 C 121.701569 44.23465 120.451569 44.339729 119.21875 44.652451 C 118.642189 45.613663 118.329689 46.665756 118.28125 47.808105 C 118.177185 47.808105 118.072815 47.808105 117.96875 47.808105 C 117.96875 46.966492 117.96875 46.125191 117.96875 45.283585 C 115.353745 45.321449 113.061874 46.163063 111.09375 47.808105 C 114.306252 50.277084 117.951881 51.434265 122.03125 51.27932 C 124.20813 51.418167 126.291565 51.049904 128.28125 50.174843 C 129.784378 49.116127 129.888748 47.959259 128.59375 46.703621 C 127.316559 45.730736 125.962494 45.257378 124.53125 45.283585 C 124.114685 45.073097 124.114685 44.862938 124.53125 44.652451 C 126.498444 44.699158 128.165314 45.435379 129.53125 46.861404 C 129.626251 44.359924 128.688751 42.203354 126.71875 40.392319 C 121.281876 37.77092 116.125626 38.244263 111.25 41.812363 C 111.12532 41.740425 111.073441 41.63501 111.09375 41.496803 C 111.591873 41.028816 112.112503 40.555466 112.65625 40.076752 C 118.328438 36.926155 123.640938 37.399498 128.59375 41.496803 C 129.313446 42.672287 129.886566 43.93454 130.3125 45.283585 C 132.511871 43.689659 134.959686 43.111229 137.65625 43.547981 C 134.926254 43.54892 132.478439 44.33783 130.3125 45.914719 C 130.097504 46.177269 130.149689 46.387421 130.46875 46.545845 C 131.261566 45.988235 132.094696 45.514885 132.96875 45.125793 C 137.203751 44.264313 141.058121 45.053223 144.53125 47.492531 C 144.593124 44.529694 143.239059 42.373444 140.46875 41.02346 C 137.175629 39.848289 133.946564 40.006073 130.78125 41.496803 C 130.480316 41.348495 130.480316 41.138 130.78125 40.865677 C 131.091248 40.919952 131.299377 40.81456 131.40625 40.55011 C 134.431244 39.730263 137.452179 39.730263 140.46875 40.55011 C 140.787811 40.391693 140.839996 40.181526 140.625 39.918976 C 137.055313 34.880989 132.211563 31.98819 126.09375 31.240944 C 119.351875 30.40403 113.831253 32.560318 109.53125 37.710014 C 109.551559 37.571808 109.49968 37.466408 109.375 37.394455 C 108.959061 38.182106 108.386246 38.813232 107.65625 39.287849 C 108.051567 38.33326 108.572502 37.43927 109.21875 36.605545 C 107.15313 34.955452 105.798752 32.851585 105.15625 30.294243 C 105.460312 28.460312 106.50219 27.250648 108.28125 26.665253 C 110.02063 26.629089 111.791245 26.839439 113.59375 27.296379 C 114.133751 27.267952 114.654381 27.162766 115.15625 26.980812 C 115.721878 19.942474 119.055008 18.206863 125.15625 21.773994 C 126.302185 23.308861 127.552185 24.728897 128.90625 26.034111 C 129.741562 25.718102 130.470932 25.244759 131.09375 24.614075 C 133.292191 23.837502 134.906555 24.626404 135.9375 26.980812 C 136.228439 28.93885 135.811874 30.727066 134.6875 32.345413 C 134.443436 32.801094 134.495621 33.221741 134.84375 33.607681 C 137.888123 35.472359 140.231873 37.996864 141.875 41.181236 C 145.584381 44.005852 146.313751 47.477074 144.0625 51.594879 C 143.995636 53.294205 143.839386 54.977425 143.59375 56.643929 C 143.874069 58.39846 143.874069 60.291855 143.59375 62.324097 C 143.582489 63.93663 143.790939 65.514458 144.21875 67.057571 Z M 119.84375 112.498932 C 120.986565 113.823044 121.350937 115.400879 120.9375 117.232414 C 120.635002 118.793503 119.801872 119.950699 118.4375 120.703621 C 118.122185 121.18486 117.965935 121.710899 117.96875 122.281456 C 117.226875 122.056145 116.601875 121.63517 116.09375 121.01918 C 115.799377 121.053276 115.539063 121.158356 115.3125 121.334747 C 114.88781 120.643036 114.315002 120.116982 113.59375 119.756935 C 113.029694 118.179741 113.290009 116.812393 114.375 115.654579 C 114.082497 114.636566 114.447182 114.320999 115.46875 114.707886 C 117.033432 114.128197 118.491562 113.391968 119.84375 112.498932 Z" opacity="0.996" stroke="none" fill-rule="evenodd" fill="#161214" id="path58"></path>
    </g>
    <g id="g59">
        <path d="M 166.40625 75.893387 C 168.709671 75.435196 170.636887 76.066322 172.1875 77.786781 C 172.395935 78.417908 172.395935 79.049042 172.1875 79.680168 C 169.693756 78.477242 167.245941 78.582314 164.84375 79.995735 C 164.413757 78.238037 164.934372 76.870377 166.40625 75.893387 Z" stroke="none" fill-rule="evenodd" fill="#8342a5" id="path59"></path>
    </g>
    <g id="g60">
        <path d="M 159.84375 77.155647 C 160.807816 75.72393 162.16188 75.1455 163.90625 75.420044 C 164.0625 75.577827 164.21875 75.735611 164.375 75.893387 C 164.071564 77.285034 163.602814 78.652374 162.96875 79.995735 C 163.072815 80.100822 163.177185 80.206215 163.28125 80.311302 C 163.837189 79.435295 164.149689 79.540375 164.21875 80.626869 C 164.257507 81.584602 163.840942 82.057953 162.96875 82.046921 C 162.309692 81.686852 161.736877 81.213501 161.25 80.626869 C 161.002502 79.073654 161.106567 77.601227 161.5625 76.208954 C 161.05719 76.635284 160.692505 77.161331 160.46875 77.786781 C 160.255615 77.552315 160.04718 77.342148 159.84375 77.155647 Z" stroke="none" fill-rule="evenodd" fill="#7f3da1" id="path60"></path>
    </g>
    <g id="g61">
        <path d="M 133.59375 47.808105 C 132.665314 47.78759 131.831879 48.050766 131.09375 48.597015 C 131.302185 48.807487 131.510315 49.01767 131.71875 49.228142 C 133.425308 49.984879 135.196243 50.510918 137.03125 50.805969 C 137.96312 50.96312 138.90062 51.015808 139.84375 50.963753 C 138.129684 51.327271 136.359055 51.379662 134.53125 51.121536 C 132.951569 50.801544 131.389069 50.433281 129.84375 50.017059 C 129.676239 47.52504 130.821869 46.157707 133.28125 45.914719 C 133.28656 46.566353 133.390625 47.197495 133.59375 47.808105 Z" opacity="0.973" stroke="none" fill-rule="evenodd" fill="#cfa3dc" id="path61"></path>
    </g>
    <g id="g62">
        <path d="M 133.59375 47.808105 C 135.027191 49.922386 137.006256 50.711311 139.53125 50.174843 C 140.059998 49.762398 140.476563 49.289047 140.78125 48.754799 C 141.006866 48.622887 141.163116 48.412735 141.25 48.123672 C 141.721558 48.309845 142.190308 48.520012 142.65625 48.754799 C 141.946243 49.433578 141.112808 49.906929 140.15625 50.174843 C 139.813126 50.417839 139.813126 50.680687 140.15625 50.963753 C 140.052185 50.963753 139.947815 50.963753 139.84375 50.963753 C 138.90062 51.015808 137.96312 50.96312 137.03125 50.805969 C 135.196243 50.510918 133.425308 49.984879 131.71875 49.228142 C 131.510315 49.01767 131.302185 48.807487 131.09375 48.597015 C 131.831879 48.050766 132.665314 47.78759 133.59375 47.808105 Z" opacity="0.973" stroke="none" fill-rule="evenodd" fill="#f8d6f6" id="path62"></path>
    </g>
    <g id="g63">
        <path d="M 140.15625 50.963753 C 139.813126 50.680687 139.813126 50.417839 140.15625 50.174843 C 141.112808 49.906929 141.946243 49.433578 142.65625 48.754799 C 142.190308 48.520012 141.721558 48.309845 141.25 48.123672 C 141.163116 48.412735 141.006866 48.622887 140.78125 48.754799 C 140.889374 47.775925 140.680939 46.88192 140.15625 46.072495 C 141.735321 46.23848 143.089371 46.92231 144.21875 48.123672 C 143.284058 49.701172 141.929993 50.647865 140.15625 50.963753 Z" opacity="0.973" stroke="none" fill-rule="evenodd" fill="#dbade7" id="path63"></path>
    </g>
    <g id="g64">
        <path d="M 117.96875 47.808105 C 116.832504 47.908768 115.790939 48.276711 114.84375 48.912582 C 115.052185 49.123055 115.260315 49.333229 115.46875 49.543701 C 119.666252 51.193802 123.832817 51.193802 127.96875 49.543701 C 128.32312 49.223099 128.219055 49.012619 127.65625 48.912582 C 126.956253 48.604271 126.227188 48.446495 125.46875 48.439232 C 125.52906 47.2565 125.21656 46.204407 124.53125 45.283585 C 125.962494 45.257378 127.316559 45.730736 128.59375 46.703621 C 129.888748 47.959259 129.784378 49.116127 128.28125 50.174843 C 126.291565 51.049904 124.20813 51.418167 122.03125 51.27932 C 117.951881 51.434265 114.306252 50.277084 111.09375 47.808105 C 113.061874 46.163063 115.353745 45.321449 117.96875 45.283585 C 117.96875 46.125191 117.96875 46.966492 117.96875 47.808105 Z" opacity="0.973" stroke="none" fill-rule="evenodd" fill="#d9ace6" id="path64"></path>
    </g>
    <g id="g65">
        <path d="M 117.96875 47.808105 C 118.072815 47.808105 118.177185 47.808105 118.28125 47.808105 C 118.977501 49.426003 120.227501 50.267624 122.03125 50.332626 C 123.59375 50.393524 124.739685 49.762398 125.46875 48.439232 C 126.227188 48.446495 126.956253 48.604271 127.65625 48.912582 C 128.219055 49.012619 128.32312 49.223099 127.96875 49.543701 C 123.832817 51.193802 119.666252 51.193802 115.46875 49.543701 C 115.260315 49.333229 115.052185 49.123055 114.84375 48.912582 C 115.790939 48.276711 116.832504 47.908768 117.96875 47.808105 Z" opacity="0.973" stroke="none" fill-rule="evenodd" fill="#f9d9f5" id="path65"></path>
    </g>
    <g id="g66">
        <path d="M 122.96875 44.336884 C 123.567192 44.247269 124.087807 44.352356 124.53125 44.652451 C 124.114685 44.862938 124.114685 45.073097 124.53125 45.283585 C 125.21656 46.204407 125.52906 47.2565 125.46875 48.439232 C 124.739685 49.762398 123.59375 50.393524 122.03125 50.332626 C 120.227501 50.267624 118.977501 49.426003 118.28125 47.808105 C 118.329689 46.665756 118.642189 45.613663 119.21875 44.652451 C 120.451561 44.339729 121.701561 44.23465 122.96875 44.336884 Z" opacity="0.97" stroke="none" fill-rule="evenodd" fill="#070607" id="path66"></path>
    </g>
    <g id="g67">
        <path d="M 128.59375 41.496803 C 129.303757 41.23835 130.033127 41.028198 130.78125 40.865677 C 130.480316 41.138 130.480316 41.348495 130.78125 41.496803 C 133.946564 40.006073 137.175629 39.848289 140.46875 41.02346 C 143.239059 42.373444 144.593124 44.529694 144.53125 47.492531 C 141.058121 45.053223 137.203751 44.264313 132.96875 45.125793 C 132.094696 45.514885 131.261566 45.988235 130.46875 46.545845 C 130.149689 46.387421 130.097504 46.177269 130.3125 45.914719 C 132.478439 44.33783 134.926254 43.54892 137.65625 43.547981 C 134.959686 43.111229 132.511871 43.689659 130.3125 45.283585 C 129.886566 43.93454 129.313446 42.672287 128.59375 41.496803 Z" opacity="0.973" stroke="none" fill-rule="evenodd" fill="#7b389e" id="path67"></path>
    </g>
    <g id="g68">
        <path d="M 125.46875 37.710014 C 126.969688 38.782318 128.636246 39.518532 130.46875 39.918976 C 128.259689 40.380333 126.592804 39.644119 125.46875 37.710014 Z" opacity="0.973" stroke="none" fill-rule="evenodd" fill="#1e1523" id="path68"></path>
    </g>
    <g id="g69">
        <path d="M 127.65625 38.025581 C 128.566254 38.440559 129.503754 38.808815 130.46875 39.130066 C 129.714691 39.282799 128.985626 39.177391 128.28125 38.814499 C 127.888748 38.682915 127.680313 38.420044 127.65625 38.025581 Z" opacity="0.973" stroke="none" fill-rule="evenodd" fill="#291b31" id="path69"></path>
    </g>
    <g id="g70">
        <path d="M 130.78125 26.034111 C 130.167496 27.285049 129.229996 28.231743 127.96875 28.874207 C 128.117813 29.182693 128.325943 29.445656 128.59375 29.663116 C 131.496872 30.174896 132.590622 28.96524 131.875 26.034111 C 131.75531 25.85865 131.59906 25.753487 131.40625 25.718544 C 133.076248 24.68425 134.378128 25.104996 135.3125 26.980812 C 135.520935 27.717117 135.520935 28.453453 135.3125 29.189774 C 134.658447 30.406265 134.085312 31.668533 133.59375 32.97654 C 129.656555 30.981514 125.489998 30.139992 121.09375 30.452019 C 123.112495 28.572922 123.789688 26.258804 123.125 23.50959 C 122.219688 22.040672 120.917816 21.567314 119.21875 22.089546 C 117.589066 23.300697 116.91188 24.931099 117.1875 26.980812 C 116.523125 28.342781 115.429375 29.026527 113.90625 29.03199 C 112.135315 29.137161 110.364685 29.242363 108.59375 29.347549 C 107.24218 30.019356 106.98156 31.018654 107.8125 32.345413 C 108.409058 33.264969 109.242188 33.791023 110.3125 33.923248 C 111.623123 32.92321 113.029373 32.028908 114.53125 31.240944 C 116.173126 30.839783 117.839691 30.681999 119.53125 30.767586 C 115.90593 31.781509 112.67688 33.569489 109.84375 36.132202 C 108.691872 34.916641 107.598122 33.654388 106.5625 32.345413 C 105.504066 29.220314 106.597816 27.642479 109.84375 27.611938 C 111.157501 27.746361 112.459686 27.956772 113.75 28.243065 C 114.791565 28.243065 115.625 27.822327 116.25 26.980812 C 116.046875 21.398338 118.49469 19.662735 123.59375 21.773994 C 124.26281 22.186615 124.88781 22.659973 125.46875 23.194031 C 126.188438 24.383621 127.021561 25.488091 127.96875 26.507469 C 128.981567 26.757736 129.919067 26.599953 130.78125 26.034111 Z" opacity="0.973" stroke="none" fill-rule="evenodd" fill="#ee3dad" id="path70"></path>
    </g>
    <g id="g71">
        <path d="M 131.40625 25.718544 C 131.59906 25.753487 131.75531 25.85865 131.875 26.034111 C 132.590622 28.96524 131.496872 30.174896 128.59375 29.663116 C 128.325943 29.445656 128.117813 29.182693 127.96875 28.874207 C 129.230011 28.231743 130.167511 27.285049 130.78125 26.034111 C 130.989685 25.92894 131.197815 25.823738 131.40625 25.718544 Z" opacity="0.973" stroke="none" fill-rule="evenodd" fill="#fe48d7" id="path71"></path>
    </g>
    <g id="g72">
        <path d="M 121.09375 30.452019 C 120.611877 30.704689 120.091248 30.809875 119.53125 30.767586 C 117.839691 30.681999 116.173126 30.839783 114.53125 31.240944 C 113.029373 32.028908 111.623123 32.92321 110.3125 33.923248 C 109.242188 33.791023 108.409058 33.264969 107.8125 32.345413 C 106.98156 31.018654 107.24218 30.019356 108.59375 29.347549 C 110.364685 29.242363 112.135315 29.137161 113.90625 29.03199 C 115.429375 29.026527 116.523125 28.342781 117.1875 26.980812 C 116.91188 24.931099 117.589066 23.300697 119.21875 22.089546 C 120.917816 21.567314 122.219688 22.040672 123.125 23.50959 C 123.789688 26.258804 123.112495 28.572922 121.09375 30.452019 Z" opacity="0.973" stroke="none" fill-rule="evenodd" fill="#fe48d7" id="path72"></path>
    </g>
    <g id="g73">
        <path d="M 111.09375 115.654579 C 111.506874 115.600937 111.871567 115.706024 112.1875 115.970146 C 112.291565 117.232414 112.395935 118.494667 112.5 119.756935 C 113.598747 120.49157 114.588127 121.333183 115.46875 122.281456 C 114.635315 122.491928 113.802185 122.702103 112.96875 122.912582 C 112.658745 122.858307 112.45063 122.963699 112.34375 123.228149 C 111.289688 123.406761 110.352188 123.827393 109.53125 124.49041 C 109.338432 124.455376 109.182182 124.350296 109.0625 124.174843 C 108.78437 123.163139 108.888435 122.216454 109.375 121.334747 C 109.530937 119.549599 109.583122 117.761292 109.53125 115.970146 C 110.129692 116.059761 110.650307 115.954681 111.09375 115.654579 Z" opacity="0.973" stroke="none" fill-rule="evenodd" fill="#f9bcad" id="path73"></path>
    </g>
    <g id="g74">
        <path d="M 122.96875 115.02346 C 124.958435 115.038284 125.739685 115.984985 125.3125 117.863541 C 126.055313 118.46595 126.732185 119.097076 127.34375 119.756935 C 127.34375 120.388054 127.34375 121.01918 127.34375 121.650314 C 126.07312 121.589409 124.82312 121.694511 123.59375 121.965889 C 123.180626 122.019531 122.815933 121.914452 122.5 121.650314 C 122.228439 120.993629 122.072189 120.310112 122.03125 119.599152 C 122.45594 118.077499 122.76844 116.552368 122.96875 115.02346 Z" opacity="0.973" stroke="none" fill-rule="evenodd" fill="#f6b9ab" id="path74"></path>
    </g>
    <g id="g75">
        <path d="M 122.96875 115.02346 C 122.76844 116.552368 122.45594 118.077499 122.03125 119.599152 C 122.072189 120.310112 122.228439 120.993629 122.5 121.650314 C 122.815933 121.914452 123.180626 122.019531 123.59375 121.965889 C 123.59375 122.070969 123.59375 122.176361 123.59375 122.281456 C 123.116562 122.258415 122.804062 122.468895 122.65625 122.912582 C 121.927185 122.491928 121.197815 122.070969 120.46875 121.650314 C 120.417816 120.906532 120.469688 120.170319 120.625 119.441368 C 121.5 118.008698 121.96875 116.430878 122.03125 114.707886 C 122.475624 114.304909 122.788124 114.410309 122.96875 115.02346 Z" opacity="0.973" stroke="none" fill-rule="evenodd" fill="#de9383" id="path75"></path>
    </g>
    <g id="g76">
        <path d="M 127.96875 119.441368 C 128.019684 120.18515 127.967819 120.921364 127.8125 121.650314 C 127.752808 120.953552 127.596558 120.322418 127.34375 119.756935 C 127.409691 119.14978 127.617821 119.044701 127.96875 119.441368 Z" opacity="0.988" stroke="none" fill-rule="evenodd" fill="#3574c3" id="path76"></path>
    </g>
    <g id="g77">
        <path d="M 109.53125 115.970146 C 109.583122 117.761292 109.530937 119.549599 109.375 121.334747 C 108.888435 122.216454 108.78437 123.163139 109.0625 124.174843 C 109.182182 124.350296 109.338432 124.455376 109.53125 124.49041 C 109.442818 124.739388 109.286568 124.94986 109.0625 125.121529 C 108.744057 124.746956 108.379372 124.431396 107.96875 124.174843 C 107.519684 123.69487 107.311249 123.116119 107.34375 122.439232 C 107.25843 121.121437 107.88343 120.490295 109.21875 120.545845 C 108.950935 120.328415 108.742805 120.065544 108.59375 119.756935 C 109.010315 118.38958 109.010315 117.021927 108.59375 115.654579 C 109.018745 115.286942 109.331245 115.392044 109.53125 115.970146 Z" opacity="0.973" stroke="none" fill-rule="evenodd" fill="#e09584" id="path77"></path>
    </g>
    <g id="g78">
        <path d="M 129.21875 120.703621 C 129.755005 120.744331 130.27594 120.849426 130.78125 121.01918 C 130.989685 121.01918 131.09375 121.124283 131.09375 121.334747 C 131.111572 121.684723 131.215637 122.00029 131.40625 122.281456 C 130.809052 122.462906 130.288116 122.778473 129.84375 123.228149 C 129.840317 122.749435 129.632187 122.38118 129.21875 122.123672 C 129.635315 122.123672 130.052185 122.123672 130.46875 122.123672 C 129.801559 121.847229 129.384689 121.373886 129.21875 120.703621 Z" opacity="0.961" stroke="none" fill-rule="evenodd" fill="#533b37" id="path78"></path>
    </g>
    <g id="g79">
        <path d="M 115.46875 122.281456 C 115.572815 122.281456 115.677185 122.281456 115.78125 122.281456 C 115.003746 122.877235 114.066246 123.087708 112.96875 122.912582 C 113.802185 122.702103 114.635315 122.491928 115.46875 122.281456 Z" opacity="0.976" stroke="none" fill-rule="evenodd" fill="#6c4132" id="path79"></path>
    </g>
    <g id="g80">
        <path d="M 129.21875 120.703621 C 129.384689 121.373886 129.801559 121.847229 130.46875 122.123672 C 130.052185 122.123672 129.635315 122.123672 129.21875 122.123672 C 129.632187 122.38118 129.840317 122.749435 129.84375 123.228149 C 129.126556 123.027451 128.605942 122.606804 128.28125 121.965889 C 128.488434 121.479279 128.696869 120.953232 128.90625 120.388054 C 129.095932 120.427185 129.199997 120.53228 129.21875 120.703621 Z" opacity="0.973" stroke="none" fill-rule="evenodd" fill="#e09887" id="path80"></path>
    </g>
    <g id="g81">
        <path d="M 115.78125 121.965889 C 116.129066 122.422195 116.181252 122.948242 115.9375 123.543716 C 114.771873 123.240768 113.574066 123.135689 112.34375 123.228149 C 112.45063 122.963699 112.658752 122.858307 112.96875 122.912582 C 114.066246 123.087708 115.003746 122.877235 115.78125 122.281456 C 115.78125 122.176361 115.78125 122.070969 115.78125 121.965889 Z" opacity="0.973" stroke="none" fill-rule="evenodd" fill="#172b4a" id="path81"></path>
    </g>
    <g id="g82">
        <path d="M 109.21875 126.068222 C 107.749695 125.805046 106.707809 125.016129 106.09375 123.701485 C 106.134377 123.367317 106.290627 123.104446 106.5625 122.912582 C 107.180626 124.218384 108.065941 125.270172 109.21875 126.068222 Z" opacity="0.978" stroke="none" fill-rule="evenodd" fill="#dcdcd9" id="path82"></path>
    </g>
    <g id="g83">
        <path d="M 117.96875 122.912582 C 118.542816 122.956436 118.646881 123.166931 118.28125 123.543716 C 118.031876 123.399498 117.927811 123.189026 117.96875 122.912582 Z" opacity="0.973" stroke="none" fill-rule="evenodd" fill="#a70315" id="path83"></path>
    </g>
    <g id="g84">
        <path d="M 115.78125 121.965889 C 116.353752 121.581535 116.666252 121.792007 116.71875 122.597015 C 116.71875 122.912582 116.71875 123.228149 116.71875 123.543716 C 115.495308 123.785751 114.245308 123.943527 112.96875 124.017059 C 112.682503 124.104797 112.474373 124.262573 112.34375 124.49041 C 112.026871 124.860886 111.610313 125.071045 111.09375 125.121529 C 110.71563 125.257858 110.40313 125.468338 110.15625 125.75267 C 109.678741 125.747299 109.522491 125.536827 109.6875 125.121529 C 110.574997 124.460434 111.460312 123.8293 112.34375 123.228149 C 113.574066 123.135689 114.771873 123.240768 115.9375 123.543716 C 116.181252 122.948242 116.129066 122.422195 115.78125 121.965889 Z" opacity="0.976" stroke="none" fill-rule="evenodd" fill="#3361a1" id="path84"></path>
    </g>
    <g id="g85">
        <path d="M 116.71875 123.543716 C 116.71875 123.964355 116.510315 124.174843 116.09375 124.174843 C 114.83313 124.176422 113.58313 124.281494 112.34375 124.49041 C 112.474373 124.262573 112.682503 124.104797 112.96875 124.017059 C 114.245308 123.943527 115.495308 123.785751 116.71875 123.543716 Z" opacity="0.969" stroke="none" fill-rule="evenodd" fill="#191923" id="path85"></path>
    </g>
    <g id="g86">
        <path d="M 127.96875 119.441368 C 128.272812 120.213867 128.376877 121.055481 128.28125 121.965889 C 128.605942 122.606804 129.126556 123.027451 129.84375 123.228149 C 129.506561 123.872841 128.985626 124.293488 128.28125 124.49041 C 128.19281 124.241432 128.03656 124.030945 127.8125 123.859268 C 127.326569 124.495148 126.753433 124.600212 126.09375 124.174843 C 126.159065 123.989914 126.263435 123.832138 126.40625 123.701485 C 127.291252 123.63459 128.124374 123.581894 128.90625 123.543716 C 128.840927 123.35878 128.736557 123.201004 128.59375 123.070358 C 127.34375 122.859886 126.09375 122.859886 124.84375 123.070358 C 124.241875 123.203529 123.929375 123.5718 123.90625 124.174843 C 123.347504 124.264778 122.826569 124.159691 122.34375 123.859268 C 121.543121 123.252121 120.918121 122.515602 120.46875 121.650314 C 121.197815 122.070969 121.927185 122.491928 122.65625 122.912582 C 122.646873 123.227196 122.803123 123.437683 123.125 123.543716 C 124.488441 122.629196 125.998756 122.155853 127.65625 122.123672 C 126.29406 121.955162 124.940002 122.00753 123.59375 122.281456 C 123.59375 122.176361 123.59375 122.070969 123.59375 121.965889 C 124.82312 121.694511 126.07312 121.589409 127.34375 121.650314 C 127.34375 121.01918 127.34375 120.388054 127.34375 119.756935 C 127.596558 120.322418 127.752808 120.953552 127.8125 121.650314 C 127.967819 120.921364 128.019684 120.18515 127.96875 119.441368 Z" opacity="0.937" stroke="none" fill-rule="evenodd" fill="#2a2227" id="path86"></path>
    </g>
    <g id="g87">
        <path d="M 122.65625 122.912582 C 122.804062 122.468895 123.116562 122.258415 123.59375 122.281456 C 124.940002 122.00753 126.29406 121.955162 127.65625 122.123672 C 125.998756 122.155853 124.488441 122.629196 123.125 123.543716 C 122.803123 123.437683 122.646873 123.227196 122.65625 122.912582 Z" opacity="0.984" stroke="none" fill-rule="evenodd" fill="#2d63a7" id="path87"></path>
    </g>
    <g id="g88">
        <path d="M 116.71875 122.597015 C 116.822815 122.597015 116.927185 122.597015 117.03125 122.597015 C 116.792183 124.302963 117.521561 124.93409 119.21875 124.49041 C 119.21875 124.174843 119.21875 123.859268 119.21875 123.543716 C 119.444366 123.875366 119.756866 124.085838 120.15625 124.174843 C 120.209999 124.487869 120.105629 124.698051 119.84375 124.805969 C 119.864059 124.667755 119.81218 124.562363 119.6875 124.49041 C 118.912498 125.538078 117.922813 126.274612 116.71875 126.699364 C 116.618431 126.210861 116.305931 126.000381 115.78125 126.068222 C 115.735626 125.297623 115.995941 125.087135 116.5625 125.437096 C 116.713753 124.902847 116.557503 124.481888 116.09375 124.174843 C 116.510315 124.174843 116.71875 123.964355 116.71875 123.543716 C 116.71875 123.228149 116.71875 122.912582 116.71875 122.597015 Z" opacity="0.961" stroke="none" fill-rule="evenodd" fill="#5c3f39" id="path88"></path>
    </g>
    <g id="g89">
        <path d="M 117.03125 122.597015 C 117.252502 123.189651 117.616875 123.715698 118.125 124.174843 C 118.541565 123.964355 118.854065 123.648788 119.0625 123.228149 C 119.187187 123.300079 119.239067 123.405495 119.21875 123.543716 C 119.21875 123.859268 119.21875 124.174843 119.21875 124.49041 C 117.521561 124.93409 116.792183 124.302963 117.03125 122.597015 Z" opacity="0.978" stroke="none" fill-rule="evenodd" fill="#ecaa97" id="path89"></path>
    </g>
    <g id="g90">
        <path d="M 116.09375 124.174843 C 116.557503 124.481888 116.713753 124.902847 116.5625 125.437096 C 115.995941 125.087135 115.735626 125.297623 115.78125 126.068222 C 116.305931 126.000381 116.618431 126.210861 116.71875 126.699364 C 115.959694 126.672539 115.334694 126.356972 114.84375 125.75267 C 114.467194 126.269562 114.050629 126.374649 113.59375 126.068222 C 113.489685 126.488884 113.385315 126.909836 113.28125 127.33049 C 112.417816 126.669067 111.688446 125.932533 111.09375 125.121529 C 111.610321 125.071045 112.026871 124.860886 112.34375 124.49041 C 113.58313 124.281494 114.83313 124.176422 116.09375 124.174843 Z" opacity="0.973" stroke="none" fill-rule="evenodd" fill="#eca999" id="path90"></path>
    </g>
    <g id="g91">
        <path d="M 120.46875 121.650314 C 120.918121 122.515602 121.543121 123.252121 122.34375 123.859268 C 122.826569 124.159691 123.347504 124.264778 123.90625 124.174843 C 124.45063 124.634628 125.07563 125.002884 125.78125 125.27932 C 126.370934 125.525459 126.891869 125.472763 127.34375 125.121529 C 127.820938 125.144569 128.133438 124.93409 128.28125 124.49041 C 128.985626 124.293488 129.506561 123.872841 129.84375 123.228149 C 130.288132 122.778473 130.809067 122.462906 131.40625 122.281456 C 131.540619 123.342377 131.228119 124.236374 130.46875 124.963753 C 127.931564 126.707573 125.327499 126.812653 122.65625 125.27932 C 121.630936 123.979507 120.380936 122.980431 118.90625 122.281456 C 118.56781 122.008492 118.515938 121.692932 118.75 121.334747 C 119.160622 121.078201 119.525307 120.762642 119.84375 120.388054 C 120.053749 120.845306 120.262184 121.265968 120.46875 121.650314 Z" opacity="0.976" stroke="none" fill-rule="evenodd" fill="#ebece8" id="path91"></path>
    </g>
    <g id="g92">
        <path d="M 123.90625 124.174843 C 125.091248 124.408676 126.23719 124.724243 127.34375 125.121529 C 126.891869 125.472763 126.370934 125.525459 125.78125 125.27932 C 125.075623 125.002884 124.450623 124.634628 123.90625 124.174843 Z" opacity="0.965" stroke="none" fill-rule="evenodd" fill="#403735" id="path92"></path>
    </g>
    <g id="g93">
        <path d="M 128.28125 124.49041 C 128.133438 124.93409 127.820938 125.144569 127.34375 125.121529 C 126.23719 124.724243 125.091248 124.408676 123.90625 124.174843 C 123.929375 123.5718 124.241875 123.203529 124.84375 123.070358 C 126.09375 122.859886 127.34375 122.859886 128.59375 123.070358 C 128.736557 123.201004 128.840927 123.35878 128.90625 123.543716 C 128.124374 123.581894 127.291252 123.63459 126.40625 123.701485 C 126.263435 123.832138 126.159065 123.989914 126.09375 124.174843 C 126.753433 124.600212 127.326569 124.495148 127.8125 123.859268 C 128.03656 124.030945 128.19281 124.241432 128.28125 124.49041 Z" opacity="0.976" stroke="none" fill-rule="evenodd" fill="#dd9b8a" id="path93"></path>
    </g>
    <g id="g94">
        <path d="M 119.84375 124.805969 C 119.517815 125.612549 118.99688 126.296387 118.28125 126.857147 C 115.043442 128.921249 112.022812 128.658386 109.21875 126.068222 C 109.622185 126.143021 109.934685 126.037941 110.15625 125.75267 C 111.276253 126.252831 112.318123 126.883972 113.28125 127.646057 C 114.497498 127.445358 115.643127 127.129799 116.71875 126.699364 C 117.922813 126.274612 118.912498 125.538078 119.6875 124.49041 C 119.812187 124.562363 119.864067 124.667755 119.84375 124.805969 Z" opacity="0.978" stroke="none" fill-rule="evenodd" fill="#e1e3e0" id="path94"></path>
    </g>
    <g id="g95">
        <path d="M 111.09375 125.121529 C 111.688446 125.932533 112.417816 126.669067 113.28125 127.33049 C 113.385315 126.909836 113.489685 126.488884 113.59375 126.068222 C 114.050629 126.374649 114.467194 126.269562 114.84375 125.75267 C 115.334694 126.356972 115.959694 126.672539 116.71875 126.699364 C 115.643127 127.129799 114.497498 127.445358 113.28125 127.646057 C 112.318123 126.883972 111.276253 126.252831 110.15625 125.75267 C 110.40313 125.468338 110.71563 125.257858 111.09375 125.121529 Z" opacity="0.933" stroke="none" fill-rule="evenodd" fill="#3f2c29" id="path95"></path>
    </g>
</svg>
