<svg xmlns="http://www.w3.org/2000/svg" viewBox="0 0 200 118" height="118" width="200">
    <g id="Group">
        <path d="M 129.125 33.84008 C 129.346497 33.519043 129.596497 33.519043 129.875 33.84008 C 129.643753 34.107285 129.393753 34.107285 129.125 33.84008 Z" opacity="0.064" stroke="none" fill-rule="evenodd" fill="#d897fc" id="Path"></path>
    </g>
    <g id="g1">
        <path d="M 130.625 38.87207 C 130.458252 38.536682 130.458252 38.536682 130.625 38.87207 Z" opacity="0.004" stroke="none" fill-rule="evenodd" fill="#000000" id="path1"></path>
    </g>
    <g id="g2">
        <path d="M 130.625 38.87207 C 130.873001 38.828796 131.039505 38.912827 131.125 39.123665 C 130.876999 39.166939 130.710495 39.082909 130.625 38.87207 Z" opacity="0.004" stroke="none" fill-rule="evenodd" fill="#040023" id="path2"></path>
    </g>
    <g id="g3">
        <path d="M 131.125 39.123665 C 131.458252 39.291481 131.458252 39.291481 131.125 39.123665 Z" opacity="0.004" stroke="none" fill-rule="evenodd" fill="#000034" id="path3"></path>
    </g>
    <g id="g4">
        <path d="M 132.625 41.639656 C 132.458252 41.807472 132.291748 41.975044 132.125 42.14286 C 132.122757 41.687973 132.247757 41.268547 132.5 40.884865 C 132.663498 40.583954 132.788498 40.583954 132.875 40.884865 C 132.718246 41.115578 132.63475 41.367172 132.625 41.639656 Z" opacity="0.004" stroke="none" fill-rule="evenodd" fill="#000000" id="path4"></path>
    </g>
    <g id="g5">
        <path d="M 132.625 41.639656 C 132.625 42.059074 132.625 42.478241 132.625 42.897652 C 132.238007 42.816895 132.071243 42.565292 132.125 42.14286 C 132.291748 41.975044 132.458252 41.807472 132.625 41.639656 Z" opacity="0.004" stroke="none" fill-rule="evenodd" fill="#a000b4" id="path5"></path>
    </g>
    <g id="g6">
        <path d="M 131.625 43.400848 C 131.888 43.363373 132.138 43.405128 132.375 43.526649 C 132.150253 43.942291 131.900253 44.319687 131.625 44.658852 C 131.625 44.239433 131.625 43.820267 131.625 43.400848 Z" opacity="0.004" stroke="none" fill-rule="evenodd" fill="#e0ffed" id="path6"></path>
    </g>
    <g id="g7">
        <path d="M 132.125 42.14286 C 132.071243 42.565292 132.238007 42.816895 132.625 42.897652 C 132.625 43.31707 132.625 43.736237 132.625 44.155655 C 132.459747 44.462105 132.292999 44.797478 132.125 45.162048 C 131.954254 45.070717 131.787506 44.986938 131.625 44.910446 C 131.625 44.82666 131.625 44.742638 131.625 44.658852 C 131.900253 44.319687 132.150253 43.942291 132.375 43.526649 C 132.138 43.405128 131.888 43.363373 131.625 43.400848 C 131.699005 42.92205 131.865753 42.502647 132.125 42.14286 Z" opacity="0.008" stroke="none" fill-rule="evenodd" fill="#5f1363" id="path7"></path>
    </g>
    <g id="g8">
        <path d="M 132.625 44.155655 C 132.684753 44.650536 132.601501 45.111977 132.375 45.539444 C 131.877747 45.670021 131.627747 45.460442 131.625 44.910446 C 131.787506 44.986938 131.954254 45.070717 132.125 45.162048 C 132.292999 44.797478 132.459747 44.462105 132.625 44.155655 Z" opacity="0.004" stroke="none" fill-rule="evenodd" fill="#7c0ac5" id="path8"></path>
    </g>
    <g id="g9">
        <path d="M 122.125 48.684433 C 122.458252 48.852249 122.458252 48.852249 122.125 48.684433 Z" opacity="0.004" stroke="none" fill-rule="evenodd" fill="#000000" id="path9"></path>
    </g>
    <g id="g10">
        <path d="M 124.875 54.974411 C 125.334251 55.009388 125.417503 55.177204 125.125 55.477612 C 124.925499 55.362633 124.842247 55.194817 124.875 54.974411 Z" opacity="0.006" stroke="none" fill-rule="evenodd" fill="#000001" id="path10"></path>
    </g>
    <g id="g11">
        <path d="M 123.375 59.503197 C 123.051247 59.032207 123.093002 58.613041 123.5 58.245205 C 123.695 58.719967 123.653252 59.139385 123.375 59.503197 Z" opacity="0.004" stroke="none" fill-rule="evenodd" fill="#891cbe" id="path11"></path>
    </g>
    <g id="g12">
        <path d="M 124.375 61.012794 C 124.443748 60.42355 124.652 60.42355 125 61.012794 C 125.166748 61.432213 125.166748 61.851372 125 62.27079 C 124.97525 61.729095 124.766747 61.309933 124.375 61.012794 Z" opacity="0.004" stroke="none" fill-rule="evenodd" fill="#450e97" id="path12"></path>
    </g>
    <g id="g13">
        <path d="M 123.625 69.063965 C 123.899498 69.340988 123.941254 69.676361 123.75 70.070358 C 123.307999 69.772972 123.266251 69.437584 123.625 69.063965 Z" opacity="0.031" stroke="none" fill-rule="evenodd" fill="#090909" id="path13"></path>
    </g>
    <g id="g14">
        <path d="M 123.375 59.503197 C 123.618752 60.080616 123.952003 60.583817 124.375 61.012794 C 125.334503 63.439972 124.959503 65.620583 123.25 67.554375 C 121.389252 69.762405 119.222504 71.607628 116.75 73.089546 C 116.33725 73.920334 115.920502 74.759155 115.5 75.605545 C 114.207001 76.990601 112.832001 78.290611 111.375 79.505325 C 109.8535 84.230103 106.770248 87.668716 102.125 89.820892 C 102.748497 90.430519 102.748497 91.017502 102.125 91.582092 C 101.658249 91.760979 101.283249 91.63517 101 91.204689 C 100.751251 91.865395 100.667999 92.536407 100.75 93.217484 C 101.23925 93.743073 101.780998 93.952911 102.375 93.846481 C 102.878998 94.731606 103.628998 95.318596 104.625 95.607681 C 105.108253 96.28096 105.400002 96.993736 105.5 97.746269 C 104.184502 99.979965 102.225998 100.860558 99.625 100.388062 C 98.387497 99.954811 97.346001 99.242027 96.5 98.249474 C 95.602249 100.446434 93.977249 101.78846 91.625 102.275055 C 89.2565 101.355713 86.964752 100.265533 84.75 99.004265 C 84.406754 98.452003 84.323502 97.864769 84.5 97.243073 C 85.804253 95.80619 86.512749 94.170792 86.625 92.336891 C 85.95575 91.162926 85.122253 90.156532 84.125 89.317696 C 81.050247 88.020203 78.800247 85.965393 77.375 83.153519 C 75.152252 82.215561 73.444 80.705963 72.25 78.624741 C 69.37825 76.829819 68.50325 74.35585 69.625 71.202553 C 68.830254 69.97802 68.330254 68.636002 68.125 67.176971 C 68.235001 66.27298 68.443253 65.39238 68.75 64.535179 C 68.875 64.074005 69.166748 63.780384 69.625 63.654583 C 68.842751 62.345013 68.426247 60.919201 68.375 59.377399 C 68.7855 56.948208 70.0355 56.361225 72.125 57.616203 C 73.333252 58.496803 74.541748 59.377399 75.75 60.257996 C 76.818497 59.182659 78.026749 58.302063 79.375 57.616203 C 81.942749 56.613583 84.526001 55.649204 87.125 54.722813 C 85.891998 49.280479 85.058746 43.787315 84.625 38.243073 C 84.439247 34.837418 85.356003 31.776466 87.375 29.0597 C 86.275002 27.99543 85.316498 26.82122 84.5 25.537315 C 83.815247 23.662544 84.357002 22.278748 86.125 21.385933 C 87.692253 21.185402 89.234001 21.311203 90.75 21.763329 C 91.222 21.688858 91.680496 21.563057 92.125 21.385933 C 92.382004 16.067856 94.882004 14.642113 99.625 17.108742 C 100.834999 18.262047 101.959999 19.478104 103 20.756927 C 105.402748 18.691124 107.361 19.026581 108.875 21.763329 C 108.622002 23.365555 108.122002 24.875153 107.375 26.292107 C 109.893501 27.862335 111.851997 29.958916 113.25 32.582092 C 115.026253 33.893173 115.943001 35.654366 116 37.865669 C 115.575996 38.855209 115.242752 39.861603 115 40.884865 C 114.951752 42.205757 114.826752 43.505768 114.625 44.784645 C 114.619499 47.061371 114.744499 49.535347 115 52.206825 C 116.47525 53.942604 118.183502 55.410183 120.125 56.60981 C 121.263252 57.54752 122.346497 58.51215 123.375 59.503197 Z M 96.125 88.940292 C 97.38475 91.613029 96.843002 93.877426 94.5 95.733475 C 94.377502 96.058792 94.335747 96.394424 94.375 96.739868 C 93.793999 96.69912 93.377251 96.405754 93.125 95.859276 C 92.804001 95.687187 92.512253 95.729195 92.25 95.985069 C 91.765503 95.329414 91.140503 94.868233 90.375 94.601273 C 90.708252 93.846481 90.708252 93.091682 90.375 92.336891 C 90.772499 92.073723 91.147499 91.780098 91.5 91.456291 C 91.654251 91.217522 91.612747 91.007942 91.375 90.827286 C 93.029999 90.479828 94.613251 89.85083 96.125 88.940292 Z" opacity="0.91" stroke="none" fill-rule="evenodd" fill="#161215" id="path14"></path>
    </g>
    <g id="g15">
        <path d="M 87.125 91.204689 C 87.886497 91.778587 88.719749 91.862625 89.625 91.456291 C 89.818001 92.525589 89.943001 93.615761 90 94.727081 C 90.75 95.314056 91.5 95.901291 92.25 96.488266 C 92.37075 96.726784 92.412247 96.978386 92.375 97.243073 C 90.531502 96.867935 89.031502 97.371132 87.875 98.752663 C 86.630997 98.931305 85.964249 98.34407 85.875 96.99147 C 85.724998 95.850975 86.224998 95.305756 87.375 95.356079 C 87.160751 95.182724 86.994247 94.973137 86.875 94.727081 C 87.098999 93.516136 87.182503 92.341919 87.125 91.204689 Z" stroke="none" fill-rule="evenodd" fill="#f2b5a6" id="path15"></path>
    </g>
    <g id="g16">
        <path d="M 98.375 96.99147 C 96.730499 97.046066 96.105499 96.207489 96.5 94.475479 C 97.251999 93.329941 97.543503 92.071953 97.375 90.701492 C 98.569252 90.68766 99.569252 91.107071 100.375 91.959488 C 99.85125 93.099487 100.184753 93.854286 101.375 94.223885 C 101.598251 94.874016 101.681503 95.545029 101.625 96.236671 C 100.870499 96.19516 100.120499 96.237175 99.375 96.362473 C 98.919998 96.412796 98.586746 96.622627 98.375 96.99147 Z" stroke="none" fill-rule="evenodd" fill="#f4b5a6" id="path16"></path>
    </g>
    <g id="g17">
        <path d="M 89.625 91.456291 C 88.719749 91.862625 87.886497 91.778587 87.125 91.204689 C 87.291748 90.198296 87.458252 90.198296 87.625 91.204689 C 88.205254 91.272873 88.705254 91.105064 89.125 90.701492 C 89.356247 90.917114 89.523003 91.168709 89.625 91.456291 Z" stroke="none" fill-rule="evenodd" fill="#391f44" id="path17"></path>
    </g>
    <g id="g18">
        <path d="M 114.375 54.471218 C 115.523499 55.922691 116.73175 57.348507 118 58.748402 C 118.732002 61.460896 119.14875 64.228485 119.25 67.051178 C 119.507248 67.900322 120.049004 68.193932 120.875 67.931763 C 122.623497 66.632515 123.623497 64.91333 123.875 62.773987 C 123.916252 63.533318 123.874496 64.288109 123.75 65.038376 C 122.179001 67.877426 120.012253 70.141815 117.25 71.831558 C 117.745003 69.704033 118.286499 67.565437 118.875 65.415787 C 118.567497 64.723129 118.317497 64.010094 118.125 63.277187 C 118.393753 62.537987 118.435249 61.783192 118.25 61.012794 C 117.558998 60.511105 117.350754 59.882107 117.625 59.125801 C 116.857498 57.848682 115.899246 56.716488 114.75 55.72921 C 114.552254 55.41597 114.427254 55.080585 114.375 54.722813 C 114.375 54.639034 114.375 54.554996 114.375 54.471218 Z" stroke="none" fill-rule="evenodd" fill="#7c38a0" id="path18"></path>
    </g>
    <g id="g19">
        <path d="M 73.375 67.30278 C 75.745247 70.086716 75.245247 70.715721 71.875 69.189774 C 71.24675 68.414337 70.580254 67.869125 69.875 67.554375 C 70.369499 69.976265 71.453003 72.072845 73.125 73.844345 C 69.907501 71.812683 68.532501 68.877274 69 65.038376 C 69.049004 64.58902 69.257248 64.253647 69.625 64.031982 C 70.562248 65.354134 71.6455 66.570114 72.875 67.680168 C 73.204002 67.813019 73.37075 67.687218 73.375 67.30278 Z" stroke="none" fill-rule="evenodd" fill="#7c38a0" id="path19"></path>
    </g>
    <g id="g20">
        <path d="M 75.875 62.773987 C 75.450249 62.814243 75.033501 62.772476 74.625 62.648186 C 72.997749 61.872002 71.497749 60.907623 70.125 59.754795 C 69.847748 59.480556 69.597748 59.480556 69.375 59.754795 C 69.606499 60.892277 69.981499 61.982708 70.5 63.025589 C 71.617996 64.357056 72.576248 65.78286 73.375 67.30278 C 70.315247 65.084419 68.940247 62.065231 69.25 58.245205 C 69.444252 57.813709 69.777496 57.562111 70.25 57.490406 C 71.04425 57.588779 71.752502 57.882145 72.375 58.371002 C 73.263 59.180897 74.221252 59.893681 75.25 60.509594 C 75.21125 61.091042 75.21125 61.67802 75.25 62.27079 C 75.516747 62.444641 75.808502 62.570442 76.125 62.648186 C 76.068001 62.748577 75.984497 62.79034 75.875 62.773987 Z" stroke="none" fill-rule="evenodd" fill="#7b379f" id="path20"></path>
    </g>
    <g id="g21">
        <path d="M 107.125 52.961617 C 108.377747 54.181625 109.502747 55.523655 110.5 56.987206 C 110.666748 57.993603 110.666748 59 110.5 60.006397 C 110.266251 60.785095 109.807747 61.37233 109.125 61.76759 C 107.654251 62.183231 106.445747 61.764065 105.5 60.509594 C 105.302254 60.196354 105.177254 59.86097 105.125 59.503197 C 105.625 60.125153 106.208252 60.670116 106.875 61.138596 C 108.530998 61.968113 109.655998 61.50668 110.25 59.754795 C 110.44175 58.724751 110.358498 57.718353 110 56.735607 C 109.342499 55.8218 108.592499 54.983219 107.75 54.219616 C 107.476501 53.822594 107.267998 53.403183 107.125 52.961617 Z" opacity="0.961" stroke="none" fill-rule="evenodd" fill="#241722" id="path21"></path>
    </g>
    <g id="g22">
        <path d="M 110.375 50.194031 C 109.036003 50.699493 107.619247 50.993111 106.125 51.074623 C 106.623497 51.617584 106.957001 52.246582 107.125 52.961617 C 106.625748 52.455154 106.209 51.868172 105.875 51.200424 C 105.2285 50.953865 104.561752 50.870079 103.875 50.948822 C 104.1315 52.869286 104.339752 54.798294 104.5 56.735607 C 104.569748 57.479588 104.778252 58.150349 105.125 58.748402 C 105.125 59 105.125 59.251598 105.125 59.503197 C 104.649002 58.739849 104.315498 57.901268 104.125 56.987206 C 104.03875 54.951267 103.78875 52.938477 103.375 50.948822 C 103.052254 51.008461 102.802254 50.924675 102.625 50.697227 C 105.225502 50.758118 107.808746 50.590302 110.375 50.194031 Z" opacity="0.925" stroke="none" fill-rule="evenodd" fill="#151314" id="path22"></path>
    </g>
    <g id="g23">
        <path d="M 89.375 54.722813 C 90.960503 54.681049 92.543747 54.722813 94.125 54.848614 C 96.389748 55.190033 96.931503 56.322231 95.75 58.245205 C 93.971748 59.427971 92.055 60.266548 90 60.761192 C 89.145248 60.687473 88.520248 60.268311 88.125 59.503197 C 87.911499 59.760334 87.661499 59.969913 87.375 60.132198 C 91.89875 61.747215 95.27375 64.724396 97.5 69.063965 C 97.936249 70.588402 97.936249 72.097992 97.5 73.592743 C 97.172752 74.215714 96.7145 74.71891 96.125 75.102348 C 96.003502 73.935432 95.544998 72.929031 94.75 72.08316 C 96.233002 75.136559 95.316254 76.981789 92 77.618332 C 91.708252 77.534554 91.416748 77.450523 91.125 77.36673 C 91.790749 76.357574 91.790749 75.351181 91.125 74.347549 C 91.398003 76.639114 90.356247 77.980896 88 78.373138 C 85.013 77.718224 83.513 75.872993 83.5 72.837952 C 83.788002 71.678833 84.371246 71.511017 85.25 72.334755 C 85.636749 73.498657 85.970001 74.672867 86.25 75.857147 C 86.516251 76.334175 86.724503 76.37619 86.875 75.982941 C 86.19175 74.596878 86.358498 74.5131 87.375 75.731339 C 87.583 75.904434 87.749496 75.862419 87.875 75.605545 C 87.023247 74.790863 86.314751 73.868256 85.75 72.837952 C 85.666748 71.999374 85.583252 71.160545 85.5 70.32196 C 85.291748 70.825165 85.083252 71.328362 84.875 71.831558 C 81.9655 70.165459 80.007248 67.733261 79 64.535179 C 79.013252 65.148071 78.971748 65.735062 78.875 66.296371 C 78.208 65.794434 77.791252 65.123421 77.625 64.283585 C 77.486504 65.271866 76.986504 65.607239 76.125 65.289978 C 75.795502 64.017395 76.128754 62.927208 77.125 62.019192 C 76.666252 61.845081 76.208 61.929119 75.75 62.27079 C 75.591248 61.733624 75.674751 61.230431 76 60.761192 C 77.429749 59.222664 79.138252 58.090469 81.125 57.364605 C 83.867752 56.361984 86.617752 55.481388 89.375 54.722813 Z" stroke="none" fill-rule="evenodd" fill="#7c38a0" id="path23"></path>
    </g>
    <g id="g24">
        <path d="M 88.375 55.477612 C 89.793999 55.435848 91.210747 55.477867 92.625 55.603413 C 93.868752 55.993893 93.9105 56.371292 92.75 56.735607 C 92.418503 56.671448 92.168503 56.503635 92 56.23241 C 91.306503 56.610565 90.598251 56.987965 89.875 57.364605 C 88.057503 57.507511 86.307503 57.926678 84.625 58.622601 C 83.58725 59.395515 82.420502 59.898712 81.125 60.132198 C 80.492752 60.642693 79.825996 61.10387 79.125 61.515991 C 78.889503 61.488819 78.681252 61.405037 78.5 61.264393 C 78.2855 60.018978 78.743752 59.096363 79.875 58.496803 C 82.658752 57.228237 85.491997 56.22184 88.375 55.477612 Z" stroke="none" fill-rule="evenodd" fill="#8f58ac" id="path24"></path>
    </g>
    <g id="g25">
        <path d="M 114.625 52.710022 C 115.567253 53.784599 116.567253 54.833015 117.625 55.855011 C 119.477997 57.047844 121.186249 58.431637 122.75 60.006397 C 123.403999 60.81881 123.778999 61.741425 123.875 62.773987 C 123.623497 64.91333 122.623497 66.632515 120.875 67.931763 C 120.049004 68.193932 119.507248 67.900322 119.25 67.051178 C 119.14875 64.228485 118.732002 61.460896 118 58.748402 C 116.73175 57.348507 115.523499 55.922691 114.375 54.471218 C 114.2995 53.82737 114.383003 53.240143 114.625 52.710022 Z" stroke="none" fill-rule="evenodd" fill="#8f57ac" id="path25"></path>
    </g>
    <g id="g26">
        <path d="M 107.125 52.961617 C 107.267998 53.403183 107.476501 53.822594 107.75 54.219616 C 108.592499 54.983219 109.342499 55.8218 110 56.735607 C 110.358498 57.718353 110.44175 58.724751 110.25 59.754795 C 109.655998 61.50668 108.530998 61.968113 106.875 61.138596 C 106.208252 60.670116 105.625 60.125153 105.125 59.503197 C 105.125 59.251598 105.125 59 105.125 58.748402 C 104.778252 58.150349 104.569748 57.479588 104.5 56.735607 C 104.339752 54.798294 104.1315 52.869286 103.875 50.948822 C 104.561752 50.870079 105.2285 50.953865 105.875 51.200424 C 106.209 51.868172 106.625748 52.455154 107.125 52.961617 Z" stroke="none" fill-rule="evenodd" fill="#ec3cac" id="path26"></path>
    </g>
    <g id="g27">
        <path d="M 105.125 58.748402 C 104.903252 56.573074 104.736504 54.392464 104.625 52.206825 C 105.262497 52.222176 105.637497 52.557549 105.75 53.213219 C 106.592247 55.452953 107.467247 57.675331 108.375 59.880596 C 108.322746 60.351341 108.072746 60.644955 107.625 60.761192 C 106.697746 60.158611 105.864502 59.48785 105.125 58.748402 Z" stroke="none" fill-rule="evenodd" fill="#fe48d7" id="path27"></path>
    </g>
    <g id="g28">
        <path d="M 96.625 49.439232 C 98.522499 50.022194 100.439247 50.441605 102.375 50.697227 C 102.458252 50.697227 102.541748 50.697227 102.625 50.697227 C 102.802254 50.924675 103.052254 51.008461 103.375 50.948822 C 103.78875 52.938477 104.03875 54.951267 104.125 56.987206 C 103.885498 56.873234 103.677002 56.705669 103.5 56.484009 C 103.416748 55.72921 103.333252 54.974411 103.25 54.219616 C 103.016747 53.214478 102.599998 52.291862 102 51.452026 C 101.171997 51.080666 100.296997 50.870834 99.375 50.823029 C 98.372002 50.423988 97.455254 49.962807 96.625 49.439232 Z" stroke="none" fill-rule="evenodd" fill="#79399c" id="path28"></path>
    </g>
    <g id="g29">
        <path d="M 114.125 44.407249 C 113.972748 47.238998 114.139503 50.006592 114.625 52.710022 C 114.383003 53.240143 114.2995 53.82737 114.375 54.471218 C 114.375 54.554996 114.375 54.639034 114.375 54.722813 C 114.208252 54.0518 114.041748 53.381035 113.875 52.710022 C 113.792999 49.897392 113.876251 47.129799 114.125 44.407249 Z" stroke="none" fill-rule="evenodd" fill="#4e2662" id="path29"></path>
    </g>
    <g id="g30">
        <path d="M 91.625 46.420044 C 94.795998 47.973167 98.12925 49.105362 101.625 49.816635 C 105.425247 50.325363 109.092003 49.864182 112.625 48.432838 C 112.291748 48.852249 111.958252 49.271416 111.625 49.690834 C 111.305 50.050873 110.888252 50.218689 110.375 50.194031 C 107.808746 50.590302 105.225502 50.758118 102.625 50.697227 C 102.541748 50.697227 102.458252 50.697227 102.375 50.697227 C 100.172997 50.005325 97.922997 49.418098 95.625 48.936035 C 94.207497 48.223251 92.874252 47.384666 91.625 46.420044 Z" stroke="none" fill-rule="evenodd" fill="#9f4d3c" id="path30"></path>
    </g>
    <g id="g31">
        <path d="M 91.625 45.916847 C 96.94175 48.800423 102.608253 49.765053 108.625 48.810234 C 108.93425 48.751862 109.18425 48.62606 109.375 48.432838 C 110.054497 48.296219 110.721252 48.128654 111.375 47.929642 C 111.762001 47.848877 111.928749 47.597282 111.875 47.174835 C 109.932251 47.490097 107.973999 47.657661 106 47.67804 C 103.195251 47.539909 100.403748 47.288307 97.625 46.923241 C 97.541748 46.923241 97.458252 46.923241 97.375 46.923241 C 97.106499 46.474388 96.690002 46.180771 96.125 46.042648 C 96.622002 45.997353 97.122002 46.039124 97.625 46.168442 C 98.779251 46.416771 99.945999 46.584587 101.125 46.671638 C 104.515251 47.045013 107.931999 46.960983 111.375 46.420044 C 112.498253 46.590378 112.915001 47.261383 112.625 48.432838 C 109.092003 49.864182 105.425247 50.325363 101.625 49.816635 C 98.12925 49.105362 94.795998 47.973167 91.625 46.420044 C 91.373497 46.194611 91.373497 46.027039 91.625 45.916847 Z" stroke="none" fill-rule="evenodd" fill="#e88666" id="path31"></path>
    </g>
    <g id="g32">
        <path d="M 95.625 48.936035 C 97.922997 49.418098 100.172997 50.005325 102.375 50.697227 C 100.439247 50.441605 98.522499 50.022194 96.625 49.439232 C 96.251251 49.3162 95.917747 49.148636 95.625 48.936035 Z" opacity="0.949" stroke="none" fill-rule="evenodd" fill="#2a1c1e" id="path32"></path>
    </g>
    <g id="g33">
        <path d="M 114.875 40.130066 C 114.636749 40.660934 114.220253 40.954552 113.625 41.010658 C 112.139748 41.38504 110.639748 41.678658 109.125 41.891258 C 109.416748 41.975044 109.708252 42.059074 110 42.14286 C 111.367996 41.799927 112.742996 41.590088 114.125 41.513855 C 113.791748 41.933273 113.458252 42.35244 113.125 42.771858 C 111.971497 43.160835 110.804749 43.496208 109.625 43.778252 C 111.387253 44.252769 112.845497 43.79158 114 42.394455 C 114.124252 43.060188 114.166 43.731201 114.125 44.407249 C 113.876251 47.129799 113.792999 49.897392 113.875 52.710022 C 113.808502 53.742836 113.933502 54.749229 114.25 55.72921 C 115.074501 56.811089 115.991249 57.817482 117 58.748402 C 117.171997 58.957733 117.130249 59.125298 116.875 59.251598 C 116.597748 58.977356 116.347748 58.977356 116.125 59.251598 C 117.285751 60.039352 117.827499 61.129536 117.75 62.522388 C 117.460999 62.146751 117.252502 62.188766 117.125 62.648186 C 118.086502 63.885048 118.336502 65.268845 117.875 66.799576 C 117.708252 66.63176 117.541748 66.464188 117.375 66.296371 C 117.291748 66.422173 117.208252 66.547974 117.125 66.673775 C 117.626503 67.668839 117.668251 68.717262 117.25 69.818756 C 116.625252 71.683609 115.792 73.444809 114.75 75.102348 C 113.381752 76.479347 112.006752 77.863144 110.625 79.253723 C 110.73925 79.357895 110.822746 79.483688 110.875 79.631134 C 108.854248 84.055008 105.687752 87.367546 101.375 89.569298 C 101.901749 89.887314 102.151749 90.348495 102.125 90.953094 C 101.628998 90.982536 101.212502 90.814713 100.875 90.449898 C 100.570251 90.641861 100.320251 90.893463 100.125 91.204689 C 99.892754 90.90554 99.809502 90.57016 99.875 90.198296 C 99.464249 90.193268 99.130997 90.361084 98.875 90.701492 C 98.537003 90.445358 98.287003 90.109978 98.125 89.695099 C 97.285248 90.43203 96.8685 90.22245 96.875 89.066101 C 96.958252 88.772484 97.041748 88.479111 97.125 88.185501 C 98.370003 87.436493 99.286751 86.513878 99.875 85.417908 C 97.743752 87.351448 95.327003 88.819283 92.625 89.820892 C 91.875 89.904678 91.125 89.988716 90.375 90.072495 C 90.901749 90.390518 91.151749 90.851692 91.125 91.456291 C 90.625 91.456291 90.125 91.456291 89.625 91.456291 C 89.523003 91.168709 89.356247 90.917114 89.125 90.701492 C 88.705254 91.105064 88.205254 91.272873 87.625 91.204689 C 87.458252 90.198296 87.291748 90.198296 87.125 91.204689 C 86.791748 91.204689 86.458252 91.204689 86.125 91.204689 C 86.105247 90.844902 86.188499 90.50927 86.375 90.198296 C 85.829002 90.351265 85.329002 90.183449 84.875 89.695099 C 84.994247 89.449028 85.160751 89.239449 85.375 89.066101 C 81.996498 87.972649 79.496498 85.834061 77.875 82.650322 C 75.683998 81.916908 74.058998 80.575134 73 78.624741 C 74.051247 79.328201 75.176247 79.663834 76.375 79.631134 C 75.052002 79.087173 73.71875 78.541962 72.375 77.995735 C 69.962997 76.462494 69.171249 74.323898 70 71.579964 C 70.857002 72.904633 71.982002 73.911026 73.375 74.599152 C 73.641502 74.899048 73.849747 74.815277 74 74.347549 C 74.408752 74.656013 74.783752 74.991394 75.125 75.353951 C 73.743248 75.777634 72.493248 75.526031 71.375 74.599152 C 71.291748 74.68293 71.208252 74.76696 71.125 74.850754 C 71.56675 75.673477 72.150002 76.386253 72.875 76.989342 C 74.758499 77.81031 76.425247 78.942505 77.875 80.385925 C 77.208252 80.553741 76.541748 80.721313 75.875 80.889122 C 78.207253 82.066612 80.290497 83.61821 82.125 85.543709 C 82.577751 85.323563 83.077751 85.239525 83.625 85.292114 C 83.89325 85.606606 83.89325 85.942245 83.625 86.298508 C 84.921501 87.419632 86.421501 88.132416 88.125 88.437096 C 88.112503 87.911263 88.362503 87.575874 88.875 87.430702 C 89.422501 87.74469 89.505753 88.163864 89.125 88.688698 C 89.208252 88.772484 89.291748 88.856514 89.375 88.940292 C 89.596497 88.732727 89.679749 88.481125 89.625 88.185501 C 91.934998 88.358856 94.101501 87.897423 96.125 86.801704 C 98.460251 85.459427 100.710251 83.991844 102.875 82.398727 C 103.125 82.482506 103.291748 82.650322 103.375 82.901924 C 102.291748 84.57933 101.208252 86.256493 100.125 87.933899 C 100.423248 88.407921 100.839752 88.533714 101.375 88.311302 C 105.5355 86.022751 108.1605 82.542381 109.25 77.869934 C 112.363503 75.933121 114.196747 73.249565 114.75 69.818756 C 114 70.070358 113.25 70.32196 112.5 70.573563 C 112.151253 70.503113 111.859497 70.335297 111.625 70.070358 C 112.777496 69.670319 113.902496 69.25116 115 68.812363 C 115.19725 67.368942 115.113998 65.943375 114.75 64.535179 C 114.277748 64.384979 113.819504 64.300941 113.375 64.283585 C 113.683746 63.633194 114.100502 63.087982 114.625 62.648186 C 114.205002 61.637516 113.913254 60.5891 113.75 59.503197 C 113.487747 59.247322 113.195999 59.205303 112.875 59.377399 C 111.836746 60.276863 110.753502 61.115696 109.625 61.893391 C 109.390747 62.067497 109.224251 62.025478 109.125 61.76759 C 109.807747 61.37233 110.266251 60.785095 110.5 60.006397 C 110.666748 59 110.666748 57.993603 110.5 56.987206 C 109.502747 55.523655 108.377747 54.181625 107.125 52.961617 C 106.957001 52.246582 106.623497 51.617584 106.125 51.074623 C 107.619247 50.993111 109.036003 50.699493 110.375 50.194031 C 110.888252 50.218689 111.305 50.050873 111.625 49.690834 C 113.395248 48.848976 113.811996 47.549217 112.875 45.791046 C 111.878502 45.665497 110.878502 45.623474 109.875 45.665245 C 110.445251 45.460442 110.945251 45.124809 111.375 44.658852 C 110.429749 44.41153 109.513252 44.117912 108.625 43.778252 C 109.528 43.491676 110.361504 43.072266 111.125 42.520256 C 109.080498 42.217339 107.080498 41.839935 105.125 41.388062 C 105.594749 41.414978 105.678001 41.289185 105.375 41.010658 C 105.05175 40.887375 104.718246 40.845367 104.375 40.884865 C 104.261749 40.643829 104.095253 40.433998 103.875 40.255867 C 104.560997 40.260635 105.227753 40.428467 105.875 40.759064 C 108.128754 41.226784 110.378754 41.226784 112.625 40.759064 C 113.405998 40.638542 114.11425 40.344933 114.75 39.878464 C 114.849747 39.935829 114.891251 40.019867 114.875 40.130066 Z" stroke="none" fill-rule="evenodd" fill="#7b38a0" id="path33"></path>
    </g>
    <g id="g34">
        <path d="M 88.375 88.185501 C 88.993248 88.297966 89.035004 88.549561 88.5 88.940292 C 88.37925 88.701782 88.337753 88.45018 88.375 88.185501 Z" stroke="none" fill-rule="evenodd" fill="#0e0612" id="path34"></path>
    </g>
    <g id="g35">
        <path d="M 91.375 45.413643 C 97.108253 47.938698 103.108253 48.945099 109.375 48.432838 C 109.18425 48.62606 108.93425 48.751862 108.625 48.810234 C 102.608253 49.765053 96.94175 48.800423 91.625 45.916847 C 91.541748 45.749031 91.458252 45.581459 91.375 45.413643 Z" stroke="none" fill-rule="evenodd" fill="#a34e3e" id="path35"></path>
    </g>
    <g id="g36">
        <path d="M 111.625 32.078888 C 109.494499 31.441086 107.328003 31.441086 105.125 32.078888 C 105.208252 31.911079 105.291748 31.743507 105.375 31.575691 C 106.338753 31.150742 107.005501 30.437958 107.375 29.437103 C 105.66925 27.23938 103.41925 25.981392 100.625 25.663116 C 95.375 25.018944 91.083504 26.738197 87.75 30.8209 C 87.231003 31.886925 86.814247 32.977348 86.5 34.091682 C 85.471748 40.188683 86.138496 46.059242 88.5 51.703629 C 88.904999 52.141655 89.279999 52.603096 89.625 53.087418 C 89.875 53.255234 90.125 53.255234 90.375 53.087418 C 90.588501 52.830284 90.838501 52.620712 91.125 52.45842 C 91.682503 53.930527 92.515747 54.098095 93.625 52.961617 C 94.31575 53.510361 95.06575 53.594391 95.875 53.213219 C 96.6875 54.09935 97.4375 55.021965 98.125 55.980808 C 97.5495 56.889587 97.1745 57.895985 97 59 C 95.411247 60.540287 95.244499 62.217701 96.5 64.031982 C 96.989754 64.345978 97.364754 64.765396 97.625 65.289978 C 97.16275 66.523315 97.371246 67.613495 98.25 68.560768 C 98.582497 70.058289 98.665749 71.567879 98.5 73.089546 C 98.453499 72.4515 98.328499 71.864525 98.125 71.328362 C 98.168503 69.654465 97.709999 68.144875 96.75 66.799576 C 95.14325 64.584503 93.184753 62.739521 90.875 61.264393 C 92.364502 60.580296 93.864502 59.867516 95.375 59.125801 C 97.650253 56.94997 97.317001 55.356342 94.375 54.345417 C 92.305748 54.101868 90.264 54.227665 88.25 54.722813 C 88.013748 54.620918 87.847 54.453098 87.75 54.219616 C 86.363998 48.943077 85.572502 43.575722 85.375 38.117271 C 85.266747 32.252243 87.849998 28.100853 93.125 25.663116 C 101.172752 23.330818 107.672752 25.511398 112.625 32.204689 C 112.29525 32.253754 111.961746 32.211739 111.625 32.078888 Z" stroke="none" fill-rule="evenodd" fill="#7c38a0" id="path36"></path>
    </g>
    <g id="g37">
        <path d="M 109.875 45.665245 C 110.878502 45.623474 111.878502 45.665497 112.875 45.791046 C 113.811996 47.549217 113.395248 48.848976 111.625 49.690834 C 111.958252 49.271416 112.291748 48.852249 112.625 48.432838 C 112.954498 47.661682 112.954498 46.865112 112.625 46.042648 C 108.809502 46.434631 104.97625 46.644218 101.125 46.671638 C 99.945999 46.584587 98.779251 46.416771 97.625 46.168442 C 94.853996 45.020645 92.062248 43.930466 89.25 42.897652 C 88.958252 42.981438 88.666748 43.065468 88.375 43.149254 C 89.077248 44.149857 89.827248 45.114243 90.625 46.042648 C 90.936249 46.241661 91.269501 46.367462 91.625 46.420044 C 92.874252 47.384666 94.207497 48.223251 95.625 48.936035 C 93.741997 48.345024 91.991997 47.464432 90.375 46.294243 C 89.490997 45.488876 88.699249 44.608276 88 43.652451 C 87.791496 42.818657 88.124748 42.399231 89 42.394455 C 92.667 43.822029 96.375252 45.12204 100.125 46.294243 C 102.875504 46.334 105.625504 46.250214 108.375 46.042648 C 108.927002 45.994591 109.427002 45.868797 109.875 45.665245 Z" opacity="0.925" stroke="none" fill-rule="evenodd" fill="#21171a" id="path37"></path>
    </g>
    <g id="g38">
        <path d="M 97.625 46.923241 C 100.403748 47.288307 103.195251 47.539909 106 47.67804 C 107.973999 47.657661 109.932251 47.490097 111.875 47.174835 C 111.928749 47.597282 111.762001 47.848877 111.375 47.929642 C 111.270752 47.772636 111.103996 47.688858 110.875 47.67804 C 106.36525 48.512848 101.948502 48.261246 97.625 46.923241 Z" stroke="none" fill-rule="evenodd" fill="#a85140" id="path38"></path>
    </g>
    <g id="g39">
        <path d="M 97.375 46.923241 C 97.458252 46.923241 97.541748 46.923241 97.625 46.923241 C 101.948502 48.261246 106.36525 48.512848 110.875 47.67804 C 111.103996 47.688858 111.270752 47.772636 111.375 47.929642 C 110.721252 48.128654 110.054497 48.296219 109.375 48.432838 C 103.108253 48.945099 97.108253 47.938698 91.375 45.413643 C 90.974998 45.125816 90.55825 44.832199 90.125 44.533051 C 90.25 44.491035 90.375 44.449265 90.5 44.407249 C 92.682999 45.573914 94.974503 46.41275 97.375 46.923241 Z" opacity="0.916" stroke="none" fill-rule="evenodd" fill="#221a19" id="path39"></path>
    </g>
    <g id="g40">
        <path d="M 112.625 48.432838 C 112.915001 47.261383 112.498253 46.590378 111.375 46.420044 C 107.931999 46.960983 104.515251 47.045013 101.125 46.671638 C 104.97625 46.644218 108.809502 46.434631 112.625 46.042648 C 112.954498 46.865112 112.954498 47.661682 112.625 48.432838 Z" stroke="none" fill-rule="evenodd" fill="#9c4b39" id="path40"></path>
    </g>
    <g id="g41">
        <path d="M 97.625 46.168442 C 97.122002 46.039124 96.622002 45.997353 96.125 46.042648 C 96.690002 46.180771 97.106499 46.474388 97.375 46.923241 C 94.974503 46.41275 92.682999 45.573914 90.5 44.407249 C 90.375 44.449265 90.25 44.491035 90.125 44.533051 C 90.55825 44.832199 90.974998 45.125816 91.375 45.413643 C 91.458252 45.581459 91.541748 45.749031 91.625 45.916847 C 91.373497 46.027039 91.373497 46.194611 91.625 46.420044 C 91.269501 46.367462 90.936249 46.241661 90.625 46.042648 C 89.827248 45.114243 89.077248 44.149857 88.375 43.149254 C 88.666748 43.065468 88.958252 42.981438 89.25 42.897652 C 92.062248 43.930466 94.853996 45.020645 97.625 46.168442 Z" stroke="none" fill-rule="evenodd" fill="#c76b53" id="path41"></path>
    </g>
    <g id="g42">
        <path d="M 105.375 31.575691 C 105.291748 31.743507 105.208252 31.911079 105.125 32.078888 C 104.272003 32.215256 103.522003 32.550636 102.875 33.085289 C 100.149498 30.448776 96.899498 29.568184 93.125 30.443497 C 91.35675 30.82618 89.940002 31.706779 88.875 33.085289 C 88.278503 33.304932 87.778503 33.682327 87.375 34.217484 C 89.327003 33.111961 91.410248 32.189346 93.625 31.44989 C 97.045502 30.642006 99.920502 31.522606 102.25 34.091682 C 102.706749 34.616524 102.706749 35.11972 102.25 35.60128 C 99.735252 34.175713 97.027 33.714539 94.125 34.217484 C 92.906998 34.494995 91.740501 34.914421 90.625 35.475479 C 90.025253 35.97364 89.525253 36.51886 89.125 37.110878 C 88.875 37.194664 88.708252 37.362473 88.625 37.614067 C 89.036499 38.195778 89.536499 38.698975 90.125 39.123665 C 90.125 39.207451 90.125 39.291481 90.125 39.375267 C 90.015503 39.358917 89.931999 39.400681 89.875 39.50106 C 90.399246 40.312477 91.149246 40.815674 92.125 41.010658 C 93.623253 41.151047 95.081497 41.444672 96.5 41.891258 C 97.432503 41.649719 98.390747 41.565941 99.375 41.639656 C 99.446251 42.529816 99.029503 42.990997 98.125 43.023453 C 98.618248 43.147995 99.118248 43.19001 99.625 43.149254 C 98.671997 43.356575 97.671997 43.482376 96.625 43.526649 C 99.820251 44.497826 102.112 43.449669 103.5 40.381668 C 103.704002 40.714523 103.99575 40.882103 104.375 40.884865 C 104.493248 41.238617 104.743248 41.406425 105.125 41.388062 C 107.080498 41.839935 109.080498 42.217339 111.125 42.520256 C 110.361504 43.072266 109.528 43.491676 108.625 43.778252 C 109.513252 44.117912 110.429749 44.41153 111.375 44.658852 C 110.945251 45.124809 110.445251 45.460442 109.875 45.665245 C 109.427002 45.868797 108.927002 45.994591 108.375 46.042648 C 105.625504 46.250214 102.875504 46.334 100.125 46.294243 C 96.375252 45.12204 92.667 43.822029 89 42.394455 C 88.124748 42.399231 87.791496 42.818657 88 43.652451 C 88.699249 44.608276 89.490997 45.488876 90.375 46.294243 C 91.991997 47.464432 93.741997 48.345024 95.625 48.936035 C 95.917747 49.148636 96.251251 49.3162 96.625 49.439232 C 97.455254 49.962807 98.372002 50.423988 99.375 50.823029 C 100.296997 50.870834 101.171997 51.080666 102 51.452026 C 102.599998 52.291862 103.016747 53.214478 103.25 54.219616 C 103.333252 54.974411 103.416748 55.72921 103.5 56.484009 C 103.677002 56.705669 103.885498 56.873234 104.125 56.987206 C 104.315498 57.901268 104.649002 58.739849 105.125 59.503197 C 105.177254 59.86097 105.302254 60.196354 105.5 60.509594 C 106.445747 61.764065 107.654251 62.183231 109.125 61.76759 C 109.224251 62.025478 109.390747 62.067497 109.625 61.893391 C 110.753502 61.115696 111.836746 60.276863 112.875 59.377399 C 113.195999 59.205303 113.487747 59.247322 113.75 59.503197 C 113.913254 60.5891 114.205002 61.637516 114.625 62.648186 C 114.100502 63.087982 113.683746 63.633194 113.375 64.283585 C 113.819504 64.300941 114.277748 64.384979 114.75 64.535179 C 115.113998 65.943375 115.19725 67.368942 115 68.812363 C 113.902496 69.25116 112.777496 69.670319 111.625 70.070358 C 111.859497 70.335297 112.151253 70.503113 112.5 70.573563 C 113.25 70.32196 114 70.070358 114.75 69.818756 C 114.196747 73.249565 112.363503 75.933121 109.25 77.869934 C 108.1605 82.542381 105.5355 86.022751 101.375 88.311302 C 100.839752 88.533714 100.423248 88.407921 100.125 87.933899 C 101.208252 86.256493 102.291748 84.57933 103.375 82.901924 C 103.291748 82.650322 103.125 82.482506 102.875 82.398727 C 100.710251 83.991844 98.460251 85.459427 96.125 86.801704 C 94.101501 87.897423 91.934998 88.358856 89.625 88.185501 C 89.679749 88.481125 89.596497 88.732727 89.375 88.940292 C 89.291748 88.856514 89.208252 88.772484 89.125 88.688698 C 89.505753 88.163864 89.422501 87.74469 88.875 87.430702 C 88.362503 87.575874 88.112503 87.911263 88.125 88.437096 C 86.421501 88.132416 84.921501 87.419632 83.625 86.298508 C 83.89325 85.942245 83.89325 85.606606 83.625 85.292114 C 83.077751 85.239525 82.577751 85.323563 82.125 85.543709 C 80.290497 83.61821 78.207253 82.066612 75.875 80.889122 C 76.541748 80.721313 77.208252 80.553741 77.875 80.385925 C 76.425247 78.942505 74.758499 77.81031 72.875 76.989342 C 72.150002 76.386253 71.56675 75.673477 71.125 74.850754 C 71.208252 74.76696 71.291748 74.68293 71.375 74.599152 C 72.493248 75.526031 73.743248 75.777634 75.125 75.353951 C 74.783752 74.991394 74.408752 74.656013 74 74.347549 C 73.849747 74.815277 73.641502 74.899048 73.375 74.599152 C 73.484497 74.615494 73.568001 74.57373 73.625 74.473343 C 73.404747 74.295219 73.238251 74.085388 73.125 73.844345 C 71.453003 72.072845 70.369499 69.976265 69.875 67.554375 C 70.580254 67.869125 71.24675 68.414337 71.875 69.189774 C 75.245247 70.715721 75.745247 70.086716 73.375 67.30278 C 72.576248 65.78286 71.617996 64.357056 70.5 63.025589 C 69.981499 61.982708 69.606499 60.892277 69.375 59.754795 C 69.597748 59.480556 69.847748 59.480556 70.125 59.754795 C 71.497749 60.907623 72.997749 61.872002 74.625 62.648186 C 75.033501 62.772476 75.450249 62.814243 75.875 62.773987 C 75.454498 63.553444 75.329498 64.392014 75.5 65.289978 C 76.138252 65.850792 76.846497 65.934586 77.625 65.541573 C 77.912003 65.956467 78.245247 66.333855 78.625 66.673775 C 78.862251 66.82901 79.070503 66.787239 79.25 66.547974 C 80.389503 68.492332 81.847748 70.169739 83.625 71.579964 C 82.944 73.093071 82.985497 74.602676 83.75 76.108742 C 85.593002 78.708519 87.926247 79.295746 90.75 77.869934 C 92.059998 78.292366 93.26825 78.082794 94.375 77.240944 C 95.725754 76.163834 96.93425 74.947861 98 73.592743 C 98.124496 72.842484 98.166252 72.087685 98.125 71.328362 C 98.328499 71.864525 98.453499 72.4515 98.5 73.089546 C 98.665749 71.567879 98.582497 70.058289 98.25 68.560768 C 97.371246 67.613495 97.16275 66.523315 97.625 65.289978 C 97.364754 64.765396 96.989754 64.345978 96.5 64.031982 C 95.244499 62.217701 95.411247 60.540287 97 59 C 97.1745 57.895985 97.5495 56.889587 98.125 55.980808 C 97.4375 55.021965 96.6875 54.09935 95.875 53.213219 C 95.06575 53.594391 94.31575 53.510361 93.625 52.961617 C 92.515747 54.098095 91.682503 53.930527 91.125 52.45842 C 90.838501 52.620712 90.588501 52.830284 90.375 53.087418 C 90.125 53.255234 89.875 53.255234 89.625 53.087418 C 89.279999 52.603096 88.904999 52.141655 88.5 51.703629 C 86.138496 46.059242 85.471748 40.188683 86.5 34.091682 C 86.814247 32.977348 87.231003 31.886925 87.75 30.8209 C 91.083504 26.738197 95.375 25.018944 100.625 25.663116 C 103.41925 25.981392 105.66925 27.23938 107.375 29.437103 C 107.005501 30.437958 106.338753 31.150742 105.375 31.575691 Z" stroke="none" fill-rule="evenodd" fill="#8f59ac" id="path42"></path>
    </g>
    <g id="g43">
        <path d="M 105.875 79.631134 C 106.955254 79.83493 107.122002 80.338127 106.375 81.140717 C 106.067253 80.851135 106.067253 80.557777 106.375 80.260132 C 106.060997 80.155212 105.894249 79.945625 105.875 79.631134 Z" stroke="none" fill-rule="evenodd" fill="#3e264b" id="path43"></path>
    </g>
    <g id="g44">
        <path d="M 112.625 60.006397 C 112.998749 59.985008 113.248749 60.152573 113.375 60.509594 C 112.465248 61.820427 111.2985 62.826824 109.875 63.528782 C 109.672997 63.45129 109.506248 63.325493 109.375 63.151386 C 109.723 62.590824 110.223 62.297459 110.875 62.27079 C 110.875 62.019192 110.875 61.76759 110.875 61.515991 C 111.93 61.534359 112.513496 61.031158 112.625 60.006397 Z" stroke="none" fill-rule="evenodd" fill="#7c38a0" id="path44"></path>
    </g>
    <g id="g45">
        <path d="M 105.375 44.155655 C 106.209503 44.330002 106.334503 44.74942 105.75 45.413643 C 105.432747 45.06015 105.307747 44.640991 105.375 44.155655 Z" stroke="none" fill-rule="evenodd" fill="#0a060d" id="path45"></path>
    </g>
    <g id="g46">
        <path d="M 103.875 44.407249 C 104.738998 44.667908 104.822502 45.087326 104.125 45.665245 C 103.643997 45.296654 103.560753 44.877228 103.875 44.407249 Z" stroke="none" fill-rule="evenodd" fill="#19121c" id="path46"></path>
    </g>
    <g id="g47">
        <path d="M 99.625 43.149254 C 99.118248 43.19001 98.618248 43.147995 98.125 43.023453 C 99.029503 42.990997 99.446251 42.529816 99.375 41.639656 C 100.483253 41.557388 101.56675 41.431587 102.625 41.26226 C 101.988503 42.463646 100.988503 43.092644 99.625 43.149254 Z" stroke="none" fill-rule="evenodd" fill="#7d39a2" id="path47"></path>
    </g>
    <g id="g48">
        <path d="M 90.125 39.375267 C 93.635246 41.011925 97.30175 41.473351 101.125 40.759064 C 101.799004 40.566582 102.424004 40.272972 103 39.878464 C 103.112 40.358765 102.903748 40.652382 102.375 40.759064 C 101.331253 41.0084 100.331253 41.302017 99.375 41.639656 C 98.390747 41.565941 97.432503 41.649719 96.5 41.891258 C 95.081497 41.444672 93.623253 41.151047 92.125 41.010658 C 91.149246 40.815674 90.399246 40.312477 89.875 39.50106 C 89.931999 39.400681 90.015503 39.358917 90.125 39.375267 Z" stroke="none" fill-rule="evenodd" fill="#773798" id="path48"></path>
    </g>
    <g id="g49">
        <path d="M 104.375 40.884865 C 104.718246 40.845367 105.05175 40.887375 105.375 41.010658 C 105.678001 41.289185 105.594749 41.414978 105.125 41.388062 C 104.743248 41.406425 104.493248 41.238617 104.375 40.884865 Z" opacity="0.969" stroke="none" fill-rule="evenodd" fill="#2c1a34" id="path49"></path>
    </g>
    <g id="g50">
        <path d="M 102.875 33.085289 C 103.321503 34.055199 103.696503 35.061592 104 36.104477 C 104.261253 35.884834 104.469498 35.633232 104.625 35.349678 C 105.186501 35.109398 105.769753 34.941582 106.375 34.846481 C 106.541748 34.846481 106.625 34.930267 106.625 35.098083 C 105.324501 35.230423 104.491249 35.817406 104.125 36.859276 C 105.449997 35.827965 106.949997 35.408562 108.625 35.60128 C 108.054749 35.81237 107.471252 36.063972 106.875 36.356079 C 106.642754 36.655228 106.559502 36.990608 106.625 37.362473 C 106.391502 37.093773 106.307999 36.758385 106.375 36.356079 C 105.515747 36.515587 104.723999 36.850967 104 37.362473 C 104.250252 38.04129 104.125252 38.670288 103.625 39.249466 C 105.454498 40.188942 107.41275 40.650368 109.5 40.633263 C 110.008247 40.631752 110.466499 40.547974 110.875 40.381668 C 111.041748 40.381668 111.208252 40.381668 111.375 40.381668 C 112.556252 40.316002 113.639748 39.980362 114.625 39.375267 C 115.138 39.514397 115.221252 39.765999 114.875 40.130066 C 114.891251 40.019867 114.849747 39.935829 114.75 39.878464 C 114.11425 40.344933 113.405998 40.638542 112.625 40.759064 C 110.378754 41.226784 108.128754 41.226784 105.875 40.759064 C 105.227753 40.428467 104.560997 40.260635 103.875 40.255867 C 104.095253 40.433998 104.261749 40.643829 104.375 40.884865 C 103.99575 40.882103 103.704002 40.714523 103.5 40.381668 C 102.112 43.449669 99.820251 44.497826 96.625 43.526649 C 97.671997 43.482376 98.671997 43.356575 99.625 43.149254 C 100.988503 43.092644 101.988503 42.463646 102.625 41.26226 C 101.56675 41.431587 100.483253 41.557388 99.375 41.639656 C 100.331253 41.302017 101.331253 41.0084 102.375 40.759064 C 102.903748 40.652382 103.112 40.358765 103 39.878464 C 102.424004 40.272972 101.799004 40.566582 101.125 40.759064 C 97.30175 41.473351 93.635246 41.011925 90.125 39.375267 C 90.125 39.291481 90.125 39.207451 90.125 39.123665 C 91.143997 39.661079 92.227501 39.996719 93.375 40.130066 C 96.485252 41.247917 99.568497 41.122116 102.625 39.752663 C 103.502502 39.272873 103.793999 38.560089 103.5 37.614067 C 102.38575 36.252167 101.01075 35.664932 99.375 35.852875 C 99.041748 35.685066 99.041748 35.517494 99.375 35.349678 C 101.032249 35.282509 102.407249 35.869484 103.5 37.110878 C 103.492752 33.913803 101.951248 31.858994 98.875 30.946693 C 95.195503 30.235924 91.862251 30.948708 88.875 33.085289 C 89.940002 31.706779 91.35675 30.82618 93.125 30.443497 C 96.899498 29.568184 100.149498 30.448776 102.875 33.085289 Z" opacity="0.965" stroke="none" fill-rule="evenodd" fill="#1b161d" id="path50"></path>
    </g>
    <g id="g51">
        <path d="M 94.625 38.117271 C 96.276001 40.258629 98.109497 40.426437 100.125 38.620468 C 100.782997 38.828537 101.449501 39.038124 102.125 39.249466 C 101.247498 39.767006 100.33075 40.186172 99.375 40.507462 C 97.383003 40.371346 95.383003 40.245544 93.375 40.130066 C 92.512253 39.636177 91.678749 39.049194 90.875 38.368874 C 92.113998 38.118774 93.363998 38.034996 94.625 38.117271 Z" stroke="none" fill-rule="evenodd" fill="#fbddf6" id="path51"></path>
    </g>
    <g id="g52">
        <path d="M 106.625 37.865669 C 107.761497 39.548363 109.345001 40.177361 111.375 39.752663 C 111.908752 39.532265 112.242249 39.154861 112.375 38.620468 C 112.949753 38.421448 113.449753 38.589272 113.875 39.123665 C 113.011253 39.544342 112.17775 39.963753 111.375 40.381668 C 111.208252 40.381668 111.041748 40.381668 110.875 40.381668 C 109.209999 40.129814 107.543251 39.836197 105.875 39.50106 C 105.484749 39.26432 105.151253 38.970695 104.875 38.620468 C 105.410248 38.25515 105.993752 38.003548 106.625 37.865669 Z" stroke="none" fill-rule="evenodd" fill="#f9ddf4" id="path52"></path>
    </g>
    <g id="g53">
        <path d="M 113.875 36.859276 C 114.398003 37.209999 114.814499 37.671432 115.125 38.243073 C 114.988998 38.641861 114.82225 39.019257 114.625 39.375267 C 113.639748 39.980362 112.556252 40.316002 111.375 40.381668 C 112.17775 39.963753 113.011253 39.544342 113.875 39.123665 C 113.449753 38.589272 112.949753 38.421448 112.375 38.620468 C 112.507248 37.691566 112.257248 36.895004 111.625 36.230278 C 112.359497 36.405388 113.109497 36.615227 113.875 36.859276 Z" stroke="none" fill-rule="evenodd" fill="#ecbff2" id="path53"></path>
    </g>
    <g id="g54">
        <path d="M 106.625 37.362473 C 106.625 37.530289 106.625 37.697861 106.625 37.865669 C 105.993752 38.003548 105.410248 38.25515 104.875 38.620468 C 105.151253 38.970695 105.484749 39.26432 105.875 39.50106 C 107.543251 39.836197 109.209999 40.129814 110.875 40.381668 C 110.466499 40.547974 110.008247 40.631752 109.5 40.633263 C 107.41275 40.650368 105.454498 40.188942 103.625 39.249466 C 104.125252 38.670288 104.250252 38.04129 104 37.362473 C 104.723999 36.850967 105.515747 36.515587 106.375 36.356079 C 106.307999 36.758385 106.391502 37.093773 106.625 37.362473 Z" stroke="none" fill-rule="evenodd" fill="#e9bcf1" id="path54"></path>
    </g>
    <g id="g55">
        <path d="M 99.375 35.852875 C 101.01075 35.664932 102.38575 36.252167 103.5 37.614067 C 103.793999 38.560089 103.502502 39.272873 102.625 39.752663 C 99.568497 41.122116 96.485252 41.247917 93.375 40.130066 C 95.383003 40.245544 97.383003 40.371346 99.375 40.507462 C 100.33075 40.186172 101.247498 39.767006 102.125 39.249466 C 101.449501 39.038124 100.782997 38.828537 100.125 38.620468 C 100.166 37.94442 100.124252 37.273407 100 36.607681 C 99.905746 36.244865 99.697502 35.993263 99.375 35.852875 Z" stroke="none" fill-rule="evenodd" fill="#e7baef" id="path55"></path>
    </g>
    <g id="g56">
        <path d="M 94.625 38.117271 C 93.363998 38.034996 92.113998 38.118774 90.875 38.368874 C 91.678749 39.049194 92.512253 39.636177 93.375 40.130066 C 92.227501 39.996719 91.143997 39.661079 90.125 39.123665 C 89.536499 38.698975 89.036499 38.195778 88.625 37.614067 C 90.290749 36.734482 92.040749 36.063721 93.875 35.60128 C 94.041748 35.685066 94.208252 35.769096 94.375 35.852875 C 94.0905 36.640633 94.174004 37.395432 94.625 38.117271 Z" stroke="none" fill-rule="evenodd" fill="#ecbdf4" id="path56"></path>
    </g>
    <g id="g57">
        <path d="M 108.625 35.60128 C 109.711502 35.559509 110.794746 35.601532 111.875 35.727074 C 112.658249 35.943451 113.324997 36.320847 113.875 36.859276 C 113.109497 36.615227 112.359497 36.405388 111.625 36.230278 C 112.257248 36.895004 112.507248 37.691566 112.375 38.620468 C 112.242249 39.154861 111.908752 39.532265 111.375 39.752663 C 109.345001 40.177361 107.761497 39.548363 106.625 37.865669 C 106.625 37.697861 106.625 37.530289 106.625 37.362473 C 106.559502 36.990608 106.642754 36.655228 106.875 36.356079 C 107.471252 36.063972 108.054749 35.81237 108.625 35.60128 Z" opacity="0.996" stroke="none" fill-rule="evenodd" fill="#0c0a0b" id="path57"></path>
    </g>
    <g id="g58">
        <path d="M 99.375 35.349678 C 99.041748 35.517494 99.041748 35.685066 99.375 35.852875 C 99.697502 35.993263 99.905746 36.244865 100 36.607681 C 100.124252 37.273407 100.166 37.94442 100.125 38.620468 C 98.109497 40.426437 96.276001 40.258629 94.625 38.117271 C 94.174004 37.395432 94.0905 36.640633 94.375 35.852875 C 94.208252 35.769096 94.041748 35.685066 93.875 35.60128 C 92.040749 36.063721 90.290749 36.734482 88.625 37.614067 C 88.708252 37.362473 88.875 37.194664 89.125 37.110878 C 92.332497 35.257347 95.749001 34.670364 99.375 35.349678 Z" opacity="0.995" stroke="none" fill-rule="evenodd" fill="#0a080a" id="path58"></path>
    </g>
    <g id="g59">
        <path d="M 105.125 32.078888 C 104.808746 32.325211 104.47525 32.576805 104.125 32.833687 C 104.208252 32.917473 104.291748 33.001503 104.375 33.085289 C 104.981247 32.671402 105.648003 32.378036 106.375 32.204689 C 108.048752 32.037376 109.7155 32.079399 111.375 32.33049 C 114.155998 33.159004 115.530998 35.003983 115.5 37.865669 C 115.0905 37.303596 114.548752 36.968216 113.875 36.859276 C 113.324997 36.320847 112.658249 35.943451 111.875 35.727074 C 110.794746 35.601532 109.711502 35.559509 108.625 35.60128 C 106.949997 35.408562 105.449997 35.827965 104.125 36.859276 C 104.491249 35.817406 105.324501 35.230423 106.625 35.098083 C 107.831001 34.974289 108.997498 34.80648 110.125 34.594887 C 111.132751 34.704834 112.091003 34.956429 113 35.349678 C 113.208252 35.265892 113.416748 35.18187 113.625 35.098083 C 112.136749 33.101387 110.136749 32.304581 107.625 32.707893 C 106.136253 32.909164 105.05275 33.663963 104.375 34.972282 C 104.392502 35.164757 104.475754 35.290558 104.625 35.349678 C 104.469498 35.633232 104.261253 35.884834 104 36.104477 C 103.696503 35.061592 103.321503 34.055199 102.875 33.085289 C 103.522003 32.550636 104.272003 32.215256 105.125 32.078888 Z" stroke="none" fill-rule="evenodd" fill="#7c38a0" id="path59"></path>
    </g>
    <g id="g60">
        <path d="M 99.375 35.349678 C 95.749001 34.670364 92.332497 35.257347 89.125 37.110878 C 89.525253 36.51886 90.025253 35.97364 90.625 35.475479 C 91.740501 34.914421 92.906998 34.494995 94.125 34.217484 C 97.027 33.714539 99.735252 34.175713 102.25 35.60128 C 102.706749 35.11972 102.706749 34.616524 102.25 34.091682 C 99.920502 31.522606 97.045502 30.642006 93.625 31.44989 C 91.410248 32.189346 89.327003 33.111961 87.375 34.217484 C 87.778503 33.682327 88.278503 33.304932 88.875 33.085289 C 91.862251 30.948708 95.195503 30.235924 98.875 30.946693 C 101.951248 31.858994 103.492752 33.913803 103.5 37.110878 C 102.407249 35.869484 101.032249 35.282509 99.375 35.349678 Z" stroke="none" fill-rule="evenodd" fill="#79369d" id="path60"></path>
    </g>
    <g id="g61">
        <path d="M 110.125 34.594887 C 109.674004 34.428329 109.174004 34.344543 108.625 34.343285 C 107.796501 34.303787 107.046501 34.471352 106.375 34.846481 C 105.769753 34.941582 105.186501 35.109398 104.625 35.349678 C 104.475754 35.290558 104.392502 35.164757 104.375 34.972282 C 105.05275 33.663963 106.136253 32.909164 107.625 32.707893 C 110.136749 32.304581 112.136749 33.101387 113.625 35.098083 C 113.416748 35.18187 113.208252 35.265892 113 35.349678 C 112.091003 34.956429 111.132751 34.704834 110.125 34.594887 Z" stroke="none" fill-rule="evenodd" fill="#905aad" id="path61"></path>
    </g>
    <g id="g62">
        <path d="M 110.125 34.594887 C 108.997498 34.80648 107.831001 34.974289 106.625 35.098083 C 106.625 34.930267 106.541748 34.846481 106.375 34.846481 C 107.046501 34.471352 107.796501 34.303787 108.625 34.343285 C 109.174004 34.344543 109.674004 34.428329 110.125 34.594887 Z" opacity="0.992" stroke="none" fill-rule="evenodd" fill="#3b2148" id="path62"></path>
    </g>
    <g id="g63">
        <path d="M 111.625 32.078888 C 111.458252 32.078888 111.375 32.162674 111.375 32.33049 C 109.7155 32.079399 108.048752 32.037376 106.375 32.204689 C 105.648003 32.378036 104.981247 32.671402 104.375 33.085289 C 104.291748 33.001503 104.208252 32.917473 104.125 32.833687 C 104.47525 32.576805 104.808746 32.325211 105.125 32.078888 C 107.328003 31.441086 109.494499 31.441086 111.625 32.078888 Z" opacity="0.965" stroke="none" fill-rule="evenodd" fill="#2a1a30" id="path63"></path>
    </g>
    <g id="g64">
        <path d="M 105.375 31.575691 C 103.591499 31.927925 102.008003 31.508522 100.625 30.317696 C 100.666748 30.233917 100.708252 30.149879 100.75 30.066093 C 102.085251 31.238556 103.585251 31.574188 105.25 31.072495 C 105.365997 31.221939 105.407753 31.389763 105.375 31.575691 Z" stroke="none" fill-rule="evenodd" fill="#140d17" id="path64"></path>
    </g>
    <g id="g65">
        <path d="M 102.125 30.066093 C 103.095001 30.050751 104.095001 30.050751 105.125 30.066093 C 104.134003 30.715477 103.134003 30.715477 102.125 30.066093 Z" stroke="none" fill-rule="evenodd" fill="#120b14" id="path65"></path>
    </g>
    <g id="g66">
        <path d="M 92.625 22.014923 C 92.414253 22.435928 92.081001 22.729469 91.625 22.895523 C 90.70575 23.009377 89.789001 22.96743 88.875 22.769722 C 86.552254 22.715057 85.677254 23.805305 86.25 26.040512 C 86.753998 26.590004 87.295753 27.093201 87.875 27.55011 C 89.320747 26.495651 90.903999 25.740852 92.625 25.285713 C 90.988503 26.255379 89.405251 27.34581 87.875 28.556503 C 86.316002 27.365936 85.316002 25.814331 84.875 23.901917 C 84.950249 22.819847 85.533501 22.232758 86.625 22.140724 C 88.634499 22.240036 90.634499 22.198112 92.625 22.014923 Z" stroke="none" fill-rule="evenodd" fill="#ed3dad" id="path66"></path>
    </g>
    <g id="g67">
        <path d="M 104.125 21.00853 C 105.303001 19.672287 106.511253 19.672287 107.75 21.00853 C 108.105499 21.645096 108.188751 22.316017 108 23.021324 C 107.394501 24.028946 106.977753 25.119202 106.75 26.292107 C 102.255249 24.058388 97.630249 23.722931 92.875 25.285713 C 94.115501 23.993782 95.615501 23.57444 97.375 24.027718 C 98.825752 23.825661 99.575752 22.987 99.625 21.511726 C 99.561249 19.946701 99.061249 18.562912 98.125 17.360344 C 94.998001 16.73217 93.456497 18.032104 93.5 21.260132 C 93.332253 21.449432 93.124001 21.533318 92.875 21.511726 C 93.105499 16.473633 95.355499 15.257553 99.625 17.863541 C 100.422997 19.047165 101.3395 20.137413 102.375 21.134331 C 102.971252 21.274323 103.554497 21.232376 104.125 21.00853 Z" stroke="none" fill-rule="evenodd" fill="#eb3cab" id="path67"></path>
    </g>
    <g id="g68">
        <path d="M 104.125 21.00853 C 104.621002 21.03791 105.037498 20.870178 105.375 20.505325 C 105.5215 20.557991 105.6465 20.641846 105.75 20.756927 C 106.065498 21.866325 105.857002 22.830811 105.125 23.650322 C 104.274246 23.882645 103.566002 23.672989 103 23.021324 C 102.833252 22.769722 102.833252 22.51812 103 22.266525 C 103.439499 21.868195 103.814499 21.448845 104.125 21.00853 Z" stroke="none" fill-rule="evenodd" fill="#fe48d7" id="path68"></path>
    </g>
    <g id="g69">
        <path d="M 92.875 25.285713 C 92.791748 25.285713 92.708252 25.285713 92.625 25.285713 C 90.903999 25.740852 89.320747 26.495651 87.875 27.55011 C 87.295753 27.093201 86.753998 26.590004 86.25 26.040512 C 85.677254 23.805305 86.552254 22.715057 88.875 22.769722 C 89.789001 22.96743 90.70575 23.009377 91.625 22.895523 C 92.081001 22.729469 92.414253 22.435928 92.625 22.014923 C 92.708252 21.847191 92.791748 21.679466 92.875 21.511726 C 93.124001 21.533318 93.332253 21.449432 93.5 21.260132 C 93.456497 18.032104 94.998001 16.73217 98.125 17.360344 C 99.061249 18.562912 99.561249 19.946701 99.625 21.511726 C 99.575752 22.987 98.825752 23.825661 97.375 24.027718 C 95.615501 23.57444 94.115501 23.993782 92.875 25.285713 Z" stroke="none" fill-rule="evenodd" fill="#fe49d8" id="path69"></path>
    </g>
    <g id="g70">
        <path d="M 103.375 95.48188 C 103.507751 96.016266 103.841248 96.393669 104.375 96.614075 C 103.94825 96.663139 103.531502 96.663139 103.125 96.614075 C 103.332001 96.844284 103.582001 97.011856 103.875 97.117271 C 103.465752 97.608139 103.090752 97.566124 102.75 96.99147 C 102.627502 96.666153 102.585747 96.330513 102.625 95.985069 C 102.488998 94.943451 102.738998 94.775635 103.375 95.48188 Z" stroke="none" fill-rule="evenodd" fill="#e0a18f" id="path70"></path>
    </g>
    <g id="g71">
        <path d="M 103.375 95.48188 C 104.174751 95.547791 104.674751 95.966957 104.875 96.739868 C 103.849747 97.475044 102.849747 98.271858 101.875 99.130066 C 101.252747 99.366821 100.752747 99.241028 100.375 98.752663 C 101.314003 99.19297 101.980499 98.941368 102.375 97.997871 C 102.887253 97.946037 102.970749 97.736458 102.625 97.368874 C 101.963501 97.24382 101.296753 97.201805 100.625 97.243073 C 101.151749 96.999527 101.735252 96.915489 102.375 96.99147 C 102.375 96.739868 102.375 96.488266 102.375 96.236671 C 102.375 96.152885 102.375 96.068863 102.375 95.985069 C 102.458252 95.985069 102.541748 95.985069 102.625 95.985069 C 102.585747 96.330513 102.627502 96.666153 102.75 96.99147 C 103.090752 97.566124 103.465752 97.608139 103.875 97.117271 C 103.582001 97.011856 103.332001 96.844284 103.125 96.614075 C 103.531502 96.663139 103.94825 96.663139 104.375 96.614075 C 103.841248 96.393669 103.507751 96.016266 103.375 95.48188 Z" opacity="0.973" stroke="none" fill-rule="evenodd" fill="#59403c" id="path71"></path>
    </g>
    <g id="g72">
        <path d="M 102.375 96.236671 C 102.375 96.488266 102.375 96.739868 102.375 96.99147 C 101.735252 96.915489 101.151749 96.999527 100.625 97.243073 C 100.141251 97.406609 99.641251 97.490395 99.125 97.494675 C 100.160004 96.974365 101.243248 96.554955 102.375 96.236671 Z" opacity="0.994" stroke="none" fill-rule="evenodd" fill="#191928" id="path72"></path>
    </g>
    <g id="g73">
        <path d="M 102.375 95.985069 C 102.375 96.068863 102.375 96.152885 102.375 96.236671 C 101.243248 96.554955 100.160004 96.974365 99.125 97.494675 C 98.74575 97.497429 98.454002 97.665001 98.25 97.997871 C 98.105247 97.63858 98.147003 97.302956 98.375 96.99147 C 99.508247 96.618095 100.675003 96.450539 101.875 96.488266 C 101.795753 95.715363 101.878998 94.960564 102.125 94.223885 C 102.3685 94.788223 102.452003 95.375198 102.375 95.985069 Z" stroke="none" fill-rule="evenodd" fill="#034884" id="path73"></path>
    </g>
    <g id="g74">
        <path d="M 90.375 98.249474 C 89.95475 98.628876 89.45475 98.88047 88.875 99.004265 C 88.458252 99.172081 88.041748 99.339645 87.625 99.507462 C 87.639252 99.228439 87.722504 98.976837 87.875 98.752663 C 89.031502 97.371132 90.531502 96.867935 92.375 97.243073 C 92.445747 97.441582 92.570747 97.609398 92.75 97.746269 C 92.625504 97.236275 92.667252 96.733078 92.875 96.236671 C 93.1185 96.80101 93.202003 97.387985 93.125 97.997871 C 92.157249 97.918617 91.240501 98.002396 90.375 98.249474 Z" stroke="none" fill-rule="evenodd" fill="#1c3a67" id="path74"></path>
    </g>
    <g id="g75">
        <path d="M 95.125 98.752663 C 93.824249 98.7826 93.324249 98.195374 93.625 96.99147 C 93.766251 97.497185 94.016251 97.916351 94.375 98.249474 C 95.041748 97.997871 95.041748 97.746269 94.375 97.494675 C 94.597748 97.220421 94.847748 97.220421 95.125 97.494675 C 95.358498 97.895966 95.358498 98.315132 95.125 98.752663 Z" stroke="none" fill-rule="evenodd" fill="#da9684" id="path75"></path>
    </g>
    <g id="g76">
        <path d="M 87.375 99.507462 C 87.375 99.675278 87.291748 99.759056 87.125 99.759056 C 86.126747 99.469467 85.376747 98.88224 84.875 97.997871 C 85.203003 97.081795 85.494751 97.165825 85.75 98.249474 C 86.231499 98.762482 86.773247 99.181885 87.375 99.507462 Z" stroke="none" fill-rule="evenodd" fill="#e0dce2" id="path76"></path>
    </g>
    <g id="g77">
        <path d="M 90.375 98.249474 C 91.295502 98.207954 92.211998 98.249718 93.125 98.375259 C 93.334251 98.629631 93.417503 98.923256 93.375 99.255867 C 93.804001 99.223412 94.220749 99.139626 94.625 99.004265 C 94.625 99.088043 94.625 99.172081 94.625 99.255867 C 93.984497 99.907761 93.401253 99.823967 92.875 99.004265 C 92.550247 99.15271 92.342003 99.404305 92.25 99.759056 C 91.774246 99.710251 91.31575 99.710251 90.875 99.759056 C 90.791748 100.094452 90.708252 100.430077 90.625 100.765457 C 89.93425 100.238106 89.350754 99.650871 88.875 99.004265 C 89.45475 98.88047 89.95475 98.628876 90.375 98.249474 Z" stroke="none" fill-rule="evenodd" fill="#f3b4a4" id="path77"></path>
    </g>
    <g id="g78">
        <path d="M 100.375 98.752663 C 100.752747 99.241028 101.252747 99.366821 101.875 99.130066 C 102.849747 98.271858 103.849747 97.475044 104.875 96.739868 C 105.101997 97.230995 105.060249 97.734192 104.75 98.249474 C 103.374001 99.781448 101.665497 100.326675 99.625 99.884865 C 98.083252 98.836449 96.541748 97.788284 95 96.739868 C 94.805252 96.134521 95.013496 95.715111 95.625 95.48188 C 96.202248 96.481987 96.952248 97.320564 97.875 97.997871 C 98.668747 98.398163 99.502251 98.649757 100.375 98.752663 Z" stroke="none" fill-rule="evenodd" fill="#ebe5ee" id="path78"></path>
    </g>
    <g id="g79">
        <path d="M 100.625 97.243073 C 101.296753 97.201805 101.963501 97.24382 102.625 97.368874 C 102.970749 97.736458 102.887253 97.946037 102.375 97.997871 C 101.980499 98.941368 101.314003 99.19297 100.375 98.752663 C 100.039497 98.427353 99.622749 98.217766 99.125 98.123665 C 98.850502 97.929939 98.850502 97.72036 99.125 97.494675 C 99.641251 97.490395 100.141251 97.406609 100.625 97.243073 Z" stroke="none" fill-rule="evenodd" fill="#e7a492" id="path79"></path>
    </g>
    <g id="g80">
        <path d="M 102.375 97.997871 C 101.960999 98.1604 101.54425 98.328217 101.125 98.501068 C 100.958252 98.417282 100.791748 98.333252 100.625 98.249474 C 100.836998 97.874329 101.17025 97.70652 101.625 97.746269 C 101.931503 97.751297 102.181503 97.835083 102.375 97.997871 Z" opacity="0.945" stroke="none" fill-rule="evenodd" fill="#411e1c" id="path80"></path>
    </g>
    <g id="g81">
        <path d="M 88.875 99.004265 C 89.350754 99.650871 89.93425 100.238106 90.625 100.765457 C 90.708252 100.430077 90.791748 100.094452 90.875 99.759056 C 91.31575 99.710251 91.774246 99.710251 92.25 99.759056 C 92.342003 99.404305 92.550247 99.15271 92.875 99.004265 C 93.401253 99.823967 93.984497 99.907761 94.625 99.255867 C 94.6465 99.506462 94.563004 99.716042 94.375 99.884865 C 93.195503 100.454742 91.945503 100.83213 90.625 101.017059 C 89.946999 100.797661 89.363747 100.420258 88.875 99.884865 C 88.384247 99.672508 88.051003 99.798317 87.875 100.26226 C 87.572502 100.153564 87.322502 99.985756 87.125 99.759056 C 87.291748 99.759056 87.375 99.675278 87.375 99.507462 C 87.458252 99.507462 87.541748 99.507462 87.625 99.507462 C 88.041748 99.339645 88.458252 99.172081 88.875 99.004265 Z" opacity="0.984" stroke="none" fill-rule="evenodd" fill="#4b3633" id="path81"></path>
    </g>
    <g id="g82">
        <path d="M 87.875 100.26226 C 88.051003 99.798317 88.384247 99.672508 88.875 99.884865 C 89.363747 100.420258 89.946999 100.797661 90.625 101.017059 C 91.945503 100.83213 93.195503 100.454742 94.375 99.884865 C 94.563004 99.716042 94.6465 99.506462 94.625 99.255867 C 94.625 99.172081 94.625 99.088043 94.625 99.004265 C 94.873001 99.047539 95.039497 98.963509 95.125 98.752663 C 95.969002 98.19664 96.094002 98.448235 95.5 99.507462 C 93.133751 101.783432 90.592003 102.035027 87.875 100.26226 Z" stroke="none" fill-rule="evenodd" fill="#dfdce2" id="path82"></path>
    </g>
</svg>
