<svg xmlns="http://www.w3.org/2000/svg" viewBox="0 0 200 118" height="118" width="200">
    <g id="Group">
        <path d="M 105.125 32.33049 C 105.039497 32.541336 104.873001 32.625366 104.625 32.582092 C 104.026497 32.71167 103.443001 32.879227 102.875 33.085289 C 98.91275 29.81852 94.66275 29.441124 90.125 31.953087 C 89.690002 32.334763 89.273499 32.712166 88.875 33.085289 C 88.528748 33.287071 88.570503 33.454887 89 33.588486 C 92.449501 31.708786 96.074501 31.33139 99.875 32.456291 C 100.983002 32.928787 101.899498 33.641571 102.625 34.594887 C 102.416748 34.678665 102.208252 34.762695 102 34.846481 C 99.053253 34.221756 96.095001 34.179749 93.125 34.720688 C 91.969498 35.079712 90.886253 35.582909 89.875 36.230278 C 89.452003 36.55912 89.118752 36.936516 88.875 37.362473 C 88.245499 37.829689 88.245499 38.290871 88.875 38.746269 C 92.745003 41.084877 96.911751 41.839676 101.375 41.010658 C 102 40.787994 102.583252 40.494377 103.125 40.130066 C 103.324501 40.245049 103.407753 40.412857 103.375 40.633263 C 103.944252 40.872032 104.444252 41.207405 104.875 41.639656 C 105.107246 41.844711 105.357246 42.054298 105.625 42.268661 C 107.013496 42.693611 108.430252 42.987228 109.875 43.149254 C 109.230751 43.669563 108.480751 44.004944 107.625 44.155655 C 108.406754 44.557961 109.239998 44.85157 110.125 45.036247 C 109.6185 45.437294 109.1185 45.814697 108.625 46.168442 C 108.177002 46.371994 107.677002 46.497787 107.125 46.545845 C 104.791748 46.713654 102.458252 46.713654 100.125 46.545845 C 98.432999 46.103027 96.766502 45.641594 95.125 45.162048 C 93.170502 44.155655 91.128754 43.31707 89 42.646057 C 88.445 42.657372 88.07 42.908974 87.875 43.400848 C 88.2845 44.106339 88.742752 44.777351 89.25 45.413643 C 89.612747 45.907784 90.070999 46.243164 90.625 46.420044 C 91.508247 47.410088 92.591499 48.080856 93.875 48.432838 C 94.041748 48.600647 94.208252 48.768219 94.375 48.936035 C 94.028748 49.137817 94.070503 49.305634 94.5 49.439232 C 95.423752 49.722794 96.298752 50.100189 97.125 50.571426 C 98.587753 50.708809 100.004501 51.044182 101.375 51.577827 C 102.039749 52.628006 102.539749 53.760193 102.875 54.974411 C 103.481003 55.444904 103.897751 56.031887 104.125 56.735607 C 104.36525 58.587379 105.11525 60.222771 106.375 61.641788 C 106.851753 61.924084 107.351753 62.133667 107.875 62.27079 C 109.982246 62.88821 111.982246 62.55283 113.875 61.264393 C 113.958252 61.348171 114.041748 61.432213 114.125 61.515991 C 113.791748 61.93541 113.458252 62.354568 113.125 62.773987 C 113.234497 63.027096 113.401001 63.027096 113.625 62.773987 C 114.388748 64.477562 114.555252 66.238754 114.125 68.057571 C 113.601997 68.072914 113.226997 68.324509 113 68.812363 C 112.922997 68.609077 112.797997 68.441254 112.625 68.309166 C 111.320999 68.860672 111.404251 69.28009 112.875 69.567162 C 113.203499 69.362625 113.495247 69.111023 113.75 68.812363 C 113.916748 69.399353 113.916748 69.98658 113.75 70.573563 C 111.613503 77.161423 107.988503 82.738632 102.875 87.304901 C 102.41375 87.588707 101.91375 87.714508 101.375 87.682304 C 102.012001 86.316879 102.720497 84.975098 103.5 83.656715 C 103.702003 83.133636 103.660248 82.63044 103.375 82.147125 C 103.094498 82.431427 102.761002 82.599251 102.375 82.650322 C 103.369751 81.672852 103.703003 80.498901 103.375 79.127937 C 106.098747 76.589546 106.015503 74.115578 103.125 71.70575 C 102.743752 71.451889 102.327003 71.326096 101.875 71.328362 C 101.408752 69.183228 100.0755 68.009018 97.875 67.805969 C 98.338501 67.708344 98.755249 67.372971 99.125 66.799576 C 98.208748 65.890297 97.917 64.800125 98.25 63.528782 C 98.413498 63.829697 98.538498 63.829697 98.625 63.528782 C 98.347252 63.24926 98.180496 62.913624 98.125 62.522388 C 98.449997 61.750988 98.699997 60.95417 98.875 60.132198 C 98.830002 59.568363 98.62175 59.442566 98.25 59.754795 C 97.901497 57.487389 97.568253 55.222996 97.25 52.961617 C 97.1465 52.846634 97.0215 52.762604 96.875 52.710022 C 96.541748 52.961617 96.208252 53.213219 95.875 53.464821 C 94.751251 52.275261 93.417747 51.939873 91.875 52.45842 C 91.377998 52.259911 91.294746 51.966545 91.625 51.577827 C 91.359253 51.278931 91.025749 51.15313 90.625 51.200424 C 90.540497 51.868919 90.707253 52.455902 91.125 52.961617 C 91.034248 53.133461 90.950996 53.301277 90.875 53.464821 C 90.040001 53.390091 89.331497 53.054466 88.75 52.45842 C 87.977249 49.328278 87.143997 46.225311 86.25 43.149254 C 85.953003 39.666115 86.203003 36.227509 87 32.833687 C 88.779503 29.033531 91.737999 26.727379 95.875 25.914711 C 98.970001 25.509644 101.970001 25.845016 104.875 26.921112 C 105.75 27.633896 106.625 28.346924 107.5 29.0597 C 107.638 29.794121 107.471252 30.465134 107 31.072495 C 106.380249 31.528893 105.755249 31.948318 105.125 32.33049 Z" opacity="0.973" stroke="none" fill-rule="evenodd" fill="#8f58ac" id="Path"></path>
    </g>
    <g id="g1">
        <path d="M 87.625 30.066093 C 85.167747 33.952553 84.167747 38.229736 84.625 42.897652 C 84.625252 44.668907 84.750252 46.430099 85 48.181236 C 86.00425 51.813065 86.712502 55.503277 87.125 59.251598 C 87.202248 60.309574 87.035751 61.315971 86.625 62.27079 C 86.488251 62.953129 86.071747 63.330524 85.375 63.402985 C 82.973 63.590679 80.639748 63.255295 78.375 62.396587 C 76.369247 61.388432 74.452499 60.256233 72.625 59 C 72.625 58.832184 72.708252 58.748402 72.875 58.748402 C 75.963753 60.637661 79.255501 62.063221 82.75 63.025589 C 83.434998 62.959919 84.101501 62.959919 84.75 63.025589 C 85.5765 62.864563 86.0765 62.361366 86.25 61.515991 C 86.55175 60.601933 86.67675 59.721336 86.625 58.874199 C 85.464996 54.049034 84.548248 49.184868 83.875 44.281448 C 83.974998 41.577766 84.18325 38.768158 84.5 35.852875 C 84.869499 34.275604 85.411247 32.766014 86.125 31.324097 C 86.709 30.945686 87.167252 30.44249 87.5 29.814499 C 87.599747 29.871864 87.641251 29.955902 87.625 30.066093 Z" opacity="0.717" stroke="none" fill-rule="evenodd" fill="#0a060c" id="path1"></path>
    </g>
    <g id="g2">
        <path d="M 99.625 35.60128 C 99.270248 35.362015 98.853752 35.278229 98.375 35.349678 C 95.063499 35.096313 91.896751 35.767334 88.875 37.362473 C 89.118752 36.936516 89.452003 36.55912 89.875 36.230278 C 90.886253 35.582909 91.969498 35.079712 93.125 34.720688 C 96.095001 34.179749 99.053253 34.221756 102 34.846481 C 102.208252 34.762695 102.416748 34.678665 102.625 34.594887 C 101.899498 33.641571 100.983002 32.928787 99.875 32.456291 C 96.074501 31.33139 92.449501 31.708786 89 33.588486 C 88.570503 33.454887 88.528748 33.287071 88.875 33.085289 C 88.858749 33.19548 88.900253 33.279526 89 33.336884 C 92.900497 30.49205 97.025497 30.114655 101.375 32.204689 C 102.950996 33.648621 103.700996 35.36805 103.625 37.362473 C 102.532249 36.225502 101.198753 35.638519 99.625 35.60128 Z" opacity="0.973" stroke="none" fill-rule="evenodd" fill="#7b389f" id="path2"></path>
    </g>
    <g id="g3">
        <path d="M 129.125 38.117271 C 129.418747 38.062172 129.668747 38.145958 129.875 38.368874 C 129.512253 38.722618 129.179001 39.100021 128.875 39.50106 C 129.477997 40.013069 129.311249 40.264671 128.375 40.255867 C 128.083252 40.717049 127.791748 41.178474 127.5 41.639656 C 127.320503 41.878929 127.112251 41.920692 126.875 41.765457 C 127.223251 40.910278 127.514999 40.029678 127.75 39.123665 C 128.203003 38.752052 128.661255 38.416672 129.125 38.117271 Z" opacity="0.004" stroke="none" fill-rule="evenodd" fill="#000002" id="path3"></path>
    </g>
    <g id="g4">
        <path d="M 128.125 39.123665 C 128.664001 39.217262 128.664001 39.468864 128.125 39.878464 C 127.859497 39.645737 127.859497 39.394142 128.125 39.123665 Z" opacity="0.004" stroke="none" fill-rule="evenodd" fill="#000084" id="path4"></path>
    </g>
    <g id="g5">
        <path d="M 142.375 40.381668 C 142.653244 40.745476 142.695007 41.164894 142.5 41.639656 C 142.376495 41.228546 142.335007 40.809128 142.375 40.381668 Z" opacity="0.004" stroke="none" fill-rule="evenodd" fill="#000000" id="path5"></path>
    </g>
    <g id="g6">
        <path d="M 117.125 41.136459 C 117.752998 41.316605 117.752998 41.568207 117.125 41.891258 C 116.978249 41.706841 116.978249 41.455238 117.125 41.136459 Z" opacity="0.008" stroke="none" fill-rule="evenodd" fill="#060606" id="path6"></path>
    </g>
    <g id="g7">
        <path d="M 103.375 40.633263 C 102.700752 43.065468 101.1175 44.239677 98.625 44.155655 C 97.900749 44.25 97.234253 44.124199 96.625 43.778252 C 98.248497 43.761139 99.831749 43.509544 101.375 43.023453 C 101.929749 42.57988 102.429749 42.076683 102.875 41.513855 C 101.70475 41.640167 100.538254 41.849747 99.375 42.14286 C 98.785751 42.183861 98.202499 42.142105 97.625 42.017059 C 99.607002 41.769478 101.52375 41.308296 103.375 40.633263 Z" opacity="0.945" stroke="none" fill-rule="evenodd" fill="#19141a" id="path7"></path>
    </g>
    <g id="g8">
        <path d="M 98.625 44.155655 C 98.896248 44.567764 97.896248 44.609787 95.625 44.281448 C 95.272499 44.188866 95.022499 43.979286 94.875 43.652451 C 96.351501 43.26046 97.851501 43.008865 99.375 42.897652 C 99.375 42.646057 99.375 42.394455 99.375 42.14286 C 100.538254 41.849747 101.70475 41.640167 102.875 41.513855 C 102.429749 42.076683 101.929749 42.57988 101.375 43.023453 C 99.831749 43.509544 98.248497 43.761139 96.625 43.778252 C 97.234253 44.124199 97.900749 44.25 98.625 44.155655 Z" opacity="0.976" stroke="none" fill-rule="evenodd" fill="#7a399d" id="path8"></path>
    </g>
    <g id="g9">
        <path d="M 117.375 43.904053 C 117.57225 43.975258 117.738998 44.101059 117.875 44.281448 C 117.545998 44.414299 117.37925 44.288498 117.375 43.904053 Z" opacity="0.004" stroke="none" fill-rule="evenodd" fill="#000000" id="path9"></path>
    </g>
    <g id="g10">
        <path d="M 95.125 45.162048 C 93.098251 44.663887 91.139999 43.992867 89.25 43.149254 C 88.958252 43.23304 88.666748 43.31707 88.375 43.400848 C 89.005501 44.504875 89.755501 45.511261 90.625 46.420044 C 90.070999 46.243164 89.612747 45.907784 89.25 45.413643 C 88.742752 44.777351 88.2845 44.106339 87.875 43.400848 C 88.07 42.908974 88.445 42.657372 89 42.646057 C 91.128754 43.31707 93.170502 44.155655 95.125 45.162048 Z" opacity="0.898" stroke="none" fill-rule="evenodd" fill="#1d1516" id="path10"></path>
    </g>
    <g id="g11">
        <path d="M 103.875 44.658852 C 104.335999 44.835968 104.460999 45.171356 104.25 45.665245 C 104 45.329865 103.75 45.329865 103.5 45.665245 C 103.378998 45.239288 103.503998 44.903664 103.875 44.658852 Z" opacity="0.973" stroke="none" fill-rule="evenodd" fill="#25192b" id="path11"></path>
    </g>
    <g id="g12">
        <path d="M 95.125 45.162048 C 96.766502 45.641594 98.432999 46.103027 100.125 46.545845 C 102.458252 46.713654 104.791748 46.713654 107.125 46.545845 C 107.677002 46.497787 108.177002 46.371994 108.625 46.168442 C 110.119499 45.939735 111.619499 45.897972 113.125 46.042648 C 113.313004 46.211472 113.3965 46.421051 113.375 46.671638 C 112.917252 46.295502 112.375504 46.127686 111.75 46.168442 C 108.776001 46.72599 105.776001 47.061371 102.75 47.174835 C 100.018753 47.064644 97.476997 46.393875 95.125 45.162048 Z" opacity="0.957" stroke="none" fill-rule="evenodd" fill="#23191b" id="path12"></path>
    </g>
    <g id="g13">
        <path d="M 117.125 46.420044 C 117.444252 46.720451 117.611 47.13961 117.625 47.67804 C 117.583252 48.09745 117.541748 48.516624 117.5 48.936035 C 117.293503 48.107513 117.168503 47.268936 117.125 46.420044 Z" opacity="0.006" stroke="none" fill-rule="evenodd" fill="#000000" id="path13"></path>
    </g>
    <g id="g14">
        <path d="M 95.125 45.162048 C 97.476997 46.393875 100.018753 47.064644 102.75 47.174835 C 105.776001 47.061371 108.776001 46.72599 111.75 46.168442 C 112.375504 46.127686 112.917252 46.295502 113.375 46.671638 C 113.415749 47.264656 113.374252 47.851639 113.25 48.432838 C 112.536247 49.366524 111.661247 50.037285 110.625 50.445625 C 107.984001 50.933731 105.317253 51.059532 102.625 50.823029 C 100.521248 50.438332 98.437752 49.97715 96.375 49.439232 C 95.6175 48.960434 94.784248 48.624809 93.875 48.432838 C 92.835503 47.699677 91.752251 47.028664 90.625 46.420044 C 89.755501 45.511261 89.005501 44.504875 88.375 43.400848 C 88.666748 43.31707 88.958252 43.23304 89.25 43.149254 C 91.139999 43.992867 93.098251 44.663887 95.125 45.162048 Z" opacity="0.973" stroke="none" fill-rule="evenodd" fill="#e68665" id="path14"></path>
    </g>
    <g id="g15">
        <path d="M 90.625 46.420044 C 91.752251 47.028664 92.835503 47.699677 93.875 48.432838 C 92.591499 48.080856 91.508247 47.410088 90.625 46.420044 Z" opacity="0.914" stroke="none" fill-rule="evenodd" fill="#191317" id="path15"></path>
    </g>
    <g id="g16">
        <path d="M 90.125 44.910446 C 90.139999 44.773827 90.223251 44.690041 90.375 44.658852 C 97.097748 48.015945 104.181 49.148132 111.625 48.055443 C 110.834999 48.400383 110.001503 48.651978 109.125 48.810234 C 107.125 48.97805 105.125 48.97805 103.125 48.810234 C 100.544502 48.27961 97.96125 47.776413 95.375 47.300636 C 93.554001 46.635414 91.804001 45.838593 90.125 44.910446 Z" opacity="0.937" stroke="none" fill-rule="evenodd" fill="#221918" id="path16"></path>
    </g>
    <g id="g17">
        <path d="M 93.875 48.432838 C 94.784248 48.624809 95.6175 48.960434 96.375 49.439232 C 95.694748 49.322739 95.028 49.155174 94.375 48.936035 C 94.208252 48.768219 94.041748 48.600647 93.875 48.432838 Z" opacity="0.929" stroke="none" fill-rule="evenodd" fill="#14120e" id="path17"></path>
    </g>
    <g id="g18">
        <path d="M 113.375 46.671638 C 113.780502 48.793373 112.863747 50.051369 110.625 50.445625 C 111.661247 50.037285 112.536247 49.366524 113.25 48.432838 C 113.374252 47.851639 113.415749 47.264656 113.375 46.671638 Z" opacity="0.922" stroke="none" fill-rule="evenodd" fill="#22181a" id="path18"></path>
    </g>
    <g id="g19">
        <path d="M 97.875 67.805969 C 97.789497 68.016815 97.623001 68.100845 97.375 68.057571 C 96.558746 67.9841 95.808746 68.151924 95.125 68.560768 C 94.889503 68.533592 94.681252 68.449814 94.5 68.309166 C 93.81575 66.912537 93.732498 65.486725 94.25 64.031982 C 95.152252 63.41959 95.694 62.581013 95.875 61.515991 C 95.263 59.182156 94.721252 56.833984 94.25 54.471218 C 93.079498 54.259872 91.954498 53.924492 90.875 53.464821 C 90.950996 53.301277 91.034248 53.133461 91.125 52.961617 C 90.707253 52.455902 90.540497 51.868919 90.625 51.200424 C 91.025749 51.15313 91.359253 51.278931 91.625 51.577827 C 91.294746 51.966545 91.377998 52.259911 91.875 52.45842 C 93.417747 51.939873 94.751251 52.275261 95.875 53.464821 C 96.208252 53.213219 96.541748 52.961617 96.875 52.710022 C 97.0215 52.762604 97.1465 52.846634 97.25 52.961617 C 97.568253 55.222996 97.901497 57.487389 98.25 59.754795 C 98.62175 59.442566 98.830002 59.568363 98.875 60.132198 C 98.699997 60.95417 98.449997 61.750988 98.125 62.522388 C 98.180496 62.913624 98.347252 63.24926 98.625 63.528782 C 98.538498 63.829697 98.413498 63.829697 98.25 63.528782 C 97.917 64.800125 98.208748 65.890297 99.125 66.799576 C 98.755249 67.372971 98.338501 67.708344 97.875 67.805969 Z" stroke="none" fill-rule="evenodd" fill="#925eae" id="path19"></path>
    </g>
    <g id="g20">
        <path d="M 94.375 48.936035 C 95.028 49.155174 95.694748 49.322739 96.375 49.439232 C 98.663498 50.455185 101.080002 51.042168 103.625 51.200424 C 103.872498 53.036346 104.039001 54.881325 104.125 56.735607 C 103.897751 56.031887 103.481003 55.444904 102.875 54.974411 C 102.539749 53.760193 102.039749 52.628006 101.375 51.577827 C 100.004501 51.044182 98.587753 50.708809 97.125 50.571426 C 96.298752 50.100189 95.423752 49.722794 94.5 49.439232 C 94.070503 49.305634 94.028748 49.137817 94.375 48.936035 Z" opacity="0.973" stroke="none" fill-rule="evenodd" fill="#7b389f" id="path20"></path>
    </g>
    <g id="g21">
        <path d="M 114.375 44.658852 C 114.217751 48.301003 114.426247 51.907417 115 55.477612 C 115.579498 56.644028 116.16275 57.817989 116.75 59 C 117.541748 59.964378 118.333252 60.929012 119.125 61.893391 C 118.685997 61.928616 118.269501 61.802814 117.875 61.515991 C 117.791748 61.599773 117.708252 61.683811 117.625 61.76759 C 118.169998 62.167633 118.75325 62.503265 119.375 62.773987 C 118.634499 63.593445 118.176247 64.516068 118 65.541573 C 118.166748 65.876968 118.333252 65.876968 118.5 65.541573 C 118.648003 64.317039 119.231247 63.394432 120.25 62.773987 C 122.132004 63.426636 124.007004 63.426636 125.875 62.773987 C 125.621002 63.626152 125.621002 64.548523 125.875 65.541573 C 126.110001 64.710541 126.318253 63.871967 126.5 63.025589 C 126.845497 62.385769 127.303749 61.882572 127.875 61.515991 C 128.160248 62.497478 128.3685 63.503876 128.5 64.535179 C 128.862747 65.029312 129.320999 65.364708 129.875 65.541573 C 129.427002 65.745117 128.927002 65.870918 128.375 65.918976 C 128.208252 66.086792 128.041748 66.254356 127.875 66.422173 C 129.074005 66.203278 130.240494 66.371101 131.375 66.925369 C 131.953995 67.294716 132.037247 67.755898 131.625 68.309166 C 131.843246 70.46814 133.009995 71.516556 135.125 71.454155 C 135.683502 71.210358 136.183502 70.874977 136.625 70.447762 C 135.6745 70.70816 134.757751 70.582367 133.875 70.070358 C 133.875 70.32196 133.875 70.573563 133.875 70.825165 C 133.146255 70.522232 132.604752 70.019035 132.25 69.315559 C 132.232498 68.491577 132.19075 67.694771 132.125 66.925369 C 133.037994 66.799828 133.954498 66.758057 134.875 66.799576 C 137.969757 67.021233 138.677994 68.447044 137 71.076767 C 136.437256 71.549011 135.812256 71.926414 135.125 72.208954 C 130.633255 73.305428 127.716499 71.670036 126.375 67.30278 C 126.20575 68.034676 126.122253 68.747452 126.125 69.441368 C 123.324753 69.893738 120.657997 69.516342 118.125 68.309166 C 117.821747 69.186249 117.488503 70.025078 117.125 70.825165 C 116.7145 70.848801 116.256248 70.764778 115.75 70.573563 C 115.620499 67.871635 115.328751 65.18782 114.875 62.522388 C 114.964996 61.992016 115.131752 61.488819 115.375 61.012794 C 114.797249 59.682587 114.088997 58.424591 113.25 57.238808 C 112.98275 55.398357 112.774498 53.553383 112.625 51.703629 C 113.376251 51.640724 113.834503 51.976112 114 52.710022 C 114.042503 49.982437 114.167503 47.29863 114.375 44.658852 Z" stroke="none" fill-rule="evenodd" fill="#7f3ea2" id="path21"></path>
    </g>
    <g id="g22">
        <path d="M 96.375 49.439232 C 98.437752 49.97715 100.521248 50.438332 102.625 50.823029 C 105.317253 51.059532 107.984001 50.933731 110.625 50.445625 C 110.180748 50.722389 109.680748 50.932228 109.125 51.074623 C 108.19725 51.118652 107.280502 51.244453 106.375 51.452026 C 107.540497 53.292473 108.790497 55.053665 110.125 56.735607 C 110.447502 56.875999 110.655746 57.127598 110.75 57.490406 C 111.237747 59.353497 110.779503 60.904858 109.375 62.144989 C 108.881752 62.269531 108.381752 62.311546 107.875 62.27079 C 107.351753 62.133667 106.851753 61.924084 106.375 61.641788 C 105.11525 60.222771 104.36525 58.587379 104.125 56.735607 C 104.039001 54.881325 103.872498 53.036346 103.625 51.200424 C 101.080002 51.042168 98.663498 50.455185 96.375 49.439232 Z" opacity="0.925" stroke="none" fill-rule="evenodd" fill="#21161d" id="path22"></path>
    </g>
    <g id="g23">
        <path d="M 110.125 56.735607 C 110.91375 58.55442 110.66375 60.189816 109.375 61.641788 C 108.222 62.223236 107.222 62.013405 106.375 61.012794 C 105.526497 60.092697 104.985001 59.002266 104.75 57.742004 C 104.659752 55.630081 104.4515 53.533257 104.125 51.452026 C 104.811752 51.373276 105.4785 51.457062 106.125 51.703629 C 107.186996 53.609741 108.520248 55.287151 110.125 56.735607 Z" opacity="0.973" stroke="none" fill-rule="evenodd" fill="#ef3dad" id="path23"></path>
    </g>
    <g id="g24">
        <path d="M 117.375 51.703629 C 117.56675 51.872704 117.733498 52.082283 117.875 52.332626 C 117.872749 52.767883 117.789497 53.229065 117.625 53.716423 C 117.379997 53.065781 117.296753 52.394775 117.375 51.703629 Z" opacity="0.008" stroke="none" fill-rule="evenodd" fill="#080808" id="path24"></path>
    </g>
    <g id="g25">
        <path d="M 105.125 32.33049 C 105.755249 31.948318 106.380249 31.528893 107 31.072495 C 107.471252 30.465134 107.638 29.794121 107.5 29.0597 C 106.625 28.346924 105.75 27.633896 104.875 26.921112 C 101.970001 25.845016 98.970001 25.509644 95.875 25.914711 C 91.737999 26.727379 88.779503 29.033531 87 32.833687 C 86.203003 36.227509 85.953003 39.666115 86.25 43.149254 C 87.143997 46.225311 87.977249 49.328278 88.75 52.45842 C 89.331497 53.054466 90.040001 53.390091 90.875 53.464821 C 91.954498 53.924492 93.079498 54.259872 94.25 54.471218 C 94.721252 56.833984 95.263 59.182156 95.875 61.515991 C 95.694 62.581013 95.152252 63.41959 94.25 64.031982 C 93.732498 65.486725 93.81575 66.912537 94.5 68.309166 C 94.681252 68.449814 94.889503 68.533592 95.125 68.560768 C 95.808746 68.151924 96.558746 67.9841 97.375 68.057571 C 96.465752 68.76355 95.674004 69.602142 95 70.573563 C 94.026001 69.510559 93.151001 68.378357 92.375 67.176971 C 93.842499 63.324234 94.300751 59.340412 93.75 55.226013 C 92.972 54.415108 92.097 54.289307 91.125 54.848614 C 89.608498 56.517467 88.44175 58.404461 87.625 60.509594 C 87.458252 60.090176 87.291748 59.671017 87.125 59.251598 C 86.712502 55.503277 86.00425 51.813065 85 48.181236 C 84.750252 46.430099 84.625252 44.668907 84.625 42.897652 C 84.167747 38.229736 85.167747 33.952553 87.625 30.066093 C 91.065002 25.960251 95.481499 24.241051 100.875 24.908318 C 105.769249 25.504097 109.644249 27.810516 112.5 31.827293 C 112.671997 32.036621 112.630249 32.204185 112.375 32.33049 C 109.961746 31.676834 107.544998 31.676834 105.125 32.33049 Z" opacity="0.973" stroke="none" fill-rule="evenodd" fill="#7d3ba1" id="path25"></path>
    </g>
    <g id="g26">
        <path d="M 134.125 50.194031 C 134.809998 51.383339 134.768494 52.557549 134 53.716423 C 133.916748 52.540436 133.958252 51.366478 134.125 50.194031 Z" opacity="0.012" stroke="none" fill-rule="evenodd" fill="#8a3eae" id="path26"></path>
    </g>
    <g id="g27">
        <path d="M 104.875 52.961617 C 105.205498 52.918854 105.497253 53.002632 105.75 53.213219 C 106.471748 55.085621 107.388496 56.846813 108.5 58.496803 C 108.705254 59.265186 108.66375 60.019981 108.375 60.761192 C 107.607498 60.986626 106.982498 60.735027 106.5 60.006397 C 105.348747 57.818493 104.806999 55.470314 104.875 52.961617 Z" opacity="0.973" stroke="none" fill-rule="evenodd" fill="#fe48d7" id="path27"></path>
    </g>
    <g id="g28">
        <path d="M 115.375 53.464821 C 115.708252 53.632637 115.708252 53.632637 115.375 53.464821 Z" opacity="0.008" stroke="none" fill-rule="evenodd" fill="#010000" id="path28"></path>
    </g>
    <g id="g29">
        <path d="M 87.375 74.850754 C 87.208252 74.850754 87.041748 74.850754 86.875 74.850754 C 86.291496 74.011917 85.833252 73.089302 85.5 72.08316 C 85.37925 72.321671 85.337753 72.573273 85.375 72.837952 C 85.448753 73.400276 85.36525 73.903465 85.125 74.347549 C 84.411247 72.970299 84.494751 71.62851 85.375 70.32196 C 85.333252 70.238174 85.291748 70.154152 85.25 70.070358 C 84.872498 70.500099 84.497498 70.919258 84.125 71.328362 C 83.719254 69.796371 84.261002 68.706192 85.75 68.057571 C 85.865997 68.207016 85.907753 68.374832 85.875 68.560768 C 85.889999 68.697388 85.973251 68.781174 86.125 68.812363 C 86.37175 67.990135 86.455002 67.151314 86.375 66.296371 C 86.674248 64.505249 87.090752 62.744045 87.625 61.012794 C 88.613251 58.883511 89.863251 56.912735 91.375 55.100212 C 92.238998 54.817665 92.947502 55.027252 93.5 55.72921 C 94.057251 60.483681 93.182251 64.92868 90.875 69.063965 C 91.000504 69.320847 91.167 69.362869 91.375 69.189774 C 91.554497 68.689835 91.804497 68.228409 92.125 67.805969 C 93.249496 68.992767 94.082748 70.250763 94.625 71.579964 C 95.405746 70.667908 96.238998 69.787315 97.125 68.938171 C 98.041748 68.434967 98.958252 68.434967 99.875 68.938171 C 100.333252 69.399353 100.791748 69.860779 101.25 70.32196 C 101.412003 71.376915 100.953751 71.963898 99.875 72.08316 C 99.094254 71.647644 98.261002 71.438057 97.375 71.454155 C 98.590752 72.005165 99.674004 72.759956 100.625 73.718552 C 101.343498 74.20137 102.093498 74.327164 102.875 74.095947 C 102.258499 73.939201 101.675247 73.72937 101.125 73.466957 C 101.327003 73.389458 101.493752 73.263657 101.625 73.089546 C 101.144249 72.886261 100.644249 72.760452 100.125 72.712158 C 100.739754 72.468102 101.322998 72.174492 101.875 71.831558 C 104.499001 73.00351 105.290749 74.932266 104.25 77.618332 C 102.99025 78.994591 101.448502 79.455772 99.625 79.002129 C 100.00425 79.381546 100.462753 79.591377 101 79.631134 C 101.697998 79.450989 102.406502 79.367203 103.125 79.379532 C 103.17675 80.562302 102.760002 81.526924 101.875 82.272919 C 100.689247 82.409546 99.522499 82.409546 98.375 82.272919 C 98.582001 82.503143 98.832001 82.6707 99.125 82.776115 C 99.791748 82.859909 100.458252 82.943932 101.125 83.02771 C 97.609253 84.418808 94.817497 83.538208 92.75 80.385925 C 91.560249 78.747772 90.560249 76.986572 89.75 75.102348 C 89.320999 74.837662 89.070999 75.005226 89 75.605545 C 88.208252 74.305527 87.416748 73.005768 86.625 71.70575 C 86.458252 71.537949 86.291748 71.537949 86.125 71.70575 C 86.786499 72.659065 87.203003 73.707474 87.375 74.850754 Z" stroke="none" fill-rule="evenodd" fill="#803ea3" id="path29"></path>
    </g>
    <g id="g30">
        <path d="M 117.625 55.980808 C 117.958252 56.148628 117.958252 56.148628 117.625 55.980808 Z" opacity="0.004" stroke="none" fill-rule="evenodd" fill="#000000" id="path30"></path>
    </g>
    <g id="g31">
        <path d="M 70.125 57.238808 C 71.233253 57.418449 72.150002 57.921646 72.875 58.748402 C 72.708252 58.748402 72.625 58.832184 72.625 59 C 71.817749 58.138271 70.817749 57.802891 69.625 57.993603 C 69.887749 57.811947 70.054497 57.560349 70.125 57.238808 Z" stroke="none" fill-rule="evenodd" fill="#271730" id="path31"></path>
    </g>
    <g id="g32">
        <path d="M 117.625 56.23241 C 117.853249 57.013878 118.061501 57.768673 118.25 58.496803 C 117.69825 57.848179 117.239998 57.135399 116.875 56.358212 C 117.087997 55.923447 117.337997 55.881428 117.625 56.23241 Z" opacity="0.029" stroke="none" fill-rule="evenodd" fill="#0b0b0b" id="path32"></path>
    </g>
    <g id="g33">
        <path d="M 90.875 57.238808 C 91.125 57.238808 91.375 57.238808 91.625 57.238808 C 91.029251 59.768635 90.320747 62.284622 89.5 64.786781 C 89.456749 66.065918 89.290253 67.323906 89 68.560768 C 88.827751 68.776382 88.619499 68.943962 88.375 69.063965 C 87.982246 68.860428 87.565498 68.776382 87.125 68.812363 C 86.692497 67.011429 86.817497 65.250229 87.5 63.528782 C 88.366501 61.280746 89.491501 59.18417 90.875 57.238808 Z" stroke="none" fill-rule="evenodd" fill="#925dae" id="path33"></path>
    </g>
    <g id="g34">
        <path d="M 118.625 58.245205 C 119.096001 58.298542 119.429253 58.55014 119.625 59 C 119.054749 59.191715 118.721497 58.940117 118.625 58.245205 Z" opacity="0.014" stroke="none" fill-rule="evenodd" fill="#0b0b0b" id="path34"></path>
    </g>
    <g id="g35">
        <path d="M 118.375 62.773987 C 118.51075 62.789082 118.594002 62.872868 118.625 63.025589 C 118.109253 63.544136 117.692497 64.131119 117.375 64.786781 C 117.104248 64.569145 117.062752 64.317551 117.25 64.031982 C 117.67675 63.645275 118.05175 63.225861 118.375 62.773987 Z" stroke="none" fill-rule="evenodd" fill="#371d39" id="path35"></path>
    </g>
    <g id="g36">
        <path d="M 132.875 66.296371 C 132.544495 66.253601 132.252747 66.337379 132 66.547974 C 131.591995 66.289322 131.216995 66.03772 130.875 65.793175 C 131.254257 65.790421 131.546005 65.622849 131.75 65.289978 C 131.785004 64.590279 132.076508 64.045319 132.625 63.654583 C 134.337494 63.130001 136.004257 63.213783 137.625 63.906185 C 138.713501 64.859741 138.880249 65.949921 138.125 67.176971 C 136.453506 66.581436 134.703506 66.287827 132.875 66.296371 Z" stroke="none" fill-rule="evenodd" fill="#7f3ea2" id="path36"></path>
    </g>
    <g id="g37">
        <path d="M 133.875 64.535179 C 135.073746 64.368881 136.156998 64.620468 137.125 65.289978 C 137.539505 66.359016 137.330994 66.52684 136.5 65.793175 C 136.276749 65.939354 136.026749 66.023392 135.75 66.044769 C 135.093002 65.7099 134.384506 65.500313 133.625 65.415787 C 133.510757 65.311615 133.427246 65.185822 133.375 65.038376 C 133.560745 64.866791 133.727249 64.698967 133.875 64.535179 Z" stroke="none" fill-rule="evenodd" fill="#915cae" id="path37"></path>
    </g>
    <g id="g38">
        <path d="M 129.875 65.541573 C 130.177002 65.726257 130.510254 65.810028 130.875 65.793175 C 131.216995 66.03772 131.591995 66.289322 132 66.547974 C 132.252747 66.337379 132.544495 66.253601 132.875 66.296371 C 133.541748 66.464188 134.208252 66.63176 134.875 66.799576 C 133.954498 66.758057 133.037994 66.799828 132.125 66.925369 C 132.19075 67.694771 132.232498 68.491577 132.25 69.315559 C 132.604752 70.019035 133.146255 70.522232 133.875 70.825165 C 133.875 70.573563 133.875 70.32196 133.875 70.070358 C 134.757751 70.582367 135.6745 70.70816 136.625 70.447762 C 136.183502 70.874977 135.683502 71.210358 135.125 71.454155 C 133.009995 71.516556 131.843246 70.46814 131.625 68.309166 C 132.037247 67.755898 131.953995 67.294716 131.375 66.925369 C 130.240494 66.371101 129.074005 66.203278 127.875 66.422173 C 128.041748 66.254356 128.208252 66.086792 128.375 65.918976 C 128.927002 65.870918 129.427002 65.745117 129.875 65.541573 Z" stroke="none" fill-rule="evenodd" fill="#281728" id="path38"></path>
    </g>
    <g id="g39">
        <path d="M 118.375 67.051178 C 120.24575 67.059982 122.079247 67.269569 123.875 67.680168 C 124.208252 67.763962 124.541748 67.847984 124.875 67.931763 C 125.231247 68.363007 125.148003 68.698395 124.625 68.938171 C 122.64325 69.198318 120.726501 68.946716 118.875 68.183365 C 118.490753 67.904091 118.324249 67.526703 118.375 67.051178 Z" stroke="none" fill-rule="evenodd" fill="#925eae" id="path39"></path>
    </g>
    <g id="g40">
        <path d="M 97.375 68.057571 C 97.623001 68.100845 97.789497 68.016815 97.875 67.805969 C 100.0755 68.009018 101.408752 69.183228 101.875 71.328362 C 102.327003 71.326096 102.743752 71.451889 103.125 71.70575 C 106.015503 74.115578 106.098747 76.589546 103.375 79.127937 C 103.703003 80.498901 103.369751 81.672852 102.375 82.650322 C 101.740501 82.733597 101.323997 83.068985 101.125 83.656715 C 97.892754 84.726761 95.18425 83.971962 93 81.392319 C 92.486504 80.751495 92.028252 80.08049 91.625 79.379532 C 90.833748 78.29187 90.167252 77.117905 89.625 75.857147 C 89.307999 76.09063 88.974747 76.132645 88.625 75.982941 C 88.42775 75.387909 88.136002 74.84269 87.75 74.347549 C 87.680496 74.578011 87.555496 74.745583 87.375 74.850754 C 87.203003 73.707474 86.786499 72.659065 86.125 71.70575 C 86.291748 71.537949 86.458252 71.537949 86.625 71.70575 C 87.416748 73.005768 88.208252 74.305527 89 75.605545 C 89.070999 75.005226 89.320999 74.837662 89.75 75.102348 C 90.560249 76.986572 91.560249 78.747772 92.75 80.385925 C 94.817497 83.538208 97.609253 84.418808 101.125 83.02771 C 100.458252 82.943932 99.791748 82.859909 99.125 82.776115 C 98.832001 82.6707 98.582001 82.503143 98.375 82.272919 C 99.522499 82.409546 100.689247 82.409546 101.875 82.272919 C 102.760002 81.526924 103.17675 80.562302 103.125 79.379532 C 102.406502 79.367203 101.697998 79.450989 101 79.631134 C 100.462753 79.591377 100.00425 79.381546 99.625 79.002129 C 101.448502 79.455772 102.99025 78.994591 104.25 77.618332 C 105.290749 74.932266 104.499001 73.00351 101.875 71.831558 C 101.322998 72.174492 100.739754 72.468102 100.125 72.712158 C 100.644249 72.760452 101.144249 72.886261 101.625 73.089546 C 101.493752 73.263657 101.327003 73.389458 101.125 73.466957 C 101.675247 73.72937 102.258499 73.939201 102.875 74.095947 C 102.093498 74.327164 101.343498 74.20137 100.625 73.718552 C 99.674004 72.759956 98.590752 72.005165 97.375 71.454155 C 98.261002 71.438057 99.094254 71.647644 99.875 72.08316 C 100.953751 71.963898 101.412003 71.376915 101.25 70.32196 C 100.791748 69.860779 100.333252 69.399353 99.875 68.938171 C 98.958252 68.434967 98.041748 68.434967 97.125 68.938171 C 96.238998 69.787315 95.405746 70.667908 94.625 71.579964 C 94.082748 70.250763 93.249496 68.992767 92.125 67.805969 C 91.804497 68.228409 91.554497 68.689835 91.375 69.189774 C 91.167 69.362869 91.000504 69.320847 90.875 69.063965 C 93.182251 64.92868 94.057251 60.483681 93.5 55.72921 C 92.947502 55.027252 92.238998 54.817665 91.375 55.100212 C 89.863251 56.912735 88.613251 58.883511 87.625 61.012794 C 87.625 60.844975 87.625 60.677414 87.625 60.509594 C 88.44175 58.404461 89.608498 56.517467 91.125 54.848614 C 92.097 54.289307 92.972 54.415108 93.75 55.226013 C 94.300751 59.340412 93.842499 63.324234 92.375 67.176971 C 93.151001 68.378357 94.026001 69.510559 95 70.573563 C 95.674004 69.602142 96.465752 68.76355 97.375 68.057571 Z" stroke="none" fill-rule="evenodd" fill="#1d121b" id="path40"></path>
    </g>
    <g id="g41">
        <path d="M 110.875 41.891258 C 110.268997 41.813766 109.685753 41.897804 109.125 42.14286 C 109.827248 42.469933 110.494003 42.469933 111.125 42.14286 C 112.208504 41.932266 113.292 41.806465 114.375 41.765457 C 114.017998 42.315201 113.60125 42.818398 113.125 43.275055 C 112.057503 43.590561 110.973999 43.842155 109.875 44.029854 C 111.637253 44.504364 113.095497 44.043182 114.25 42.646057 C 114.374252 43.311783 114.416 43.982803 114.375 44.658852 C 114.167503 47.29863 114.042503 49.982437 114 52.710022 C 113.834503 51.976112 113.376251 51.640724 112.625 51.703629 C 112.774498 53.553383 112.98275 55.398357 113.25 57.238808 C 114.088997 58.424591 114.797249 59.682587 115.375 61.012794 C 115.131752 61.488819 114.964996 61.992016 114.875 62.522388 C 115.328751 65.18782 115.620499 67.871635 115.75 70.573563 C 116.256248 70.764778 116.7145 70.848801 117.125 70.825165 C 116.726501 72.428352 116.101501 73.937943 115.25 75.353951 C 113.875 77.07312 112.333252 78.624741 110.625 80.00853 C 110.819 80.453857 110.777496 80.915039 110.5 81.392319 C 108.57 85.389481 105.611748 88.324883 101.625 90.198296 C 102.111748 90.645142 102.195 91.148338 101.875 91.707893 C 101.215752 90.974228 100.674248 91.058006 100.25 91.959488 C 100.019249 91.642731 99.810753 91.307335 99.625 90.953094 C 98.873749 91.687759 98.415497 91.520203 98.25 90.449898 C 97.972504 90.836601 97.597504 91.004173 97.125 90.953094 C 97.084 90.277046 97.125748 89.606026 97.25 88.940292 C 98.155998 88.213432 99.030998 87.458633 99.875 86.675911 C 100.664253 86.238373 101.08075 85.651398 101.125 84.914711 C 100.696251 85.514023 100.196251 86.01722 99.625 86.424309 C 97.042252 88.730217 94.042252 90.239807 90.625 90.953094 C 90.987503 91.292747 91.154251 91.711914 91.125 92.211082 C 90.311249 92.333366 89.644501 92.081764 89.125 91.456291 C 88.903503 91.663857 88.820251 91.915459 88.875 92.211082 C 87.90625 92.368591 87.447746 91.949181 87.5 90.953094 C 87.203499 91.500824 86.745247 91.752419 86.125 91.707893 C 86.082497 91.375282 86.165749 91.081657 86.375 90.827286 C 86.112747 90.703506 85.862747 90.745277 85.625 90.953094 C 84.708252 90.701492 84.625 90.282082 85.375 89.695099 C 81.93325 88.675369 79.43325 86.536774 77.875 83.279312 C 75.979752 82.547165 74.354752 81.41497 73 79.882729 C 72.828003 79.673401 72.869751 79.505829 73.125 79.379532 C 74.1175 80.027649 75.200752 80.321014 76.375 80.260132 C 74.651749 79.644714 72.985001 78.889908 71.375 77.995735 C 69.514748 76.335938 69.014748 74.365158 69.875 72.08316 C 70.450996 72.747635 71.0345 73.418648 71.625 74.095947 C 72.175499 74.540779 72.758751 74.834396 73.375 74.97654 C 69.958504 72.590134 68.5 69.361099 69 65.289978 C 69.092003 64.935226 69.300247 64.683624 69.625 64.535179 C 70.194 65.403442 70.819 66.242027 71.5 67.051178 C 71.999496 67.651237 72.541252 67.98661 73.125 68.057571 C 70.742996 65.820099 69.326248 63.094524 68.875 59.880596 C 68.776497 59.08353 69.026497 58.454533 69.625 57.993603 C 70.817749 57.802891 71.817749 58.138271 72.625 59 C 74.452499 60.256233 76.369247 61.388432 78.375 62.396587 C 80.639748 63.255295 82.973 63.590679 85.375 63.402985 C 86.071747 63.330524 86.488251 62.953129 86.625 62.27079 C 86.708252 62.27079 86.791748 62.27079 86.875 62.27079 C 86.547997 63.346626 86.297997 64.437057 86.125 65.541573 C 85.915497 65.627632 85.832001 65.795189 85.875 66.044769 C 83.428253 65.577553 81.011749 64.948563 78.625 64.157784 C 76.732002 63.079681 74.815247 62.073284 72.875 61.138596 C 72.235001 60.493492 71.526749 59.948277 70.75 59.503197 C 70.556999 59.53968 70.390251 59.623463 70.25 59.754795 C 70.099503 60.439396 70.141251 61.110161 70.375 61.76759 C 71.55175 64.722626 73.17675 67.406425 75.25 69.818756 C 75.373749 70.31517 75.415497 70.818367 75.375 71.328362 C 73.505249 71.184196 71.921753 70.429398 70.625 69.063965 C 70.541748 69.147751 70.458252 69.231781 70.375 69.315559 C 70.700752 69.936508 71.075752 70.523491 71.5 71.076767 C 73.278252 72.702339 75.07 74.295723 76.875 75.857147 C 76.340752 76.400597 75.674004 76.652199 74.875 76.611938 C 73.387749 76.325623 71.971001 75.822426 70.625 75.102348 C 70.541748 75.186127 70.458252 75.270157 70.375 75.353951 C 70.742996 76.185471 71.326248 76.814476 72.125 77.240944 C 73.878998 78.118515 75.628998 78.9571 77.375 79.756927 C 77.666252 80.029663 77.999496 80.239243 78.375 80.385925 C 78.596497 80.593498 78.679749 80.845093 78.625 81.140717 C 78.178001 81.069023 77.761253 81.152802 77.375 81.392319 C 78.473251 83.126343 79.931503 84.468376 81.75 85.417908 C 82.352753 85.260147 82.977753 85.260147 83.625 85.417908 C 83.553749 85.867767 83.637001 86.287178 83.875 86.675911 C 85.692253 88.114799 87.609001 88.366402 89.625 87.430702 C 90.137497 87.575874 90.387497 87.911263 90.375 88.437096 C 94.487747 88.00209 98.070999 86.408707 101.125 83.656715 C 101.323997 83.068985 101.740501 82.733597 102.375 82.650322 C 102.761002 82.599251 103.094498 82.431427 103.375 82.147125 C 103.660248 82.63044 103.702003 83.133636 103.5 83.656715 C 102.720497 84.975098 102.012001 86.316879 101.375 87.682304 C 101.91375 87.714508 102.41375 87.588707 102.875 87.304901 C 107.988503 82.738632 111.613503 77.161423 113.75 70.573563 C 113.916748 69.98658 113.916748 69.399353 113.75 68.812363 C 113.495247 69.111023 113.203499 69.362625 112.875 69.567162 C 111.404251 69.28009 111.320999 68.860672 112.625 68.309166 C 112.797997 68.441254 112.922997 68.609077 113 68.812363 C 113.226997 68.324509 113.601997 68.072914 114.125 68.057571 C 114.555252 66.238754 114.388748 64.477562 113.625 62.773987 C 113.401001 63.027096 113.234497 63.027096 113.125 62.773987 C 113.458252 62.354568 113.791748 61.93541 114.125 61.515991 C 114.041748 61.432213 113.958252 61.348171 113.875 61.264393 C 111.982246 62.55283 109.982246 62.88821 107.875 62.27079 C 108.381752 62.311546 108.881752 62.269531 109.375 62.144989 C 110.779503 60.904858 111.237747 59.353497 110.75 57.490406 C 110.655746 57.127598 110.447502 56.875999 110.125 56.735607 C 108.790497 55.053665 107.540497 53.292473 106.375 51.452026 C 107.280502 51.244453 108.19725 51.118652 109.125 51.074623 C 109.680748 50.932228 110.180748 50.722389 110.625 50.445625 C 112.863747 50.051369 113.780502 48.793373 113.375 46.671638 C 113.3965 46.421051 113.313004 46.211472 113.125 46.042648 C 111.619499 45.897972 110.119499 45.939735 108.625 46.168442 C 109.1185 45.814697 109.6185 45.437294 110.125 45.036247 C 109.239998 44.85157 108.406754 44.557961 107.625 44.155655 C 108.480751 44.004944 109.230751 43.669563 109.875 43.149254 C 108.430252 42.987228 107.013496 42.693611 105.625 42.268661 C 105.357246 42.054298 105.107246 41.844711 104.875 41.639656 C 105.218246 41.679153 105.55175 41.637138 105.875 41.513855 C 105.204002 41.318115 104.62075 40.982735 104.125 40.507462 C 107.325249 41.54129 110.575249 41.625069 113.875 40.759064 C 114.37925 40.589478 114.795753 40.295868 115.125 39.878464 C 115.320503 40.338638 115.153999 40.716034 114.625 41.010658 C 113.398247 41.41674 112.148247 41.710365 110.875 41.891258 Z" opacity="0.973" stroke="none" fill-rule="evenodd" fill="#7c399f" id="path41"></path>
    </g>
    <g id="g42">
        <path d="M 85.875 66.547974 C 86.208252 67.218979 86.208252 67.889755 85.875 68.560768 C 85.907753 68.374832 85.865997 68.207016 85.75 68.057571 C 84.261002 68.706192 83.719254 69.796371 84.125 71.328362 C 84.497498 70.919258 84.872498 70.500099 85.25 70.070358 C 85.291748 70.154152 85.333252 70.238174 85.375 70.32196 C 84.494751 71.62851 84.411247 72.970299 85.125 74.347549 C 85.139999 74.484161 85.223251 74.567947 85.375 74.599152 C 85.699249 73.976944 85.699249 73.389709 85.375 72.837952 C 85.337753 72.573273 85.37925 72.321671 85.5 72.08316 C 85.833252 73.089302 86.291496 74.011917 86.875 74.850754 C 86.481499 74.740799 86.189751 74.489197 86 74.095947 C 85.972504 74.887482 85.639252 75.139084 85 74.850754 C 84.09375 73.90976 83.885498 72.819328 84.375 71.579964 C 83.464249 71.358047 83.172501 70.770813 83.5 69.818756 C 84.083252 68.896149 84.833252 68.14135 85.75 67.554375 C 85.872498 67.22905 85.914253 66.893417 85.875 66.547974 Z" stroke="none" fill-rule="evenodd" fill="#1f151c" id="path42"></path>
    </g>
    <g id="g43">
        <path d="M 85.375 72.837952 C 85.699249 73.389709 85.699249 73.976944 85.375 74.599152 C 85.223251 74.567947 85.139999 74.484161 85.125 74.347549 C 85.36525 73.903465 85.448753 73.400276 85.375 72.837952 Z" stroke="none" fill-rule="evenodd" fill="#4f275b" id="path43"></path>
    </g>
    <g id="g44">
        <path d="M 86.125 65.541573 C 86.06575 65.866394 86.149002 66.117996 86.375 66.296371 C 86.455002 67.151314 86.37175 67.990135 86.125 68.812363 C 85.973251 68.781174 85.889999 68.697388 85.875 68.560768 C 86.208252 67.889755 86.208252 67.218979 85.875 66.547974 C 85.875 66.380165 85.875 66.212593 85.875 66.044769 C 85.832001 65.795189 85.915497 65.627632 86.125 65.541573 Z" stroke="none" fill-rule="evenodd" fill="#532a61" id="path44"></path>
    </g>
    <g id="g45">
        <path d="M 94.625 61.515991 C 95.25325 61.896664 95.169998 62.23204 94.375 62.522388 C 94.291748 62.43861 94.208252 62.354568 94.125 62.27079 C 94.403 62.078316 94.569748 61.826717 94.625 61.515991 Z" opacity="0.957" stroke="none" fill-rule="evenodd" fill="#3a2147" id="path45"></path>
    </g>
    <g id="g46">
        <path d="M 70.375 61.76759 C 70.638 61.730103 70.888 61.771866 71.125 61.893391 C 71.931252 62.696743 72.806252 63.409527 73.75 64.031982 C 73.959999 65.670647 74.834999 66.802841 76.375 67.428566 C 77.769249 68.604294 78.894249 69.988083 79.75 71.579964 C 80.809502 72.557671 81.72625 73.564056 82.5 74.599152 C 82.091248 74.259743 81.716248 74.301758 81.375 74.724945 C 82.393997 75.832489 83.310753 77.006439 84.125 78.247337 C 85.73925 78.996849 87.36425 79.709877 89 80.385925 C 89.393501 80.01255 89.726753 79.593132 90 79.127937 C 90.500748 79.62056 91.042252 79.704338 91.625 79.379532 C 92.028252 80.08049 92.486504 80.751495 93 81.392319 C 95.18425 83.971962 97.892754 84.726761 101.125 83.656715 C 98.070999 86.408707 94.487747 88.00209 90.375 88.437096 C 90.387497 87.911263 90.137497 87.575874 89.625 87.430702 C 87.609001 88.366402 85.692253 88.114799 83.875 86.675911 C 83.637001 86.287178 83.553749 85.867767 83.625 85.417908 C 82.977753 85.260147 82.352753 85.260147 81.75 85.417908 C 79.931503 84.468376 78.473251 83.126343 77.375 81.392319 C 77.761253 81.152802 78.178001 81.069023 78.625 81.140717 C 78.679749 80.845093 78.596497 80.593498 78.375 80.385925 C 77.999496 80.239243 77.666252 80.029663 77.375 79.756927 C 75.628998 78.9571 73.878998 78.118515 72.125 77.240944 C 71.326248 76.814476 70.742996 76.185471 70.375 75.353951 C 70.458252 75.270157 70.541748 75.186127 70.625 75.102348 C 71.971001 75.822426 73.387749 76.325623 74.875 76.611938 C 75.674004 76.652199 76.340752 76.400597 76.875 75.857147 C 75.07 74.295723 73.278252 72.702339 71.5 71.076767 C 71.075752 70.523491 70.700752 69.936508 70.375 69.315559 C 70.458252 69.231781 70.541748 69.147751 70.625 69.063965 C 71.921753 70.429398 73.505249 71.184196 75.375 71.328362 C 75.415497 70.818367 75.373749 70.31517 75.25 69.818756 C 73.17675 67.406425 71.55175 64.722626 70.375 61.76759 Z" opacity="0.973" stroke="none" fill-rule="evenodd" fill="#8f59ac" id="path46"></path>
    </g>
    <g id="g47">
        <path d="M 87.625 61.012794 C 87.090752 62.744045 86.674248 64.505249 86.375 66.296371 C 86.149002 66.117996 86.06575 65.866394 86.125 65.541573 C 86.297997 64.437057 86.547997 63.346626 86.875 62.27079 C 87.078247 61.827721 87.328247 61.40831 87.625 61.012794 Z" stroke="none" fill-rule="evenodd" fill="#1e131b" id="path47"></path>
    </g>
    <g id="g48">
        <path d="M 80.875 61.012794 C 81.096497 60.691753 81.346497 60.691753 81.625 61.012794 C 81.393753 61.279991 81.143753 61.279991 80.875 61.012794 Z" opacity="0.008" stroke="none" fill-rule="evenodd" fill="#9245cf" id="path48"></path>
    </g>
    <g id="g49">
        <path d="M 87.125 59.251598 C 87.291748 59.671017 87.458252 60.090176 87.625 60.509594 C 87.625 60.677414 87.625 60.844975 87.625 61.012794 C 87.328247 61.40831 87.078247 61.827721 86.875 62.27079 C 86.791748 62.27079 86.708252 62.27079 86.625 62.27079 C 87.035751 61.315971 87.202248 60.309574 87.125 59.251598 Z" stroke="none" fill-rule="evenodd" fill="#512866" id="path49"></path>
    </g>
    <g id="g50">
        <path d="M 85.875 66.044769 C 85.875 66.212593 85.875 66.380165 85.875 66.547974 C 85.914253 66.893417 85.872498 67.22905 85.75 67.554375 C 84.833252 68.14135 84.083252 68.896149 83.5 69.818756 C 83.172501 70.770813 83.464249 71.358047 84.375 71.579964 C 83.885498 72.819328 84.09375 73.90976 85 74.850754 C 85.639252 75.139084 85.972504 74.887482 86 74.095947 C 86.189751 74.489197 86.481499 74.740799 86.875 74.850754 C 87.041748 75.521759 87.208252 75.521759 87.375 74.850754 C 87.555496 74.745583 87.680496 74.578011 87.75 74.347549 C 88.136002 74.84269 88.42775 75.387909 88.625 75.982941 C 88.974747 76.132645 89.307999 76.09063 89.625 75.857147 C 90.167252 77.117905 90.833748 78.29187 91.625 79.379532 C 91.042252 79.704338 90.500748 79.62056 90 79.127937 C 89.726753 79.593132 89.393501 80.01255 89 80.385925 C 87.36425 79.709877 85.73925 78.996849 84.125 78.247337 C 83.310753 77.006439 82.393997 75.832489 81.375 74.724945 C 81.716248 74.301758 82.091248 74.259743 82.5 74.599152 C 81.72625 73.564056 80.809502 72.557671 79.75 71.579964 C 78.894249 69.988083 77.769249 68.604294 76.375 67.428566 C 74.834999 66.802841 73.959999 65.670647 73.75 64.031982 C 72.806252 63.409527 71.931252 62.696743 71.125 61.893391 C 70.888 61.771866 70.638 61.730103 70.375 61.76759 C 70.141251 61.110161 70.099503 60.439396 70.25 59.754795 C 70.390251 59.623463 70.556999 59.53968 70.75 59.503197 C 71.526749 59.948277 72.235001 60.493492 72.875 61.138596 C 74.815247 62.073284 76.732002 63.079681 78.625 64.157784 C 81.011749 64.948563 83.428253 65.577553 85.875 66.044769 Z" stroke="none" fill-rule="evenodd" fill="#935faf" id="path50"></path>
    </g>
    <g id="g51">
        <path d="M 86.875 74.850754 C 87.041748 74.850754 87.208252 74.850754 87.375 74.850754 C 87.208252 75.521759 87.041748 75.521759 86.875 74.850754 Z" stroke="none" fill-rule="evenodd" fill="#2b1d25" id="path51"></path>
    </g>
    <g id="g52">
        <path d="M 110.875 41.891258 C 110.875 42.059074 110.958252 42.14286 111.125 42.14286 C 110.494003 42.469933 109.827248 42.469933 109.125 42.14286 C 109.685753 41.897804 110.268997 41.813766 110.875 41.891258 Z" opacity="0.953" stroke="none" fill-rule="evenodd" fill="#371f42" id="path52"></path>
    </g>
    <g id="g53">
        <path d="M 70.125 57.238808 C 70.054497 57.560349 69.887749 57.811947 69.625 57.993603 C 69.026497 58.454533 68.776497 59.08353 68.875 59.880596 C 69.326248 63.094524 70.742996 65.820099 73.125 68.057571 C 72.541252 67.98661 71.999496 67.651237 71.5 67.051178 C 70.819 66.242027 70.194 65.403442 69.625 64.535179 C 69.300247 64.683624 69.092003 64.935226 69 65.289978 C 68.5 69.361099 69.958504 72.590134 73.375 74.97654 C 72.758751 74.834396 72.175499 74.540779 71.625 74.095947 C 71.0345 73.418648 70.450996 72.747635 69.875 72.08316 C 69.014748 74.365158 69.514748 76.335938 71.375 77.995735 C 72.985001 78.889908 74.651749 79.644714 76.375 80.260132 C 75.200752 80.321014 74.1175 80.027649 73.125 79.379532 C 72.869751 79.505829 72.828003 79.673401 73 79.882729 C 74.354752 81.41497 75.979752 82.547165 77.875 83.279312 C 79.43325 86.536774 81.93325 88.675369 85.375 89.695099 C 84.625 90.282082 84.708252 90.701492 85.625 90.953094 C 85.862747 90.745277 86.112747 90.703506 86.375 90.827286 C 86.165749 91.081657 86.082497 91.375282 86.125 91.707893 C 86.745247 91.752419 87.203499 91.500824 87.5 90.953094 C 87.447746 91.949181 87.90625 92.368591 88.875 92.211082 C 88.520248 92.450356 88.103752 92.534134 87.625 92.462685 C 87.464996 92.001762 87.214996 91.917969 86.875 92.211082 C 87.208252 93.30127 87.208252 94.391693 86.875 95.48188 C 86.994247 95.727936 87.160751 95.937523 87.375 96.110878 C 86.306747 96.066589 85.806747 96.569794 85.875 97.620468 C 85.848999 98.160149 86.015747 98.621582 86.375 99.004265 C 86.703499 99.208817 86.995247 99.460411 87.25 99.759056 C 87.429253 99.622185 87.554253 99.454376 87.625 99.255867 C 88.281754 98.727249 89.031754 98.391876 89.875 98.249474 C 89.168251 98.728767 88.459999 99.231964 87.75 99.759056 C 87.617996 100.090172 87.742996 100.25798 88.125 100.26226 C 87.947746 100.489708 87.697746 100.573486 87.375 100.513855 C 89.618248 102.578987 92.034752 102.788567 94.625 101.14286 C 95.197502 100.69577 95.61425 100.150543 95.875 99.507462 C 96.084503 99.421417 96.167999 99.253845 96.125 99.004265 C 96.208252 99.004265 96.291748 99.004265 96.375 99.004265 C 96.389748 100.022736 95.973 100.81955 95.125 101.394455 C 93.292747 102.924942 91.292747 103.176537 89.125 102.149254 C 87.861504 101.345642 86.528 100.674637 85.125 100.136467 C 84.675751 99.735413 84.425751 99.232208 84.375 98.626862 C 85.2145 97.316528 85.9645 95.932739 86.625 94.475479 C 86.362 94.041977 86.362 93.622551 86.625 93.217484 C 86.505753 92.857445 86.339249 92.522064 86.125 92.211082 C 85.345001 91.564728 84.678253 90.809929 84.125 89.946701 C 81.080254 88.852997 78.872002 86.840202 77.5 83.908318 C 75.209 83.027977 73.459 81.518372 72.25 79.379532 C 69.251503 77.506378 68.376503 74.948624 69.625 71.70575 C 68.043747 69.754105 67.668747 67.615517 68.5 65.289978 C 68.742996 64.835838 69.034752 64.416428 69.375 64.031982 C 68.494003 62.374447 68.202248 60.613255 68.5 58.748402 C 68.851501 58.016502 69.392998 57.513302 70.125 57.238808 Z" opacity="0.69" stroke="none" fill-rule="evenodd" fill="#161415" id="path53"></path>
    </g>
    <g id="g54">
        <path d="M 99.875 86.675911 C 99.875 86.508095 99.791748 86.424309 99.625 86.424309 C 100.196251 86.01722 100.696251 85.514023 101.125 84.914711 C 101.08075 85.651398 100.664253 86.238373 99.875 86.675911 Z" opacity="0.973" stroke="none" fill-rule="evenodd" fill="#351f3f" id="path54"></path>
    </g>
    <g id="g55">
        <path d="M 82.375 85.921112 C 82.744499 85.855186 83.077751 85.93898 83.375 86.172714 C 82.884247 86.850517 82.550751 86.766731 82.375 85.921112 Z" opacity="0.973" stroke="none" fill-rule="evenodd" fill="#40224e" id="path55"></path>
    </g>
    <g id="g56">
        <path d="M 128.375 89.443497 C 128.474243 89.185616 128.640747 89.1436 128.875 89.317696 C 128.726501 89.434441 128.559753 89.476456 128.375 89.443497 Z" opacity="0.004" stroke="none" fill-rule="evenodd" fill="#9535aa" id="path56"></path>
    </g>
    <g id="g57">
        <path d="M 88.875 88.940292 C 90.078247 89.442238 90.078247 89.69384 88.875 89.695099 C 88.875 89.443497 88.875 89.191895 88.875 88.940292 Z" opacity="0.973" stroke="none" fill-rule="evenodd" fill="#351e3f" id="path57"></path>
    </g>
    <g id="g58">
        <path d="M 115.375 53.464821 C 115.23925 53.479912 115.155998 53.563698 115.125 53.716423 C 116.27475 57.087597 118.14975 59.938965 120.75 62.27079 C 122.549751 62.617744 124.341499 62.575729 126.125 62.144989 C 127.429001 60.321899 129.179001 59.399292 131.375 59.377399 C 131.75 59.754795 132.125 60.132198 132.5 60.509594 C 134.260254 59.766117 135.968506 59.891918 137.625 60.886993 C 138.332504 61.541656 138.582504 62.296455 138.375 63.151386 C 138.735001 64.001541 138.985001 64.882133 139.125 65.793175 C 138.553253 67.050163 138.261749 68.392197 138.25 69.818756 C 137.263748 72.186569 135.472 73.276741 132.875 73.089546 C 130.213745 73.155472 128.172256 72.065041 126.75 69.818756 C 124.004753 70.86467 121.296249 70.697098 118.625 69.315559 C 117.964996 71.811676 116.964996 74.159851 115.625 76.360344 C 114.609253 77.676453 113.401001 78.766632 112 79.631134 C 110.338249 84.574554 107.171501 88.180717 102.5 90.449898 C 102.639252 91.038887 102.597504 91.62587 102.375 92.211082 C 101.900497 92.521561 101.483749 92.437782 101.125 91.959488 C 100.164001 93.788612 100.664001 94.669205 102.625 94.601273 C 102.767754 94.904457 102.934502 95.198074 103.125 95.48188 C 103.727753 95.698502 104.227753 96.033882 104.625 96.488266 C 104.220749 96.352921 103.804001 96.269127 103.375 96.236671 C 103.360001 96.10006 103.276749 96.016266 103.125 95.985069 C 102.957497 96.435684 102.790749 96.855103 102.625 97.243073 C 102.7015 96.517204 102.618248 95.846191 102.375 95.230278 C 102.094254 94.914017 101.92775 94.997795 101.875 95.48188 C 101.38575 94.95578 100.844254 94.452583 100.25 93.972282 C 100.591751 92.474518 99.966751 91.719711 98.375 91.707893 C 98.230499 91.219032 97.980499 91.134995 97.625 91.456291 C 97.574997 92.830025 97.199997 94.088013 96.5 95.230278 C 96.375748 95.81147 96.334251 96.398453 96.375 96.99147 C 96.209747 96.685028 96.042999 96.34964 95.875 95.985069 C 95.620247 96.28373 95.328499 96.535324 95 96.739868 C 94.812752 97.025444 94.854248 97.277039 95.125 97.494675 C 96.304749 98.051964 97.304749 98.848526 98.125 99.884865 C 100.262001 101.107384 102.345253 101.023605 104.375 99.633263 C 104.982498 99.053322 105.232498 98.340546 105.125 97.494675 C 104.972504 97.2705 104.889252 97.018898 104.875 96.739868 C 105.558998 97.333145 105.767502 98.087944 105.5 99.004265 C 102.462997 101.999054 99.421249 101.999054 96.375 99.004265 C 96.291748 98.668884 96.208252 98.668884 96.125 99.004265 C 95.805496 98.933304 95.555496 98.765495 95.375 98.501068 C 95.391251 98.390869 95.349747 98.306824 95.25 98.249474 C 95.083252 98.584846 94.833252 98.836449 94.5 99.004265 C 94.093498 98.638191 93.802002 98.218773 93.625 97.746269 C 93.541748 97.746269 93.458252 97.746269 93.375 97.746269 C 93.333 97.104439 93.083 96.93663 92.625 97.243073 C 92.625 97.326851 92.625 97.410881 92.625 97.494675 C 92.541748 97.494675 92.458252 97.494675 92.375 97.494675 C 91.670502 96.738617 90.878998 96.067604 90 95.48188 C 89.916748 94.475479 89.833252 93.469086 89.75 92.462685 C 89.497253 92.252098 89.205498 92.168312 88.875 92.211082 C 88.820251 91.915459 88.903503 91.663857 89.125 91.456291 C 89.644501 92.081764 90.311249 92.333366 91.125 92.211082 C 91.154251 91.711914 90.987503 91.292747 90.625 90.953094 C 94.042252 90.239807 97.042252 88.730217 99.625 86.424309 C 99.791748 86.424309 99.875 86.508095 99.875 86.675911 C 99.030998 87.458633 98.155998 88.213432 97.25 88.940292 C 97.125748 89.606026 97.084 90.277046 97.125 90.953094 C 97.597504 91.004173 97.972504 90.836601 98.25 90.449898 C 98.415497 91.520203 98.873749 91.687759 99.625 90.953094 C 99.810753 91.307335 100.019249 91.642731 100.25 91.959488 C 100.674248 91.058006 101.215752 90.974228 101.875 91.707893 C 102.195 91.148338 102.111748 90.645142 101.625 90.198296 C 105.611748 88.324883 108.57 85.389481 110.5 81.392319 C 110.777496 80.915039 110.819 80.453857 110.625 80.00853 C 112.333252 78.624741 113.875 77.07312 115.25 75.353951 C 116.101501 73.937943 116.726501 72.428352 117.125 70.825165 C 117.488503 70.025078 117.821747 69.186249 118.125 68.309166 C 120.657997 69.516342 123.324753 69.893738 126.125 69.441368 C 126.122253 68.747452 126.20575 68.034676 126.375 67.30278 C 127.716499 71.670036 130.633255 73.305428 135.125 72.208954 C 135.812256 71.926414 136.437256 71.549011 137 71.076767 C 138.677994 68.447044 137.969757 67.021233 134.875 66.799576 C 134.208252 66.63176 133.541748 66.464188 132.875 66.296371 C 134.703506 66.287827 136.453506 66.581436 138.125 67.176971 C 138.880249 65.949921 138.713501 64.859741 137.625 63.906185 C 136.004257 63.213783 134.337494 63.130001 132.625 63.654583 C 132.076508 64.045319 131.785004 64.590279 131.75 65.289978 C 131.546005 65.622849 131.254257 65.790421 130.875 65.793175 C 130.510254 65.810028 130.177002 65.726257 129.875 65.541573 C 129.320999 65.364708 128.862747 65.029312 128.5 64.535179 C 128.3685 63.503876 128.160248 62.497478 127.875 61.515991 C 127.303749 61.882572 126.845497 62.385769 126.5 63.025589 C 126.318253 63.871967 126.110001 64.710541 125.875 65.541573 C 125.621002 64.548523 125.621002 63.626152 125.875 62.773987 C 124.007004 63.426636 122.132004 63.426636 120.25 62.773987 C 119.231247 63.394432 118.648003 64.317039 118.5 65.541573 C 118.333252 65.876968 118.166748 65.876968 118 65.541573 C 118.176247 64.516068 118.634499 63.593445 119.375 62.773987 C 118.75325 62.503265 118.169998 62.167633 117.625 61.76759 C 117.708252 61.683811 117.791748 61.599773 117.875 61.515991 C 118.269501 61.802814 118.685997 61.928616 119.125 61.893391 C 118.333252 60.929012 117.541748 59.964378 116.75 59 C 116.16275 57.817989 115.579498 56.644028 115 55.477612 C 114.426247 51.907417 114.217751 48.301003 114.375 44.658852 C 114.416 43.982803 114.374252 43.311783 114.25 42.646057 C 113.095497 44.043182 111.637253 44.504364 109.875 44.029854 C 110.973999 43.842155 112.057503 43.590561 113.125 43.275055 C 113.60125 42.818398 114.017998 42.315201 114.375 41.765457 C 113.292 41.806465 112.208504 41.932266 111.125 42.14286 C 110.958252 42.14286 110.875 42.059074 110.875 41.891258 C 112.148247 41.710365 113.398247 41.41674 114.625 41.010658 C 115.153999 40.716034 115.320503 40.338638 115.125 39.878464 C 114.795753 40.295868 114.37925 40.589478 113.875 40.759064 C 110.575249 41.625069 107.325249 41.54129 104.125 40.507462 C 104.62075 40.982735 105.204002 41.318115 105.875 41.513855 C 105.55175 41.637138 105.218246 41.679153 104.875 41.639656 C 104.444252 41.207405 103.944252 40.872032 103.375 40.633263 C 103.407753 40.412857 103.324501 40.245049 103.125 40.130066 C 102.583252 40.494377 102 40.787994 101.375 41.010658 C 96.911751 41.839676 92.745003 41.084877 88.875 38.746269 C 88.245499 38.290871 88.245499 37.829689 88.875 37.362473 C 91.896751 35.767334 95.063499 35.096313 98.375 35.349678 C 97.361252 35.268166 96.361252 35.351944 95.375 35.60128 C 94.91375 36.367653 94.66375 37.206482 94.625 38.117271 C 94.541748 38.117271 94.458252 38.117271 94.375 38.117271 C 94.375 37.446259 94.375 36.77549 94.375 36.104477 C 92.282997 36.134666 90.449501 36.805687 88.875 38.117271 C 91.445 40.085785 94.361504 41.0084 97.625 40.884865 C 99.366501 40.995567 101.033249 40.70195 102.625 40.004265 C 103.827499 39.160156 103.911003 38.237785 102.875 37.236671 C 101.853249 36.460991 100.769997 36.083588 99.625 36.104477 C 99.291748 35.936661 99.291748 35.769096 99.625 35.60128 C 101.198753 35.638519 102.532249 36.225502 103.625 37.362473 C 103.700996 35.36805 102.950996 33.648621 101.375 32.204689 C 97.025497 30.114655 92.900497 30.49205 89 33.336884 C 88.900253 33.279526 88.858749 33.19548 88.875 33.085289 C 89.273499 32.712166 89.690002 32.334763 90.125 31.953087 C 94.66275 29.441124 98.91275 29.81852 102.875 33.085289 C 103.450752 34.022499 103.909248 35.028893 104.25 36.104477 C 106.009499 34.833649 107.967751 34.372467 110.125 34.720688 C 107.941002 34.721436 105.98275 35.350433 104.25 36.607681 C 104.078003 36.817009 104.119751 36.984566 104.375 37.110878 C 105.009247 36.666298 105.675751 36.288895 106.375 35.978676 C 109.763 35.291817 112.846497 35.920815 115.625 37.865669 C 115.6745 35.503403 114.591248 33.784233 112.375 32.707893 C 109.740501 31.770935 107.157249 31.896736 104.625 33.085289 C 104.384247 32.967041 104.384247 32.799217 104.625 32.582092 C 104.873001 32.625366 105.039497 32.541336 105.125 32.33049 C 107.544998 31.676834 109.961746 31.676834 112.375 32.33049 C 112.630249 32.204185 112.671997 32.036621 112.5 31.827293 C 109.644249 27.810516 105.769249 25.504097 100.875 24.908318 C 95.481499 24.241051 91.065002 25.960251 87.625 30.066093 C 87.641251 29.955902 87.599747 29.871864 87.5 29.814499 C 87.167252 30.44249 86.709 30.945686 86.125 31.324097 C 86.441254 30.563004 86.858002 29.850227 87.375 29.185501 C 85.722504 27.869888 84.639 26.192482 84.125 24.153519 C 84.368248 22.69133 85.201752 21.726868 86.625 21.260132 C 88.016502 21.2313 89.432999 21.39901 90.875 21.763329 C 91.306999 21.740662 91.723503 21.656799 92.125 21.511726 C 92.577499 15.900085 95.244003 14.516289 100.125 17.360344 C 101.041748 18.584091 102.041748 19.716286 103.125 20.756927 C 103.793251 20.504974 104.376747 20.127579 104.875 19.624733 C 106.633751 19.005577 107.925247 19.634567 108.75 21.511726 C 108.98275 23.072868 108.649498 24.498604 107.75 25.78891 C 107.554749 26.152222 107.596497 26.487602 107.875 26.795311 C 110.310501 28.282013 112.185501 30.2948 113.5 32.833687 C 116.467499 35.085747 117.051003 37.85334 115.25 41.136459 C 115.196503 42.491325 115.071503 43.833351 114.875 45.162048 C 115.099251 46.560936 115.099251 48.070534 114.875 49.690834 C 114.865997 50.976501 115.032753 52.234497 115.375 53.464821 Z M 95.875 89.695099 C 96.789253 90.750809 97.08075 92.008812 96.75 93.469086 C 96.508003 94.713737 95.841499 95.636368 94.75 96.236671 C 94.497749 96.620361 94.372749 97.039772 94.375 97.494675 C 93.781502 97.315033 93.281502 96.979393 92.875 96.488266 C 92.639503 96.51545 92.431252 96.599228 92.25 96.739868 C 91.910248 96.18837 91.452003 95.768944 90.875 95.48188 C 90.423752 94.224388 90.632004 93.134209 91.5 92.211082 C 91.265999 91.399422 91.557747 91.147827 92.375 91.456291 C 93.626747 90.994102 94.793251 90.407112 95.875 89.695099 Z" opacity="0.996" stroke="none" fill-rule="evenodd" fill="#161214" id="path58"></path>
    </g>
    <g id="g59">
        <path d="M 133.125 60.509594 C 134.967743 60.144276 136.509506 60.647472 137.75 62.019192 C 137.916748 62.522388 137.916748 63.025589 137.75 63.528782 C 135.755005 62.569691 133.796753 62.653469 131.875 63.780384 C 131.531006 62.378975 131.947495 61.288544 133.125 60.509594 Z" stroke="none" fill-rule="evenodd" fill="#8342a5" id="path59"></path>
    </g>
    <g id="g60">
        <path d="M 127.875 61.515991 C 128.646255 60.374485 129.729507 59.913303 131.125 60.132198 C 131.25 60.257996 131.375 60.383797 131.5 60.509594 C 131.257248 61.619148 130.882248 62.709324 130.375 63.780384 C 130.458252 63.864166 130.541748 63.9482 130.625 64.031982 C 131.069748 63.333546 131.319748 63.417328 131.375 64.283585 C 131.406006 65.04718 131.072754 65.424583 130.375 65.415787 C 129.847748 65.128708 129.389496 64.751305 129 64.283585 C 128.802002 63.045212 128.885254 61.87125 129.25 60.761192 C 128.845749 61.101105 128.554001 61.520523 128.375 62.019192 C 128.204498 61.832253 128.03775 61.664688 127.875 61.515991 Z" stroke="none" fill-rule="evenodd" fill="#7f3da1" id="path60"></path>
    </g>
    <g id="g61">
        <path d="M 106.875 38.117271 C 106.132248 38.100914 105.4655 38.310745 104.875 38.746269 C 105.041748 38.914078 105.208252 39.081657 105.375 39.249466 C 106.74025 39.852806 108.156998 40.272217 109.625 40.507462 C 110.370499 40.632759 111.120499 40.674767 111.875 40.633263 C 110.503754 40.923096 109.08725 40.964867 107.625 40.759064 C 106.361252 40.503937 105.111252 40.21032 103.875 39.878464 C 103.740997 37.891586 104.657501 36.801414 106.625 36.607681 C 106.62925 37.127228 106.712502 37.630432 106.875 38.117271 Z" opacity="0.973" stroke="none" fill-rule="evenodd" fill="#cfa3dc" id="path61"></path>
    </g>
    <g id="g62">
        <path d="M 106.875 38.117271 C 108.021751 39.802986 109.605003 40.431992 111.625 40.004265 C 112.047997 39.675423 112.381248 39.298027 112.625 38.87207 C 112.805496 38.766899 112.930496 38.599342 113 38.368874 C 113.377251 38.517311 113.752251 38.684875 114.125 38.87207 C 113.556999 39.413261 112.890251 39.790657 112.125 40.004265 C 111.850502 40.198006 111.850502 40.407578 112.125 40.633263 C 112.041748 40.633263 111.958252 40.633263 111.875 40.633263 C 111.120499 40.674767 110.370499 40.632759 109.625 40.507462 C 108.156998 40.272217 106.74025 39.852806 105.375 39.249466 C 105.208252 39.081657 105.041748 38.914078 104.875 38.746269 C 105.4655 38.310745 106.132248 38.100914 106.875 38.117271 Z" opacity="0.973" stroke="none" fill-rule="evenodd" fill="#f8d6f6" id="path62"></path>
    </g>
    <g id="g63">
        <path d="M 112.125 40.633263 C 111.850502 40.407578 111.850502 40.198006 112.125 40.004265 C 112.890251 39.790657 113.556999 39.413261 114.125 38.87207 C 113.752251 38.684875 113.377251 38.517311 113 38.368874 C 112.930496 38.599342 112.805496 38.766899 112.625 38.87207 C 112.711502 38.091614 112.544746 37.37883 112.125 36.733475 C 113.388252 36.865814 114.471497 37.411034 115.375 38.368874 C 114.627251 39.62661 113.543999 40.381409 112.125 40.633263 Z" opacity="0.973" stroke="none" fill-rule="evenodd" fill="#dbade7" id="path63"></path>
    </g>
    <g id="g64">
        <path d="M 94.375 38.117271 C 93.466003 38.197533 92.632751 38.490891 91.875 38.997871 C 92.041748 39.16568 92.208252 39.333252 92.375 39.50106 C 95.733002 40.816681 99.066254 40.816681 102.375 39.50106 C 102.658501 39.245445 102.575249 39.077629 102.125 38.997871 C 101.565002 38.752052 100.98175 38.626259 100.375 38.620468 C 100.423248 37.677483 100.173248 36.838646 99.625 36.104477 C 100.769997 36.083588 101.853249 36.460991 102.875 37.236671 C 103.911003 38.237785 103.827499 39.160156 102.625 40.004265 C 101.033249 40.70195 99.366501 40.995567 97.625 40.884865 C 94.361504 41.0084 91.445 40.085785 88.875 38.117271 C 90.449501 36.805687 92.282997 36.134666 94.375 36.104477 C 94.375 36.77549 94.375 37.446259 94.375 38.117271 Z" opacity="0.973" stroke="none" fill-rule="evenodd" fill="#d9ace6" id="path64"></path>
    </g>
    <g id="g65">
        <path d="M 94.375 38.117271 C 94.458252 38.117271 94.541748 38.117271 94.625 38.117271 C 95.181999 39.407219 96.181999 40.078239 97.625 40.130066 C 98.875 40.178619 99.791748 39.675423 100.375 38.620468 C 100.98175 38.626259 101.565002 38.752052 102.125 38.997871 C 102.575249 39.077629 102.658501 39.245445 102.375 39.50106 C 99.066254 40.816681 95.733002 40.816681 92.375 39.50106 C 92.208252 39.333252 92.041748 39.16568 91.875 38.997871 C 92.632751 38.490891 93.466003 38.197533 94.375 38.117271 Z" opacity="0.973" stroke="none" fill-rule="evenodd" fill="#f9d9f5" id="path65"></path>
    </g>
    <g id="g66">
        <path d="M 98.375 35.349678 C 98.853752 35.278229 99.270248 35.362015 99.625 35.60128 C 99.291748 35.769096 99.291748 35.936661 99.625 36.104477 C 100.173248 36.838646 100.423248 37.677483 100.375 38.620468 C 99.791748 39.675423 98.875 40.178619 97.625 40.130066 C 96.181999 40.078239 95.181999 39.407219 94.625 38.117271 C 94.66375 37.206482 94.91375 36.367653 95.375 35.60128 C 96.361252 35.351944 97.361252 35.268166 98.375 35.349678 Z" opacity="0.97" stroke="none" fill-rule="evenodd" fill="#070607" id="path66"></path>
    </g>
    <g id="g67">
        <path d="M 102.875 33.085289 C 103.443001 32.879227 104.026497 32.71167 104.625 32.582092 C 104.384247 32.799217 104.384247 32.967041 104.625 33.085289 C 107.157249 31.896736 109.740501 31.770935 112.375 32.707893 C 114.591248 33.784233 115.6745 35.503403 115.625 37.865669 C 112.846497 35.920815 109.763 35.291817 106.375 35.978676 C 105.675751 36.288895 105.009247 36.666298 104.375 37.110878 C 104.119751 36.984566 104.078003 36.817009 104.25 36.607681 C 105.98275 35.350433 107.941002 34.721436 110.125 34.720688 C 107.967751 34.372467 106.009499 34.833649 104.25 36.104477 C 103.909248 35.028893 103.450752 34.022499 102.875 33.085289 Z" opacity="0.973" stroke="none" fill-rule="evenodd" fill="#7b389e" id="path67"></path>
    </g>
    <g id="g68">
        <path d="M 100.375 30.066093 C 101.575752 30.921036 102.908997 31.508018 104.375 31.827293 C 102.60775 32.195129 101.274246 31.608147 100.375 30.066093 Z" opacity="0.973" stroke="none" fill-rule="evenodd" fill="#1e1523" id="path68"></path>
    </g>
    <g id="g69">
        <path d="M 102.125 30.317696 C 102.852997 30.648552 103.602997 30.942162 104.375 31.198296 C 103.771751 31.320068 103.188499 31.236031 102.625 30.946693 C 102.310997 30.841782 102.144249 30.632195 102.125 30.317696 Z" opacity="0.973" stroke="none" fill-rule="evenodd" fill="#291b31" id="path69"></path>
    </g>
    <g id="g70">
        <path d="M 104.625 20.756927 C 104.134003 21.754295 103.384003 22.509094 102.375 23.021324 C 102.494247 23.267281 102.660751 23.476944 102.875 23.650322 C 105.197502 24.058365 106.072502 23.09391 105.5 20.756927 C 105.404251 20.617035 105.279251 20.533188 105.125 20.505325 C 106.460999 19.680687 107.502502 20.016144 108.25 21.511726 C 108.416748 22.098785 108.416748 22.68586 108.25 23.272926 C 107.726753 24.242836 107.26825 25.249237 106.875 26.292107 C 103.72525 24.701477 100.391998 24.030533 96.875 24.279312 C 98.489998 22.781113 99.031754 20.936073 98.5 18.744133 C 97.775749 17.572968 96.734253 17.195564 95.375 17.611938 C 94.071251 18.577583 93.529503 19.877495 93.75 21.511726 C 93.218498 22.597626 92.343498 23.142769 91.125 23.147125 C 89.708252 23.23098 88.291748 23.314857 86.875 23.39872 C 85.793747 23.934349 85.585251 24.731087 86.25 25.78891 C 86.727249 26.522072 87.393753 26.94149 88.25 27.046913 C 89.2985 26.249588 90.4235 25.53656 91.625 24.908318 C 92.938499 24.588478 94.271751 24.462677 95.625 24.530914 C 92.724747 25.33931 90.141502 26.764862 87.875 28.808105 C 86.953499 27.838943 86.078499 26.83255 85.25 25.78891 C 84.403252 23.297279 85.278252 22.039276 87.875 22.014923 C 88.926003 22.122101 89.967751 22.289856 91 22.51812 C 91.833252 22.51812 92.5 22.182663 93 21.511726 C 92.837502 17.060837 94.795753 15.67704 98.875 17.360344 C 99.410248 17.689331 99.910248 18.066734 100.375 18.492538 C 100.950752 19.440994 101.617249 20.321587 102.375 21.134331 C 103.185249 21.33387 103.935249 21.208069 104.625 20.756927 Z" opacity="0.973" stroke="none" fill-rule="evenodd" fill="#ee3dad" id="path70"></path>
    </g>
    <g id="g71">
        <path d="M 105.125 20.505325 C 105.279251 20.533188 105.404251 20.617035 105.5 20.756927 C 106.072502 23.09391 105.197502 24.058365 102.875 23.650322 C 102.660751 23.476944 102.494247 23.267281 102.375 23.021324 C 103.384003 22.509094 104.134003 21.754295 104.625 20.756927 C 104.791748 20.673073 104.958252 20.589195 105.125 20.505325 Z" opacity="0.973" stroke="none" fill-rule="evenodd" fill="#fe48d7" id="path71"></path>
    </g>
    <g id="g72">
        <path d="M 96.875 24.279312 C 96.489502 24.480766 96.072998 24.564629 95.625 24.530914 C 94.271751 24.462677 92.938499 24.588478 91.625 24.908318 C 90.4235 25.53656 89.2985 26.249588 88.25 27.046913 C 87.393753 26.94149 86.727249 26.522072 86.25 25.78891 C 85.585251 24.731087 85.793747 23.934349 86.875 23.39872 C 88.291748 23.314857 89.708252 23.23098 91.125 23.147125 C 92.343498 23.142769 93.218498 22.597626 93.75 21.511726 C 93.529503 19.877495 94.071251 18.577583 95.375 17.611938 C 96.734253 17.195564 97.775749 17.572968 98.5 18.744133 C 99.031754 20.936073 98.489998 22.781113 96.875 24.279312 Z" opacity="0.973" stroke="none" fill-rule="evenodd" fill="#fe48d7" id="path72"></path>
    </g>
    <g id="g73">
        <path d="M 88.875 92.211082 C 89.205498 92.168312 89.497253 92.252098 89.75 92.462685 C 89.833252 93.469086 89.916748 94.475479 90 95.48188 C 90.878998 96.067604 91.670502 96.738617 92.375 97.494675 C 91.708252 97.662483 91.041748 97.830055 90.375 97.997871 C 90.126999 97.954597 89.960503 98.038628 89.875 98.249474 C 89.031754 98.391876 88.281754 98.727249 87.625 99.255867 C 87.470749 99.227936 87.345749 99.144157 87.25 99.004265 C 87.027496 98.197639 87.110748 97.442848 87.5 96.739868 C 87.624748 95.316574 87.666496 93.890762 87.625 92.462685 C 88.103752 92.534134 88.520248 92.450356 88.875 92.211082 Z" opacity="0.973" stroke="none" fill-rule="evenodd" fill="#f9bcad" id="path73"></path>
    </g>
    <g id="g74">
        <path d="M 98.375 91.707893 C 99.966751 91.719711 100.591751 92.474518 100.25 93.972282 C 100.844254 94.452583 101.38575 94.95578 101.875 95.48188 C 101.875 95.985069 101.875 96.488266 101.875 96.99147 C 100.858498 96.942909 99.858498 97.026703 98.875 97.243073 C 98.544502 97.285843 98.252747 97.202065 98 96.99147 C 97.782753 96.467896 97.657753 95.922928 97.625 95.356079 C 97.964752 94.142868 98.214752 92.926888 98.375 91.707893 Z" opacity="0.973" stroke="none" fill-rule="evenodd" fill="#f6b9ab" id="path74"></path>
    </g>
    <g id="g75">
        <path d="M 98.375 91.707893 C 98.214752 92.926888 97.964752 94.142868 97.625 95.356079 C 97.657753 95.922928 97.782753 96.467896 98 96.99147 C 98.252747 97.202065 98.544502 97.285843 98.875 97.243073 C 98.875 97.326851 98.875 97.410881 98.875 97.494675 C 98.493248 97.476303 98.243248 97.644119 98.125 97.997871 C 97.541748 97.662483 96.958252 97.326851 96.375 96.99147 C 96.334251 96.398453 96.375748 95.81147 96.5 95.230278 C 97.199997 94.088013 97.574997 92.830025 97.625 91.456291 C 97.980499 91.134995 98.230499 91.219032 98.375 91.707893 Z" opacity="0.973" stroke="none" fill-rule="evenodd" fill="#de9383" id="path75"></path>
    </g>
    <g id="g76">
        <path d="M 102.375 95.230278 C 102.415749 95.823296 102.374252 96.410278 102.25 96.99147 C 102.202248 96.435944 102.077248 95.932739 101.875 95.48188 C 101.92775 94.997795 102.094254 94.914017 102.375 95.230278 Z" opacity="0.988" stroke="none" fill-rule="evenodd" fill="#3574c3" id="path76"></path>
    </g>
    <g id="g77">
        <path d="M 87.625 92.462685 C 87.666496 93.890762 87.624748 95.316574 87.5 96.739868 C 87.110748 97.442848 87.027496 98.197639 87.25 99.004265 C 87.345749 99.144157 87.470749 99.227936 87.625 99.255867 C 87.554253 99.454376 87.429253 99.622185 87.25 99.759056 C 86.995247 99.460411 86.703499 99.208817 86.375 99.004265 C 86.015747 98.621582 85.848999 98.160149 85.875 97.620468 C 85.806747 96.569794 86.306747 96.066589 87.375 96.110878 C 87.160751 95.937523 86.994247 95.727936 86.875 95.48188 C 87.208252 94.391693 87.208252 93.30127 86.875 92.211082 C 87.214996 91.917969 87.464996 92.001762 87.625 92.462685 Z" opacity="0.973" stroke="none" fill-rule="evenodd" fill="#e09584" id="path77"></path>
    </g>
    <g id="g78">
        <path d="M 103.375 96.236671 C 103.804001 96.269127 104.220749 96.352921 104.625 96.488266 C 104.791748 96.488266 104.875 96.57206 104.875 96.739868 C 104.889252 97.018898 104.972504 97.2705 105.125 97.494675 C 104.647247 97.639343 104.230499 97.890945 103.875 98.249474 C 103.872253 97.86779 103.70575 97.574181 103.375 97.368874 C 103.708252 97.368874 104.041748 97.368874 104.375 97.368874 C 103.841248 97.148468 103.507751 96.771072 103.375 96.236671 Z" opacity="0.961" stroke="none" fill-rule="evenodd" fill="#533b37" id="path78"></path>
    </g>
    <g id="g79">
        <path d="M 92.375 97.494675 C 92.458252 97.494675 92.541748 97.494675 92.625 97.494675 C 92.002998 97.969688 91.252998 98.137497 90.375 97.997871 C 91.041748 97.830055 91.708252 97.662483 92.375 97.494675 Z" opacity="0.976" stroke="none" fill-rule="evenodd" fill="#6c4132" id="path79"></path>
    </g>
    <g id="g80">
        <path d="M 103.375 96.236671 C 103.507751 96.771072 103.841248 97.148468 104.375 97.368874 C 104.041748 97.368874 103.708252 97.368874 103.375 97.368874 C 103.70575 97.574181 103.872253 97.86779 103.875 98.249474 C 103.301247 98.089455 102.88475 97.754074 102.625 97.243073 C 102.790749 96.855103 102.957497 96.435684 103.125 95.985069 C 103.276749 96.016266 103.360001 96.10006 103.375 96.236671 Z" opacity="0.973" stroke="none" fill-rule="evenodd" fill="#e09887" id="path80"></path>
    </g>
    <g id="g81">
        <path d="M 92.625 97.243073 C 92.903252 97.606888 92.945 98.026299 92.75 98.501068 C 91.817497 98.259529 90.859253 98.175751 89.875 98.249474 C 89.960503 98.038628 90.126999 97.954597 90.375 97.997871 C 91.252998 98.137497 92.002998 97.969688 92.625 97.494675 C 92.625 97.410881 92.625 97.326851 92.625 97.243073 Z" opacity="0.973" stroke="none" fill-rule="evenodd" fill="#172b4a" id="path81"></path>
    </g>
    <g id="g82">
        <path d="M 87.375 100.513855 C 86.199753 100.304024 85.366249 99.675018 84.875 98.626862 C 84.907501 98.360428 85.032501 98.150841 85.25 97.997871 C 85.744499 99.038979 86.452751 99.877571 87.375 100.513855 Z" opacity="0.978" stroke="none" fill-rule="evenodd" fill="#dcdcd9" id="path82"></path>
    </g>
    <g id="g83">
        <path d="M 94.375 97.997871 C 94.834251 98.032837 94.917503 98.200661 94.625 98.501068 C 94.425499 98.386086 94.342247 98.218277 94.375 97.997871 Z" opacity="0.973" stroke="none" fill-rule="evenodd" fill="#a70315" id="path83"></path>
    </g>
    <g id="g84">
        <path d="M 92.625 97.243073 C 93.083 96.93663 93.333 97.104439 93.375 97.746269 C 93.375 97.997871 93.375 98.249474 93.375 98.501068 C 92.396248 98.694046 91.396248 98.819839 90.375 98.878464 C 90.146004 98.948418 89.9795 99.074211 89.875 99.255867 C 89.621498 99.551247 89.288254 99.718803 88.875 99.759056 C 88.572502 99.867752 88.322502 100.035568 88.125 100.26226 C 87.742996 100.25798 87.617996 100.090172 87.75 99.759056 C 88.459999 99.231964 89.168251 98.728767 89.875 98.249474 C 90.859253 98.175751 91.817497 98.259529 92.75 98.501068 C 92.945 98.026299 92.903252 97.606888 92.625 97.243073 Z" opacity="0.976" stroke="none" fill-rule="evenodd" fill="#3361a1" id="path84"></path>
    </g>
    <g id="g85">
        <path d="M 93.375 98.501068 C 93.375 98.836449 93.208252 99.004265 92.875 99.004265 C 91.866501 99.005524 90.866501 99.089302 89.875 99.255867 C 89.9795 99.074211 90.146004 98.948418 90.375 98.878464 C 91.396248 98.819839 92.396248 98.694046 93.375 98.501068 Z" opacity="0.969" stroke="none" fill-rule="evenodd" fill="#191923" id="path85"></path>
    </g>
    <g id="g86">
        <path d="M 102.375 95.230278 C 102.618248 95.846191 102.7015 96.517204 102.625 97.243073 C 102.88475 97.754074 103.301247 98.089455 103.875 98.249474 C 103.605247 98.763481 103.188499 99.098862 102.625 99.255867 C 102.554253 99.057358 102.429253 98.889534 102.25 98.752663 C 101.861252 99.259644 101.402748 99.343414 100.875 99.004265 C 100.927254 98.856827 101.01075 98.731026 101.125 98.626862 C 101.833 98.573524 102.499496 98.531509 103.125 98.501068 C 103.072746 98.353622 102.98925 98.227829 102.875 98.123665 C 101.875 97.955856 100.875 97.955856 99.875 98.123665 C 99.393501 98.229843 99.143501 98.52346 99.125 99.004265 C 98.678001 99.075974 98.261253 98.992188 97.875 98.752663 C 97.234497 98.268585 96.734497 97.681358 96.375 96.99147 C 96.958252 97.326851 97.541748 97.662483 98.125 97.997871 C 98.1175 98.248711 98.2425 98.416534 98.5 98.501068 C 99.590752 97.771927 100.799004 97.394531 102.125 97.368874 C 101.035248 97.23452 99.952003 97.276276 98.875 97.494675 C 98.875 97.410881 98.875 97.326851 98.875 97.243073 C 99.858498 97.026703 100.858498 96.942909 101.875 96.99147 C 101.875 96.488266 101.875 95.985069 101.875 95.48188 C 102.077248 95.932739 102.202248 96.435944 102.25 96.99147 C 102.374252 96.410278 102.415749 95.823296 102.375 95.230278 Z" opacity="0.937" stroke="none" fill-rule="evenodd" fill="#2a2227" id="path86"></path>
    </g>
    <g id="g87">
        <path d="M 98.125 97.997871 C 98.243248 97.644119 98.493248 97.476303 98.875 97.494675 C 99.952003 97.276276 101.035248 97.23452 102.125 97.368874 C 100.799004 97.394531 99.590752 97.771927 98.5 98.501068 C 98.2425 98.416534 98.1175 98.248711 98.125 97.997871 Z" opacity="0.984" stroke="none" fill-rule="evenodd" fill="#2d63a7" id="path87"></path>
    </g>
    <g id="g88">
        <path d="M 93.375 97.746269 C 93.458252 97.746269 93.541748 97.746269 93.625 97.746269 C 93.433746 99.106415 94.01725 99.609612 95.375 99.255867 C 95.375 99.004265 95.375 98.752663 95.375 98.501068 C 95.555496 98.765495 95.805496 98.933304 96.125 99.004265 C 96.167999 99.253845 96.084503 99.421417 95.875 99.507462 C 95.891251 99.397263 95.849747 99.313232 95.75 99.255867 C 95.129997 100.091171 94.338249 100.678406 93.375 101.017059 C 93.294746 100.627579 93.044746 100.459763 92.625 100.513855 C 92.588501 99.899452 92.796753 99.731636 93.25 100.010658 C 93.371002 99.584702 93.246002 99.249069 92.875 99.004265 C 93.208252 99.004265 93.375 98.836449 93.375 98.501068 C 93.375 98.249474 93.375 97.997871 93.375 97.746269 Z" opacity="0.961" stroke="none" fill-rule="evenodd" fill="#5c3f39" id="path88"></path>
    </g>
    <g id="g89">
        <path d="M 93.625 97.746269 C 93.802002 98.218773 94.093498 98.638191 94.5 99.004265 C 94.833252 98.836449 95.083252 98.584846 95.25 98.249474 C 95.349747 98.306824 95.391251 98.390869 95.375 98.501068 C 95.375 98.752663 95.375 99.004265 95.375 99.255867 C 94.01725 99.609612 93.433746 99.106415 93.625 97.746269 Z" opacity="0.978" stroke="none" fill-rule="evenodd" fill="#ecaa97" id="path89"></path>
    </g>
    <g id="g90">
        <path d="M 92.875 99.004265 C 93.246002 99.249069 93.371002 99.584702 93.25 100.010658 C 92.796753 99.731636 92.588501 99.899452 92.625 100.513855 C 93.044746 100.459763 93.294746 100.627579 93.375 101.017059 C 92.767754 100.995674 92.267754 100.744072 91.875 100.26226 C 91.573753 100.674377 91.240501 100.758163 90.875 100.513855 C 90.791748 100.849243 90.708252 101.184868 90.625 101.520256 C 89.93425 100.992905 89.350754 100.40567 88.875 99.759056 C 89.288254 99.718803 89.621498 99.551247 89.875 99.255867 C 90.866501 99.089302 91.866501 99.005524 92.875 99.004265 Z" opacity="0.973" stroke="none" fill-rule="evenodd" fill="#eca999" id="path90"></path>
    </g>
    <g id="g91">
        <path d="M 96.375 96.99147 C 96.734497 97.681358 97.234497 98.268585 97.875 98.752663 C 98.261253 98.992188 98.678001 99.075974 99.125 99.004265 C 99.560501 99.37085 100.060501 99.664459 100.625 99.884865 C 101.096748 100.081108 101.513496 100.039093 101.875 99.759056 C 102.256752 99.777428 102.506752 99.609612 102.625 99.255867 C 103.188499 99.098862 103.605247 98.763481 103.875 98.249474 C 104.230499 97.890945 104.647247 97.639343 105.125 97.494675 C 105.232498 98.340546 104.982498 99.053322 104.375 99.633263 C 102.345253 101.023605 100.262001 101.107384 98.125 99.884865 C 97.304749 98.848526 96.304749 98.051964 95.125 97.494675 C 94.854248 97.277039 94.812752 97.025444 95 96.739868 C 95.328499 96.535324 95.620247 96.28373 95.875 95.985069 C 96.042999 96.34964 96.209747 96.685028 96.375 96.99147 Z" opacity="0.976" stroke="none" fill-rule="evenodd" fill="#ebece8" id="path91"></path>
    </g>
    <g id="g92">
        <path d="M 99.125 99.004265 C 100.072998 99.190704 100.989754 99.442299 101.875 99.759056 C 101.513496 100.039093 101.096748 100.081108 100.625 99.884865 C 100.060501 99.664459 99.560501 99.37085 99.125 99.004265 Z" opacity="0.965" stroke="none" fill-rule="evenodd" fill="#403735" id="path92"></path>
    </g>
    <g id="g93">
        <path d="M 102.625 99.255867 C 102.506752 99.609612 102.256752 99.777428 101.875 99.759056 C 100.989754 99.442299 100.072998 99.190704 99.125 99.004265 C 99.143501 98.52346 99.393501 98.229843 99.875 98.123665 C 100.875 97.955856 101.875 97.955856 102.875 98.123665 C 102.98925 98.227829 103.072746 98.353622 103.125 98.501068 C 102.499496 98.531509 101.833 98.573524 101.125 98.626862 C 101.01075 98.731026 100.927254 98.856827 100.875 99.004265 C 101.402748 99.343414 101.861252 99.259644 102.25 98.752663 C 102.429253 98.889534 102.554253 99.057358 102.625 99.255867 Z" opacity="0.976" stroke="none" fill-rule="evenodd" fill="#dd9b8a" id="path93"></path>
    </g>
    <g id="g94">
        <path d="M 95.875 99.507462 C 95.61425 100.150543 95.197502 100.69577 94.625 101.14286 C 92.034752 102.788567 89.618248 102.578987 87.375 100.513855 C 87.697746 100.573486 87.947746 100.489708 88.125 100.26226 C 89.021004 100.661041 89.8545 101.164246 90.625 101.771858 C 91.598 101.611839 92.514503 101.360245 93.375 101.017059 C 94.338249 100.678406 95.129997 100.091171 95.75 99.255867 C 95.849747 99.313232 95.891251 99.397263 95.875 99.507462 Z" opacity="0.978" stroke="none" fill-rule="evenodd" fill="#e1e3e0" id="path94"></path>
    </g>
    <g id="g95">
        <path d="M 88.875 99.759056 C 89.350754 100.40567 89.93425 100.992905 90.625 101.520256 C 90.708252 101.184868 90.791748 100.849243 90.875 100.513855 C 91.240501 100.758163 91.573753 100.674377 91.875 100.26226 C 92.267754 100.744072 92.767754 100.995674 93.375 101.017059 C 92.514503 101.360245 91.598 101.611839 90.625 101.771858 C 89.8545 101.164246 89.021004 100.661041 88.125 100.26226 C 88.322502 100.035568 88.572502 99.867752 88.875 99.759056 Z" opacity="0.933" stroke="none" fill-rule="evenodd" fill="#3f2c29" id="path95"></path>
    </g>
</svg>
