<svg xmlns="http://www.w3.org/2000/svg" viewBox="0 0 200 118" height="118" width="200">
    <g id="Group">
        <path d="M 105.375 31.575691 C 105.407753 31.389763 105.365997 31.221939 105.25 31.072495 C 103.610497 31.475311 102.110497 31.139923 100.75 30.066093 C 100.583252 30.233917 100.583252 30.401482 100.75 30.569298 C 101.937248 31.317047 103.228752 31.736214 104.625 31.827293 C 104.472504 32.051468 104.389252 32.303062 104.375 32.582092 C 104.291748 32.582092 104.208252 32.582092 104.125 32.582092 C 103.611748 32.557426 103.195 32.72525 102.875 33.085289 C 100.149498 30.448776 96.899498 29.568184 93.125 30.443497 C 91.35675 30.82618 89.940002 31.706779 88.875 33.085289 C 88.278503 33.304932 87.778503 33.682327 87.375 34.217484 C 89.105499 33.264931 90.938751 32.426102 92.875 31.701492 C 95.567749 30.990227 98.151253 31.241821 100.625 32.456291 C 101.485252 33.152718 102.151749 33.991295 102.625 34.972282 C 102.592499 35.238731 102.467499 35.448311 102.25 35.60128 C 98.431503 33.325058 94.556503 33.283051 90.625 35.475479 C 90.025253 35.97364 89.525253 36.51886 89.125 37.110878 C 88.111252 37.761261 88.194504 38.264465 89.375 38.620468 C 89.756752 38.602104 90.006752 38.769913 90.125 39.123665 C 90.886497 39.842484 91.803253 40.303665 92.875 40.507462 C 95.611748 41.188293 98.361748 41.272072 101.125 40.759064 C 101.799004 40.566582 102.424004 40.272972 103 39.878464 C 103.112 40.358765 102.903748 40.652382 102.375 40.759064 C 101.375 41.010658 100.375 41.26226 99.375 41.513855 C 100.401253 41.634621 101.401253 41.508827 102.375 41.136459 C 102.331497 41.597137 102.081497 42.058563 101.625 42.520256 C 100.041 43.240845 98.374496 43.576225 96.625 43.526649 C 99.820251 44.497826 102.112 43.449669 103.5 40.381668 C 103.704002 40.714523 103.99575 40.882103 104.375 40.884865 C 104.493248 41.238617 104.743248 41.406425 105.125 41.388062 C 107.080498 41.839935 109.080498 42.217339 111.125 42.520256 C 110.361504 43.072266 109.528 43.491676 108.625 43.778252 C 109.513252 44.117912 110.429749 44.41153 111.375 44.658852 C 110.945251 45.124809 110.445251 45.460442 109.875 45.665245 C 109.427002 45.868797 108.927002 45.994591 108.375 46.042648 C 105.625504 46.250214 102.875504 46.334 100.125 46.294243 C 96.375252 45.12204 92.667 43.822029 89 42.394455 C 88.124748 42.399231 87.791496 42.818657 88 43.652451 C 89.328247 45.576683 91.036499 47.04451 93.125 48.055443 C 93.939499 48.424522 94.773003 48.717896 95.625 48.936035 C 95.917747 49.148636 96.251251 49.3162 96.625 49.439232 C 96.6175 49.690079 96.7425 49.857895 97 49.942436 C 97.841751 50.101692 98.633247 50.395309 99.375 50.823029 C 100.2285 50.897751 101.061752 51.065567 101.875 51.326225 C 102.792 52.917839 103.333748 54.637272 103.5 56.484009 C 103.677002 56.705669 103.885498 56.873234 104.125 56.987206 C 104.315498 57.901268 104.649002 58.739849 105.125 59.503197 C 105.589752 60.893284 106.547997 61.732113 108 62.019192 C 108.383247 61.950504 108.758247 61.866718 109.125 61.76759 C 109.224251 62.025478 109.390747 62.067497 109.625 61.893391 C 110.753502 61.115696 111.836746 60.276863 112.875 59.377399 C 113.195999 59.205303 113.487747 59.247322 113.75 59.503197 C 113.913254 60.5891 114.205002 61.637516 114.625 62.648186 C 114.0495 63.145599 113.5495 63.732578 113.125 64.409378 C 113.685753 64.329117 114.227501 64.37114 114.75 64.535179 C 115.12925 65.939102 115.212753 67.364922 115 68.812363 C 113.902496 69.25116 112.777496 69.670319 111.625 70.070358 C 111.859497 70.335297 112.151253 70.503113 112.5 70.573563 C 113.35775 70.243713 114.23275 69.992119 115.125 69.818756 C 116.046753 75.209778 114.921753 80.074188 111.75 84.411514 C 110.949753 85.301178 110.074753 86.097984 109.125 86.801704 C 102.416496 89.684021 95.999748 89.180824 89.875 85.292114 C 85.043999 84.46183 81.668999 81.736008 79.75 77.115135 C 79.583252 76.695724 79.583252 76.276558 79.75 75.857147 C 80.308746 76.285362 80.933746 76.536964 81.625 76.611938 C 81.697746 76.901024 81.905998 77.068848 82.25 77.115135 C 83.044998 76.945564 83.753502 76.609924 84.375 76.108742 C 84.771248 76.230766 85.146248 76.063202 85.5 75.605545 C 85.67025 74.426056 86.253754 73.503426 87.25 72.837952 C 87.647751 71.626762 88.022751 70.410782 88.375 69.189774 C 88.186249 68.399734 88.144501 67.602928 88.25 66.799576 C 85.875748 64.318054 86.334 62.514839 89.625 61.39019 C 91.723 61.122742 93.723 60.535763 95.625 59.628998 C 96.905251 58.718716 97.738747 57.502731 98.125 55.980808 C 97.4375 55.021965 96.6875 54.09935 95.875 53.213219 C 95.06575 53.594391 94.31575 53.510361 93.625 52.961617 C 92.515747 54.098095 91.682503 53.930527 91.125 52.45842 C 90.838501 52.620712 90.588501 52.830284 90.375 53.087418 C 90.125 53.255234 89.875 53.255234 89.625 53.087418 C 88.637001 51.956726 87.928749 50.656715 87.5 49.18763 C 85.969002 43.818504 85.719002 38.367363 86.75 32.833687 C 87.267998 31.437317 88.059753 30.221336 89.125 29.185501 C 93.805 25.213509 98.971748 24.458603 104.625 26.921112 C 105.709 27.589355 106.625504 28.42794 107.375 29.437103 C 107.005501 30.437958 106.338753 31.150742 105.375 31.575691 Z" stroke="none" fill-rule="evenodd" fill="#8f59ac" id="Path"></path>
    </g>
    <g id="g1">
        <path d="M 129.375 33.588486 C 129.834244 33.623459 129.917496 33.791275 129.625 34.091682 C 129.425507 33.9767 129.342255 33.808891 129.375 33.588486 Z" opacity="0.094" stroke="none" fill-rule="evenodd" fill="#d897fb" id="path1"></path>
    </g>
    <g id="g2">
        <path d="M 84.375 36.356079 C 84.708252 36.523888 84.708252 36.523888 84.375 36.356079 Z" opacity="0.004" stroke="none" fill-rule="evenodd" fill="#000000" id="path2"></path>
    </g>
    <g id="g3">
        <path d="M 137.625 37.362473 C 137.625 37.194664 137.625 37.027084 137.625 36.859276 C 137.846497 36.538231 138.096497 36.538231 138.375 36.859276 C 138.248749 37.216301 137.998749 37.383865 137.625 37.362473 Z" opacity="0.004" stroke="none" fill-rule="evenodd" fill="#d613e8" id="path3"></path>
    </g>
    <g id="g4">
        <path d="M 137.625 36.859276 C 137.625 37.027084 137.625 37.194664 137.625 37.362473 C 137.349747 37.638733 137.016495 37.680756 136.625 37.488274 C 136.867752 37.115654 137.201004 36.905823 137.625 36.859276 Z" opacity="0.008" stroke="none" fill-rule="evenodd" fill="#7b7887" id="path4"></path>
    </g>
    <g id="g5">
        <path d="M 136.125 37.865669 C 136.458252 38.033485 136.458252 38.033485 136.125 37.865669 Z" opacity="0.004" stroke="none" fill-rule="evenodd" fill="#00000c" id="path5"></path>
    </g>
    <g id="g6">
        <path d="M 134.125 44.910446 C 134.584244 44.945419 134.667496 45.113235 134.375 45.413643 C 134.175507 45.29866 134.092255 45.130852 134.125 44.910446 Z" opacity="0.004" stroke="none" fill-rule="evenodd" fill="#0e0ca0" id="path6"></path>
    </g>
    <g id="g7">
        <path d="M 137.125 47.426437 C 137.125 47.594254 137.208252 47.67804 137.375 47.67804 C 138.373993 48.221245 138.915497 49.059822 139 50.194031 C 140.241257 50.970215 140.949753 52.102417 141.125 53.590622 C 139.931503 57.759113 137.181503 60.107536 132.875 60.635395 C 130.656494 63.197426 127.906502 64.958633 124.625 65.918976 C 124.291748 66.170578 124.291748 66.422173 124.625 66.673775 C 124.324753 66.90097 124.116249 67.194328 124 67.554375 C 123.583252 67.889755 123.166748 67.889755 122.75 67.554375 C 122.62925 67.792892 122.587753 68.044487 122.625 68.309166 C 121.673752 68.605042 120.798752 68.437241 120 67.805969 C 119.5 68.47699 119 68.47699 118.5 67.805969 C 118.24675 68.741913 117.955002 69.664284 117.625 70.573563 C 118.41275 75.223114 117.621002 79.668114 115.25 83.908318 C 114.010246 85.409103 112.552002 86.625084 110.875 87.556503 C 111.600502 88.276833 111.516998 88.863815 110.625 89.317696 C 110.834251 89.572067 110.917503 89.865677 110.875 90.198296 C 110.694504 90.093132 110.569504 89.92556 110.5 89.695099 C 110.400253 89.752457 110.358749 89.836494 110.375 89.946701 C 109.841003 89.719498 109.341003 89.426132 108.875 89.066101 C 109.270248 88.888214 109.645248 88.678627 110 88.437096 C 110.011253 87.724068 110.219749 87.09507 110.625 86.550102 C 113.20575 85.46244 114.914001 83.575447 115.75 80.889122 C 117.136002 77.146835 117.427498 73.330833 116.625 69.441368 C 116.862 69.319839 117.112 69.278076 117.375 69.315559 C 117.377747 68.800545 117.460999 68.297348 117.625 67.805969 C 117.515251 67.402405 117.348503 67.025002 117.125 66.673775 C 117.208252 66.547974 117.291748 66.422173 117.375 66.296371 C 117.541748 66.464188 117.708252 66.63176 117.875 66.799576 C 117.958252 66.71579 118.041748 66.63176 118.125 66.547974 C 117.528252 65.895325 117.528252 65.266327 118.125 64.66098 C 118.002998 63.911968 117.669502 63.28297 117.125 62.773987 C 117.331253 62.551067 117.581253 62.467289 117.875 62.522388 C 117.925499 61.896156 117.800499 61.308926 117.5 60.761192 C 117.08075 60.213715 116.622253 59.710518 116.125 59.251598 C 116.458252 59.167816 116.791748 59.083782 117.125 59 C 116.208252 57.993603 115.291748 56.987206 114.375 55.980808 C 114.500504 55.72393 114.667 55.681908 114.875 55.855011 C 115.842247 56.74416 116.717247 57.708542 117.5 58.748402 C 117.23275 59.644596 117.48275 60.399391 118.25 61.012794 C 118.435249 61.783192 118.393753 62.537987 118.125 63.277187 C 118.317497 64.010094 118.567497 64.723129 118.875 65.415787 C 118.466003 66.159004 118.591003 66.78801 119.25 67.30278 C 119.304749 66.940979 119.429749 66.605591 119.625 66.296371 C 120.074501 67.528954 120.907997 67.94838 122.125 67.554375 C 121.709503 67.098724 121.667999 66.679314 122 66.296371 C 122.433502 66.787239 122.97525 67.038834 123.625 67.051178 C 123.708252 66.296371 123.375 65.960991 122.625 66.044769 C 122.625 65.793175 122.625 65.541573 122.625 65.289978 C 126.294998 64.805893 129.419998 63.212524 132 60.509594 C 132.132004 60.178493 132.007004 60.010674 131.625 60.006397 C 131.332245 59.793797 130.998749 59.626232 130.625 59.503197 C 130.464752 59.25613 130.298248 59.004532 130.125 58.748402 C 130.208252 58.664619 130.291748 58.580582 130.375 58.496803 C 131.551743 59.687119 132.968506 60.064514 134.625 59.628998 C 137.391251 58.774315 139.266251 56.971104 140.25 54.219616 C 140.479248 51.089973 139.1875 50.125595 136.375 51.326225 C 135.410995 52.009315 134.827744 52.931679 134.625 54.093815 C 135.264496 55.882687 136.431244 56.34412 138.125 55.477612 C 138.458252 55.309792 138.458252 55.142231 138.125 54.974411 C 137.641998 55.231049 137.141998 55.27306 136.625 55.100212 C 137.9095 54.915791 138.9095 54.286793 139.625 53.213219 C 139.708252 53.297005 139.791748 53.381035 139.875 53.464821 C 139.342743 54.104889 138.925995 54.817921 138.625 55.603413 C 136.777756 56.694096 135.277756 56.358711 134.125 54.597015 C 133.716507 54.472725 133.299744 54.430958 132.875 54.471218 C 131.753998 55.182236 131.003998 56.188633 130.625 57.490406 C 130.507507 56.423622 130.924255 55.543026 131.875 54.848614 C 130.965256 54.918556 130.048492 54.918556 129.125 54.848614 C 128.469757 54.447311 127.803253 54.069916 127.125 53.716423 C 127.618752 53.392365 127.618752 52.972939 127.125 52.45842 C 127.166748 52.374634 127.208252 52.290611 127.25 52.206825 C 127.733002 53.058235 128.358002 53.771271 129.125 54.345417 C 129.958252 54.513233 130.791748 54.513233 131.625 54.345417 C 132.330246 53.661819 132.24675 53.074844 131.375 52.584221 C 131.112747 52.460434 130.862747 52.502205 130.625 52.710022 C 130.302246 51.704628 129.885757 50.740257 129.375 49.816635 C 129.041748 49.648811 128.708252 49.648811 128.375 49.816635 C 125.610748 52.55378 125.777496 55.153805 128.875 57.616203 C 128.708252 57.784023 128.541748 57.784023 128.375 57.616203 C 127.738747 57.018402 127.155502 56.389404 126.625 55.72921 C 125.230247 57.510536 123.563499 58.978111 121.625 60.132198 C 121.116501 60.435371 120.616501 60.47739 120.125 60.257996 C 121.115997 59.839836 121.949501 59.252605 122.625 58.496803 C 122.791748 58.496803 122.875 58.413021 122.875 58.245205 C 124.203751 57.452667 125.245247 56.362484 126 54.974411 C 125.574753 52.820473 126.199753 51.017258 127.875 49.565033 C 128.348007 49.320221 128.848007 49.152405 129.375 49.061829 C 131.391251 45.554291 133.974747 45.009331 137.125 47.426437 Z" stroke="none" fill-rule="evenodd" fill="#130915" id="path7"></path>
    </g>
    <g id="g8">
        <path d="M 122.875 58.245205 C 122.875 58.413021 122.791748 58.496803 122.625 58.496803 C 119.29525 58.099274 116.67025 56.505901 114.75 53.716423 C 114.583252 53.381035 114.416748 53.045403 114.25 52.710022 C 114.166748 49.271416 114.083252 45.833061 114 42.394455 C 112.845497 43.79158 111.387253 44.252769 109.625 43.778252 C 110.60675 43.473312 111.60675 43.22171 112.625 43.023453 C 113.291748 42.688072 113.791748 42.184875 114.125 41.513855 C 112.742996 41.590088 111.367996 41.799927 110 42.14286 C 109.708252 42.059074 109.416748 41.975044 109.125 41.891258 C 110.905746 41.658531 112.655746 41.281136 114.375 40.759064 C 114.903999 40.464439 115.070503 40.087036 114.875 39.626862 C 113.871498 40.468216 112.70475 40.929398 111.375 41.010658 C 108.929001 41.272827 106.554001 40.979469 104.25 40.130066 C 104.125 40.172081 104 40.213844 103.875 40.255867 C 104.095253 40.433998 104.261749 40.643829 104.375 40.884865 C 103.99575 40.882103 103.704002 40.714523 103.5 40.381668 C 102.112 43.449669 99.820251 44.497826 96.625 43.526649 C 98.374496 43.576225 100.041 43.240845 101.625 42.520256 C 102.081497 42.058563 102.331497 41.597137 102.375 41.136459 C 101.401253 41.508827 100.401253 41.634621 99.375 41.513855 C 100.375 41.26226 101.375 41.010658 102.375 40.759064 C 102.903748 40.652382 103.112 40.358765 103 39.878464 C 102.424004 40.272972 101.799004 40.566582 101.125 40.759064 C 98.361748 41.272072 95.611748 41.188293 92.875 40.507462 C 91.803253 40.303665 90.886497 39.842484 90.125 39.123665 C 90.791748 39.375267 91.458252 39.626862 92.125 39.878464 C 92.510498 40.079994 92.927002 40.16378 93.375 40.130066 C 96.488251 41.248421 99.571503 41.122627 102.625 39.752663 C 103.502502 39.272873 103.793999 38.560089 103.5 37.614067 C 102.38575 36.252167 101.01075 35.664932 99.375 35.852875 C 99.060753 35.570335 99.143997 35.402763 99.625 35.349678 C 101.181252 35.357231 102.472748 35.944214 103.5 37.110878 C 103.492752 33.913803 101.951248 31.858994 98.875 30.946693 C 95.204498 30.234169 91.871246 30.946953 88.875 33.085289 C 89.940002 31.706779 91.35675 30.82618 93.125 30.443497 C 96.899498 29.568184 100.149498 30.448776 102.875 33.085289 C 103.321503 34.055199 103.696503 35.061592 104 36.104477 C 104.261253 35.884834 104.469498 35.633232 104.625 35.349678 C 105.125 35.18187 105.625 35.014297 106.125 34.846481 C 106.373001 34.803207 106.539497 34.887238 106.625 35.098083 C 105.324501 35.230423 104.491249 35.817406 104.125 36.859276 C 105.449997 35.827965 106.949997 35.408562 108.625 35.60128 C 108.054749 35.81237 107.471252 36.063972 106.875 36.356079 C 106.642754 36.655228 106.559502 36.990608 106.625 37.362473 C 106.391502 37.093773 106.307999 36.758385 106.375 36.356079 C 105.515747 36.515587 104.723999 36.850967 104 37.362473 C 104.250252 38.04129 104.125252 38.670288 103.625 39.249466 C 105.014999 40.022629 106.514999 40.442047 108.125 40.507462 C 110.223 40.838318 112.223 40.586716 114.125 39.752663 C 115.516251 38.635567 115.432999 37.670937 113.875 36.859276 C 114.548752 36.968216 115.0905 37.303596 115.5 37.865669 C 115.521004 35.275467 114.312752 33.472244 111.875 32.456291 C 110.053749 32.100525 108.220497 32.016747 106.375 32.204689 C 105.648003 32.378036 104.981247 32.671402 104.375 33.085289 C 104.175499 32.970306 104.092247 32.80249 104.125 32.582092 C 104.208252 32.582092 104.291748 32.582092 104.375 32.582092 C 107.091003 31.394043 109.841003 31.268242 112.625 32.204689 C 107.672752 25.511398 101.172752 23.330818 93.125 25.663116 C 87.849998 28.100853 85.266747 32.252243 85.375 38.117271 C 85.572502 43.575722 86.363998 48.943077 87.75 54.219616 C 88.002747 54.430206 88.294502 54.513988 88.625 54.471218 C 88.183746 54.713001 87.683746 54.797035 87.125 54.722813 C 85.792747 49.317963 85.042747 43.824799 84.875 38.243073 C 84.445747 34.81076 85.279251 31.749809 87.375 29.0597 C 86.712502 28.266914 86.003998 27.512115 85.25 26.795311 C 84.192001 25.477684 83.983749 24.052048 84.625 22.51812 C 85.018997 21.995529 85.518997 21.618126 86.125 21.385933 C 87.504753 21.134506 88.838249 21.260307 90.125 21.763329 C 90.766251 21.788589 91.432999 21.662788 92.125 21.385933 C 92.735001 15.666832 95.485001 14.408836 100.375 17.611938 C 101.076752 18.820198 101.951752 19.86853 103 20.756927 C 103.848747 20.193871 104.723747 19.690674 105.625 19.247337 C 107.944504 19.627571 108.903 21.053314 108.5 23.524521 C 107.989754 24.384712 107.614754 25.30735 107.375 26.292107 C 109.893501 27.862335 111.851997 29.958916 113.25 32.582092 C 115.026253 33.893173 115.943001 35.654366 116 37.865669 C 115.092003 40.079994 114.633751 42.386406 114.625 44.784645 C 114.587502 47.232964 114.712502 49.790718 115 52.45842 C 116.780251 55.517368 119.405251 57.446125 122.875 58.245205 Z" opacity="0.827" stroke="none" fill-rule="evenodd" fill="#181418" id="path8"></path>
    </g>
    <g id="g9">
        <path d="M 109.875 45.665245 C 110.878502 45.623474 111.878502 45.665497 112.875 45.791046 C 113.811996 47.549217 113.395248 48.848976 111.625 49.690834 C 111.958252 49.271416 112.291748 48.852249 112.625 48.432838 C 112.954498 47.661682 112.954498 46.865112 112.625 46.042648 C 109.66375 46.172974 106.747253 46.466339 103.875 46.923241 C 102.452751 46.915192 101.036247 46.831161 99.625 46.671638 C 96.159752 45.439308 92.701248 44.181313 89.25 42.897652 C 88.958252 42.981438 88.666748 43.065468 88.375 43.149254 C 88.7845 43.854736 89.242752 44.525757 89.75 45.162048 C 90.112747 45.656181 90.570999 45.99157 91.125 46.168442 C 91.210503 46.379288 91.376999 46.463318 91.625 46.420044 C 92.874252 47.384666 94.207497 48.223251 95.625 48.936035 C 94.773003 48.717896 93.939499 48.424522 93.125 48.055443 C 91.036499 47.04451 89.328247 45.576683 88 43.652451 C 87.791496 42.818657 88.124748 42.399231 89 42.394455 C 92.667 43.822029 96.375252 45.12204 100.125 46.294243 C 102.875504 46.334 105.625504 46.250214 108.375 46.042648 C 108.927002 45.994591 109.427002 45.868797 109.875 45.665245 Z" opacity="0.969" stroke="none" fill-rule="evenodd" fill="#20161b" id="path9"></path>
    </g>
    <g id="g10">
        <path d="M 111.375 47.929642 C 110.721252 48.128654 110.054497 48.296219 109.375 48.432838 C 103.108253 48.945099 97.108253 47.938698 91.375 45.413643 C 90.974998 45.125816 90.55825 44.832199 90.125 44.533051 C 90.25 44.491035 90.375 44.449265 90.5 44.407249 C 96.130249 47.120743 102.088501 48.336723 108.375 48.055443 C 109.215248 47.970642 110.0485 47.844849 110.875 47.67804 C 111.103996 47.688858 111.270752 47.772636 111.375 47.929642 Z" opacity="0.916" stroke="none" fill-rule="evenodd" fill="#231a1a" id="path10"></path>
    </g>
    <g id="g11">
        <path d="M 112.625 48.432838 C 112.689003 47.856171 112.605751 47.310959 112.375 46.79744 C 109.544502 46.819077 106.71125 46.861092 103.875 46.923241 C 106.747253 46.466339 109.66375 46.172974 112.625 46.042648 C 112.954498 46.865112 112.954498 47.661682 112.625 48.432838 Z" stroke="none" fill-rule="evenodd" fill="#a44e3c" id="path11"></path>
    </g>
    <g id="g12">
        <path d="M 99.625 46.671638 C 99.362 46.634155 99.112 46.675919 98.875 46.79744 C 103.188248 47.808609 107.5215 47.93441 111.875 47.174835 C 111.928749 47.597282 111.762001 47.848877 111.375 47.929642 C 111.270752 47.772636 111.103996 47.688858 110.875 47.67804 C 110.0485 47.844849 109.215248 47.970642 108.375 48.055443 C 102.088501 48.336723 96.130249 47.120743 90.5 44.407249 C 90.375 44.449265 90.25 44.491035 90.125 44.533051 C 90.55825 44.832199 90.974998 45.125816 91.375 45.413643 C 91.190247 45.380692 91.023499 45.422707 90.875 45.539444 C 91.063004 45.708275 91.1465 45.917847 91.125 46.168442 C 90.570999 45.99157 90.112747 45.656181 89.75 45.162048 C 89.242752 44.525757 88.7845 43.854736 88.375 43.149254 C 88.666748 43.065468 88.958252 42.981438 89.25 42.897652 C 92.701248 44.181313 96.159752 45.439308 99.625 46.671638 Z" stroke="none" fill-rule="evenodd" fill="#c1664f" id="path12"></path>
    </g>
    <g id="g13">
        <path d="M 103.875 44.407249 C 104.738998 44.667908 104.822502 45.087326 104.125 45.665245 C 103.643997 45.296654 103.560753 44.877228 103.875 44.407249 Z" stroke="none" fill-rule="evenodd" fill="#19121d" id="path13"></path>
    </g>
    <g id="g14">
        <path d="M 105.375 44.155655 C 106.209503 44.330002 106.334503 44.74942 105.75 45.413643 C 105.432747 45.06015 105.307747 44.640991 105.375 44.155655 Z" stroke="none" fill-rule="evenodd" fill="#070409" id="path14"></path>
    </g>
    <g id="g15">
        <path d="M 104.375 40.884865 C 104.857246 40.817184 105.27375 40.942986 105.625 41.26226 C 105.476501 41.378998 105.309753 41.421013 105.125 41.388062 C 104.743248 41.406425 104.493248 41.238617 104.375 40.884865 Z" opacity="0.969" stroke="none" fill-rule="evenodd" fill="#2c1a34" id="path15"></path>
    </g>
    <g id="g16">
        <path d="M 94.625 38.117271 C 96.276001 40.258629 98.109497 40.426437 100.125 38.620468 C 100.760498 38.903259 101.427002 39.113106 102.125 39.249466 C 101.247498 39.767006 100.33075 40.186172 99.375 40.507462 C 97.370003 40.521049 95.370003 40.395256 93.375 40.130066 C 92.927002 40.16378 92.510498 40.079994 92.125 39.878464 C 92.152748 39.723228 92.236 39.597427 92.375 39.50106 C 91.731003 39.304321 91.231003 38.926926 90.875 38.368874 C 92.113998 38.118774 93.363998 38.034996 94.625 38.117271 Z" stroke="none" fill-rule="evenodd" fill="#fbdcf6" id="path16"></path>
    </g>
    <g id="g17">
        <path d="M 113.875 36.859276 C 115.432999 37.670937 115.516251 38.635567 114.125 39.752663 C 112.223 40.586716 110.223 40.838318 108.125 40.507462 C 106.514999 40.442047 105.014999 40.022629 103.625 39.249466 C 104.125252 38.670288 104.250252 38.04129 104 37.362473 C 104.723999 36.850967 105.515747 36.515587 106.375 36.356079 C 106.307999 36.758385 106.391502 37.093773 106.625 37.362473 C 106.625 37.530289 106.625 37.697861 106.625 37.865669 C 104.348999 38.374908 104.348999 39.003899 106.625 39.752663 C 107.488998 39.797951 108.32225 39.965767 109.125 40.255867 C 110.810753 40.372101 112.393997 39.994705 113.875 39.123665 C 113.449753 38.589272 112.949753 38.421448 112.375 38.620468 C 112.546501 37.667664 112.296501 36.870857 111.625 36.230278 C 112.359497 36.405388 113.109497 36.615227 113.875 36.859276 Z" stroke="none" fill-rule="evenodd" fill="#e4b8ea" id="path17"></path>
    </g>
    <g id="g18">
        <path d="M 106.625 37.865669 C 107.761497 39.548363 109.345001 40.177361 111.375 39.752663 C 111.908752 39.532265 112.242249 39.154861 112.375 38.620468 C 112.949753 38.421448 113.449753 38.589272 113.875 39.123665 C 112.393997 39.994705 110.810753 40.372101 109.125 40.255867 C 108.32225 39.965767 107.488998 39.797951 106.625 39.752663 C 104.348999 39.003899 104.348999 38.374908 106.625 37.865669 Z" stroke="none" fill-rule="evenodd" fill="#f9def5" id="path18"></path>
    </g>
    <g id="g19">
        <path d="M 99.375 35.852875 C 101.01075 35.664932 102.38575 36.252167 103.5 37.614067 C 103.793999 38.560089 103.502502 39.272873 102.625 39.752663 C 99.571503 41.122627 96.488251 41.248421 93.375 40.130066 C 95.370003 40.395256 97.370003 40.521049 99.375 40.507462 C 100.33075 40.186172 101.247498 39.767006 102.125 39.249466 C 101.427002 39.113106 100.760498 38.903259 100.125 38.620468 C 100.166 37.94442 100.124252 37.273407 100 36.607681 C 99.905746 36.244865 99.697502 35.993263 99.375 35.852875 Z" stroke="none" fill-rule="evenodd" fill="#e7b9ef" id="path19"></path>
    </g>
    <g id="g20">
        <path d="M 94.625 38.117271 C 93.363998 38.034996 92.113998 38.118774 90.875 38.368874 C 91.231003 38.926926 91.731003 39.304321 92.375 39.50106 C 92.236 39.597427 92.152748 39.723228 92.125 39.878464 C 91.458252 39.626862 90.791748 39.375267 90.125 39.123665 C 90.006752 38.769913 89.756752 38.602104 89.375 38.620468 C 88.938004 38.296158 88.854752 37.918762 89.125 37.488274 C 90.599998 36.578239 92.18325 35.949242 93.875 35.60128 C 94.041748 35.685066 94.208252 35.769096 94.375 35.852875 C 94.0905 36.640633 94.174004 37.395432 94.625 38.117271 Z" stroke="none" fill-rule="evenodd" fill="#edbdf6" id="path20"></path>
    </g>
    <g id="g21">
        <path d="M 108.625 35.60128 C 109.711502 35.559509 110.794746 35.601532 111.875 35.727074 C 112.658249 35.943451 113.324997 36.320847 113.875 36.859276 C 113.109497 36.615227 112.359497 36.405388 111.625 36.230278 C 112.296501 36.870857 112.546501 37.667664 112.375 38.620468 C 112.242249 39.154861 111.908752 39.532265 111.375 39.752663 C 109.345001 40.177361 107.761497 39.548363 106.625 37.865669 C 106.625 37.697861 106.625 37.530289 106.625 37.362473 C 106.559502 36.990608 106.642754 36.655228 106.875 36.356079 C 107.471252 36.063972 108.054749 35.81237 108.625 35.60128 Z" opacity="0.996" stroke="none" fill-rule="evenodd" fill="#0c0a0c" id="path21"></path>
    </g>
    <g id="g22">
        <path d="M 99.625 35.349678 C 99.143997 35.402763 99.060753 35.570335 99.375 35.852875 C 99.697502 35.993263 99.905746 36.244865 100 36.607681 C 100.124252 37.273407 100.166 37.94442 100.125 38.620468 C 98.109497 40.426437 96.276001 40.258629 94.625 38.117271 C 94.174004 37.395432 94.0905 36.640633 94.375 35.852875 C 94.208252 35.769096 94.041748 35.685066 93.875 35.60128 C 92.18325 35.949242 90.599998 36.578239 89.125 37.488274 C 88.854752 37.918762 88.938004 38.296158 89.375 38.620468 C 88.194504 38.264465 88.111252 37.761261 89.125 37.110878 C 92.422501 35.222374 95.922501 34.635139 99.625 35.349678 Z" opacity="0.995" stroke="none" fill-rule="evenodd" fill="#0c0a0b" id="path22"></path>
    </g>
    <g id="g23">
        <path d="M 113.875 36.859276 C 113.324997 36.320847 112.658249 35.943451 111.875 35.727074 C 110.794746 35.601532 109.711502 35.559509 108.625 35.60128 C 106.949997 35.408562 105.449997 35.827965 104.125 36.859276 C 104.491249 35.817406 105.324501 35.230423 106.625 35.098083 C 107.831001 34.974289 108.997498 34.80648 110.125 34.594887 C 111.156998 34.718666 112.156998 34.970268 113.125 35.349678 C 113.291748 35.265892 113.458252 35.18187 113.625 35.098083 C 112.136749 33.101387 110.136749 32.304581 107.625 32.707893 C 106.136253 32.909164 105.05275 33.663963 104.375 34.972282 C 104.392502 35.164757 104.475754 35.290558 104.625 35.349678 C 104.469498 35.633232 104.261253 35.884834 104 36.104477 C 103.696503 35.061592 103.321503 34.055199 102.875 33.085289 C 103.195 32.72525 103.611748 32.557426 104.125 32.582092 C 104.092247 32.80249 104.175499 32.970306 104.375 33.085289 C 104.981247 32.671402 105.648003 32.378036 106.375 32.204689 C 108.220497 32.016747 110.053749 32.100525 111.875 32.456291 C 114.312752 33.472244 115.521004 35.275467 115.5 37.865669 C 115.0905 37.303596 114.548752 36.968216 113.875 36.859276 Z" stroke="none" fill-rule="evenodd" fill="#7c38a1" id="path23"></path>
    </g>
    <g id="g24">
        <path d="M 99.625 35.349678 C 95.922501 34.635139 92.422501 35.222374 89.125 37.110878 C 89.525253 36.51886 90.025253 35.97364 90.625 35.475479 C 94.556503 33.283051 98.431503 33.325058 102.25 35.60128 C 102.467499 35.448311 102.592499 35.238731 102.625 34.972282 C 102.151749 33.991295 101.485252 33.152718 100.625 32.456291 C 98.151253 31.241821 95.567749 30.990227 92.875 31.701492 C 90.938751 32.426102 89.105499 33.264931 87.375 34.217484 C 87.778503 33.682327 88.278503 33.304932 88.875 33.085289 C 91.871246 30.946953 95.204498 30.234169 98.875 30.946693 C 101.951248 31.858994 103.492752 33.913803 103.5 37.110878 C 102.472748 35.944214 101.181252 35.357231 99.625 35.349678 Z" stroke="none" fill-rule="evenodd" fill="#7a379e" id="path24"></path>
    </g>
    <g id="g25">
        <path d="M 110.125 34.594887 C 109.674004 34.428329 109.174004 34.344543 108.625 34.343285 C 107.720749 34.317627 106.887497 34.485435 106.125 34.846481 C 105.625 35.014297 105.125 35.18187 104.625 35.349678 C 104.475754 35.290558 104.392502 35.164757 104.375 34.972282 C 105.05275 33.663963 106.136253 32.909164 107.625 32.707893 C 110.136749 32.304581 112.136749 33.101387 113.625 35.098083 C 113.458252 35.18187 113.291748 35.265892 113.125 35.349678 C 112.156998 34.970268 111.156998 34.718666 110.125 34.594887 Z" stroke="none" fill-rule="evenodd" fill="#905aae" id="path25"></path>
    </g>
    <g id="g26">
        <path d="M 110.125 34.594887 C 108.997498 34.80648 107.831001 34.974289 106.625 35.098083 C 106.539497 34.887238 106.373001 34.803207 106.125 34.846481 C 106.887497 34.485435 107.720749 34.317627 108.625 34.343285 C 109.174004 34.344543 109.674004 34.428329 110.125 34.594887 Z" opacity="0.996" stroke="none" fill-rule="evenodd" fill="#3c2148" id="path26"></path>
    </g>
    <g id="g27">
        <path d="M 92.625 22.014923 C 92.414253 22.435928 92.081001 22.729469 91.625 22.895523 C 90.70575 23.009377 89.789001 22.96743 88.875 22.769722 C 86.552254 22.715057 85.677254 23.805305 86.25 26.040512 C 86.753998 26.590004 87.295753 27.093201 87.875 27.55011 C 89.320747 26.495651 90.903999 25.740852 92.625 25.285713 C 90.988503 26.255379 89.405251 27.34581 87.875 28.556503 C 86.960251 27.84523 86.168503 27.006653 85.5 26.040512 C 84.069252 23.426743 84.819252 22.0849 87.75 22.014923 C 89.383247 22.319382 91.008247 22.319382 92.625 22.014923 Z" stroke="none" fill-rule="evenodd" fill="#ed3dad" id="path27"></path>
    </g>
    <g id="g28">
        <path d="M 104.125 21.00853 C 105.303001 19.672287 106.511253 19.672287 107.75 21.00853 C 108.105499 21.645096 108.188751 22.316017 108 23.021324 C 107.394501 24.028946 106.977753 25.119202 106.75 26.292107 C 102.255249 24.058388 97.630249 23.722931 92.875 25.285713 C 93.24025 24.612335 93.823502 24.23494 94.625 24.153519 C 99.691254 24.402428 100.983002 22.26384 98.5 17.73774 C 95.228752 16.493149 93.561996 17.667267 93.5 21.260132 C 93.332253 21.449432 93.124001 21.533318 92.875 21.511726 C 93.039749 16.505127 95.289749 15.289078 99.625 17.863541 C 100.422997 19.047165 101.3395 20.137413 102.375 21.134331 C 102.971252 21.274323 103.554497 21.232376 104.125 21.00853 Z" stroke="none" fill-rule="evenodd" fill="#eb3cab" id="path28"></path>
    </g>
    <g id="g29">
        <path d="M 104.125 21.00853 C 104.621002 21.03791 105.037498 20.870178 105.375 20.505325 C 105.5215 20.557991 105.6465 20.641846 105.75 20.756927 C 106.065498 21.866325 105.857002 22.830811 105.125 23.650322 C 104.287498 23.884285 103.579247 23.674599 103 23.021324 C 102.833252 22.769722 102.833252 22.51812 103 22.266525 C 103.439499 21.868195 103.814499 21.448845 104.125 21.00853 Z" stroke="none" fill-rule="evenodd" fill="#fe48d7" id="path29"></path>
    </g>
    <g id="g30">
        <path d="M 92.875 25.285713 C 92.791748 25.285713 92.708252 25.285713 92.625 25.285713 C 90.903999 25.740852 89.320747 26.495651 87.875 27.55011 C 87.295753 27.093201 86.753998 26.590004 86.25 26.040512 C 85.677254 23.805305 86.552254 22.715057 88.875 22.769722 C 89.789001 22.96743 90.70575 23.009377 91.625 22.895523 C 92.081001 22.729469 92.414253 22.435928 92.625 22.014923 C 92.708252 21.847191 92.791748 21.679466 92.875 21.511726 C 93.124001 21.533318 93.332253 21.449432 93.5 21.260132 C 93.561996 17.667267 95.228752 16.493149 98.5 17.73774 C 100.983002 22.26384 99.691254 24.402428 94.625 24.153519 C 93.823502 24.23494 93.24025 24.612335 92.875 25.285713 Z" stroke="none" fill-rule="evenodd" fill="#fe49d8" id="path30"></path>
    </g>
    <g id="g31">
        <path d="M 137.375 47.67804 C 137.208252 47.67804 137.125 47.594254 137.125 47.426437 C 137.177994 46.952423 137.427994 46.61705 137.875 46.420044 C 138.145752 46.637672 138.187256 46.889275 138 47.174835 C 137.751251 47.317245 137.542999 47.485062 137.375 47.67804 Z" opacity="0.114" stroke="none" fill-rule="evenodd" fill="#9058aa" id="path31"></path>
    </g>
    <g id="g32">
        <path d="M 133.125 46.168442 C 134.13475 45.9571 134.88475 46.292473 135.375 47.174835 C 133.208496 48.180984 131.875244 49.858398 131.375 52.206825 C 131.130493 52.086807 130.922256 51.919243 130.75 51.703629 C 130.526993 51.003174 130.235504 50.332405 129.875 49.690834 C 130.186752 48.979057 130.561752 48.308296 131 47.67804 C 131.689255 47.104141 132.397751 46.600945 133.125 46.168442 Z" stroke="none" fill-rule="evenodd" fill="#803fa2" id="path32"></path>
    </g>
    <g id="g33">
        <path d="M 132.875 54.471218 C 132.656006 54.504173 132.489243 54.420395 132.375 54.219616 C 132.49675 53.981606 132.580002 53.730003 132.625 53.464821 C 132.430756 52.974953 132.180756 52.513779 131.875 52.081024 C 132.419754 49.096558 134.169754 47.754776 137.125 48.055443 C 137.927994 48.563416 138.344498 49.276451 138.375 50.194031 C 135.951248 50.452675 134.617996 51.794449 134.375 54.219616 C 133.934494 54.255596 133.517746 54.171562 133.125 53.968018 C 132.925507 54.082996 132.842255 54.250813 132.875 54.471218 Z" stroke="none" fill-rule="evenodd" fill="#7d3aa0" id="path33"></path>
    </g>
    <g id="g34">
        <path d="M 91.375 45.413643 C 97.108253 47.938698 103.108253 48.945099 109.375 48.432838 C 109.18425 48.62606 108.93425 48.751862 108.625 48.810234 C 103.822746 49.437218 99.155998 48.934021 94.625 47.300636 C 93.375252 46.914932 92.291748 46.285934 91.375 45.413643 Z" stroke="none" fill-rule="evenodd" fill="#a24d3d" id="path34"></path>
    </g>
    <g id="g35">
        <path d="M 91.375 45.413643 C 92.291748 46.285934 93.375252 46.914932 94.625 47.300636 C 99.155998 48.934021 103.822746 49.437218 108.625 48.810234 C 108.93425 48.751862 109.18425 48.62606 109.375 48.432838 C 110.054497 48.296219 110.721252 48.128654 111.375 47.929642 C 111.762001 47.848877 111.928749 47.597282 111.875 47.174835 C 107.5215 47.93441 103.188248 47.808609 98.875 46.79744 C 99.112 46.675919 99.362 46.634155 99.625 46.671638 C 101.036247 46.831161 102.452751 46.915192 103.875 46.923241 C 106.71125 46.861092 109.544502 46.819077 112.375 46.79744 C 112.605751 47.310959 112.689003 47.856171 112.625 48.432838 C 109.092003 49.864182 105.425247 50.325363 101.625 49.816635 C 98.12925 49.105362 94.795998 47.973167 91.625 46.420044 C 91.376999 46.463318 91.210503 46.379288 91.125 46.168442 C 91.1465 45.917847 91.063004 45.708275 90.875 45.539444 C 91.023499 45.422707 91.190247 45.380692 91.375 45.413643 Z" stroke="none" fill-rule="evenodd" fill="#e88666" id="path35"></path>
    </g>
    <g id="g36">
        <path d="M 91.625 46.420044 C 94.795998 47.973167 98.12925 49.105362 101.625 49.816635 C 105.425247 50.325363 109.092003 49.864182 112.625 48.432838 C 112.291748 48.852249 111.958252 49.271416 111.625 49.690834 C 111.305 50.050873 110.888252 50.218689 110.375 50.194031 C 107.808746 50.590302 105.225502 50.758118 102.625 50.697227 C 102.541748 50.697227 102.458252 50.697227 102.375 50.697227 C 100.175247 50.010109 97.925247 49.423134 95.625 48.936035 C 94.207497 48.223251 92.874252 47.384666 91.625 46.420044 Z" stroke="none" fill-rule="evenodd" fill="#9f4d3b" id="path36"></path>
    </g>
    <g id="g37">
        <path d="M 104.375 32.582092 C 104.389252 32.303062 104.472504 32.051468 104.625 31.827293 C 104.847748 31.67382 105.097748 31.590034 105.375 31.575691 C 106.338753 31.150742 107.005501 30.437958 107.375 29.437103 C 106.625504 28.42794 105.709 27.589355 104.625 26.921112 C 98.971748 24.458603 93.805 25.213509 89.125 29.185501 C 88.059753 30.221336 87.267998 31.437317 86.75 32.833687 C 85.719002 38.367363 85.969002 43.818504 87.5 49.18763 C 87.928749 50.656715 88.637001 51.956726 89.625 53.087418 C 89.875 53.255234 90.125 53.255234 90.375 53.087418 C 90.588501 52.830284 90.838501 52.620712 91.125 52.45842 C 91.682503 53.930527 92.515747 54.098095 93.625 52.961617 C 94.31575 53.510361 95.06575 53.594391 95.875 53.213219 C 96.6875 54.09935 97.4375 55.021965 98.125 55.980808 C 97.738747 57.502731 96.905251 58.718716 95.625 59.628998 C 93.723 60.535763 91.723 61.122742 89.625 61.39019 C 86.334 62.514839 85.875748 64.318054 88.25 66.799576 C 88.144501 67.602928 88.186249 68.399734 88.375 69.189774 C 88.022751 70.410782 87.647751 71.626762 87.25 72.837952 C 86.253754 73.503426 85.67025 74.426056 85.5 75.605545 C 85.146248 76.063202 84.771248 76.230766 84.375 76.108742 C 85.37175 74.788597 85.913498 73.279007 86 71.579964 C 87.6875 69.900032 87.8125 68.097076 86.375 66.170578 C 85.436752 65.670135 84.436752 65.460564 83.375 65.541573 C 83.752998 64.025436 84.419502 62.641647 85.375 61.39019 C 89.508751 60.898567 93.300247 59.514774 96.75 57.238808 C 97.030746 56.369282 96.822502 55.65625 96.125 55.100212 C 93.656754 54.569843 91.156754 54.36026 88.625 54.471218 C 88.294502 54.513988 88.002747 54.430206 87.75 54.219616 C 86.363998 48.943077 85.572502 43.575722 85.375 38.117271 C 85.266747 32.252243 87.849998 28.100853 93.125 25.663116 C 101.172752 23.330818 107.672752 25.511398 112.625 32.204689 C 109.841003 31.268242 107.091003 31.394043 104.375 32.582092 Z" stroke="none" fill-rule="evenodd" fill="#7b389f" id="path37"></path>
    </g>
    <g id="g38">
        <path d="M 105.375 31.575691 C 105.097748 31.590034 104.847748 31.67382 104.625 31.827293 C 103.228752 31.736214 101.937248 31.317047 100.75 30.569298 C 100.583252 30.401482 100.583252 30.233917 100.75 30.066093 C 102.110497 31.139923 103.610497 31.475311 105.25 31.072495 C 105.365997 31.221939 105.407753 31.389763 105.375 31.575691 Z" stroke="none" fill-rule="evenodd" fill="#140d16" id="path38"></path>
    </g>
    <g id="g39">
        <path d="M 102.125 30.066093 C 103.095001 30.050751 104.095001 30.050751 105.125 30.066093 C 104.134003 30.715477 103.134003 30.715477 102.125 30.066093 Z" stroke="none" fill-rule="evenodd" fill="#110b14" id="path39"></path>
    </g>
    <g id="g40">
        <path d="M 95.625 48.936035 C 97.925247 49.423134 100.175247 50.010109 102.375 50.697227 C 100.417999 50.477585 98.501503 50.058174 96.625 49.439232 C 96.251251 49.3162 95.917747 49.148636 95.625 48.936035 Z" opacity="0.961" stroke="none" fill-rule="evenodd" fill="#271b1e" id="path40"></path>
    </g>
    <g id="g41">
        <path d="M 96.625 49.439232 C 98.501503 50.058174 100.417999 50.477585 102.375 50.697227 C 102.458252 50.697227 102.541748 50.697227 102.625 50.697227 C 102.802254 50.924675 103.052254 51.008461 103.375 50.948822 C 103.719498 52.951302 103.969498 54.9641 104.125 56.987206 C 103.885498 56.873234 103.677002 56.705669 103.5 56.484009 C 103.333748 54.637272 102.792 52.917839 101.875 51.326225 C 101.061752 51.065567 100.2285 50.897751 99.375 50.823029 C 98.633247 50.395309 97.841751 50.101692 97 49.942436 C 96.7425 49.857895 96.6175 49.690079 96.625 49.439232 Z" stroke="none" fill-rule="evenodd" fill="#7b399e" id="path41"></path>
    </g>
    <g id="g42">
        <path d="M 107.125 52.961617 C 107.267998 53.403183 107.476501 53.822594 107.75 54.219616 C 108.592499 54.983219 109.342499 55.8218 110 56.735607 C 110.705002 58.494034 110.413498 60.045647 109.125 61.39019 C 108.341499 61.588955 107.591499 61.505173 106.875 61.138596 C 106.208252 60.670116 105.625 60.125153 105.125 59.503197 C 105.125 59.251598 105.125 59 105.125 58.748402 C 104.778252 58.150349 104.569748 57.479588 104.5 56.735607 C 104.339752 54.798294 104.1315 52.869286 103.875 50.948822 C 104.561752 50.870079 105.2285 50.953865 105.875 51.200424 C 106.209 51.868172 106.625748 52.455154 107.125 52.961617 Z" stroke="none" fill-rule="evenodd" fill="#eb3cac" id="path42"></path>
    </g>
    <g id="g43">
        <path d="M 105.125 58.748402 C 104.805 56.483505 104.721748 54.219112 104.875 51.955223 C 105.286499 52.277016 105.578247 52.696182 105.75 53.213219 C 106.528252 55.395844 107.403252 57.534435 108.375 59.628998 C 108.376251 60.173206 108.126251 60.550602 107.625 60.761192 C 106.697746 60.158611 105.864502 59.48785 105.125 58.748402 Z" stroke="none" fill-rule="evenodd" fill="#fe48d7" id="path43"></path>
    </g>
    <g id="g44">
        <path d="M 110.375 50.194031 C 109.036003 50.699493 107.619247 50.993111 106.125 51.074623 C 106.623497 51.617584 106.957001 52.246582 107.125 52.961617 C 106.625748 52.455154 106.209 51.868172 105.875 51.200424 C 105.2285 50.953865 104.561752 50.870079 103.875 50.948822 C 104.1315 52.869286 104.339752 54.798294 104.5 56.735607 C 104.569748 57.479588 104.778252 58.150349 105.125 58.748402 C 105.125 59 105.125 59.251598 105.125 59.503197 C 104.649002 58.739849 104.315498 57.901268 104.125 56.987206 C 103.969498 54.9641 103.719498 52.951302 103.375 50.948822 C 103.052254 51.008461 102.802254 50.924675 102.625 50.697227 C 105.225502 50.758118 107.808746 50.590302 110.375 50.194031 Z" opacity="0.923" stroke="none" fill-rule="evenodd" fill="#191419" id="path44"></path>
    </g>
    <g id="g45">
        <path d="M 122.625 58.496803 C 121.949501 59.252605 121.115997 59.839836 120.125 60.257996 C 120.616501 60.47739 121.116501 60.435371 121.625 60.132198 C 123.563499 58.978111 125.230247 57.510536 126.625 55.72921 C 127.155502 56.389404 127.738747 57.018402 128.375 57.616203 C 128.541748 57.784023 128.708252 57.784023 128.875 57.616203 C 125.777496 55.153805 125.610748 52.55378 128.375 49.816635 C 128.708252 49.648811 129.041748 49.648811 129.375 49.816635 C 129.885757 50.740257 130.302246 51.704628 130.625 52.710022 C 130.862747 52.502205 131.112747 52.460434 131.375 52.584221 C 132.24675 53.074844 132.330246 53.661819 131.625 54.345417 C 130.791748 54.513233 129.958252 54.513233 129.125 54.345417 C 128.358002 53.771271 127.733002 53.058235 127.25 52.206825 C 127.208252 52.290611 127.166748 52.374634 127.125 52.45842 C 127.618752 52.972939 127.618752 53.392365 127.125 53.716423 C 127.803253 54.069916 128.469757 54.447311 129.125 54.848614 C 130.048492 54.918556 130.965256 54.918556 131.875 54.848614 C 130.924255 55.543026 130.507507 56.423622 130.625 57.490406 C 131.003998 56.188633 131.753998 55.182236 132.875 54.471218 C 133.299744 54.430958 133.716507 54.472725 134.125 54.597015 C 135.277756 56.358711 136.777756 56.694096 138.625 55.603413 C 138.925995 54.817921 139.342743 54.104889 139.875 53.464821 C 139.791748 53.381035 139.708252 53.297005 139.625 53.213219 C 138.9095 54.286793 137.9095 54.915791 136.625 55.100212 C 137.141998 55.27306 137.641998 55.231049 138.125 54.974411 C 138.458252 55.142231 138.458252 55.309792 138.125 55.477612 C 136.431244 56.34412 135.264496 55.882687 134.625 54.093815 C 134.827744 52.931679 135.410995 52.009315 136.375 51.326225 C 139.1875 50.125595 140.479248 51.089973 140.25 54.219616 C 139.266251 56.971104 137.391251 58.774315 134.625 59.628998 C 132.968506 60.064514 131.551743 59.687119 130.375 58.496803 C 130.291748 58.580582 130.208252 58.664619 130.125 58.748402 C 130.298248 59.004532 130.464752 59.25613 130.625 59.503197 C 129.727493 60.528717 128.644257 61.325531 127.375 61.893391 C 125.610001 62.442127 123.860001 63.02911 122.125 63.654583 C 121.915749 63.908951 121.832497 64.20256 121.875 64.535179 C 124.943748 64.095642 127.777 63.047226 130.375 61.39019 C 130.850494 60.954926 131.267242 60.493744 131.625 60.006397 C 132.007004 60.010674 132.132004 60.178493 132 60.509594 C 129.419998 63.212524 126.294998 64.805893 122.625 65.289978 C 122.625 65.541573 122.625 65.793175 122.625 66.044769 C 123.375 65.960991 123.708252 66.296371 123.625 67.051178 C 122.97525 67.038834 122.433502 66.787239 122 66.296371 C 121.667999 66.679314 121.709503 67.098724 122.125 67.554375 C 120.907997 67.94838 120.074501 67.528954 119.625 66.296371 C 119.429749 66.605591 119.304749 66.940979 119.25 67.30278 C 118.591003 66.78801 118.466003 66.159004 118.875 65.415787 C 118.567497 64.723129 118.317497 64.010094 118.125 63.277187 C 118.393753 62.537987 118.435249 61.783192 118.25 61.012794 C 117.48275 60.399391 117.23275 59.644596 117.5 58.748402 C 116.717247 57.708542 115.842247 56.74416 114.875 55.855011 C 114.667 55.681908 114.500504 55.72393 114.375 55.980808 C 115.291748 56.987206 116.208252 57.993603 117.125 59 C 116.791748 59.083782 116.458252 59.167816 116.125 59.251598 C 116.622253 59.710518 117.08075 60.213715 117.5 60.761192 C 117.800499 61.308926 117.925499 61.896156 117.875 62.522388 C 117.581253 62.467289 117.331253 62.551067 117.125 62.773987 C 117.669502 63.28297 118.002998 63.911968 118.125 64.66098 C 117.528252 65.266327 117.528252 65.895325 118.125 66.547974 C 118.041748 66.63176 117.958252 66.71579 117.875 66.799576 C 117.708252 66.63176 117.541748 66.464188 117.375 66.296371 C 117.291748 66.422173 117.208252 66.547974 117.125 66.673775 C 117.348503 67.025002 117.515251 67.402405 117.625 67.805969 C 117.460999 68.297348 117.377747 68.800545 117.375 69.315559 C 117.112 69.278076 116.862 69.319839 116.625 69.441368 C 117.427498 73.330833 117.136002 77.146835 115.75 80.889122 C 114.914001 83.575447 113.20575 85.46244 110.625 86.550102 C 110.219749 87.09507 110.011253 87.724068 110 88.437096 C 109.645248 88.678627 109.270248 88.888214 108.875 89.066101 C 109.341003 89.426132 109.841003 89.719498 110.375 89.946701 C 110.052498 90.307739 109.636002 90.559341 109.125 90.701492 C 109.311501 91.012466 109.394753 91.348106 109.375 91.707893 C 109.017502 91.727768 108.683998 91.643982 108.375 91.456291 C 108.236504 92.277008 107.82 92.52861 107.125 92.211082 C 106.958252 92.546471 106.791748 92.882103 106.625 93.217484 C 106.001503 92.380669 105.251503 91.667633 104.375 91.078888 C 99.550499 91.285698 95.300499 89.860153 91.625 86.801704 C 89.081749 86.499031 86.498497 85.995827 83.875 85.292114 C 82.692497 84.895088 81.609001 84.307861 80.625 83.530914 C 80.11425 83.101181 79.697502 82.597984 79.375 82.021324 C 79.125 81.8535 78.875 81.8535 78.625 82.021324 C 78.487503 82.485519 78.237503 82.862923 77.875 83.153519 C 77.311752 82.662895 77.2285 82.075668 77.625 81.392319 C 76.222504 81.102989 76.055748 80.515747 77.125 79.631134 C 76.824997 79.43187 76.491753 79.43187 76.125 79.631134 C 75.941498 79.327194 75.858253 78.991821 75.875 78.624741 C 76.244499 78.690651 76.577751 78.606873 76.875 78.373138 C 76.498749 78.035484 76.332001 77.616333 76.375 77.115135 C 77.657997 77.360947 78.449501 76.85775 78.75 75.605545 C 78.74675 74.750862 78.580254 73.912277 78.25 73.089546 C 78.213753 74.217972 78.005501 75.308151 77.625 76.360344 C 76.568253 76.852982 75.776497 76.601379 75.25 75.605545 C 75 71.915337 74.75 71.915337 74.5 75.605545 C 72.998253 73.834541 72.581497 71.821739 73.25 69.567162 C 74.234497 66.591751 75.859497 64.033745 78.125 61.893391 C 77.685997 61.858166 77.269501 61.983967 76.875 62.27079 C 76.791748 62.187008 76.708252 62.10297 76.625 62.019192 C 77.358498 60.62709 78.275002 59.369095 79.375 58.245205 C 79.291748 58.161423 79.208252 58.077385 79.125 57.993603 C 78.403748 58.636189 77.653748 59.265186 76.875 59.880596 C 76.667 60.053696 76.500504 60.011681 76.375 59.754795 C 76.835251 58.916721 77.418503 58.203941 78.125 57.616203 C 78.041748 57.490406 77.958252 57.364605 77.875 57.238808 C 77.369003 57.706276 76.827248 58.12569 76.25 58.496803 C 76.183746 58.078392 76.308746 57.700996 76.625 57.364605 C 77.654747 56.898895 78.737999 56.605278 79.875 56.484009 C 79.340752 56.13982 78.7575 55.888226 78.125 55.72921 C 78.166748 55.645432 78.208252 55.56139 78.25 55.477612 C 79.362 55.117321 80.445251 55.201103 81.5 55.72921 C 81.480751 56.040691 81.522247 56.29229 81.625 56.484009 C 82.576752 56.034653 83.576752 55.741287 84.625 55.603413 C 86.708252 55.29797 88.791496 55.004356 90.875 54.722813 C 92.045998 54.80735 93.212753 54.933151 94.375 55.100212 C 95.155998 55.22073 95.86425 55.514343 96.5 55.980808 C 96.67775 56.450546 96.55275 56.827946 96.125 57.113007 C 93.588249 58.971565 90.754753 60.145527 87.625 60.635395 C 86.118248 60.742828 84.618248 60.910393 83.125 61.138596 C 83.644249 61.186901 84.144249 61.312698 84.625 61.515991 C 83.882248 62.591831 83.340752 63.765793 83 65.038376 C 82.524246 65.087196 82.06575 65.087196 81.625 65.038376 C 82.738503 65.840477 83.988503 66.217865 85.375 66.170578 C 85.831001 66.336624 86.164253 66.630249 86.375 67.051178 C 84.317001 66.22467 84.025253 66.560051 85.5 68.057571 C 85.623749 68.820168 85.582253 69.574959 85.375 70.32196 C 85.77475 70.254532 86.108002 70.338577 86.375 70.573563 C 86.126999 70.957497 85.751999 71.12532 85.25 71.076767 C 84.741501 71.113495 84.324753 70.945923 84 70.573563 C 83.977249 69.995888 84.018997 69.408653 84.125 68.812363 C 84.140999 68.337097 84.015999 67.917686 83.75 67.554375 C 83.497498 69.514084 83.331001 71.526871 83.25 73.592743 C 83.383751 74.03833 83.592247 74.122116 83.875 73.844345 C 83.523003 72.903618 83.564751 71.981003 84 71.076767 C 84.310501 71.421959 84.685501 71.673561 85.125 71.831558 C 85.289749 73.560799 84.706497 75.028374 83.375 76.234543 C 82.83075 76.536964 82.247253 76.662766 81.625 76.611938 C 80.933746 76.536964 80.308746 76.285362 79.75 75.857147 C 79.583252 76.276558 79.583252 76.695724 79.75 77.115135 C 81.668999 81.736008 85.043999 84.46183 89.875 85.292114 C 95.999748 89.180824 102.416496 89.684021 109.125 86.801704 C 110.074753 86.097984 110.949753 85.301178 111.75 84.411514 C 114.921753 80.074188 116.046753 75.209778 115.125 69.818756 C 114.23275 69.992119 113.35775 70.243713 112.5 70.573563 C 112.151253 70.503113 111.859497 70.335297 111.625 70.070358 C 112.777496 69.670319 113.902496 69.25116 115 68.812363 C 115.212753 67.364922 115.12925 65.939102 114.75 64.535179 C 114.227501 64.37114 113.685753 64.329117 113.125 64.409378 C 113.5495 63.732578 114.0495 63.145599 114.625 62.648186 C 114.205002 61.637516 113.913254 60.5891 113.75 59.503197 C 113.487747 59.247322 113.195999 59.205303 112.875 59.377399 C 111.836746 60.276863 110.753502 61.115696 109.625 61.893391 C 109.390747 62.067497 109.224251 62.025478 109.125 61.76759 C 109.807747 61.37233 110.266251 60.785095 110.5 60.006397 C 110.666748 59 110.666748 57.993603 110.5 56.987206 C 109.502747 55.523655 108.377747 54.181625 107.125 52.961617 C 106.957001 52.246582 106.623497 51.617584 106.125 51.074623 C 107.619247 50.993111 109.036003 50.699493 110.375 50.194031 C 110.888252 50.218689 111.305 50.050873 111.625 49.690834 C 113.395248 48.848976 113.811996 47.549217 112.875 45.791046 C 111.878502 45.665497 110.878502 45.623474 109.875 45.665245 C 110.445251 45.460442 110.945251 45.124809 111.375 44.658852 C 110.429749 44.41153 109.513252 44.117912 108.625 43.778252 C 109.528 43.491676 110.361504 43.072266 111.125 42.520256 C 109.080498 42.217339 107.080498 41.839935 105.125 41.388062 C 105.309753 41.421013 105.476501 41.378998 105.625 41.26226 C 105.27375 40.942986 104.857246 40.817184 104.375 40.884865 C 104.261749 40.643829 104.095253 40.433998 103.875 40.255867 C 104 40.213844 104.125 40.172081 104.25 40.130066 C 106.554001 40.979469 108.929001 41.272827 111.375 41.010658 C 112.70475 40.929398 113.871498 40.468216 114.875 39.626862 C 115.070503 40.087036 114.903999 40.464439 114.375 40.759064 C 112.655746 41.281136 110.905746 41.658531 109.125 41.891258 C 109.416748 41.975044 109.708252 42.059074 110 42.14286 C 111.367996 41.799927 112.742996 41.590088 114.125 41.513855 C 113.791748 42.184875 113.291748 42.688072 112.625 43.023453 C 111.60675 43.22171 110.60675 43.473312 109.625 43.778252 C 111.387253 44.252769 112.845497 43.79158 114 42.394455 C 114.083252 45.833061 114.166748 49.271416 114.25 52.710022 C 114.416748 53.045403 114.583252 53.381035 114.75 53.716423 C 116.67025 56.505901 119.29525 58.099274 122.625 58.496803 Z" stroke="none" fill-rule="evenodd" fill="#7b389f" id="path45"></path>
    </g>
    <g id="g46">
        <path d="M 126.125 50.445625 C 126.458252 50.613441 126.458252 50.613441 126.125 50.445625 Z" opacity="0.004" stroke="none" fill-rule="evenodd" fill="#000000" id="path46"></path>
    </g>
    <g id="g47">
        <path d="M 122.625 56.735607 C 122.888 56.69812 123.138 56.739887 123.375 56.861404 C 123.165749 57.115776 123.082497 57.409389 123.125 57.742004 C 122.03875 57.792828 121.872002 57.457447 122.625 56.735607 Z" opacity="0.007" stroke="none" fill-rule="evenodd" fill="#1a0a20" id="path47"></path>
    </g>
    <g id="g48">
        <path d="M 76.125 60.509594 C 76.491753 60.310326 76.824997 60.310326 77.125 60.509594 C 76.283249 61.191177 76.033249 62.029758 76.375 63.025589 C 75.703499 63.881779 75.036751 64.72036 74.375 65.541573 C 74.595253 64.678848 75.012001 63.924049 75.625 63.277187 C 73.560753 62.176186 71.602501 60.91819 69.75 59.503197 C 69.574753 60.365677 69.657997 61.20451 70 62.019192 C 71.093246 63.967072 72.301498 65.644485 73.625 67.051178 C 73.539497 67.262009 73.373001 67.346054 73.125 67.30278 C 69.967499 64.813202 68.800751 61.626194 69.625 57.742004 C 70.191254 57.453419 70.774498 57.411404 71.375 57.616203 C 72.7715 58.811554 74.2715 59.859966 75.875 60.761192 C 76.026749 60.73 76.110001 60.646214 76.125 60.509594 Z" stroke="none" fill-rule="evenodd" fill="#7c389f" id="path48"></path>
    </g>
    <g id="g49">
        <path d="M 136.375 56.987206 C 136.708252 56.987206 137.041748 56.987206 137.375 56.987206 C 137.417496 57.319824 137.334244 57.613438 137.125 57.867802 C 135.886749 58.478939 134.595001 58.940117 133.25 59.251598 C 132.706253 59.167564 132.248001 58.915966 131.875 58.496803 C 133.33725 58.299797 134.753998 57.922401 136.125 57.364605 C 136.264008 57.268242 136.347244 57.142445 136.375 56.987206 Z" stroke="none" fill-rule="evenodd" fill="#8f59ac" id="path49"></path>
    </g>
    <g id="g50">
        <path d="M 87.125 54.722813 C 87.683746 54.797035 88.183746 54.713001 88.625 54.471218 C 91.156754 54.36026 93.656754 54.569843 96.125 55.100212 C 96.822502 55.65625 97.030746 56.369282 96.75 57.238808 C 93.300247 59.514774 89.508751 60.898567 85.375 61.39019 C 84.419502 62.641647 83.752998 64.025436 83.375 65.541573 C 84.436752 65.460564 85.436752 65.670135 86.375 66.170578 C 87.8125 68.097076 87.6875 69.900032 86 71.579964 C 85.913498 73.279007 85.37175 74.788597 84.375 76.108742 C 83.753502 76.609924 83.044998 76.945564 82.25 77.115135 C 81.905998 77.068848 81.697746 76.901024 81.625 76.611938 C 82.247253 76.662766 82.83075 76.536964 83.375 76.234543 C 84.706497 75.028374 85.289749 73.560799 85.125 71.831558 C 84.685501 71.673561 84.310501 71.421959 84 71.076767 C 83.564751 71.981003 83.523003 72.903618 83.875 73.844345 C 83.592247 74.122116 83.383751 74.03833 83.25 73.592743 C 83.331001 71.526871 83.497498 69.514084 83.75 67.554375 C 84.015999 67.917686 84.140999 68.337097 84.125 68.812363 C 84.018997 69.408653 83.977249 69.995888 84 70.573563 C 84.324753 70.945923 84.741501 71.113495 85.25 71.076767 C 85.751999 71.12532 86.126999 70.957497 86.375 70.573563 C 87.372749 69.410423 87.372749 68.236206 86.375 67.051178 C 86.164253 66.630249 85.831001 66.336624 85.375 66.170578 C 83.988503 66.217865 82.738503 65.840477 81.625 65.038376 C 82.06575 65.087196 82.524246 65.087196 83 65.038376 C 83.340752 63.765793 83.882248 62.591831 84.625 61.515991 C 84.144249 61.312698 83.644249 61.186901 83.125 61.138596 C 84.618248 60.910393 86.118248 60.742828 87.625 60.635395 C 90.754753 60.145527 93.588249 58.971565 96.125 57.113007 C 96.55275 56.827946 96.67775 56.450546 96.5 55.980808 C 95.86425 55.514343 95.155998 55.22073 94.375 55.100212 C 93.212753 54.933151 92.045998 54.80735 90.875 54.722813 C 88.791496 55.004356 86.708252 55.29797 84.625 55.603413 C 83.576752 55.741287 82.576752 56.034653 81.625 56.484009 C 81.522247 56.29229 81.480751 56.040691 81.5 55.72921 C 80.445251 55.201103 79.362 55.117321 78.25 55.477612 C 78.208252 55.56139 78.166748 55.645432 78.125 55.72921 C 78.7575 55.888226 79.340752 56.13982 79.875 56.484009 C 78.737999 56.605278 77.654747 56.898895 76.625 57.364605 C 76.308746 57.700996 76.183746 58.078392 76.25 58.496803 C 76.827248 58.12569 77.369003 57.706276 77.875 57.238808 C 77.958252 57.364605 78.041748 57.490406 78.125 57.616203 C 77.418503 58.203941 76.835251 58.916721 76.375 59.754795 C 76.500504 60.011681 76.667 60.053696 76.875 59.880596 C 77.653748 59.265186 78.403748 58.636189 79.125 57.993603 C 79.208252 58.077385 79.291748 58.161423 79.375 58.245205 C 78.275002 59.369095 77.358498 60.62709 76.625 62.019192 C 76.708252 62.10297 76.791748 62.187008 76.875 62.27079 C 77.269501 61.983967 77.685997 61.858166 78.125 61.893391 C 75.859497 64.033745 74.234497 66.591751 73.25 69.567162 C 72.581497 71.821739 72.998253 73.834541 74.5 75.605545 C 74.75 71.915337 75 71.915337 75.25 75.605545 C 75.776497 76.601379 76.568253 76.852982 77.625 76.360344 C 78.005501 75.308151 78.213753 74.217972 78.25 73.089546 C 78.580254 73.912277 78.74675 74.750862 78.75 75.605545 C 78.449501 76.85775 77.657997 77.360947 76.375 77.115135 C 76.332001 77.616333 76.498749 78.035484 76.875 78.373138 C 76.577751 78.606873 76.244499 78.690651 75.875 78.624741 C 75.858253 78.991821 75.941498 79.327194 76.125 79.631134 C 75.507751 79.900085 74.9245 80.235474 74.375 80.637527 C 74.208252 80.469711 74.041748 80.302147 73.875 80.134331 C 75.123497 79.87191 75.123497 79.53627 73.875 79.127937 C 73.875 78.960114 73.958252 78.876335 74.125 78.876335 C 74.536003 78.822487 74.911003 78.906525 75.25 79.127937 C 75.695503 78.514282 75.862251 77.843277 75.75 77.115135 C 75.457253 76.764664 75.082253 76.554832 74.625 76.486145 C 73.408752 74.969002 72.0755 73.585205 70.625 72.334755 C 70.791748 72.334755 70.958252 72.334755 71.125 72.334755 C 71.615753 72.702087 72.073997 73.121513 72.5 73.592743 C 72.684998 73.278503 72.64325 73.026901 72.375 72.837952 C 72.375 71.915337 72.375 70.992973 72.375 70.070358 C 73.011253 69.323868 73.178001 68.485291 72.875 67.554375 C 73.041748 67.554375 73.125 67.470581 73.125 67.30278 C 73.373001 67.346054 73.539497 67.262009 73.625 67.051178 C 73.967499 66.610878 74.217499 66.107681 74.375 65.541573 C 75.036751 64.72036 75.703499 63.881779 76.375 63.025589 C 76.033249 62.029758 76.283249 61.191177 77.125 60.509594 C 76.824997 60.310326 76.491753 60.310326 76.125 60.509594 C 75.822502 60.400902 75.572502 60.233089 75.375 60.006397 C 75.619499 59.928146 75.786247 59.760334 75.875 59.503197 C 75.202499 57.941021 75.702499 56.850586 77.375 56.23241 C 77.50975 55.561646 77.843002 55.016434 78.375 54.597015 C 79.818748 54.389694 81.068748 54.767094 82.125 55.72921 C 83.745003 55.153805 85.411751 54.818424 87.125 54.722813 Z" opacity="0.953" stroke="none" fill-rule="evenodd" fill="#170c19" id="path50"></path>
    </g>
    <g id="g51">
        <path d="M 91.125 55.477612 C 92.252998 55.389301 93.33625 55.556866 94.375 55.980808 C 92.463753 56.235176 90.547249 56.445011 88.625 56.60981 C 85.635002 57.237045 82.718498 58.033859 79.875 59 C 79.890251 58.473656 80.140251 58.096256 80.625 57.867802 C 81.634003 57.447636 82.634003 57.028217 83.625 56.60981 C 86.144997 56.109123 88.644997 55.731728 91.125 55.477612 Z" stroke="none" fill-rule="evenodd" fill="#905aad" id="path51"></path>
    </g>
    <g id="g52">
        <path d="M 74.375 65.541573 C 74.217499 66.107681 73.967499 66.610878 73.625 67.051178 C 72.301498 65.644485 71.093246 63.967072 70 62.019192 C 69.657997 61.20451 69.574753 60.365677 69.75 59.503197 C 71.602501 60.91819 73.560753 62.176186 75.625 63.277187 C 75.012001 63.924049 74.595253 64.678848 74.375 65.541573 Z" stroke="none" fill-rule="evenodd" fill="#8f59ac" id="path52"></path>
    </g>
    <g id="g53">
        <path d="M 130.625 59.503197 C 130.998749 59.626232 131.332245 59.793797 131.625 60.006397 C 131.267242 60.493744 130.850494 60.954926 130.375 61.39019 C 127.777 63.047226 124.943748 64.095642 121.875 64.535179 C 121.832497 64.20256 121.915749 63.908951 122.125 63.654583 C 123.860001 63.02911 125.610001 62.442127 127.375 61.893391 C 128.644257 61.325531 129.727493 60.528717 130.625 59.503197 Z" stroke="none" fill-rule="evenodd" fill="#905aad" id="path53"></path>
    </g>
    <g id="g54">
        <path d="M 107.125 52.961617 C 108.377747 54.181625 109.502747 55.523655 110.5 56.987206 C 110.666748 57.993603 110.666748 59 110.5 60.006397 C 110.266251 60.785095 109.807747 61.37233 109.125 61.76759 C 108.758247 61.866718 108.383247 61.950504 108 62.019192 C 106.547997 61.732113 105.589752 60.893284 105.125 59.503197 C 105.625 60.125153 106.208252 60.670116 106.875 61.138596 C 107.591499 61.505173 108.341499 61.588955 109.125 61.39019 C 110.413498 60.045647 110.705002 58.494034 110 56.735607 C 109.342499 55.8218 108.592499 54.983219 107.75 54.219616 C 107.476501 53.822594 107.267998 53.403183 107.125 52.961617 Z" opacity="0.945" stroke="none" fill-rule="evenodd" fill="#20161f" id="path54"></path>
    </g>
    <g id="g55">
        <path d="M 93.125 63.277187 C 93.91375 63.398956 94.497002 63.818375 94.875 64.535179 C 94.285004 65.12719 93.618248 65.630386 92.875 66.044769 C 92.681747 65.257011 93.015251 64.711807 93.875 64.409378 C 93.464752 64.125328 93.214752 63.747929 93.125 63.277187 Z" stroke="none" fill-rule="evenodd" fill="#1b131f" id="path55"></path>
    </g>
    <g id="g56">
        <path d="M 72.875 67.554375 C 73.178001 68.485291 73.011253 69.323868 72.375 70.070358 C 71.742996 69.094154 70.992996 68.171799 70.125 67.30278 C 70.164497 69.401108 70.914497 71.246094 72.375 72.837952 C 72.64325 73.026901 72.684998 73.278503 72.5 73.592743 C 72.073997 73.121513 71.615753 72.702087 71.125 72.334755 C 70.155502 71.144936 69.446999 69.803162 69 68.309166 C 68.790253 66.945251 68.873497 65.60347 69.25 64.283585 C 69.429497 64.044312 69.637749 64.002548 69.875 64.157784 C 70.655746 65.488495 71.655746 66.620682 72.875 67.554375 Z" stroke="none" fill-rule="evenodd" fill="#7c38a0" id="path56"></path>
    </g>
    <g id="g57">
        <path d="M 86.375 67.051178 C 87.372749 68.236206 87.372749 69.410423 86.375 70.573563 C 86.108002 70.338577 85.77475 70.254532 85.375 70.32196 C 85.582253 69.574959 85.623749 68.820168 85.5 68.057571 C 84.025253 66.560051 84.317001 66.22467 86.375 67.051178 Z" stroke="none" fill-rule="evenodd" fill="#8f58ac" id="path57"></path>
    </g>
    <g id="g58">
        <path d="M 72.375 70.070358 C 72.375 70.992973 72.375 71.915337 72.375 72.837952 C 70.914497 71.246094 70.164497 69.401108 70.125 67.30278 C 70.992996 68.171799 71.742996 69.094154 72.375 70.070358 Z" stroke="none" fill-rule="evenodd" fill="#8f58ac" id="path58"></path>
    </g>
    <g id="g59">
        <path d="M 70.625 72.334755 C 72.0755 73.585205 73.408752 74.969002 74.625 76.486145 C 75.082253 76.554832 75.457253 76.764664 75.75 77.115135 C 75.862251 77.843277 75.695503 78.514282 75.25 79.127937 C 74.911003 78.906525 74.536003 78.822487 74.125 78.876335 C 72.760498 78.30545 71.552002 77.466621 70.5 76.360344 C 69.618248 74.831116 69.4515 73.237503 70 71.579964 C 70.261253 71.799599 70.469498 72.051193 70.625 72.334755 Z" stroke="none" fill-rule="evenodd" fill="#8140a3" id="path59"></path>
    </g>
    <g id="g60">
        <path d="M 73.875 79.127937 C 75.123497 79.53627 75.123497 79.87191 73.875 80.134331 C 73.547501 79.719696 73.214249 79.300522 72.875 78.876335 C 72.916748 78.792542 72.958252 78.708519 73 78.624741 C 73.278252 78.827271 73.569748 78.995079 73.875 79.127937 Z" stroke="none" fill-rule="evenodd" fill="#7b389e" id="path60"></path>
    </g>
    <g id="g61">
        <path d="M 75.375 60.006397 C 75.572502 60.233089 75.822502 60.400902 76.125 60.509594 C 76.110001 60.646214 76.026749 60.73 75.875 60.761192 C 74.2715 59.859966 72.7715 58.811554 71.375 57.616203 C 70.774498 57.411404 70.191254 57.453419 69.625 57.742004 C 68.800751 61.626194 69.967499 64.813202 73.125 67.30278 C 73.125 67.470581 73.041748 67.554375 72.875 67.554375 C 71.655746 66.620682 70.655746 65.488495 69.875 64.157784 C 69.637749 64.002548 69.429497 64.044312 69.25 64.283585 C 68.873497 65.60347 68.790253 66.945251 69 68.309166 C 69.446999 69.803162 70.155502 71.144936 71.125 72.334755 C 70.958252 72.334755 70.791748 72.334755 70.625 72.334755 C 70.469498 72.051193 70.261253 71.799599 70 71.579964 C 69.4515 73.237503 69.618248 74.831116 70.5 76.360344 C 71.552002 77.466621 72.760498 78.30545 74.125 78.876335 C 73.958252 78.876335 73.875 78.960114 73.875 79.127937 C 73.569748 78.995079 73.278252 78.827271 73 78.624741 C 72.958252 78.708519 72.916748 78.792542 72.875 78.876335 C 73.214249 79.300522 73.547501 79.719696 73.875 80.134331 C 74.041748 80.302147 74.208252 80.469711 74.375 80.637527 C 73.852997 80.999573 73.269753 81.167389 72.625 81.140717 C 72.597 82.106606 72.430252 82.106606 72.125 81.140717 C 70.535004 80.805588 69.618248 81.476608 69.375 83.153519 C 69.485497 83.465256 69.652252 83.716858 69.875 83.908318 C 69.655998 83.875351 69.48925 83.959137 69.375 84.159912 C 69.716751 84.497063 70.050003 84.832436 70.375 85.166306 C 69.664749 85.704742 69.331497 86.459534 69.375 87.430702 C 69.321747 86.492241 69.238503 85.527863 69.125 84.537315 C 68.2575 87.255836 69.174248 89.352417 71.875 90.827286 C 72.541748 90.99511 73.208252 90.99511 73.875 90.827286 C 73.503998 90.660736 73.170753 90.450897 72.875 90.198296 C 72.794746 89.808815 72.544746 89.641006 72.125 89.695099 C 72.176003 89.145355 72.342499 88.642159 72.625 88.185501 C 73.497498 88.249657 74.164253 87.914276 74.625 87.179108 C 74.234749 86.966003 73.859749 87.049774 73.5 87.430702 C 72.890747 86.620552 72.349251 85.781967 71.875 84.914711 C 72.580254 85.365318 73.080254 85.994324 73.375 86.801704 C 73.612251 86.956947 73.820503 86.915176 74 86.675911 C 74.083252 85.837318 74.166748 84.998505 74.25 84.159912 C 75.166748 83.513809 76.041748 82.842796 76.875 82.147125 C 76.824249 81.717384 76.615997 81.382004 76.25 81.140717 C 76.126251 80.644325 76.084503 80.141129 76.125 79.631134 C 76.491753 79.43187 76.824997 79.43187 77.125 79.631134 C 76.055748 80.515747 76.222504 81.102989 77.625 81.392319 C 77.2285 82.075668 77.311752 82.662895 77.875 83.153519 C 78.237503 82.862923 78.487503 82.485519 78.625 82.021324 C 78.875 81.8535 79.125 81.8535 79.375 82.021324 C 79.697502 82.597984 80.11425 83.101181 80.625 83.530914 C 81.609001 84.307861 82.692497 84.895088 83.875 85.292114 C 86.498497 85.995827 89.081749 86.499031 91.625 86.801704 C 95.300499 89.860153 99.550499 91.285698 104.375 91.078888 C 105.251503 91.667633 106.001503 92.380669 106.625 93.217484 C 106.791748 92.882103 106.958252 92.546471 107.125 92.211082 C 107.82 92.52861 108.236504 92.277008 108.375 91.456291 C 108.683998 91.643982 109.017502 91.727768 109.375 91.707893 C 109.394753 91.348106 109.311501 91.012466 109.125 90.701492 C 109.636002 90.559341 110.052498 90.307739 110.375 89.946701 C 110.358749 89.836494 110.400253 89.752457 110.5 89.695099 C 110.569504 89.92556 110.694504 90.093132 110.875 90.198296 C 110.630249 90.612175 110.296997 90.947815 109.875 91.204689 C 110.779503 92.660698 111.862747 92.744736 113.125 91.456291 C 113.848251 91.781097 114.514999 91.655304 115.125 91.078888 C 115.516502 90.886414 115.849747 90.928436 116.125 91.204689 C 116.980751 91.111092 117.605751 91.446472 118 92.211082 C 118.431503 95.714363 116.973251 97.936729 113.625 98.878464 C 112.317253 98.995705 111.025497 99.205544 109.75 99.507462 C 108.905998 99.006523 108.697746 98.293495 109.125 97.368874 C 108.738251 95.472061 107.654999 94.214066 105.875 93.594887 C 105.208252 92.923866 104.541748 92.253098 103.875 91.582092 C 100.065247 91.860855 96.482002 91.064049 93.125 89.191895 C 93.006752 88.83815 92.756752 88.670334 92.375 88.688698 C 92.062248 87.936668 91.562248 87.685074 90.875 87.933899 C 90.875 87.766083 90.791748 87.682304 90.625 87.682304 C 90.333748 87.277473 90.000252 87.193443 89.625 87.430702 C 88.981247 87.357239 88.272751 87.189415 87.5 86.927505 C 87.416748 87.011284 87.333252 87.095322 87.25 87.179108 C 86.564003 87.004501 85.855751 86.752899 85.125 86.424309 C 82.818253 86.072067 80.776497 84.898102 79 82.901924 C 78.420753 84.090721 77.753998 84.174759 77 83.153519 C 76.261749 83.713577 75.470001 84.174759 74.625 84.537315 C 74.929749 85.11171 74.929749 85.698692 74.625 86.298508 C 75.140251 86.97657 75.056747 87.647583 74.375 88.311302 C 75.467247 89.721512 75.259003 90.853706 73.75 91.707893 C 71.64875 91.583092 69.940498 90.534935 68.625 88.562904 C 68.245499 86.43412 67.995499 84.211487 67.875 81.895523 C 68.116501 81.023735 68.657997 80.436752 69.5 80.134331 C 70.359253 79.988899 71.276001 80.156715 72.25 80.637527 C 72.599747 80.45462 72.974747 80.328819 73.375 80.260132 C 72.417 78.91156 71.292 77.695587 70 76.611938 C 69.006248 74.870865 68.881248 73.067909 69.625 71.202553 C 68.255501 69.10347 67.963753 66.881096 68.75 64.535179 C 68.875 64.074005 69.166748 63.780384 69.625 63.654583 C 68.495499 61.738655 68.287247 59.767879 69 57.742004 C 69.347252 57.307491 69.764 56.971859 70.25 56.735607 C 72.127251 57.580223 73.835503 58.670406 75.375 60.006397 Z M 90.625 87.682304 C 90.291748 87.682304 89.958252 87.682304 89.625 87.682304 C 89.625 87.598518 89.625 87.514488 89.625 87.430702 C 90.000252 87.193443 90.333748 87.277473 90.625 87.682304 Z M 92.375 88.688698 C 92.756752 88.670334 93.006752 88.83815 93.125 89.191895 C 92.958252 89.191895 92.791748 89.191895 92.625 89.191895 C 92.541748 89.024086 92.458252 88.856514 92.375 88.688698 Z" opacity="0.557" stroke="none" fill-rule="evenodd" fill="#171216" id="path61"></path>
    </g>
    <g id="g62">
        <path d="M 69.125 80.889122 C 69.418747 80.83403 69.668747 80.917809 69.875 81.140717 C 69.619499 81.355591 69.411247 81.607193 69.25 81.895523 C 69.220497 82.617867 69.054001 83.288879 68.75 83.908318 C 68.498497 82.825928 68.623497 81.819534 69.125 80.889122 Z" stroke="none" fill-rule="evenodd" fill="#dad5dc" id="path62"></path>
    </g>
    <g id="g63">
        <path d="M 76.125 79.631134 C 76.084503 80.141129 76.126251 80.644325 76.25 81.140717 C 76.615997 81.382004 76.824249 81.717384 76.875 82.147125 C 76.041748 82.842796 75.166748 83.513809 74.25 84.159912 C 74.166748 84.998505 74.083252 85.837318 74 86.675911 C 73.820503 86.915176 73.612251 86.956947 73.375 86.801704 C 73.080254 85.994324 72.580254 85.365318 71.875 84.914711 C 71.268501 84.441704 70.601997 84.106323 69.875 83.908318 C 69.652252 83.716858 69.485497 83.465256 69.375 83.153519 C 69.618248 81.476608 70.535004 80.805588 72.125 81.140717 C 72.430252 82.106606 72.597 82.106606 72.625 81.140717 C 73.269753 81.167389 73.852997 80.999573 74.375 80.637527 C 74.9245 80.235474 75.507751 79.900085 76.125 79.631134 Z" stroke="none" fill-rule="evenodd" fill="#efb1a1" id="path63"></path>
    </g>
    <g id="g64">
        <path d="M 70.375 85.166306 C 71.48925 85.900482 72.23925 86.906868 72.625 88.185501 C 72.342499 88.642159 72.176003 89.145355 72.125 89.695099 C 72.544746 89.641006 72.794746 89.808815 72.875 90.198296 C 72.47525 90.265724 72.141998 90.181686 71.875 89.946701 C 71.875 89.443497 71.875 88.940292 71.875 88.437096 C 71.625 88.437096 71.375 88.437096 71.125 88.437096 C 71.125 88.185501 71.125 87.933899 71.125 87.682304 C 70.714249 87.687332 70.380997 87.519516 70.125 87.179108 C 69.895752 87.336861 69.645752 87.420891 69.375 87.430702 C 69.331497 86.459534 69.664749 85.704742 70.375 85.166306 Z" stroke="none" fill-rule="evenodd" fill="#e1a191" id="path64"></path>
    </g>
    <g id="g65">
        <path d="M 71.875 89.946701 C 70.768753 89.373543 69.935501 88.534973 69.375 87.430702 C 69.645752 87.420891 69.895752 87.336861 70.125 87.179108 C 70.380997 87.519516 70.714249 87.687332 71.125 87.682304 C 71.125 87.933899 71.125 88.185501 71.125 88.437096 C 71.375 88.437096 71.625 88.437096 71.875 88.437096 C 71.875 88.940292 71.875 89.443497 71.875 89.946701 Z" opacity="0.984" stroke="none" fill-rule="evenodd" fill="#4d3533" id="path65"></path>
    </g>
    <g id="g66">
        <path d="M 69.875 83.908318 C 70.601997 84.106323 71.268501 84.441704 71.875 84.914711 C 72.349251 85.781967 72.890747 86.620552 73.5 87.430702 C 73.859749 87.049774 74.234749 86.966003 74.625 87.179108 C 74.164253 87.914276 73.497498 88.249657 72.625 88.185501 C 72.23925 86.906868 71.48925 85.900482 70.375 85.166306 C 70.050003 84.832436 69.716751 84.497063 69.375 84.159912 C 69.48925 83.959137 69.655998 83.875351 69.875 83.908318 Z" opacity="0.996" stroke="none" fill-rule="evenodd" fill="#173e6e" id="path66"></path>
    </g>
    <g id="g67">
        <path d="M 89.375 87.933899 C 89.106247 88.201103 88.856247 88.201103 88.625 87.933899 C 88.903503 87.612862 89.153503 87.612862 89.375 87.933899 Z" opacity="0.004" stroke="none" fill-rule="evenodd" fill="#760bb7" id="path67"></path>
    </g>
    <g id="g68">
        <path d="M 69.375 87.430702 C 69.935501 88.534973 70.768753 89.373543 71.875 89.946701 C 72.141998 90.181686 72.47525 90.265724 72.875 90.198296 C 73.170753 90.450897 73.503998 90.660736 73.875 90.827286 C 73.208252 90.99511 72.541748 90.99511 71.875 90.827286 C 69.174248 89.352417 68.2575 87.255836 69.125 84.537315 C 69.238503 85.527863 69.321747 86.492241 69.375 87.430702 Z" stroke="none" fill-rule="evenodd" fill="#e0dde2" id="path68"></path>
    </g>
    <g id="g69">
        <path d="M 89.625 87.682304 C 89.958252 87.682304 90.291748 87.682304 90.625 87.682304 C 90.791748 87.682304 90.875 87.766083 90.875 87.933899 C 91.358002 88.607437 91.483002 89.362236 91.25 90.198296 C 91.02475 89.55143 90.691498 88.964455 90.25 88.437096 C 89.787247 88.698006 89.49575 88.53019 89.375 87.933899 C 89.541748 87.933899 89.625 87.850121 89.625 87.682304 Z" opacity="0.004" stroke="none" fill-rule="evenodd" fill="#69109e" id="path69"></path>
    </g>
    <g id="g70">
        <path d="M 73.875 88.185501 C 74.01075 88.2006 74.094002 88.284378 74.125 88.437096 C 73.107002 89.080688 73.190498 89.583893 74.375 89.946701 C 73.998497 90.260445 73.623497 90.260445 73.25 89.946701 C 73.126251 89.450294 73.084503 88.94709 73.125 88.437096 C 73.447746 88.496727 73.697746 88.412949 73.875 88.185501 Z" stroke="none" fill-rule="evenodd" fill="#e29f8b" id="path70"></path>
    </g>
    <g id="g71">
        <path d="M 92.625 89.191895 C 92.791748 89.191895 92.958252 89.191895 93.125 89.191895 C 93.041748 89.359711 92.958252 89.527283 92.875 89.695099 C 92.665497 89.609047 92.582001 89.44149 92.625 89.191895 Z" opacity="0.004" stroke="none" fill-rule="evenodd" fill="#020015" id="path71"></path>
    </g>
    <g id="g72">
        <path d="M 92.875 89.695099 C 94.13475 89.682762 94.176247 89.850586 93 90.198296 C 92.884003 90.048843 92.842247 89.881035 92.875 89.695099 Z" opacity="0.004" stroke="none" fill-rule="evenodd" fill="#000000" id="path72"></path>
    </g>
    <g id="g73">
        <path d="M 116.125 91.204689 C 116.375 91.372505 116.625 91.54007 116.875 91.707893 C 116.463997 92.988533 116.213997 94.330307 116.125 95.733475 C 115.958252 94.056068 115.791748 94.056068 115.625 95.733475 C 115.375 95.733475 115.125 95.733475 114.875 95.733475 C 114.886002 94.830238 115.30275 94.201233 116.125 93.846481 C 115.767998 93.700806 115.434502 93.742828 115.125 93.972282 C 115.125 93.804466 115.125 93.636894 115.125 93.469086 C 116.2015 93.236855 116.284752 92.943245 115.375 92.588486 C 115.667999 92.483063 115.917999 92.315498 116.125 92.085289 C 115.599503 92.149696 115.099503 92.107681 114.625 91.959488 C 114.977753 91.446472 115.477753 91.194878 116.125 91.204689 Z" opacity="0.925" stroke="none" fill-rule="evenodd" fill="#4c3533" id="path73"></path>
    </g>
    <g id="g74">
        <path d="M 97.375 94.475479 C 97.375 94.307663 97.375 94.140091 97.375 93.972282 C 97.652252 93.957939 97.902252 93.874153 98.125 93.720688 C 98.36525 93.276604 98.448753 92.773407 98.375 92.211082 C 98.786003 92.264931 99.161003 92.180893 99.5 91.959488 C 99.841248 92.234482 99.924751 92.569862 99.75 92.965881 C 99.564751 92.67881 99.356247 92.67881 99.125 92.965881 C 98.978752 93.569725 98.686996 94.072914 98.25 94.475479 C 97.906754 94.73085 97.614998 94.73085 97.375 94.475479 Z" opacity="0.027" stroke="none" fill-rule="evenodd" fill="#f6ae98" id="path74"></path>
    </g>
    <g id="g75">
        <path d="M 114.625 91.959488 C 115.099503 92.107681 115.599503 92.149696 116.125 92.085289 C 115.917999 92.315498 115.667999 92.483063 115.375 92.588486 C 116.284752 92.943245 116.2015 93.236855 115.125 93.469086 C 115.041748 93.469086 114.958252 93.469086 114.875 93.469086 C 114.699249 92.911537 114.365997 92.450356 113.875 92.085289 C 114.112 91.963768 114.362 91.921997 114.625 91.959488 Z" stroke="none" fill-rule="evenodd" fill="#e29d8b" id="path75"></path>
    </g>
    <g id="g76">
        <path d="M 113.375 92.965881 C 113.588753 93.225281 113.755501 93.518646 113.875 93.846481 C 113.319504 94.251053 112.986252 94.796272 112.875 95.48188 C 112.51725 95.803925 112.350502 96.223343 112.375 96.739868 C 111.815498 97.000771 111.232246 97.042542 110.625 96.865669 C 109.952751 95.429039 109.036003 94.171051 107.875 93.091682 C 108.014 92.995323 108.097252 92.86953 108.125 92.714279 C 108.597504 92.344429 109.139252 92.092834 109.75 91.959488 C 110.178497 92.104408 110.470253 92.398033 110.625 92.840088 C 111.548752 92.696419 112.465248 92.738441 113.375 92.965881 Z" stroke="none" fill-rule="evenodd" fill="#f8bbad" id="path76"></path>
    </g>
    <g id="g77">
        <path d="M 98.125 93.720688 C 97.902252 93.874153 97.652252 93.957939 97.375 93.972282 C 97.555252 93.498772 97.805252 93.414993 98.125 93.720688 Z" opacity="0.004" stroke="none" fill-rule="evenodd" fill="#ff6f07" id="path77"></path>
    </g>
    <g id="g78">
        <path d="M 96.625 93.217484 C 96.672997 93.73201 96.672997 94.235207 96.625 94.727081 C 96.000252 94.250046 96.000252 93.746849 96.625 93.217484 Z" opacity="0.016" stroke="none" fill-rule="evenodd" fill="#2d1e15" id="path78"></path>
    </g>
    <g id="g79">
        <path d="M 97.375 93.972282 C 97.375 94.140091 97.375 94.307663 97.375 94.475479 C 96.766747 94.2118 96.766747 94.044243 97.375 93.972282 Z" opacity="0.004" stroke="none" fill-rule="evenodd" fill="#fd4725" id="path79"></path>
    </g>
    <g id="g80">
        <path d="M 108.125 92.714279 C 108.097252 92.86953 108.014 92.995323 107.875 93.091682 C 109.036003 94.171051 109.952751 95.429039 110.625 96.865669 C 111.232246 97.042542 111.815498 97.000771 112.375 96.739868 C 112.355751 97.054375 112.189003 97.263962 111.875 97.368874 C 110.154503 97.737457 109.195999 97.024429 109 95.230278 C 108.49025 94.63298 107.906998 94.129784 107.25 93.720688 C 107.038254 92.968407 107.330002 92.632767 108.125 92.714279 Z" stroke="none" fill-rule="evenodd" fill="#db9180" id="path80"></path>
    </g>
    <g id="g81">
        <path d="M 114.875 93.469086 C 114.958252 93.469086 115.041748 93.469086 115.125 93.469086 C 115.125 93.636894 115.125 93.804466 115.125 93.972282 C 114.360497 94.590454 113.777 95.345261 113.375 96.236671 C 113.1745 96.601997 113.0495 97.021164 113 97.494675 C 112.916748 97.410881 112.833252 97.326851 112.75 97.243073 C 112.745499 96.665154 112.787247 96.077911 112.875 95.48188 C 112.986252 94.796272 113.319504 94.251053 113.875 93.846481 C 113.755501 93.518646 113.588753 93.225281 113.375 92.965881 C 113.192497 92.660942 112.942497 92.40934 112.625 92.211082 C 112.75 92.127304 112.875 92.043274 113 91.959488 C 113.674004 92.430977 114.299004 92.934181 114.875 93.469086 Z" stroke="none" fill-rule="evenodd" fill="#1f3256" id="path81"></path>
    </g>
    <g id="g82">
        <path d="M 116.125 95.733475 C 115.991249 96.223091 115.657997 96.474693 115.125 96.488266 C 115.110001 96.351654 115.026749 96.267868 114.875 96.236671 C 114.417 96.424866 114.000252 96.67646 113.625 96.99147 C 113.403503 96.783897 113.320251 96.532295 113.375 96.236671 C 113.777 95.345261 114.360497 94.590454 115.125 93.972282 C 115.434502 93.742828 115.767998 93.700806 116.125 93.846481 C 115.30275 94.201233 114.886002 94.830238 114.875 95.733475 C 115.125 95.733475 115.375 95.733475 115.625 95.733475 C 115.791748 94.056068 115.958252 94.056068 116.125 95.733475 Z" stroke="none" fill-rule="evenodd" fill="#d59787" id="path82"></path>
    </g>
    <g id="g83">
        <path d="M 116.875 91.707893 C 117.502998 92.144913 117.752998 92.773918 117.625 93.594887 C 117.455002 96.028854 116.205002 97.622223 113.875 98.375259 C 112.453247 98.573784 111.036751 98.783363 109.625 99.004265 C 109.584503 98.49427 109.626251 97.991066 109.75 97.494675 C 110.074753 97.867035 110.491501 98.034607 111 97.997871 C 111.793747 97.885651 112.585503 97.75985 113.375 97.620468 C 113.929253 97.186966 114.512497 96.809563 115.125 96.488266 C 115.657997 96.474693 115.991249 96.223091 116.125 95.733475 C 116.213997 94.330307 116.463997 92.988533 116.875 91.707893 Z" stroke="none" fill-rule="evenodd" fill="#e7e1ea" id="path83"></path>
    </g>
    <g id="g84">
        <path d="M 51.875 117.874199 C 52.125 117.538818 52.375 117.538818 52.625 117.874199 C 52.375 117.874199 52.125 117.874199 51.875 117.874199 Z" opacity="0.004" stroke="none" fill-rule="evenodd" fill="#000000" id="path84"></path>
    </g>
</svg>
