<svg version="1.1" xmlns="http://www.w3.org/2000/svg" xmlns:xlink="http://www.w3.org/1999/xlink" width="209.28276" height="69.56766" viewBox="0,0,209.28276,69.56766"><g transform="translate(-139.90128,-156.58493)"><g data-paper-data="{&quot;isPaintingLayer&quot;:true}" fill-rule="nonzero" stroke-linejoin="miter" stroke-miterlimit="10" stroke-dasharray="" stroke-dashoffset="0" style="mix-blend-mode: normal"><text transform="translate(208.11824,200.27268) scale(1.39107,1.18075)" font-size="40" xml:space="preserve" data-paper-data="{&quot;origPos&quot;:null}" fill="#000000" fill-rule="nonzero" stroke="none" stroke-width="0" stroke-linecap="butt" stroke-linejoin="miter" stroke-miterlimit="10" stroke-dasharray="" stroke-dashoffset="0" font-family="Handwriting" font-weight="normal" text-anchor="start" style="mix-blend-mode: normal"><tspan x="0" dy="0">Data</tspan></text><path d="M202.39285,167.01848l-0.3927,35.33333" data-paper-data="{&quot;origPos&quot;:null}" fill="none" stroke="#000000" stroke-width="1.5" stroke-linecap="round"/><g data-paper-data="{&quot;origPos&quot;:null}"><path d="M163.69117,167.78414h30.05666l-8.43313,17.1927l-13.51471,-0.42673z" data-paper-data="{&quot;origPos&quot;:null}" fill="#000000" stroke="none" stroke-width="1.02262" stroke-linecap="round"/><path d="M175.87926,178.94117h5.85279v20.9116h-5.85279z" data-paper-data="{&quot;origPos&quot;:null}" fill="#000000" stroke="none" stroke-width="1.08209" stroke-linecap="butt"/><path d="M167.64873,197.59695l5.18209,-2.56062l12.19338,0.183l4.81644,2.56062l0.06096,4.2067h-22.25287z" data-paper-data="{&quot;origPos&quot;:null}" fill="#000000" stroke="none" stroke-width="1.08209" stroke-linecap="round"/><path d="M178.74188,170.83719c3.77265,-0.02682 7.75748,-0.65233 11.24841,0.73154c1.95213,0.73165 4.19206,3.0411 3.65805,5.06028c-0.55485,2.14482 -3.51043,3.02758 -5.79182,3.29216c-3.11176,0.36093 -6.06136,-1.6436 -9.26699,-1.64608c-3.25081,-0.00237 -6.41249,1.93264 -9.63276,1.58512c-2.0851,-0.22548 -4.97002,-1.03398 -5.54798,-2.98735c-0.56454,-1.91066 1.1425,-4.47489 2.98735,-5.18221c3.84826,-1.47289 8.22444,-0.82428 12.34573,-0.85347z" data-paper-data="{&quot;origPos&quot;:null}" fill="none" stroke="#000000" stroke-width="2.16418" stroke-linecap="round"/><path d="M174.00297,174.7561c0.72467,0 1.38082,0.29388 1.85646,0.76952c0.47575,0.47575 0.76963,1.13191 0.76963,1.85657c0,0.72467 -0.29388,1.38094 -0.76963,1.85657c-0.47564,0.47564 -1.13179,0.76952 -1.85646,0.76952c-0.72478,0 -1.38094,-0.29388 -1.85657,-0.76952c-0.47564,-0.47564 -0.76952,-1.13191 -0.76952,-1.85657c0,-0.72467 0.29388,-1.38082 0.76952,-1.85657c0.47564,-0.47564 1.13179,-0.76952 1.85657,-0.76952z" data-paper-data="{&quot;origPos&quot;:null}" fill="#faa51f" stroke="none" stroke-width="1.04741" stroke-linecap="butt"/><path d="M176.83561,171.03833c0.72467,0 1.38082,0.29388 1.85646,0.76952c0.47564,0.47564 0.76952,1.13191 0.76952,1.85657c0,0.72467 -0.29388,1.38082 -0.76952,1.85657c-0.47564,0.47564 -1.13179,0.76952 -1.85646,0.76952c-0.72478,0 -1.38094,-0.29388 -1.85657,-0.76952c-0.47564,-0.47575 -0.76952,-1.13191 -0.76952,-1.85657c0,-0.72467 0.29388,-1.38094 0.76952,-1.85657c0.47564,-0.47564 1.13179,-0.76952 1.85657,-0.76952z" data-paper-data="{&quot;origPos&quot;:null}" fill="#faa51f" stroke="none" stroke-width="1.04741" stroke-linecap="butt"/><path d="M179.90421,172.51358c0.72467,0 1.38094,0.29399 1.85657,0.76963c0.47564,0.47564 0.76952,1.13179 0.76952,1.85646c0,0.72478 -0.29388,1.38094 -0.76952,1.85657c-0.47564,0.47564 -1.13191,0.76952 -1.85657,0.76952c-0.72467,0 -1.38082,-0.29388 -1.85657,-0.76952c-0.47564,-0.47564 -0.76952,-1.13179 -0.76952,-1.85657c0,-0.72467 0.29388,-1.38082 0.76952,-1.85646c0.47575,-0.47564 1.13191,-0.76963 1.85657,-0.76963z" data-paper-data="{&quot;origPos&quot;:null}" fill="#faa51f" stroke="none" stroke-width="1.04741" stroke-linecap="butt"/><path d="M182.44185,174.81515c0.72467,0 1.38082,0.29388 1.85657,0.76952c0.47564,0.47564 0.76952,1.13191 0.76952,1.85657c0,0.72467 -0.29388,1.38094 -0.76952,1.85657c-0.47575,0.47564 -1.13191,0.76952 -1.85657,0.76952c-0.72467,0 -1.38094,-0.29388 -1.85657,-0.76952c-0.47564,-0.47564 -0.76952,-1.13191 -0.76952,-1.85657c0,-0.72467 0.29388,-1.38094 0.76952,-1.85657c0.47564,-0.47564 1.13191,-0.76952 1.85657,-0.76952z" data-paper-data="{&quot;origPos&quot;:null}" fill="#faa51f" stroke="none" stroke-width="1.04741" stroke-linecap="butt"/><path d="M173.85535,174.99217h8.08482v5.01611h-8.08482z" data-paper-data="{&quot;origPos&quot;:null}" fill="#faa51f" stroke="none" stroke-width="1.04741" stroke-linecap="butt"/></g><path d="M348.18405,193.32356c0,22.1628 -52.11286,31.82903 -104.97878,31.82903c-52.86593,0 -102.30398,-20.89954 -102.30398,-43.06234c0,-22.1628 48.41742,-19.09914 101.28334,-19.09914c52.86593,0 105.99942,8.16964 105.99942,30.33244z" fill="#fae2bb" stroke="#000000" stroke-width="2" stroke-linecap="butt"/><text transform="translate(162.63377,198.80499) scale(0.59595,0.5561)" font-size="40" xml:space="preserve" fill="#000000" fill-rule="nonzero" stroke="none" stroke-width="1" stroke-linecap="butt" stroke-linejoin="miter" stroke-miterlimit="10" stroke-dasharray="" stroke-dashoffset="0" font-family="Handwriting" font-weight="normal" text-anchor="start" style="mix-blend-mode: normal"><tspan x="0" dy="0">TOTAL SCORE</tspan></text></g></g></svg>