<svg version="1.1" xmlns="http://www.w3.org/2000/svg" xmlns:xlink="http://www.w3.org/1999/xlink" width="219.78395" height="72.6024" viewBox="0,0,219.78395,72.6024"><g transform="translate(-131.10804,-125.99419)"><g data-paper-data="{&quot;isPaintingLayer&quot;:true}" fill-rule="nonzero" stroke-linejoin="miter" stroke-miterlimit="10" stroke-dasharray="" stroke-dashoffset="0" style="mix-blend-mode: normal"><g><text transform="translate(212.97283,173.78307) scale(1.39107,1.18075)" font-size="40" xml:space="preserve" data-paper-data="{&quot;origPos&quot;:null}" fill="#000000" fill-rule="nonzero" stroke="none" stroke-width="0" stroke-linecap="butt" stroke-linejoin="miter" stroke-miterlimit="10" stroke-dasharray="" stroke-dashoffset="0" font-family="Handwriting" font-weight="normal" text-anchor="start" style="mix-blend-mode: normal"><tspan x="0" dy="0">Play</tspan></text><path d="M200.39285,141.01848l-0.3927,35.33333" data-paper-data="{&quot;origPos&quot;:null}" fill="none" stroke="#000000" stroke-width="1.5" stroke-linecap="round"/><path d="M193.85597,160.60515l-28.2407,14.08l0.50267,-32z" data-paper-data="{&quot;origPos&quot;:null}" fill="#000000" stroke="#000000" stroke-width="1.5" stroke-linecap="round"/><path d="M160.90276,145.01848l24.94461,15.33333l-22.98107,11" data-paper-data="{&quot;origPos&quot;:null}" fill="none" stroke="#faa51f" stroke-width="2" stroke-linecap="round"/><path d="M349.892,170.78542c0,13.09721 -32.74442,25.25494 -63.44925,26.81117c-16.42933,0.83269 -23.31917,-6.82449 -44.28167,-6.82449c-18.41981,0 -18.96766,-9.16023 -34.32856,-9.72248c-34.79134,-1.27347 -75.72447,3.68305 -75.72447,-10.26419c0,-20.10517 48.7526,-43.79124 108.89197,-43.79124c60.13938,0 108.89197,23.68608 108.89197,43.79124z" fill="#fae2bb" stroke="#000000" stroke-width="2" stroke-linecap="butt"/><text transform="translate(216.62909,174.85833) scale(1.22265,1.03779)" font-size="40" xml:space="preserve" fill="#000000" fill-rule="nonzero" stroke="none" stroke-width="0" stroke-linecap="butt" stroke-linejoin="miter" stroke-miterlimit="10" stroke-dasharray="" stroke-dashoffset="0" font-family="Handwriting" font-weight="normal" text-anchor="start" style="mix-blend-mode: normal"><tspan x="0" dy="0">Play</tspan></text><path d="M205.5722,145.18172l-0.34515,31.05541" fill="none" stroke="#000000" stroke-width="1.5" stroke-linecap="round"/><path d="M200.7057,161.51805l-19.54795,7.98066l-1.31604,-17.57854z" fill="#000000" stroke="#000000" stroke-width="1.5" stroke-linecap="round"/></g></g></g></svg>