<svg version="1.1" xmlns="http://www.w3.org/2000/svg" xmlns:xlink="http://www.w3.org/1999/xlink" width="114.33404" height="107.82617" viewBox="0,0,114.33404,107.82617"><g transform="translate(-177.96875,-125.92612)"><g data-paper-data="{&quot;isPaintingLayer&quot;:true}" fill-rule="evenodd" stroke="none" stroke-width="1" stroke-linecap="butt" stroke-linejoin="miter" stroke-miterlimit="10" stroke-dasharray="" stroke-dashoffset="0" style="mix-blend-mode: normal"><path d="M245.46875,146.86568c0.01781,-0.34997 0.12187,-0.66553 0.3125,-0.9467c0.27842,-0.19249 0.59092,-0.29757 0.9375,-0.31556c1.20469,-0.53299 2.03813,-1.42699 2.5,-2.6823c-2.04219,-2.69115 -4.7503,-4.26898 -8.125,-4.73347c-6.66968,-0.86358 -12.13843,1.29287 -16.40625,6.46909c-0.29875,0.90788 -0.71532,1.74948 -1.25,2.52451c-1.28875,6.94055 -0.97625,13.77757 0.9375,20.51173c0.55344,1.57782 1.2825,3.05057 2.1875,4.41792c0.23094,0.33891 0.54344,0.54939 0.9375,0.63112c0.50813,-0.24898 0.97688,-0.56454 1.40625,-0.9467c0.69688,1.84637 1.73844,2.05654 3.125,0.63113c2.08249,2.23041 2.03031,4.43937 -0.15625,6.62687c-0.12468,-0.07194 -0.17657,-0.17735 -0.15625,-0.31556c0.19062,-0.28116 0.29468,-0.59673 0.3125,-0.9467c0.54344,-0.59168 0.85594,-1.3279 0.9375,-2.20896c-0.00906,-0.48251 -0.2175,-0.85076 -0.625,-1.10448c-1.57188,-0.13064 -3.13438,-0.02556 -4.6875,0.31556c-0.87781,0.5494 -1.81531,0.91766 -2.8125,1.10448c-0.57563,-3.59207 -1.25281,-7.16837 -2.03125,-10.72922c-1.00814,-5.44633 -1.21657,-10.91601 -0.625,-16.40938c3.4725,-9.14822 10.08718,-12.98745 19.84375,-11.51811c5.91875,1.04073 10.50218,4.09098 13.75,9.15138c-3.48,-1.17452 -6.9175,-1.01674 -10.3125,0.47335z" fill="#7c38a0" opacity="0.96"/><path d="M246.71875,145.60341c0.04094,-0.2332 -0.01126,-0.44369 -0.15625,-0.63113c-2.04937,0.50522 -3.92437,0.08457 -5.625,-1.26227c-0.20844,0.2105 -0.20844,0.42065 0,0.63114c1.48406,0.93785 3.09843,1.46358 4.84375,1.57782c-0.19063,0.28117 -0.29469,0.59673 -0.3125,0.9467c-0.10406,0 -0.20844,0 -0.3125,0c-0.64157,-0.03093 -1.16251,0.17955 -1.5625,0.63113c-3.40688,-3.30681 -7.46938,-4.41129 -12.1875,-3.31343c-2.05375,0.51057 -3.82469,1.50966 -5.3125,2.99786c0.14282,0.25183 0.35125,0.35691 0.625,0.31557c1.70218,-0.83657 3.47313,-1.52009 5.3125,-2.05118c4.27562,-1.01327 7.86937,0.0912 10.78125,3.31343c0.57094,0.65828 0.57094,1.2894 0,1.89339c-4.77844,-2.84103 -9.62219,-2.89372 -14.53125,-0.15778c-0.70812,0.45 -1.22875,1.02875 -1.5625,1.73561c-0.41656,0.21047 -0.72906,0.52604 -0.9375,0.94669c0,0.2105 0,0.42066 0,0.63114c0.14781,0.44368 0.46031,0.65417 0.9375,0.63112c0,0.10509 0,0.21048 0,0.31557c-0.13687,-0.02051 -0.24125,0.03187 -0.3125,0.15778c0.49406,0.57684 0.91094,1.20799 1.25,1.89339c2.51874,0.4989 5.01874,1.07733 7.5,1.73561c1.33969,-0.27612 2.69406,-0.38121 4.0625,-0.31558c0.08907,1.11648 -0.43187,1.69491 -1.5625,1.73561c0.61656,0.1562 1.24156,0.20891 1.875,0.15779c-1.19126,0.26003 -2.44126,0.41781 -3.75,0.47335c3.99407,1.21808 6.85875,-0.09655 8.59375,-3.94456c0.25501,0.41748 0.61969,0.62766 1.09375,0.63113c0.14781,0.44369 0.46031,0.65416 0.9375,0.63114c2.44437,0.56675 4.94437,1.0401 7.5,1.42003c-0.95437,0.69235 -1.99624,1.2184 -3.125,1.57783c1.11032,0.42601 2.25593,0.79428 3.4375,1.10448c-0.53718,0.58443 -1.16218,1.00538 -1.875,1.26226c-0.56,0.2553 -1.185,0.41308 -1.875,0.47335c-3.43687,0.26034 -6.87437,0.36543 -10.3125,0.31556c-4.68718,-1.47022 -9.3225,-3.10074 -13.90625,-4.89126c-1.09407,0.00599 -1.51063,0.53206 -1.25,1.57783c1.66031,2.41344 3.79563,4.25444 6.40625,5.52239c1.01812,0.46292 2.06,0.83088 3.125,1.10448c2.30312,1.00286 4.69906,1.73938 7.1875,2.20895c1.64,2.09883 2.52532,4.51826 2.65625,7.258c0.22125,0.27802 0.48188,0.48817 0.78125,0.63112c0.23813,1.14646 0.655,2.19822 1.25,3.15564c0.58094,1.7435 1.77875,2.79559 3.59375,3.15565c0.47906,-0.08615 0.94781,-0.19124 1.40625,-0.31556c0.12407,0.32345 0.33219,0.37615 0.625,0.15778c1.41063,-0.97541 2.76468,-2.02751 4.0625,-3.15565c0.40125,-0.21585 0.76593,-0.16315 1.09375,0.15777c0.20407,1.36199 0.56876,2.67694 1.09375,3.94457c-0.71938,0.62387 -1.34438,1.36008 -1.875,2.20896c0.70094,-0.10067 1.37813,-0.04796 2.03125,0.15778c0.455,1.76621 0.55906,3.55421 0.3125,5.3646c-1.37189,0.55036 -2.77813,1.07608 -4.21875,1.57782c0.29312,0.33229 0.65782,0.54277 1.09375,0.63114c1.07219,-0.41371 2.16594,-0.72926 3.28125,-0.9467c1.11656,6.75278 -0.28969,12.85359 -4.21875,18.30278c-3.15562,3.22161 -7.01001,4.90483 -11.5625,5.04904c-3.07656,0.23194 -5.83687,-0.55697 -8.28125,-2.36674c-1.05312,-0.95774 -1.99062,-2.00952 -2.8125,-3.15564c-0.66719,-0.20039 -1.29219,-0.09499 -1.875,0.31557c-0.84469,0.95868 -1.78219,1.80029 -2.8125,2.52452c-2.79689,1.46737 -5.71343,2.62454 -8.75,3.47121c-3.35781,0.53993 -5.90969,-0.66963 -7.65625,-3.62899c-0.81782,-1.81357 -1.28657,-3.70695 -1.40625,-5.68018c-1.22,-1.02148 -2.36563,-2.17865 -3.4375,-3.47121c0.05219,-0.10511 0.10406,-0.21048 0.15625,-0.31556c1.15344,0.7198 2.40344,1.24584 3.75,1.57781c0.32188,-0.10602 0.47813,-0.31651 0.46875,-0.63112c-2.35782,-1.48411 -4.59751,-3.16732 -6.71875,-5.04904c-0.67437,-0.69236 -0.57032,-1.11301 0.3125,-1.26227c2.06344,0.8334 4.14687,1.56963 6.25,2.20896c0.21499,-0.26254 0.16281,-0.47271 -0.15625,-0.63112c-1.26719,-0.7438 -2.51719,-1.48001 -3.75,-2.20897c-2.25875,-2.03538 -3.71719,-4.55992 -4.375,-7.57356c-0.13218,-0.84635 0.18032,-1.21428 0.9375,-1.10448c2.22813,2.61667 4.93625,4.56276 8.125,5.83797c0,0.42064 0,0.84162 0,1.26225c-0.41656,2.20896 -0.41656,4.41791 0,6.62687c1.26812,4.63976 4.28906,6.63855 9.0625,5.99574c0.89907,0.32125 1.83657,0.26855 2.8125,-0.15778c1.36156,-0.89779 2.81968,-1.63399 4.375,-2.20896c1.44844,-2.07295 2.28188,-4.38698 2.5,-6.94243c-0.10688,-1.82837 -0.15875,-3.66909 -0.15625,-5.52239c-0.26938,-0.5008 -0.47781,-1.02684 -0.625,-1.57783c-0.88531,-0.47332 -1.5625,-1.15718 -2.03125,-2.05118c-3.15719,-0.12212 -4.51126,-1.75262 -4.0625,-4.89124c3.38437,-1.94293 6.30124,-4.46746 8.75,-7.57356c-0.02032,0.13822 0.03157,0.24362 0.15625,0.31556c2.18656,-2.1875 2.23874,-4.39646 0.15625,-6.62687c-1.38656,1.42541 -2.42812,1.21525 -3.125,-0.63113c-0.42937,0.38216 -0.89812,0.69772 -1.40625,0.9467c-0.39406,-0.08174 -0.70656,-0.29221 -0.9375,-0.63112c-0.905,-1.36735 -1.63406,-2.8401 -2.1875,-4.41792c-1.91375,-6.73416 -2.22625,-13.57118 -0.9375,-20.51173c0.53468,-0.77503 0.95125,-1.61662 1.25,-2.52451c4.26782,-5.17622 9.73657,-7.33267 16.40625,-6.46909c3.3747,0.4645 6.08281,2.04233 8.125,4.73347c-0.46187,1.25531 -1.29531,2.14931 -2.5,2.6823z" fill="#8f59ac"/><path d="M276.71875,148.12793c0.57405,0.04387 0.67811,0.25435 0.3125,0.63112c-0.24936,-0.14421 -0.35343,-0.35468 -0.3125,-0.63112z" fill="#d897fb" opacity="0.094"/><path d="M220.46875,151.59915c0.41656,0.21047 0.41656,0.21047 0,0z" fill="#000000" opacity="0.004"/><path d="M271.09375,163.27506c0.67407,0.1745 0.62187,0.49007 -0.15625,0.94669c-0.14688,-0.33987 -0.0947,-0.65543 0.15625,-0.94669z" fill="#000000" opacity="0.004"/><path d="M274.53125,164.53731c0.12407,-0.32344 0.33218,-0.37617 0.625,-0.15778c-0.18563,0.14641 -0.39406,0.19913 -0.625,0.15778z" fill="#000000" opacity="0.004"/><path d="M274.53125,164.53731c-0.20844,0.21048 -0.20844,0.21048 0,0z" fill="#000000" opacity="0.004"/><path d="M264.53125,178.42218c0.98438,0.38089 2.02625,0.69645 3.125,0.9467c-2.47625,0.64186 -2.47625,0.85202 0,0.63112c-0.515,0.45031 -1.14,0.71318 -1.875,0.78891c0.51062,0.15589 1.03156,0.20828 1.5625,0.15779c0.21562,1.25911 0.26781,2.52137 0.15625,3.78678c-0.89781,0.82047 -1.78312,0.82047 -2.65625,0c-0.10406,0.10508 -0.20844,0.21048 -0.3125,0.31556c0.52875,0.58663 0.9975,1.21777 1.40625,1.89339c0.71125,-0.8091 1.33625,-0.70371 1.875,0.31556c0.11969,-0.17546 0.27594,-0.28053 0.46875,-0.31556c0.4675,0.50364 0.83218,1.02937 1.09375,1.57782c-0.17531,0.16473 -0.38374,0.26981 -0.625,0.31556c-0.52094,-0.31556 -1.04156,-0.63114 -1.5625,-0.9467c-0.15625,0.10509 -0.3125,0.21049 -0.46875,0.31556c0.20844,0.31557 0.41656,0.63114 0.625,0.9467c-1.56187,0.43327 -2.49937,-0.19787 -2.8125,-1.89338c-0.38094,0.24077 -0.69344,0.55633 -0.9375,0.94669c-0.36032,-0.92964 -0.67282,-1.87633 -0.9375,-2.84007c0.33594,-0.92713 0.38781,-1.87383 0.15625,-2.84009c-0.95906,-0.76935 -1.27156,-1.71604 -0.9375,-2.84008c-1.03563,-1.41404 -2.23375,-2.67631 -3.59375,-3.78679c-0.31906,0.15841 -0.37124,0.36858 -0.15625,0.63114c1.15062,1.10921 2.24437,2.26639 3.28125,3.47122c-0.41656,0.10508 -0.83344,0.21048 -1.25,0.31556c1.39876,0.99465 2.12813,2.36201 2.1875,4.10235c-1.14282,0.14958 -1.195,0.57023 -0.15625,1.26226c0.33812,1.37713 0.39031,2.74446 0.15625,4.10234c-0.20844,-0.21048 -0.41656,-0.42066 -0.625,-0.63114c-0.10406,0.15778 -0.20844,0.31557 -0.3125,0.47335c0.81,0.90031 0.81,1.7943 0,2.6823c0.19374,6.3031 -1.00408,12.29883 -3.59375,17.98721c-1.56343,3.4425 -4.11563,5.75654 -7.65625,6.94243c-0.45312,0.42603 -0.66156,0.95174 -0.625,1.57783c-0.75751,-0.09721 -1.48656,0.0082 -2.1875,0.31556c0.41656,0.52604 0.83344,1.05177 1.25,1.57782c-0.15625,0.10509 -0.3125,0.21049 -0.46875,0.31557c-0.45,-0.20449 -0.91875,-0.30957 -1.40625,-0.31557c0.06906,1.35536 -0.34751,1.56584 -1.25,0.63114c-0.21313,0.23447 -0.42157,0.44463 -0.625,0.63112c-0.51344,0.00632 -0.93001,-0.20417 -1.25,-0.63112c-0.27687,0.26035 -0.38093,0.57591 -0.3125,0.94669c-0.3125,0 -0.625,0 -0.9375,0c-0.04125,-1.50397 -0.56187,-2.81894 -1.5625,-3.94455c-4.01063,-0.18272 -7.13563,-1.91832 -9.375,-5.20683c0.20844,-0.31556 0.41656,-0.63113 0.625,-0.94669c-0.15625,-0.10508 -0.3125,-0.21047 -0.46875,-0.31556c-2.04719,2.21875 -4.49532,3.84926 -7.34375,4.89126c-1.40125,0.27487 -2.75531,0.6955 -4.0625,1.26226c-1.46938,0.05427 -2.9275,0.21205 -4.375,0.47334c0.03875,0.19154 0.14282,0.29664 0.3125,0.31557c0.20313,0.61061 0.30719,1.24174 0.3125,1.89338c-1.14688,0.0546 -1.92813,-0.47114 -2.34375,-1.57782c-1.18157,0.96657 -1.80657,0.65102 -1.875,-0.9467c-0.45125,0.52226 -1.02438,0.73274 -1.71875,0.63114c-0.05313,-0.41718 0.05094,-0.78546 0.3125,-1.10449c-0.55813,-0.06186 -0.97468,-0.32471 -1.25,-0.78891c0.53938,-0.5453 0.95594,-1.17642 1.25,-1.89339c-1.49313,-2.04171 -1.90968,-4.25065 -1.25,-6.62687c0.11968,1.97323 0.58843,3.86661 1.40625,5.68018c1.74656,2.95936 4.29844,4.16892 7.65625,3.62899c3.03657,-0.84667 5.95311,-2.00384 8.75,-3.47121c1.03031,-0.72423 1.96781,-1.56584 2.8125,-2.52452c0.58281,-0.41055 1.20781,-0.51596 1.875,-0.31557c0.82188,1.14612 1.75938,2.1979 2.8125,3.15564c2.44438,1.80977 5.20469,2.59868 8.28125,2.36674c4.55249,-0.1442 8.40688,-1.82743 11.5625,-5.04904c3.92906,-5.44919 5.33531,-11.55 4.21875,-18.30278c-1.11531,0.21744 -2.20906,0.53299 -3.28125,0.9467c-0.43593,-0.08837 -0.80063,-0.29885 -1.09375,-0.63114c1.44062,-0.50174 2.84686,-1.02746 4.21875,-1.57782c0.24656,-1.81038 0.1425,-3.59839 -0.3125,-5.3646c-0.65312,-0.20574 -1.33031,-0.25845 -2.03125,-0.15778c0.53062,-0.84887 1.15562,-1.58508 1.875,-2.20896c-0.52499,-1.26763 -0.88968,-2.58258 -1.09375,-3.94457c-0.32782,-0.32092 -0.6925,-0.37362 -1.09375,-0.15777c-1.29782,1.12813 -2.65187,2.18024 -4.0625,3.15565c-0.29281,0.21837 -0.50093,0.16567 -0.625,-0.15778c0.85344,-0.49575 1.42656,-1.23228 1.71875,-2.20896c0.20844,-1.26226 0.20844,-2.52452 0,-3.78678c-1.24657,-1.83564 -2.65282,-3.51887 -4.21875,-5.04905c-0.21,-0.89683 -0.62688,-1.68573 -1.25,-2.36674c1.86782,-0.10224 3.63875,-0.4705 5.3125,-1.10447c0.64157,0.03093 1.16251,-0.17956 1.5625,-0.63113c0.80905,-0.29001 1.43405,-0.81606 1.875,-1.57782c0,-0.10509 0,-0.21049 0,-0.31557c0.47719,-1.04011 0.37281,-2.03918 -0.3125,-2.99786c-1.24562,-0.15747 -2.49562,-0.21017 -3.75,-0.15778c0.71282,-0.25688 1.33782,-0.67783 1.875,-1.26226c-1.18157,-0.31019 -2.32718,-0.67847 -3.4375,-1.10448c1.12876,-0.35943 2.17063,-0.88548 3.125,-1.57783c-2.55563,-0.37993 -5.05563,-0.85328 -7.5,-1.42003c0.58719,0.03375 0.69126,-0.12402 0.3125,-0.47336c-0.40407,-0.15463 -0.82094,-0.20731 -1.25,-0.15777c-0.14157,-0.30231 -0.34968,-0.56549 -0.625,-0.78891c1.63592,0.31114 3.30249,0.62671 5,0.94669c3.26999,0.37616 6.29062,-0.09718 9.0625,-1.42004c-0.25406,0.41465 -0.56656,0.78292 -0.9375,1.10448c-2.14907,0.6548 -4.33657,1.12815 -6.5625,1.42005c0.36469,0.10509 0.72906,0.21048 1.09375,0.31556c1.70999,-0.43012 3.42874,-0.69331 5.15625,-0.78893c-0.41656,0.52606 -0.83344,1.05179 -1.25,1.57783c-1.44188,0.48787 -2.90032,0.90851 -4.375,1.26227c2.20282,0.59516 4.02562,0.01671 5.46875,-1.73561c0.10406,4.31283 0.20844,8.62535 0.3125,12.93818c1.41406,3.00134 3.65344,5.10521 6.71875,6.3113zM233.90625,217.23667c0.51657,0.05049 0.93312,0.26065 1.25,0.63113c-0.5875,0.08552 -1.00406,-0.12496 -1.25,-0.63113z" fill="#7d3aa0" opacity="0.961"/><path d="M197.96875,167.37741c0.36032,0.25654 0.36032,0.57211 0,0.94669c-0.27031,0.34176 -0.58281,0.39413 -0.9375,0.15778c0.37812,-0.32788 0.69062,-0.69613 0.9375,-1.10447z" fill="#8a3db0" opacity="0.027"/><path d="M273.28125,170.21749c-0.32031,-0.12528 -0.3725,-0.33543 -0.15625,-0.63114c0.14499,0.18745 0.19719,0.39792 0.15625,0.63114z" fill="#000000" opacity="0.004"/><path d="M273.28125,170.21749c0.34312,0.34744 0.39533,0.76809 0.15625,1.26226c-0.15312,-0.40804 -0.20532,-0.82899 -0.15625,-1.26226z" fill="#000000" opacity="0.004"/><path d="M246.40625,179.68444c-0.77812,-1.88172 -1.09062,-3.88019 -0.9375,-5.99573c0,-0.73621 0,-1.47273 0,-2.20896c0.41656,0 0.83344,0 1.25,0c1.21469,3.20298 2.46469,6.41133 3.75,9.62473c-0.06533,0.59043 -0.37783,0.95869 -0.9375,1.10448c-1.15908,-0.75579 -2.20063,-1.59707 -3.125,-2.52452z" fill="#fa47d2"/><path d="M248.90625,172.42644c0.17874,0.55382 0.43938,1.07987 0.78125,1.57783c1.05313,0.95774 1.99063,2.00952 2.8125,3.15564c0.88126,2.20549 0.51687,4.15157 -1.09375,5.83795c-0.97937,0.2493 -1.91687,0.14422 -2.8125,-0.31556c-0.83344,-0.58758 -1.5625,-1.2711 -2.1875,-2.05118c0,-0.31556 0,-0.63112 0,-0.94669c0.92437,0.92745 1.96592,1.76873 3.125,2.52452c0.55967,-0.14579 0.87217,-0.51405 0.9375,-1.10448c-1.28531,-3.2134 -2.53531,-6.42175 -3.75,-9.62473c-0.41656,0 -0.83344,0 -1.25,0c0,0.73622 0,1.47274 0,2.20896c-0.46532,-1.17895 -0.67375,-2.44121 -0.625,-3.78679c0.85844,-0.09876 1.69188,0.00633 2.5,0.31558c0.4175,0.83751 0.93843,1.57372 1.5625,2.20895z" fill="#eb3cac" opacity="0.961"/><path d="M221.09375,176.52879c0.87406,-0.28685 1.60313,-0.81289 2.1875,-1.57782c0.23812,0.35596 0.44655,0.72422 0.625,1.10447c-0.93062,0.21964 -1.86812,0.37742 -2.8125,0.47335z" fill="#7f38a6" opacity="0.004"/><path d="M232.03125,177.79105c-1.17312,0.92302 -2.215,2.02751 -3.125,3.31343c-2.72251,2.64475 -5.84751,4.64323 -9.375,5.99573c-0.55,0.30452 -0.65437,0.67279 -0.3125,1.10447c0.42188,-0.45756 0.9425,-0.66805 1.5625,-0.63112c-0.18687,1.6766 -0.29094,3.35951 -0.3125,5.04905c-1.64562,0.20006 -1.64562,0.41054 0,0.63112c1.44625,-0.36667 2.9047,-0.52447 4.375,-0.47333c2.21938,1.1278 2.79251,2.86344 1.71875,5.20681c-0.74407,0.29506 -1.52532,0.40014 -2.34375,0.31556c0.03531,-1.20765 -0.27719,-2.31213 -0.9375,-3.31343c-0.20844,-0.21048 -0.41656,-0.21048 -0.625,0c0.37532,0.28498 0.63594,0.6529 0.78125,1.10448c0.17063,1.84636 0.58719,3.63468 1.25,5.3646c0.24437,0.84823 0.71312,1.1638 1.40625,0.94669c-0.64937,-0.59642 -1.06594,-1.33293 -1.25,-2.20894c0.23812,-0.12972 0.55062,-0.18209 0.9375,-0.15779c-0.3125,-0.31556 -0.625,-0.63114 -0.9375,-0.94669c0.80094,-0.28969 1.47813,-0.13191 2.03125,0.47334c0.20844,1.47275 0.20844,2.94517 0,4.41791c-0.56187,1.77884 -1.76,2.62014 -3.59375,2.52452c-1.91,0.00884 -3.31625,-0.83277 -4.21875,-2.52452c0.33595,1.4497 1.22125,2.5018 2.65625,3.15565c-1.30844,2.49896 -2.975,2.81453 -5,0.94669c-0.64469,-0.91135 -1.21781,-1.85805 -1.71875,-2.84007c0.04094,1.089 0.40562,2.08841 1.09375,2.99787c-2.46094,-0.64723 -3.91938,-2.27744 -4.375,-4.89127c0,-2.10387 0,-4.20743 0,-6.3113c0,-2.1815 0.625,-4.17997 1.875,-5.99573c-0.10406,-0.10509 -0.20844,-0.21048 -0.3125,-0.31555c-0.3125,0.52604 -0.72906,0.94669 -1.25,1.26225c-0.10406,-0.2105 -0.20844,-0.42065 -0.3125,-0.63112c0.34968,-1.75107 0.87063,-3.43398 1.5625,-5.04905c-0.10406,-0.10509 -0.20844,-0.21048 -0.3125,-0.31556c-0.67001,1.17453 -1.39906,2.3314 -2.1875,3.47122c-0.23313,-1.26478 0.07937,-2.42195 0.9375,-3.47122c-0.3125,-0.42065 -0.625,-0.42065 -0.9375,0c-0.28562,0.68288 -0.65031,1.31401 -1.09375,1.89338c-0.20844,-0.52605 -0.20844,-1.05177 0,-1.57782c0.89562,-1.17549 1.98937,-2.01677 3.28125,-2.52452c-0.55749,-0.34902 -1.13063,-0.34902 -1.71875,0c-0.39281,-0.11045 -0.49719,-0.32093 -0.3125,-0.63114c1.18906,-0.87033 2.49095,-1.0808 3.90625,-0.63112c-0.31438,0.28275 -0.31438,0.49291 0,0.63112c4.15313,-3.41252 8.73657,-6.09482 13.75,-8.0469c1.24562,-0.15747 2.49562,-0.21016 3.75,-0.15778c-0.0025,0.96089 -0.10656,1.90759 -0.3125,2.84008z" fill="#863ead"/><path d="M252.96875,168.95523c-1.67375,0.63397 -3.44468,1.00223 -5.3125,1.10447c0.62312,0.681 1.04001,1.46991 1.25,2.36674c-0.62407,-0.63522 -1.145,-1.37144 -1.5625,-2.20895c-0.80812,-0.30925 -1.64156,-0.41434 -2.5,-0.31558c-0.04875,1.34558 0.15968,2.60784 0.625,3.78679c-0.15312,2.11554 0.15938,4.11402 0.9375,5.99573c0,0.31556 0,0.63113 0,0.94669c-0.595,-0.95742 -1.01187,-2.00919 -1.25,-3.15564c-0.10782,-2.55355 -0.42032,-5.07807 -0.9375,-7.57357c-0.40342,0.0748 -0.71592,-0.03028 -0.9375,-0.31556c3.25063,0.07638 6.47967,-0.13411 9.6875,-0.63112z" fill="#151214" opacity="0.888"/><path d="M221.09375,176.52879c-0.12406,0.32345 -0.33219,0.37615 -0.625,0.15778c0.18562,-0.14642 0.39406,-0.19912 0.625,-0.15778z" fill="#3c00b3" opacity="0.004"/><path d="M226.71875,176.52879c0.55874,-0.08995 1.07968,0.01515 1.5625,0.31557c-0.35875,0.52036 -0.77531,0.99371 -1.25,1.42003c-3.20218,1.86405 -6.32718,3.86283 -9.375,5.99573c-0.94719,1.01928 -1.78031,2.12376 -2.5,3.31343c-0.47063,0.39352 -0.93938,0.39352 -1.40625,0c-0.20844,-0.63112 -0.20844,-1.26225 0,-1.89338c1.63688,-2.06253 3.56375,-3.79814 5.78125,-5.20682c2.36407,-1.40647 4.76,-2.72143 7.1875,-3.94457z" fill="#8f58ad"/><path d="M248.90625,172.42644c1.56593,1.53018 2.97218,3.2134 4.21875,5.04905c0.20844,1.26226 0.20844,2.52452 0,3.78678c-0.29219,0.97667 -0.86531,1.71321 -1.71875,2.20896c-0.45844,0.12433 -0.92719,0.22941 -1.40625,0.31556c-1.815,-0.36006 -3.01281,-1.41215 -3.59375,-3.15565c0.625,0.78009 1.35406,1.4636 2.1875,2.05118c0.89563,0.45978 1.83313,0.56486 2.8125,0.31556c1.61062,-1.68638 1.97501,-3.63247 1.09375,-5.83795c-0.82189,-1.14613 -1.75939,-2.1979 -2.8125,-3.15564c-0.34187,-0.49796 -0.60251,-1.02401 -0.78125,-1.57783z" fill="#271725" opacity="0.925"/><path d="M231.40625,185.36461c0.98594,0.15273 1.715,0.67878 2.1875,1.57782c-0.73749,0.74253 -1.57094,1.37365 -2.5,1.89338c-0.24156,-0.98803 0.17532,-1.67185 1.25,-2.05117c-0.51281,-0.35627 -0.82531,-0.82961 -0.9375,-1.42004z" fill="#1b131f"/><path d="M275.78125,186.62687c0.41656,0.21048 0.41656,0.21048 0,0z" fill="#000000" opacity="0.004"/><path d="M275.78125,186.94243c-0.515,1.00066 -1.24406,1.26353 -2.1875,0.78893c0.70094,-0.35849 1.43,-0.62168 2.1875,-0.78893z" fill="#0a030b" opacity="0.031"/><path d="M206.71875,190.41366c1.62094,1.29286 3.18344,2.66019 4.6875,4.10233c0.08375,0.5046 -0.02063,0.92524 -0.3125,1.26227c-3.18875,-1.2752 -5.89687,-3.2213 -8.125,-5.83797c-0.75718,-0.1098 -1.06968,0.25813 -0.9375,1.10448c0.65781,3.01364 2.11625,5.53817 4.375,7.57356c-4.02187,-2.54818 -5.74062,-6.22988 -5.15625,-11.04477c0.06125,-0.5636 0.32156,-0.98424 0.78125,-1.26226c1.17156,1.65829 2.52562,3.18342 4.0625,4.5757c0.41126,0.16663 0.61969,0.00883 0.625,-0.47334z" fill="#7c38a0" opacity="0.959"/><path d="M261.71875,200.51174c-0.30031,0.55697 -0.4047,1.1881 -0.3125,1.89337c-0.29718,0.4478 -0.40125,0.97354 -0.3125,1.57784c-0.29187,0.33702 -0.39625,0.75768 -0.3125,1.26227c-0.29187,0.33702 -0.39625,0.75767 -0.3125,1.26225c-0.2825,0.22375 -0.38657,0.53931 -0.3125,0.94669c-0.26187,0.10794 -0.36624,0.3181 -0.3125,0.63114c-0.26187,0.10794 -0.36624,0.3181 -0.3125,0.63114c-0.26187,0.10792 -0.36624,0.31808 -0.3125,0.63114c-0.26187,0.10791 -0.36624,0.31808 -0.3125,0.63113c-0.26187,0.10791 -0.36624,0.31808 -0.3125,0.63114c-0.26187,0.10791 -0.36624,0.31808 -0.3125,0.63111c-0.99156,1.57498 -2.1375,3.04743 -3.4375,4.41791c-0.70281,0.18302 -1.22343,0.60368 -1.5625,1.26226c-0.31,-0.05427 -0.51812,0.05112 -0.625,0.31556c-0.51657,0.05049 -0.93312,0.26065 -1.25,0.63113c-0.31125,-0.02713 -0.57156,0.07826 -0.78125,0.31557c0.11844,1.14298 -0.35031,1.8268 -1.40625,2.05118c0.38344,0.5008 0.27937,0.92177 -0.3125,1.26226c-0.52094,0.10509 -1.04156,0.21047 -1.5625,0.31556c0.30532,0.8211 0.67,1.61001 1.09375,2.36674c0.65562,0.0164 1.3325,-0.08901 2.03125,-0.31557c1.07251,0.4926 2.21845,0.75547 3.4375,0.7889c0.66906,0.41278 1.29406,0.88612 1.875,1.42005c0.39625,1.90318 -0.12437,3.53338 -1.5625,4.89126c-1.29563,1.15339 -2.80594,1.83722 -4.53125,2.05118c-2.23281,-0.60306 -4.47251,-1.1818 -6.71875,-1.73561c-0.51343,-1.14866 -0.305,-2.14806 0.625,-2.99787c-0.02249,-1.03286 -0.12655,-2.18971 -0.3125,-3.47122c0.19063,-0.28117 0.29469,-0.59674 0.3125,-0.9467c0.22562,0.13191 0.38187,0.34207 0.46875,0.63112c0.10406,1.26227 0.20844,2.52452 0.3125,3.78679c0.33657,1.45632 1.22188,1.92968 2.65625,1.42003c0.60656,-0.77438 1.33594,-1.35281 2.1875,-1.73559c-0.61782,0.7302 -1.24282,1.46643 -1.875,2.20896c0.25781,0.27958 0.57031,0.38466 0.9375,0.31556c-0.04094,-0.90474 0.37595,-1.43046 1.25,-1.57783c-0.30501,0.41498 -0.61751,0.83562 -0.9375,1.26227c0.15625,0.10508 0.3125,0.21048 0.46875,0.31556c0.72906,-0.42065 1.45844,-0.42065 2.1875,0c0.61907,-0.3629 1.19188,-0.78386 1.71875,-1.26226c-0.11219,0.59042 -0.42469,1.06377 -0.9375,1.42004c-1.41844,0.07984 -2.82469,0.23761 -4.21875,0.47334c-1.49687,-0.26602 -2.79875,-0.89714 -3.90625,-1.89338c-0.55719,0.4806 -0.76532,1.11174 -0.625,1.89338c2.05844,0.19155 4.08969,0.50711 6.09375,0.94669c3.74312,-0.0994 5.72218,-1.99278 5.9375,-5.68016c-0.26187,-0.47302 -0.52219,-0.5781 -0.78125,-0.31556c-0.40094,-1.0969 -1.13031,-1.41248 -2.1875,-0.9467c-0.41656,0 -0.625,0.21049 -0.625,0.63114c0,0.10508 0,0.21048 0,0.31556c-0.19564,-0.6709 -0.6122,-1.19694 -1.25,-1.57783c-0.10406,0.10509 -0.20844,0.21049 -0.3125,0.31557c0.45313,0.426 0.66156,0.95174 0.625,1.57782c-0.3425,-0.50583 -0.75937,-0.9792 -1.25,-1.42005c-1.65437,0.06565 -2.38344,-0.72326 -2.1875,-2.36674c-1.24344,-0.35501 -2.49344,-0.35501 -3.75,0c0.41656,-0.21048 0.83344,-0.42065 1.25,-0.63113c0.20344,-0.1865 0.41188,-0.39666 0.625,-0.63112c0.90249,0.93471 1.31906,0.72422 1.25,-0.63114c0.4875,0.006 0.95625,0.11109 1.40625,0.31557c0.15625,-0.10509 0.3125,-0.21049 0.46875,-0.31557c-0.41656,-0.52605 -0.83344,-1.05178 -1.25,-1.57782c0.70094,-0.30736 1.42999,-0.41277 2.1875,-0.31556c-0.03656,-0.62609 0.17188,-1.15181 0.625,-1.57783c3.54062,-1.18589 6.09282,-3.49993 7.65625,-6.94243c2.58969,-5.68838 3.78751,-11.68411 3.59375,-17.98721c0.81,-0.88799 0.81,-1.78199 0,-2.6823c0.10406,-0.15778 0.20844,-0.31557 0.3125,-0.47335c0.20844,0.21048 0.41656,0.42066 0.625,0.63114c0.23406,-1.35789 0.18187,-2.72521 -0.15625,-4.10234c-1.03875,-0.69203 -0.98657,-1.11268 0.15625,-1.26226c-0.05937,-1.74034 -0.78874,-3.1077 -2.1875,-4.10235c0.41656,-0.10509 0.83344,-0.21049 1.25,-0.31556c-1.03686,-1.20482 -2.13061,-2.36201 -3.28125,-3.47122c-0.21499,-0.26255 -0.16281,-0.47272 0.15625,-0.63114c1.36,1.11048 2.55812,2.37274 3.59375,3.78679c-0.33406,1.12404 -0.02156,2.07073 0.9375,2.84008c0.23156,0.96626 0.17969,1.91296 -0.15625,2.84009c0.26468,0.96374 0.57718,1.91043 0.9375,2.84007c0.24406,-0.39035 0.55656,-0.70592 0.9375,-0.94669c0.31313,1.69552 1.25063,2.32665 2.8125,1.89338c-0.20844,-0.31556 -0.41656,-0.63112 -0.625,-0.9467c0.15625,-0.10507 0.3125,-0.21048 0.46875,-0.31556c0.52094,0.31556 1.04156,0.63114 1.5625,0.9467c0.24126,-0.04575 0.44969,-0.15084 0.625,-0.31556c-0.26157,-0.54845 -0.62625,-1.07418 -1.09375,-1.57782c1.17906,-0.02366 2.42906,-0.18144 3.75,-0.47334c2.07374,-0.94134 4.15718,-1.88802 6.25,-2.84009c0.80313,-0.65228 1.42813,-1.44118 1.875,-2.36674c-0.32126,-0.58727 -0.79001,-1.00823 -1.40625,-1.26226c-0.11688,-0.28905 -0.27313,-0.55224 -0.46875,-0.78891c0.77376,0.23573 1.50282,0.65669 2.1875,1.26226c0.29625,0.15241 0.60875,0.2048 0.9375,0.15777c2.15936,0.6305 4.13843,0.20954 5.9375,-1.26225c1.6678,-1.00066 2.96968,-2.36801 3.90625,-4.10235c0.48593,-4.76945 -1.33688,-5.97902 -5.46875,-3.62899c-1.045,1.00476 -1.40969,2.21463 -1.09375,3.62899c1.27501,1.45096 2.68126,1.60875 4.21875,0.47335c-0.15625,-0.05271 -0.3125,-0.10509 -0.46875,-0.15779c-0.58814,0.34901 -1.16125,0.34901 -1.71875,0c1.56219,-0.12055 2.86406,-0.75167 3.90625,-1.89339c-0.96094,2.98303 -2.88813,3.87734 -5.78125,2.6823c-0.44406,-0.97604 -1.12092,-1.65987 -2.03125,-2.05117c-1.68655,0.33292 -2.93655,1.27961 -3.75,2.84008c0.04813,-1.19441 0.62094,-2.0884 1.71875,-2.6823c-1.04156,-0.10509 -2.08344,-0.21049 -3.125,-0.31556c-0.83094,-0.71192 -1.66437,-1.39575 -2.5,-2.05117c0.20844,-0.10509 0.41656,-0.21049 0.625,-0.31557c-0.35782,-0.43894 -0.35782,-0.8596 0,-1.26226c0.67532,2.93885 2.44626,3.93793 5.3125,2.99786c0.32938,-0.43801 0.38124,-0.91134 0.15625,-1.42003c-0.32655,-0.27549 -0.58687,-0.59106 -0.78125,-0.94671c-0.31124,-0.02714 -0.57155,0.07826 -0.78125,0.31557c-0.28688,-1.24239 -0.65157,-2.45195 -1.09375,-3.629c-2.57469,0.34144 -3.92874,1.86656 -4.0625,4.57569c0.01313,0.87065 0.16938,1.71195 0.46875,2.52453c1.86001,2.76372 1.70376,2.8688 -0.46875,0.31556c-1.87813,2.20896 -4.16968,3.78678 -6.875,4.73347c-2.47625,0.2209 -2.47625,0.01074 0,-0.63112c-1.09874,-0.25025 -2.14062,-0.56581 -3.125,-0.9467c0.52469,0.06785 0.83719,-0.14264 0.9375,-0.63113c0.82157,0.46956 1.7072,0.78512 2.65625,0.9467c2.45875,-0.89968 4.49,-2.42481 6.09375,-4.57569c-0.79469,-3.96981 0.76781,-6.38924 4.6875,-7.258c1.67876,-2.53272 3.97062,-3.47941 6.875,-2.84008c1.16625,1.26889 2.46843,2.37336 3.90625,3.31344c0.61376,0.74251 0.77001,1.53143 0.46875,2.36673c2.57219,2.30552 2.83281,4.88242 0.78125,7.73134c-2.55156,2.83977 -5.72875,4.25981 -9.53125,4.26013c-1.10314,1.87634 -2.66564,3.24369 -4.6875,4.10234c-1.95844,1.06282 -4.04187,1.64125 -6.25,1.7356c-0.03469,1.67124 -0.81594,2.30237 -2.34375,1.89339c-1.06906,1.21398 -2.21499,1.21398 -3.4375,0c-1.77094,0.5292 -1.71875,0.79209 0.15625,0.78891c0.20844,0.31556 0.41656,0.63113 0.625,0.94668c-0.73625,-0.00093 -1.46531,-0.1587 -2.1875,-0.47332c-1.08594,3.15786 -1.60688,6.41858 -1.5625,9.78251z" fill="#150d16" opacity="0.979"/><path d="M287.34375,179.36888c-1.79907,1.47179 -3.77814,1.89275 -5.9375,1.26225c0.83969,0.05176 1.67313,-0.00094 2.5,-0.15777c-0.92095,-0.03535 -1.33751,-0.5087 -1.25,-1.42005c1.54875,-0.12402 2.955,-0.64974 4.21875,-1.57782c0.46875,0.05271 0.72906,0.31556 0.78125,0.78891c-0.15281,0.35912 -0.25688,0.72738 -0.3125,1.10449z" fill="#8c55aa"/><path d="M268.28125,177.15991c0.32875,-0.04701 0.64125,0.00537 0.9375,0.15778c-0.245,0.94606 -0.76593,1.20894 -1.5625,0.78892c0.21656,-0.32125 0.42469,-0.63682 0.625,-0.94671z" fill="#120513" opacity="0.007"/><path d="M280.46875,171.16418c0.19438,0.35565 0.4547,0.67122 0.78125,0.94671c0.22499,0.50869 0.17313,0.98203 -0.15625,1.42003c-2.86626,0.94007 -4.63719,-0.05901 -5.3125,-2.99786c-0.35782,0.40266 -0.35782,0.82332 0,1.26226c-0.20844,0.10509 -0.41656,0.21049 -0.625,0.31557c0.83563,0.65542 1.66906,1.33925 2.5,2.05117c1.04156,0.10508 2.08344,0.21048 3.125,0.31556c-1.09781,0.5939 -1.67062,1.48789 -1.71875,2.6823c0.81345,-1.56047 2.06345,-2.50716 3.75,-2.84008c0.91033,0.3913 1.58718,1.07513 2.03125,2.05117c2.89312,1.19504 4.82031,0.30073 5.78125,-2.6823c-1.04219,1.14172 -2.34406,1.77284 -3.90625,1.89339c0.5575,0.34901 1.13061,0.34901 1.71875,0c0.15625,0.05269 0.3125,0.10508 0.46875,0.15779c-1.53749,1.1354 -2.94374,0.97761 -4.21875,-0.47335c-0.31594,-1.41436 0.04875,-2.62423 1.09375,-3.62899c4.13187,-2.35003 5.95468,-1.14047 5.46875,3.62899c-0.93657,1.73434 -2.23845,3.10169 -3.90625,4.10235c0.05562,-0.37711 0.15969,-0.74537 0.3125,-1.10449c-0.05219,-0.47334 -0.3125,-0.7362 -0.78125,-0.78891c-1.26375,0.92808 -2.67,1.45381 -4.21875,1.57782c-0.08751,0.91135 0.32905,1.3847 1.25,1.42005c-0.82687,0.15683 -1.66031,0.20953 -2.5,0.15777c-0.32875,0.04703 -0.64125,-0.00536 -0.9375,-0.15777c-0.68468,-0.60557 -1.41374,-1.02653 -2.1875,-1.26226c0.19562,0.23667 0.35187,0.49985 0.46875,0.78891c0.61624,0.25403 1.08499,0.67499 1.40625,1.26226c-0.44687,0.92556 -1.07187,1.71446 -1.875,2.36674c-2.09282,0.95207 -4.17626,1.89875 -6.25,2.84009c-1.32094,0.2919 -2.57094,0.44968 -3.75,0.47334c-0.19281,0.03503 -0.34906,0.14011 -0.46875,0.31556c-0.53875,-1.01927 -1.16375,-1.12467 -1.875,-0.31556c-0.40875,-0.67562 -0.8775,-1.30676 -1.40625,-1.89339c0.10406,-0.10509 0.20844,-0.21049 0.3125,-0.31556c0.87313,0.82047 1.75844,0.82047 2.65625,0c0.11156,-1.26541 0.05937,-2.52767 -0.15625,-3.78678c-0.53094,0.05049 -1.05188,-0.0019 -1.5625,-0.15779c0.735,-0.07573 1.36,-0.3386 1.875,-0.78891c2.70532,-0.9467 4.99687,-2.52452 6.875,-4.73347c2.1725,2.55324 2.32875,2.44816 0.46875,-0.31556c-0.29937,-0.81258 -0.45562,-1.65387 -0.46875,-2.52453c0.13376,-2.70913 1.48781,-4.23425 4.0625,-4.57569c0.44218,1.17705 0.80687,2.38662 1.09375,3.629c0.20968,-0.23731 0.47,-0.34271 0.78125,-0.31557z" fill="#853dad"/><path d="M275.46875,181.57783c0.63342,-0.05113 1.25842,0.00158 1.875,0.15779c0.14281,0.13064 0.24719,0.28842 0.3125,0.47334c-2.49719,2.55892 -5.51812,3.61069 -9.0625,3.15565c2.04718,-1.02496 4.13031,-2.02435 6.25,-2.99787c0.2753,-0.22342 0.48343,-0.4866 0.625,-0.78891z" fill="#8f58ad"/><path d="M281.09375,171.16418c-0.20844,0 -0.41656,0 -0.625,0c-0.4547,-1.01297 -0.87126,-2.06473 -1.25,-3.15564c1.22313,-2.76687 3.30626,-3.97675 6.25,-3.629c0.65843,0.39888 0.97093,0.97731 0.9375,1.73562c-2.97281,0.37172 -4.74344,2.05463 -5.3125,5.04903z" fill="#8541ab"/><path d="M281.09375,171.16418c0.885,-2.57596 2.65594,-4.15378 5.3125,-4.73347c2.13624,0.15842 3.17811,1.3156 3.125,3.47121c-1.39563,-0.10855 -2.64563,0.25972 -3.75,1.10449c-0.89688,0.92302 -1.67813,1.92241 -2.34375,2.99786c-0.40155,-0.14201 -0.76626,-0.35249 -1.09375,-0.63112c-0.18905,-0.88263 -0.60562,-1.61886 -1.25,-2.20897z" fill="#863fad"/><path d="M265.78125,191.36035c0.66499,-0.35628 1.39406,-0.40896 2.1875,-0.1578c-0.71438,0.52511 -1.44344,0.5775 -2.1875,0.1578z" fill="#9afeb1" opacity="0.004"/><path d="M232.03125,177.79105c-0.01782,0.34996 -0.12188,0.66553 -0.3125,0.9467c-2.44875,3.1061 -5.36563,5.63063 -8.75,7.57356c-0.84751,0.17261 -1.31626,0.69835 -1.40625,1.57782c-0.25875,1.48378 -0.20687,2.95652 0.15625,4.41791c3.54874,-1.15464 5.63219,0.10762 6.25,3.78679c-0.13469,0.90439 -0.44719,1.7457 -0.9375,2.52451c0.09625,0.255 0.2525,0.46545 0.46875,0.63114c0.20844,1.47274 0.20844,2.94518 0,4.41791c-0.19531,1.66965 -1.08094,2.77413 -2.65625,3.31345c-0.85188,0.05742 -1.68531,0.21521 -2.5,0.47333c-0.63156,0.84823 -1.36062,1.58446 -2.1875,2.20897c-4.77344,0.64281 -7.79438,-1.35599 -9.0625,-5.99574c-0.05187,-2.10638 0,-4.21026 0.15625,-6.3113c0.05375,2.05528 0.21,4.05405 0.46875,5.99573c0.45562,2.61383 1.91406,4.24403 4.375,4.89127c-0.68813,-0.90946 -1.05281,-1.90886 -1.09375,-2.99787c0.50094,0.98202 1.07406,1.92873 1.71875,2.84007c2.025,1.86784 3.69156,1.55228 5,-0.94669c-1.435,-0.65385 -2.3203,-1.70595 -2.65625,-3.15565c0.9025,1.69175 2.30875,2.53336 4.21875,2.52452c1.83375,0.09562 3.03188,-0.74568 3.59375,-2.52452c0.20844,-1.47273 0.20844,-2.94516 0,-4.41791c-0.55312,-0.60525 -1.23031,-0.76304 -2.03125,-0.47334c0.3125,0.31555 0.625,0.63112 0.9375,0.94669c-0.38688,-0.0243 -0.69938,0.02808 -0.9375,0.15779c0.18406,0.876 0.60063,1.61252 1.25,2.20894c-0.69313,0.21712 -1.16188,-0.09845 -1.40625,-0.94669c-0.66281,-1.72992 -1.07937,-3.51824 -1.25,-5.3646c-0.14531,-0.45158 -0.40593,-0.81951 -0.78125,-1.10448c0.20844,-0.21048 0.41656,-0.21048 0.625,0c0.66031,1.00129 0.97281,2.10577 0.9375,3.31343c0.81843,0.08458 1.59968,-0.0205 2.34375,-0.31556c1.07376,-2.34337 0.50063,-4.079 -1.71875,-5.20681c-1.4703,-0.05114 -2.92875,0.10666 -4.375,0.47333c-1.64562,-0.22058 -1.64562,-0.43106 0,-0.63112c0.02156,-1.68954 0.12563,-3.37245 0.3125,-5.04905c-0.62,-0.03692 -1.14062,0.17357 -1.5625,0.63112c-0.34187,-0.43168 -0.2375,-0.79995 0.3125,-1.10447c3.52749,-1.35251 6.65249,-3.35099 9.375,-5.99573c0.91,-1.28592 1.95188,-2.39041 3.125,-3.31343z" fill="#180d1b" opacity="0.978"/><path d="M222.96875,186.3113c-0.44876,3.13862 0.90531,4.76913 4.0625,4.89124c0.46875,0.894 1.14594,1.57786 2.03125,2.05118c0.14719,0.551 0.35562,1.07703 0.625,1.57783c-0.0025,1.8533 0.04937,3.69402 0.15625,5.52239c-0.21812,2.55545 -1.05156,4.86949 -2.5,6.94243c-1.55532,0.57496 -3.01344,1.31117 -4.375,2.20896c-0.97593,0.42633 -1.91343,0.47903 -2.8125,0.15778c0.82688,-0.62451 1.55594,-1.36074 2.1875,-2.20897c0.81468,-0.25812 1.64811,-0.41591 2.5,-0.47333c1.57531,-0.53931 2.46094,-1.6438 2.65625,-3.31345c0.20844,-1.47273 0.20844,-2.94517 0,-4.41791c-0.21625,-0.16568 -0.3725,-0.37614 -0.46875,-0.63114c0.49031,-0.77881 0.80281,-1.62011 0.9375,-2.52451c-0.61782,-3.67917 -2.70126,-4.94143 -6.25,-3.78679c-0.36312,-1.46139 -0.415,-2.93413 -0.15625,-4.41791c0.08999,-0.87947 0.55874,-1.40521 1.40625,-1.57782z" fill="#7f3ea2"/><path d="M211.09375,197.04051c0.20844,0 0.41656,0 0.625,0c0,2.10387 0,4.20744 0,6.3113c-0.25875,-1.94168 -0.415,-3.94044 -0.46875,-5.99573c-0.15625,2.10103 -0.20812,4.20491 -0.15625,6.3113c-0.41656,-2.20896 -0.41656,-4.41791 0,-6.62687z" fill="#3d2149" opacity="0.973"/><path d="M206.40625,198.61833c1.23281,0.72896 2.48281,1.46517 3.75,2.20897c0.31906,0.15841 0.37124,0.36858 0.15625,0.63112c-2.10313,-0.63933 -4.18656,-1.37555 -6.25,-2.20896c-0.88282,0.14926 -0.98687,0.56991 -0.3125,1.26227c2.12124,1.88172 4.36093,3.56493 6.71875,5.04904c-2.87032,-0.45567 -5.31813,-1.71794 -7.34375,-3.78678c-1.10219,-1.91801 -1.31062,-3.91678 -0.625,-5.99573c1.065,1.6542 2.47125,2.91645 4.21875,3.78678c0.10406,-0.05271 0.20844,-0.10509 0.3125,-0.15779c-0.27532,-0.22341 -0.48343,-0.48659 -0.625,-0.78891z" fill="#7c38a1" opacity="0.957"/><path d="M265.46875,177.79105c-0.10031,0.4885 -0.41281,0.69898 -0.9375,0.63113c-3.06531,-1.20609 -5.30469,-3.30996 -6.71875,-6.3113c-0.10406,-4.31283 -0.20844,-8.62535 -0.3125,-12.93817c-1.44313,1.75233 -3.26593,2.33077 -5.46875,1.73561c1.47468,-0.35376 2.93312,-0.7744 4.375,-1.26227c0.41656,-0.52605 0.83344,-1.05178 1.25,-1.57783c-1.72751,0.09562 -3.44626,0.35881 -5.15625,0.78893c-0.36469,-0.10509 -0.72906,-0.21048 -1.09375,-0.31556c2.22593,-0.2919 4.41343,-0.76525 6.5625,-1.42005c0.37094,-0.32155 0.68344,-0.68983 0.9375,-1.10448c-2.77188,1.32286 -5.79251,1.7962 -9.0625,1.42004c-1.69751,-0.31997 -3.36408,-0.63555 -5,-0.94669c0.27532,0.22342 0.48343,0.4866 0.625,0.78891c-0.47406,-0.00347 -0.83874,-0.21365 -1.09375,-0.63113c-1.735,3.848 -4.59968,5.16263 -8.59375,3.94456c1.30874,-0.05553 2.55874,-0.21331 3.75,-0.47335c1.70437,-0.071 2.95437,-0.8599 3.75,-2.36674c-1.32281,0.21238 -2.67719,0.37016 -4.0625,0.47334c1.19531,-0.42348 2.44531,-0.79174 3.75,-1.10447c0.66093,-0.1338 0.92125,-0.50207 0.78125,-1.10448c-1.97468,1.14614 -4.11,1.67218 -6.40625,1.57782c-2.10375,-0.0912 -4.18718,-0.35406 -6.25,-0.78891c-1.33969,-0.25561 -2.48562,-0.83404 -3.4375,-1.73561c1.27374,0.67405 2.62813,1.09502 4.0625,1.26227c3.89157,1.40268 7.74563,1.2449 11.5625,-0.47335c1.09688,-0.60177 1.46124,-1.49577 1.09375,-2.68231c-1.39282,-1.70815 -3.11157,-2.44468 -5.15625,-2.20896c-0.39281,-0.35437 -0.28876,-0.56455 0.3125,-0.63112c1.94531,0.00948 3.55967,0.74569 4.84375,2.20896c-0.00906,-4.00989 -1.93595,-6.58711 -5.78125,-7.73135c-4.00219,-0.68287 -7.75219,-0.05175 -11.25,1.89339c-0.27532,0.22342 -0.48343,0.48659 -0.625,0.78891c-0.27375,0.04134 -0.48218,-0.06374 -0.625,-0.31557c1.48781,-1.4882 3.25875,-2.48729 5.3125,-2.99786c4.71812,-1.09786 8.78062,0.00662 12.1875,3.31343c0.55563,1.20766 1.02438,2.46991 1.40625,3.78678c0.32657,-0.27549 0.58687,-0.59105 0.78125,-0.9467c0.625,-0.21048 1.25,-0.42065 1.875,-0.63113c0.31,-0.05427 0.51812,0.05112 0.625,0.31557c-1.62563,0.16599 -2.66719,0.9022 -3.125,2.20896c1.65625,-1.29351 3.53125,-1.81955 5.625,-1.57783c-0.71282,0.26476 -1.44218,0.58033 -2.1875,0.9467c-0.29031,0.3752 -0.39438,0.79585 -0.3125,1.26225c-0.29187,-0.33702 -0.39625,-0.75767 -0.3125,-1.26225c-1.07406,0.20006 -2.06375,0.6207 -2.96875,1.26225c0.31282,0.8514 0.15657,1.64031 -0.46875,2.36674c1.7375,0.96974 3.6125,1.49579 5.625,1.57783c1.72374,0.25783 3.39063,0.20543 5,-0.15778c2.15999,-0.02873 3.3578,-1.08082 3.59375,-3.15566c-0.52094,-0.38908 -0.98969,-0.81004 -1.40625,-1.26225c0.8422,0.13664 1.51938,0.55728 2.03125,1.26225c0.02626,-3.24873 -1.48406,-5.51039 -4.53125,-6.78463c-2.27657,-0.44622 -4.56813,-0.55129 -6.875,-0.31557c-0.90875,0.21742 -1.74219,0.58537 -2.5,1.10448c-0.24937,-0.14422 -0.35344,-0.3547 -0.3125,-0.63113c0.10406,0 0.20844,0 0.3125,0c3.395,-1.49009 6.8325,-1.64788 10.3125,-0.47335c-3.24782,-5.0604 -7.83125,-8.11065 -13.75,-9.15138c-9.75657,-1.46934 -16.37125,2.36988 -19.84375,11.51811c-0.59157,5.49337 -0.38314,10.96305 0.625,16.40938c0.77844,3.56085 1.45562,7.13715 2.03125,10.72922c0.99719,-0.18681 1.93469,-0.55508 2.8125,-1.10448c1.55312,-0.34112 3.11562,-0.4462 4.6875,-0.31556c0.4075,0.25371 0.61594,0.62197 0.625,1.10448c-0.08156,0.88106 -0.39406,1.61728 -0.9375,2.20896c0.20594,-0.93249 0.31,-1.87919 0.3125,-2.84008c-1.25438,-0.05238 -2.50438,0.00032 -3.75,0.15778c-5.01343,1.95209 -9.59687,4.63439 -13.75,8.0469c-0.31438,-0.13822 -0.31438,-0.34838 0,-0.63112c-1.41531,-0.44968 -2.7172,-0.2392 -3.90625,0.63112c-0.18469,0.3102 -0.08031,0.52069 0.3125,0.63114c0.58812,-0.34902 1.16125,-0.34902 1.71875,0c-1.29188,0.50774 -2.38563,1.34903 -3.28125,2.52452c-0.20844,0.52605 -0.20844,1.05177 0,1.57782c0.44343,-0.57937 0.80812,-1.2105 1.09375,-1.89338c0.3125,-0.42065 0.625,-0.42065 0.9375,0c-0.85813,1.04926 -1.17063,2.20643 -0.9375,3.47122c0.78843,-1.13981 1.51749,-2.29668 2.1875,-3.47122c0.10406,0.10509 0.20844,0.21048 0.3125,0.31556c-0.69187,1.61506 -1.21282,3.29797 -1.5625,5.04905c0.10406,0.21048 0.20844,0.42063 0.3125,0.63112c0.52094,-0.31556 0.9375,-0.73621 1.25,-1.26225c0.10406,0.10507 0.20844,0.21046 0.3125,0.31555c-1.25,1.81576 -1.875,3.81424 -1.875,5.99573c-0.20844,0 -0.41656,0 -0.625,0c0,-0.42063 0,-0.84161 0,-1.26225c0.29187,-0.33703 0.39625,-0.75767 0.3125,-1.26227c0.30344,-0.7643 0.56405,-1.50082 0.78125,-2.20896c-0.20844,0.21049 -0.41656,0.42066 -0.625,0.63112c-0.23501,-1.07103 -0.18281,-2.1228 0.15625,-3.15564c-0.05219,-0.10509 -0.10406,-0.21048 -0.15625,-0.31556c-1.21312,0.97415 -1.78626,0.65858 -1.71875,-0.9467c-0.3125,0 -0.625,0 -0.9375,0c-0.21656,-1.3421 0.09594,-2.49896 0.9375,-3.47122c0.37344,-0.1155 0.58156,-0.37837 0.625,-0.78892c-0.12595,-0.8334 -0.43845,-1.56962 -0.9375,-2.20895c-1.8575,-1.13951 -3.62843,-2.40176 -5.3125,-3.78678c-1.08219,-0.32661 -1.9675,-0.06374 -2.65625,0.78892c-0.53188,4.86791 1.18687,8.65469 5.15625,11.36035c-0.00531,0.48217 -0.21374,0.63996 -0.625,0.47334c-1.53688,-1.39228 -2.89094,-2.91741 -4.0625,-4.5757c-0.4597,0.27802 -0.72,0.69866 -0.78125,1.26226c-0.58437,4.81489 1.13438,8.49659 5.15625,11.04477c0.14157,0.30232 0.34968,0.56551 0.625,0.78891c-0.10406,0.05271 -0.20844,0.10509 -0.3125,0.15779c-1.7475,-0.87033 -3.15375,-2.13258 -4.21875,-3.78678c-0.68562,2.07895 -0.47719,4.07771 0.625,5.99573c2.02562,2.06885 4.47343,3.33112 7.34375,3.78678c0.00938,0.31462 -0.14687,0.5251 -0.46875,0.63112c-1.34656,-0.33197 -2.59656,-0.85802 -3.75,-1.57781c-0.05219,0.10508 -0.10406,0.21045 -0.15625,0.31556c1.07187,1.29255 2.2175,2.44973 3.4375,3.47121c-0.65968,2.37622 -0.24313,4.58516 1.25,6.62687c-0.29406,0.71696 -0.71062,1.34809 -1.25,1.89339c0.27532,0.4642 0.69187,0.72705 1.25,0.78891c-0.26156,0.31903 -0.36563,0.6873 -0.3125,1.10449c0.69437,0.1016 1.2675,-0.10888 1.71875,-0.63114c0.06843,1.59771 0.69343,1.91327 1.875,0.9467c0.41562,1.10668 1.19687,1.63242 2.34375,1.57782c-0.00531,-0.65164 -0.10937,-1.28277 -0.3125,-1.89338c-0.02032,-0.13822 0.03157,-0.24363 0.15625,-0.31557c0.31094,0.17861 0.57125,0.3891 0.78125,0.63114c0.24624,1.32852 -0.27469,2.17014 -1.5625,2.52452c-0.28125,0.76746 -0.48938,1.55637 -0.625,2.36673c0.52969,0.80029 1.1025,1.58919 1.71875,2.36674c0.27906,-0.38214 0.53938,-0.38214 0.78125,0c0.29874,0.49702 0.50718,1.02307 0.625,1.57783c-0.20844,0 -0.41656,0 -0.625,0c0.06843,-0.37078 -0.03563,-0.68635 -0.3125,-0.94671c-0.17845,1.86406 -0.80345,2.07452 -1.875,0.63114c0.45845,0.24993 0.87499,0.24993 1.25,0c-0.61656,-0.99087 -1.29376,-1.93757 -2.03125,-2.84008c-0.25406,-1.31402 -0.09781,-2.57627 0.46875,-3.78678c-0.39812,-0.9385 -1.02312,-1.14898 -1.875,-0.63114c-0.5725,-0.41685 -1.1975,-0.73242 -1.875,-0.94669c0.16781,1.49609 -0.14469,2.86343 -0.9375,4.10234c0.10406,0.21047 0.20844,0.42065 0.3125,0.63113c-1.3025,-0.11077 -2.03188,0.57274 -2.1875,2.05117c-0.03625,0.80281 0.22407,1.48663 0.78125,2.05118c0.20969,0.2373 0.47,0.3427 0.78125,0.31556c-0.10406,0.21047 -0.20844,0.42065 -0.3125,0.63114c-0.10406,0 -0.20844,0 -0.3125,0c-0.95126,-0.8208 -1.52407,-1.87256 -1.71875,-3.15565c-0.68875,1.69679 -0.11594,2.85396 1.71875,3.47122c0.10406,0.31555 0.3125,0.52605 0.625,0.63113c0.60718,0.93754 1.44031,1.56866 2.5,1.89337c0.6275,0.76589 1.46062,1.08145 2.5,0.94671c1.82656,0.04449 3.44125,-0.48156 4.84375,-1.57783c0.40562,-0.4563 0.45781,-0.87696 0.15625,-1.26225c0.05375,-0.31304 -0.05062,-0.52321 -0.3125,-0.63113c0,-0.21049 -0.10406,-0.31556 -0.3125,-0.31556c-0.10406,-0.31556 -0.3125,-0.52605 -0.625,-0.63114c-0.33032,-0.22278 -0.22625,-0.32788 0.3125,-0.31556c1.36094,0.60052 1.82969,1.65229 1.40625,3.15564c-2.89469,2.79655 -5.96781,3.05973 -9.21875,0.78892c-1.26094,-1.39668 -2.66719,-2.60657 -4.21875,-3.629c-0.81344,-0.89178 -0.91751,-1.83848 -0.3125,-2.84008c1.24406,-0.8877 2.33781,-1.93978 3.28125,-3.15566c0.30687,-0.76082 0.51531,-1.54973 0.625,-2.36673c-0.29843,-1.33957 -0.92343,-2.49643 -1.875,-3.47122c0.29782,-0.61693 0.71469,-1.14298 1.25,-1.57783c-1.18438,-2.20548 -1.80938,-4.57221 -1.875,-7.10021c-1.055,-1.01421 -1.94062,-2.17141 -2.65625,-3.4712c-3.57781,-2.21306 -4.67156,-5.31601 -3.28125,-9.30918c-1.71187,-2.63275 -2.07656,-5.42013 -1.09375,-8.36247c0.15625,-0.57843 0.52094,-0.9467 1.09375,-1.10448c-1.41188,-2.40303 -1.67219,-4.87484 -0.78125,-7.41577c0.43407,-0.54498 0.955,-0.96595 1.5625,-1.26227c0.79999,0.32504 1.58124,0.6933 2.34375,1.10448c1.74562,1.49925 3.62062,2.81421 5.625,3.94457c1.48937,-0.96784 2.99968,-1.07292 4.53125,-0.31557c2.61219,-2.39703 5.58094,-4.18502 8.90625,-5.3646c-1.77094,-7.4161 -2.8125,-14.93695 -3.125,-22.56289c-0.53657,-4.30493 0.50531,-8.1441 3.125,-11.51813c-0.82812,-0.99435 -1.71375,-1.94104 -2.65625,-2.84008c-1.3225,-1.65262 -1.58282,-3.4407 -0.78125,-5.36461c0.49249,-0.65545 1.11749,-1.12881 1.875,-1.42003c1.72469,-0.31536 3.39157,-0.15756 5,0.47334c0.80156,0.03169 1.635,-0.1261 2.5,-0.47334c0.7625,-7.17312 4.2,-8.75094 10.3125,-4.73349c0.87719,1.51545 1.97094,2.83031 3.28125,3.94457c1.06093,-0.70621 2.15468,-1.33733 3.28125,-1.89338c2.89938,0.4769 4.09751,2.26513 3.59375,5.36461c-0.6378,1.07888 -1.10655,2.23609 -1.40625,3.4712c3.14813,1.96944 5.59625,4.59905 7.34375,7.88914c2.22032,1.6444 3.36626,3.85335 3.4375,6.62685c-1.135,2.77729 -1.70781,5.67009 -1.71875,8.67804c-0.04687,3.07077 0.10938,6.27881 0.46875,9.62474c1.07718,2.24493 2.69188,3.98054 4.84375,5.20683c0.62124,0.296 1.24624,0.55917 1.875,0.78891z" fill="#171217" opacity="0.196"/><path d="M209.84375,185.04904c-0.84156,0.97225 -1.15406,2.12912 -0.9375,3.47122c0.3125,0 0.625,0 0.9375,0c-0.06751,1.60528 0.50563,1.92085 1.71875,0.9467c0.05219,0.10509 0.10406,0.21048 0.15625,0.31556c-0.33906,1.03284 -0.39126,2.08461 -0.15625,3.15564c0.20844,-0.21046 0.41656,-0.42064 0.625,-0.63112c-0.2172,0.70813 -0.47781,1.44466 -0.78125,2.20896c-1.50406,-1.44214 -3.06656,-2.80947 -4.6875,-4.10233c-1.40344,-2.20172 -2.80969,-4.41067 -4.21875,-6.62688c-0.4275,-1.02181 -0.53157,-2.0739 -0.3125,-3.15565c2.30281,1.92496 4.85501,3.39769 7.65625,4.41791z" fill="#905aad"/><path d="M214.21875,179.68444c0.32968,0.50869 0.17343,0.92934 -0.46875,1.26226c-0.15625,-0.10508 -0.3125,-0.21048 -0.46875,-0.31557c0.39687,-0.24866 0.70937,-0.56422 0.9375,-0.94669z" fill="#9d51c0" opacity="0.012"/><path d="M210.78125,180c0.39875,0.2796 0.39875,0.59517 0,0.9467c-0.33188,-0.2919 -0.33188,-0.60747 0,-0.9467z" fill="#6d19aa" opacity="0.012"/><path d="M217.03125,178.42218c1.53781,-0.11518 1.64219,0.20038 0.3125,0.9467c-0.27687,-0.26035 -0.38093,-0.57591 -0.3125,-0.9467z" fill="#9e57bf" opacity="0.043"/><path d="M216.09375,178.42218c0.32031,0.12528 0.3725,0.33544 0.15625,0.63113c-0.14499,-0.18744 -0.19719,-0.39792 -0.15625,-0.63113z" fill="#000000" opacity="0.004"/><path d="M209.84375,185.04904c-2.80124,-1.02023 -5.35344,-2.49295 -7.65625,-4.41791c-0.21907,1.08175 -0.115,2.13385 0.3125,3.15565c1.40906,2.21621 2.81531,4.42516 4.21875,6.62688c-3.96938,-2.70567 -5.68813,-6.49245 -5.15625,-11.36035c0.68875,-0.85266 1.57406,-1.11552 2.65625,-0.78892c1.68407,1.38503 3.455,2.64728 5.3125,3.78678c0.49905,0.63933 0.81155,1.37555 0.9375,2.20895c-0.04344,0.41055 -0.25156,0.67342 -0.625,0.78892z" fill="#7c38a0" opacity="0.96"/><path d="M241.71875,169.58635c0.41656,0 0.83344,0 1.25,0c0.10406,0 0.20844,0 0.3125,0c0.22158,0.28528 0.53408,0.39036 0.9375,0.31556c0.51718,2.4955 0.82968,5.02002 0.9375,7.57357c-0.29937,-0.14295 -0.56,-0.35311 -0.78125,-0.63112c-0.13093,-2.73974 -1.01625,-5.15918 -2.65625,-7.258z" fill="#743496" opacity="0.956"/><path d="M229.21875,162.95949c1.14594,1.09405 2.50032,1.88297 4.0625,2.36674c5.66375,2.04864 11.49717,2.67978 17.5,1.89338c0.38656,-0.07321 0.69906,-0.23099 0.9375,-0.47334c0.84937,-0.17135 1.68282,-0.38152 2.5,-0.63112c0.48375,-0.10129 0.69218,-0.41686 0.625,-0.94671c-2.42594,0.37616 -4.87375,0.58665 -7.34375,0.63114c-3.50593,-0.17325 -6.99532,-0.48881 -10.46875,-0.9467c-0.10406,0 -0.20844,0 -0.3125,0c-0.33562,-0.56296 -0.85625,-0.93123 -1.5625,-1.10447c0.62125,-0.05681 1.24625,-0.00442 1.875,0.15778c1.44281,0.31146 2.90124,0.52194 4.375,0.63113c4.6375,0.28623 9.325,0.33892 14.0625,0.15778c0.28843,0.64408 0.3925,1.32791 0.3125,2.05118c-4.41625,1.79525 -8.9997,2.37368 -13.75,1.73561c-4.36969,-0.8921 -8.53626,-2.31214 -12.5,-4.26013c-0.31,0.05427 -0.51812,-0.05112 -0.625,-0.31557c0.02687,-0.31431 -0.0775,-0.57716 -0.3125,-0.78891c0.18562,-0.14641 0.39406,-0.19912 0.625,-0.15778z" fill="#e98767"/><path d="M234.53125,167.37741c2.8725,0.60462 5.685,1.34114 8.4375,2.20895c-0.41656,0 -0.83344,0 -1.25,0c-2.48844,-0.46956 -4.88438,-1.20609 -7.1875,-2.20894z" fill="#2b1c1f" opacity="0.918"/><path d="M255.78125,166.74627c0.20844,0 0.41656,0 0.625,0c-0.44095,0.76176 -1.06595,1.28781 -1.875,1.57782c0.41656,-0.52605 0.83344,-1.05178 1.25,-1.57782z" fill="#1f1725" opacity="0.937"/><path d="M229.21875,162.95949c7.16656,3.16701 14.66656,4.42928 22.5,3.78678c-0.23844,0.24235 -0.55094,0.40013 -0.9375,0.47334c-6.00283,0.78639 -11.83625,0.15526 -17.5,-1.89338c-1.56218,-0.48377 -2.91656,-1.27268 -4.0625,-2.36674z" fill="#a24d3d" opacity="0.957"/><path d="M229.53125,164.22175c3.96374,1.94799 8.13031,3.36803 12.5,4.26013c4.7503,0.63807 9.33375,0.05964 13.75,-1.73561c-0.41656,0.52605 -0.83344,1.05178 -1.25,1.57782c-0.39999,0.45157 -0.92093,0.66206 -1.5625,0.63113c-3.20783,0.49702 -6.43687,0.7075 -9.6875,0.63112c-0.10406,0 -0.20844,0 -0.3125,0c-2.7525,-0.86781 -5.565,-1.60432 -8.4375,-2.20894c-1.77188,-0.894 -3.43843,-1.94579 -5,-3.15566z" fill="#a04d3c" opacity="0.959"/><path d="M236.71875,164.85288c0.10406,0 0.20844,0 0.3125,0c5.40437,1.67818 10.92531,1.99375 16.5625,0.9467c0.28624,0.01356 0.49469,0.11865 0.625,0.31557c-0.81718,0.24961 -1.65063,0.45978 -2.5,0.63112c-7.83344,0.6425 -15.33344,-0.61977 -22.5,-3.78678c-0.5,-0.36101 -1.02094,-0.72928 -1.5625,-1.10448c0.15625,-0.05269 0.3125,-0.10509 0.46875,-0.15778c2.72875,1.46328 5.59312,2.51538 8.59375,3.15565z" fill="#221a19" opacity="0.88"/><path d="M256.40625,166.4307c0,0.10509 0,0.21049 0,0.31557c-0.20844,0 -0.41656,0 -0.625,0c0.08,-0.72328 -0.02407,-1.4071 -0.3125,-2.05118c-4.7375,0.18114 -9.425,0.12844 -14.0625,-0.15778c4.81405,-0.03439 9.60562,-0.29727 14.375,-0.7889c0.56688,0.78292 0.77501,1.67722 0.625,2.6823z" fill="#9c4b39" opacity="0.957"/><path d="M252.34375,163.27506c1.25438,-0.05239 2.50438,0.00032 3.75,0.15778c0.68532,0.95868 0.78969,1.95775 0.3125,2.99786c0.15001,-1.00508 -0.05812,-1.89938 -0.625,-2.6823c-4.76938,0.49164 -9.56095,0.75451 -14.375,0.7889c-1.47375,-0.10918 -2.93218,-0.31966 -4.375,-0.63113c-3.46375,-1.43961 -6.95344,-2.80695 -10.46875,-4.10235c-0.36469,0.10509 -0.72906,0.21048 -1.09375,0.31557c0.51188,0.88484 1.0847,1.72646 1.71875,2.52453c0.45344,0.61976 1.02625,1.04041 1.71875,1.26225c0.10688,0.26445 0.315,0.36984 0.625,0.31557c1.56157,1.20987 3.22812,2.26165 5,3.15566c-1.065,-0.27361 -2.10688,-0.64157 -3.125,-1.10448c-2.61062,-1.26794 -4.74594,-3.10894 -6.40625,-5.52239c-0.26063,-1.04577 0.15593,-1.57184 1.25,-1.57783c4.58375,1.79052 9.21907,3.42103 13.90625,4.89126c3.43813,0.04987 6.87563,-0.05522 10.3125,-0.31556c0.69,-0.06027 1.315,-0.21805 1.875,-0.47335z" fill="#1c1518" opacity="0.882"/><path d="M237.03125,164.85288c3.47343,0.45789 6.96282,0.77345 10.46875,0.9467c2.47,-0.0445 4.91781,-0.25498 7.34375,-0.63114c0.06718,0.52985 -0.14125,0.84542 -0.625,0.94671c-0.13031,-0.19692 -0.33876,-0.30201 -0.625,-0.31557c-5.63719,1.04705 -11.15813,0.73148 -16.5625,-0.9467z" fill="#a95240" opacity="0.984"/><path d="M237.03125,163.90618c-0.62875,-0.16219 -1.25375,-0.21459 -1.875,-0.15778c0.70625,0.17324 1.22688,0.54151 1.5625,1.10447c-3.00063,-0.64028 -5.865,-1.69237 -8.59375,-3.15565c-0.15625,0.05269 -0.3125,0.10509 -0.46875,0.15778c0.54156,0.3752 1.0625,0.74347 1.5625,1.10448c-0.23094,-0.04134 -0.43938,0.01137 -0.625,0.15778c0.235,0.21176 0.33937,0.4746 0.3125,0.78891c-0.69251,-0.22184 -1.26532,-0.64249 -1.71875,-1.26225c-0.63406,-0.79807 -1.20688,-1.63969 -1.71875,-2.52453c0.36469,-0.10509 0.72906,-0.21048 1.09375,-0.31557c3.51531,1.2954 7.005,2.66274 10.46875,4.10235z" fill="#c66b52"/><path d="M244.84375,161.69723c1.08,0.32693 1.18437,0.85299 0.3125,1.57783c-0.60126,-0.4623 -0.70531,-0.98837 -0.3125,-1.57783z" fill="#19121d"/><path d="M246.71875,161.38167c1.04314,0.21867 1.19939,0.74472 0.46875,1.57782c-0.39656,-0.44336 -0.55281,-0.96909 -0.46875,-1.57782z" fill="#070409"/><path d="M239.53125,160.1194c-0.63344,0.05113 -1.25844,-0.00158 -1.875,-0.15779c1.13063,-0.04071 1.65157,-0.61913 1.5625,-1.73561c1.38531,-0.10318 2.73969,-0.26096 4.0625,-0.47334c-0.79563,1.50683 -2.04563,2.29574 -3.75,2.36674z" fill="#7e39a2" opacity="0.957"/><path d="M245.46875,157.27932c0.42906,-0.04954 0.84593,0.00315 1.25,0.15777c0.37876,0.34934 0.27469,0.50711 -0.3125,0.47336c-0.47719,0.02302 -0.78969,-0.18744 -0.9375,-0.63114z" fill="#2c1a34" opacity="0.929"/><path d="M226.71875,154.7548c0.27844,0.19248 0.59094,0.29757 0.9375,0.31556c0.95188,0.90158 2.09781,1.48001 3.4375,1.73561c2.06282,0.43484 4.14625,0.69771 6.25,0.78891c2.29625,0.09436 4.43157,-0.43168 6.40625,-1.57782c0.14,0.60241 -0.12032,0.97067 -0.78125,1.10448c-1.30469,0.31273 -2.55469,0.68099 -3.75,1.10447c-1.36844,-0.06563 -2.72281,0.03946 -4.0625,0.31558c-2.48126,-0.65828 -4.98126,-1.23671 -7.5,-1.73561c-0.33906,-0.6854 -0.75594,-1.31655 -1.25,-1.89339c0.07125,-0.12591 0.17563,-0.17829 0.3125,-0.15778z" fill="#7a3a9c" opacity="0.965"/><path d="M248.28125,153.49253c1.42063,2.1105 3.39999,2.89942 5.9375,2.36674c0.66719,-0.27643 1.08406,-0.74979 1.25,-1.42004c0.71844,-0.24962 1.34344,-0.03913 1.875,0.63113c-1.07968,0.52764 -2.12157,1.05367 -3.125,1.57783c-0.94313,0.05205 -1.88063,-0.00064 -2.8125,-0.15778c-1.74249,-0.26698 -3.40906,-0.79301 -5,-1.57783c-0.37843,-0.2818 -0.37843,-0.54467 0,-0.78891c0.63437,-0.21206 1.25937,-0.42223 1.875,-0.63114z" fill="#fbe1f7" opacity="0.999"/><path d="M233.28125,153.80811c2.06375,2.68577 4.35562,2.89624 6.875,0.63112c0.78906,0.17293 1.51844,0.4885 2.1875,0.94669c-1.00593,0.56613 -2.0475,1.03948 -3.125,1.42005c-2.50281,-0.02239 -5.00281,-0.18018 -7.5,-0.47334c-1.10562,-0.62135 -2.14719,-1.35788 -3.125,-2.20896c1.54875,-0.31368 3.11125,-0.41876 4.6875,-0.31556z" fill="#fbdef7" opacity="0.957"/><path d="M248.28125,152.8614c0,0.21048 0,0.42066 0,0.63112c-0.61563,0.20891 -1.24063,0.41908 -1.875,0.63114c-0.37843,0.24424 -0.37843,0.5071 0,0.78891c1.59094,0.78482 3.25751,1.31086 5,1.57783c0.93187,0.15714 1.86937,0.20984 2.8125,0.15778c0.3125,0 0.625,0 0.9375,0c-1.60937,0.3632 -3.27624,0.41561 -5,0.15778c-2.0125,-0.08204 -3.8875,-0.60809 -5.625,-1.57783c0.62532,-0.72643 0.78157,-1.51533 0.46875,-2.36674c0.905,-0.64155 1.89469,-1.06219 2.96875,-1.26225c-0.08375,0.50458 0.02063,0.92524 0.3125,1.26225z" fill="#e2b7e8"/><path d="M226.71875,154.7548c0,-0.10509 0,-0.21048 0,-0.31557c0.47719,-0.02303 0.78969,0.18744 0.9375,0.63113c-0.34656,-0.01799 -0.65906,-0.12308 -0.9375,-0.31556z" fill="#252023" opacity="0.933"/><path d="M225.78125,153.80811c0.47719,-0.02303 0.78969,0.18743 0.9375,0.63112c-0.47719,0.02304 -0.78969,-0.18744 -0.9375,-0.63112z" fill="#292824" opacity="0.906"/><path d="M257.34375,152.23028c0.41656,0.45221 0.88531,0.87317 1.40625,1.26225c-0.23593,2.07485 -1.43374,3.12694 -3.59375,3.15566c-0.3125,0 -0.625,0 -0.9375,0c1.00343,-0.52416 2.04532,-1.0502 3.125,-1.57783c-0.53156,-0.67025 -1.15656,-0.88075 -1.875,-0.63113c0.21437,-1.19504 -0.09813,-2.19442 -0.9375,-2.99786c0.91812,0.21963 1.85562,0.48281 2.8125,0.78891z" fill="#ecbff3"/><path d="M239.21875,150.96801c2.04468,-0.23573 3.76343,0.50081 5.15625,2.20896c0.36749,1.18654 0.00313,2.08054 -1.09375,2.68231c-3.81687,1.71826 -7.67093,1.87604 -11.5625,0.47335c2.49719,0.29316 4.99719,0.45095 7.5,0.47334c1.0775,-0.38057 2.11907,-0.85392 3.125,-1.42005c-0.66906,-0.45819 -1.39844,-0.77376 -2.1875,-0.94669c0.05125,-0.84793 -0.00093,-1.68954 -0.15625,-2.52451c-0.11782,-0.45505 -0.37812,-0.77062 -0.78125,-0.94671z" fill="#e7b9ef"/><path d="M233.28125,153.80811c-1.57625,-0.10319 -3.13875,0.00188 -4.6875,0.31556c0.97781,0.85108 2.01938,1.5876 3.125,2.20896c-1.43437,-0.16725 -2.78876,-0.58822 -4.0625,-1.26227c-0.14781,-0.44368 -0.46031,-0.65416 -0.9375,-0.63113c-0.14781,-0.44369 -0.46031,-0.65416 -0.9375,-0.63112c0,-0.21049 0,-0.42065 0,-0.63114c2.08219,-1.10321 4.26969,-1.94451 6.5625,-2.52452c0.20844,0.10509 0.41656,0.21049 0.625,0.31556c-0.35562,0.98803 -0.25125,1.93474 0.3125,2.8401z" fill="#ecbdf4"/><path d="M250.78125,150.65245c1.35813,-0.05239 2.71219,0.00032 4.0625,0.15778c0.97906,0.2714 1.8125,0.74474 2.5,1.42005c-0.95688,-0.3061 -1.89438,-0.56928 -2.8125,-0.78891c0.83937,0.80344 1.15187,1.80282 0.9375,2.99786c-0.16594,0.67025 -0.58281,1.14361 -1.25,1.42004c-2.53751,0.53268 -4.51687,-0.25624 -5.9375,-2.36674c0,-0.21046 0,-0.42065 0,-0.63112c-0.08188,-0.46641 0.02219,-0.88705 0.3125,-1.26225c0.74532,-0.36637 1.47468,-0.68194 2.1875,-0.9467z" fill="#0c0a0c" opacity="0.958"/><path d="M239.53125,150.33689c-0.60125,0.06658 -0.70531,0.27676 -0.3125,0.63112c0.40313,0.17609 0.66343,0.49166 0.78125,0.94671c0.15532,0.83497 0.2075,1.67659 0.15625,2.52451c-2.51938,2.26512 -4.81125,2.05464 -6.875,-0.63112c-0.56375,-0.90535 -0.66812,-1.85206 -0.3125,-2.8401c-0.20844,-0.10507 -0.41656,-0.21048 -0.625,-0.31556c-2.29281,0.58001 -4.48031,1.42131 -6.5625,2.52452c0.20844,-0.42065 0.52094,-0.73622 0.9375,-0.94669c4.07718,-2.10262 8.34812,-2.73374 12.8125,-1.89339z" fill="#0a090a" opacity="0.958"/><path d="M257.34375,152.23028c-0.6875,-0.67532 -1.52094,-1.14866 -2.5,-1.42005c-1.35031,-0.15745 -2.70437,-0.21017 -4.0625,-0.15778c-2.09375,-0.24171 -3.96875,0.28432 -5.625,1.57783c0.45781,-1.30676 1.49937,-2.04297 3.125,-2.20896c1.50751,-0.15526 2.96562,-0.36574 4.375,-0.63112c1.33219,0.17449 2.63437,0.49006 3.90625,0.94669c0.15625,-0.10509 0.3125,-0.21048 0.46875,-0.31556c-0.97844,-1.66523 -2.43687,-2.66464 -4.375,-2.99786c-3.06876,-0.65228 -5.46437,0.29441 -7.1875,2.84008c0.02188,0.24141 0.12595,0.39919 0.3125,0.47334c-0.19438,0.35565 -0.45468,0.67121 -0.78125,0.9467c-0.38187,-1.31687 -0.85062,-2.57912 -1.40625,-3.78678c0.39999,-0.45157 0.92093,-0.66206 1.5625,-0.63113c-0.04094,0.27643 0.06313,0.48691 0.3125,0.63113c0.75781,-0.51911 1.59125,-0.88706 2.5,-1.10448c2.30687,-0.23572 4.59843,-0.13065 6.875,0.31557c3.04719,1.27425 4.55751,3.53591 4.53125,6.78463c-0.51187,-0.70497 -1.18905,-1.12561 -2.03125,-1.26225z" fill="#7c38a1" opacity="0.96"/><path d="M239.53125,150.33689c-4.46438,-0.84035 -8.73532,-0.20922 -12.8125,1.89339c0.33375,-0.70686 0.85438,-1.28562 1.5625,-1.73561c4.90906,-2.73594 9.75281,-2.68324 14.53125,0.15778c0.57094,-0.60399 0.57094,-1.23512 0,-1.89339c-2.91188,-3.22223 -6.50563,-4.3267 -10.78125,-3.31343c-1.83937,0.53109 -3.61032,1.21461 -5.3125,2.05118c0.14157,-0.30231 0.34968,-0.56549 0.625,-0.78891c3.49781,-1.94514 7.24781,-2.57627 11.25,-1.89339c3.8453,1.14424 5.77219,3.72145 5.78125,7.73135c-1.28406,-1.46327 -2.89844,-2.19949 -4.84375,-2.20896z" fill="#7a389e" opacity="0.957"/><path d="M252.65625,149.3902c-0.56375,-0.2089 -1.18875,-0.31399 -1.875,-0.31557c-1.13031,-0.03218 -2.17187,0.17829 -3.125,0.63112c-0.625,0.21048 -1.25,0.42065 -1.875,0.63113c-0.18655,-0.07415 -0.29062,-0.23193 -0.3125,-0.47334c1.72313,-2.54567 4.11874,-3.49236 7.1875,-2.84008c1.93813,0.33323 3.39656,1.33263 4.375,2.99786c-0.15625,0.10509 -0.3125,0.21047 -0.46875,0.31556c-1.27188,-0.45663 -2.57406,-0.7722 -3.90625,-0.94669z" fill="#905aad"/><path d="M252.65625,149.3902c-1.40938,0.26539 -2.86749,0.47586 -4.375,0.63112c-0.10688,-0.26445 -0.315,-0.36984 -0.625,-0.31557c0.95313,-0.45283 1.99469,-0.66331 3.125,-0.63112c0.68625,0.00158 1.31125,0.10667 1.875,0.31557z" fill="#3c2148" opacity="0.953"/><path d="M246.71875,145.60341c-0.34656,0.01799 -0.65906,0.12308 -0.9375,0.31556c-1.74532,-0.11424 -3.35969,-0.63997 -4.84375,-1.57782c-0.20844,-0.21049 -0.20844,-0.42064 0,-0.63114c1.70063,1.34684 3.57563,1.76749 5.625,1.26227c0.145,0.18744 0.19719,0.39793 0.15625,0.63113z" fill="#140d16"/><path d="M242.65625,143.71002c1.21249,-0.01924 2.46249,-0.01924 3.75,0c-1.23874,0.81448 -2.48874,0.81448 -3.75,0z" fill="#110b14"/><path d="M230.78125,133.61194c-0.17437,0.40706 -0.48687,0.67001 -0.9375,0.78891c-1.875,0.10519 -3.75,0.21039 -5.625,0.31557c-1.49594,0.88328 -1.96469,2.1981 -1.40625,3.94456c0.63,0.6892 1.30719,1.32032 2.03125,1.89339c1.80718,-1.32254 3.78625,-2.26925 5.9375,-2.84009c-2.04563,1.21618 -4.02469,2.58385 -5.9375,4.10235c-1.14344,-0.8921 -2.13313,-1.94388 -2.96875,-3.15565c-1.78843,-3.27829 -0.85093,-4.96127 2.8125,-5.04904c2.04155,0.38186 4.0728,0.38186 6.09375,0z" fill="#ec3dac" opacity="0.96"/><path d="M245.15625,132.34968c1.47251,-1.67596 2.98282,-1.67596 4.53125,0c0.44437,0.79841 0.54843,1.63989 0.3125,2.52452c-0.75688,1.26379 -1.27782,2.63124 -1.5625,4.10234c-5.61844,-2.80161 -11.39969,-3.22236 -17.34375,-1.26226c1.55063,-1.62039 3.42563,-2.14634 5.625,-1.57782c1.81344,-0.25342 2.75094,-1.30531 2.8125,-3.15565c-0.07969,-1.96292 -0.70469,-3.69851 -1.875,-5.20681c-3.90875,-0.78788 -5.83563,0.84255 -5.78125,4.89126c-0.20969,0.23743 -0.47,0.34263 -0.78125,0.31555c0.20594,-6.27947 3.01844,-7.80468 8.4375,-4.57569c0.9975,1.48454 2.14312,2.85198 3.4375,4.10235c0.74532,0.17559 1.47437,0.12297 2.1875,-0.15779z" fill="#eb3cab" opacity="0.961"/><path d="M245.15625,132.34968c0.61999,0.03685 1.14063,-0.17353 1.5625,-0.63114c0.18312,0.06606 0.33937,0.17122 0.46875,0.31556c0.39438,1.39145 0.13376,2.60115 -0.78125,3.62901c-1.06345,0.29139 -1.94875,0.02842 -2.65625,-0.78891c-0.20844,-0.31557 -0.20844,-0.63114 0,-0.9467c0.54937,-0.49961 1.01812,-1.02557 1.40625,-1.57782z" fill="#fe48d7"/><path d="M231.09375,137.71428c-0.10406,0 -0.20844,0 -0.3125,0c-2.15125,0.57084 -4.13032,1.51755 -5.9375,2.84009c-0.72406,-0.57307 -1.40125,-1.2042 -2.03125,-1.89339c-0.55844,-1.74646 -0.08969,-3.06128 1.40625,-3.94456c1.875,-0.10518 3.75,-0.21038 5.625,-0.31557c0.45063,-0.1189 0.76313,-0.38185 0.9375,-0.78891c0.10406,-0.21038 0.20844,-0.42075 0.3125,-0.63113c0.31125,0.02707 0.57156,-0.07813 0.78125,-0.31555c-0.05437,-4.04871 1.8725,-5.67914 5.78125,-4.89126c1.17031,1.5083 1.79531,3.2439 1.875,5.20681c-0.06156,1.85034 -0.99906,2.90223 -2.8125,3.15565c-2.19937,-0.56852 -4.07437,-0.04256 -5.625,1.57782z" fill="#fe48d7"/><path d="M258.59375,211.24094c0,-0.21049 0,-0.42064 0,-0.63111c0.26189,-0.10794 0.36626,-0.3181 0.3125,-0.63114c0.26189,-0.10794 0.36626,-0.31809 0.3125,-0.63113c0.26189,-0.10794 0.36626,-0.31809 0.3125,-0.63114c0.26189,-0.10792 0.36626,-0.31808 0.3125,-0.63114c0.26189,-0.10792 0.36626,-0.31808 0.3125,-0.63114c0.2825,-0.22373 0.38657,-0.5393 0.3125,-0.94669c0.29187,-0.33703 0.39625,-0.75766 0.3125,-1.26225c0.29187,-0.33703 0.39625,-0.75767 0.3125,-1.26227c0.29718,-0.44779 0.40125,-0.97351 0.3125,-1.57784c0.30031,-0.55696 0.4047,-1.1881 0.3125,-1.89337c0.25438,-0.67247 0.41063,-1.40867 0.46875,-2.20897c0.15843,4.19956 -0.67469,8.19681 -2.5,11.99148c-0.32469,0.38183 -0.68937,0.69739 -1.09375,0.94669z" fill="#08000c" opacity="0.02"/><path d="M258.28125,211.24094c0.10406,0 0.20844,0 0.3125,0c-0.05782,0.21143 -0.16219,0.21143 -0.3125,0z" fill="#000000" opacity="0.02"/><path d="M257.96875,211.87207c0.41656,0.21048 0.41656,0.21048 0,0z" fill="#000000" opacity="0.004"/><path d="M254.84375,215.65885c0.31,-0.05427 0.51812,0.05111 0.625,0.31556c-0.22158,0.28527 -0.53408,0.39035 -0.9375,0.31557c0.10406,-0.21048 0.20844,-0.42066 0.3125,-0.63114z" fill="#7c13c7" opacity="0.004"/><path d="M255.46875,215.97441c0.27376,-0.04135 0.48219,0.06375 0.625,0.31557c-0.92813,0.15621 -1.6575,0.62954 -2.1875,1.42004c-0.52094,0.21048 -1.04156,0.21048 -1.5625,0c0.17375,-0.12087 0.27782,-0.27864 0.3125,-0.47335c0.31,0.05427 0.51812,-0.05111 0.625,-0.31556c0.48813,-0.07352 0.90468,-0.28401 1.25,-0.63112c0.40342,0.07478 0.71592,-0.0303 0.9375,-0.31557z" fill="#140617" opacity="0.011"/><path d="M244.84375,221.97015c-0.41656,0.21048 -0.83344,0.42065 -1.25,0.63113c-0.71282,0.35786 -0.71282,0.77882 0,1.26227c-0.01782,0.34996 -0.12188,0.66553 -0.3125,0.9467c-0.33032,-0.97416 -0.90344,-1.81577 -1.71875,-2.52453c-0.39532,-0.93437 -0.75969,-1.88107 -1.09375,-2.84007c-1.8122,-0.4074 -3.58313,-0.93346 -5.3125,-1.57784c-0.31688,-0.37047 -0.73343,-0.58064 -1.25,-0.63113c-0.33719,-0.64469 -0.85813,-1.06535 -1.5625,-1.26226c-0.3125,-0.52605 -0.72906,-0.94669 -1.25,-1.26225c-0.08843,-0.24899 -0.24468,-0.45946 -0.46875,-0.63113c-0.54063,0.6002 -1.11344,1.12625 -1.71875,1.57782c-3.72468,1.93979 -7.68281,3.09697 -11.875,3.47122c-0.21,-0.24203 -0.47031,-0.45253 -0.78125,-0.63114c-0.12468,0.07194 -0.17656,0.17736 -0.15625,0.31557c-0.16968,-0.01893 -0.27375,-0.12403 -0.3125,-0.31557c1.4475,-0.26129 2.90562,-0.41907 4.375,-0.47334c1.30719,-0.56676 2.66125,-0.98739 4.0625,-1.26226c2.84843,-1.042 5.29656,-2.67251 7.34375,-4.89126c0.15625,0.10509 0.3125,0.21048 0.46875,0.31556c-0.20844,0.31556 -0.41656,0.63113 -0.625,0.94669c2.23937,3.28851 5.36437,5.02411 9.375,5.20683c1.00063,1.12561 1.52125,2.44058 1.5625,3.94455c0.3125,0 0.625,0 0.9375,0c-0.06843,-0.37078 0.03563,-0.68634 0.3125,-0.94669c0.31999,0.42695 0.73656,0.63744 1.25,0.63112zM233.90625,217.23667c0.51657,0.05049 0.93312,0.26065 1.25,0.63113c-0.5875,0.08552 -1.00406,-0.12496 -1.25,-0.63113z" fill="#150b17" opacity="0.847"/><path d="M230.46875,215.34329c0.665,0.82993 1.39406,1.61884 2.1875,2.36673c-0.97593,-0.22753 -1.91343,-0.64816 -2.8125,-1.26225c0.18281,-0.41088 0.39094,-0.77913 0.625,-1.10448z" fill="#020003" opacity="0.005"/><path d="M232.34375,215.97441c-0.12406,0.32345 -0.33219,0.37616 -0.625,0.15779c0.18562,-0.14642 0.39406,-0.19914 0.625,-0.15779z" fill="#3c007c" opacity="0.004"/><path d="M228.90625,215.65885c0.41656,0.21048 0.41656,0.21048 0,0z" fill="#020006" opacity="0.008"/><path d="M231.09375,215.34329c0.41656,0.21048 0.41656,0.21048 0,0z" fill="#0e0078" opacity="0.004"/><path d="M231.09375,214.71216c0,0.21047 0,0.42063 0,0.63113c-0.20844,0 -0.41656,0 -0.625,0c0,-0.42066 0.20844,-0.63113 0.625,-0.63113z" fill="#9a24c2" opacity="0.008"/><path d="M251.40625,217.8678c0.41656,0.21048 0.41656,0.21048 0,0z" fill="#000200" opacity="0.008"/><path d="M201.09375,219.13007c0.41656,0.21047 0.41656,0.21047 0,0z" fill="#000000" opacity="0.004"/><path d="M233.90625,217.23667c0.24594,0.50617 0.6625,0.71665 1.25,0.63113c-0.34656,0.2493 -0.76313,0.40708 -1.25,0.47335c-0.25125,0.55886 -0.61594,1.03221 -1.09375,1.42004c-0.21625,-0.16567 -0.3725,-0.37615 -0.46875,-0.63112c0.52657,-0.65354 1.0475,-1.28467 1.5625,-1.89339z" fill="#feb09e" opacity="0.004"/><path d="M201.09375,219.44564c-0.20844,0.21047 -0.20844,0.21047 0,0z" fill="#000000" opacity="0.004"/><path d="M178.59375,218.81451c0.57625,0.56138 0.78437,1.2976 0.625,2.20896c-0.50094,0.05932 -0.91781,-0.09847 -1.25,-0.47335c0.2325,-0.57276 0.44093,-1.1512 0.625,-1.7356z" fill="#e2e7f0" opacity="0.016"/><path d="M215.15625,227.65032c-1.8972,-0.44178 -3.66781,-0.12622 -5.3125,0.9467c-0.31125,0.02714 -0.57156,-0.07826 -0.78125,-0.31556c-0.55718,-0.56455 -0.8175,-1.24837 -0.78125,-2.05118c0.15562,-1.47843 0.885,-2.16194 2.1875,-2.05117c-0.10406,-0.21048 -0.20844,-0.42066 -0.3125,-0.63113c0.79281,-1.23891 1.10531,-2.60625 0.9375,-4.10234c0.6775,0.21427 1.3025,0.52983 1.875,0.94669c0.85188,-0.51784 1.47688,-0.30736 1.875,0.63114c-0.56656,1.21051 -0.72281,2.47276 -0.46875,3.78678c0.73749,0.9025 1.41469,1.8492 2.03125,2.84008c-0.37501,0.24993 -0.79155,0.24993 -1.25,0z" fill="#f3b6a7"/><path d="M203.59375,219.13007c0.27375,-0.04134 0.48218,0.06374 0.625,0.31557c-0.19468,0.69771 -0.50718,1.32885 -0.9375,1.89338c-0.35375,-0.78575 -0.24968,-1.52229 0.3125,-2.20896z" fill="#ffcabe" opacity="0.008"/><path d="M207.96875,223.23242c-0.62,0.00504 -0.9325,-0.31052 -0.9375,-0.94671c0.19906,-0.82267 0.56375,-1.55889 1.09375,-2.20894c0.12124,1.05683 0.06906,2.10892 -0.15625,3.15565z" fill="#ffe5d9" opacity="0.004"/><path d="M250.78125,226.38806c-0.43657,0.59295 -0.95719,1.11899 -1.5625,1.57783c-0.85156,0.38278 -1.58094,0.96121 -2.1875,1.73559c-1.43437,0.50965 -2.31968,0.03629 -2.65625,-1.42003c-0.10406,-1.26227 -0.20844,-2.52452 -0.3125,-3.78679c-0.08688,-0.28905 -0.24313,-0.49921 -0.46875,-0.63112c-0.71282,-0.48344 -0.71282,-0.90441 0,-1.26227c1.25656,-0.35501 2.50656,-0.35501 3.75,0c-0.19594,1.64347 0.53313,2.43239 2.1875,2.36674c0.49063,0.44085 0.9075,0.91421 1.25,1.42005z" fill="#f5b6a8"/><path d="M207.96875,223.23242c0.33062,-0.34713 0.59125,-0.76809 0.78125,-1.26227c0.52062,0.77534 0.3125,1.40649 -0.625,1.89339c-0.14499,-0.18744 -0.19719,-0.39791 -0.15625,-0.63112z" fill="#ffb9ab" opacity="0.004"/><path d="M254.53125,226.0725c-0.52313,1.06408 -1.04406,2.11585 -1.5625,3.15565c-0.52374,-0.38183 -0.94063,-0.22406 -1.25,0.47333c-0.35469,0.23637 -0.66719,0.18398 -0.9375,-0.15777c0.62876,-0.82491 1.46188,-1.35094 2.5,-1.57782c-0.5925,-0.30485 -1.2175,-0.40993 -1.875,-0.31557c0.2503,-0.4866 0.35437,-1.01233 0.3125,-1.57782c0,-0.10508 0,-0.21048 0,-0.31556c0.29718,0.44779 0.40124,0.97351 0.3125,1.57781c0.55874,0.08995 1.07968,-0.01513 1.5625,-0.31556c-0.16406,-0.21836 -0.3725,-0.37614 -0.625,-0.47333c0.35124,-0.07858 0.66374,-0.23637 0.9375,-0.47335c-0.63875,-0.17829 -1.15938,-0.49385 -1.5625,-0.9467c1.05719,-0.46578 1.78656,-0.1502 2.1875,0.9467z" fill="#472f2c" opacity="0.984"/><path d="M209.21875,229.22815c0,0.10508 0,0.21048 0,0.31556c-1.83469,-0.61726 -2.4075,-1.77443 -1.71875,-3.47122c0.19468,1.2831 0.7675,2.33486 1.71875,3.15565z" fill="#ddd8df"/><path d="M252.34375,225.1258c0.40312,0.45284 0.92375,0.76841 1.5625,0.9467c-0.27376,0.23699 -0.58626,0.39478 -0.9375,0.47335c0.2525,0.09719 0.46094,0.25498 0.625,0.47333c-0.48282,0.30043 -1.00376,0.40551 -1.5625,0.31556c0.08874,-0.6043 -0.01532,-1.13002 -0.3125,-1.57781c0,-0.42065 0.20844,-0.63114 0.625,-0.63114z" fill="#db9988"/><path d="M251.71875,226.0725c0.04187,0.56549 -0.0622,1.09122 -0.3125,1.57782c-0.53843,0.54215 -1.16343,0.96278 -1.875,1.26226c-0.87405,0.14737 -1.29094,0.67309 -1.25,1.57783c-0.36719,0.0691 -0.67969,-0.03598 -0.9375,-0.31556c0.63218,-0.74253 1.25718,-1.47876 1.875,-2.20896c0.60531,-0.45884 1.12593,-0.98488 1.5625,-1.57783c0.03656,-0.62607 -0.17187,-1.15182 -0.625,-1.57782c0.10406,-0.10509 0.20844,-0.21049 0.3125,-0.31557c0.6378,0.38089 1.05436,0.90693 1.25,1.57783z" fill="#243357" opacity="0.996"/><path d="M217.34375,227.96589c-0.01687,0.67279 -0.32937,1.09343 -0.9375,1.26226c-0.20844,0 -0.41656,0 -0.625,0c-2.12375,-0.34523 -4.20719,-0.34523 -6.25,0c0.10406,-0.21049 0.20844,-0.42067 0.3125,-0.63114c1.64469,-1.07292 3.4153,-1.38848 5.3125,-0.9467c1.07155,1.44339 1.69655,1.23292 1.875,-0.63114c0.27687,0.26036 0.38093,0.57593 0.3125,0.94671z" fill="#123d6e" opacity="0.988"/><path d="M218.59375,228.59702c0.3125,0.10509 0.52094,0.31557 0.625,0.63114c-0.77907,0.11643 -0.9875,-0.09373 -0.625,-0.63114z" fill="#ac081d"/><path d="M217.34375,227.96589c0.20844,0 0.41656,0 0.625,0c0.40344,-0.07479 0.71594,0.03028 0.9375,0.31556c-0.53875,-0.01232 -0.64282,0.09278 -0.3125,0.31556c-0.3625,0.53741 -0.15407,0.74757 0.625,0.63114c-0.15688,0.50016 -0.46938,0.65794 -0.9375,0.47333c-0.22719,-0.44147 -0.38344,-0.91481 -0.46875,-1.42003c-0.78468,1.19819 -0.47218,1.93441 0.9375,2.20896c0.54656,-0.07826 0.80687,-0.39382 0.78125,-0.9467c0.26188,0.10792 0.36625,0.31809 0.3125,0.63113c-1.28437,1.6466 -3.00312,2.38282 -5.15625,2.20895c-0.76062,-0.25939 -1.54187,-0.3648 -2.34375,-0.31557c-0.28594,-0.71126 -0.7025,-1.3424 -1.25,-1.89337c-0.46719,-0.38025 -0.88375,-0.38025 -1.25,0c-0.3125,-0.10508 -0.52094,-0.31558 -0.625,-0.63113c0,-0.10509 0,-0.21049 0,-0.31556c0.10406,0 0.20844,0 0.3125,0c2.04281,-0.34523 4.12625,-0.34523 6.25,0c-1.47312,-0.10318 -2.93125,0.00221 -4.375,0.31556c0.41781,0.89115 0.99063,1.62767 1.71875,2.20896c0.5475,-0.28591 1.12062,-0.60147 1.71875,-0.9467c0.28969,0.77186 0.81062,1.03475 1.5625,0.78893c-0.59531,-0.26066 -0.69969,-0.62894 -0.3125,-1.10449c0.42031,0.26728 0.73281,0.63523 0.9375,1.10449c0.53155,0.10886 0.94812,-0.10162 1.25,-0.63114c-0.32782,-0.15526 -0.64032,-0.10287 -0.9375,0.15778c-0.22063,-0.6955 -0.53313,-1.32663 -0.9375,-1.89338c0.60813,-0.16883 0.92063,-0.58947 0.9375,-1.26226z" fill="#402d2c"/><path d="M215.78125,229.22815c0.20844,0 0.41656,0 0.625,0c0.40437,0.56675 0.71687,1.19788 0.9375,1.89338c0.29718,-0.26065 0.60968,-0.31304 0.9375,-0.15778c-0.30188,0.52953 -0.71845,0.74 -1.25,0.63114c-0.20469,-0.46926 -0.51719,-0.83721 -0.9375,-1.10449c-0.38719,0.47555 -0.28281,0.84382 0.3125,1.10449c-0.75188,0.24582 -1.27281,-0.01706 -1.5625,-0.78893c-0.59813,0.34522 -1.17125,0.66079 -1.71875,0.9467c-0.72812,-0.58129 -1.30094,-1.3178 -1.71875,-2.20896c1.44375,-0.31336 2.90188,-0.41875 4.375,-0.31556z" fill="#e1a191"/><path d="M219.21875,229.22815c0.20844,0 0.3125,0.10508 0.3125,0.31556c0.02562,0.55287 -0.23469,0.86844 -0.78125,0.9467c-1.40968,-0.27454 -1.72218,-1.01076 -0.9375,-2.20896c0.08531,0.50522 0.24156,0.97856 0.46875,1.42003c0.46812,0.18461 0.78062,0.02683 0.9375,-0.47333z" fill="#e69f8c"/><path d="M251.40625,227.65032c0.6575,-0.09436 1.2825,0.01073 1.875,0.31557c-1.03812,0.22689 -1.87124,0.75292 -2.5,1.57782c0.27031,0.34175 0.58281,0.39414 0.9375,0.15777c0.30937,-0.6974 0.72626,-0.85516 1.25,-0.47333c-0.52687,0.4784 -1.09968,0.89936 -1.71875,1.26226c-0.72906,-0.42065 -1.45844,-0.42065 -2.1875,0c-0.15625,-0.10509 -0.3125,-0.21049 -0.46875,-0.31556c0.31999,-0.42665 0.63249,-0.84728 0.9375,-1.26227c0.71157,-0.29949 1.33657,-0.72012 1.875,-1.26226z" fill="#da9381"/><path d="M212.34375,232.06822c-1.05969,-0.32471 -1.89282,-0.95583 -2.5,-1.89337c0.36625,-0.38025 0.78281,-0.38025 1.25,0c0.5475,0.55097 0.96406,1.18211 1.25,1.89337z" fill="#dedae0"/><path d="M252.96875,229.22815c0.51844,-1.0398 1.03937,-2.09158 1.5625,-3.15565c0.25906,-0.26254 0.51938,-0.15745 0.78125,0.31556c-0.21532,3.68739 -2.19438,5.58076 -5.9375,5.68016c-2.00406,-0.43957 -4.03531,-0.75514 -6.09375,-0.94669c-0.14032,-0.78164 0.06781,-1.41278 0.625,-1.89338c1.1075,0.99624 2.40938,1.62736 3.90625,1.89338c1.39406,-0.23573 2.80031,-0.3935 4.21875,-0.47334c0.51281,-0.35628 0.82531,-0.82963 0.9375,-1.42004z" fill="#e8e2ec"/><path d="M219.84375,230.17485c0.30156,0.38529 0.24937,0.80595 -0.15625,1.26225c-1.4025,1.09627 -3.01719,1.62232 -4.84375,1.57783c-1.03937,0.13474 -1.8725,-0.18082 -2.5,-0.94671c0.80188,-0.04923 1.58313,0.05618 2.34375,0.31557c2.15313,0.17388 3.87188,-0.56234 5.15625,-2.20894z" fill="#e5e0e8"/></g></g></svg>