<svg xmlns="http://www.w3.org/2000/svg" viewBox="0 0 200 118" height="118" width="200">
    <g id="Group">
        <path d="M 105.125 32.33049 C 105.039497 32.541336 104.873001 32.625366 104.625 32.582092 C 104.026497 32.71167 103.443001 32.879227 102.875 33.085289 C 101.747002 31.971199 100.41375 31.174644 98.875 30.695099 C 96.875 30.527283 94.875 30.527283 92.875 30.695099 C 91.470497 31.149734 90.220497 31.862518 89.125 32.833687 C 89.166748 32.917473 89.208252 33.001503 89.25 33.085289 C 89.685249 32.768776 90.143501 32.517181 90.625 32.33049 C 93.885498 31.303963 97.135498 31.345985 100.375 32.456291 C 101.2155 32.794197 101.9655 33.255371 102.625 33.84008 C 102.791748 33.84008 102.875 33.923866 102.875 34.091682 C 102.641502 34.36039 102.557999 34.695778 102.625 35.098083 C 98.638252 34.242897 94.721497 34.494499 90.875 35.852875 C 90.004753 36.134918 89.337997 36.638115 88.875 37.362473 C 88.714752 37.609543 88.548248 37.861145 88.375 38.117271 C 89.446747 39.161903 90.696747 39.958725 92.125 40.507462 C 93.419746 40.750504 94.669746 41.044121 95.875 41.388062 C 96.093498 41.64595 96.385246 41.813766 96.75 41.891258 C 97.610252 41.669342 98.485252 41.585312 99.375 41.639656 C 98.842247 41.84446 98.259003 41.970261 97.625 42.017059 C 98.202499 42.142105 98.785751 42.183861 99.375 42.14286 C 99.410004 42.551453 99.243248 42.844818 98.875 43.023453 C 97.553253 43.277817 96.219749 43.487396 94.875 43.652451 C 95.178497 44.047211 95.595253 44.25679 96.125 44.281448 C 98.522247 44.540855 99.355499 44.498833 98.625 44.155655 C 101.1455 44.270378 102.728752 43.096169 103.375 40.633263 C 103.944252 40.872032 104.444252 41.207405 104.875 41.639656 C 106.402 42.609833 108.068748 42.987228 109.875 42.771858 C 110.208252 43.023453 110.208252 43.275055 109.875 43.526649 C 107.902496 44.06105 107.985748 44.438446 110.125 44.658852 C 110.179749 44.954475 110.096497 45.20607 109.875 45.413643 C 108.917 45.714554 108.000252 46.050194 107.125 46.420044 C 104.835747 46.711403 102.502251 46.753159 100.125 46.545845 C 98.432999 46.103027 96.766502 45.641594 95.125 45.162048 C 93.170502 44.155655 91.128754 43.31707 89 42.646057 C 88.445 42.657372 88.07 42.908974 87.875 43.400848 C 88.2845 44.106339 88.742752 44.777351 89.25 45.413643 C 89.532249 45.826523 89.907249 46.078117 90.375 46.168442 C 91.295998 47.303162 92.462753 48.057953 93.875 48.432838 C 94.592499 49.01001 95.425751 49.345634 96.375 49.439232 C 97.40625 50.008598 98.489754 50.428017 99.625 50.697227 C 100.553497 51.081169 101.428497 51.584366 102.25 52.206825 C 102.57225 52.924141 102.69725 53.678932 102.625 54.471218 C 102.30175 54.923088 101.92675 55.342503 101.5 55.72921 C 101.387253 57.194023 101.762253 58.535797 102.625 59.754795 C 102.572746 59.902233 102.48925 60.028034 102.375 60.132198 C 101.133499 60.389835 99.925247 60.767235 98.75 61.264393 C 97.661499 60.294479 96.536499 59.371864 95.375 58.496803 C 95.2285 57.908062 94.9785 57.362843 94.625 56.861404 C 93.270752 56.272411 91.937248 55.685432 90.625 55.100212 C 89.060753 53.636414 88.102501 51.833206 87.75 49.690834 C 87.376747 47.645088 86.876747 45.632294 86.25 43.652451 C 85.933502 39.999992 86.183502 36.393814 87 32.833687 C 88.759247 29.135941 91.634247 26.829521 95.625 25.914711 C 98.722252 25.224075 101.722252 25.47567 104.625 26.66951 C 105.64875 27.237877 106.565498 27.950912 107.375 28.808105 C 107.636002 29.378731 107.67775 29.965714 107.5 30.569298 C 106.873749 31.412903 106.082253 31.999886 105.125 32.33049 Z" stroke="none" fill-rule="evenodd" fill="#925dae" id="Path"></path>
    </g>
    <g id="g1">
        <path d="M 102.625 33.84008 C 101.9655 33.255371 101.2155 32.794197 100.375 32.456291 C 97.135498 31.345985 93.885498 31.303963 90.625 32.33049 C 93.028999 31.035759 95.612503 30.574577 98.375 30.946693 C 100.247749 31.297173 101.664497 32.261559 102.625 33.84008 Z" opacity="0.973" stroke="none" fill-rule="evenodd" fill="#7d3aa1" id="path1"></path>
    </g>
    <g id="g2">
        <path d="M 87.625 30.066093 C 85.167747 33.952553 84.167747 38.229736 84.625 42.897652 C 84.834999 47.353218 85.584999 51.714195 86.875 55.980808 C 87.129501 55.806454 87.379501 55.638889 87.625 55.477612 C 87.625 55.56139 87.625 55.645432 87.625 55.72921 C 87.141998 56.402744 87.016998 57.157539 87.25 57.993603 C 87.828751 59.034721 88.537003 59.957333 89.375 60.761192 C 89.941498 61.751488 90.691498 62.590069 91.625 63.277187 C 93.260246 65.025543 95.177002 66.40934 97.375 67.428566 C 96.824997 68.483528 97.074997 69.406143 98.125 70.196159 C 98.486 70.39267 98.819252 70.350647 99.125 70.070358 C 98.69725 69.632576 98.488998 69.129387 98.5 68.560768 C 99.250504 69.712845 100.292252 70.38385 101.625 70.573563 C 102.083252 70.552177 102.416496 70.384361 102.625 70.070358 C 103.007004 70.074631 103.132004 70.242455 103 70.573563 C 101.837753 71.272003 100.712753 71.18821 99.625 70.32196 C 99.005249 70.929321 98.338753 70.971085 97.625 70.447762 C 97.006752 69.464264 96.506752 68.415848 96.125 67.30278 C 94.738747 66.648865 93.488747 65.810028 92.375 64.786781 C 90.377502 63.036156 88.66925 61.023365 87.25 58.748402 C 86.946999 59.549744 86.863503 60.388325 87 61.264393 C 86.733749 63.07616 85.692001 63.830956 83.875 63.528782 C 81.994003 63.391163 80.160751 63.01376 78.375 62.396587 C 76.369247 61.388432 74.452499 60.256233 72.625 59 C 72.625 58.832184 72.708252 58.748402 72.875 58.748402 C 75.963753 60.637661 79.255501 62.063221 82.75 63.025589 C 83.434998 62.959919 84.101501 62.959919 84.75 63.025589 C 85.5765 62.864563 86.0765 62.361366 86.25 61.515991 C 86.55175 60.601933 86.67675 59.721336 86.625 58.874199 C 85.464996 54.049034 84.548248 49.184868 83.875 44.281448 C 83.974998 41.577766 84.18325 38.768158 84.5 35.852875 C 84.869499 34.275604 85.411247 32.766014 86.125 31.324097 C 86.709 30.945686 87.167252 30.44249 87.5 29.814499 C 87.599747 29.871864 87.641251 29.955902 87.625 30.066093 Z" opacity="0.722" stroke="none" fill-rule="evenodd" fill="#0e080f" id="path2"></path>
    </g>
    <g id="g3">
        <path d="M 102.875 34.091682 C 103.521248 35.154945 103.771248 36.245125 103.625 37.362473 C 102.532249 36.225502 101.198753 35.638519 99.625 35.60128 C 99.270248 35.362015 98.853752 35.278229 98.375 35.349678 C 95.063499 35.096313 91.896751 35.767334 88.875 37.362473 C 89.337997 36.638115 90.004753 36.134918 90.875 35.852875 C 94.721497 34.494499 98.638252 34.242897 102.625 35.098083 C 102.557999 34.695778 102.641502 34.36039 102.875 34.091682 Z" opacity="0.973" stroke="none" fill-rule="evenodd" fill="#7d3ba0" id="path3"></path>
    </g>
    <g id="g4">
        <path d="M 129.125 38.117271 C 129.418747 38.062172 129.668747 38.145958 129.875 38.368874 C 129.512253 38.722618 129.179001 39.100021 128.875 39.50106 C 129.477997 40.013069 129.311249 40.264671 128.375 40.255867 C 128.083252 40.717049 127.791748 41.178474 127.5 41.639656 C 127.320503 41.878929 127.112251 41.920692 126.875 41.765457 C 127.223251 40.910278 127.514999 40.029678 127.75 39.123665 C 128.203003 38.752052 128.661255 38.416672 129.125 38.117271 Z" opacity="0.004" stroke="none" fill-rule="evenodd" fill="#000002" id="path4"></path>
    </g>
    <g id="g5">
        <path d="M 115.625 39.878464 C 115.541748 39.878464 115.458252 39.878464 115.375 39.878464 C 112.987747 41.255722 110.404503 41.716904 107.625 41.26226 C 106.429253 41.007133 105.262749 40.755539 104.125 40.507462 C 104.62075 40.982735 105.204002 41.318115 105.875 41.513855 C 105.55175 41.637138 105.218246 41.679153 104.875 41.639656 C 104.444252 41.207405 103.944252 40.872032 103.375 40.633263 C 103.407753 40.412857 103.324501 40.245049 103.125 40.130066 C 102.208748 40.716293 101.208748 41.093697 100.125 41.26226 C 98.710747 41.387802 97.293999 41.429832 95.875 41.388062 C 94.669746 41.044121 93.419746 40.750504 92.125 40.507462 C 90.696747 39.958725 89.446747 39.161903 88.375 38.117271 C 88.548248 37.861145 88.714752 37.609543 88.875 37.362473 C 91.896751 35.767334 95.063499 35.096313 98.375 35.349678 C 97.361252 35.268166 96.361252 35.351944 95.375 35.60128 C 94.91375 36.367653 94.66375 37.206482 94.625 38.117271 C 94.541748 38.117271 94.458252 38.117271 94.375 38.117271 C 94.375 37.446259 94.375 36.77549 94.375 36.104477 C 92.282997 36.134666 90.449501 36.805687 88.875 38.117271 C 91.445 40.085785 94.361504 41.0084 97.625 40.884865 C 99.366501 40.995567 101.033249 40.70195 102.625 40.004265 C 103.827499 39.160156 103.911003 38.237785 102.875 37.236671 C 101.853249 36.460991 100.769997 36.083588 99.625 36.104477 C 99.291748 35.936661 99.291748 35.769096 99.625 35.60128 C 101.198753 35.638519 102.532249 36.225502 103.625 37.362473 C 103.771248 36.245125 103.521248 35.154945 102.875 34.091682 C 102.875 33.923866 102.791748 33.84008 102.625 33.84008 C 101.664497 32.261559 100.247749 31.297173 98.375 30.946693 C 95.612503 30.574577 93.028999 31.035759 90.625 32.33049 C 90.143501 32.517181 89.685249 32.768776 89.25 33.085289 C 89.208252 33.001503 89.166748 32.917473 89.125 32.833687 C 90.220497 31.862518 91.470497 31.149734 92.875 30.695099 C 94.875 30.527283 96.875 30.527283 98.875 30.695099 C 100.41375 31.174644 101.747002 31.971199 102.875 33.085289 C 103.450752 34.022499 103.909248 35.028893 104.25 36.104477 C 106.009499 34.833649 107.967751 34.372467 110.125 34.720688 C 108.685501 34.842705 107.268753 35.094307 105.875 35.475479 C 103.470253 37.032127 103.553497 37.325737 106.125 36.356079 C 106.373001 36.312805 106.539497 36.396828 106.625 36.607681 C 104.657501 36.801414 103.740997 37.891586 103.875 39.878464 C 105.111252 40.21032 106.361252 40.503937 107.625 40.759064 C 109.08725 40.964867 110.503754 40.923096 111.875 40.633263 C 111.958252 40.633263 112.041748 40.633263 112.125 40.633263 C 113.543999 40.381409 114.627251 39.62661 115.375 38.368874 C 114.442253 37.351402 113.359001 36.848206 112.125 36.859276 C 111.7565 36.623772 111.5065 36.288139 111.375 35.852875 C 112.949753 36.183975 114.366501 36.854996 115.625 37.865669 C 115.6745 35.503403 114.591248 33.784233 112.375 32.707893 C 109.740501 31.770935 107.157249 31.896736 104.625 33.085289 C 104.384247 32.967041 104.384247 32.799217 104.625 32.582092 C 104.873001 32.625366 105.039497 32.541336 105.125 32.33049 C 107.544998 31.676834 109.961746 31.676834 112.375 32.33049 C 112.630249 32.204185 112.671997 32.036621 112.5 31.827293 C 107.319252 25.354652 100.777496 23.383881 92.875 25.914711 C 91.875999 26.333122 90.959251 26.87809 90.125 27.55011 C 89.362999 28.484795 88.529747 29.32338 87.625 30.066093 C 87.641251 29.955902 87.599747 29.871864 87.5 29.814499 C 87.167252 30.44249 86.709 30.945686 86.125 31.324097 C 86.441254 30.563004 86.858002 29.850227 87.375 29.185501 C 85.722504 27.869888 84.639 26.192482 84.125 24.153519 C 84.368248 22.69133 85.201752 21.726868 86.625 21.260132 C 88.332748 21.410004 90.082748 21.535805 91.875 21.637527 C 92.293747 20.654381 92.585251 19.606064 92.75 18.492538 C 93.188499 16.791626 94.271751 15.952972 96 15.976547 C 97.505249 16.041969 98.880249 16.50322 100.125 17.360344 C 101.041748 18.584091 102.041748 19.716286 103.125 20.756927 C 103.983498 20.14431 104.900002 19.641106 105.875 19.247337 C 107.679497 19.472824 108.679497 20.563072 108.875 22.51812 C 108.591499 23.813911 108.175003 25.071907 107.625 26.292107 C 109.266251 27.564697 110.807747 28.990257 112.25 30.569298 C 112.730003 31.283585 113.146751 32.038383 113.5 32.833687 C 116.05925 34.646202 116.767754 36.994629 115.625 39.878464 Z" opacity="0.957" stroke="none" fill-rule="evenodd" fill="#191419" id="path5"></path>
    </g>
    <g id="g6">
        <path d="M 106.625 36.607681 C 106.62925 37.127228 106.712502 37.630432 106.875 38.117271 C 106.132248 38.100914 105.4655 38.310745 104.875 38.746269 C 105.041748 38.914078 105.208252 39.081657 105.375 39.249466 C 106.74025 39.852806 108.156998 40.272217 109.625 40.507462 C 110.370499 40.632759 111.120499 40.674767 111.875 40.633263 C 110.503754 40.923096 109.08725 40.964867 107.625 40.759064 C 106.361252 40.503937 105.111252 40.21032 103.875 39.878464 C 103.740997 37.891586 104.657501 36.801414 106.625 36.607681 Z" opacity="0.973" stroke="none" fill-rule="evenodd" fill="#cfa3dc" id="path6"></path>
    </g>
    <g id="g7">
        <path d="M 106.875 38.117271 C 108.021751 39.802986 109.605003 40.431992 111.625 40.004265 C 112.047997 39.675423 112.381248 39.298027 112.625 38.87207 C 112.805496 38.766899 112.930496 38.599342 113 38.368874 C 113.377251 38.517311 113.752251 38.684875 114.125 38.87207 C 113.556999 39.413261 112.890251 39.790657 112.125 40.004265 C 111.850502 40.198006 111.850502 40.407578 112.125 40.633263 C 112.041748 40.633263 111.958252 40.633263 111.875 40.633263 C 111.120499 40.674767 110.370499 40.632759 109.625 40.507462 C 108.156998 40.272217 106.74025 39.852806 105.375 39.249466 C 105.208252 39.081657 105.041748 38.914078 104.875 38.746269 C 105.4655 38.310745 106.132248 38.100914 106.875 38.117271 Z" opacity="0.973" stroke="none" fill-rule="evenodd" fill="#f8d6f6" id="path7"></path>
    </g>
    <g id="g8">
        <path d="M 112.125 36.859276 C 113.359001 36.848206 114.442253 37.351402 115.375 38.368874 C 114.627251 39.62661 113.543999 40.381409 112.125 40.633263 C 111.850502 40.407578 111.850502 40.198006 112.125 40.004265 C 112.890251 39.790657 113.556999 39.413261 114.125 38.87207 C 113.752251 38.684875 113.377251 38.517311 113 38.368874 C 112.930496 38.599342 112.805496 38.766899 112.625 38.87207 C 112.722252 38.103943 112.555748 37.432922 112.125 36.859276 Z" opacity="0.973" stroke="none" fill-rule="evenodd" fill="#dbade7" id="path8"></path>
    </g>
    <g id="g9">
        <path d="M 94.375 38.117271 C 93.466003 38.197533 92.632751 38.490891 91.875 38.997871 C 92.041748 39.16568 92.208252 39.333252 92.375 39.50106 C 95.733002 40.816681 99.066254 40.816681 102.375 39.50106 C 102.658501 39.245445 102.575249 39.077629 102.125 38.997871 C 101.565002 38.752052 100.98175 38.626259 100.375 38.620468 C 100.423248 37.677483 100.173248 36.838646 99.625 36.104477 C 100.769997 36.083588 101.853249 36.460991 102.875 37.236671 C 103.911003 38.237785 103.827499 39.160156 102.625 40.004265 C 101.033249 40.70195 99.366501 40.995567 97.625 40.884865 C 94.361504 41.0084 91.445 40.085785 88.875 38.117271 C 90.449501 36.805687 92.282997 36.134666 94.375 36.104477 C 94.375 36.77549 94.375 37.446259 94.375 38.117271 Z" opacity="0.973" stroke="none" fill-rule="evenodd" fill="#daace7" id="path9"></path>
    </g>
    <g id="g10">
        <path d="M 94.375 38.117271 C 94.458252 38.117271 94.541748 38.117271 94.625 38.117271 C 95.181999 39.407219 96.181999 40.078239 97.625 40.130066 C 98.875 40.178619 99.791748 39.675423 100.375 38.620468 C 100.98175 38.626259 101.565002 38.752052 102.125 38.997871 C 102.575249 39.077629 102.658501 39.245445 102.375 39.50106 C 99.066254 40.816681 95.733002 40.816681 92.375 39.50106 C 92.208252 39.333252 92.041748 39.16568 91.875 38.997871 C 92.632751 38.490891 93.466003 38.197533 94.375 38.117271 Z" opacity="0.973" stroke="none" fill-rule="evenodd" fill="#f9d9f5" id="path10"></path>
    </g>
    <g id="g11">
        <path d="M 111.375 35.852875 C 111.5065 36.288139 111.7565 36.623772 112.125 36.859276 C 112.555748 37.432922 112.722252 38.103943 112.625 38.87207 C 112.381248 39.298027 112.047997 39.675423 111.625 40.004265 C 109.605003 40.431992 108.021751 39.802986 106.875 38.117271 C 106.712502 37.630432 106.62925 37.127228 106.625 36.607681 C 106.539497 36.396828 106.373001 36.312805 106.125 36.356079 C 106.152748 36.200844 106.236 36.075043 106.375 35.978676 C 108.039497 35.852875 109.706253 35.811111 111.375 35.852875 Z" opacity="0.97" stroke="none" fill-rule="evenodd" fill="#0a0809" id="path11"></path>
    </g>
    <g id="g12">
        <path d="M 98.375 35.349678 C 98.853752 35.278229 99.270248 35.362015 99.625 35.60128 C 99.291748 35.769096 99.291748 35.936661 99.625 36.104477 C 100.173248 36.838646 100.423248 37.677483 100.375 38.620468 C 99.791748 39.675423 98.875 40.178619 97.625 40.130066 C 96.181999 40.078239 95.181999 39.407219 94.625 38.117271 C 94.66375 37.206482 94.91375 36.367653 95.375 35.60128 C 96.361252 35.351944 97.361252 35.268166 98.375 35.349678 Z" opacity="0.97" stroke="none" fill-rule="evenodd" fill="#070607" id="path12"></path>
    </g>
    <g id="g13">
        <path d="M 111.375 35.852875 C 109.706253 35.811111 108.039497 35.852875 106.375 35.978676 C 106.236 36.075043 106.152748 36.200844 106.125 36.356079 C 103.553497 37.325737 103.470253 37.032127 105.875 35.475479 C 107.268753 35.094307 108.685501 34.842705 110.125 34.720688 C 107.967751 34.372467 106.009499 34.833649 104.25 36.104477 C 103.909248 35.028893 103.450752 34.022499 102.875 33.085289 C 103.443001 32.879227 104.026497 32.71167 104.625 32.582092 C 104.384247 32.799217 104.384247 32.967041 104.625 33.085289 C 107.157249 31.896736 109.740501 31.770935 112.375 32.707893 C 114.591248 33.784233 115.6745 35.503403 115.625 37.865669 C 114.366501 36.854996 112.949753 36.183975 111.375 35.852875 Z" opacity="0.973" stroke="none" fill-rule="evenodd" fill="#7b389f" id="path13"></path>
    </g>
    <g id="g14">
        <path d="M 104.625 20.756927 C 104.134003 21.754295 103.384003 22.509094 102.375 23.021324 C 102.494247 23.267281 102.660751 23.476944 102.875 23.650322 C 105.197502 24.058365 106.072502 23.09391 105.5 20.756927 C 105.404251 20.617035 105.279251 20.533188 105.125 20.505325 C 106.460999 19.680687 107.502502 20.016144 108.25 21.511726 C 108.416748 22.098785 108.416748 22.68586 108.25 23.272926 C 107.726753 24.242836 107.26825 25.249237 106.875 26.292107 C 103.72525 24.701477 100.391998 24.030533 96.875 24.279312 C 98.489998 22.781113 99.031754 20.936073 98.5 18.744133 C 97.775749 17.572968 96.734253 17.195564 95.375 17.611938 C 94.071251 18.577583 93.529503 19.877495 93.75 21.511726 C 93.218498 22.597626 92.343498 23.142769 91.125 23.147125 C 89.708252 23.23098 88.291748 23.314857 86.875 23.39872 C 85.793747 23.934349 85.585251 24.731087 86.25 25.78891 C 86.727249 26.522072 87.393753 26.94149 88.25 27.046913 C 89.2985 26.249588 90.4235 25.53656 91.625 24.908318 C 92.938499 24.588478 94.271751 24.462677 95.625 24.530914 C 92.724747 25.33931 90.141502 26.764862 87.875 28.808105 C 86.953499 27.838943 86.078499 26.83255 85.25 25.78891 C 84.403252 23.297279 85.278252 22.039276 87.875 22.014923 C 88.926003 22.122101 89.967751 22.289856 91 22.51812 C 91.833252 22.51812 92.5 22.182663 93 21.511726 C 92.837502 17.060837 94.795753 15.67704 98.875 17.360344 C 99.410248 17.689331 99.910248 18.066734 100.375 18.492538 C 100.950752 19.440994 101.617249 20.321587 102.375 21.134331 C 103.185249 21.33387 103.935249 21.208069 104.625 20.756927 Z" opacity="0.973" stroke="none" fill-rule="evenodd" fill="#ee3dad" id="path14"></path>
    </g>
    <g id="g15">
        <path d="M 105.125 20.505325 C 105.279251 20.533188 105.404251 20.617035 105.5 20.756927 C 106.072502 23.09391 105.197502 24.058365 102.875 23.650322 C 102.660751 23.476944 102.494247 23.267281 102.375 23.021324 C 103.384003 22.509094 104.134003 21.754295 104.625 20.756927 C 104.791748 20.673073 104.958252 20.589195 105.125 20.505325 Z" opacity="0.973" stroke="none" fill-rule="evenodd" fill="#fe48d7" id="path15"></path>
    </g>
    <g id="g16">
        <path d="M 96.875 24.279312 C 96.489502 24.480766 96.072998 24.564629 95.625 24.530914 C 94.271751 24.462677 92.938499 24.588478 91.625 24.908318 C 90.4235 25.53656 89.2985 26.249588 88.25 27.046913 C 87.393753 26.94149 86.727249 26.522072 86.25 25.78891 C 85.585251 24.731087 85.793747 23.934349 86.875 23.39872 C 88.291748 23.314857 89.708252 23.23098 91.125 23.147125 C 92.343498 23.142769 93.218498 22.597626 93.75 21.511726 C 93.529503 19.877495 94.071251 18.577583 95.375 17.611938 C 96.734253 17.195564 97.775749 17.572968 98.5 18.744133 C 99.031754 20.936073 98.489998 22.781113 96.875 24.279312 Z" opacity="0.973" stroke="none" fill-rule="evenodd" fill="#fe48d7" id="path16"></path>
    </g>
    <g id="g17">
        <path d="M 128.125 39.123665 C 128.664001 39.217262 128.664001 39.468864 128.125 39.878464 C 127.859497 39.645737 127.859497 39.394142 128.125 39.123665 Z" opacity="0.004" stroke="none" fill-rule="evenodd" fill="#000084" id="path17"></path>
    </g>
    <g id="g18">
        <path d="M 142.375 40.381668 C 142.653244 40.745476 142.695007 41.164894 142.5 41.639656 C 142.376495 41.228546 142.335007 40.809128 142.375 40.381668 Z" opacity="0.004" stroke="none" fill-rule="evenodd" fill="#000000" id="path18"></path>
    </g>
    <g id="g19">
        <path d="M 103.375 40.633263 C 102.728752 43.096169 101.1455 44.270378 98.625 44.155655 C 97.900749 44.25 97.234253 44.124199 96.625 43.778252 C 98.248497 43.761139 99.831749 43.509544 101.375 43.023453 C 101.929749 42.57988 102.429749 42.076683 102.875 41.513855 C 101.70475 41.640167 100.538254 41.849747 99.375 42.14286 C 98.785751 42.183861 98.202499 42.142105 97.625 42.017059 C 98.259003 41.970261 98.842247 41.84446 99.375 41.639656 C 100.7845 41.571724 102.117752 41.236343 103.375 40.633263 Z" opacity="0.925" stroke="none" fill-rule="evenodd" fill="#19141b" id="path19"></path>
    </g>
    <g id="g20">
        <path d="M 103.375 40.633263 C 102.117752 41.236343 100.7845 41.571724 99.375 41.639656 C 98.485252 41.585312 97.610252 41.669342 96.75 41.891258 C 96.385246 41.813766 96.093498 41.64595 95.875 41.388062 C 97.293999 41.429832 98.710747 41.387802 100.125 41.26226 C 101.208748 41.093697 102.208748 40.716293 103.125 40.130066 C 103.324501 40.245049 103.407753 40.412857 103.375 40.633263 Z" opacity="0.973" stroke="none" fill-rule="evenodd" fill="#79379d" id="path20"></path>
    </g>
    <g id="g21">
        <path d="M 117.125 41.136459 C 117.752998 41.316605 117.752998 41.568207 117.125 41.891258 C 116.978249 41.706841 116.978249 41.455238 117.125 41.136459 Z" opacity="0.008" stroke="none" fill-rule="evenodd" fill="#060606" id="path21"></path>
    </g>
    <g id="g22">
        <path d="M 98.625 44.155655 C 99.355499 44.498833 98.522247 44.540855 96.125 44.281448 C 95.595253 44.25679 95.178497 44.047211 94.875 43.652451 C 96.219749 43.487396 97.553253 43.277817 98.875 43.023453 C 99.243248 42.844818 99.410004 42.551453 99.375 42.14286 C 100.538254 41.849747 101.70475 41.640167 102.875 41.513855 C 102.429749 42.076683 101.929749 42.57988 101.375 43.023453 C 99.831749 43.509544 98.248497 43.761139 96.625 43.778252 C 97.234253 44.124199 97.900749 44.25 98.625 44.155655 Z" opacity="0.98" stroke="none" fill-rule="evenodd" fill="#7a389e" id="path22"></path>
    </g>
    <g id="g23">
        <path d="M 117.375 43.904053 C 117.57225 43.975258 117.738998 44.101059 117.875 44.281448 C 117.545998 44.414299 117.37925 44.288498 117.375 43.904053 Z" opacity="0.004" stroke="none" fill-rule="evenodd" fill="#000000" id="path23"></path>
    </g>
    <g id="g24">
        <path d="M 105.375 43.904053 C 106.241501 44.057274 106.491501 44.518463 106.125 45.287842 C 105.685249 45.488625 105.268501 45.446602 104.875 45.162048 C 105.237503 44.822388 105.404251 44.403229 105.375 43.904053 Z" stroke="none" fill-rule="evenodd" fill="#1d151b" id="path24"></path>
    </g>
    <g id="g25">
        <path d="M 95.125 45.162048 C 93.098251 44.663887 91.139999 43.992867 89.25 43.149254 C 88.958252 43.23304 88.666748 43.31707 88.375 43.400848 C 88.98275 44.375298 89.649498 45.297905 90.375 46.168442 C 89.907249 46.078117 89.532249 45.826523 89.25 45.413643 C 88.742752 44.777351 88.2845 44.106339 87.875 43.400848 C 88.07 42.908974 88.445 42.657372 89 42.646057 C 91.128754 43.31707 93.170502 44.155655 95.125 45.162048 Z" opacity="0.898" stroke="none" fill-rule="evenodd" fill="#1d1516" id="path25"></path>
    </g>
    <g id="g26">
        <path d="M 103.625 43.904053 C 103.874001 43.882416 104.082253 43.966446 104.25 44.155655 C 104.373497 44.566765 104.415001 44.986176 104.375 45.413643 C 104.041748 45.413643 103.708252 45.413643 103.375 45.413643 C 103.331253 44.880005 103.414749 44.376801 103.625 43.904053 Z" stroke="none" fill-rule="evenodd" fill="#0e080a" id="path26"></path>
    </g>
    <g id="g27">
        <path d="M 95.125 45.162048 C 96.766502 45.641594 98.432999 46.103027 100.125 46.545845 C 102.502251 46.753159 104.835747 46.711403 107.125 46.420044 C 108.57975 46.236382 110.038254 46.068558 111.5 45.916847 C 112.041748 45.958862 112.583252 46.000626 113.125 46.042648 C 113.313004 46.211472 113.3965 46.421051 113.375 46.671638 C 112.917252 46.295502 112.375504 46.127686 111.75 46.168442 C 108.776001 46.72599 105.776001 47.061371 102.75 47.174835 C 100.018753 47.064644 97.476997 46.393875 95.125 45.162048 Z" opacity="0.957" stroke="none" fill-rule="evenodd" fill="#22181b" id="path27"></path>
    </g>
    <g id="g28">
        <path d="M 117.125 46.420044 C 117.444252 46.720451 117.611 47.13961 117.625 47.67804 C 117.583252 48.09745 117.541748 48.516624 117.5 48.936035 C 117.293503 48.107513 117.168503 47.268936 117.125 46.420044 Z" opacity="0.006" stroke="none" fill-rule="evenodd" fill="#000000" id="path28"></path>
    </g>
    <g id="g29">
        <path d="M 95.125 45.162048 C 97.476997 46.393875 100.018753 47.064644 102.75 47.174835 C 105.776001 47.061371 108.776001 46.72599 111.75 46.168442 C 112.375504 46.127686 112.917252 46.295502 113.375 46.671638 C 113.415749 47.264656 113.374252 47.851639 113.25 48.432838 C 112.536247 49.366524 111.661247 50.037285 110.625 50.445625 C 107.984001 50.933731 105.317253 51.059532 102.625 50.823029 C 100.521248 50.438332 98.437752 49.97715 96.375 49.439232 C 95.6175 48.960434 94.784248 48.624809 93.875 48.432838 C 92.710251 47.678787 91.543747 46.923996 90.375 46.168442 C 89.649498 45.297905 88.98275 44.375298 88.375 43.400848 C 88.666748 43.31707 88.958252 43.23304 89.25 43.149254 C 91.139999 43.992867 93.098251 44.663887 95.125 45.162048 Z" opacity="0.973" stroke="none" fill-rule="evenodd" fill="#e68665" id="path29"></path>
    </g>
    <g id="g30">
        <path d="M 105.125 32.33049 C 106.082253 31.999886 106.873749 31.412903 107.5 30.569298 C 107.67775 29.965714 107.636002 29.378731 107.375 28.808105 C 106.565498 27.950912 105.64875 27.237877 104.625 26.66951 C 101.722252 25.47567 98.722252 25.224075 95.625 25.914711 C 91.634247 26.829521 88.759247 29.135941 87 32.833687 C 86.183502 36.393814 85.933502 39.999992 86.25 43.652451 C 86.876747 45.632294 87.376747 47.645088 87.75 49.690834 C 88.102501 51.833206 89.060753 53.636414 90.625 55.100212 C 91.937248 55.685432 93.270752 56.272411 94.625 56.861404 C 94.9785 57.362843 95.2285 57.908062 95.375 58.496803 C 93.413254 57.383728 91.413254 56.335312 89.375 55.351814 C 88.74025 55.151539 88.156998 55.193558 87.625 55.477612 C 87.379501 55.638889 87.129501 55.806454 86.875 55.980808 C 85.584999 51.714195 84.834999 47.353218 84.625 42.897652 C 84.167747 38.229736 85.167747 33.952553 87.625 30.066093 C 88.529747 29.32338 89.362999 28.484795 90.125 27.55011 C 90.959251 26.87809 91.875999 26.333122 92.875 25.914711 C 100.777496 23.383881 107.319252 25.354652 112.5 31.827293 C 112.671997 32.036621 112.630249 32.204185 112.375 32.33049 C 109.961746 31.676834 107.544998 31.676834 105.125 32.33049 Z" stroke="none" fill-rule="evenodd" fill="#7e3ca1" id="path30"></path>
    </g>
    <g id="g31">
        <path d="M 100.125 30.317696 C 100.139999 30.181076 100.223251 30.097298 100.375 30.066093 C 100.698753 30.216553 101.031998 30.342354 101.375 30.443497 C 102.655502 30.520988 103.905502 30.563004 105.125 30.569298 C 104.665749 31.060417 104.082253 31.312012 103.375 31.324097 C 102.194748 31.239555 101.111504 30.903931 100.125 30.317696 Z" stroke="none" fill-rule="evenodd" fill="#231821" id="path31"></path>
    </g>
    <g id="g32">
        <path d="M 100.875 28.808105 C 101.736504 29.167389 102.653252 29.376968 103.625 29.437103 C 102.926498 29.828842 102.176498 29.912628 101.375 29.688698 C 101.04425 29.483391 100.877747 29.189781 100.875 28.808105 Z" stroke="none" fill-rule="evenodd" fill="#1b1318" id="path32"></path>
    </g>
    <g id="g33">
        <path d="M 90.375 46.168442 C 91.543747 46.923996 92.710251 47.678787 93.875 48.432838 C 92.462753 48.057953 91.295998 47.303162 90.375 46.168442 Z" opacity="0.91" stroke="none" fill-rule="evenodd" fill="#1b1317" id="path33"></path>
    </g>
    <g id="g34">
        <path d="M 90.125 44.910446 C 90.139999 44.773827 90.223251 44.690041 90.375 44.658852 C 97.097748 48.015945 104.181 49.148132 111.625 48.055443 C 110.834999 48.400383 110.001503 48.651978 109.125 48.810234 C 107.125 48.97805 105.125 48.97805 103.125 48.810234 C 100.544502 48.27961 97.96125 47.776413 95.375 47.300636 C 93.554001 46.635414 91.804001 45.838593 90.125 44.910446 Z" opacity="0.937" stroke="none" fill-rule="evenodd" fill="#221918" id="path34"></path>
    </g>
    <g id="g35">
        <path d="M 93.875 48.432838 C 94.784248 48.624809 95.6175 48.960434 96.375 49.439232 C 95.425751 49.345634 94.592499 49.01001 93.875 48.432838 Z" opacity="0.925" stroke="none" fill-rule="evenodd" fill="#120e0f" id="path35"></path>
    </g>
    <g id="g36">
        <path d="M 113.375 46.671638 C 113.780502 48.793373 112.863747 50.051369 110.625 50.445625 C 111.661247 50.037285 112.536247 49.366524 113.25 48.432838 C 113.374252 47.851639 113.415749 47.264656 113.375 46.671638 Z" opacity="0.922" stroke="none" fill-rule="evenodd" fill="#22181a" id="path36"></path>
    </g>
    <g id="g37">
        <path d="M 99.625 50.697227 C 100.928497 51.066582 102.261749 51.234398 103.625 51.200424 C 103.574753 52.012589 103.658249 52.80941 103.875 53.590622 C 103.545998 54.008022 103.129501 54.301384 102.625 54.471218 C 102.69725 53.678932 102.57225 52.924141 102.25 52.206825 C 101.428497 51.584366 100.553497 51.081169 99.625 50.697227 Z" opacity="0.971" stroke="none" fill-rule="evenodd" fill="#7b38a0" id="path37"></path>
    </g>
    <g id="g38">
        <path d="M 134.125 50.194031 C 134.742493 51.277916 134.742493 52.368347 134.125 53.464821 C 133.931503 52.384956 133.931503 51.294777 134.125 50.194031 Z" opacity="0.004" stroke="none" fill-rule="evenodd" fill="#8a3eb1" id="path38"></path>
    </g>
    <g id="g39">
        <path d="M 117.375 51.703629 C 117.56675 51.872704 117.733498 52.082283 117.875 52.332626 C 117.872749 52.767883 117.789497 53.229065 117.625 53.716423 C 117.379997 53.065781 117.296753 52.394775 117.375 51.703629 Z" opacity="0.008" stroke="none" fill-rule="evenodd" fill="#080808" id="path39"></path>
    </g>
    <g id="g40">
        <path d="M 102.625 70.070358 C 102.416496 70.384361 102.083252 70.552177 101.625 70.573563 C 100.292252 70.38385 99.250504 69.712845 98.5 68.560768 C 98.488998 69.129387 98.69725 69.632576 99.125 70.070358 C 98.819252 70.350647 98.486 70.39267 98.125 70.196159 C 97.074997 69.406143 96.824997 68.483528 97.375 67.428566 C 95.177002 66.40934 93.260246 65.025543 91.625 63.277187 C 92.860497 64.153 94.110497 65.033592 95.375 65.918976 C 95.958252 66.086792 96.541748 66.086792 97.125 65.918976 C 97.37925 65.655045 97.420998 65.361427 97.25 65.038376 C 94.3965 63.006462 91.688248 60.783836 89.125 58.371002 C 88.849998 58.26231 88.68325 58.388107 88.625 58.748402 C 88.877502 59.423439 89.127502 60.094204 89.375 60.761192 C 88.537003 59.957333 87.828751 59.034721 87.25 57.993603 C 87.016998 57.157539 87.141998 56.402744 87.625 55.72921 C 92.598747 56.795235 96.681999 59.31123 99.875 63.277187 C 99.958252 63.193405 100.041748 63.109367 100.125 63.025589 C 99.879997 62.652969 99.588249 62.317333 99.25 62.019192 C 99.078003 61.80986 99.119751 61.642296 99.375 61.515991 C 100.459747 61.180359 101.542999 60.844975 102.625 60.509594 C 102.911751 60.589603 103.120247 60.757168 103.25 61.012794 C 103.416748 60.677414 103.416748 60.341774 103.25 60.006397 C 102.1735 58.765762 101.757004 57.340199 102 55.72921 C 103.098 54.245281 104.431252 53.909897 106 54.722813 C 106.143997 55.195068 106.102249 55.656498 105.875 56.106609 C 105.421997 56.562504 104.963753 57.023689 104.5 57.490406 C 104.333252 57.658226 104.333252 57.825787 104.5 57.993603 C 105.916748 56.987206 107.333252 55.980808 108.75 54.974411 C 109.060249 54.627964 109.101997 54.29258 108.875 53.968018 C 108.57225 54.451591 108.238998 54.912773 107.875 55.351814 C 107.708252 55.51963 107.541748 55.51963 107.375 55.351814 C 107.67775 55.127132 107.67775 54.917553 107.375 54.722813 C 107.103996 55.015926 106.895752 55.351311 106.75 55.72921 C 106.672249 55.211922 106.547249 54.708725 106.375 54.219616 C 107.130501 53.041878 108.213753 52.538681 109.625 52.710022 C 112.737747 53.039871 113.779503 54.717278 112.75 57.742004 C 112.633751 58.102043 112.425247 58.395405 112.125 58.622601 C 112.362251 58.77784 112.570503 58.736073 112.75 58.496803 C 113.09375 57.595573 113.510498 56.756996 114 55.980808 C 115.893753 56.750957 116.393753 58.092731 115.5 60.006397 C 115.041748 60.467575 114.583252 60.929012 114.125 61.39019 C 115.179497 61.106388 115.888 60.393356 116.25 59.251598 C 116.389252 61.696892 115.430748 63.583885 113.375 64.912582 C 110.237251 66.123779 106.987251 66.710754 103.625 66.673775 C 104.068748 67.03582 104.568748 67.287415 105.125 67.428566 C 103.413254 67.638908 101.746498 67.974289 100.125 68.434967 C 104.554497 68.606567 104.638 68.94194 100.375 69.441368 C 101.051498 69.921417 101.801498 70.130997 102.625 70.070358 Z" stroke="none" fill-rule="evenodd" fill="#803ea3" id="path40"></path>
    </g>
    <g id="g41">
        <path d="M 117.625 55.980808 C 117.958252 56.148628 117.958252 56.148628 117.625 55.980808 Z" opacity="0.004" stroke="none" fill-rule="evenodd" fill="#000000" id="path41"></path>
    </g>
    <g id="g42">
        <path d="M 96.375 49.439232 C 98.437752 49.97715 100.521248 50.438332 102.625 50.823029 C 105.317253 51.059532 107.984001 50.933731 110.625 50.445625 C 110.180748 50.722389 109.680748 50.932228 109.125 51.074623 C 108.19725 51.118652 107.280502 51.244453 106.375 51.452026 C 106.648003 52.543465 107.231499 52.837082 108.125 52.332626 C 110.998253 51.637711 112.831497 52.686119 113.625 55.477612 C 115.579498 55.810226 116.621246 56.98444 116.75 59 C 116.934502 59.946266 116.85125 60.868877 116.5 61.76759 C 115.952499 62.704041 115.411003 63.626659 114.875 64.535179 C 111.916496 66.076477 108.749748 66.915306 105.375 67.051178 C 105.647499 67.3302 105.647499 67.581795 105.375 67.805969 C 104.722748 67.989647 104.056 68.115433 103.375 68.183365 C 103.80275 68.46843 103.92775 68.845825 103.75 69.315559 C 103.316498 69.504013 102.858253 69.629807 102.375 69.69297 C 102.514 69.789322 102.597252 69.915123 102.625 70.070358 C 101.801498 70.130997 101.051498 69.921417 100.375 69.441368 C 104.638 68.94194 104.554497 68.606567 100.125 68.434967 C 101.746498 67.974289 103.413254 67.638908 105.125 67.428566 C 104.568748 67.287415 104.068748 67.03582 103.625 66.673775 C 106.987251 66.710754 110.237251 66.123779 113.375 64.912582 C 115.430748 63.583885 116.389252 61.696892 116.25 59.251598 C 115.888 60.393356 115.179497 61.106388 114.125 61.39019 C 114.583252 60.929012 115.041748 60.467575 115.5 60.006397 C 116.393753 58.092731 115.893753 56.750957 114 55.980808 C 113.510498 56.756996 113.09375 57.595573 112.75 58.496803 C 112.570503 58.736073 112.362251 58.77784 112.125 58.622601 C 112.425247 58.395405 112.633751 58.102043 112.75 57.742004 C 113.779503 54.717278 112.737747 53.039871 109.625 52.710022 C 108.213753 52.538681 107.130501 53.041878 106.375 54.219616 C 106.547249 54.708725 106.672249 55.211922 106.75 55.72921 C 106.895752 55.351311 107.103996 55.015926 107.375 54.722813 C 107.67775 54.917553 107.67775 55.127132 107.375 55.351814 C 107.541748 55.51963 107.708252 55.51963 107.875 55.351814 C 108.238998 54.912773 108.57225 54.451591 108.875 53.968018 C 109.101997 54.29258 109.060249 54.627964 108.75 54.974411 C 107.333252 55.980808 105.916748 56.987206 104.5 57.993603 C 104.333252 57.825787 104.333252 57.658226 104.5 57.490406 C 104.963753 57.023689 105.421997 56.562504 105.875 56.106609 C 106.102249 55.656498 106.143997 55.195068 106 54.722813 C 104.431252 53.909897 103.098 54.245281 102 55.72921 C 101.757004 57.340199 102.1735 58.765762 103.25 60.006397 C 103.416748 60.341774 103.416748 60.677414 103.25 61.012794 C 103.120247 60.757168 102.911751 60.589603 102.625 60.509594 C 101.542999 60.844975 100.459747 61.180359 99.375 61.515991 C 99.119751 61.642296 99.078003 61.80986 99.25 62.019192 C 99.588249 62.317333 99.879997 62.652969 100.125 63.025589 C 100.041748 63.109367 99.958252 63.193405 99.875 63.277187 C 96.681999 59.31123 92.598747 56.795235 87.625 55.72921 C 87.625 55.645432 87.625 55.56139 87.625 55.477612 C 88.156998 55.193558 88.74025 55.151539 89.375 55.351814 C 91.413254 56.335312 93.413254 57.383728 95.375 58.496803 C 96.536499 59.371864 97.661499 60.294479 98.75 61.264393 C 99.925247 60.767235 101.133499 60.389835 102.375 60.132198 C 102.48925 60.028034 102.572746 59.902233 102.625 59.754795 C 101.762253 58.535797 101.387253 57.194023 101.5 55.72921 C 101.92675 55.342503 102.30175 54.923088 102.625 54.471218 C 103.129501 54.301384 103.545998 54.008022 103.875 53.590622 C 103.658249 52.80941 103.574753 52.012589 103.625 51.200424 C 102.261749 51.234398 100.928497 51.066582 99.625 50.697227 C 98.489754 50.428017 97.40625 50.008598 96.375 49.439232 Z" stroke="none" fill-rule="evenodd" fill="#190f18" id="path42"></path>
    </g>
    <g id="g43">
        <path d="M 104.125 51.452026 C 104.811752 51.373276 105.4785 51.457062 106.125 51.703629 C 106.281998 52.145935 106.531998 52.523331 106.875 52.835815 C 106.232498 53.620308 105.399002 53.913925 104.375 53.716423 C 104.210251 52.972939 104.126999 52.21814 104.125 51.452026 Z" opacity="0.973" stroke="none" fill-rule="evenodd" fill="#ed3eb0" id="path43"></path>
    </g>
    <g id="g44">
        <path d="M 115.375 39.878464 C 115.285248 40.349213 115.035248 40.726608 114.625 41.010658 C 113.398247 41.41674 112.148247 41.710365 110.875 41.891258 C 110.268997 41.813766 109.685753 41.897804 109.125 42.14286 C 109.827248 42.469933 110.494003 42.469933 111.125 42.14286 C 112.208504 41.932266 113.292 41.806465 114.375 41.765457 C 114.017998 42.315201 113.60125 42.818398 113.125 43.275055 C 112.057503 43.590561 110.973999 43.842155 109.875 44.029854 C 111.637253 44.504364 113.095497 44.043182 114.25 42.646057 C 114.333252 45.749031 114.416748 48.852249 114.5 51.955223 C 115.046753 54.186405 116.046753 56.199196 117.5 57.993603 C 119.445503 59.44709 121.028748 61.208282 122.25 63.277187 C 122.78775 64.819489 122.704498 66.329086 122 67.805969 C 121.164253 68.855896 120.289253 69.862297 119.375 70.825165 C 119.128754 70.253525 118.92025 69.666542 118.75 69.063965 C 118.570503 68.824692 118.362251 68.782928 118.125 68.938171 C 118.663254 73.432236 117.163254 77.080414 113.625 79.882729 C 115.232002 76.921906 116.14875 73.734909 116.375 70.32196 C 115.928001 70.393669 115.511253 70.309891 115.125 70.070358 C 115.417 69.638367 115.833748 69.470543 116.375 69.567162 C 116.473999 68.816895 116.307251 68.145889 115.875 67.554375 C 115.126503 67.868362 114.376503 67.868362 113.625 67.554375 C 114.11525 67.148544 114.698502 66.896942 115.375 66.799576 C 115.718002 65.925522 115.551498 65.170723 114.875 64.535179 C 115.411003 63.626659 115.952499 62.704041 116.5 61.76759 C 116.85125 60.868877 116.934502 59.946266 116.75 59 C 116.621246 56.98444 115.579498 55.810226 113.625 55.477612 C 112.831497 52.686119 110.998253 51.637711 108.125 52.332626 C 107.231499 52.837082 106.648003 52.543465 106.375 51.452026 C 107.280502 51.244453 108.19725 51.118652 109.125 51.074623 C 109.680748 50.932228 110.180748 50.722389 110.625 50.445625 C 112.863747 50.051369 113.780502 48.793373 113.375 46.671638 C 113.3965 46.421051 113.313004 46.211472 113.125 46.042648 C 112.583252 46.000626 112.041748 45.958862 111.5 45.916847 C 110.038254 46.068558 108.57975 46.236382 107.125 46.420044 C 108.000252 46.050194 108.917 45.714554 109.875 45.413643 C 110.096497 45.20607 110.179749 44.954475 110.125 44.658852 C 107.985748 44.438446 107.902496 44.06105 109.875 43.526649 C 110.208252 43.275055 110.208252 43.023453 109.875 42.771858 C 108.068748 42.987228 106.402 42.609833 104.875 41.639656 C 105.218246 41.679153 105.55175 41.637138 105.875 41.513855 C 105.204002 41.318115 104.62075 40.982735 104.125 40.507462 C 105.262749 40.755539 106.429253 41.007133 107.625 41.26226 C 110.404503 41.716904 112.987747 41.255722 115.375 39.878464 Z" stroke="none" fill-rule="evenodd" fill="#7e3ca1" id="path44"></path>
    </g>
    <g id="g45">
        <path d="M 110.875 41.891258 C 110.875 42.059074 110.958252 42.14286 111.125 42.14286 C 110.494003 42.469933 109.827248 42.469933 109.125 42.14286 C 109.685753 41.897804 110.268997 41.813766 110.875 41.891258 Z" opacity="0.953" stroke="none" fill-rule="evenodd" fill="#371f42" id="path45"></path>
    </g>
    <g id="g46">
        <path d="M 119.375 72.334755 C 119.708252 72.502571 119.708252 72.502571 119.375 72.334755 Z" opacity="0.004" stroke="none" fill-rule="evenodd" fill="#0e0500" id="path46"></path>
    </g>
    <g id="g47">
        <path d="M 115.375 39.878464 C 115.458252 39.878464 115.541748 39.878464 115.625 39.878464 C 115.253754 41.614998 115.003754 43.37619 114.875 45.162048 C 114.966248 47.116219 115.007751 49.212791 115 51.452026 C 115.621246 53.207184 116.496246 54.80056 117.625 56.23241 C 117.74675 56.477219 117.87175 56.728817 118 56.987206 C 119.498749 58.243942 120.915253 59.585724 122.25 61.012794 C 123.902496 63.576088 123.902496 66.175858 122.25 68.812363 C 121.353996 70.153893 120.3125 71.369873 119.125 72.460556 C 117.649246 78.370369 114.649246 83.318314 110.125 87.304901 C 108.747498 88.353569 107.247498 89.192398 105.625 89.820892 C 106.029251 90.638336 105.862747 91.309349 105.125 91.833694 C 105.422249 92.557793 105.755501 93.270828 106.125 93.972282 C 106.873749 94.131546 107.582001 94.383148 108.25 94.727081 C 108.379753 94.471451 108.588249 94.303894 108.875 94.223885 C 109.276001 94.334328 109.651001 94.502151 110 94.727081 C 110.25 94.559265 110.5 94.391693 110.75 94.223885 C 111.499001 94.488312 112.207497 94.823692 112.875 95.230278 C 113.136002 95.800911 113.17775 96.387886 113 96.99147 C 112.068253 99.662193 110.193253 101.004227 107.375 101.017059 C 105.652748 100.792625 103.986 100.583046 102.375 100.388062 C 101.851997 99.921844 101.601997 99.334869 101.625 98.626862 C 102.398003 96.744652 102.273003 94.941437 101.25 93.217484 C 100.919998 93.14225 100.544998 93.100243 100.125 93.091682 C 99.140747 92.603584 98.307251 91.932571 97.625 91.078888 C 95.038002 90.590538 92.788002 89.458336 90.875 87.682304 C 88.966003 88.95237 86.924248 89.958771 84.75 90.701492 C 84.026749 90.747536 83.276749 90.663498 82.5 90.449898 C 82.819504 91.368736 82.527748 92.039497 81.625 92.462685 C 81.296501 92.258141 81.004753 92.006546 80.75 91.707893 C 79.628754 93.266548 80.003754 94.230934 81.875 94.601273 C 82.248253 95.480118 82.873253 96.109116 83.75 96.488266 C 84.969498 98.262802 84.594498 99.646599 82.625 100.639656 C 80.727249 101.422127 78.893753 101.254318 77.125 100.136467 C 75.927254 98.720963 74.677254 97.378937 73.375 96.110878 C 73.688499 95.208641 74.313499 94.663673 75.25 94.475479 C 76.507248 92.63578 76.882248 90.622993 76.375 88.437096 C 76.708252 88.269287 76.708252 88.101723 76.375 87.933899 C 74.365501 86.071823 72.990501 83.807426 72.25 81.140717 C 72.166748 80.469711 72.083252 79.79895 72 79.127937 C 69.142754 77.285721 68.350998 74.811752 69.625 71.70575 C 68.043747 69.754105 67.668747 67.615517 68.5 65.289978 C 68.742996 64.835838 69.034752 64.416428 69.375 64.031982 C 68.494003 62.374447 68.202248 60.613255 68.5 58.748402 C 68.851501 58.016502 69.392998 57.513302 70.125 57.238808 C 70.054497 57.560349 69.887749 57.811947 69.625 57.993603 C 69.026497 58.454533 68.776497 59.08353 68.875 59.880596 C 69.326248 63.094524 70.742996 65.820099 73.125 68.057571 C 73.083252 68.14135 73.041748 68.225388 73 68.309166 C 72.774246 68.007004 72.48275 67.797165 72.125 67.680168 C 71.236504 66.661957 70.403252 65.613777 69.625 64.535179 C 69.300247 64.683624 69.092003 64.935226 69 65.289978 C 68.5 69.361099 69.958504 72.590134 73.375 74.97654 C 72.758751 74.834396 72.175499 74.540779 71.625 74.095947 C 71.0345 73.418648 70.450996 72.747635 69.875 72.08316 C 69.702003 72.21524 69.577003 72.383064 69.5 72.586349 C 69.333252 73.341148 69.333252 74.095947 69.5 74.850754 C 69.847 76.064468 70.472 77.112869 71.375 77.995735 C 72.985001 78.889908 74.651749 79.644714 76.375 80.260132 C 75.171753 80.303406 74.046753 80.009781 73 79.379532 C 73.255753 82.994751 74.880753 85.846382 77.875 87.933899 C 77.629997 88.306519 77.338249 88.642159 77 88.940292 C 76.706497 89.987206 77.039749 90.32283 78 89.946701 C 78.177002 90.979012 78.718498 91.230606 79.625 90.701492 C 79.559502 91.073357 79.642754 91.408737 79.875 91.707893 C 80.208252 91.456291 80.541748 91.204689 80.875 90.953094 C 81.070251 91.26432 81.320251 91.515923 81.625 91.707893 C 81.840752 91.136505 81.840752 90.549271 81.625 89.946701 C 84.626251 89.918015 87.376251 89.079437 89.875 87.430702 C 90.203003 87.268425 90.453003 87.016823 90.625 86.675911 C 89.841003 85.93898 89.174248 85.100395 88.625 84.159912 C 88.666748 84.076134 88.708252 83.992096 88.75 83.908318 C 89.154251 84.477684 89.612503 84.980881 90.125 85.417908 C 92.551247 87.982712 95.468002 89.785919 98.875 90.827286 C 99.095001 91.168457 99.178497 91.54586 99.125 91.959488 C 99.597504 92.010567 99.972504 91.842995 100.25 91.456291 C 100.372498 91.781601 100.414253 92.117241 100.375 92.462685 C 100.718246 92.50219 101.05175 92.460175 101.375 92.336891 C 101.418999 91.911179 101.543999 91.533791 101.75 91.204689 C 101.817749 92.117996 102.234497 92.369591 103 91.959488 C 103.054749 91.597687 103.179749 91.262306 103.375 90.953094 C 104.138 91.660332 104.804749 91.618324 105.375 90.827286 C 105.110001 90.260941 104.901749 89.715721 104.75 89.191895 C 108.056999 87.799553 110.890251 85.702972 113.25 82.901924 C 114.125 81.643921 115 80.385925 115.875 79.127937 C 115.833252 79.044144 115.791748 78.960114 115.75 78.876335 C 115.141502 80.081741 114.18325 80.752762 112.875 80.889122 C 112.942749 80.403549 113.192749 80.067909 113.625 79.882729 C 117.163254 77.080414 118.663254 73.432236 118.125 68.938171 C 118.362251 68.782928 118.570503 68.824692 118.75 69.063965 C 118.92025 69.666542 119.128754 70.253525 119.375 70.825165 C 120.289253 69.862297 121.164253 68.855896 122 67.805969 C 122.704498 66.329086 122.78775 64.819489 122.25 63.277187 C 121.028748 61.208282 119.445503 59.44709 117.5 57.993603 C 116.046753 56.199196 115.046753 54.186405 114.5 51.955223 C 114.416748 48.852249 114.333252 45.749031 114.25 42.646057 C 113.095497 44.043182 111.637253 44.504364 109.875 44.029854 C 110.973999 43.842155 112.057503 43.590561 113.125 43.275055 C 113.60125 42.818398 114.017998 42.315201 114.375 41.765457 C 113.292 41.806465 112.208504 41.932266 111.125 42.14286 C 110.958252 42.14286 110.875 42.059074 110.875 41.891258 C 112.148247 41.710365 113.398247 41.41674 114.625 41.010658 C 115.035248 40.726608 115.285248 40.349213 115.375 39.878464 Z" stroke="none" fill-rule="evenodd" fill="#151111" id="path47"></path>
    </g>
    <g id="g48">
        <path d="M 117.625 61.264393 C 121.982498 62.637367 122.81575 65.195381 120.125 68.938171 C 119.80175 69.061447 119.468246 69.10347 119.125 69.063965 C 119.557999 66.531113 119.016251 64.266724 117.5 62.27079 C 117.355247 61.911507 117.397003 61.575874 117.625 61.264393 Z" stroke="none" fill-rule="evenodd" fill="#925eae" id="path48"></path>
    </g>
    <g id="g49">
        <path d="M 91.625 63.277187 C 90.691498 62.590069 89.941498 61.751488 89.375 60.761192 C 89.127502 60.094204 88.877502 59.423439 88.625 58.748402 C 88.68325 58.388107 88.849998 58.26231 89.125 58.371002 C 91.688248 60.783836 94.3965 63.006462 97.25 65.038376 C 97.420998 65.361427 97.37925 65.655045 97.125 65.918976 C 96.541748 66.086792 95.958252 66.086792 95.375 65.918976 C 94.110497 65.033592 92.860497 64.153 91.625 63.277187 Z" stroke="none" fill-rule="evenodd" fill="#925dae" id="path49"></path>
    </g>
    <g id="g50">
        <path d="M 92.375 64.786781 C 93.488747 65.810028 94.738747 66.648865 96.125 67.30278 C 96.506752 68.415848 97.006752 69.464264 97.625 70.447762 C 98.338753 70.971085 99.005249 70.929321 99.625 70.32196 C 100.712753 71.18821 101.837753 71.272003 103 70.573563 C 103.132004 70.242455 103.007004 70.074631 102.625 70.070358 C 102.597252 69.915123 102.514 69.789322 102.375 69.69297 C 102.858253 69.629807 103.316498 69.504013 103.75 69.315559 C 103.92775 68.845825 103.80275 68.46843 103.375 68.183365 C 104.056 68.115433 104.722748 67.989647 105.375 67.805969 C 105.647499 67.581795 105.647499 67.3302 105.375 67.051178 C 108.749748 66.915306 111.916496 66.076477 114.875 64.535179 C 115.551498 65.170723 115.718002 65.925522 115.375 66.799576 C 114.698502 66.896942 114.11525 67.148544 113.625 67.554375 C 114.376503 67.868362 115.126503 67.868362 115.875 67.554375 C 116.307251 68.145889 116.473999 68.816895 116.375 69.567162 C 115.833748 69.470543 115.417 69.638367 115.125 70.070358 C 115.511253 70.309891 115.928001 70.393669 116.375 70.32196 C 116.14875 73.734909 115.232002 76.921906 113.625 79.882729 C 113.192749 80.067909 112.942749 80.403549 112.875 80.889122 C 111.109253 83.713333 108.734253 85.893936 105.75 87.430702 C 105.067497 86.883972 104.359253 86.883972 103.625 87.430702 C 102.997749 87.728096 102.664253 88.2313 102.625 88.940292 C 100.974503 89.341858 99.307999 89.55143 97.625 89.569298 C 94.792 88.729706 92.333748 87.261879 90.25 85.166306 C 90.150253 85.223679 90.108749 85.307716 90.125 85.417908 C 89.612503 84.980881 89.154251 84.477684 88.75 83.908318 C 88.708252 83.992096 88.666748 84.076134 88.625 84.159912 C 89.174248 85.100395 89.841003 85.93898 90.625 86.675911 C 90.453003 87.016823 90.203003 87.268425 89.875 87.430702 C 89.860001 87.294083 89.776749 87.210304 89.625 87.179108 C 87.896751 88.139206 86.146751 88.180977 84.375 87.304901 C 84.403252 86.478653 84.32 85.640076 84.125 84.788918 C 83.541748 84.621094 82.958252 84.621094 82.375 84.788918 C 82.008247 85.06517 81.799751 85.442566 81.75 85.921112 C 80.203003 84.638206 78.703003 83.296425 77.25 81.895523 C 77.127502 81.570206 77.085747 81.234566 77.125 80.889122 C 77.418747 80.944229 77.668747 80.860435 77.875 80.637527 C 75.466248 79.509605 73.216248 78.125809 71.125 76.486145 C 70.614998 75.936401 70.281502 75.307396 70.125 74.599152 C 70.859497 74.882942 71.609497 75.176575 72.375 75.479736 C 73.375 75.64756 74.375 75.64756 75.375 75.479736 C 72.7715 73.892914 70.8965 71.670525 69.75 68.812363 C 69.583252 68.392944 69.583252 67.973785 69.75 67.554375 C 69.890251 67.423035 70.056999 67.339249 70.25 67.30278 C 71.648247 68.827972 73.273247 70.08596 75.125 71.076767 C 75.208252 70.908943 75.291748 70.741371 75.375 70.573563 C 73.774498 68.109406 72.23275 65.593407 70.75 63.025589 C 70.439003 62.254688 70.230751 61.45787 70.125 60.635395 C 70.077248 60.138988 70.244003 59.761589 70.625 59.503197 C 71.479752 59.902233 72.229752 60.447201 72.875 61.138596 C 74.975502 62.321865 77.14225 63.412296 79.375 64.409378 C 81.697502 64.785515 84.030998 65.079132 86.375 65.289978 C 88.368752 65.038887 90.368752 64.871063 92.375 64.786781 Z" stroke="none" fill-rule="evenodd" fill="#925eae" id="path50"></path>
    </g>
    <g id="g51">
        <path d="M 80.125 76.611938 C 80.903503 76.455688 81.653503 76.623268 82.375 77.115135 C 81.757751 77.469391 81.174248 77.888809 80.625 78.373138 C 80.4785 78.320541 80.3535 78.236519 80.25 78.121536 C 80.126251 77.62513 80.084503 77.121933 80.125 76.611938 Z" stroke="none" fill-rule="evenodd" fill="#181113" id="path51"></path>
    </g>
    <g id="g52">
        <path d="M 114.375 70.573563 C 115.283752 70.612808 115.366997 70.906174 114.625 71.454155 C 113.852753 71.491394 113.144501 71.700974 112.5 72.08316 C 111.638 72.159637 110.846497 72.075859 110.125 71.831558 C 110.177254 71.684113 110.26075 71.558327 110.375 71.454155 C 111.747253 71.183685 113.080498 70.890327 114.375 70.573563 Z" stroke="none" fill-rule="evenodd" fill="#7f3da2" id="path52"></path>
    </g>
    <g id="g53">
        <path d="M 70.125 57.238808 C 71.233253 57.418449 72.150002 57.921646 72.875 58.748402 C 72.708252 58.748402 72.625 58.832184 72.625 59 C 71.817749 58.138271 70.817749 57.802891 69.625 57.993603 C 69.887749 57.811947 70.054497 57.560349 70.125 57.238808 Z" stroke="none" fill-rule="evenodd" fill="#271730" id="path53"></path>
    </g>
    <g id="g54">
        <path d="M 69.625 57.993603 C 70.817749 57.802891 71.817749 58.138271 72.625 59 C 74.452499 60.256233 76.369247 61.388432 78.375 62.396587 C 80.160751 63.01376 81.994003 63.391163 83.875 63.528782 C 85.692001 63.830956 86.733749 63.07616 87 61.264393 C 86.863503 60.388325 86.946999 59.549744 87.25 58.748402 C 88.66925 61.023365 90.377502 63.036156 92.375 64.786781 C 90.368752 64.871063 88.368752 65.038887 86.375 65.289978 C 84.030998 65.079132 81.697502 64.785515 79.375 64.409378 C 77.14225 63.412296 74.975502 62.321865 72.875 61.138596 C 72.229752 60.447201 71.479752 59.902233 70.625 59.503197 C 70.244003 59.761589 70.077248 60.138988 70.125 60.635395 C 70.230751 61.45787 70.439003 62.254688 70.75 63.025589 C 72.23275 65.593407 73.774498 68.109406 75.375 70.573563 C 75.291748 70.741371 75.208252 70.908943 75.125 71.076767 C 73.273247 70.08596 71.648247 68.827972 70.25 67.30278 C 70.056999 67.339249 69.890251 67.423035 69.75 67.554375 C 69.583252 67.973785 69.583252 68.392944 69.75 68.812363 C 70.8965 71.670525 72.7715 73.892914 75.375 75.479736 C 74.375 75.64756 73.375 75.64756 72.375 75.479736 C 71.609497 75.176575 70.859497 74.882942 70.125 74.599152 C 70.281502 75.307396 70.614998 75.936401 71.125 76.486145 C 73.216248 78.125809 75.466248 79.509605 77.875 80.637527 C 77.668747 80.860435 77.418747 80.944229 77.125 80.889122 C 77.085747 81.234566 77.127502 81.570206 77.25 81.895523 C 78.703003 83.296425 80.203003 84.638206 81.75 85.921112 C 81.799751 85.442566 82.008247 85.06517 82.375 84.788918 C 82.958252 84.621094 83.541748 84.621094 84.125 84.788918 C 84.32 85.640076 84.403252 86.478653 84.375 87.304901 C 86.146751 88.180977 87.896751 88.139206 89.625 87.179108 C 89.776749 87.210304 89.860001 87.294083 89.875 87.430702 C 87.376251 89.079437 84.626251 89.918015 81.625 89.946701 C 81.840752 90.549271 81.840752 91.136505 81.625 91.707893 C 81.320251 91.515923 81.070251 91.26432 80.875 90.953094 C 80.541748 91.204689 80.208252 91.456291 79.875 91.707893 C 79.642754 91.408737 79.559502 91.073357 79.625 90.701492 C 78.718498 91.230606 78.177002 90.979012 78 89.946701 C 77.039749 90.32283 76.706497 89.987206 77 88.940292 C 77.338249 88.642159 77.629997 88.306519 77.875 87.933899 C 74.880753 85.846382 73.255753 82.994751 73 79.379532 C 74.046753 80.009781 75.171753 80.303406 76.375 80.260132 C 74.651749 79.644714 72.985001 78.889908 71.375 77.995735 C 70.472 77.112869 69.847 76.064468 69.5 74.850754 C 69.333252 74.095947 69.333252 73.341148 69.5 72.586349 C 69.577003 72.383064 69.702003 72.21524 69.875 72.08316 C 70.450996 72.747635 71.0345 73.418648 71.625 74.095947 C 72.175499 74.540779 72.758751 74.834396 73.375 74.97654 C 69.958504 72.590134 68.5 69.361099 69 65.289978 C 69.092003 64.935226 69.300247 64.683624 69.625 64.535179 C 70.403252 65.613777 71.236504 66.661957 72.125 67.680168 C 72.48275 67.797165 72.774246 68.007004 73 68.309166 C 73.041748 68.225388 73.083252 68.14135 73.125 68.057571 C 70.742996 65.820099 69.326248 63.094524 68.875 59.880596 C 68.776497 59.08353 69.026497 58.454533 69.625 57.993603 Z" stroke="none" fill-rule="evenodd" fill="#7e3ca1" id="path54"></path>
    </g>
    <g id="g55">
        <path d="M 80.875 61.012794 C 81.096497 60.691753 81.346497 60.691753 81.625 61.012794 C 81.393753 61.279991 81.143753 61.279991 80.875 61.012794 Z" opacity="0.008" stroke="none" fill-rule="evenodd" fill="#9245cf" id="path55"></path>
    </g>
    <g id="g56">
        <path d="M 83.375 85.166306 C 83.751999 85.815437 83.585251 86.318634 82.875 86.675911 C 82.469002 86.331467 82.344002 85.912048 82.5 85.417908 C 83.044502 86.16465 83.335999 86.080872 83.375 85.166306 Z" stroke="none" fill-rule="evenodd" fill="#2a1a2a" id="path56"></path>
    </g>
    <g id="g57">
        <path d="M 74.375 86.172714 C 74.708252 86.340523 74.708252 86.340523 74.375 86.172714 Z" opacity="0.004" stroke="none" fill-rule="evenodd" fill="#000000" id="path57"></path>
    </g>
    <g id="g58">
        <path d="M 74.125 88.185501 C 73.773499 88.304504 73.60675 88.556099 73.625 88.940292 C 73.026001 88.606178 73.026001 88.187012 73.625 87.682304 C 73.880501 87.771622 74.047249 87.939438 74.125 88.185501 Z" opacity="0.01" stroke="none" fill-rule="evenodd" fill="#090506" id="path58"></path>
    </g>
    <g id="g59">
        <path d="M 76.375 87.933899 C 76.375 88.101723 76.375 88.269287 76.375 88.437096 C 75.766747 88.173416 75.766747 88.005859 76.375 87.933899 Z" opacity="0.012" stroke="none" fill-rule="evenodd" fill="#7c27a8" id="path59"></path>
    </g>
    <g id="g60">
        <path d="M 90.125 85.417908 C 90.108749 85.307716 90.150253 85.223679 90.25 85.166306 C 92.333748 87.261879 94.792 88.729706 97.625 89.569298 C 99.307999 89.55143 100.974503 89.341858 102.625 88.940292 C 102.664253 88.2313 102.997749 87.728096 103.625 87.430702 C 104.359253 86.883972 105.067497 86.883972 105.75 87.430702 C 108.734253 85.893936 111.109253 83.713333 112.875 80.889122 C 114.18325 80.752762 115.141502 80.081741 115.75 78.876335 C 115.791748 78.960114 115.833252 79.044144 115.875 79.127937 C 115 80.385925 114.125 81.643921 113.25 82.901924 C 110.890251 85.702972 108.056999 87.799553 104.75 89.191895 C 104.901749 89.715721 105.110001 90.260941 105.375 90.827286 C 104.804749 91.618324 104.138 91.660332 103.375 90.953094 C 103.179749 91.262306 103.054749 91.597687 103 91.959488 C 102.234497 92.369591 101.817749 92.117996 101.75 91.204689 C 101.543999 91.533791 101.418999 91.911179 101.375 92.336891 C 101.05175 92.460175 100.718246 92.50219 100.375 92.462685 C 100.414253 92.117241 100.372498 91.781601 100.25 91.456291 C 99.972504 91.842995 99.597504 92.010567 99.125 91.959488 C 99.178497 91.54586 99.095001 91.168457 98.875 90.827286 C 95.468002 89.785919 92.551247 87.982712 90.125 85.417908 Z" stroke="none" fill-rule="evenodd" fill="#7f3da2" id="path60"></path>
    </g>
    <g id="g61">
        <path d="M 103.625 87.430702 C 102.911751 87.257355 102.495247 86.796173 102.375 86.046906 C 102.612251 85.891678 102.820503 85.933441 103 86.172714 C 103.359497 86.52494 103.567749 86.944359 103.625 87.430702 Z" stroke="none" fill-rule="evenodd" fill="#1e151c" id="path61"></path>
    </g>
    <g id="g62">
        <path d="M 103.625 85.66951 C 104.226997 85.874565 104.435249 86.293724 104.25 86.927505 C 103.976501 86.530479 103.767998 86.111061 103.625 85.66951 Z" stroke="none" fill-rule="evenodd" fill="#1d151d" id="path62"></path>
    </g>
    <g id="g63">
        <path d="M 128.375 89.443497 C 128.474243 89.185616 128.640747 89.1436 128.875 89.317696 C 128.726501 89.434441 128.559753 89.476456 128.375 89.443497 Z" opacity="0.004" stroke="none" fill-rule="evenodd" fill="#9535aa" id="path63"></path>
    </g>
    <g id="g64">
        <path d="M 74.125 88.185501 C 74.561996 88.509811 74.645248 88.887215 74.375 89.317696 C 74.751747 89.528282 74.876747 89.821899 74.75 90.198296 C 74.258499 89.876244 73.883499 89.456833 73.625 88.940292 C 73.60675 88.556099 73.773499 88.304504 74.125 88.185501 Z" opacity="0.008" stroke="none" fill-rule="evenodd" fill="#facac0" id="path64"></path>
    </g>
    <g id="g65">
        <path d="M 106.875 89.695099 C 107.500252 89.697861 107.542 89.865677 107 90.198296 C 106.884003 90.048843 106.842247 89.881035 106.875 89.695099 Z" opacity="0.004" stroke="none" fill-rule="evenodd" fill="#9100ea" id="path65"></path>
    </g>
    <g id="g66">
        <path d="M 108.625 89.191895 C 108.809753 89.158936 108.976501 89.200958 109.125 89.317696 C 108.883499 89.739883 108.550247 89.9077 108.125 89.820892 C 108.345253 89.642761 108.511749 89.43293 108.625 89.191895 Z" opacity="0.004" stroke="none" fill-rule="evenodd" fill="#920aa4" id="path66"></path>
    </g>
    <g id="g67">
        <path d="M 106.125 89.946701 C 106.458252 90.11451 106.458252 90.11451 106.125 89.946701 Z" opacity="0.008" stroke="none" fill-rule="evenodd" fill="#bd2ee8" id="path67"></path>
    </g>
    <g id="g68">
        <path d="M 75.875 90.953094 C 75.87925 90.568642 76.045998 90.442848 76.375 90.575691 C 76.238998 90.756096 76.07225 90.881889 75.875 90.953094 Z" opacity="0.012" stroke="none" fill-rule="evenodd" fill="#0b0706" id="path68"></path>
    </g>
    <g id="g69">
        <path d="M 106.625 90.449898 C 106.888 90.412407 107.138 90.45417 107.375 90.575691 C 106.977501 90.83886 106.602501 91.132484 106.25 91.456291 C 106.175003 91.062279 106.300003 90.726906 106.625 90.449898 Z" opacity="0.02" stroke="none" fill-rule="evenodd" fill="#742495" id="path69"></path>
    </g>
    <g id="g70">
        <path d="M 75.875 90.953094 C 75.708252 91.120911 75.708252 91.120911 75.875 90.953094 Z" opacity="0.004" stroke="none" fill-rule="evenodd" fill="#000000" id="path70"></path>
    </g>
    <g id="g71">
        <path d="M 78.125 91.204689 C 78.952003 91.07235 79.4935 91.407738 79.75 92.211082 C 79.326248 93.357376 79.6595 94.196213 80.75 94.727081 C 80.874252 95.392807 80.916 96.06382 80.875 96.739868 C 79.791748 96.739868 78.708252 96.739868 77.625 96.739868 C 77.375999 96.761505 77.167747 96.677483 77 96.488266 C 76.875 95.985069 76.75 95.48188 76.625 94.978676 C 77.228996 93.892281 77.603996 92.718063 77.75 91.456291 C 77.845749 91.316399 77.970749 91.23262 78.125 91.204689 Z" opacity="0.973" stroke="none" fill-rule="evenodd" fill="#f7b9ab" id="path71"></path>
    </g>
    <g id="g72">
        <path d="M 107.625 96.236671 C 106.708252 96.65609 106.041748 97.326851 105.625 98.249474 C 105.291748 98.249474 105.125 98.417282 105.125 98.752663 C 104.652496 98.803741 104.277496 98.636169 104 98.249474 C 103.926003 96.360718 103.384499 94.599518 102.375 92.965881 C 102.560753 92.794289 102.727249 92.62648 102.875 92.462685 C 103.156754 92.30619 103.406754 92.096619 103.625 91.833694 C 103.986 91.637184 104.319252 91.679207 104.625 91.959488 C 104.875504 92.928902 105.292252 93.809502 105.875 94.601273 C 106.963501 94.706444 107.963501 95.042084 108.875 95.607681 C 108.377251 95.701775 107.960503 95.911354 107.625 96.236671 Z" opacity="0.973" stroke="none" fill-rule="evenodd" fill="#f9bbad" id="path72"></path>
    </g>
    <g id="g73">
        <path d="M 78.125 91.204689 C 77.970749 91.23262 77.845749 91.316399 77.75 91.456291 C 77.603996 92.718063 77.228996 93.892281 76.625 94.978676 C 76.75 95.48188 76.875 95.985069 77 96.488266 C 77.167747 96.677483 77.375999 96.761505 77.625 96.739868 C 77.458252 96.907684 77.291748 97.075256 77.125 97.243073 C 76.025253 97.047325 75.525253 96.376556 75.625 95.230278 C 75.881752 94.295074 76.340248 93.456505 77 92.714279 C 77.124252 92.048561 77.166 91.377541 77.125 90.701492 C 77.595001 90.633308 77.928253 90.801125 78.125 91.204689 Z" opacity="0.973" stroke="none" fill-rule="evenodd" fill="#df9382" id="path73"></path>
    </g>
    <g id="g74">
        <path d="M 110.625 94.978676 C 111.084251 95.013657 111.167503 95.181465 110.875 95.48188 C 110.675499 95.366898 110.592247 95.199081 110.625 94.978676 Z" opacity="0.976" stroke="none" fill-rule="evenodd" fill="#ac041a" id="path74"></path>
    </g>
    <g id="g75">
        <path d="M 81.625 96.488266 C 81.625 96.57206 81.625 96.65609 81.625 96.739868 C 81.470749 96.767799 81.345749 96.851578 81.25 96.99147 C 81.045502 96.305367 81.086998 95.634338 81.375 94.978676 C 81.616501 95.455711 81.699753 95.958908 81.625 96.488266 Z" opacity="0.976" stroke="none" fill-rule="evenodd" fill="#2a60a3" id="path75"></path>
    </g>
    <g id="g76">
        <path d="M 111.375 94.978676 C 111.835999 95.155807 111.960999 95.491188 111.75 95.985069 C 111.239754 96.2173 110.697998 96.301086 110.125 96.236671 C 110.167503 95.90406 110.084251 95.610435 109.875 95.356079 C 110.268997 95.394325 110.602249 95.603897 110.875 95.985069 C 111.277748 95.778763 111.444504 95.44313 111.375 94.978676 Z" opacity="0.973" stroke="none" fill-rule="evenodd" fill="#eba795" id="path76"></path>
    </g>
    <g id="g77">
        <path d="M 107.125 97.997871 C 106.791748 98.16568 106.541748 98.417282 106.375 98.752663 C 106.059998 99.222404 105.64325 99.557785 105.125 99.759056 C 105.125 99.507462 105.125 99.255867 105.125 99.004265 C 105.125 98.920486 105.125 98.836449 105.125 98.752663 C 105.125 98.417282 105.291748 98.249474 105.625 98.249474 C 106.375 97.662483 107.041748 96.99147 107.625 96.236671 C 109.265747 96.340576 109.598999 95.837379 108.625 94.727081 C 108.708252 94.643295 108.791748 94.559265 108.875 94.475479 C 109.329002 94.882576 109.662247 95.385765 109.875 95.985069 C 109.196747 96.338577 108.530251 96.715965 107.875 97.117271 C 107.484253 97.308235 107.234253 97.601845 107.125 97.997871 Z" opacity="0.969" stroke="none" fill-rule="evenodd" fill="#2f60a1" id="path77"></path>
    </g>
    <g id="g78">
        <path d="M 79.125 97.494675 C 78.427498 97.424721 77.802498 97.592545 77.25 97.997871 C 76.829247 97.827789 76.787498 97.576195 77.125 97.243073 C 78.119003 97.033997 79.119003 96.992218 80.125 97.117271 C 79.735497 97.170105 79.402252 97.295906 79.125 97.494675 Z" opacity="0.988" stroke="none" fill-rule="evenodd" fill="#2d67ae" id="path78"></path>
    </g>
    <g id="g79">
        <path d="M 102.875 92.462685 C 102.727249 92.62648 102.560753 92.794289 102.375 92.965881 C 103.384499 94.599518 103.926003 96.360718 104 98.249474 C 104.277496 98.636169 104.652496 98.803741 105.125 98.752663 C 105.125 98.836449 105.125 98.920486 105.125 99.004265 C 103.216751 99.474495 102.341751 98.719704 102.5 96.739868 C 102.693001 96.400467 102.984749 96.190887 103.375 96.110878 C 102.642998 96.020302 102.476501 95.684921 102.875 95.104477 C 102.555748 94.25206 102.139 93.455246 101.625 92.714279 C 102.011253 92.474762 102.428001 92.390984 102.875 92.462685 Z" opacity="0.973" stroke="none" fill-rule="evenodd" fill="#db9282" id="path79"></path>
    </g>
    <g id="g80">
        <path d="M 107.625 96.236671 C 107.041748 96.99147 106.375 97.662483 105.625 98.249474 C 106.041748 97.326851 106.708252 96.65609 107.625 96.236671 Z" opacity="0.961" stroke="none" fill-rule="evenodd" fill="#262b47" id="path80"></path>
    </g>
    <g id="g81">
        <path d="M 111.625 96.739868 C 111.89325 96.928825 111.934998 97.180428 111.75 97.494675 C 111.100754 98.094978 110.475754 98.723976 109.875 99.381668 C 109.638 99.503181 109.388 99.544945 109.125 99.507462 C 109.376503 99.282028 109.376503 99.114464 109.125 99.004265 C 109.059502 98.632401 109.142754 98.29702 109.375 97.997871 C 109.5215 98.050453 109.6465 98.134483 109.75 98.249474 C 109.804749 97.887672 109.929749 97.552292 110.125 97.243073 C 110.876251 97.685638 111.376251 97.517822 111.625 96.739868 Z" opacity="0.973" stroke="none" fill-rule="evenodd" fill="#563d39" id="path81"></path>
    </g>
    <g id="g82">
        <path d="M 95.375 97.746269 C 96.310753 97.735962 96.352501 97.90377 95.5 98.249474 C 95.384003 98.100021 95.342247 97.932205 95.375 97.746269 Z" opacity="0.004" stroke="none" fill-rule="evenodd" fill="#3a3d3a" id="path82"></path>
    </g>
    <g id="g83">
        <path d="M 97.375 97.494675 C 97.668747 97.439568 97.918747 97.523361 98.125 97.746269 C 97.644753 98.03334 97.144753 98.075363 96.625 97.872063 C 96.93425 97.813698 97.18425 97.687904 97.375 97.494675 Z" opacity="0.004" stroke="none" fill-rule="evenodd" fill="#762718" id="path83"></path>
    </g>
    <g id="g84">
        <path d="M 83.375 97.746269 C 82.99575 97.743507 82.704002 97.575935 82.5 97.243073 C 82.376999 97.507004 82.418503 97.758598 82.625 97.997871 C 82.282997 98.273117 81.991249 98.189079 81.75 97.746269 C 82.000999 98.791168 81.709251 98.958977 80.875 98.249474 C 80.443748 98.379044 80.027 98.54686 79.625 98.752663 C 80.143997 98.903625 80.643997 98.987411 81.125 99.004265 C 80.860252 99.305183 80.526749 99.472992 80.125 99.507462 C 77.068748 98.034851 77.318748 97.447876 80.875 97.746269 C 81.361504 97.611664 81.611504 97.276276 81.625 96.739868 C 81.625 96.65609 81.625 96.57206 81.625 96.488266 C 81.78775 96.339577 81.954498 96.17202 82.125 95.985069 C 82.541748 96.194656 82.958252 96.404488 83.375 96.614075 C 83.603249 96.969833 83.603249 97.347237 83.375 97.746269 Z" opacity="0.975" stroke="none" fill-rule="evenodd" fill="#d69282" id="path84"></path>
    </g>
    <g id="g85">
        <path d="M 111.625 96.739868 C 111.376251 97.517822 110.876251 97.685638 110.125 97.243073 C 109.929749 97.552292 109.804749 97.887672 109.75 98.249474 C 109.6465 98.134483 109.5215 98.050453 109.375 97.997871 C 109.142754 98.29702 109.059502 98.632401 109.125 99.004265 C 108.856247 98.737061 108.606247 98.737061 108.375 99.004265 C 109.027252 99.321281 108.985748 99.572884 108.25 99.759056 C 107.467247 99.629738 106.842247 99.294106 106.375 98.752663 C 106.541748 98.417282 106.791748 98.16568 107.125 97.997871 C 108.029251 97.396049 108.987747 96.892845 110 96.488266 C 110.292 96.742142 110.583748 96.993736 110.875 97.243073 C 111.066254 96.963287 111.316254 96.795479 111.625 96.739868 Z" opacity="0.973" stroke="none" fill-rule="evenodd" fill="#eca999" id="path85"></path>
    </g>
    <g id="g86">
        <path d="M 105.125 99.759056 C 105.183746 99.909256 105.308746 99.99305 105.5 100.010658 C 105.833252 99.84285 106.166748 99.675278 106.5 99.507462 C 107.069252 99.726357 107.652748 99.894165 108.25 100.010658 C 108.674751 100.039093 108.966499 99.871529 109.125 99.507462 C 109.388 99.544945 109.638 99.503181 109.875 99.381668 C 110.475754 98.723976 111.100754 98.094978 111.75 97.494675 C 111.934998 97.180428 111.89325 96.928825 111.625 96.739868 C 111.959 96.359955 112.250748 95.940536 112.5 95.48188 C 112.498253 97.504234 111.623253 99.055832 109.875 100.136467 C 109.541748 100.220245 109.208252 100.304276 108.875 100.388062 C 106.874496 100.424042 104.874496 100.340256 102.875 100.136467 C 102.228249 99.752777 102.019997 99.207558 102.25 98.501068 C 102.979752 99.43148 103.938248 99.850647 105.125 99.759056 Z" opacity="0.983" stroke="none" fill-rule="evenodd" fill="#d2d3d0" id="path86"></path>
    </g>
    <g id="g87">
        <path d="M 74.875 95.230278 C 75.086998 94.947227 75.336998 94.947227 75.625 95.230278 C 75.525253 96.376556 76.025253 97.047325 77.125 97.243073 C 76.787498 97.576195 76.829247 97.827789 77.25 97.997871 C 77.802498 97.592545 78.427498 97.424721 79.125 97.494675 C 79.764748 97.418686 80.348251 97.502724 80.875 97.746269 C 77.318748 97.447876 77.068748 98.034851 80.125 99.507462 C 80.526749 99.472992 80.860252 99.305183 81.125 99.004265 C 80.643997 98.987411 80.143997 98.903625 79.625 98.752663 C 80.027 98.54686 80.443748 98.379044 80.875 98.249474 C 81.709251 98.958977 82.000999 98.791168 81.75 97.746269 C 81.991249 98.189079 82.282997 98.273117 82.625 97.997871 C 82.418503 97.758598 82.376999 97.507004 82.5 97.243073 C 82.704002 97.575935 82.99575 97.743507 83.375 97.746269 C 82.3255 99.018356 80.992249 99.647346 79.375 99.633263 C 78.613251 99.070175 77.779999 98.650772 76.875 98.375259 C 76.510498 97.75634 76.052254 97.211113 75.5 96.739868 C 75.28875 96.208748 75.080498 95.705551 74.875 95.230278 Z" opacity="0.922" stroke="none" fill-rule="evenodd" fill="#382927" id="path87"></path>
    </g>
    <g id="g88">
        <path d="M 106.375 98.752663 C 106.842247 99.294106 107.467247 99.629738 108.25 99.759056 C 108.985748 99.572884 109.027252 99.321281 108.375 99.004265 C 108.606247 98.737061 108.856247 98.737061 109.125 99.004265 C 109.376503 99.114464 109.376503 99.282028 109.125 99.507462 C 108.966499 99.871529 108.674751 100.039093 108.25 100.010658 C 107.652748 99.894165 107.069252 99.726357 106.5 99.507462 C 106.166748 99.675278 105.833252 99.84285 105.5 100.010658 C 105.308746 99.99305 105.183746 99.909256 105.125 99.759056 C 105.64325 99.557785 106.059998 99.222404 106.375 98.752663 Z" opacity="0.941" stroke="none" fill-rule="evenodd" fill="#262020" id="path88"></path>
    </g>
    <g id="g89">
        <path d="M 74.875 95.230278 C 75.080498 95.705551 75.28875 96.208748 75.5 96.739868 C 76.052254 97.211113 76.510498 97.75634 76.875 98.375259 C 77.779999 98.650772 78.613251 99.070175 79.375 99.633263 C 80.992249 99.647346 82.3255 99.018356 83.375 97.746269 C 83.625 97.746269 83.875 97.746269 84.125 97.746269 C 84.059753 98.925514 83.476501 99.722076 82.375 100.136467 C 80.23175 100.908875 78.315002 100.573486 76.625 99.130066 C 75.800499 98.048195 74.883751 97.041794 73.875 96.110878 C 74.176247 95.764671 74.509499 95.471313 74.875 95.230278 Z" opacity="0.978" stroke="none" fill-rule="evenodd" fill="#eaece8" id="path89"></path>
    </g>
</svg>
