<svg xmlns="http://www.w3.org/2000/svg" viewBox="0 0 250 148" height="148" width="250">
    <g id="Group">
        <path d="M 131.40625 40.55011 C 131.299377 40.81456 131.091248 40.919952 130.78125 40.865677 C 130.033127 41.028198 129.303757 41.23835 128.59375 41.496803 C 127.183754 40.099472 125.517189 39.100403 123.59375 38.49894 C 121.09375 38.28846 118.59375 38.28846 116.09375 38.49894 C 114.33812 39.06916 112.77562 39.963158 111.40625 41.181236 C 111.458435 41.286324 111.510315 41.391716 111.5625 41.496803 C 112.10656 41.099823 112.679375 40.784264 113.28125 40.55011 C 117.356873 39.262596 121.419373 39.3153 125.46875 40.707893 C 126.519371 41.131706 127.456871 41.710129 128.28125 42.443489 C 128.489685 42.443489 128.59375 42.548576 128.59375 42.759056 C 128.30188 43.096085 128.197495 43.516739 128.28125 44.021324 C 123.297813 42.948715 118.401871 43.26429 113.59375 44.96801 C 112.505943 45.321762 111.672493 45.952888 111.09375 46.861404 C 110.89344 47.171288 110.68531 47.486862 110.46875 47.808105 C 111.808434 49.118317 113.370934 50.117722 115.15625 50.805969 C 116.774681 51.110802 118.337181 51.479065 119.84375 51.910454 C 120.116875 52.233902 120.48156 52.444382 120.9375 52.54158 C 122.012817 52.263245 123.106567 52.157852 124.21875 52.226006 C 123.552811 52.48288 122.823753 52.640663 122.03125 52.699364 C 122.75312 52.856201 123.482185 52.908569 124.21875 52.857147 C 124.262505 53.369621 124.054062 53.737572 123.59375 53.961617 C 121.941566 54.280655 120.274689 54.54351 118.59375 54.750534 C 118.973122 55.245651 119.494064 55.508514 120.15625 55.539444 C 123.152809 55.864799 124.194374 55.812096 123.28125 55.381668 C 126.431877 55.525558 128.410934 54.052818 129.21875 50.963753 C 129.930313 51.263229 130.555313 51.683861 131.09375 52.226006 C 133.002502 53.442841 135.085938 53.916183 137.34375 53.646057 C 137.760315 53.961617 137.760315 54.277191 137.34375 54.592751 C 134.878113 55.263016 134.982178 55.736359 137.65625 56.012794 C 137.724686 56.383583 137.620621 56.699135 137.34375 56.959488 C 136.146255 57.336899 135.00032 57.757874 133.90625 58.221748 C 131.044678 58.587181 128.127808 58.639557 125.15625 58.379532 C 123.041245 57.824135 120.95813 57.245392 118.90625 56.643929 C 116.463127 55.381668 113.910942 54.329887 111.25 53.488274 C 110.556252 53.502464 110.087502 53.818031 109.84375 54.434959 C 110.355621 55.319817 110.928436 56.161423 111.5625 56.959488 C 111.915314 57.477333 112.384064 57.792892 112.96875 57.906181 C 114.119995 59.329391 115.578438 60.276077 117.34375 60.746269 C 118.240623 61.470184 119.282188 61.891136 120.46875 62.00853 C 121.757813 62.722649 123.11219 63.248695 124.53125 63.586349 C 125.691872 64.067909 126.785622 64.699036 127.8125 65.479744 C 128.215317 66.379433 128.371567 67.326118 128.28125 68.319832 C 127.87719 68.886581 127.40844 69.412628 126.875 69.897652 C 126.734062 71.734879 127.202812 73.417778 128.28125 74.946693 C 128.215927 75.131615 128.111557 75.289398 127.96875 75.420044 C 126.41687 75.743187 124.906555 76.21653 123.4375 76.840088 C 122.076874 75.623581 120.670624 74.466408 119.21875 73.368874 C 119.035622 72.630447 118.723122 71.946617 118.28125 71.317696 C 116.58844 70.578957 114.921562 69.842743 113.28125 69.108742 C 111.325943 67.272789 110.128128 65.011139 109.6875 62.324097 C 109.220932 59.758247 108.595932 57.233727 107.8125 54.750534 C 107.416878 50.169479 107.729378 45.646477 108.75 41.181236 C 110.949059 36.543381 114.542809 33.650589 119.53125 32.503197 C 123.402817 31.636978 127.152817 31.952538 130.78125 33.44989 C 132.060944 34.162758 133.206879 35.057076 134.21875 36.132202 C 134.544998 36.8479 134.597183 37.584114 134.375 38.341156 C 133.592178 39.399231 132.602814 40.135452 131.40625 40.55011 Z" stroke="none" fill-rule="evenodd" fill="#925dae" id="Path"></path>
    </g>
    <g id="g1">
        <path d="M 128.28125 42.443489 C 127.456879 41.710129 126.519379 41.131706 125.46875 40.707893 C 121.419373 39.3153 117.356873 39.262596 113.28125 40.55011 C 116.286247 38.926208 119.515625 38.347778 122.96875 38.814499 C 125.309685 39.254082 127.08062 40.463646 128.28125 42.443489 Z" opacity="0.973" stroke="none" fill-rule="evenodd" fill="#7d3aa1" id="path1"></path>
    </g>
    <g id="g2">
        <path d="M 109.53125 37.710014 C 106.459686 42.584557 105.209686 47.949158 105.78125 53.803833 C 106.043747 59.392174 106.981247 64.86187 108.59375 70.213219 C 108.91188 69.994537 109.22438 69.78437 109.53125 69.582092 C 109.53125 69.687164 109.53125 69.792572 109.53125 69.897652 C 108.927498 70.742424 108.771248 71.689117 109.0625 72.73774 C 109.785942 74.043549 110.671257 75.200722 111.71875 76.208954 C 112.426872 77.451019 113.364372 78.5028 114.53125 79.364609 C 116.57531 81.557465 118.971252 83.293068 121.71875 84.571426 C 121.03125 85.894592 121.34375 87.051773 122.65625 88.042641 C 123.107498 88.289108 123.524063 88.236404 123.90625 87.884857 C 123.371567 87.33577 123.111252 86.704651 123.125 85.99147 C 124.063133 87.436447 125.365318 88.278046 127.03125 88.515991 C 127.604065 88.489166 128.020615 88.278687 128.28125 87.884857 C 128.758759 87.890213 128.915009 88.100708 128.75 88.515991 C 127.297195 89.391998 125.890945 89.286911 124.53125 88.200424 C 123.756561 88.962204 122.923439 89.01458 122.03125 88.358208 C 121.258438 87.124664 120.633438 85.809708 120.15625 84.413658 C 118.423431 83.593491 116.860931 82.541389 115.46875 81.257996 C 112.971878 79.062294 110.836563 76.537781 109.0625 73.684433 C 108.683746 74.689507 108.579376 75.741287 108.75 76.840088 C 108.417191 79.112473 107.115005 80.059166 104.84375 79.680168 C 102.492508 79.507561 100.200943 79.03421 97.96875 78.260124 C 95.461563 76.995659 93.065628 75.575615 90.78125 74 C 90.78125 73.78952 90.885315 73.684433 91.09375 73.684433 C 94.954689 76.054016 99.069374 77.842003 103.4375 79.049042 C 104.293747 78.966675 105.126877 78.966675 105.9375 79.049042 C 106.970627 78.847076 107.595627 78.21595 107.8125 77.155647 C 108.18969 76.009201 108.34594 74.904724 108.28125 73.842216 C 106.831245 67.790314 105.68531 61.689499 104.84375 55.539444 C 104.96875 52.148384 105.229065 48.624466 105.625 44.96801 C 106.086876 42.989738 106.764061 41.096359 107.65625 39.287849 C 108.386253 38.813232 108.959068 38.182106 109.375 37.394455 C 109.499687 37.466408 109.551567 37.571808 109.53125 37.710014 Z" opacity="0.722" stroke="none" fill-rule="evenodd" fill="#0e080f" id="path2"></path>
    </g>
    <g id="g3">
        <path d="M 128.59375 42.759056 C 129.401566 44.092644 129.714066 45.459984 129.53125 46.861404 C 128.165314 45.435379 126.498444 44.699158 124.53125 44.652451 C 124.087807 44.352356 123.567192 44.247269 122.96875 44.336884 C 118.829376 44.019104 114.870941 44.860725 111.09375 46.861404 C 111.672493 45.952888 112.505943 45.321762 113.59375 44.96801 C 118.401871 43.26429 123.297813 42.948715 128.28125 44.021324 C 128.197495 43.516739 128.30188 43.096085 128.59375 42.759056 Z" opacity="0.973" stroke="none" fill-rule="evenodd" fill="#7d3ba0" id="path3"></path>
    </g>
    <g id="g4">
        <path d="M 161.40625 47.808105 C 161.773438 47.738998 162.085938 47.844086 162.34375 48.123672 C 161.89032 48.567352 161.473755 49.040703 161.09375 49.543701 C 161.847504 50.185883 161.639069 50.50145 160.46875 50.49041 C 160.104065 51.06884 159.739685 51.647575 159.375 52.226006 C 159.150635 52.526115 158.89032 52.578499 158.59375 52.383797 C 159.029068 51.311195 159.393753 50.206718 159.6875 49.070358 C 160.253754 48.604271 160.826569 48.183624 161.40625 47.808105 Z" opacity="0.004" stroke="none" fill-rule="evenodd" fill="#000002" id="path4"></path>
    </g>
    <g id="g5">
        <path d="M 144.53125 50.017059 C 144.427185 50.017059 144.322815 50.017059 144.21875 50.017059 C 141.23468 51.744469 138.00563 52.322899 134.53125 51.752663 C 133.03656 51.432678 131.57843 51.117119 130.15625 50.805969 C 130.77594 51.402077 131.505005 51.822723 132.34375 52.068222 C 131.939682 52.222855 131.522812 52.275551 131.09375 52.226006 C 130.555313 51.683861 129.930313 51.263229 129.21875 50.963753 C 129.259689 50.687309 129.155624 50.476837 128.90625 50.332626 C 127.760933 51.067894 126.510933 51.541245 125.15625 51.752663 C 123.388435 51.910126 121.6175 51.962837 119.84375 51.910454 C 118.337181 51.479065 116.774681 51.110802 115.15625 50.805969 C 113.370934 50.117722 111.808434 49.118317 110.46875 47.808105 C 110.68531 47.486862 110.89344 47.171288 111.09375 46.861404 C 114.870941 44.860725 118.829376 44.019104 122.96875 44.336884 C 121.701569 44.23465 120.451569 44.339729 119.21875 44.652451 C 118.642189 45.613663 118.329689 46.665756 118.28125 47.808105 C 118.177185 47.808105 118.072815 47.808105 117.96875 47.808105 C 117.96875 46.966492 117.96875 46.125191 117.96875 45.283585 C 115.353745 45.321449 113.061874 46.163063 111.09375 47.808105 C 114.306252 50.277084 117.951881 51.434265 122.03125 51.27932 C 124.20813 51.418167 126.291565 51.049904 128.28125 50.174843 C 129.784378 49.116127 129.888748 47.959259 128.59375 46.703621 C 127.316559 45.730736 125.962494 45.257378 124.53125 45.283585 C 124.114685 45.073097 124.114685 44.862938 124.53125 44.652451 C 126.498444 44.699158 128.165314 45.435379 129.53125 46.861404 C 129.714066 45.459984 129.401566 44.092644 128.59375 42.759056 C 128.59375 42.548576 128.489685 42.443489 128.28125 42.443489 C 127.08062 40.463646 125.309685 39.254082 122.96875 38.814499 C 119.515633 38.347778 116.286247 38.926208 113.28125 40.55011 C 112.679375 40.784264 112.10656 41.099823 111.5625 41.496803 C 111.510315 41.391716 111.458435 41.286324 111.40625 41.181236 C 112.77562 39.963158 114.33812 39.06916 116.09375 38.49894 C 118.59375 38.28846 121.09375 38.28846 123.59375 38.49894 C 125.517189 39.100403 127.183754 40.099472 128.59375 41.496803 C 129.313446 42.672287 129.886566 43.93454 130.3125 45.283585 C 132.511871 43.689659 134.959686 43.111229 137.65625 43.547981 C 135.856873 43.701019 134.085938 44.016586 132.34375 44.494667 C 129.337814 46.447075 129.441879 46.815331 132.65625 45.599152 C 132.966248 45.544876 133.174377 45.650261 133.28125 45.914719 C 130.821884 46.157707 129.676254 47.52504 129.84375 50.017059 C 131.389069 50.433281 132.951569 50.801544 134.53125 51.121536 C 136.35907 51.379662 138.1297 51.327271 139.84375 50.963753 C 139.947815 50.963753 140.052185 50.963753 140.15625 50.963753 C 141.929993 50.647865 143.284058 49.701172 144.21875 48.123672 C 143.052811 46.847519 141.698746 46.216393 140.15625 46.230278 C 139.695633 45.934898 139.383133 45.513939 139.21875 44.96801 C 141.187195 45.383293 142.95813 46.224907 144.53125 47.492531 C 144.593124 44.529694 143.239059 42.373444 140.46875 41.02346 C 137.175629 39.848289 133.946564 40.006073 130.78125 41.496803 C 130.480316 41.348495 130.480316 41.138 130.78125 40.865677 C 131.091248 40.919952 131.299377 40.81456 131.40625 40.55011 C 134.431244 39.730263 137.452179 39.730263 140.46875 40.55011 C 140.787811 40.391693 140.839996 40.181526 140.625 39.918976 C 134.149063 31.800751 125.97187 29.328934 116.09375 32.503197 C 114.845001 33.027985 113.699066 33.711502 112.65625 34.554375 C 111.703751 35.726692 110.662186 36.778473 109.53125 37.710014 C 109.551567 37.571808 109.499687 37.466408 109.375 37.394455 C 108.959068 38.182106 108.386253 38.813232 107.65625 39.287849 C 108.051567 38.33326 108.572502 37.43927 109.21875 36.605545 C 107.15313 34.955452 105.798752 32.851585 105.15625 30.294243 C 105.460312 28.460312 106.50219 27.250648 108.28125 26.665253 C 110.415939 26.853226 112.603439 27.011009 114.84375 27.138596 C 115.367188 25.905495 115.731567 24.59066 115.9375 23.194031 C 116.485626 21.060684 117.839691 20.008812 120 20.038383 C 121.881561 20.120438 123.600311 20.698952 125.15625 21.773994 C 126.302185 23.308861 127.552185 24.728897 128.90625 26.034111 C 129.97937 25.265747 131.125 24.634605 132.34375 24.140732 C 134.599365 24.423546 135.849365 25.79097 136.09375 28.243065 C 135.73938 29.868294 135.21875 31.446121 134.53125 32.97654 C 136.582809 34.57267 138.509689 36.360664 140.3125 38.341156 C 140.912506 39.237038 141.433441 40.183739 141.875 41.181236 C 145.074066 43.454559 145.959686 46.40004 144.53125 50.017059 Z" opacity="0.957" stroke="none" fill-rule="evenodd" fill="#191419" id="path5"></path>
    </g>
    <g id="g6">
        <path d="M 133.28125 45.914719 C 133.28656 46.566353 133.390625 47.197495 133.59375 47.808105 C 132.665314 47.78759 131.831879 48.050766 131.09375 48.597015 C 131.302185 48.807487 131.510315 49.01767 131.71875 49.228142 C 133.425308 49.984879 135.196243 50.510918 137.03125 50.805969 C 137.96312 50.96312 138.90062 51.015808 139.84375 50.963753 C 138.129684 51.327271 136.359055 51.379662 134.53125 51.121536 C 132.951569 50.801544 131.389069 50.433281 129.84375 50.017059 C 129.676239 47.52504 130.821869 46.157707 133.28125 45.914719 Z" opacity="0.973" stroke="none" fill-rule="evenodd" fill="#cfa3dc" id="path6"></path>
    </g>
    <g id="g7">
        <path d="M 133.59375 47.808105 C 135.027191 49.922386 137.006256 50.711311 139.53125 50.174843 C 140.059998 49.762398 140.476563 49.289047 140.78125 48.754799 C 141.006866 48.622887 141.163116 48.412735 141.25 48.123672 C 141.721558 48.309845 142.190308 48.520012 142.65625 48.754799 C 141.946243 49.433578 141.112808 49.906929 140.15625 50.174843 C 139.813126 50.417839 139.813126 50.680687 140.15625 50.963753 C 140.052185 50.963753 139.947815 50.963753 139.84375 50.963753 C 138.90062 51.015808 137.96312 50.96312 137.03125 50.805969 C 135.196243 50.510918 133.425308 49.984879 131.71875 49.228142 C 131.510315 49.01767 131.302185 48.807487 131.09375 48.597015 C 131.831879 48.050766 132.665314 47.78759 133.59375 47.808105 Z" opacity="0.973" stroke="none" fill-rule="evenodd" fill="#f8d6f6" id="path7"></path>
    </g>
    <g id="g8">
        <path d="M 140.15625 46.230278 C 141.698746 46.216393 143.052811 46.847519 144.21875 48.123672 C 143.284058 49.701172 141.929993 50.647865 140.15625 50.963753 C 139.813126 50.680687 139.813126 50.417839 140.15625 50.174843 C 141.112808 49.906929 141.946243 49.433578 142.65625 48.754799 C 142.190308 48.520012 141.721558 48.309845 141.25 48.123672 C 141.163116 48.412735 141.006866 48.622887 140.78125 48.754799 C 140.902817 47.791389 140.694687 46.949768 140.15625 46.230278 Z" opacity="0.973" stroke="none" fill-rule="evenodd" fill="#dbade7" id="path8"></path>
    </g>
    <g id="g9">
        <path d="M 117.96875 47.808105 C 116.832504 47.908768 115.790939 48.276711 114.84375 48.912582 C 115.052185 49.123055 115.260315 49.333229 115.46875 49.543701 C 119.666252 51.193802 123.832817 51.193802 127.96875 49.543701 C 128.32312 49.223099 128.219055 49.012619 127.65625 48.912582 C 126.956253 48.604271 126.227188 48.446495 125.46875 48.439232 C 125.52906 47.2565 125.21656 46.204407 124.53125 45.283585 C 125.962494 45.257378 127.316559 45.730736 128.59375 46.703621 C 129.888748 47.959259 129.784378 49.116127 128.28125 50.174843 C 126.291565 51.049904 124.20813 51.418167 122.03125 51.27932 C 117.951881 51.434265 114.306252 50.277084 111.09375 47.808105 C 113.061874 46.163063 115.353745 45.321449 117.96875 45.283585 C 117.96875 46.125191 117.96875 46.966492 117.96875 47.808105 Z" opacity="0.973" stroke="none" fill-rule="evenodd" fill="#daace7" id="path9"></path>
    </g>
    <g id="g10">
        <path d="M 117.96875 47.808105 C 118.072815 47.808105 118.177185 47.808105 118.28125 47.808105 C 118.977501 49.426003 120.227501 50.267624 122.03125 50.332626 C 123.59375 50.393524 124.739685 49.762398 125.46875 48.439232 C 126.227188 48.446495 126.956253 48.604271 127.65625 48.912582 C 128.219055 49.012619 128.32312 49.223099 127.96875 49.543701 C 123.832817 51.193802 119.666252 51.193802 115.46875 49.543701 C 115.260315 49.333229 115.052185 49.123055 114.84375 48.912582 C 115.790939 48.276711 116.832504 47.908768 117.96875 47.808105 Z" opacity="0.973" stroke="none" fill-rule="evenodd" fill="#f9d9f5" id="path10"></path>
    </g>
    <g id="g11">
        <path d="M 139.21875 44.96801 C 139.383133 45.513939 139.695633 45.934898 140.15625 46.230278 C 140.694687 46.949768 140.902817 47.791389 140.78125 48.754799 C 140.476563 49.289047 140.059998 49.762398 139.53125 50.174843 C 137.006256 50.711311 135.027191 49.922386 133.59375 47.808105 C 133.390625 47.197495 133.28656 46.566353 133.28125 45.914719 C 133.174377 45.650261 132.966248 45.544876 132.65625 45.599152 C 132.690933 45.404449 132.794998 45.246666 132.96875 45.125793 C 135.049377 44.96801 137.132813 44.915634 139.21875 44.96801 Z" opacity="0.97" stroke="none" fill-rule="evenodd" fill="#0a0809" id="path11"></path>
    </g>
    <g id="g12">
        <path d="M 122.96875 44.336884 C 123.567192 44.247269 124.087807 44.352356 124.53125 44.652451 C 124.114685 44.862938 124.114685 45.073097 124.53125 45.283585 C 125.21656 46.204407 125.52906 47.2565 125.46875 48.439232 C 124.739685 49.762398 123.59375 50.393524 122.03125 50.332626 C 120.227501 50.267624 118.977501 49.426003 118.28125 47.808105 C 118.329689 46.665756 118.642189 45.613663 119.21875 44.652451 C 120.451561 44.339729 121.701561 44.23465 122.96875 44.336884 Z" opacity="0.97" stroke="none" fill-rule="evenodd" fill="#070607" id="path12"></path>
    </g>
    <g id="g13">
        <path d="M 139.21875 44.96801 C 137.132813 44.915634 135.049377 44.96801 132.96875 45.125793 C 132.794998 45.246666 132.690933 45.404449 132.65625 45.599152 C 129.441864 46.815331 129.337814 46.447075 132.34375 44.494667 C 134.085938 44.016586 135.856873 43.701019 137.65625 43.547981 C 134.959686 43.111229 132.511871 43.689659 130.3125 45.283585 C 129.886566 43.93454 129.313446 42.672287 128.59375 41.496803 C 129.303757 41.23835 130.033127 41.028198 130.78125 40.865677 C 130.480316 41.138 130.480316 41.348495 130.78125 41.496803 C 133.946564 40.006073 137.175629 39.848289 140.46875 41.02346 C 143.239059 42.373444 144.593124 44.529694 144.53125 47.492531 C 142.95813 46.224907 141.187195 45.383293 139.21875 44.96801 Z" opacity="0.973" stroke="none" fill-rule="evenodd" fill="#7b389f" id="path13"></path>
    </g>
    <g id="g14">
        <path d="M 130.78125 26.034111 C 130.167496 27.285049 129.229996 28.231743 127.96875 28.874207 C 128.117813 29.182693 128.325943 29.445656 128.59375 29.663116 C 131.496872 30.174896 132.590622 28.96524 131.875 26.034111 C 131.75531 25.85865 131.59906 25.753487 131.40625 25.718544 C 133.076248 24.68425 134.378128 25.104996 135.3125 26.980812 C 135.520935 27.717117 135.520935 28.453453 135.3125 29.189774 C 134.658447 30.406265 134.085312 31.668533 133.59375 32.97654 C 129.656555 30.981514 125.489998 30.139992 121.09375 30.452019 C 123.112495 28.572922 123.789688 26.258804 123.125 23.50959 C 122.219688 22.040672 120.917816 21.567314 119.21875 22.089546 C 117.589066 23.300697 116.91188 24.931099 117.1875 26.980812 C 116.523125 28.342781 115.429375 29.026527 113.90625 29.03199 C 112.135315 29.137161 110.364685 29.242363 108.59375 29.347549 C 107.24218 30.019356 106.98156 31.018654 107.8125 32.345413 C 108.409058 33.264969 109.242188 33.791023 110.3125 33.923248 C 111.623123 32.92321 113.029373 32.028908 114.53125 31.240944 C 116.173126 30.839783 117.839691 30.681999 119.53125 30.767586 C 115.90593 31.781509 112.67688 33.569489 109.84375 36.132202 C 108.691872 34.916641 107.598122 33.654388 106.5625 32.345413 C 105.504066 29.220314 106.597816 27.642479 109.84375 27.611938 C 111.157501 27.746361 112.459686 27.956772 113.75 28.243065 C 114.791565 28.243065 115.625 27.822327 116.25 26.980812 C 116.046875 21.398338 118.49469 19.662735 123.59375 21.773994 C 124.26281 22.186615 124.88781 22.659973 125.46875 23.194031 C 126.188438 24.383621 127.021561 25.488091 127.96875 26.507469 C 128.981567 26.757736 129.919067 26.599953 130.78125 26.034111 Z" opacity="0.973" stroke="none" fill-rule="evenodd" fill="#ee3dad" id="path14"></path>
    </g>
    <g id="g15">
        <path d="M 131.40625 25.718544 C 131.59906 25.753487 131.75531 25.85865 131.875 26.034111 C 132.590622 28.96524 131.496872 30.174896 128.59375 29.663116 C 128.325943 29.445656 128.117813 29.182693 127.96875 28.874207 C 129.230011 28.231743 130.167511 27.285049 130.78125 26.034111 C 130.989685 25.92894 131.197815 25.823738 131.40625 25.718544 Z" opacity="0.973" stroke="none" fill-rule="evenodd" fill="#fe48d7" id="path15"></path>
    </g>
    <g id="g16">
        <path d="M 121.09375 30.452019 C 120.611877 30.704689 120.091248 30.809875 119.53125 30.767586 C 117.839691 30.681999 116.173126 30.839783 114.53125 31.240944 C 113.029373 32.028908 111.623123 32.92321 110.3125 33.923248 C 109.242188 33.791023 108.409058 33.264969 107.8125 32.345413 C 106.98156 31.018654 107.24218 30.019356 108.59375 29.347549 C 110.364685 29.242363 112.135315 29.137161 113.90625 29.03199 C 115.429375 29.026527 116.523125 28.342781 117.1875 26.980812 C 116.91188 24.931099 117.589066 23.300697 119.21875 22.089546 C 120.917816 21.567314 122.219688 22.040672 123.125 23.50959 C 123.789688 26.258804 123.112495 28.572922 121.09375 30.452019 Z" opacity="0.973" stroke="none" fill-rule="evenodd" fill="#fe48d7" id="path16"></path>
    </g>
    <g id="g17">
        <path d="M 160.15625 49.070358 C 160.830002 49.187752 160.830002 49.503319 160.15625 50.017059 C 159.824371 49.725159 159.824371 49.409599 160.15625 49.070358 Z" opacity="0.004" stroke="none" fill-rule="evenodd" fill="#000084" id="path17"></path>
    </g>
    <g id="g18">
        <path d="M 177.96875 50.648193 C 178.316559 51.104492 178.368759 51.630547 178.125 52.226006 C 177.970627 51.710381 177.918762 51.184326 177.96875 50.648193 Z" opacity="0.004" stroke="none" fill-rule="evenodd" fill="#000000" id="path18"></path>
    </g>
    <g id="g19">
        <path d="M 129.21875 50.963753 C 128.410934 54.052818 126.431877 55.525558 123.28125 55.381668 C 122.375938 55.5 121.542816 55.342216 120.78125 54.908318 C 122.810623 54.886848 124.789688 54.571297 126.71875 53.961617 C 127.412186 53.405273 128.037186 52.774147 128.59375 52.068222 C 127.130936 52.226654 125.672821 52.48951 124.21875 52.857147 C 123.482193 52.908569 122.753128 52.856201 122.03125 52.699364 C 122.823753 52.640663 123.552811 52.48288 124.21875 52.226006 C 125.980621 52.140808 127.647186 51.720161 129.21875 50.963753 Z" opacity="0.925" stroke="none" fill-rule="evenodd" fill="#19141b" id="path19"></path>
    </g>
    <g id="g20">
        <path d="M 129.21875 50.963753 C 127.647186 51.720161 125.980621 52.140808 124.21875 52.226006 C 123.106567 52.157852 122.012817 52.263245 120.9375 52.54158 C 120.48156 52.444382 120.116875 52.233902 119.84375 51.910454 C 121.6175 51.962837 123.388435 51.910126 125.15625 51.752663 C 126.510933 51.541245 127.760933 51.067894 128.90625 50.332626 C 129.155624 50.476837 129.259689 50.687309 129.21875 50.963753 Z" opacity="0.973" stroke="none" fill-rule="evenodd" fill="#79379d" id="path20"></path>
    </g>
    <g id="g21">
        <path d="M 146.40625 51.594879 C 147.191254 51.820824 147.191254 52.136398 146.40625 52.54158 C 146.222809 52.310272 146.222809 51.994705 146.40625 51.594879 Z" opacity="0.008" stroke="none" fill-rule="evenodd" fill="#060606" id="path21"></path>
    </g>
    <g id="g22">
        <path d="M 123.28125 55.381668 C 124.194374 55.812096 123.152809 55.864799 120.15625 55.539444 C 119.494064 55.508514 118.973122 55.245651 118.59375 54.750534 C 120.274689 54.54351 121.941566 54.280655 123.59375 53.961617 C 124.054062 53.737572 124.262505 53.369621 124.21875 52.857147 C 125.672821 52.48951 127.130936 52.226654 128.59375 52.068222 C 128.037186 52.774147 127.412186 53.405273 126.71875 53.961617 C 124.789688 54.571297 122.810623 54.886848 120.78125 54.908318 C 121.542816 55.342216 122.375938 55.5 123.28125 55.381668 Z" opacity="0.98" stroke="none" fill-rule="evenodd" fill="#7a389e" id="path22"></path>
    </g>
    <g id="g23">
        <path d="M 146.71875 55.066101 C 146.965317 55.155411 147.173752 55.313194 147.34375 55.539444 C 146.932495 55.70607 146.72406 55.548286 146.71875 55.066101 Z" opacity="0.004" stroke="none" fill-rule="evenodd" fill="#000000" id="path23"></path>
    </g>
    <g id="g24">
        <path d="M 131.71875 55.066101 C 132.80188 55.258278 133.11438 55.836716 132.65625 56.801697 C 132.106567 57.053528 131.585632 57.000824 131.09375 56.643929 C 131.546875 56.217911 131.75531 55.692184 131.71875 55.066101 Z" stroke="none" fill-rule="evenodd" fill="#1d151b" id="path24"></path>
    </g>
    <g id="g25">
        <path d="M 118.90625 56.643929 C 116.372818 56.019112 113.925003 55.17749 111.5625 54.1194 C 111.197815 54.224487 110.833435 54.329887 110.46875 54.434959 C 111.228439 55.65715 112.061874 56.814323 112.96875 57.906181 C 112.384064 57.792892 111.915314 57.477333 111.5625 56.959488 C 110.928436 56.161423 110.355621 55.319817 109.84375 54.434959 C 110.087502 53.818031 110.556252 53.502464 111.25 53.488274 C 113.910942 54.329887 116.463127 55.381668 118.90625 56.643929 Z" opacity="0.898" stroke="none" fill-rule="evenodd" fill="#1d1516" id="path25"></path>
    </g>
    <g id="g26">
        <path d="M 129.53125 55.066101 C 129.842499 55.038963 130.102814 55.144356 130.3125 55.381668 C 130.466873 55.897301 130.518753 56.42334 130.46875 56.959488 C 130.052185 56.959488 129.635315 56.959488 129.21875 56.959488 C 129.164063 56.290176 129.268433 55.659035 129.53125 55.066101 Z" stroke="none" fill-rule="evenodd" fill="#0e080a" id="path26"></path>
    </g>
    <g id="g27">
        <path d="M 118.90625 56.643929 C 120.95813 57.245392 123.041252 57.824135 125.15625 58.379532 C 128.127808 58.639557 131.044678 58.587181 133.90625 58.221748 C 135.724686 57.991394 137.547821 57.780907 139.375 57.590622 C 140.052185 57.643318 140.729065 57.695702 141.40625 57.748405 C 141.641251 57.960152 141.745621 58.223015 141.71875 58.537308 C 141.146561 58.065544 140.469376 57.855064 139.6875 57.906181 C 135.970001 58.605476 132.220001 59.026123 128.4375 59.168434 C 125.023445 59.030228 121.846245 58.188927 118.90625 56.643929 Z" opacity="0.957" stroke="none" fill-rule="evenodd" fill="#22181b" id="path27"></path>
    </g>
    <g id="g28">
        <path d="M 146.40625 58.221748 C 146.805313 58.598534 147.013748 59.12426 147.03125 59.799576 C 146.979065 60.325615 146.927185 60.851357 146.875 61.377403 C 146.616882 60.338234 146.460632 59.286461 146.40625 58.221748 Z" opacity="0.006" stroke="none" fill-rule="evenodd" fill="#000000" id="path28"></path>
    </g>
    <g id="g29">
        <path d="M 118.90625 56.643929 C 121.846245 58.188927 125.023445 59.030228 128.4375 59.168434 C 132.220001 59.026123 135.970001 58.605476 139.6875 57.906181 C 140.469376 57.855064 141.146561 58.065544 141.71875 58.537308 C 141.769684 59.281097 141.717819 60.017311 141.5625 60.746269 C 140.670303 61.917336 139.576553 62.758629 138.28125 63.270782 C 134.979996 63.882988 131.646561 64.040771 128.28125 63.744141 C 125.651558 63.261635 123.047188 62.683205 120.46875 62.00853 C 119.521873 61.408005 118.480309 60.987045 117.34375 60.746269 C 115.887817 59.800514 114.429688 58.853828 112.96875 57.906181 C 112.061874 56.814323 111.228439 55.65715 110.46875 54.434959 C 110.833435 54.329887 111.197815 54.224487 111.5625 54.1194 C 113.925003 55.17749 116.372818 56.019112 118.90625 56.643929 Z" opacity="0.973" stroke="none" fill-rule="evenodd" fill="#e68665" id="path29"></path>
    </g>
    <g id="g30">
        <path d="M 131.40625 40.55011 C 132.602814 40.135452 133.592194 39.399231 134.375 38.341156 C 134.597183 37.584114 134.544998 36.8479 134.21875 36.132202 C 133.206879 35.057076 132.060944 34.162758 130.78125 33.44989 C 127.152817 31.952538 123.402817 31.636978 119.53125 32.503197 C 114.542809 33.650589 110.949059 36.543381 108.75 41.181236 C 107.729378 45.646477 107.416878 50.169479 107.8125 54.750534 C 108.595932 57.233727 109.220932 59.758247 109.6875 62.324097 C 110.128128 65.011139 111.325943 67.272789 113.28125 69.108742 C 114.921562 69.842743 116.58844 70.578957 118.28125 71.317696 C 118.723129 71.946617 119.035629 72.630447 119.21875 73.368874 C 116.766571 71.972809 114.266571 70.657852 111.71875 69.424309 C 110.925316 69.173119 110.196251 69.225815 109.53125 69.582092 C 109.22438 69.78437 108.91188 69.994537 108.59375 70.213219 C 106.981247 64.86187 106.043747 59.392174 105.78125 53.803833 C 105.209686 47.949158 106.459686 42.584557 109.53125 37.710014 C 110.662186 36.778473 111.703751 35.726692 112.65625 34.554375 C 113.699066 33.711502 114.845001 33.027985 116.09375 32.503197 C 125.97187 29.328934 134.149063 31.800751 140.625 39.918976 C 140.839996 40.181526 140.787811 40.391693 140.46875 40.55011 C 137.452179 39.730263 134.431244 39.730263 131.40625 40.55011 Z" stroke="none" fill-rule="evenodd" fill="#7e3ca1" id="path30"></path>
    </g>
    <g id="g31">
        <path d="M 125.15625 38.025581 C 125.175003 37.854233 125.279068 37.749153 125.46875 37.710014 C 125.873444 37.898727 126.289993 38.056511 126.71875 38.183372 C 128.319382 38.280563 129.881882 38.33326 131.40625 38.341156 C 130.832184 38.95713 130.102814 39.27269 129.21875 39.287849 C 127.743439 39.181816 126.389381 38.760864 125.15625 38.025581 Z" stroke="none" fill-rule="evenodd" fill="#231821" id="path31"></path>
    </g>
    <g id="g32">
        <path d="M 126.09375 36.132202 C 127.170631 36.582825 128.316559 36.845688 129.53125 36.921112 C 128.658127 37.412445 127.720627 37.517532 126.71875 37.236671 C 126.305313 36.979172 126.097183 36.610909 126.09375 36.132202 Z" stroke="none" fill-rule="evenodd" fill="#1b1318" id="path32"></path>
    </g>
    <g id="g33">
        <path d="M 112.96875 57.906181 C 114.429688 58.853828 115.887817 59.800514 117.34375 60.746269 C 115.578445 60.276077 114.119995 59.329391 112.96875 57.906181 Z" opacity="0.91" stroke="none" fill-rule="evenodd" fill="#1b1317" id="path33"></path>
    </g>
    <g id="g34">
        <path d="M 112.65625 56.328354 C 112.675003 56.157005 112.779068 56.051918 112.96875 56.012794 C 121.372185 60.223389 130.226257 61.643417 139.53125 60.272926 C 138.543747 60.705566 137.501877 61.021126 136.40625 61.219612 C 133.90625 61.430099 131.40625 61.430099 128.90625 61.219612 C 125.680626 60.554085 122.451561 59.922958 119.21875 59.326225 C 116.942505 58.491875 114.755005 57.49247 112.65625 56.328354 Z" opacity="0.937" stroke="none" fill-rule="evenodd" fill="#221918" id="path34"></path>
    </g>
    <g id="g35">
        <path d="M 117.34375 60.746269 C 118.480309 60.987045 119.521873 61.408005 120.46875 62.00853 C 119.282188 61.891136 118.240623 61.470184 117.34375 60.746269 Z" opacity="0.925" stroke="none" fill-rule="evenodd" fill="#120e0f" id="path35"></path>
    </g>
    <g id="g36">
        <path d="M 141.71875 58.537308 C 142.225632 61.198471 141.079681 62.776291 138.28125 63.270782 C 139.576553 62.758629 140.670303 61.917336 141.5625 60.746269 C 141.717819 60.017311 141.769684 59.281097 141.71875 58.537308 Z" opacity="0.922" stroke="none" fill-rule="evenodd" fill="#22181a" id="path36"></path>
    </g>
    <g id="g37">
        <path d="M 124.53125 63.586349 C 126.160622 64.049614 127.827187 64.260094 129.53125 64.217484 C 129.468445 65.23613 129.572815 66.235535 129.84375 67.215355 C 129.432495 67.738876 128.91188 68.106819 128.28125 68.319832 C 128.371567 67.326118 128.215317 66.379433 127.8125 65.479744 C 126.785622 64.699036 125.691872 64.067909 124.53125 63.586349 Z" opacity="0.971" stroke="none" fill-rule="evenodd" fill="#7b38a0" id="path37"></path>
    </g>
    <g id="g38">
        <path d="M 167.65625 62.955223 C 168.428116 64.314674 168.428116 65.682335 167.65625 67.057571 C 167.414383 65.703163 167.414383 64.335823 167.65625 62.955223 Z" opacity="0.004" stroke="none" fill-rule="evenodd" fill="#8a3eb1" id="path38"></path>
    </g>
    <g id="g39">
        <path d="M 146.71875 64.848618 C 146.958435 65.060677 147.16687 65.32354 147.34375 65.637535 C 147.340942 66.183449 147.236877 66.761879 147.03125 67.373138 C 146.724991 66.557083 146.620941 65.715485 146.71875 64.848618 Z" opacity="0.008" stroke="none" fill-rule="evenodd" fill="#080808" id="path39"></path>
    </g>
    <g id="g40">
        <path d="M 144.21875 50.017059 C 144.322815 50.017059 144.427185 50.017059 144.53125 50.017059 C 144.0672 52.195084 143.7547 54.404037 143.59375 56.643929 C 143.707809 59.094917 143.759689 61.724518 143.75 64.533051 C 144.526566 66.734436 145.620316 68.732903 147.03125 70.528786 C 149.208435 72.780655 151.34375 75.095016 153.4375 77.471214 C 154.867188 80.936752 154.450623 84.197495 152.1875 87.253723 C 151.256241 88.562386 150.162491 89.719559 148.90625 90.724945 C 147.830933 94.15229 146.633133 97.413353 145.3125 100.507462 C 143.072189 104.449173 140.207809 107.867706 136.71875 110.763329 C 137.748749 111.647217 137.852814 112.593918 137.03125 113.603409 C 137.773117 114.246857 138.398117 114.983063 138.90625 115.81237 C 140.220001 115.854332 141.470001 115.591156 142.65625 115.02346 C 143.027817 115.104248 143.392502 115.20932 143.75 115.33902 C 144.921555 114.296402 146.22374 114.138618 147.65625 114.865677 C 148.70813 117.785278 148.08313 120.309807 145.78125 122.439232 C 145.15625 122.754791 144.53125 123.070358 143.90625 123.385918 C 141.793121 123.864006 139.709686 124.442444 137.65625 125.121529 C 136.816254 124.962173 136.139053 124.541519 135.625 123.859268 C 135.292191 122.077599 134.979691 120.289291 134.6875 118.494667 C 134.074997 117.773605 133.398117 117.142471 132.65625 116.601273 C 131.621567 116.870453 130.580002 116.817757 129.53125 116.443497 C 129.018448 116.087227 128.705948 115.613876 128.59375 115.02346 C 128.90625 115.02346 129.21875 115.02346 129.53125 115.02346 C 129.53125 115.33902 129.53125 115.654579 129.53125 115.970146 C 130.282196 116.003914 130.854996 115.688347 131.25 115.02346 C 131.40094 115.322609 131.452805 115.638176 131.40625 115.970146 C 132.035629 116.004234 132.556244 115.794052 132.96875 115.33902 C 132.5047 113.764969 132.764999 113.659897 133.75 115.02346 C 134.747818 114.692123 135.060318 114.060989 134.6875 113.130066 C 135.497498 113.597725 136.226563 113.49234 136.875 112.814507 C 137.06781 112.515022 137.01593 112.252151 136.71875 112.025589 C 136.314682 111.870972 135.897812 111.818253 135.46875 111.867798 C 135.418747 111.33165 135.470627 110.805618 135.625 110.289978 C 142.749695 104.63063 146.864059 97.267548 147.96875 88.200424 C 147.956253 87.591698 147.852188 87.013268 147.65625 86.464828 C 147.916245 86.247726 148.124374 86.300415 148.28125 86.622604 C 148.460632 87.467377 148.669067 88.308662 148.90625 89.147133 C 151.249374 87.252151 152.707809 84.833038 153.28125 81.889122 C 153.196243 80.280067 152.727493 78.807312 151.875 77.471214 C 150.30249 75.777573 148.635941 74.199753 146.875 72.73774 C 145.058441 70.487129 143.808441 67.962608 143.125 65.164177 C 143.020935 61.272316 142.916565 57.380142 142.8125 53.488274 C 141.36937 55.240601 139.54657 55.819031 137.34375 55.223885 C 138.717499 54.988464 140.071884 54.672905 141.40625 54.277191 C 142.001556 53.70443 142.522491 53.073303 142.96875 52.383797 C 141.615005 52.435226 140.260635 52.59301 138.90625 52.857147 C 138.697815 52.857147 138.59375 52.75206 138.59375 52.54158 C 140.185303 52.314697 141.747803 51.946419 143.28125 51.437096 C 143.794067 51.080833 144.106567 50.607491 144.21875 50.017059 Z" opacity="0.771" stroke="none" fill-rule="evenodd" fill="#130f10" id="path40"></path>
    </g>
    <g id="g41">
        <path d="M 128.28125 87.884857 C 128.020615 88.278687 127.604065 88.489166 127.03125 88.515991 C 125.365311 88.278046 124.063126 87.436447 123.125 85.99147 C 123.111244 86.704651 123.371559 87.33577 123.90625 87.884857 C 123.524063 88.236404 123.107498 88.289108 122.65625 88.042641 C 121.343742 87.051773 121.031242 85.894592 121.71875 84.571426 C 118.971252 83.293068 116.57531 81.557465 114.53125 79.364609 C 116.075623 80.463081 117.638123 81.567558 119.21875 82.67804 C 119.947815 82.888519 120.677185 82.888519 121.40625 82.67804 C 121.72406 82.347008 121.776245 81.978737 121.5625 81.573555 C 117.995621 79.025055 114.610306 76.23735 111.40625 73.21109 C 111.0625 73.07476 110.854065 73.232544 110.78125 73.684433 C 111.096878 74.53109 111.409378 75.372391 111.71875 76.208954 C 110.671249 75.200722 109.785934 74.043549 109.0625 72.73774 C 108.771248 71.689117 108.927498 70.742424 109.53125 69.897652 C 115.748436 71.234703 120.852501 74.390358 124.84375 79.364609 C 124.947815 79.259521 125.052185 79.154121 125.15625 79.049042 C 124.849998 78.581688 124.485313 78.160721 124.0625 77.786781 C 123.847504 77.524231 123.899689 77.314064 124.21875 77.155647 C 125.574684 76.734688 126.928749 76.314034 128.28125 75.893387 C 128.639694 75.993736 128.900314 76.203903 129.0625 76.524521 C 129.270935 76.103874 129.270935 75.682899 129.0625 75.26226 C 127.716873 73.706207 127.196251 71.918213 127.5 69.897652 C 128.872498 68.036453 130.539063 67.615807 132.5 68.635391 C 132.679993 69.227715 132.627808 69.806458 132.34375 70.371002 C 131.777496 70.942802 131.204697 71.52124 130.625 72.106613 C 130.416565 72.317101 130.416565 72.52726 130.625 72.73774 C 132.395935 71.475479 134.166565 70.213219 135.9375 68.950958 C 136.325317 68.516426 136.377502 68.095779 136.09375 67.688698 C 135.715317 68.295219 135.298752 68.87365 134.84375 69.424309 C 134.635315 69.634789 134.427185 69.634789 134.21875 69.424309 C 134.597183 69.142502 134.597183 68.879646 134.21875 68.635391 C 133.87999 69.003029 133.61969 69.423676 133.4375 69.897652 C 133.340317 69.248848 133.184067 68.617722 132.96875 68.004265 C 133.913132 66.5271 135.267197 65.895973 137.03125 66.110878 C 140.92218 66.524582 142.22438 68.628448 140.9375 72.422173 C 140.792191 72.873749 140.531555 73.241692 140.15625 73.526649 C 140.45282 73.721359 140.713135 73.668976 140.9375 73.368874 C 141.367188 72.238518 141.888123 71.186745 142.5 70.213219 C 144.867188 71.179169 145.492188 72.862068 144.375 75.26226 C 143.802185 75.840691 143.229065 76.419441 142.65625 76.997864 C 143.974365 76.641907 144.860001 75.747597 145.3125 74.315567 C 145.486557 77.382545 144.288437 79.749283 141.71875 81.415779 C 137.79657 82.934906 133.73407 83.671112 129.53125 83.624733 C 130.085938 84.078827 130.710938 84.394379 131.40625 84.571426 C 129.266571 84.835236 127.183121 85.25589 125.15625 85.833687 C 130.693115 86.04892 130.797501 86.469551 125.46875 87.095955 C 126.314369 87.698044 127.251869 87.960907 128.28125 87.884857 Z" stroke="none" fill-rule="evenodd" fill="#803ea3" id="path41"></path>
    </g>
    <g id="g42">
        <path d="M 147.03125 70.213219 C 147.447815 70.423706 147.447815 70.423706 147.03125 70.213219 Z" opacity="0.004" stroke="none" fill-rule="evenodd" fill="#000000" id="path42"></path>
    </g>
    <g id="g43">
        <path d="M 120.46875 62.00853 C 123.047188 62.683205 125.651558 63.261635 128.28125 63.744141 C 131.646561 64.040771 134.979996 63.882988 138.28125 63.270782 C 137.725937 63.617912 137.100937 63.881096 136.40625 64.0597 C 135.246567 64.114922 134.100632 64.272705 132.96875 64.533051 C 133.309998 65.90197 134.039368 66.270241 135.15625 65.637535 C 138.747818 64.765945 141.039368 66.080894 142.03125 69.582092 C 144.474365 69.999268 145.77655 71.472008 145.9375 74 C 146.168121 75.186844 146.064056 76.344017 145.625 77.471214 C 144.940628 78.645744 144.263748 79.802925 143.59375 80.942429 C 139.895615 82.87558 135.93718 83.927673 131.71875 84.098083 C 132.059372 84.448044 132.059372 84.763611 131.71875 85.044769 C 130.903427 85.275146 130.069992 85.432915 129.21875 85.51812 C 129.753433 85.875656 129.909683 86.348999 129.6875 86.938156 C 129.145615 87.17453 128.572815 87.332298 127.96875 87.411522 C 128.142502 87.532372 128.246567 87.690155 128.28125 87.884857 C 127.251869 87.960907 126.314369 87.698044 125.46875 87.095955 C 130.797501 86.469551 130.693115 86.04892 125.15625 85.833687 C 127.183121 85.25589 129.266571 84.835236 131.40625 84.571426 C 130.710938 84.394379 130.085938 84.078827 129.53125 83.624733 C 133.73407 83.671112 137.79657 82.934906 141.71875 81.415779 C 144.288437 79.749283 145.486557 77.382545 145.3125 74.315567 C 144.860001 75.747597 143.974365 76.641907 142.65625 76.997864 C 143.229065 76.419441 143.802185 75.840691 144.375 75.26226 C 145.492188 72.862068 144.867188 71.179169 142.5 70.213219 C 141.888123 71.186745 141.367188 72.238518 140.9375 73.368874 C 140.713135 73.668976 140.45282 73.721359 140.15625 73.526649 C 140.531555 73.241692 140.792191 72.873749 140.9375 72.422173 C 142.22438 68.628448 140.92218 66.524582 137.03125 66.110878 C 135.267197 65.895973 133.913132 66.5271 132.96875 68.004265 C 133.184067 68.617722 133.340317 69.248848 133.4375 69.897652 C 133.61969 69.423676 133.87999 69.003029 134.21875 68.635391 C 134.597183 68.879646 134.597183 69.142502 134.21875 69.424309 C 134.427185 69.634789 134.635315 69.634789 134.84375 69.424309 C 135.298752 68.87365 135.715317 68.295219 136.09375 67.688698 C 136.377502 68.095779 136.325317 68.516426 135.9375 68.950958 C 134.166565 70.213219 132.395935 71.475479 130.625 72.73774 C 130.416565 72.52726 130.416565 72.317101 130.625 72.106613 C 131.204697 71.52124 131.777496 70.942802 132.34375 70.371002 C 132.627808 69.806458 132.679993 69.227715 132.5 68.635391 C 130.539063 67.615807 128.872498 68.036453 127.5 69.897652 C 127.196251 71.918213 127.716873 73.706207 129.0625 75.26226 C 129.270935 75.682899 129.270935 76.103874 129.0625 76.524521 C 128.900314 76.203903 128.639694 75.993736 128.28125 75.893387 C 126.928749 76.314034 125.574684 76.734688 124.21875 77.155647 C 123.899689 77.314064 123.847504 77.524231 124.0625 77.786781 C 124.485313 78.160721 124.849998 78.581688 125.15625 79.049042 C 125.052185 79.154121 124.947815 79.259521 124.84375 79.364609 C 120.852501 74.390358 115.748436 71.234703 109.53125 69.897652 C 109.53125 69.792572 109.53125 69.687164 109.53125 69.582092 C 110.196243 69.225815 110.925308 69.173119 111.71875 69.424309 C 114.266563 70.657852 116.766563 71.972809 119.21875 73.368874 C 120.670624 74.466408 122.076874 75.623581 123.4375 76.840088 C 124.906555 76.21653 126.41687 75.743187 127.96875 75.420044 C 128.111557 75.289398 128.215927 75.131615 128.28125 74.946693 C 127.202812 73.417778 126.734062 71.734879 126.875 69.897652 C 127.40844 69.412628 127.87719 68.886581 128.28125 68.319832 C 128.91188 68.106819 129.432495 67.738876 129.84375 67.215355 C 129.572815 66.235535 129.468445 65.23613 129.53125 64.217484 C 127.827187 64.260094 126.160622 64.049614 124.53125 63.586349 C 123.11219 63.248695 121.757813 62.722649 120.46875 62.00853 Z" stroke="none" fill-rule="evenodd" fill="#190f18" id="path43"></path>
    </g>
    <g id="g44">
        <path d="M 130.15625 64.533051 C 131.014694 64.43428 131.848129 64.539368 132.65625 64.848618 C 132.852493 65.403374 133.164993 65.876717 133.59375 66.268646 C 132.790619 67.252586 131.748749 67.620857 130.46875 67.373138 C 130.262817 66.440636 130.158752 65.493935 130.15625 64.533051 Z" opacity="0.973" stroke="none" fill-rule="evenodd" fill="#ed3eb0" id="path44"></path>
    </g>
    <g id="g45">
        <path d="M 87.65625 71.791046 C 89.041565 72.016357 90.1875 72.647491 91.09375 73.684433 C 90.885315 73.684433 90.78125 73.78952 90.78125 74 C 89.772186 72.919189 88.522186 72.498543 87.03125 72.73774 C 87.359688 72.509903 87.568123 72.194336 87.65625 71.791046 Z" stroke="none" fill-rule="evenodd" fill="#271730" id="path45"></path>
    </g>
    <g id="g46">
        <path d="M 115.46875 81.257996 C 116.860931 82.541389 118.423431 83.593491 120.15625 84.413658 C 120.633438 85.809708 121.258438 87.124664 122.03125 88.358208 C 122.923439 89.01458 123.756561 88.962204 124.53125 88.200424 C 125.890945 89.286911 127.297195 89.391998 128.75 88.515991 C 128.915009 88.100708 128.758759 87.890213 128.28125 87.884857 C 128.246567 87.690155 128.142502 87.532372 127.96875 87.411522 C 128.572815 87.332298 129.14563 87.17453 129.6875 86.938156 C 129.909683 86.348999 129.753433 85.875656 129.21875 85.51812 C 130.070007 85.432915 130.903442 85.275146 131.71875 85.044769 C 132.059372 84.763611 132.059372 84.448044 131.71875 84.098083 C 135.93718 83.927673 139.895615 82.87558 143.59375 80.942429 C 144.439377 81.739548 144.647507 82.686249 144.21875 83.782516 C 143.373123 83.90464 142.644058 84.220207 142.03125 84.729218 C 142.970627 85.123032 143.908127 85.123032 144.84375 84.729218 C 145.384064 85.471115 145.592499 86.312714 145.46875 87.253723 C 144.792191 87.132545 144.271255 87.343033 143.90625 87.884857 C 144.389069 88.185287 144.910004 88.290359 145.46875 88.200424 C 144.898132 94.875885 142.398132 100.713837 137.96875 105.714294 C 136.284683 107.099304 134.513748 108.361572 132.65625 109.501068 C 132.125305 109.625092 131.656555 109.4673 131.25 109.027718 C 130.65625 109.209801 130.083435 109.42028 129.53125 109.658844 C 128.747192 110.031845 128.330322 110.662987 128.28125 111.552231 C 125.87281 112.144867 123.476875 112.565834 121.09375 112.814507 C 119.477814 112.315598 117.915314 111.631775 116.40625 110.763329 C 113.482811 108.023903 111.035004 104.920952 109.0625 101.454147 C 109.972496 104.225449 111.378746 106.749969 113.28125 109.027718 C 112.234375 109.451515 111.19281 109.872482 110.15625 110.289978 C 108.626251 110.313019 107.063751 110.050156 105.46875 109.501068 C 105.504066 108.464752 105.400002 107.412979 105.15625 106.345421 C 104.427185 106.134933 103.697815 106.134933 102.96875 106.345421 C 102.510307 106.69191 102.249687 107.165253 102.1875 107.765457 C 100.253754 106.156395 98.378754 104.47348 96.5625 102.716415 C 96.409378 102.308395 96.357185 101.887421 96.40625 101.454147 C 96.773438 101.52327 97.085938 101.418175 97.34375 101.138596 C 94.332809 99.723907 91.520309 97.988304 88.90625 95.931778 C 88.268745 95.242264 87.851875 94.453339 87.65625 93.565033 C 88.574371 93.920975 89.511871 94.289261 90.46875 94.669495 C 91.71875 94.87999 92.96875 94.87999 94.21875 94.669495 C 90.964378 92.679245 88.620628 89.891846 87.1875 86.30703 C 86.979065 85.780975 86.979065 85.255257 87.1875 84.729218 C 87.362816 84.564484 87.571251 84.459396 87.8125 84.413658 C 89.56031 86.326614 91.59156 87.904427 93.90625 89.147133 C 94.010315 88.936646 94.114685 88.726471 94.21875 88.515991 C 92.218124 85.425354 90.290939 82.269699 88.4375 79.049042 C 88.048752 78.082153 87.788437 77.082756 87.65625 76.05117 C 87.596558 75.428558 87.805008 74.955215 88.28125 74.631126 C 89.349693 75.131615 90.287193 75.815132 91.09375 76.682304 C 93.719376 78.166405 96.427811 79.534065 99.21875 80.784645 C 102.12188 81.256409 105.03875 81.624672 107.96875 81.889122 C 110.460938 81.574196 112.960938 81.363708 115.46875 81.257996 Z" stroke="none" fill-rule="evenodd" fill="#935eaf" id="path46"></path>
    </g>
    <g id="g47">
        <path d="M 114.53125 79.364609 C 113.364372 78.5028 112.426872 77.451019 111.71875 76.208954 C 111.409378 75.372391 111.096878 74.53109 110.78125 73.684433 C 110.854065 73.232544 111.0625 73.07476 111.40625 73.21109 C 114.610313 76.23735 117.995628 79.025055 121.5625 81.573555 C 121.776245 81.978737 121.72406 82.347008 121.40625 82.67804 C 120.677185 82.888519 119.947815 82.888519 119.21875 82.67804 C 117.638123 81.567558 116.075623 80.463081 114.53125 79.364609 Z" stroke="none" fill-rule="evenodd" fill="#925dae" id="path47"></path>
    </g>
    <g id="g48">
        <path d="M 144.21875 50.017059 C 144.106567 50.607491 143.794067 51.080833 143.28125 51.437096 C 141.747803 51.946419 140.185303 52.314697 138.59375 52.54158 C 137.836243 52.444382 137.107193 52.549789 136.40625 52.857147 C 137.284058 53.267372 138.117508 53.267372 138.90625 52.857147 C 140.260635 52.59301 141.615005 52.435226 142.96875 52.383797 C 142.522491 53.073303 142.001556 53.70443 141.40625 54.277191 C 140.071884 54.672905 138.717499 54.988464 137.34375 55.223885 C 139.54657 55.819031 141.36937 55.240601 142.8125 53.488274 C 142.916565 57.380142 143.020935 61.272316 143.125 65.164177 C 143.808441 67.962608 145.058441 70.487129 146.875 72.73774 C 148.635941 74.199753 150.30249 75.777573 151.875 77.471214 C 152.727493 78.807312 153.196243 80.280067 153.28125 81.889122 C 152.707809 84.833038 151.249374 87.252151 148.90625 89.147133 C 148.669067 88.308662 148.460632 87.467377 148.28125 86.622604 C 148.124374 86.300415 147.916245 86.247726 147.65625 86.464828 C 147.852188 87.013268 147.956253 87.591698 147.96875 88.200424 C 146.864059 97.267548 142.749695 104.63063 135.625 110.289978 C 135.470627 110.805618 135.418747 111.33165 135.46875 111.867798 C 135.897812 111.818253 136.314682 111.870972 136.71875 112.025589 C 137.01593 112.252151 137.06781 112.515022 136.875 112.814507 C 136.226563 113.49234 135.497498 113.597725 134.6875 113.130066 C 135.060303 114.060989 134.747803 114.692123 133.75 115.02346 C 132.764999 113.659897 132.5047 113.764969 132.96875 115.33902 C 132.556244 115.794052 132.035629 116.004234 131.40625 115.970146 C 131.452805 115.638176 131.40094 115.322609 131.25 115.02346 C 130.854996 115.688347 130.282196 116.003914 129.53125 115.970146 C 129.53125 115.654579 129.53125 115.33902 129.53125 115.02346 C 129.127823 114.716415 129.127823 114.400848 129.53125 114.076767 C 127.351242 113.814522 125.163742 113.656738 122.96875 113.603409 C 122.347496 113.307419 121.722496 113.044235 121.09375 112.814507 C 123.476875 112.565834 125.87281 112.144867 128.28125 111.552231 C 128.330322 110.662987 128.747192 110.031845 129.53125 109.658844 C 130.083435 109.42028 130.65625 109.209801 131.25 109.027718 C 131.656555 109.4673 132.125305 109.625092 132.65625 109.501068 C 134.513748 108.361572 136.284683 107.099304 137.96875 105.714294 C 142.398132 100.713837 144.898132 94.875885 145.46875 88.200424 C 144.910004 88.290359 144.389069 88.185287 143.90625 87.884857 C 144.271255 87.343033 144.792191 87.132545 145.46875 87.253723 C 145.592499 86.312714 145.384064 85.471115 144.84375 84.729218 C 143.908127 85.123032 142.970627 85.123032 142.03125 84.729218 C 142.644058 84.220207 143.373123 83.90464 144.21875 83.782516 C 144.647507 82.686249 144.439377 81.739548 143.59375 80.942429 C 144.263748 79.802925 144.940628 78.645744 145.625 77.471214 C 146.064056 76.344017 146.168121 75.186844 145.9375 74 C 145.77655 71.472008 144.474365 69.999268 142.03125 69.582092 C 141.039368 66.080894 138.747818 64.765945 135.15625 65.637535 C 134.039368 66.270241 133.309998 65.90197 132.96875 64.533051 C 134.100632 64.272705 135.246567 64.114922 136.40625 64.0597 C 137.100937 63.881096 137.725937 63.617912 138.28125 63.270782 C 141.079681 62.776291 142.225632 61.198471 141.71875 58.537308 C 141.745621 58.223015 141.641251 57.960152 141.40625 57.748405 C 140.729065 57.695702 140.052185 57.643318 139.375 57.590622 C 137.547821 57.780907 135.724686 57.991394 133.90625 58.221748 C 135.00032 57.757874 136.146255 57.336899 137.34375 56.959488 C 137.620621 56.699135 137.724686 56.383583 137.65625 56.012794 C 134.982178 55.736359 134.878113 55.263016 137.34375 54.592751 C 137.760315 54.277191 137.760315 53.961617 137.34375 53.646057 C 135.085938 53.916183 133.002502 53.442841 131.09375 52.226006 C 131.522812 52.275551 131.939682 52.222855 132.34375 52.068222 C 131.505005 51.822723 130.77594 51.402077 130.15625 50.805969 C 131.57843 51.117119 133.03656 51.432678 134.53125 51.752663 C 138.00563 52.322899 141.23468 51.744469 144.21875 50.017059 Z" stroke="none" fill-rule="evenodd" fill="#7e3ca1" id="path48"></path>
    </g>
    <g id="g49">
        <path d="M 147.03125 76.840088 C 152.478119 78.562119 153.519684 81.770477 150.15625 86.464828 C 149.752182 86.619446 149.335312 86.67215 148.90625 86.622604 C 149.447495 83.445801 148.770309 80.605721 146.875 78.102348 C 146.694061 77.651718 146.746246 77.230759 147.03125 76.840088 Z" stroke="none" fill-rule="evenodd" fill="#925eae" id="path49"></path>
    </g>
    <g id="g50">
        <path d="M 138.59375 52.54158 C 138.59375 52.75206 138.697815 52.857147 138.90625 52.857147 C 138.117508 53.267372 137.284058 53.267372 136.40625 52.857147 C 137.107193 52.549789 137.836243 52.444382 138.59375 52.54158 Z" opacity="0.953" stroke="none" fill-rule="evenodd" fill="#371f42" id="path50"></path>
    </g>
    <g id="g51">
        <path d="M 141.71875 85.99147 C 142.295624 85.903748 142.712494 86.114235 142.96875 86.622604 C 142.623428 87.061867 142.206558 87.43013 141.71875 87.727081 C 140.576569 87.877594 139.535004 87.824905 138.59375 87.56929 C 138.742813 87.260674 138.950943 86.997803 139.21875 86.780396 C 140.096878 86.533607 140.930313 86.270439 141.71875 85.99147 Z" stroke="none" fill-rule="evenodd" fill="#803ea3" id="path51"></path>
    </g>
    <g id="g52">
        <path d="M 87.65625 71.791046 C 87.568123 72.194336 87.359688 72.509903 87.03125 72.73774 C 86.283119 73.315857 85.970619 74.104767 86.09375 75.104477 C 86.657814 79.135506 88.428749 82.554024 91.40625 85.360344 C 91.354065 85.465424 91.302185 85.570824 91.25 85.675903 C 90.967812 85.296921 90.603439 85.033737 90.15625 84.886993 C 89.045631 83.609909 88.004066 82.295242 87.03125 80.942429 C 86.625313 81.128616 86.365005 81.444183 86.25 81.889122 C 85.625 86.995277 87.448128 91.045258 91.71875 94.038376 C 90.948441 93.860092 90.219376 93.491821 89.53125 92.933899 C 88.793129 92.084404 88.063744 91.242798 87.34375 90.409393 C 87.127502 90.575043 86.971252 90.785538 86.875 91.040504 C 86.666565 91.987198 86.666565 92.933899 86.875 93.880608 C 87.308754 95.402893 88.090004 96.717834 89.21875 97.825165 C 91.231255 98.946663 93.31469 99.893372 95.46875 100.665253 C 94.000938 100.741608 92.646873 100.373657 91.40625 99.560768 C 91.302185 99.665848 91.197815 99.771255 91.09375 99.876343 C 92.511253 102.7789 94.490311 105.198334 97.03125 107.134323 C 96.110313 107.393402 95.172813 107.551201 94.21875 107.607681 C 93.316879 108.276672 93.212814 108.960495 93.90625 109.658844 C 94.089378 109.592896 94.245628 109.487488 94.375 109.343292 C 94.375 109.763931 94.375 110.184898 94.375 110.605545 C 94.846565 110.791733 95.315315 111.001907 95.78125 111.236671 C 95.423439 111.675629 95.423439 112.096268 95.78125 112.498932 C 96.167496 112.263519 96.584381 112.15844 97.03125 112.183365 C 97.03125 112.604019 97.03125 113.024979 97.03125 113.445633 C 97.34375 113.445633 97.65625 113.445633 97.96875 113.445633 C 97.888748 112.722351 97.992813 112.038521 98.28125 111.394455 C 99.709999 111.642807 101.168129 111.800583 102.65625 111.867798 C 102.615311 112.144241 102.719376 112.354721 102.96875 112.498932 C 104.259995 112.254372 105.562195 112.044197 106.875 111.867798 C 107.209381 111.87664 107.469696 111.98172 107.65625 112.183365 C 104.770935 112.870987 101.85437 112.976059 98.90625 112.498932 C 98.3675 114.680115 97.43 114.890602 96.09375 113.130066 C 95.466873 113.603409 94.946251 114.181839 94.53125 114.865677 C 94.971878 115.754929 95.492813 116.596542 96.09375 117.390198 C 95.950935 117.520844 95.846565 117.678619 95.78125 117.863541 C 97.657188 123.487854 95.782188 125.223457 90.15625 123.070358 C 88.837814 122.265038 87.848129 121.160568 87.1875 119.756935 C 86.83625 117.69313 86.263123 115.694672 85.46875 113.761192 C 86.247505 112.572769 87.289375 112.257217 88.59375 112.814507 C 90.947807 111.752312 92.458122 109.964005 93.125 107.44989 C 93.618439 106.963608 94.191559 106.595337 94.84375 106.345421 C 92.621254 104.414162 91.006569 102.047424 90 99.245209 C 86.428444 96.934631 85.438751 93.831688 87.03125 89.93602 C 85.054688 87.488197 84.585938 84.805901 85.625 81.889122 C 85.928749 81.319527 86.293442 80.793488 86.71875 80.311302 C 85.617508 78.232361 85.252808 76.023407 85.625 73.684433 C 86.064377 72.766464 86.741249 72.13533 87.65625 71.791046 Z" opacity="0.745" stroke="none" fill-rule="evenodd" fill="#161315" id="path52"></path>
    </g>
    <g id="g53">
        <path d="M 142.96875 88.515991 C 144.104691 88.565216 144.20874 88.933167 143.28125 89.620468 C 142.315948 89.667175 141.430634 89.930038 140.625 90.409393 C 139.547501 90.50531 138.558121 90.40023 137.65625 90.093819 C 137.721573 89.90889 137.825943 89.751122 137.96875 89.620468 C 139.684067 89.281235 141.350616 88.913292 142.96875 88.515991 Z" stroke="none" fill-rule="evenodd" fill="#7f3da2" id="path53"></path>
    </g>
    <g id="g54">
        <path d="M 149.21875 90.724945 C 149.635315 90.935425 149.635315 90.935425 149.21875 90.724945 Z" opacity="0.004" stroke="none" fill-rule="evenodd" fill="#0f0500" id="path54"></path>
    </g>
    <g id="g55">
        <path d="M 100.15625 96.089554 C 101.129379 95.89357 102.066879 96.10376 102.96875 96.720673 C 102.197189 97.164993 101.467812 97.691048 100.78125 98.298508 C 100.598122 98.232544 100.441872 98.127159 100.3125 97.982941 C 100.157814 97.360336 100.105629 96.729202 100.15625 96.089554 Z" stroke="none" fill-rule="evenodd" fill="#181113" id="path55"></path>
    </g>
    <g id="g56">
        <path d="M 87.03125 72.73774 C 88.522186 72.498543 89.772186 72.919189 90.78125 74 C 93.065628 75.575615 95.461563 76.995659 97.96875 78.260124 C 100.200943 79.03421 102.492508 79.507561 104.84375 79.680168 C 107.115005 80.059166 108.417191 79.112473 108.75 76.840088 C 108.579376 75.741287 108.683746 74.689507 109.0625 73.684433 C 110.836563 76.537781 112.971878 79.062294 115.46875 81.257996 C 112.960938 81.363708 110.460938 81.574196 107.96875 81.889122 C 105.03875 81.624672 102.12188 81.256409 99.21875 80.784645 C 96.427811 79.534065 93.719376 78.166405 91.09375 76.682304 C 90.287193 75.815132 89.349693 75.131615 88.28125 74.631126 C 87.805008 74.955215 87.596558 75.428558 87.65625 76.05117 C 87.788437 77.082756 88.048752 78.082153 88.4375 79.049042 C 90.290939 82.269699 92.218124 85.425354 94.21875 88.515991 C 94.114685 88.726471 94.010315 88.936646 93.90625 89.147133 C 91.59156 87.904427 89.56031 86.326614 87.8125 84.413658 C 87.571251 84.459396 87.362816 84.564484 87.1875 84.729218 C 86.979065 85.255257 86.979065 85.780975 87.1875 86.30703 C 88.620628 89.891846 90.964378 92.679245 94.21875 94.669495 C 92.96875 94.87999 91.71875 94.87999 90.46875 94.669495 C 89.511871 94.289261 88.574371 93.920975 87.65625 93.565033 C 87.851875 94.453339 88.268745 95.242264 88.90625 95.931778 C 91.520309 97.988304 94.332809 99.723907 97.34375 101.138596 C 97.085938 101.418175 96.773438 101.52327 96.40625 101.454147 C 96.357185 101.887421 96.409378 102.308395 96.5625 102.716415 C 98.378754 104.47348 100.253754 106.156395 102.1875 107.765457 C 102.249687 107.165253 102.510307 106.69191 102.96875 106.345421 C 103.697815 106.134933 104.427185 106.134933 105.15625 106.345421 C 105.400002 107.412979 105.504066 108.464752 105.46875 109.501068 C 107.063751 110.050156 108.626251 110.313019 110.15625 110.289978 C 107.720001 111.073845 105.220001 111.599579 102.65625 111.867798 C 101.168129 111.800583 99.709999 111.642807 98.28125 111.394455 C 97.992813 112.038521 97.888748 112.722351 97.96875 113.445633 C 97.65625 113.445633 97.34375 113.445633 97.03125 113.445633 C 97.03125 113.024979 97.03125 112.604019 97.03125 112.183365 C 96.584381 112.15844 96.167496 112.263519 95.78125 112.498932 C 95.423439 112.096268 95.423439 111.675629 95.78125 111.236671 C 95.315315 111.001907 94.846565 110.791733 94.375 110.605545 C 94.375 110.184898 94.375 109.763931 94.375 109.343292 C 94.245628 109.487488 94.089378 109.592896 93.90625 109.658844 C 93.212814 108.960495 93.316879 108.276672 94.21875 107.607681 C 95.172813 107.551201 96.110313 107.393402 97.03125 107.134323 C 94.490311 105.198334 92.511253 102.7789 91.09375 99.876343 C 91.197815 99.771255 91.302185 99.665848 91.40625 99.560768 C 92.646873 100.373657 94.000938 100.741608 95.46875 100.665253 C 93.31469 99.893372 91.231255 98.946663 89.21875 97.825165 C 88.090004 96.717834 87.308754 95.402893 86.875 93.880608 C 86.666565 92.933899 86.666565 91.987198 86.875 91.040504 C 86.971252 90.785538 87.127502 90.575043 87.34375 90.409393 C 88.063744 91.242798 88.793129 92.084404 89.53125 92.933899 C 90.219376 93.491821 90.948441 93.860092 91.71875 94.038376 C 87.448128 91.045258 85.625 86.995277 86.25 81.889122 C 86.365005 81.444183 86.625313 81.128616 87.03125 80.942429 C 88.004066 82.295242 89.045631 83.609909 90.15625 84.886993 C 90.603439 85.033737 90.967812 85.296921 91.25 85.675903 C 91.302185 85.570824 91.354065 85.465424 91.40625 85.360344 C 88.428749 82.554024 86.657814 79.135506 86.09375 75.104477 C 85.970619 74.104767 86.283119 73.315857 87.03125 72.73774 Z" stroke="none" fill-rule="evenodd" fill="#7e3ba1" id="path56"></path>
    </g>
    <g id="g57">
        <path d="M 101.09375 76.524521 C 101.370621 76.121857 101.683121 76.121857 102.03125 76.524521 C 101.742188 76.85965 101.429688 76.85965 101.09375 76.524521 Z" opacity="0.008" stroke="none" fill-rule="evenodd" fill="#9245cf" id="path57"></path>
    </g>
    <g id="g58">
        <path d="M 121.09375 112.814507 C 121.722496 113.044235 122.347496 113.307419 122.96875 113.603409 C 125.16375 113.656738 127.35125 113.814522 129.53125 114.076767 C 129.127823 114.400848 129.127823 114.716415 129.53125 115.02346 C 129.21875 115.02346 128.90625 115.02346 128.59375 115.02346 C 123.144066 115.213745 118.144066 113.530823 113.59375 109.974411 C 111.704681 111.030296 109.725632 111.766502 107.65625 112.183365 C 107.469696 111.98172 107.209381 111.87664 106.875 111.867798 C 105.562195 112.044197 104.259995 112.254372 102.96875 112.498932 C 102.719376 112.354721 102.615311 112.144241 102.65625 111.867798 C 105.220001 111.599579 107.720001 111.073845 110.15625 110.289978 C 111.19281 109.872482 112.234375 109.451515 113.28125 109.027718 C 111.378746 106.749969 109.972496 104.225449 109.0625 101.454147 C 111.035004 104.920952 113.482811 108.023903 116.40625 110.763329 C 117.915314 111.631775 119.477814 112.315598 121.09375 112.814507 Z" opacity="0.996" stroke="none" fill-rule="evenodd" fill="#160c16" id="path58"></path>
    </g>
    <g id="g59">
        <path d="M 104.21875 106.818756 C 104.689995 107.632919 104.48156 108.264053 103.59375 108.712158 C 103.08625 108.280144 102.93 107.754089 103.125 107.134323 C 103.805626 108.070915 104.169998 107.965836 104.21875 106.818756 Z" stroke="none" fill-rule="evenodd" fill="#2a1a2a" id="path59"></path>
    </g>
    <g id="g60">
        <path d="M 129.53125 107.44989 C 130.283752 107.707077 130.544067 108.232803 130.3125 109.027718 C 129.970627 108.529755 129.709991 108.003708 129.53125 107.44989 Z" stroke="none" fill-rule="evenodd" fill="#1d151d" id="path60"></path>
    </g>
    <g id="g61">
        <path d="M 129.53125 109.658844 C 128.639694 109.441429 128.119064 108.862991 127.96875 107.923233 C 128.26532 107.728546 128.525635 107.78093 128.75 108.081032 C 129.199371 108.522812 129.459686 109.048859 129.53125 109.658844 Z" stroke="none" fill-rule="evenodd" fill="#1e151c" id="path61"></path>
    </g>
    <g id="g62">
        <path d="M 93.90625 110.921104 C 94.556244 111.494812 94.973129 112.231018 95.15625 113.130066 C 94.67469 113.667786 94.257813 114.246216 93.90625 114.865677 C 94.252815 115.511635 94.46125 116.195145 94.53125 116.91684 C 94.192497 117.490852 93.775627 118.016586 93.28125 118.494667 C 92.736557 118.009338 92.111557 117.693764 91.40625 117.547981 C 91.160316 117.041817 90.743752 116.831329 90.15625 116.91684 C 89.429688 116.060402 89.377502 115.113708 90 114.076767 C 91.268753 112.950195 92.570938 111.898102 93.90625 110.921104 Z" opacity="0.973" stroke="none" fill-rule="evenodd" fill="#f8bbac" id="path62"></path>
    </g>
    <g id="g63">
        <path d="M 160.46875 112.183365 C 160.592804 111.859924 160.800934 111.807228 161.09375 112.025589 C 160.908127 112.172012 160.699692 112.224709 160.46875 112.183365 Z" opacity="0.004" stroke="none" fill-rule="evenodd" fill="#9535aa" id="path63"></path>
    </g>
    <g id="g64">
        <path d="M 93.90625 110.921104 C 92.57093 111.898102 91.268745 112.950195 90 114.076767 C 89.377495 115.113708 89.42968 116.060402 90.15625 116.91684 C 89.597504 117.006783 89.076569 116.901695 88.59375 116.601273 C 87.954994 114.163849 88.892494 112.638733 91.40625 112.025589 C 91.940933 111.208588 92.514069 110.419685 93.125 109.658844 C 93.658119 109.913826 93.918434 110.334473 93.90625 110.921104 Z" opacity="0.973" stroke="none" fill-rule="evenodd" fill="#da9080" id="path64"></path>
    </g>
    <g id="g65">
        <path d="M 139.53125 116.601273 C 140.827805 116.418259 141.973755 116.62841 142.96875 117.232414 C 142.864685 117.232414 142.760315 117.232414 142.65625 117.232414 C 141.71875 117.547981 141.09375 118.179108 140.78125 119.125793 C 140.004379 120.168427 139.483749 121.3256 139.21875 122.597015 C 137.822815 121.870575 137.14563 120.71373 137.1875 119.125793 C 136.197815 118.126411 135.208435 117.127319 134.21875 116.12793 C 133.922501 115.97551 133.610001 115.923134 133.28125 115.970146 C 133.019379 115.862228 132.915009 115.652061 132.96875 115.33902 C 134.328445 115.64418 135.057816 115.118126 135.15625 113.761192 C 135.585312 113.711639 136.002182 113.764351 136.40625 113.918968 C 137.061874 114.819595 137.790939 115.661209 138.59375 116.443497 C 138.889999 116.595917 139.202499 116.648285 139.53125 116.601273 Z" opacity="0.973" stroke="none" fill-rule="evenodd" fill="#f7baab" id="path65"></path>
    </g>
    <g id="g66">
        <path d="M 146.09375 116.91684 C 145.288757 116.926949 144.559692 116.716461 143.90625 116.285706 C 143.865311 116.009277 143.969376 115.798798 144.21875 115.654579 C 144.67749 116.233009 145.198441 116.338097 145.78125 115.970146 C 145.388123 116.132973 145.075623 115.922821 144.84375 115.33902 C 146.6875 114.77951 147.104065 115.30526 146.09375 116.91684 Z" opacity="0.992" stroke="none" fill-rule="evenodd" fill="#c58071" id="path66"></path>
    </g>
    <g id="g67">
        <path d="M 139.53125 116.601273 C 140.507813 116.292343 141.549377 116.186943 142.65625 116.285706 C 143.650635 116.487679 143.7547 116.803253 142.96875 117.232414 C 141.973755 116.62841 140.827805 116.418259 139.53125 116.601273 Z" opacity="0.998" stroke="none" fill-rule="evenodd" fill="#6d514e" id="path67"></path>
    </g>
    <g id="g68">
        <path d="M 143.90625 116.285706 C 144.559692 116.716461 145.288757 116.926949 146.09375 116.91684 C 146.160934 117.446671 145.952499 117.762238 145.46875 117.863541 C 145.229675 117.730057 144.969376 117.624664 144.6875 117.547981 C 144.248123 117.836403 143.779373 118.046555 143.28125 118.179108 C 143.586258 117.764137 143.898758 117.343483 144.21875 116.91684 C 144.105316 116.701309 144.001251 116.490829 143.90625 116.285706 Z" opacity="0.965" stroke="none" fill-rule="evenodd" fill="#3e2422" id="path68"></path>
    </g>
    <g id="g69">
        <path d="M 143.90625 116.285706 C 144.001251 116.490829 144.105316 116.701309 144.21875 116.91684 C 143.898758 117.343483 143.586258 117.764137 143.28125 118.179108 C 142.526871 118.624367 142.005936 119.255508 141.71875 120.072495 C 141.772491 120.385536 141.668121 120.595703 141.40625 120.703621 C 141.144379 120.811554 141.040009 121.021713 141.09375 121.334747 C 140.86438 121.7696 140.655945 122.24295 140.46875 122.754791 C 140.125 122.891121 139.916565 122.733345 139.84375 122.281456 C 140.186874 121.214516 140.499374 120.16243 140.78125 119.125793 C 141.510315 118.599754 142.135315 117.968628 142.65625 117.232414 C 142.760315 117.232414 142.864685 117.232414 142.96875 117.232414 C 143.7547 116.803253 143.650635 116.487679 142.65625 116.285706 C 142.234375 115.922821 142.286255 115.712341 142.8125 115.654579 C 143.219696 115.80542 143.584061 116.015907 143.90625 116.285706 Z" opacity="0.971" stroke="none" fill-rule="evenodd" fill="#3064a6" id="path69"></path>
    </g>
    <g id="g70">
        <path d="M 94.53125 116.91684 C 95.264687 117.266174 95.368752 117.792221 94.84375 118.494667 C 94.383438 118.885971 93.862495 119.201538 93.28125 119.441368 C 91.871567 118.440704 90.309067 117.809578 88.59375 117.547981 C 89.530624 117.187286 90.468124 117.187286 91.40625 117.547981 C 92.111557 117.693764 92.736557 118.009338 93.28125 118.494667 C 93.775627 118.016586 94.192497 117.490852 94.53125 116.91684 Z" opacity="0.941" stroke="none" fill-rule="evenodd" fill="#364e7c" id="path70"></path>
    </g>
    <g id="g71">
        <path d="M 142.65625 117.232414 C 142.135315 117.968628 141.510315 118.599754 140.78125 119.125793 C 141.09375 118.179108 141.71875 117.547981 142.65625 117.232414 Z" opacity="0.953" stroke="none" fill-rule="evenodd" fill="#292330" id="path71"></path>
    </g>
    <g id="g72">
        <path d="M 145.46875 117.863541 C 144.436249 118.149765 144.331879 118.623108 145.15625 119.283585 C 144.769684 119.356781 144.457184 119.514572 144.21875 119.756935 C 144.262512 120.269409 144.054062 120.63736 143.59375 120.861404 C 144.388443 121.603302 144.180313 121.971245 142.96875 121.965889 C 142.525314 121.665794 142.004684 121.560699 141.40625 121.650314 C 141.40625 121.334747 141.40625 121.01918 141.40625 120.703621 C 141.668121 120.595703 141.772491 120.385536 141.71875 120.072495 C 142.473129 119.627228 142.994064 118.996094 143.28125 118.179108 C 143.779373 118.046555 144.248123 117.836403 144.6875 117.547981 C 144.969376 117.624664 145.229675 117.730057 145.46875 117.863541 Z" opacity="0.972" stroke="none" fill-rule="evenodd" fill="#f4b1a1" id="path72"></path>
    </g>
    <g id="g73">
        <path d="M 143.28125 118.179108 C 142.994064 118.996094 142.473129 119.627228 141.71875 120.072495 C 142.005936 119.255508 142.526871 118.624367 143.28125 118.179108 Z" opacity="0.933" stroke="none" fill-rule="evenodd" fill="#331f1b" id="path73"></path>
    </g>
    <g id="g74">
        <path d="M 146.09375 116.91684 C 146.302185 116.91684 146.510315 116.91684 146.71875 116.91684 C 147.003754 117.307518 147.055939 117.72847 146.875 118.179108 C 146.344696 119.180069 145.771881 120.12677 145.15625 121.01918 C 144.668747 120.505142 144.772812 120.136871 145.46875 119.914719 C 145.064682 119.760094 144.647812 119.707382 144.21875 119.756935 C 144.457184 119.514572 144.769684 119.356781 145.15625 119.283585 C 144.331879 118.623108 144.436249 118.149765 145.46875 117.863541 C 145.952499 117.762238 146.160934 117.446671 146.09375 116.91684 Z" opacity="0.973" stroke="none" fill-rule="evenodd" fill="#6b4a43" id="path74"></path>
    </g>
    <g id="g75">
        <path d="M 145.15625 121.01918 C 145.771881 120.12677 146.344696 119.180069 146.875 118.179108 C 147.055939 117.72847 147.003738 117.307518 146.71875 116.91684 C 146.878433 116.381958 147.086884 115.856232 147.34375 115.33902 C 147.997192 120.596008 145.705627 123.278313 140.46875 123.385918 C 141.500305 122.456581 142.750305 122.035629 144.21875 122.123672 C 144.573746 121.762352 144.886246 121.394073 145.15625 121.01918 Z" opacity="0.977" stroke="none" fill-rule="evenodd" fill="#e1e3e0" id="path75"></path>
    </g>
    <g id="g76">
        <path d="M 94.84375 118.494667 C 95.760941 118.946243 96.229691 119.682457 96.25 120.703621 C 95.964058 120.442329 95.755936 120.12677 95.625 119.756935 C 95.911873 121.241043 95.599373 121.34642 94.6875 120.072495 C 94.626556 120.488731 94.678741 120.909691 94.84375 121.334747 C 94.351875 121.196854 93.98719 120.881287 93.75 120.388054 C 93.441879 121.61087 93.077179 121.61087 92.65625 120.388054 C 92.153748 120.129936 91.632813 119.919456 91.09375 119.756935 C 90.774689 119.915352 90.722504 120.125519 90.9375 120.388054 C 91.409065 120.574234 91.877815 120.784416 92.34375 121.01918 C 91.731255 121.340752 91.106255 121.340752 90.46875 121.01918 C 90.186249 120.795456 90.082184 120.479889 90.15625 120.072495 C 89.985001 119.474808 89.672501 118.949081 89.21875 118.494667 C 90.75 118.366867 92.104065 118.892601 93.28125 120.072495 C 94.045631 119.749359 94.566254 119.223305 94.84375 118.494667 Z" opacity="0.976" stroke="none" fill-rule="evenodd" fill="#de9b8a" id="path76"></path>
    </g>
    <g id="g77">
        <path d="M 133.28125 115.970146 C 133.610001 115.923134 133.922501 115.97551 134.21875 116.12793 C 135.208435 117.127319 136.197815 118.126411 137.1875 119.125793 C 137.14563 120.71373 137.822815 121.870575 139.21875 122.597015 C 137.36499 123.236359 136.219055 122.552528 135.78125 120.545845 C 135.933746 120.04599 136.246246 119.677711 136.71875 119.441368 C 135.498444 118.329636 134.352814 117.17244 133.28125 115.970146 Z" opacity="0.973" stroke="none" fill-rule="evenodd" fill="#e09484" id="path77"></path>
    </g>
    <g id="g78">
        <path d="M 90.15625 120.072495 C 90.082191 120.479889 90.186256 120.795456 90.46875 121.01918 C 90.503433 121.213898 90.607498 121.371674 90.78125 121.492538 C 92.193748 121.749405 93.548126 121.696709 94.84375 121.334747 C 96.773132 121.548706 96.773132 122.127449 94.84375 123.070358 C 91.99469 123.478394 89.755005 122.478989 88.125 120.072495 C 87.537498 117.863213 86.964684 115.654266 86.40625 113.445633 C 86.964996 113.355682 87.485931 113.460785 87.96875 113.761192 C 87.814064 115.104874 87.814064 116.41983 87.96875 117.705757 C 88.594383 118.608261 89.323433 119.397171 90.15625 120.072495 Z" opacity="0.976" stroke="none" fill-rule="evenodd" fill="#eceeea" id="path78"></path>
    </g>
    <g id="g79">
        <path d="M 94.84375 121.334747 C 93.548126 121.696709 92.193748 121.749405 90.78125 121.492538 C 90.607498 121.371674 90.503433 121.213898 90.46875 121.01918 C 91.106255 121.340752 91.731255 121.340752 92.34375 121.01918 C 91.877815 120.784416 91.409065 120.574234 90.9375 120.388054 C 90.722504 120.125519 90.774689 119.915352 91.09375 119.756935 C 91.632813 119.919456 92.153748 120.129936 92.65625 120.388054 C 93.077179 121.61087 93.441879 121.61087 93.75 120.388054 C 93.98719 120.881287 94.351875 121.196854 94.84375 121.334747 Z" opacity="0.969" stroke="none" fill-rule="evenodd" fill="#3b2422" id="path79"></path>
    </g>
    <g id="g80">
        <path d="M 141.40625 120.703621 C 141.40625 121.01918 141.40625 121.334747 141.40625 121.650314 C 142.004684 121.560699 142.525314 121.665794 142.96875 121.965889 C 142.16188 122.115776 141.53688 121.905304 141.09375 121.334747 C 141.040009 121.021713 141.144379 120.811554 141.40625 120.703621 Z" opacity="0.969" stroke="none" fill-rule="evenodd" fill="#905b50" id="path80"></path>
    </g>
    <g id="g81">
        <path d="M 119.21875 122.597015 C 120.388443 122.584091 120.440628 122.794556 119.375 123.228149 C 119.230003 123.040703 119.177811 122.830223 119.21875 122.597015 Z" opacity="0.004" stroke="none" fill-rule="evenodd" fill="#3a3d3a" id="path81"></path>
    </g>
    <g id="g82">
        <path d="M 121.71875 122.281456 C 122.085938 122.212341 122.398438 122.317436 122.65625 122.597015 C 122.055939 122.957069 121.430939 123.009781 120.78125 122.754791 C 121.167816 122.681587 121.480316 122.523811 121.71875 122.281456 Z" opacity="0.004" stroke="none" fill-rule="evenodd" fill="#762718" id="path82"></path>
    </g>
    <g id="g83">
        <path d="M 135.78125 122.281456 C 136.253128 122.703041 136.774063 123.071304 137.34375 123.385918 C 138.228745 123.452827 139.061874 123.505531 139.84375 123.543716 C 138.89093 124.164108 137.84938 124.321899 136.71875 124.017059 C 136.199997 123.547493 135.887497 122.969063 135.78125 122.281456 Z" opacity="0.981" stroke="none" fill-rule="evenodd" fill="#dcdcd9" id="path83"></path>
    </g>
</svg>
