<svg version="1.1" xmlns="http://www.w3.org/2000/svg" xmlns:xlink="http://www.w3.org/1999/xlink" width="38.72303" height="35.42773" viewBox="0,0,38.72303,35.42773"><g transform="translate(-221.26349,-170.24888)"><g data-paper-data="{&quot;isPaintingLayer&quot;:true}" fill-rule="nonzero" stroke-linejoin="miter" stroke-miterlimit="10" stroke-dasharray="" stroke-dashoffset="0" style="mix-blend-mode: normal"><g><path d="M221.28674,188.08195v-2.55923c0,0 -0.47934,-9.17849 2.91435,-12.84701c2.64706,-2.8614 4.37154,-2.39928 4.37154,-2.39928h25.53668v17.80551z" fill="#fae2bb" stroke="none" stroke-width="0" stroke-linecap="butt"/><path d="M254.10932,187.84356v17.80551h-25.53668c0,0 -1.72449,0.46212 -4.37154,-2.39928c-3.3937,-3.6685 -2.91435,-12.84701 -2.91435,-12.84701v-2.55923z" data-paper-data="{&quot;index&quot;:null}" fill="#fae2bb" stroke="none" stroke-width="0" stroke-linecap="butt"/><path d="M227.1407,188.08195v-17.80551h25.53668c0,0 1.72449,-0.46212 4.37153,2.39928c3.3937,3.6685 2.91435,12.84701 2.91435,12.84701v2.55923z" data-paper-data="{&quot;index&quot;:null}" fill="#fae2bb" stroke="none" stroke-width="0" stroke-linecap="butt"/><path d="M259.96326,187.84356v2.55922c0,0 0.47934,9.1785 -2.91435,12.84702c-2.64706,2.8614 -4.37153,2.39927 -4.37153,2.39927h-25.53668v-17.80551z" data-paper-data="{&quot;index&quot;:null}" fill="#fae2bb" stroke="none" stroke-width="0" stroke-linecap="butt"/><path d="M231.87463,183.50691h5.21559l4.93367,-6.00498v20.94696l-4.93367,-5.49752h-5.21559z" fill="#000000" stroke="none" stroke-width="1" stroke-linecap="round"/><path d="M244.81494,182.12549c0,0 1.8872,3.1271 2.25539,4.87728c0.2932,1.42033 0.05977,2.82826 -0.28193,4.14428c-0.34507,1.39384 -1.74793,3.86236 -1.74793,3.86236" fill="none" stroke="#000000" stroke-width="2" stroke-linecap="round"/><path d="M228.38072,178.5l24.99429,20.25" data-paper-data="{&quot;origPos&quot;:null}" fill="none" stroke="#000000" stroke-width="4" stroke-linecap="round"/></g></g></g></svg>