<svg xmlns="http://www.w3.org/2000/svg" viewBox="0 0 200 118" height="118" width="200">
    <g id="Group">
        <path d="M 104.375 32.582092 C 104.389252 32.303062 104.472504 32.051468 104.625 31.827293 C 104.847748 31.67382 105.097748 31.590034 105.375 31.575691 C 106.338753 31.150742 107.005501 30.437958 107.375 29.437103 C 105.741249 27.291458 103.574753 26.033463 100.875 25.663116 C 95.539253 24.974586 91.164253 26.693916 87.75 30.8209 C 87.511002 31.544754 87.17775 32.215759 86.75 32.833687 C 85.719002 38.367363 85.969002 43.818504 87.5 49.18763 C 87.942749 50.445625 88.526001 51.619843 89.25 52.710022 C 89.434753 52.98024 89.684753 53.148056 90 53.213219 C 90.406502 53.014709 90.781502 52.763107 91.125 52.45842 C 91.682503 53.930527 92.515747 54.098095 93.625 52.961617 C 95.291 54.739922 95.249252 56.501114 93.5 58.245205 C 93.400253 58.18784 93.358749 58.103806 93.375 57.993603 C 93.527496 57.769428 93.610748 57.51783 93.625 57.238808 C 94.059753 56.767059 94.309753 56.18008 94.375 55.477612 C 94.367752 55.092915 94.200996 54.799301 93.875 54.597015 C 92.6175 54.492855 91.3675 54.576637 90.125 54.848614 C 89.422752 55.286648 88.672752 55.580265 87.875 55.72921 C 87.414497 52.865257 86.872749 50.013885 86.25 47.174835 C 85.443497 42.832489 85.276749 38.471527 85.75 34.091682 C 88.528 26.797829 93.819748 23.736824 101.625 24.908318 C 106.360001 25.738091 110.026749 28.170044 112.625 32.204689 C 109.841003 31.268242 107.091003 31.394043 104.375 32.582092 Z" opacity="0.96" stroke="none" fill-rule="evenodd" fill="#7c38a0" id="Path"></path>
    </g>
    <g id="g1">
        <path d="M 105.375 31.575691 C 105.407753 31.389763 105.365997 31.221939 105.25 31.072495 C 103.610497 31.475311 102.110497 31.139923 100.75 30.066093 C 100.583252 30.233917 100.583252 30.401482 100.75 30.569298 C 101.937248 31.317047 103.228752 31.736214 104.625 31.827293 C 104.472504 32.051468 104.389252 32.303062 104.375 32.582092 C 104.291748 32.582092 104.208252 32.582092 104.125 32.582092 C 103.611748 32.557426 103.195 32.72525 102.875 33.085289 C 100.149498 30.448776 96.899498 29.568184 93.125 30.443497 C 91.482002 30.850578 90.065247 31.647148 88.875 32.833687 C 88.98925 33.03447 89.155998 33.118248 89.375 33.085289 C 90.736748 32.418297 92.153503 31.873329 93.625 31.44989 C 97.045502 30.642006 99.920502 31.522606 102.25 34.091682 C 102.706749 34.616524 102.706749 35.11972 102.25 35.60128 C 98.427254 33.336136 94.552254 33.294121 90.625 35.475479 C 90.058502 35.834259 89.641998 36.295692 89.375 36.859276 C 89.041748 37.027084 88.791748 37.278687 88.625 37.614067 C 88.625 37.781891 88.625 37.949455 88.625 38.117271 C 88.743248 38.471016 88.993248 38.63884 89.375 38.620468 C 89.375 38.704254 89.375 38.788284 89.375 38.87207 C 89.265503 38.855713 89.181999 38.897484 89.125 38.997871 C 89.520248 39.457787 89.853752 39.960991 90.125 40.507462 C 92.139999 40.905235 94.139999 41.366417 96.125 41.891258 C 97.196747 41.671112 98.280251 41.587326 99.375 41.639656 C 99.446251 42.529816 99.029503 42.990997 98.125 43.023453 C 98.618248 43.147995 99.118248 43.19001 99.625 43.149254 C 98.671997 43.356575 97.671997 43.482376 96.625 43.526649 C 99.820251 44.497826 102.112 43.449669 103.5 40.381668 C 103.704002 40.714523 103.99575 40.882103 104.375 40.884865 C 104.493248 41.238617 104.743248 41.406425 105.125 41.388062 C 107.080498 41.839935 109.080498 42.217339 111.125 42.520256 C 110.361504 43.072266 109.528 43.491676 108.625 43.778252 C 109.513252 44.117912 110.429749 44.41153 111.375 44.658852 C 110.945251 45.124809 110.445251 45.460442 109.875 45.665245 C 109.427002 45.868797 108.927002 45.994591 108.375 46.042648 C 105.625504 46.250214 102.875504 46.334 100.125 46.294243 C 96.375252 45.12204 92.667 43.822029 89 42.394455 C 88.124748 42.399231 87.791496 42.818657 88 43.652451 C 89.328247 45.576683 91.036499 47.04451 93.125 48.055443 C 93.939499 48.424522 94.773003 48.717896 95.625 48.936035 C 97.467499 49.735611 99.384247 50.322845 101.375 50.697227 C 102.686996 52.370613 103.395248 54.299622 103.5 56.484009 C 103.677002 56.705669 103.885498 56.873234 104.125 56.987206 C 104.315498 57.901268 104.649002 58.739849 105.125 59.503197 C 105.589752 60.893284 106.547997 61.732113 108 62.019192 C 108.383247 61.950504 108.758247 61.866718 109.125 61.76759 C 109.224251 62.025478 109.390747 62.067497 109.625 61.893391 C 110.753502 61.115696 111.836746 60.276863 112.875 59.377399 C 113.195999 59.205303 113.487747 59.247322 113.75 59.503197 C 113.913254 60.5891 114.205002 61.637516 114.625 62.648186 C 114.0495 63.145599 113.5495 63.732578 113.125 64.409378 C 113.685753 64.329117 114.227501 64.37114 114.75 64.535179 C 115.113998 65.943375 115.19725 67.368942 115 68.812363 C 113.902496 69.25116 112.777496 69.670319 111.625 70.070358 C 111.859497 70.335297 112.151253 70.503113 112.5 70.573563 C 113.35775 70.243713 114.23275 69.992119 115.125 69.818756 C 116.01825 75.202736 114.89325 80.066895 111.75 84.411514 C 109.225502 86.980095 106.141998 88.322121 102.5 88.437096 C 100.03875 88.622025 97.830498 87.993027 95.875 86.550102 C 95.032501 85.786507 94.282501 84.947914 93.625 84.034119 C 93.091248 83.874352 92.591248 83.958389 92.125 84.285721 C 91.449249 85.050072 90.699249 85.721085 89.875 86.298508 C 87.637497 87.468437 85.304253 88.391052 82.875 89.066101 C 80.188751 89.496582 78.147247 88.532204 76.75 86.172714 C 76.095749 84.726761 75.720749 83.217171 75.625 81.643921 C 74.649002 80.829498 73.732498 79.906891 72.875 78.876335 C 72.916748 78.792542 72.958252 78.708519 73 78.624741 C 73.922752 79.198631 74.922752 79.61805 76 79.882729 C 76.2575 79.798195 76.3825 79.630379 76.375 79.379532 C 74.488747 78.196259 72.696999 76.854233 71 75.353951 C 70.460503 74.801933 70.543747 74.466553 71.25 74.347549 C 72.900749 75.012016 74.567497 75.599007 76.25 76.108742 C 76.421997 75.899414 76.380249 75.731842 76.125 75.605545 C 75.111252 75.01252 74.111252 74.425545 73.125 73.844345 C 71.318001 72.221535 70.151253 70.208733 69.625 67.805969 C 69.519249 67.13118 69.769249 66.837822 70.375 66.925369 C 72.157501 69.011627 74.323997 70.563248 76.875 71.579964 C 76.875 71.915337 76.875 72.250977 76.875 72.586349 C 76.541748 74.347549 76.541748 76.108742 76.875 77.869934 C 77.889503 81.569199 80.306252 83.162827 84.125 82.650322 C 84.844254 82.906448 85.594254 82.864433 86.375 82.524521 C 87.464249 81.808716 88.630753 81.221741 89.875 80.763329 C 91.033752 79.110573 91.7005 77.265594 91.875 75.228142 C 91.789497 73.770386 91.748001 72.302795 91.75 70.825165 C 91.5345 70.425873 91.367752 70.006462 91.25 69.567162 C 90.541748 69.189774 90 68.644547 89.625 67.931763 C 87.099251 67.834396 86.015999 66.534393 86.375 64.031982 C 89.082497 62.482887 91.416 60.470093 93.375 57.993603 C 93.358749 58.103806 93.400253 58.18784 93.5 58.245205 C 95.249252 56.501114 95.291 54.739922 93.625 52.961617 C 92.515747 54.098095 91.682503 53.930527 91.125 52.45842 C 90.781502 52.763107 90.406502 53.014709 90 53.213219 C 89.684753 53.148056 89.434753 52.98024 89.25 52.710022 C 88.526001 51.619843 87.942749 50.445625 87.5 49.18763 C 85.969002 43.818504 85.719002 38.367363 86.75 32.833687 C 87.17775 32.215759 87.511002 31.544754 87.75 30.8209 C 91.164253 26.693916 95.539253 24.974586 100.875 25.663116 C 103.574753 26.033463 105.741249 27.291458 107.375 29.437103 C 107.005501 30.437958 106.338753 31.150742 105.375 31.575691 Z" stroke="none" fill-rule="evenodd" fill="#8f59ac" id="path1"></path>
    </g>
    <g id="g2">
        <path d="M 129.375 33.588486 C 129.834244 33.623459 129.917496 33.791275 129.625 34.091682 C 129.425507 33.9767 129.342255 33.808891 129.375 33.588486 Z" opacity="0.094" stroke="none" fill-rule="evenodd" fill="#d897fb" id="path2"></path>
    </g>
    <g id="g3">
        <path d="M 84.375 36.356079 C 84.708252 36.523888 84.708252 36.523888 84.375 36.356079 Z" opacity="0.004" stroke="none" fill-rule="evenodd" fill="#000000" id="path3"></path>
    </g>
    <g id="g4">
        <path d="M 124.875 45.665245 C 125.414253 45.804375 125.372498 46.055977 124.75 46.420044 C 124.6325 46.149071 124.674248 45.897469 124.875 45.665245 Z" opacity="0.004" stroke="none" fill-rule="evenodd" fill="#000000" id="path4"></path>
    </g>
    <g id="g5">
        <path d="M 127.625 46.671638 C 127.724251 46.413757 127.890747 46.371727 128.125 46.545845 C 127.976501 46.662582 127.809753 46.704597 127.625 46.671638 Z" opacity="0.004" stroke="none" fill-rule="evenodd" fill="#000000" id="path5"></path>
    </g>
    <g id="g6">
        <path d="M 127.625 46.671638 C 127.458252 46.839455 127.458252 46.839455 127.625 46.671638 Z" opacity="0.004" stroke="none" fill-rule="evenodd" fill="#000000" id="path6"></path>
    </g>
    <g id="g7">
        <path d="M 119.625 57.742004 C 120.412498 58.045685 121.246002 58.297283 122.125 58.496803 C 120.143997 59.008556 120.143997 59.176121 122.125 59 C 121.712997 59.359032 121.212997 59.568615 120.625 59.628998 C 121.033501 59.753288 121.450249 59.795055 121.875 59.754795 C 122.047501 60.758682 122.089249 61.765076 122 62.773987 C 121.281754 63.428146 120.573502 63.428146 119.875 62.773987 C 119.791748 62.857769 119.708252 62.941803 119.625 63.025589 C 120.047997 63.493309 120.422997 63.996506 120.75 64.535179 C 121.319 63.890083 121.819 63.974117 122.25 64.786781 C 122.345749 64.646889 122.470749 64.56311 122.625 64.535179 C 122.999001 64.936729 123.290749 65.355896 123.5 65.793175 C 123.359749 65.924515 123.193001 66.008301 123 66.044769 C 122.583252 65.793175 122.166748 65.541573 121.75 65.289978 C 121.625 65.373764 121.5 65.457794 121.375 65.541573 C 121.541748 65.793175 121.708252 66.044769 121.875 66.296371 C 120.625504 66.641815 119.875504 66.138611 119.625 64.786781 C 119.320251 64.978745 119.070251 65.230347 118.875 65.541573 C 118.586746 64.800369 118.336746 64.04557 118.125 63.277187 C 118.393753 62.537987 118.435249 61.783192 118.25 61.012794 C 117.48275 60.399391 117.23275 59.644596 117.5 58.748402 C 116.671501 57.620983 115.712997 56.614586 114.625 55.72921 C 114.369751 55.855515 114.328003 56.023079 114.5 56.23241 C 115.420502 57.116779 116.295502 58.039394 117.125 59 C 116.791748 59.083782 116.458252 59.167816 116.125 59.251598 C 117.244003 60.044636 117.827499 61.134819 117.875 62.522388 C 116.960747 62.641647 116.918999 62.977032 117.75 63.528782 C 118.0205 64.626762 118.062248 65.716934 117.875 66.799576 C 117.708252 66.63176 117.541748 66.464188 117.375 66.296371 C 117.291748 66.422173 117.208252 66.547974 117.125 66.673775 C 117.773003 67.391586 117.773003 68.10437 117.125 68.812363 C 117.279999 73.837807 116.321747 78.618195 114.25 83.153519 C 112.999252 85.898216 110.957497 87.743195 108.125 88.688698 C 107.762497 89.028366 107.595749 89.447517 107.625 89.946701 C 107.018997 89.869202 106.435753 89.953239 105.875 90.198296 C 106.208252 90.617706 106.541748 91.036873 106.875 91.456291 C 106.75 91.54007 106.625 91.624107 106.5 91.707893 C 106.139999 91.544853 105.764999 91.461075 105.375 91.456291 C 105.430252 92.536911 105.097 92.704727 104.375 91.959488 C 104.204498 92.146431 104.03775 92.313988 103.875 92.462685 C 103.464249 92.46772 103.130997 92.299896 102.875 91.959488 C 102.653503 92.167061 102.570251 92.418655 102.625 92.714279 C 102.375 92.714279 102.125 92.714279 101.875 92.714279 C 101.842003 91.515167 101.425499 90.466743 100.625 89.569298 C 97.416496 89.423622 94.916496 88.039825 93.125 85.417908 C 93.291748 85.166306 93.458252 84.914711 93.625 84.663109 C 93.5 84.57933 93.375 84.4953 93.25 84.411514 C 91.612251 86.180511 89.653748 87.480522 87.375 88.311302 C 86.253998 88.530449 85.170753 88.865822 84.125 89.317696 C 82.949501 89.36097 81.782997 89.486771 80.625 89.695099 C 80.655998 89.847809 80.73925 89.931602 80.875 89.946701 C 81.037498 90.43354 81.12075 90.936737 81.125 91.456291 C 80.207497 91.499817 79.582497 91.08065 79.25 90.198296 C 78.304749 90.968941 77.804749 90.717346 77.75 89.443497 C 77.389 89.859894 76.930496 90.02771 76.375 89.946701 C 76.332497 89.614082 76.415749 89.320465 76.625 89.066101 C 76.178497 89.016777 75.845253 88.807205 75.625 88.437096 C 76.056503 88.002335 76.389748 87.499138 76.625 86.927505 C 75.430496 85.299652 75.097252 83.538467 75.625 81.643921 C 75.720749 83.217171 76.095749 84.726761 76.75 86.172714 C 78.147247 88.532204 80.188751 89.496582 82.875 89.066101 C 85.304253 88.391052 87.637497 87.468437 89.875 86.298508 C 90.699249 85.721085 91.449249 85.050072 92.125 84.285721 C 92.591248 83.958389 93.091248 83.874352 93.625 84.034119 C 94.282501 84.947914 95.032501 85.786507 95.875 86.550102 C 97.830498 87.993027 100.03875 88.622025 102.5 88.437096 C 106.141998 88.322121 109.225502 86.980095 111.75 84.411514 C 114.89325 80.066895 116.01825 75.202736 115.125 69.818756 C 114.23275 69.992119 113.35775 70.243713 112.5 70.573563 C 112.151253 70.503113 111.859497 70.335297 111.625 70.070358 C 112.777496 69.670319 113.902496 69.25116 115 68.812363 C 115.19725 67.368942 115.113998 65.943375 114.75 64.535179 C 114.227501 64.37114 113.685753 64.329117 113.125 64.409378 C 113.5495 63.732578 114.0495 63.145599 114.625 62.648186 C 114.205002 61.637516 113.913254 60.5891 113.75 59.503197 C 113.487747 59.247322 113.195999 59.205303 112.875 59.377399 C 111.836746 60.276863 110.753502 61.115696 109.625 61.893391 C 109.390747 62.067497 109.224251 62.025478 109.125 61.76759 C 109.807747 61.37233 110.266251 60.785095 110.5 60.006397 C 110.666748 59 110.666748 57.993603 110.5 56.987206 C 109.502747 55.523655 108.377747 54.181625 107.125 52.961617 C 106.957001 52.246582 106.623497 51.617584 106.125 51.074623 C 107.619247 50.993111 109.036003 50.699493 110.375 50.194031 C 110.888252 50.218689 111.305 50.050873 111.625 49.690834 C 112.272247 49.45961 112.772247 49.040192 113.125 48.432838 C 113.125 48.349052 113.125 48.265022 113.125 48.181236 C 113.506752 47.351959 113.423248 46.555397 112.875 45.791046 C 111.878502 45.665497 110.878502 45.623474 109.875 45.665245 C 110.445251 45.460442 110.945251 45.124809 111.375 44.658852 C 110.429749 44.41153 109.513252 44.117912 108.625 43.778252 C 109.528 43.491676 110.361504 43.072266 111.125 42.520256 C 109.080498 42.217339 107.080498 41.839935 105.125 41.388062 C 105.594749 41.414978 105.678001 41.289185 105.375 41.010658 C 105.05175 40.887375 104.718246 40.845367 104.375 40.884865 C 104.261749 40.643829 104.095253 40.433998 103.875 40.255867 C 105.183746 40.503937 106.516998 40.755539 107.875 41.010658 C 110.490997 41.31057 112.907501 40.933174 115.125 39.878464 C 114.921753 40.209068 114.671753 40.502686 114.375 40.759064 C 112.655746 41.281136 110.905746 41.658531 109.125 41.891258 C 109.416748 41.975044 109.708252 42.059074 110 42.14286 C 111.367996 41.799927 112.742996 41.590088 114.125 41.513855 C 113.791748 41.933273 113.458252 42.35244 113.125 42.771858 C 111.971497 43.160835 110.804749 43.496208 109.625 43.778252 C 111.387253 44.252769 112.845497 43.79158 114 42.394455 C 114.083252 45.833061 114.166748 49.271416 114.25 52.710022 C 115.381248 55.102982 117.172752 56.780392 119.625 57.742004 Z M 95.125 88.688698 C 95.538254 88.728951 95.871498 88.896515 96.125 89.191895 C 95.654999 89.260078 95.321747 89.092262 95.125 88.688698 Z" opacity="0.961" stroke="none" fill-rule="evenodd" fill="#7d3aa0" id="path7"></path>
    </g>
    <g id="g8">
        <path d="M 66.375 48.936035 C 66.663254 49.140579 66.663254 49.392181 66.375 49.690834 C 66.158752 49.963318 65.908752 50.005074 65.625 49.816635 C 65.927498 49.555214 66.177498 49.261604 66.375 48.936035 Z" opacity="0.027" stroke="none" fill-rule="evenodd" fill="#8a3db0" id="path8"></path>
    </g>
    <g id="g9">
        <path d="M 126.625 51.200424 C 126.368752 51.10054 126.327003 50.932983 126.5 50.697227 C 126.615997 50.84668 126.657753 51.014488 126.625 51.200424 Z" opacity="0.004" stroke="none" fill-rule="evenodd" fill="#000000" id="path9"></path>
    </g>
    <g id="g10">
        <path d="M 126.625 51.200424 C 126.899498 51.47744 126.941254 51.81282 126.75 52.206825 C 126.627502 51.8815 126.585747 51.545868 126.625 51.200424 Z" opacity="0.004" stroke="none" fill-rule="evenodd" fill="#000000" id="path10"></path>
    </g>
    <g id="g11">
        <path d="M 105.125 58.748402 C 104.502502 57.248116 104.252502 55.654736 104.375 53.968018 C 104.375 53.381035 104.375 52.793808 104.375 52.206825 C 104.708252 52.206825 105.041748 52.206825 105.375 52.206825 C 106.346748 54.760551 107.346748 57.318562 108.375 59.880596 C 108.322746 60.351341 108.072746 60.644955 107.625 60.761192 C 106.697746 60.158611 105.864502 59.48785 105.125 58.748402 Z" stroke="none" fill-rule="evenodd" fill="#fa47d2" id="path11"></path>
    </g>
    <g id="g12">
        <path d="M 107.125 52.961617 C 107.267998 53.403183 107.476501 53.822594 107.75 54.219616 C 108.592499 54.983219 109.342499 55.8218 110 56.735607 C 110.705002 58.494034 110.413498 60.045647 109.125 61.39019 C 108.341499 61.588955 107.591499 61.505173 106.875 61.138596 C 106.208252 60.670116 105.625 60.125153 105.125 59.503197 C 105.125 59.251598 105.125 59 105.125 58.748402 C 105.864502 59.48785 106.697746 60.158611 107.625 60.761192 C 108.072746 60.644955 108.322746 60.351341 108.375 59.880596 C 107.346748 57.318562 106.346748 54.760551 105.375 52.206825 C 105.041748 52.206825 104.708252 52.206825 104.375 52.206825 C 104.375 52.793808 104.375 53.381035 104.375 53.968018 C 104.002747 53.028046 103.835999 52.021645 103.875 50.948822 C 104.561752 50.870079 105.2285 50.953865 105.875 51.200424 C 106.209 51.868172 106.625748 52.455154 107.125 52.961617 Z" opacity="0.961" stroke="none" fill-rule="evenodd" fill="#eb3cac" id="path12"></path>
    </g>
    <g id="g13">
        <path d="M 84.875 56.23241 C 85.574249 56.003708 86.157501 55.58429 86.625 54.974411 C 86.815498 55.258221 86.982246 55.551834 87.125 55.855011 C 86.380501 56.030125 85.630501 56.155922 84.875 56.23241 Z" opacity="0.004" stroke="none" fill-rule="evenodd" fill="#7f38a6" id="path13"></path>
    </g>
    <g id="g14">
        <path d="M 93.625 57.238808 C 92.686501 57.974735 91.852997 58.855331 91.125 59.880596 C 88.946999 61.989246 86.446999 63.582626 83.625 64.66098 C 83.184998 64.90377 83.101501 65.197388 83.375 65.541573 C 83.712502 65.176758 84.128998 65.008942 84.625 65.038376 C 84.475502 66.375122 84.39225 67.716904 84.375 69.063965 C 83.058502 69.22348 83.058502 69.391289 84.375 69.567162 C 85.531998 69.274811 86.698753 69.149002 87.875 69.189774 C 89.650497 70.088974 90.109001 71.472778 89.25 73.341148 C 88.654747 73.576401 88.029747 73.660179 87.375 73.592743 C 87.403252 72.629883 87.153252 71.74929 86.625 70.950958 C 86.458252 70.783142 86.291748 70.783142 86.125 70.950958 C 86.425247 71.178162 86.633751 71.471512 86.75 71.831558 C 86.886497 73.303665 87.219749 74.729477 87.75 76.108742 C 87.945503 76.785034 88.320503 77.036636 88.875 76.863533 C 88.355499 76.388008 88.022247 75.800789 87.875 75.102348 C 88.065498 74.998932 88.315498 74.957169 88.625 74.97654 C 88.375 74.724945 88.125 74.473343 87.875 74.221748 C 88.515747 73.990784 89.057503 74.116577 89.5 74.599152 C 89.666748 75.773361 89.666748 76.947327 89.5 78.121536 C 89.050499 79.539795 88.092003 80.210564 86.625 80.134331 C 85.097 80.141373 83.972 79.47036 83.25 78.121536 C 83.518753 79.277382 84.226997 80.116211 85.375 80.637527 C 84.328247 82.629944 82.995003 82.881546 81.375 81.392319 C 80.859253 80.665703 80.400749 79.910904 80 79.127937 C 80.032753 79.996193 80.324501 80.793015 80.875 81.518127 C 78.90625 81.00209 77.739502 79.702332 77.375 77.618332 C 77.375 75.940926 77.375 74.263763 77.375 72.586349 C 77.375 70.847046 77.875 69.25367 78.875 67.805969 C 78.791748 67.722183 78.708252 67.638153 78.625 67.554375 C 78.375 67.973785 78.041748 68.309166 77.625 68.560768 C 77.541748 68.392944 77.458252 68.225388 77.375 68.057571 C 77.654747 66.661446 78.071503 65.319672 78.625 64.031982 C 78.541748 63.9482 78.458252 63.864166 78.375 63.780384 C 77.838997 64.716835 77.255753 65.639206 76.625 66.547974 C 76.438499 65.539566 76.688499 64.616959 77.375 63.780384 C 77.125 63.445004 76.875 63.445004 76.625 63.780384 C 76.3965 64.324844 76.104752 64.828041 75.75 65.289978 C 75.583252 64.87056 75.583252 64.451401 75.75 64.031982 C 76.466499 63.094772 77.341499 62.424011 78.375 62.019192 C 77.929001 61.740921 77.470497 61.740921 77 62.019192 C 76.685753 61.931129 76.602249 61.763313 76.75 61.515991 C 77.701248 60.822083 78.742752 60.654266 79.875 61.012794 C 79.623497 61.238224 79.623497 61.405788 79.875 61.515991 C 83.197502 58.7952 86.86425 56.656609 90.875 55.100212 C 91.871498 54.974667 92.871498 54.932648 93.875 54.974411 C 93.873001 55.740532 93.789749 56.495331 93.625 57.238808 Z" stroke="none" fill-rule="evenodd" fill="#863ead" id="path14"></path>
    </g>
    <g id="g15">
        <path d="M 110.375 50.194031 C 109.036003 50.699493 107.619247 50.993111 106.125 51.074623 C 106.623497 51.617584 106.957001 52.246582 107.125 52.961617 C 106.625748 52.455154 106.209 51.868172 105.875 51.200424 C 105.2285 50.953865 104.561752 50.870079 103.875 50.948822 C 103.835999 52.021645 104.002747 53.028046 104.375 53.968018 C 104.252502 55.654736 104.502502 57.248116 105.125 58.748402 C 105.125 59 105.125 59.251598 105.125 59.503197 C 104.649002 58.739849 104.315498 57.901268 104.125 56.987206 C 104.03875 54.951267 103.78875 52.938477 103.375 50.948822 C 103.052254 51.008461 102.802254 50.924675 102.625 50.697227 C 105.225502 50.758118 107.808746 50.590302 110.375 50.194031 Z" opacity="0.888" stroke="none" fill-rule="evenodd" fill="#151214" id="path15"></path>
    </g>
    <g id="g16">
        <path d="M 84.875 56.23241 C 84.775749 56.490295 84.609253 56.532314 84.375 56.358212 C 84.523499 56.241467 84.690247 56.199451 84.875 56.23241 Z" opacity="0.004" stroke="none" fill-rule="evenodd" fill="#3c00b3" id="path16"></path>
    </g>
    <g id="g17">
        <path d="M 89.375 56.23241 C 89.821999 56.160702 90.238747 56.244488 90.625 56.484009 C 90.337997 56.898895 90.004753 57.276295 89.625 57.616203 C 87.063248 59.102402 84.563248 60.69603 82.125 62.396587 C 81.367249 63.209255 80.700752 64.089851 80.125 65.038376 C 79.748497 65.352127 79.373497 65.352127 79 65.038376 C 78.833252 64.535179 78.833252 64.031982 79 63.528782 C 80.309502 61.884335 81.850998 60.500538 83.625 59.377399 C 85.516251 58.256023 87.432999 57.207611 89.375 56.23241 Z" stroke="none" fill-rule="evenodd" fill="#8f58ad" id="path17"></path>
    </g>
    <g id="g18">
        <path d="M 107.125 52.961617 C 108.377747 54.181625 109.502747 55.523655 110.5 56.987206 C 110.666748 57.993603 110.666748 59 110.5 60.006397 C 110.266251 60.785095 109.807747 61.37233 109.125 61.76759 C 108.758247 61.866718 108.383247 61.950504 108 62.019192 C 106.547997 61.732113 105.589752 60.893284 105.125 59.503197 C 105.625 60.125153 106.208252 60.670116 106.875 61.138596 C 107.591499 61.505173 108.341499 61.588955 109.125 61.39019 C 110.413498 60.045647 110.705002 58.494034 110 56.735607 C 109.342499 55.8218 108.592499 54.983219 107.75 54.219616 C 107.476501 53.822594 107.267998 53.403183 107.125 52.961617 Z" opacity="0.925" stroke="none" fill-rule="evenodd" fill="#271725" id="path18"></path>
    </g>
    <g id="g19">
        <path d="M 93.125 63.277187 C 93.91375 63.398956 94.497002 63.818375 94.875 64.535179 C 94.285004 65.12719 93.618248 65.630386 92.875 66.044769 C 92.681747 65.257011 93.015251 64.711807 93.875 64.409378 C 93.464752 64.125328 93.214752 63.747929 93.125 63.277187 Z" stroke="none" fill-rule="evenodd" fill="#1b131f" id="path19"></path>
    </g>
    <g id="g20">
        <path d="M 128.625 64.283585 C 128.958252 64.451401 128.958252 64.451401 128.625 64.283585 Z" opacity="0.004" stroke="none" fill-rule="evenodd" fill="#000000" id="path20"></path>
    </g>
    <g id="g21">
        <path d="M 128.625 64.535179 C 128.212997 65.333008 127.629753 65.542587 126.875 65.164185 C 127.435753 64.878365 128.018997 64.668526 128.625 64.535179 Z" opacity="0.031" stroke="none" fill-rule="evenodd" fill="#0a030b" id="path21"></path>
    </g>
    <g id="g22">
        <path d="M 73.375 67.30278 C 74.671753 68.333572 75.921753 69.423744 77.125 70.573563 C 77.192001 70.975876 77.108498 71.311249 76.875 71.579964 C 74.323997 70.563248 72.157501 69.011627 70.375 66.925369 C 69.769249 66.837822 69.519249 67.13118 69.625 67.805969 C 70.151253 70.208733 71.318001 72.221535 73.125 73.844345 C 69.907501 71.812683 68.532501 68.877274 69 65.038376 C 69.049004 64.58902 69.257248 64.253647 69.625 64.031982 C 70.562248 65.354134 71.6455 66.570114 72.875 67.680168 C 73.204002 67.813019 73.37075 67.687218 73.375 67.30278 Z" opacity="0.959" stroke="none" fill-rule="evenodd" fill="#7c38a0" id="path22"></path>
    </g>
    <g id="g23">
        <path d="M 117.375 75.353951 C 117.13475 75.798019 117.051247 76.301216 117.125 76.863533 C 116.887253 77.220566 116.804001 77.639725 116.875 78.121536 C 116.641502 78.390236 116.557999 78.725632 116.625 79.127937 C 116.391502 79.396637 116.307999 79.732025 116.375 80.134331 C 116.149002 80.312721 116.06575 80.564316 116.125 80.889122 C 115.915497 80.975182 115.832001 81.142738 115.875 81.392319 C 115.665497 81.478378 115.582001 81.645935 115.625 81.895523 C 115.415497 81.981567 115.332001 82.149132 115.375 82.398727 C 115.165497 82.484764 115.082001 82.652328 115.125 82.901924 C 114.915497 82.987961 114.832001 83.155533 114.875 83.405121 C 114.665497 83.491165 114.582001 83.65873 114.625 83.908318 C 113.831749 85.16404 112.915001 86.338013 111.875 87.430702 C 111.312752 87.576622 110.896248 87.912018 110.625 88.437096 C 110.376999 88.393822 110.210503 88.477859 110.125 88.688698 C 109.711746 88.728951 109.378502 88.896515 109.125 89.191895 C 108.875999 89.170258 108.667747 89.254295 108.5 89.443497 C 108.594749 90.35479 108.219749 90.900002 107.375 91.078888 C 107.681747 91.47818 107.598503 91.813812 107.125 92.085289 C 106.708252 92.169075 106.291748 92.253098 105.875 92.336891 C 106.119247 92.991547 106.411003 93.620544 106.75 94.223885 C 107.274498 94.236961 107.816002 94.152924 108.375 93.972282 C 109.233002 94.365036 110.14975 94.574615 111.125 94.601273 C 111.660248 94.930374 112.160248 95.307777 112.625 95.733475 C 112.942001 97.25087 112.525497 98.550629 111.375 99.633263 C 110.338501 100.552856 109.130249 101.098076 107.75 101.268661 C 105.963753 100.787842 104.171997 100.326416 102.375 99.884865 C 101.964249 98.96904 102.130997 98.172226 102.875 97.494675 C 102.857002 96.671181 102.77375 95.748825 102.625 94.727081 C 102.777496 94.502907 102.860748 94.251305 102.875 93.972282 C 103.055496 94.077454 103.180496 94.245018 103.25 94.475479 C 103.333252 95.48188 103.416748 96.488266 103.5 97.494675 C 103.769249 98.655792 104.477501 99.033195 105.625 98.626862 C 106.110252 98.009445 106.693748 97.548264 107.375 97.243073 C 106.880753 97.825264 106.380753 98.412254 105.875 99.004265 C 106.081253 99.22718 106.331253 99.310959 106.625 99.255867 C 106.592247 98.534523 106.925751 98.115364 107.625 97.997871 C 107.380997 98.328728 107.130997 98.664101 106.875 99.004265 C 107 99.088043 107.125 99.172081 107.25 99.255867 C 107.833252 98.920486 108.416748 98.920486 109 99.255867 C 109.495247 98.96653 109.953499 98.63089 110.375 98.249474 C 110.285248 98.720207 110.035248 99.09761 109.625 99.381668 C 108.49025 99.44532 107.36525 99.571114 106.25 99.759056 C 105.052498 99.546967 104.011002 99.04377 103.125 98.249474 C 102.679253 98.63266 102.512749 99.135857 102.625 99.759056 C 104.271751 99.911781 105.896751 100.163383 107.5 100.513855 C 110.494499 100.434601 112.077751 98.925011 112.25 95.985069 C 112.040497 95.607933 111.832253 95.524147 111.625 95.733475 C 111.304253 94.858917 110.720749 94.607315 109.875 94.978676 C 109.541748 94.978676 109.375 95.1465 109.375 95.48188 C 109.375 95.565659 109.375 95.649696 109.375 95.733475 C 109.218498 95.19857 108.885246 94.77916 108.375 94.475479 C 108.291748 94.559265 108.208252 94.643295 108.125 94.727081 C 108.487503 95.066734 108.654251 95.485901 108.625 95.985069 C 108.350998 95.581764 108.017502 95.204361 107.625 94.852875 C 106.301498 94.905212 105.718246 94.276215 105.875 92.965881 C 104.880249 92.682838 103.880249 92.682838 102.875 92.965881 C 103.208252 92.798073 103.541748 92.630501 103.875 92.462685 C 104.03775 92.313988 104.204498 92.146431 104.375 91.959488 C 105.097 92.704727 105.430252 92.536911 105.375 91.456291 C 105.764999 91.461075 106.139999 91.544853 106.5 91.707893 C 106.625 91.624107 106.75 91.54007 106.875 91.456291 C 106.541748 91.036873 106.208252 90.617706 105.875 90.198296 C 106.435753 89.953239 107.018997 89.869202 107.625 89.946701 C 107.595749 89.447517 107.762497 89.028366 108.125 88.688698 C 110.957497 87.743195 112.999252 85.898216 114.25 83.153519 C 116.321747 78.618195 117.279999 73.837807 117.125 68.812363 C 117.773003 68.10437 117.773003 67.391586 117.125 66.673775 C 117.208252 66.547974 117.291748 66.422173 117.375 66.296371 C 117.541748 66.464188 117.708252 66.63176 117.875 66.799576 C 118.062248 65.716934 118.0205 64.626762 117.75 63.528782 C 116.918999 62.977032 116.960747 62.641647 117.875 62.522388 C 117.827499 61.134819 117.244003 60.044636 116.125 59.251598 C 116.458252 59.167816 116.791748 59.083782 117.125 59 C 116.295502 58.039394 115.420502 57.116779 114.5 56.23241 C 114.328003 56.023079 114.369751 55.855515 114.625 55.72921 C 115.712997 56.614586 116.671501 57.620983 117.5 58.748402 C 117.23275 59.644596 117.48275 60.399391 118.25 61.012794 C 118.435249 61.783192 118.393753 62.537987 118.125 63.277187 C 118.336746 64.04557 118.586746 64.800369 118.875 65.541573 C 119.070251 65.230347 119.320251 64.978745 119.625 64.786781 C 119.875504 66.138611 120.625504 66.641815 121.875 66.296371 C 121.708252 66.044769 121.541748 65.793175 121.375 65.541573 C 121.5 65.457794 121.625 65.373764 121.75 65.289978 C 122.166748 65.541573 122.583252 65.793175 123 66.044769 C 123.193001 66.008301 123.359749 65.924515 123.5 65.793175 C 123.290749 65.355896 122.999001 64.936729 122.625 64.535179 C 123.568253 64.516312 124.568253 64.390518 125.625 64.157784 C 127.283997 63.407261 128.950745 62.652466 130.625 61.893391 C 131.267502 61.373333 131.767502 60.744339 132.125 60.006397 C 131.867996 59.538174 131.492996 59.202534 131 59 C 130.906494 58.769535 130.781494 58.5597 130.625 58.371002 C 131.244003 58.558945 131.827255 58.894577 132.375 59.377399 C 132.612 59.49892 132.862 59.540688 133.125 59.503197 C 134.852493 60.005894 136.435745 59.670261 137.875 58.496803 C 139.209244 57.698978 140.250748 56.608803 141 55.226013 C 141.388748 51.42334 139.930496 50.458954 136.625 52.332626 C 135.789001 53.13372 135.497253 54.098347 135.75 55.226013 C 136.770004 56.382866 137.895004 56.508667 139.125 55.603413 C 139 55.56139 138.875 55.51963 138.75 55.477612 C 138.279495 55.755878 137.820999 55.755878 137.375 55.477612 C 138.624756 55.3815 139.666245 54.878304 140.5 53.968018 C 139.731247 56.346382 138.189499 57.059414 135.875 56.106609 C 135.519745 55.328415 134.978256 54.783199 134.25 54.471218 C 132.900757 54.736649 131.900757 55.491447 131.25 56.735607 C 131.288498 55.783302 131.74675 55.070526 132.625 54.597015 C 131.791748 54.513233 130.958252 54.429195 130.125 54.345417 C 129.460251 53.777809 128.793503 53.23259 128.125 52.710022 C 128.291748 52.626236 128.458252 52.542206 128.625 52.45842 C 128.338745 52.108452 128.338745 51.773064 128.625 51.452026 C 129.165253 53.795166 130.582001 54.591732 132.875 53.842216 C 133.138504 53.492996 133.179993 53.115601 133 52.710022 C 132.738754 52.490379 132.530502 52.238777 132.375 51.955223 C 132.126007 51.933586 131.917755 52.017616 131.75 52.206825 C 131.520493 51.21627 131.228745 50.251892 130.875 49.313431 C 128.815247 49.585663 127.732002 50.801636 127.625 52.961617 C 127.635498 53.655785 127.760498 54.326546 128 54.974411 C 129.488007 57.177917 129.363007 57.261703 127.625 55.226013 C 126.122498 56.987206 124.289253 58.245205 122.125 59 C 120.143997 59.176121 120.143997 59.008556 122.125 58.496803 C 121.246002 58.297283 120.412498 58.045685 119.625 57.742004 C 120.044746 57.796097 120.294746 57.628281 120.375 57.238808 C 121.032249 57.61319 121.740753 57.864788 122.5 57.993603 C 124.467003 57.276295 126.092003 56.060314 127.375 54.345417 C 126.73925 51.180298 127.98925 49.251289 131.125 48.558632 C 132.468002 46.539299 134.301498 45.7845 136.625 46.294243 C 137.557999 47.305923 138.599747 48.186516 139.75 48.936035 C 140.240997 49.528046 140.365997 50.157043 140.125 50.823029 C 142.182755 52.661217 142.391251 54.715771 140.75 56.987206 C 138.708755 59.251347 136.167007 60.383541 133.125 60.383797 C 132.242493 61.879803 130.992493 62.969986 129.375 63.654583 C 127.80825 64.501968 126.141502 64.96315 124.375 65.038376 C 124.347252 66.37085 123.722252 66.874046 122.5 66.547974 C 121.644753 67.515869 120.727997 67.515869 119.75 66.547974 C 118.333252 66.96991 118.375 67.179497 119.875 67.176971 C 120.041748 67.428566 120.208252 67.680168 120.375 67.931763 C 119.786003 67.931015 119.202751 67.805222 118.625 67.554375 C 117.756248 70.072128 117.3395 72.671898 117.375 75.353951 Z" opacity="0.979" stroke="none" fill-rule="evenodd" fill="#150d16" id="path23"></path>
    </g>
    <g id="g24">
        <path d="M 137.875 58.496803 C 136.435745 59.670261 134.852493 60.005894 133.125 59.503197 C 133.796753 59.54446 134.463501 59.502441 135.125 59.377399 C 134.388245 59.34922 134.054993 58.971821 134.125 58.245205 C 135.363998 58.146324 136.488998 57.727158 137.5 56.987206 C 137.875 57.029224 138.083252 57.238808 138.125 57.616203 C 138.002747 57.902523 137.919495 58.19614 137.875 58.496803 Z" stroke="none" fill-rule="evenodd" fill="#8c55aa" id="path24"></path>
    </g>
    <g id="g25">
        <path d="M 122.625 56.735607 C 122.888 56.69812 123.138 56.739887 123.375 56.861404 C 123.179001 57.6157 122.762253 57.825283 122.125 57.490406 C 122.298248 57.234276 122.464752 56.982677 122.625 56.735607 Z" opacity="0.007" stroke="none" fill-rule="evenodd" fill="#120513" id="path25"></path>
    </g>
    <g id="g26">
        <path d="M 132.375 51.955223 C 132.530502 52.238777 132.738754 52.490379 133 52.710022 C 133.179993 53.115601 133.138504 53.492996 132.875 53.842216 C 130.582001 54.591732 129.165253 53.795166 128.625 51.452026 C 128.338745 51.773064 128.338745 52.108452 128.625 52.45842 C 128.458252 52.542206 128.291748 52.626236 128.125 52.710022 C 128.793503 53.23259 129.460251 53.777809 130.125 54.345417 C 130.958252 54.429195 131.791748 54.513233 132.625 54.597015 C 131.74675 55.070526 131.288498 55.783302 131.25 56.735607 C 131.900757 55.491447 132.900757 54.736649 134.25 54.471218 C 134.978256 54.783199 135.519745 55.328415 135.875 56.106609 C 138.189499 57.059414 139.731247 56.346382 140.5 53.968018 C 139.666245 54.878304 138.624756 55.3815 137.375 55.477612 C 137.820999 55.755878 138.279495 55.755878 138.75 55.477612 C 138.875 55.51963 139 55.56139 139.125 55.603413 C 137.895004 56.508667 136.770004 56.382866 135.75 55.226013 C 135.497253 54.098347 135.789001 53.13372 136.625 52.332626 C 139.930496 50.458954 141.388748 51.42334 141 55.226013 C 140.250748 56.608803 139.209244 57.698978 137.875 58.496803 C 137.919495 58.19614 138.002747 57.902523 138.125 57.616203 C 138.083252 57.238808 137.875 57.029224 137.5 56.987206 C 136.488998 57.727158 135.363998 58.146324 134.125 58.245205 C 134.054993 58.971821 134.388245 59.34922 135.125 59.377399 C 134.463501 59.502441 133.796753 59.54446 133.125 59.503197 C 132.862 59.540688 132.612 59.49892 132.375 59.377399 C 131.827255 58.894577 131.244003 58.558945 130.625 58.371002 C 130.781494 58.5597 130.906494 58.769535 131 59 C 131.492996 59.202534 131.867996 59.538174 132.125 60.006397 C 131.767502 60.744339 131.267502 61.373333 130.625 61.893391 C 128.950745 62.652466 127.283997 63.407261 125.625 64.157784 C 124.568253 64.390518 123.568253 64.516312 122.625 64.535179 C 122.470749 64.56311 122.345749 64.646889 122.25 64.786781 C 121.819 63.974117 121.319 63.890083 120.75 64.535179 C 120.422997 63.996506 120.047997 63.493309 119.625 63.025589 C 119.708252 62.941803 119.791748 62.857769 119.875 62.773987 C 120.573502 63.428146 121.281754 63.428146 122 62.773987 C 122.089249 61.765076 122.047501 60.758682 121.875 59.754795 C 121.450249 59.795055 121.033501 59.753288 120.625 59.628998 C 121.212997 59.568615 121.712997 59.359032 122.125 59 C 124.289253 58.245205 126.122498 56.987206 127.625 55.226013 C 129.363007 57.261703 129.488007 57.177917 128 54.974411 C 127.760498 54.326546 127.635498 53.655785 127.625 52.961617 C 127.732002 50.801636 128.815247 49.585663 130.875 49.313431 C 131.228745 50.251892 131.520493 51.21627 131.75 52.206825 C 131.917755 52.017616 132.126007 51.933586 132.375 51.955223 Z" stroke="none" fill-rule="evenodd" fill="#853dad" id="path26"></path>
    </g>
    <g id="g27">
        <path d="M 128.375 60.257996 C 128.881744 60.217236 129.381744 60.259254 129.875 60.383797 C 129.989243 60.487957 130.072754 60.613758 130.125 60.761192 C 128.127243 62.801411 125.710503 63.639992 122.875 63.277187 C 124.512749 62.459991 126.179253 61.663177 127.875 60.886993 C 128.095245 60.708862 128.261749 60.499027 128.375 60.257996 Z" stroke="none" fill-rule="evenodd" fill="#8f58ad" id="path27"></path>
    </g>
    <g id="g28">
        <path d="M 132.875 51.955223 C 132.708252 51.955223 132.541748 51.955223 132.375 51.955223 C 132.011246 51.147583 131.677994 50.309013 131.375 49.439232 C 132.3535 47.233208 134.020004 46.268585 136.375 46.545845 C 136.901749 46.863869 137.151749 47.325043 137.125 47.929642 C 134.74675 48.226013 133.330246 49.567795 132.875 51.955223 Z" stroke="none" fill-rule="evenodd" fill="#8541ab" id="path28"></path>
    </g>
    <g id="g29">
        <path d="M 132.875 51.955223 C 133.582993 49.901421 134.999756 48.643425 137.125 48.181236 C 138.834 48.307549 139.667496 49.230156 139.625 50.948822 C 138.508499 50.862274 137.508499 51.155891 136.625 51.82943 C 135.907501 52.565346 135.282501 53.36216 134.75 54.219616 C 134.428757 54.106396 134.136993 53.938576 133.875 53.716423 C 133.723755 53.012695 133.390503 52.425713 132.875 51.955223 Z" stroke="none" fill-rule="evenodd" fill="#863fad" id="path29"></path>
    </g>
    <g id="g30">
        <path d="M 120.625 68.057571 C 121.156998 67.773514 121.74025 67.731506 122.375 67.931763 C 121.803497 68.350426 121.220253 68.392197 120.625 68.057571 Z" opacity="0.004" stroke="none" fill-rule="evenodd" fill="#9afeb1" id="path30"></path>
    </g>
    <g id="g31">
        <path d="M 93.625 57.238808 C 93.610748 57.51783 93.527496 57.769428 93.375 57.993603 C 91.416 60.470093 89.082497 62.482887 86.375 64.031982 C 85.696999 64.169601 85.321999 64.588776 85.25 65.289978 C 85.042999 66.472992 85.084503 67.647202 85.375 68.812363 C 88.213997 67.891769 89.880753 68.898163 90.375 71.831558 C 90.26725 72.552635 90.01725 73.223404 89.625 73.844345 C 89.702003 74.047653 89.827003 74.215454 90 74.347549 C 90.166748 75.521759 90.166748 76.695724 90 77.869934 C 89.84375 79.201141 89.135246 80.081741 87.875 80.511734 C 87.193497 80.557518 86.526749 80.683319 85.875 80.889122 C 85.369751 81.565414 84.786499 82.152405 84.125 82.650322 C 80.306252 83.162827 77.889503 81.569199 76.875 77.869934 C 76.833504 76.190521 76.875 74.5131 77 72.837952 C 77.042999 74.476624 77.167999 76.070236 77.375 77.618332 C 77.739502 79.702332 78.90625 81.00209 80.875 81.518127 C 80.324501 80.793015 80.032753 79.996193 80 79.127937 C 80.400749 79.910904 80.859253 80.665703 81.375 81.392319 C 82.995003 82.881546 84.328247 82.629944 85.375 80.637527 C 84.226997 80.116211 83.518753 79.277382 83.25 78.121536 C 83.972 79.47036 85.097 80.141373 86.625 80.134331 C 88.092003 80.210564 89.050499 79.539795 89.5 78.121536 C 89.666748 76.947327 89.666748 75.773361 89.5 74.599152 C 89.057503 74.116577 88.515747 73.990784 87.875 74.221748 C 88.125 74.473343 88.375 74.724945 88.625 74.97654 C 88.315498 74.957169 88.065498 74.998932 87.875 75.102348 C 88.022247 75.800789 88.355499 76.388008 88.875 76.863533 C 88.320503 77.036636 87.945503 76.785034 87.75 76.108742 C 87.219749 74.729477 86.886497 73.303665 86.75 71.831558 C 86.633751 71.471512 86.425247 71.178162 86.125 70.950958 C 86.291748 70.783142 86.458252 70.783142 86.625 70.950958 C 87.153252 71.74929 87.403252 72.629883 87.375 73.592743 C 88.029747 73.660179 88.654747 73.576401 89.25 73.341148 C 90.109001 71.472778 89.650497 70.088974 87.875 69.189774 C 86.698753 69.149002 85.531998 69.274811 84.375 69.567162 C 83.058502 69.391289 83.058502 69.22348 84.375 69.063965 C 84.39225 67.716904 84.475502 66.375122 84.625 65.038376 C 84.128998 65.008942 83.712502 65.176758 83.375 65.541573 C 83.101501 65.197388 83.184998 64.90377 83.625 64.66098 C 86.446999 63.582626 88.946999 61.989246 91.125 59.880596 C 91.852997 58.855331 92.686501 57.974735 93.625 57.238808 Z" opacity="0.978" stroke="none" fill-rule="evenodd" fill="#180d1b" id="path31"></path>
    </g>
    <g id="g32">
        <path d="M 86.375 64.031982 C 86.015999 66.534393 87.099251 67.834396 89.625 67.931763 C 90 68.644547 90.541748 69.189774 91.25 69.567162 C 91.367752 70.006462 91.5345 70.425873 91.75 70.825165 C 91.748001 72.302795 91.789497 73.770386 91.875 75.228142 C 91.7005 77.265594 91.033752 79.110573 89.875 80.763329 C 88.630753 81.221741 87.464249 81.808716 86.375 82.524521 C 85.594254 82.864433 84.844254 82.906448 84.125 82.650322 C 84.786499 82.152405 85.369751 81.565414 85.875 80.889122 C 86.526749 80.683319 87.193497 80.557518 87.875 80.511734 C 89.135246 80.081741 89.84375 79.201141 90 77.869934 C 90.166748 76.695724 90.166748 75.521759 90 74.347549 C 89.827003 74.215454 89.702003 74.047653 89.625 73.844345 C 90.01725 73.223404 90.26725 72.552635 90.375 71.831558 C 89.880753 68.898163 88.213997 67.891769 85.375 68.812363 C 85.084503 67.647202 85.042999 66.472992 85.25 65.289978 C 85.321999 64.588776 85.696999 64.169601 86.375 64.031982 Z" stroke="none" fill-rule="evenodd" fill="#7f3ea2" id="path32"></path>
    </g>
    <g id="g33">
        <path d="M 76.875 72.586349 C 77.041748 72.586349 77.208252 72.586349 77.375 72.586349 C 77.375 74.263763 77.375 75.940926 77.375 77.618332 C 77.167999 76.070236 77.042999 74.476624 77 72.837952 C 76.875 74.5131 76.833504 76.190521 76.875 77.869934 C 76.541748 76.108742 76.541748 74.347549 76.875 72.586349 Z" opacity="0.973" stroke="none" fill-rule="evenodd" fill="#3d2149" id="path33"></path>
    </g>
    <g id="g34">
        <path d="M 73.125 73.844345 C 74.111252 74.425545 75.111252 75.01252 76.125 75.605545 C 76.380249 75.731842 76.421997 75.899414 76.25 76.108742 C 74.567497 75.599007 72.900749 75.012016 71.25 74.347549 C 70.543747 74.466553 70.460503 74.801933 71 75.353951 C 72.696999 76.854233 74.488747 78.196259 76.375 79.379532 C 74.078751 79.016228 72.120499 78.009827 70.5 76.360344 C 69.618248 74.831116 69.4515 73.237503 70 71.579964 C 70.851997 72.898849 71.976997 73.905235 73.375 74.599152 C 73.458252 74.557129 73.541748 74.515358 73.625 74.473343 C 73.404747 74.295219 73.238251 74.085388 73.125 73.844345 Z" opacity="0.957" stroke="none" fill-rule="evenodd" fill="#7c38a1" id="path34"></path>
    </g>
    <g id="g35">
        <path d="M 120.375 57.238808 C 120.294746 57.628281 120.044746 57.796097 119.625 57.742004 C 117.172752 56.780392 115.381248 55.102982 114.25 52.710022 C 114.166748 49.271416 114.083252 45.833061 114 42.394455 C 112.845497 43.79158 111.387253 44.252769 109.625 43.778252 C 110.804749 43.496208 111.971497 43.160835 113.125 42.771858 C 113.458252 42.35244 113.791748 41.933273 114.125 41.513855 C 112.742996 41.590088 111.367996 41.799927 110 42.14286 C 109.708252 42.059074 109.416748 41.975044 109.125 41.891258 C 110.905746 41.658531 112.655746 41.281136 114.375 40.759064 C 114.671753 40.502686 114.921753 40.209068 115.125 39.878464 C 112.907501 40.933174 110.490997 41.31057 107.875 41.010658 C 106.516998 40.755539 105.183746 40.503937 103.875 40.255867 C 104.095253 40.433998 104.261749 40.643829 104.375 40.884865 C 103.99575 40.882103 103.704002 40.714523 103.5 40.381668 C 102.112 43.449669 99.820251 44.497826 96.625 43.526649 C 97.671997 43.482376 98.671997 43.356575 99.625 43.149254 C 100.988503 43.092644 101.988503 42.463646 102.625 41.26226 C 101.56675 41.431587 100.483253 41.557388 99.375 41.639656 C 100.331253 41.302017 101.331253 41.0084 102.375 40.759064 C 102.903748 40.652382 103.112 40.358765 103 39.878464 C 101.42025 40.792282 99.711998 41.211693 97.875 41.136459 C 96.192001 41.063744 94.525253 40.854164 92.875 40.507462 C 91.803253 40.303665 90.886497 39.842484 90.125 39.123665 C 91.143997 39.661079 92.227501 39.996719 93.375 40.130066 C 96.488251 41.248421 99.571503 41.122627 102.625 39.752663 C 103.502502 39.272873 103.793999 38.560089 103.5 37.614067 C 102.38575 36.252167 101.01075 35.664932 99.375 35.852875 C 99.060753 35.570335 99.143997 35.402763 99.625 35.349678 C 101.181252 35.357231 102.472748 35.944214 103.5 37.110878 C 103.492752 33.913803 101.951248 31.858994 98.875 30.946693 C 95.673248 30.402237 92.673248 30.905434 89.875 32.456291 C 89.654747 32.634422 89.488251 32.844254 89.375 33.085289 C 89.155998 33.118248 88.98925 33.03447 88.875 32.833687 C 90.065247 31.647148 91.482002 30.850578 93.125 30.443497 C 96.899498 29.568184 100.149498 30.448776 102.875 33.085289 C 103.319504 34.048157 103.694504 35.05455 104 36.104477 C 104.261253 35.884834 104.469498 35.633232 104.625 35.349678 C 105.125 35.18187 105.625 35.014297 106.125 34.846481 C 106.373001 34.803207 106.539497 34.887238 106.625 35.098083 C 105.324501 35.230423 104.491249 35.817406 104.125 36.859276 C 105.449997 35.827965 106.949997 35.408562 108.625 35.60128 C 108.054749 35.81237 107.471252 36.063972 106.875 36.356079 C 106.642754 36.655228 106.559502 36.990608 106.625 37.362473 C 106.391502 37.093773 106.307999 36.758385 106.375 36.356079 C 105.515747 36.515587 104.723999 36.850967 104 37.362473 C 104.250252 38.04129 104.125252 38.670288 103.625 39.249466 C 105.014999 40.022629 106.514999 40.442047 108.125 40.507462 C 109.503998 40.713028 110.837502 40.671249 112.125 40.381668 C 113.852997 40.358765 114.811249 39.519936 115 37.865669 C 114.583252 37.55545 114.208252 37.219818 113.875 36.859276 C 114.548752 36.968216 115.0905 37.303596 115.5 37.865669 C 115.521004 35.275467 114.312752 33.472244 111.875 32.456291 C 110.053749 32.100525 108.220497 32.016747 106.375 32.204689 C 105.648003 32.378036 104.981247 32.671402 104.375 33.085289 C 104.175499 32.970306 104.092247 32.80249 104.125 32.582092 C 104.208252 32.582092 104.291748 32.582092 104.375 32.582092 C 107.091003 31.394043 109.841003 31.268242 112.625 32.204689 C 110.026749 28.170044 106.360001 25.738091 101.625 24.908318 C 93.819748 23.736824 88.528 26.797829 85.75 34.091682 C 85.276749 38.471527 85.443497 42.832489 86.25 47.174835 C 86.872749 50.013885 87.414497 52.865257 87.875 55.72921 C 88.672752 55.580265 89.422752 55.286648 90.125 54.848614 C 91.3675 54.576637 92.6175 54.492855 93.875 54.597015 C 94.200996 54.799301 94.367752 55.092915 94.375 55.477612 C 94.309753 56.18008 94.059753 56.767059 93.625 57.238808 C 93.789749 56.495331 93.873001 55.740532 93.875 54.974411 C 92.871498 54.932648 91.871498 54.974667 90.875 55.100212 C 86.86425 56.656609 83.197502 58.7952 79.875 61.515991 C 79.623497 61.405788 79.623497 61.238224 79.875 61.012794 C 78.742752 60.654266 77.701248 60.822083 76.75 61.515991 C 76.602249 61.763313 76.685753 61.931129 77 62.019192 C 77.470497 61.740921 77.929001 61.740921 78.375 62.019192 C 77.341499 62.424011 76.466499 63.094772 75.75 64.031982 C 75.583252 64.451401 75.583252 64.87056 75.75 65.289978 C 76.104752 64.828041 76.3965 64.324844 76.625 63.780384 C 76.875 63.445004 77.125 63.445004 77.375 63.780384 C 76.688499 64.616959 76.438499 65.539566 76.625 66.547974 C 77.255753 65.639206 77.838997 64.716835 78.375 63.780384 C 78.458252 63.864166 78.541748 63.9482 78.625 64.031982 C 78.071503 65.319672 77.654747 66.661446 77.375 68.057571 C 77.458252 68.225388 77.541748 68.392944 77.625 68.560768 C 78.041748 68.309166 78.375 67.973785 78.625 67.554375 C 78.708252 67.638153 78.791748 67.722183 78.875 67.805969 C 77.875 69.25367 77.375 70.847046 77.375 72.586349 C 77.208252 72.586349 77.041748 72.586349 76.875 72.586349 C 76.875 72.250977 76.875 71.915337 76.875 71.579964 C 77.108498 71.311249 77.192001 70.975876 77.125 70.573563 C 77.367752 69.964188 77.576248 69.376953 77.75 68.812363 C 77.583252 68.980186 77.416748 69.147751 77.25 69.315559 C 77.061996 68.461632 77.103752 67.623055 77.375 66.799576 C 77.333252 66.71579 77.291748 66.63176 77.25 66.547974 C 76.279503 67.324661 75.820999 67.073059 75.875 65.793175 C 75.625 65.793175 75.375 65.793175 75.125 65.793175 C 74.951752 64.723129 75.201752 63.800762 75.875 63.025589 C 76.173752 62.933502 76.340248 62.723915 76.375 62.396587 C 76.274246 61.732113 76.024246 61.145134 75.625 60.635395 C 74.139 59.726871 72.722252 58.720478 71.375 57.616203 C 70.509247 57.355801 69.801003 57.56538 69.25 58.245205 C 68.824501 62.126369 70.199501 65.145561 73.375 67.30278 C 73.37075 67.687218 73.204002 67.813019 72.875 67.680168 C 71.6455 66.570114 70.562248 65.354134 69.625 64.031982 C 69.257248 64.253647 69.049004 64.58902 69 65.038376 C 68.532501 68.877274 69.907501 71.812683 73.125 73.844345 C 73.238251 74.085388 73.404747 74.295219 73.625 74.473343 C 73.541748 74.515358 73.458252 74.557129 73.375 74.599152 C 71.976997 73.905235 70.851997 72.898849 70 71.579964 C 69.4515 73.237503 69.618248 74.831116 70.5 76.360344 C 72.120499 78.009827 74.078751 79.016228 76.375 79.379532 C 76.3825 79.630379 76.2575 79.798195 76 79.882729 C 74.922752 79.61805 73.922752 79.198631 73 78.624741 C 72.958252 78.708519 72.916748 78.792542 72.875 78.876335 C 73.732498 79.906891 74.649002 80.829498 75.625 81.643921 C 75.097252 83.538467 75.430496 85.299652 76.625 86.927505 C 76.389748 87.499138 76.056503 88.002335 75.625 88.437096 C 75.845253 88.807205 76.178497 89.016777 76.625 89.066101 C 76.415749 89.320465 76.332497 89.614082 76.375 89.946701 C 76.930496 90.02771 77.389 89.859894 77.75 89.443497 C 77.804749 90.717346 78.304749 90.968941 79.25 90.198296 C 79.582497 91.08065 80.207497 91.499817 81.125 91.456291 C 81.12075 90.936737 81.037498 90.43354 80.875 89.946701 C 80.858749 89.836494 80.900253 89.752457 81 89.695099 C 81.248749 89.837502 81.457001 90.005318 81.625 90.198296 C 81.821999 91.257523 81.405251 91.928543 80.375 92.211082 C 80.150002 92.822975 79.983498 93.451973 79.875 94.098076 C 80.298752 94.736145 80.757004 95.365135 81.25 95.985069 C 81.473251 95.680389 81.681503 95.680389 81.875 95.985069 C 82.113998 96.38134 82.280746 96.800758 82.375 97.243073 C 82.208252 97.243073 82.041748 97.243073 81.875 97.243073 C 81.929749 96.947449 81.846497 96.695847 81.625 96.488266 C 81.482246 97.974472 80.982246 98.142281 80.125 96.99147 C 80.491753 97.190735 80.824997 97.190735 81.125 96.99147 C 80.631752 96.201447 80.089996 95.446648 79.5 94.727081 C 79.296753 93.679413 79.421753 92.673027 79.875 91.707893 C 79.556503 90.959633 79.056503 90.791817 78.375 91.204689 C 77.917 90.87233 77.417 90.620728 76.875 90.449898 C 77.009247 91.642731 76.759247 92.732903 76.125 93.720688 C 76.208252 93.888496 76.291748 94.056068 76.375 94.223885 C 75.333 94.135567 74.749496 94.680527 74.625 95.859276 C 74.596001 96.499352 74.804253 97.044556 75.25 97.494675 C 75.417747 97.683876 75.625999 97.767906 75.875 97.746269 C 75.791748 97.914078 75.708252 98.08165 75.625 98.249474 C 75.541748 98.249474 75.458252 98.249474 75.375 98.249474 C 74.613998 97.595055 74.155746 96.756485 74 95.733475 C 73.448997 97.086327 73.907249 98.008934 75.375 98.501068 C 75.458252 98.752663 75.625 98.920486 75.875 99.004265 C 76.360748 99.751762 77.027252 100.254959 77.875 100.513855 C 78.376999 101.124496 79.043503 101.376091 79.875 101.268661 C 81.33625 101.304131 82.627998 100.884712 83.75 100.010658 C 84.074501 99.646843 84.116249 99.311462 83.875 99.004265 C 83.917999 98.754677 83.834503 98.587112 83.625 98.501068 C 83.625 98.333252 83.541748 98.249474 83.375 98.249474 C 83.291748 97.997871 83.125 97.830055 82.875 97.746269 C 82.610748 97.568642 82.694 97.484856 83.125 97.494675 C 84.213753 97.973465 84.588753 98.812035 84.25 100.010658 C 81.93425 102.240334 79.475754 102.450172 76.875 100.639656 C 75.866249 99.526085 74.741249 98.561447 73.5 97.746269 C 72.849251 97.035248 72.765999 96.280449 73.25 95.48188 C 74.245247 94.774124 75.120247 93.935295 75.875 92.965881 C 76.120499 92.359283 76.287247 91.730278 76.375 91.078888 C 76.136253 90.010857 75.636253 89.088493 74.875 88.311302 C 75.113251 87.819427 75.446747 87.400002 75.875 87.053299 C 74.927498 85.294876 74.427498 83.407883 74.375 81.392319 C 73.530998 80.583694 72.822502 79.661064 72.25 78.624741 C 69.387749 76.860275 68.512749 74.386292 69.625 71.202553 C 68.255501 69.10347 67.963753 66.881096 68.75 64.535179 C 68.875 64.074005 69.166748 63.780384 69.625 63.654583 C 68.495499 61.738655 68.287247 59.767879 69 57.742004 C 69.347252 57.307491 69.764 56.971859 70.25 56.735607 C 70.889999 56.994755 71.514999 57.288372 72.125 57.616203 C 73.5215 58.811554 75.0215 59.859966 76.625 60.761192 C 77.816498 59.98954 79.02475 59.905758 80.25 60.509594 C 82.339752 58.59845 84.714752 57.172886 87.375 56.23241 C 85.958252 50.319572 85.125 44.323219 84.875 38.243073 C 84.445747 34.81076 85.279251 31.749809 87.375 29.0597 C 86.712502 28.266914 86.003998 27.512115 85.25 26.795311 C 84.192001 25.477684 83.983749 24.052048 84.625 22.51812 C 85.018997 21.995529 85.518997 21.618126 86.125 21.385933 C 87.504753 21.134506 88.838249 21.260307 90.125 21.763329 C 90.766251 21.788589 91.432999 21.662788 92.125 21.385933 C 92.735001 15.666832 95.485001 14.408836 100.375 17.611938 C 101.076752 18.820198 101.951752 19.86853 103 20.756927 C 103.848747 20.193871 104.723747 19.690674 105.625 19.247337 C 107.944504 19.627571 108.903 21.053314 108.5 23.524521 C 107.989754 24.384712 107.614754 25.30735 107.375 26.292107 C 109.893501 27.862335 111.851997 29.958916 113.25 32.582092 C 115.026253 33.893173 115.943001 35.654366 116 37.865669 C 115.092003 40.079994 114.633751 42.386406 114.625 44.784645 C 114.587502 47.232964 114.712502 49.790718 115 52.45842 C 115.861748 54.248299 117.153503 55.632092 118.875 56.60981 C 119.372002 56.84581 119.872002 57.055641 120.375 57.238808 Z" opacity="0.196" stroke="none" fill-rule="evenodd" fill="#171217" id="path35"></path>
    </g>
    <g id="g36">
        <path d="M 75.875 63.025589 C 75.201752 63.800762 74.951752 64.723129 75.125 65.793175 C 75.375 65.793175 75.625 65.793175 75.875 65.793175 C 75.820999 67.073059 76.279503 67.324661 77.25 66.547974 C 77.291748 66.63176 77.333252 66.71579 77.375 66.799576 C 77.103752 67.623055 77.061996 68.461632 77.25 69.315559 C 77.416748 69.147751 77.583252 68.980186 77.75 68.812363 C 77.576248 69.376953 77.367752 69.964188 77.125 70.573563 C 75.921753 69.423744 74.671753 68.333572 73.375 67.30278 C 72.252251 65.547363 71.127251 63.786167 70 62.019192 C 69.657997 61.20451 69.574753 60.365677 69.75 59.503197 C 71.592247 61.037956 73.634003 62.212166 75.875 63.025589 Z" stroke="none" fill-rule="evenodd" fill="#905aad" id="path36"></path>
    </g>
    <g id="g37">
        <path d="M 79.375 58.748402 C 79.638748 59.15398 79.513748 59.489365 79 59.754795 C 78.875 59.671017 78.75 59.586979 78.625 59.503197 C 78.942497 59.304939 79.192497 59.053341 79.375 58.748402 Z" opacity="0.012" stroke="none" fill-rule="evenodd" fill="#9d51c0" id="path37"></path>
    </g>
    <g id="g38">
        <path d="M 76.625 59 C 76.944 59.222919 76.944 59.474518 76.625 59.754795 C 76.359497 59.522068 76.359497 59.270466 76.625 59 Z" opacity="0.012" stroke="none" fill-rule="evenodd" fill="#6d19aa" id="path38"></path>
    </g>
    <g id="g39">
        <path d="M 81.625 57.742004 C 82.855247 57.650169 82.938751 57.901768 81.875 58.496803 C 81.653503 58.28923 81.570251 58.037636 81.625 57.742004 Z" opacity="0.043" stroke="none" fill-rule="evenodd" fill="#9e57bf" id="path39"></path>
    </g>
    <g id="g40">
        <path d="M 80.875 57.742004 C 81.131248 57.841892 81.172997 58.009457 81 58.245205 C 80.884003 58.095757 80.842247 57.927937 80.875 57.742004 Z" opacity="0.004" stroke="none" fill-rule="evenodd" fill="#000000" id="path40"></path>
    </g>
    <g id="g41">
        <path d="M 75.875 63.025589 C 73.634003 62.212166 71.592247 61.037956 69.75 59.503197 C 69.574753 60.365677 69.657997 61.20451 70 62.019192 C 71.127251 63.786167 72.252251 65.547363 73.375 67.30278 C 70.199501 65.145561 68.824501 62.126369 69.25 58.245205 C 69.801003 57.56538 70.509247 57.355801 71.375 57.616203 C 72.722252 58.720478 74.139 59.726871 75.625 60.635395 C 76.024246 61.145134 76.274246 61.732113 76.375 62.396587 C 76.340248 62.723915 76.173752 62.933502 75.875 63.025589 Z" opacity="0.96" stroke="none" fill-rule="evenodd" fill="#7c38a0" id="path41"></path>
    </g>
    <g id="g42">
        <path d="M 101.375 50.697227 C 101.708252 50.697227 102.041748 50.697227 102.375 50.697227 C 102.458252 50.697227 102.541748 50.697227 102.625 50.697227 C 102.802254 50.924675 103.052254 51.008461 103.375 50.948822 C 103.78875 52.938477 104.03875 54.951267 104.125 56.987206 C 103.885498 56.873234 103.677002 56.705669 103.5 56.484009 C 103.395248 54.299622 102.686996 52.370613 101.375 50.697227 Z" opacity="0.956" stroke="none" fill-rule="evenodd" fill="#743496" id="path42"></path>
    </g>
    <g id="g43">
        <path d="M 91.375 45.413643 C 92.291748 46.285934 93.375252 46.914932 94.625 47.300636 C 99.155998 48.934021 103.822746 49.437218 108.625 48.810234 C 108.93425 48.751862 109.18425 48.62606 109.375 48.432838 C 110.054497 48.296219 110.721252 48.128654 111.375 47.929642 C 111.762001 47.848877 111.928749 47.597282 111.875 47.174835 C 109.93425 47.474747 107.975998 47.642563 106 47.67804 C 103.195251 47.539909 100.403748 47.288307 97.625 46.923241 C 97.541748 46.923241 97.458252 46.923241 97.375 46.923241 C 97.106499 46.474388 96.690002 46.180771 96.125 46.042648 C 96.622002 45.997353 97.122002 46.039124 97.625 46.168442 C 98.779251 46.416771 99.945999 46.584587 101.125 46.671638 C 104.834999 46.899841 108.584999 46.941864 112.375 46.79744 C 112.605751 47.310959 112.689003 47.856171 112.625 48.432838 C 109.092003 49.864182 105.425247 50.325363 101.625 49.816635 C 98.12925 49.105362 94.795998 47.973167 91.625 46.420044 C 91.376999 46.463318 91.210503 46.379288 91.125 46.168442 C 91.1465 45.917847 91.063004 45.708275 90.875 45.539444 C 91.023499 45.422707 91.190247 45.380692 91.375 45.413643 Z" stroke="none" fill-rule="evenodd" fill="#e98767" id="path43"></path>
    </g>
    <g id="g44">
        <path d="M 95.625 48.936035 C 97.922997 49.418098 100.172997 50.005325 102.375 50.697227 C 102.041748 50.697227 101.708252 50.697227 101.375 50.697227 C 99.384247 50.322845 97.467499 49.735611 95.625 48.936035 Z" opacity="0.918" stroke="none" fill-rule="evenodd" fill="#2b1c1f" id="path44"></path>
    </g>
    <g id="g45">
        <path d="M 112.625 48.432838 C 112.791748 48.432838 112.958252 48.432838 113.125 48.432838 C 112.772247 49.040192 112.272247 49.45961 111.625 49.690834 C 111.958252 49.271416 112.291748 48.852249 112.625 48.432838 Z" opacity="0.937" stroke="none" fill-rule="evenodd" fill="#1f1725" id="path45"></path>
    </g>
    <g id="g46">
        <path d="M 91.375 45.413643 C 97.108253 47.938698 103.108253 48.945099 109.375 48.432838 C 109.18425 48.62606 108.93425 48.751862 108.625 48.810234 C 103.822746 49.437218 99.155998 48.934021 94.625 47.300636 C 93.375252 46.914932 92.291748 46.285934 91.375 45.413643 Z" opacity="0.957" stroke="none" fill-rule="evenodd" fill="#a24d3d" id="path46"></path>
    </g>
    <g id="g47">
        <path d="M 91.625 46.420044 C 94.795998 47.973167 98.12925 49.105362 101.625 49.816635 C 105.425247 50.325363 109.092003 49.864182 112.625 48.432838 C 112.291748 48.852249 111.958252 49.271416 111.625 49.690834 C 111.305 50.050873 110.888252 50.218689 110.375 50.194031 C 107.808746 50.590302 105.225502 50.758118 102.625 50.697227 C 102.541748 50.697227 102.458252 50.697227 102.375 50.697227 C 100.172997 50.005325 97.922997 49.418098 95.625 48.936035 C 94.207497 48.223251 92.874252 47.384666 91.625 46.420044 Z" opacity="0.959" stroke="none" fill-rule="evenodd" fill="#a04d3c" id="path47"></path>
    </g>
    <g id="g48">
        <path d="M 97.375 46.923241 C 97.458252 46.923241 97.541748 46.923241 97.625 46.923241 C 101.948502 48.261246 106.36525 48.512848 110.875 47.67804 C 111.103996 47.688858 111.270752 47.772636 111.375 47.929642 C 110.721252 48.128654 110.054497 48.296219 109.375 48.432838 C 103.108253 48.945099 97.108253 47.938698 91.375 45.413643 C 90.974998 45.125816 90.55825 44.832199 90.125 44.533051 C 90.25 44.491035 90.375 44.449265 90.5 44.407249 C 92.682999 45.573914 94.974503 46.41275 97.375 46.923241 Z" opacity="0.88" stroke="none" fill-rule="evenodd" fill="#221a19" id="path48"></path>
    </g>
    <g id="g49">
        <path d="M 113.125 48.181236 C 113.125 48.265022 113.125 48.349052 113.125 48.432838 C 112.958252 48.432838 112.791748 48.432838 112.625 48.432838 C 112.689003 47.856171 112.605751 47.310959 112.375 46.79744 C 108.584999 46.941864 104.834999 46.899841 101.125 46.671638 C 104.97625 46.644218 108.809502 46.434631 112.625 46.042648 C 113.078499 46.666862 113.245003 47.37989 113.125 48.181236 Z" opacity="0.957" stroke="none" fill-rule="evenodd" fill="#9c4b39" id="path49"></path>
    </g>
    <g id="g50">
        <path d="M 109.875 45.665245 C 110.878502 45.623474 111.878502 45.665497 112.875 45.791046 C 113.423248 46.555397 113.506752 47.351959 113.125 48.181236 C 113.245003 47.37989 113.078499 46.666862 112.625 46.042648 C 108.809502 46.434631 104.97625 46.644218 101.125 46.671638 C 99.945999 46.584587 98.779251 46.416771 97.625 46.168442 C 94.853996 45.020645 92.062248 43.930466 89.25 42.897652 C 88.958252 42.981438 88.666748 43.065468 88.375 43.149254 C 88.7845 43.854736 89.242752 44.525757 89.75 45.162048 C 90.112747 45.656181 90.570999 45.99157 91.125 46.168442 C 91.210503 46.379288 91.376999 46.463318 91.625 46.420044 C 92.874252 47.384666 94.207497 48.223251 95.625 48.936035 C 94.773003 48.717896 93.939499 48.424522 93.125 48.055443 C 91.036499 47.04451 89.328247 45.576683 88 43.652451 C 87.791496 42.818657 88.124748 42.399231 89 42.394455 C 92.667 43.822029 96.375252 45.12204 100.125 46.294243 C 102.875504 46.334 105.625504 46.250214 108.375 46.042648 C 108.927002 45.994591 109.427002 45.868797 109.875 45.665245 Z" opacity="0.882" stroke="none" fill-rule="evenodd" fill="#1c1518" id="path50"></path>
    </g>
    <g id="g51">
        <path d="M 97.625 46.923241 C 100.403748 47.288307 103.195251 47.539909 106 47.67804 C 107.975998 47.642563 109.93425 47.474747 111.875 47.174835 C 111.928749 47.597282 111.762001 47.848877 111.375 47.929642 C 111.270752 47.772636 111.103996 47.688858 110.875 47.67804 C 106.36525 48.512848 101.948502 48.261246 97.625 46.923241 Z" opacity="0.984" stroke="none" fill-rule="evenodd" fill="#a95240" id="path51"></path>
    </g>
    <g id="g52">
        <path d="M 97.625 46.168442 C 97.122002 46.039124 96.622002 45.997353 96.125 46.042648 C 96.690002 46.180771 97.106499 46.474388 97.375 46.923241 C 94.974503 46.41275 92.682999 45.573914 90.5 44.407249 C 90.375 44.449265 90.25 44.491035 90.125 44.533051 C 90.55825 44.832199 90.974998 45.125816 91.375 45.413643 C 91.190247 45.380692 91.023499 45.422707 90.875 45.539444 C 91.063004 45.708275 91.1465 45.917847 91.125 46.168442 C 90.570999 45.99157 90.112747 45.656181 89.75 45.162048 C 89.242752 44.525757 88.7845 43.854736 88.375 43.149254 C 88.666748 43.065468 88.958252 42.981438 89.25 42.897652 C 92.062248 43.930466 94.853996 45.020645 97.625 46.168442 Z" stroke="none" fill-rule="evenodd" fill="#c66b52" id="path52"></path>
    </g>
    <g id="g53">
        <path d="M 103.875 44.407249 C 104.738998 44.667908 104.822502 45.087326 104.125 45.665245 C 103.643997 45.296654 103.560753 44.877228 103.875 44.407249 Z" stroke="none" fill-rule="evenodd" fill="#19121d" id="path53"></path>
    </g>
    <g id="g54">
        <path d="M 105.375 44.155655 C 106.209503 44.330002 106.334503 44.74942 105.75 45.413643 C 105.432747 45.06015 105.307747 44.640991 105.375 44.155655 Z" stroke="none" fill-rule="evenodd" fill="#070409" id="path54"></path>
    </g>
    <g id="g55">
        <path d="M 99.625 43.149254 C 99.118248 43.19001 98.618248 43.147995 98.125 43.023453 C 99.029503 42.990997 99.446251 42.529816 99.375 41.639656 C 100.483253 41.557388 101.56675 41.431587 102.625 41.26226 C 101.988503 42.463646 100.988503 43.092644 99.625 43.149254 Z" opacity="0.957" stroke="none" fill-rule="evenodd" fill="#7e39a2" id="path55"></path>
    </g>
    <g id="g56">
        <path d="M 104.375 40.884865 C 104.718246 40.845367 105.05175 40.887375 105.375 41.010658 C 105.678001 41.289185 105.594749 41.414978 105.125 41.388062 C 104.743248 41.406425 104.493248 41.238617 104.375 40.884865 Z" opacity="0.929" stroke="none" fill-rule="evenodd" fill="#2c1a34" id="path56"></path>
    </g>
    <g id="g57">
        <path d="M 89.375 38.87207 C 89.597748 39.025536 89.847748 39.109322 90.125 39.123665 C 90.886497 39.842484 91.803253 40.303665 92.875 40.507462 C 94.525253 40.854164 96.192001 41.063744 97.875 41.136459 C 99.711998 41.211693 101.42025 40.792282 103 39.878464 C 103.112 40.358765 102.903748 40.652382 102.375 40.759064 C 101.331253 41.0084 100.331253 41.302017 99.375 41.639656 C 98.280251 41.587326 97.196747 41.671112 96.125 41.891258 C 94.139999 41.366417 92.139999 40.905235 90.125 40.507462 C 89.853752 39.960991 89.520248 39.457787 89.125 38.997871 C 89.181999 38.897484 89.265503 38.855713 89.375 38.87207 Z" opacity="0.965" stroke="none" fill-rule="evenodd" fill="#7a3a9c" id="path57"></path>
    </g>
    <g id="g58">
        <path d="M 106.625 37.865669 C 107.761497 39.548363 109.345001 40.177361 111.375 39.752663 C 111.908752 39.532265 112.242249 39.154861 112.375 38.620468 C 112.949753 38.421448 113.449753 38.589272 113.875 39.123665 C 113.011253 39.544342 112.17775 39.963753 111.375 40.381668 C 110.620499 40.423172 109.870499 40.381157 109.125 40.255867 C 107.731003 40.043007 106.397751 39.623596 105.125 38.997871 C 104.82225 38.773186 104.82225 38.563606 105.125 38.368874 C 105.6325 38.199799 106.1325 38.032227 106.625 37.865669 Z" opacity="0.999" stroke="none" fill-rule="evenodd" fill="#fbe1f7" id="path58"></path>
    </g>
    <g id="g59">
        <path d="M 94.625 38.117271 C 96.276001 40.258629 98.109497 40.426437 100.125 38.620468 C 100.756248 38.758347 101.339752 39.009949 101.875 39.375267 C 101.070251 39.826637 100.237 40.204033 99.375 40.507462 C 97.372749 40.489609 95.372749 40.363808 93.375 40.130066 C 92.490501 39.634666 91.657249 39.04744 90.875 38.368874 C 92.113998 38.118774 93.363998 38.034996 94.625 38.117271 Z" opacity="0.957" stroke="none" fill-rule="evenodd" fill="#fbdef7" id="path59"></path>
    </g>
    <g id="g60">
        <path d="M 106.625 37.362473 C 106.625 37.530289 106.625 37.697861 106.625 37.865669 C 106.1325 38.032227 105.6325 38.199799 105.125 38.368874 C 104.82225 38.563606 104.82225 38.773186 105.125 38.997871 C 106.397751 39.623596 107.731003 40.043007 109.125 40.255867 C 109.870499 40.381157 110.620499 40.423172 111.375 40.381668 C 111.625 40.381668 111.875 40.381668 112.125 40.381668 C 110.837502 40.671249 109.503998 40.713028 108.125 40.507462 C 106.514999 40.442047 105.014999 40.022629 103.625 39.249466 C 104.125252 38.670288 104.250252 38.04129 104 37.362473 C 104.723999 36.850967 105.515747 36.515587 106.375 36.356079 C 106.307999 36.758385 106.391502 37.093773 106.625 37.362473 Z" stroke="none" fill-rule="evenodd" fill="#e2b7e8" id="path60"></path>
    </g>
    <g id="g61">
        <path d="M 89.375 38.87207 C 89.375 38.788284 89.375 38.704254 89.375 38.620468 C 89.756752 38.602104 90.006752 38.769913 90.125 39.123665 C 89.847748 39.109322 89.597748 39.025536 89.375 38.87207 Z" opacity="0.933" stroke="none" fill-rule="evenodd" fill="#252023" id="path61"></path>
    </g>
    <g id="g62">
        <path d="M 88.625 38.117271 C 89.006752 38.098907 89.256752 38.266716 89.375 38.620468 C 88.993248 38.63884 88.743248 38.471016 88.625 38.117271 Z" opacity="0.906" stroke="none" fill-rule="evenodd" fill="#292824" id="path62"></path>
    </g>
    <g id="g63">
        <path d="M 113.875 36.859276 C 114.208252 37.219818 114.583252 37.55545 115 37.865669 C 114.811249 39.519936 113.852997 40.358765 112.125 40.381668 C 111.875 40.381668 111.625 40.381668 111.375 40.381668 C 112.17775 39.963753 113.011253 39.544342 113.875 39.123665 C 113.449753 38.589272 112.949753 38.421448 112.375 38.620468 C 112.546501 37.667664 112.296501 36.870857 111.625 36.230278 C 112.359497 36.405388 113.109497 36.615227 113.875 36.859276 Z" stroke="none" fill-rule="evenodd" fill="#ecbff3" id="path63"></path>
    </g>
    <g id="g64">
        <path d="M 99.375 35.852875 C 101.01075 35.664932 102.38575 36.252167 103.5 37.614067 C 103.793999 38.560089 103.502502 39.272873 102.625 39.752663 C 99.571503 41.122627 96.488251 41.248421 93.375 40.130066 C 95.372749 40.363808 97.372749 40.489609 99.375 40.507462 C 100.237 40.204033 101.070251 39.826637 101.875 39.375267 C 101.339752 39.009949 100.756248 38.758347 100.125 38.620468 C 100.166 37.94442 100.124252 37.273407 100 36.607681 C 99.905746 36.244865 99.697502 35.993263 99.375 35.852875 Z" stroke="none" fill-rule="evenodd" fill="#e7b9ef" id="path64"></path>
    </g>
    <g id="g65">
        <path d="M 94.625 38.117271 C 93.363998 38.034996 92.113998 38.118774 90.875 38.368874 C 91.657249 39.04744 92.490501 39.634666 93.375 40.130066 C 92.227501 39.996719 91.143997 39.661079 90.125 39.123665 C 90.006752 38.769913 89.756752 38.602104 89.375 38.620468 C 89.256752 38.266716 89.006752 38.098907 88.625 38.117271 C 88.625 37.949455 88.625 37.781891 88.625 37.614067 C 90.290749 36.734482 92.040749 36.063721 93.875 35.60128 C 94.041748 35.685066 94.208252 35.769096 94.375 35.852875 C 94.0905 36.640633 94.174004 37.395432 94.625 38.117271 Z" stroke="none" fill-rule="evenodd" fill="#ecbdf4" id="path65"></path>
    </g>
    <g id="g66">
        <path d="M 108.625 35.60128 C 109.711502 35.559509 110.794746 35.601532 111.875 35.727074 C 112.658249 35.943451 113.324997 36.320847 113.875 36.859276 C 113.109497 36.615227 112.359497 36.405388 111.625 36.230278 C 112.296501 36.870857 112.546501 37.667664 112.375 38.620468 C 112.242249 39.154861 111.908752 39.532265 111.375 39.752663 C 109.345001 40.177361 107.761497 39.548363 106.625 37.865669 C 106.625 37.697861 106.625 37.530289 106.625 37.362473 C 106.559502 36.990608 106.642754 36.655228 106.875 36.356079 C 107.471252 36.063972 108.054749 35.81237 108.625 35.60128 Z" opacity="0.958" stroke="none" fill-rule="evenodd" fill="#0c0a0c" id="path66"></path>
    </g>
    <g id="g67">
        <path d="M 99.625 35.349678 C 99.143997 35.402763 99.060753 35.570335 99.375 35.852875 C 99.697502 35.993263 99.905746 36.244865 100 36.607681 C 100.124252 37.273407 100.166 37.94442 100.125 38.620468 C 98.109497 40.426437 96.276001 40.258629 94.625 38.117271 C 94.174004 37.395432 94.0905 36.640633 94.375 35.852875 C 94.208252 35.769096 94.041748 35.685066 93.875 35.60128 C 92.040749 36.063721 90.290749 36.734482 88.625 37.614067 C 88.791748 37.278687 89.041748 37.027084 89.375 36.859276 C 92.636749 35.182869 96.053497 34.679672 99.625 35.349678 Z" opacity="0.958" stroke="none" fill-rule="evenodd" fill="#0a090a" id="path67"></path>
    </g>
    <g id="g68">
        <path d="M 113.875 36.859276 C 113.324997 36.320847 112.658249 35.943451 111.875 35.727074 C 110.794746 35.601532 109.711502 35.559509 108.625 35.60128 C 106.949997 35.408562 105.449997 35.827965 104.125 36.859276 C 104.491249 35.817406 105.324501 35.230423 106.625 35.098083 C 107.831001 34.974289 108.997498 34.80648 110.125 34.594887 C 111.19075 34.734009 112.232498 34.985611 113.25 35.349678 C 113.375 35.265892 113.5 35.18187 113.625 35.098083 C 112.842247 33.770401 111.675499 32.973579 110.125 32.707893 C 107.669998 32.187828 105.753502 32.942627 104.375 34.972282 C 104.392502 35.164757 104.475754 35.290558 104.625 35.349678 C 104.469498 35.633232 104.261253 35.884834 104 36.104477 C 103.694504 35.05455 103.319504 34.048157 102.875 33.085289 C 103.195 32.72525 103.611748 32.557426 104.125 32.582092 C 104.092247 32.80249 104.175499 32.970306 104.375 33.085289 C 104.981247 32.671402 105.648003 32.378036 106.375 32.204689 C 108.220497 32.016747 110.053749 32.100525 111.875 32.456291 C 114.312752 33.472244 115.521004 35.275467 115.5 37.865669 C 115.0905 37.303596 114.548752 36.968216 113.875 36.859276 Z" opacity="0.96" stroke="none" fill-rule="evenodd" fill="#7c38a1" id="path68"></path>
    </g>
    <g id="g69">
        <path d="M 99.625 35.349678 C 96.053497 34.679672 92.636749 35.182869 89.375 36.859276 C 89.641998 36.295692 90.058502 35.834259 90.625 35.475479 C 94.552254 33.294121 98.427254 33.336136 102.25 35.60128 C 102.706749 35.11972 102.706749 34.616524 102.25 34.091682 C 99.920502 31.522606 97.045502 30.642006 93.625 31.44989 C 92.153503 31.873329 90.736748 32.418297 89.375 33.085289 C 89.488251 32.844254 89.654747 32.634422 89.875 32.456291 C 92.673248 30.905434 95.673248 30.402237 98.875 30.946693 C 101.951248 31.858994 103.492752 33.913803 103.5 37.110878 C 102.472748 35.944214 101.181252 35.357231 99.625 35.349678 Z" opacity="0.957" stroke="none" fill-rule="evenodd" fill="#7a389e" id="path69"></path>
    </g>
    <g id="g70">
        <path d="M 110.125 34.594887 C 109.674004 34.428329 109.174004 34.344543 108.625 34.343285 C 107.720749 34.317627 106.887497 34.485435 106.125 34.846481 C 105.625 35.014297 105.125 35.18187 104.625 35.349678 C 104.475754 35.290558 104.392502 35.164757 104.375 34.972282 C 105.753502 32.942627 107.669998 32.187828 110.125 32.707893 C 111.675499 32.973579 112.842247 33.770401 113.625 35.098083 C 113.5 35.18187 113.375 35.265892 113.25 35.349678 C 112.232498 34.985611 111.19075 34.734009 110.125 34.594887 Z" stroke="none" fill-rule="evenodd" fill="#905aad" id="path70"></path>
    </g>
    <g id="g71">
        <path d="M 110.125 34.594887 C 108.997498 34.80648 107.831001 34.974289 106.625 35.098083 C 106.539497 34.887238 106.373001 34.803207 106.125 34.846481 C 106.887497 34.485435 107.720749 34.317627 108.625 34.343285 C 109.174004 34.344543 109.674004 34.428329 110.125 34.594887 Z" opacity="0.953" stroke="none" fill-rule="evenodd" fill="#3c2148" id="path71"></path>
    </g>
    <g id="g72">
        <path d="M 105.375 31.575691 C 105.097748 31.590034 104.847748 31.67382 104.625 31.827293 C 103.228752 31.736214 101.937248 31.317047 100.75 30.569298 C 100.583252 30.401482 100.583252 30.233917 100.75 30.066093 C 102.110497 31.139923 103.610497 31.475311 105.25 31.072495 C 105.365997 31.221939 105.407753 31.389763 105.375 31.575691 Z" stroke="none" fill-rule="evenodd" fill="#140d16" id="path72"></path>
    </g>
    <g id="g73">
        <path d="M 102.125 30.066093 C 103.095001 30.050751 104.095001 30.050751 105.125 30.066093 C 104.134003 30.715477 103.134003 30.715477 102.125 30.066093 Z" stroke="none" fill-rule="evenodd" fill="#110b14" id="path73"></path>
    </g>
    <g id="g74">
        <path d="M 92.625 22.014923 C 92.485497 22.33947 92.235497 22.549126 91.875 22.643921 C 90.375 22.727783 88.875 22.811661 87.375 22.895523 C 86.178253 23.599754 85.803253 24.648064 86.25 26.040512 C 86.753998 26.590004 87.295753 27.093201 87.875 27.55011 C 89.320747 26.495651 90.903999 25.740852 92.625 25.285713 C 90.988503 26.255379 89.405251 27.34581 87.875 28.556503 C 86.960251 27.84523 86.168503 27.006653 85.5 26.040512 C 84.069252 23.426743 84.819252 22.0849 87.75 22.014923 C 89.383247 22.319382 91.008247 22.319382 92.625 22.014923 Z" opacity="0.96" stroke="none" fill-rule="evenodd" fill="#ec3dac" id="path74"></path>
    </g>
    <g id="g75">
        <path d="M 104.125 21.00853 C 105.303001 19.672287 106.511253 19.672287 107.75 21.00853 C 108.105499 21.645096 108.188751 22.316017 108 23.021324 C 107.394501 24.028946 106.977753 25.119202 106.75 26.292107 C 102.255249 24.058388 97.630249 23.722931 92.875 25.285713 C 94.115501 23.993782 95.615501 23.57444 97.375 24.027718 C 98.825752 23.825661 99.575752 22.987 99.625 21.511726 C 99.561249 19.946701 99.061249 18.562912 98.125 17.360344 C 94.998001 16.73217 93.456497 18.032104 93.5 21.260132 C 93.332253 21.449432 93.124001 21.533318 92.875 21.511726 C 93.039749 16.505127 95.289749 15.289078 99.625 17.863541 C 100.422997 19.047165 101.3395 20.137413 102.375 21.134331 C 102.971252 21.274323 103.554497 21.232376 104.125 21.00853 Z" opacity="0.961" stroke="none" fill-rule="evenodd" fill="#eb3cab" id="path75"></path>
    </g>
    <g id="g76">
        <path d="M 104.125 21.00853 C 104.621002 21.03791 105.037498 20.870178 105.375 20.505325 C 105.5215 20.557991 105.6465 20.641846 105.75 20.756927 C 106.065498 21.866325 105.857002 22.830811 105.125 23.650322 C 104.274246 23.882645 103.566002 23.672989 103 23.021324 C 102.833252 22.769722 102.833252 22.51812 103 22.266525 C 103.439499 21.868195 103.814499 21.448845 104.125 21.00853 Z" stroke="none" fill-rule="evenodd" fill="#fe48d7" id="path76"></path>
    </g>
    <g id="g77">
        <path d="M 92.875 25.285713 C 92.791748 25.285713 92.708252 25.285713 92.625 25.285713 C 90.903999 25.740852 89.320747 26.495651 87.875 27.55011 C 87.295753 27.093201 86.753998 26.590004 86.25 26.040512 C 85.803253 24.648064 86.178253 23.599754 87.375 22.895523 C 88.875 22.811661 90.375 22.727783 91.875 22.643921 C 92.235497 22.549126 92.485497 22.33947 92.625 22.014923 C 92.708252 21.847191 92.791748 21.679466 92.875 21.511726 C 93.124001 21.533318 93.332253 21.449432 93.5 21.260132 C 93.456497 18.032104 94.998001 16.73217 98.125 17.360344 C 99.061249 18.562912 99.561249 19.946701 99.625 21.511726 C 99.575752 22.987 98.825752 23.825661 97.375 24.027718 C 95.615501 23.57444 94.115501 23.993782 92.875 25.285713 Z" stroke="none" fill-rule="evenodd" fill="#fe48d7" id="path77"></path>
    </g>
    <g id="g78">
        <path d="M 114.875 83.908318 C 114.875 83.740494 114.875 83.572937 114.875 83.405121 C 115.084503 83.319061 115.167999 83.151505 115.125 82.901924 C 115.334503 82.815865 115.417999 82.648308 115.375 82.398727 C 115.584503 82.312668 115.667999 82.145111 115.625 81.895523 C 115.834503 81.809471 115.917999 81.641914 115.875 81.392319 C 116.084503 81.306274 116.167999 81.138718 116.125 80.889122 C 116.350998 80.710739 116.43425 80.459137 116.375 80.134331 C 116.608498 79.865616 116.692001 79.530243 116.625 79.127937 C 116.858498 78.859222 116.942001 78.523849 116.875 78.121536 C 117.112747 77.764511 117.195999 77.34536 117.125 76.863533 C 117.36525 76.419464 117.448753 75.916267 117.375 75.353951 C 117.578499 74.817787 117.703499 74.230812 117.75 73.592743 C 117.876747 76.94104 117.210251 80.128036 115.75 83.153519 C 115.49025 83.457947 115.198502 83.709549 114.875 83.908318 Z" opacity="0.02" stroke="none" fill-rule="evenodd" fill="#08000c" id="path78"></path>
    </g>
    <g id="g79">
        <path d="M 114.625 83.908318 C 114.708252 83.908318 114.791748 83.908318 114.875 83.908318 C 114.828751 84.076889 114.745247 84.076889 114.625 83.908318 Z" opacity="0.02" stroke="none" fill-rule="evenodd" fill="#000000" id="path79"></path>
    </g>
    <g id="g80">
        <path d="M 114.375 84.411514 C 114.708252 84.57933 114.708252 84.57933 114.375 84.411514 Z" opacity="0.004" stroke="none" fill-rule="evenodd" fill="#000000" id="path80"></path>
    </g>
    <g id="g81">
        <path d="M 111.875 87.430702 C 112.123001 87.387428 112.289497 87.471458 112.375 87.682304 C 112.197746 87.909744 111.947746 87.99353 111.625 87.933899 C 111.708252 87.766083 111.791748 87.598518 111.875 87.430702 Z" opacity="0.004" stroke="none" fill-rule="evenodd" fill="#7c13c7" id="path81"></path>
    </g>
    <g id="g82">
        <path d="M 112.375 87.682304 C 112.594002 87.649338 112.76075 87.733124 112.875 87.933899 C 112.1325 88.058449 111.549004 88.435837 111.125 89.066101 C 110.708252 89.233917 110.291748 89.233917 109.875 89.066101 C 110.014 88.969734 110.097252 88.843941 110.125 88.688698 C 110.373001 88.731972 110.539497 88.647942 110.625 88.437096 C 111.015503 88.378479 111.348747 88.210663 111.625 87.933899 C 111.947746 87.99353 112.197746 87.909744 112.375 87.682304 Z" opacity="0.011" stroke="none" fill-rule="evenodd" fill="#140617" id="path82"></path>
    </g>
    <g id="g83">
        <path d="M 103.875 92.462685 C 103.541748 92.630501 103.208252 92.798073 102.875 92.965881 C 102.304749 93.251198 102.304749 93.58683 102.875 93.972282 C 102.860748 94.251305 102.777496 94.502907 102.625 94.727081 C 102.360748 93.950386 101.902252 93.279373 101.25 92.714279 C 100.933746 91.969307 100.64225 91.214508 100.375 90.449898 C 98.925247 90.125076 97.508499 89.705658 96.125 89.191895 C 95.871498 88.896515 95.538254 88.728951 95.125 88.688698 C 94.855247 88.174683 94.438499 87.839302 93.875 87.682304 C 93.625 87.262886 93.291748 86.927505 92.875 86.675911 C 92.804253 86.477394 92.679253 86.309586 92.5 86.172714 C 92.067497 86.651253 91.609253 87.070663 91.125 87.430702 C 88.145248 88.977287 84.978752 89.899902 81.625 90.198296 C 81.457001 90.005318 81.248749 89.837502 81 89.695099 C 80.900253 89.752457 80.858749 89.836494 80.875 89.946701 C 80.73925 89.931602 80.655998 89.847809 80.625 89.695099 C 81.782997 89.486771 82.949501 89.36097 84.125 89.317696 C 85.170753 88.865822 86.253998 88.530449 87.375 88.311302 C 89.653748 87.480522 91.612251 86.180511 93.25 84.411514 C 93.375 84.4953 93.5 84.57933 93.625 84.663109 C 93.458252 84.914711 93.291748 85.166306 93.125 85.417908 C 94.916496 88.039825 97.416496 89.423622 100.625 89.569298 C 101.425499 90.466743 101.842003 91.515167 101.875 92.714279 C 102.125 92.714279 102.375 92.714279 102.625 92.714279 C 102.570251 92.418655 102.653503 92.167061 102.875 91.959488 C 103.130997 92.299896 103.464249 92.46772 103.875 92.462685 Z M 95.125 88.688698 C 95.538254 88.728951 95.871498 88.896515 96.125 89.191895 C 95.654999 89.260078 95.321747 89.092262 95.125 88.688698 Z" opacity="0.847" stroke="none" fill-rule="evenodd" fill="#150b17" id="path83"></path>
    </g>
    <g id="g84">
        <path d="M 92.375 87.179108 C 92.906998 87.840813 93.49025 88.46981 94.125 89.066101 C 93.344254 88.884697 92.594254 88.549316 91.875 88.059708 C 92.021248 87.732117 92.187752 87.438507 92.375 87.179108 Z" opacity="0.005" stroke="none" fill-rule="evenodd" fill="#020003" id="path84"></path>
    </g>
    <g id="g85">
        <path d="M 93.875 87.682304 C 93.775749 87.940193 93.609253 87.982208 93.375 87.808105 C 93.523499 87.691368 93.690247 87.649338 93.875 87.682304 Z" opacity="0.004" stroke="none" fill-rule="evenodd" fill="#3c007c" id="path85"></path>
    </g>
    <g id="g86">
        <path d="M 91.125 87.430702 C 91.458252 87.598518 91.458252 87.598518 91.125 87.430702 Z" opacity="0.008" stroke="none" fill-rule="evenodd" fill="#020006" id="path86"></path>
    </g>
    <g id="g87">
        <path d="M 92.875 87.179108 C 93.208252 87.346924 93.208252 87.346924 92.875 87.179108 Z" opacity="0.004" stroke="none" fill-rule="evenodd" fill="#0e0078" id="path87"></path>
    </g>
    <g id="g88">
        <path d="M 92.875 86.675911 C 92.875 86.843719 92.875 87.011284 92.875 87.179108 C 92.708252 87.179108 92.541748 87.179108 92.375 87.179108 C 92.375 86.843719 92.541748 86.675911 92.875 86.675911 Z" opacity="0.008" stroke="none" fill-rule="evenodd" fill="#9a24c2" id="path88"></path>
    </g>
    <g id="g89">
        <path d="M 109.125 89.191895 C 109.458252 89.359711 109.458252 89.359711 109.125 89.191895 Z" opacity="0.008" stroke="none" fill-rule="evenodd" fill="#000200" id="path89"></path>
    </g>
    <g id="g90">
        <path d="M 68.875 90.198296 C 69.208252 90.366104 69.208252 90.366104 68.875 90.198296 Z" opacity="0.004" stroke="none" fill-rule="evenodd" fill="#000000" id="path90"></path>
    </g>
    <g id="g91">
        <path d="M 95.125 88.688698 C 95.321747 89.092262 95.654999 89.260078 96.125 89.191895 C 95.847748 89.390663 95.514503 89.516464 95.125 89.569298 C 94.924004 90.014877 94.632248 90.392281 94.25 90.701492 C 94.077003 90.569405 93.952003 90.401588 93.875 90.198296 C 94.296249 89.677231 94.712997 89.174026 95.125 88.688698 Z" opacity="0.004" stroke="none" fill-rule="evenodd" fill="#feb09e" id="path91"></path>
    </g>
    <g id="g92">
        <path d="M 68.875 90.449898 C 68.708252 90.617706 68.708252 90.617706 68.875 90.449898 Z" opacity="0.004" stroke="none" fill-rule="evenodd" fill="#000000" id="path92"></path>
    </g>
    <g id="g93">
        <path d="M 50.875 89.946701 C 51.335999 90.394287 51.502499 90.98127 51.375 91.707893 C 50.974251 91.755188 50.640751 91.629387 50.375 91.33049 C 50.561001 90.87384 50.727749 90.412651 50.875 89.946701 Z" opacity="0.016" stroke="none" fill-rule="evenodd" fill="#e2e7f0" id="path93"></path>
    </g>
    <g id="g94">
        <path d="M 80.125 96.99147 C 78.607246 96.639236 77.19075 96.890831 75.875 97.746269 C 75.625999 97.767906 75.417747 97.683876 75.25 97.494675 C 74.804253 97.044556 74.596001 96.499352 74.625 95.859276 C 74.749496 94.680527 75.333 94.135567 76.375 94.223885 C 76.291748 94.056068 76.208252 93.888496 76.125 93.720688 C 76.759247 92.732903 77.009247 91.642731 76.875 90.449898 C 77.417 90.620728 77.917 90.87233 78.375 91.204689 C 79.056503 90.791817 79.556503 90.959633 79.875 91.707893 C 79.421753 92.673027 79.296753 93.679413 79.5 94.727081 C 80.089996 95.446648 80.631752 96.201447 81.125 96.99147 C 80.824997 97.190735 80.491753 97.190735 80.125 96.99147 Z" stroke="none" fill-rule="evenodd" fill="#f3b6a7" id="path94"></path>
    </g>
    <g id="g95">
        <path d="M 70.875 90.198296 C 71.094002 90.165337 71.26075 90.249115 71.375 90.449898 C 71.219254 91.00618 70.969254 91.509384 70.625 91.959488 C 70.342003 91.333008 70.425247 90.745773 70.875 90.198296 Z" opacity="0.008" stroke="none" fill-rule="evenodd" fill="#ffcabe" id="path95"></path>
    </g>
    <g id="g96">
        <path d="M 74.375 93.469086 C 73.878998 93.473106 73.628998 93.221504 73.625 92.714279 C 73.784248 92.058365 74.075996 91.471382 74.5 90.953094 C 74.597 91.7957 74.555252 92.634529 74.375 93.469086 Z" opacity="0.004" stroke="none" fill-rule="evenodd" fill="#ffe5d9" id="path96"></path>
    </g>
    <g id="g97">
        <path d="M 108.625 95.985069 C 108.275749 96.457832 107.859253 96.877243 107.375 97.243073 C 106.693748 97.548264 106.110252 98.009445 105.625 98.626862 C 104.477501 99.033195 103.769249 98.655792 103.5 97.494675 C 103.416748 96.488266 103.333252 95.48188 103.25 94.475479 C 103.180496 94.245018 103.055496 94.077454 102.875 93.972282 C 102.304749 93.58683 102.304749 93.251198 102.875 92.965881 C 103.880249 92.682838 104.880249 92.682838 105.875 92.965881 C 105.718246 94.276215 106.301498 94.905212 107.625 94.852875 C 108.017502 95.204361 108.350998 95.581764 108.625 95.985069 Z" stroke="none" fill-rule="evenodd" fill="#f5b6a8" id="path97"></path>
    </g>
    <g id="g98">
        <path d="M 74.375 93.469086 C 74.639503 93.192322 74.848 92.856697 75 92.462685 C 75.416496 93.080864 75.25 93.584068 74.5 93.972282 C 74.384003 93.82283 74.342247 93.655022 74.375 93.469086 Z" opacity="0.004" stroke="none" fill-rule="evenodd" fill="#ffb9ab" id="path98"></path>
    </g>
    <g id="g99">
        <path d="M 111.625 95.733475 C 111.206497 96.581863 110.789749 97.420441 110.375 98.249474 C 109.956001 97.945038 109.622498 98.070831 109.375 98.626862 C 109.091248 98.815315 108.841248 98.773552 108.625 98.501068 C 109.127998 97.843376 109.794502 97.423965 110.625 97.243073 C 110.151001 97.000023 109.651001 96.916237 109.125 96.99147 C 109.325249 96.6035 109.408501 96.184341 109.375 95.733475 C 109.375 95.649696 109.375 95.565659 109.375 95.48188 C 109.612747 95.838898 109.695999 96.258057 109.625 96.739868 C 110.071999 96.811577 110.488747 96.727798 110.875 96.488266 C 110.743752 96.314171 110.577003 96.18837 110.375 96.110878 C 110.655998 96.048225 110.905998 95.922424 111.125 95.733475 C 110.613998 95.591324 110.197502 95.339722 109.875 94.978676 C 110.720749 94.607315 111.304253 94.858917 111.625 95.733475 Z" opacity="0.984" stroke="none" fill-rule="evenodd" fill="#472f2c" id="path99"></path>
    </g>
    <g id="g100">
        <path d="M 75.375 98.249474 C 75.375 98.333252 75.375 98.417282 75.375 98.501068 C 73.907249 98.008934 73.448997 97.086327 74 95.733475 C 74.155746 96.756485 74.613998 97.595055 75.375 98.249474 Z" stroke="none" fill-rule="evenodd" fill="#ddd8df" id="path100"></path>
    </g>
    <g id="g101">
        <path d="M 109.875 94.978676 C 110.197502 95.339722 110.613998 95.591324 111.125 95.733475 C 110.905998 95.922424 110.655998 96.048225 110.375 96.110878 C 110.577003 96.18837 110.743752 96.314171 110.875 96.488266 C 110.488747 96.727798 110.071999 96.811577 109.625 96.739868 C 109.695999 96.258057 109.612747 95.838898 109.375 95.48188 C 109.375 95.1465 109.541748 94.978676 109.875 94.978676 Z" stroke="none" fill-rule="evenodd" fill="#db9988" id="path101"></path>
    </g>
    <g id="g102">
        <path d="M 109.375 95.733475 C 109.408501 96.184341 109.325249 96.6035 109.125 96.99147 C 108.694252 97.423714 108.194252 97.759094 107.625 97.997871 C 106.925751 98.115364 106.592247 98.534523 106.625 99.255867 C 106.331253 99.310959 106.081253 99.22718 105.875 99.004265 C 106.380753 98.412254 106.880753 97.825264 107.375 97.243073 C 107.859253 96.877243 108.275749 96.457832 108.625 95.985069 C 108.654251 95.485901 108.487503 95.066734 108.125 94.727081 C 108.208252 94.643295 108.291748 94.559265 108.375 94.475479 C 108.885246 94.77916 109.218498 95.19857 109.375 95.733475 Z" opacity="0.996" stroke="none" fill-rule="evenodd" fill="#243357" id="path102"></path>
    </g>
    <g id="g103">
        <path d="M 81.875 97.243073 C 81.861504 97.77948 81.611504 98.114861 81.125 98.249474 C 80.958252 98.249474 80.791748 98.249474 80.625 98.249474 C 78.926003 97.97422 77.259247 97.97422 75.625 98.249474 C 75.708252 98.08165 75.791748 97.914078 75.875 97.746269 C 77.19075 96.890831 78.607246 96.639236 80.125 96.99147 C 80.982246 98.142281 81.482246 97.974472 81.625 96.488266 C 81.846497 96.695847 81.929749 96.947449 81.875 97.243073 Z" opacity="0.988" stroke="none" fill-rule="evenodd" fill="#123d6e" id="path103"></path>
    </g>
    <g id="g104">
        <path d="M 82.875 97.746269 C 83.125 97.830055 83.291748 97.997871 83.375 98.249474 C 82.751747 98.3423 82.584999 98.174744 82.875 97.746269 Z" stroke="none" fill-rule="evenodd" fill="#ac081d" id="path104"></path>
    </g>
    <g id="g105">
        <path d="M 81.875 97.243073 C 82.041748 97.243073 82.208252 97.243073 82.375 97.243073 C 82.697746 97.183441 82.947746 97.26722 83.125 97.494675 C 82.694 97.484856 82.610748 97.568642 82.875 97.746269 C 82.584999 98.174744 82.751747 98.3423 83.375 98.249474 C 83.249496 98.648247 82.999496 98.774048 82.625 98.626862 C 82.443253 98.274879 82.318253 97.897484 82.25 97.494675 C 81.622253 98.449989 81.872253 99.036972 83 99.255867 C 83.437248 99.193474 83.6455 98.941872 83.625 98.501068 C 83.834503 98.587112 83.917999 98.754677 83.875 99.004265 C 82.847504 100.317101 81.472504 100.904091 79.75 100.765457 C 79.141502 100.558647 78.516502 100.474609 77.875 100.513855 C 77.646248 99.946762 77.313004 99.443558 76.875 99.004265 C 76.501251 98.701096 76.167999 98.701096 75.875 99.004265 C 75.625 98.920486 75.458252 98.752663 75.375 98.501068 C 75.375 98.417282 75.375 98.333252 75.375 98.249474 C 75.458252 98.249474 75.541748 98.249474 75.625 98.249474 C 77.259247 97.97422 78.926003 97.97422 80.625 98.249474 C 79.446503 98.167198 78.279999 98.251228 77.125 98.501068 C 77.459251 99.211586 77.917503 99.798805 78.5 100.26226 C 78.938004 100.034309 79.3965 99.782707 79.875 99.507462 C 80.10675 100.122871 80.523499 100.332458 81.125 100.136467 C 80.64875 99.928642 80.565247 99.635017 80.875 99.255867 C 81.21125 99.468964 81.46125 99.762337 81.625 100.136467 C 82.050247 100.223259 82.383499 100.05545 82.625 99.633263 C 82.362747 99.509476 82.112747 99.551247 81.875 99.759056 C 81.698502 99.204536 81.448502 98.70134 81.125 98.249474 C 81.611504 98.114861 81.861504 97.77948 81.875 97.243073 Z" stroke="none" fill-rule="evenodd" fill="#402d2c" id="path105"></path>
    </g>
    <g id="g106">
        <path d="M 80.625 98.249474 C 80.791748 98.249474 80.958252 98.249474 81.125 98.249474 C 81.448502 98.70134 81.698502 99.204536 81.875 99.759056 C 82.112747 99.551247 82.362747 99.509476 82.625 99.633263 C 82.383499 100.05545 82.050247 100.223259 81.625 100.136467 C 81.46125 99.762337 81.21125 99.468964 80.875 99.255867 C 80.565247 99.635017 80.64875 99.928642 81.125 100.136467 C 80.523499 100.332458 80.10675 100.122871 79.875 99.507462 C 79.3965 99.782707 78.938004 100.034309 78.5 100.26226 C 77.917503 99.798805 77.459251 99.211586 77.125 98.501068 C 78.279999 98.251228 79.446503 98.167198 80.625 98.249474 Z" stroke="none" fill-rule="evenodd" fill="#e1a191" id="path106"></path>
    </g>
    <g id="g107">
        <path d="M 83.375 98.249474 C 83.541748 98.249474 83.625 98.333252 83.625 98.501068 C 83.6455 98.941872 83.437248 99.193474 83 99.255867 C 81.872253 99.036972 81.622253 98.449989 82.25 97.494675 C 82.318253 97.897484 82.443253 98.274879 82.625 98.626862 C 82.999496 98.774048 83.249496 98.648247 83.375 98.249474 Z" stroke="none" fill-rule="evenodd" fill="#e69f8c" id="path107"></path>
    </g>
    <g id="g108">
        <path d="M 109.125 96.99147 C 109.651001 96.916237 110.151001 97.000023 110.625 97.243073 C 109.794502 97.423965 109.127998 97.843376 108.625 98.501068 C 108.841248 98.773552 109.091248 98.815315 109.375 98.626862 C 109.622498 98.070831 109.956001 97.945038 110.375 98.249474 C 109.953499 98.63089 109.495247 98.96653 109 99.255867 C 108.416748 98.920486 107.833252 98.920486 107.25 99.255867 C 107.125 99.172081 107 99.088043 106.875 99.004265 C 107.130997 98.664101 107.380997 98.328728 107.625 97.997871 C 108.194252 97.759094 108.694252 97.423714 109.125 96.99147 Z" stroke="none" fill-rule="evenodd" fill="#da9381" id="path108"></path>
    </g>
    <g id="g109">
        <path d="M 77.875 100.513855 C 77.027252 100.254959 76.360748 99.751762 75.875 99.004265 C 76.167999 98.701096 76.501251 98.701096 76.875 99.004265 C 77.313004 99.443558 77.646248 99.946762 77.875 100.513855 Z" stroke="none" fill-rule="evenodd" fill="#dedae0" id="path109"></path>
    </g>
    <g id="g110">
        <path d="M 110.375 98.249474 C 110.789749 97.420441 111.206497 96.581863 111.625 95.733475 C 111.832253 95.524147 112.040497 95.607933 112.25 95.985069 C 112.077751 98.925011 110.494499 100.434601 107.5 100.513855 C 105.896751 100.163383 104.271751 99.911781 102.625 99.759056 C 102.512749 99.135857 102.679253 98.63266 103.125 98.249474 C 104.011002 99.04377 105.052498 99.546967 106.25 99.759056 C 107.36525 99.571114 108.49025 99.44532 109.625 99.381668 C 110.035248 99.09761 110.285248 98.720207 110.375 98.249474 Z" stroke="none" fill-rule="evenodd" fill="#e8e2ec" id="path110"></path>
    </g>
    <g id="g111">
        <path d="M 83.875 99.004265 C 84.116249 99.311462 84.074501 99.646843 83.75 100.010658 C 82.627998 100.884712 81.33625 101.304131 79.875 101.268661 C 79.043503 101.376091 78.376999 101.124496 77.875 100.513855 C 78.516502 100.474609 79.141502 100.558647 79.75 100.765457 C 81.472504 100.904091 82.847504 100.317101 83.875 99.004265 Z" stroke="none" fill-rule="evenodd" fill="#e5e0e8" id="path111"></path>
    </g>
</svg>
