<svg version="1.1" xmlns="http://www.w3.org/2000/svg" xmlns:xlink="http://www.w3.org/1999/xlink" width="579.50498" height="422.7409" viewBox="0,0,579.50498,422.7409"><g transform="translate(50.85823,18)"><g data-paper-data="{&quot;isPaintingLayer&quot;:true}" fill-rule="nonzero" stroke-linecap="butt" stroke-linejoin="miter" stroke-miterlimit="10" stroke-dasharray="" stroke-dashoffset="0" style="mix-blend-mode: normal"><path d="M-21,-18h522v422.5h-522z" fill="#909fff" stroke="none" stroke-width="1"/><g><g fill="none" stroke="#4a6c1a" stroke-width="0.2818"><path d="M349.39999,312.29999c24.80002,-1.19998 48,2.40002 73.30002,2.40002c2.89999,0.19998 7.39999,0.69998 11.09998,0.79999c24.10001,1 49.70001,1.79999 74.40002,3.20001c3.70001,0.5 12.89996,-0.40002 16.59998,0.79999c4.10004,2.10001 0.5,2.70001 0,4.79999c-3.20001,-3.89999 -0.70001,3.20001 -4.39996,2.40002c-2,-1.10001 -1.5,-4.10001 -4.40002,-4c-1.09998,4.19998 -3.29999,2.19998 -5.5,0c-1.20001,1.89999 -4.09998,3 -6.70001,3.19998c3,-5.10001 -6.59998,-0.29999 -10,-3.19998c-2.09998,3.29999 -3.39999,1.29999 -4.39999,-0.80002c-0.79999,1.80002 -3.39999,2.39999 -5.5,3.20001c-0.39999,-4.60001 -2.89999,-1 -4.39999,-0.89999c-1.39999,0.19998 -6.29999,-2.40002 -5.60001,1.69998c-1.29999,-1.69998 -3.60001,-2.89999 -4.39999,-4.79999c-0.89999,2.5 -2.5,5.79999 -5.5,1.60001c-3.10001,1 -8.10001,2.89999 -6.70001,-1.60001c-2.5,1.10001 -4.29999,3.19998 -7.79999,2.39999c0.29999,-2.10001 1.29999,-1.70001 -1.10001,-2.39999c-4.69998,1.5 -5.10001,-2.10001 -11.10001,-1.60001c4.80002,6.29999 -8.69998,-5 -7.79999,2.39999c-2.60001,-4.19998 -1.5,-2.79999 -4.39999,-1.60001c0.19998,3.20001 -4.80002,0.30002 -3.30002,-1.59998c-3.89999,5.39999 -10.59998,-1.40002 -14.39999,-0.80002c-3.79999,0.60001 -13.5,0.60001 -10,4c-3.10001,0.10001 -4.29999,-2.39999 -5.5,-4c-6.10001,4.80002 -19,-4.69998 -26.60001,1.60001c-2.09998,-1.20001 -4.29999,-2.79999 -6.69998,-4c-1.39999,4.89999 -5.39999,0.60001 -10,4c2.29999,-2.89999 -5,-2.39999 -7.80002,0c-0.29999,-1 0.70001,-2.79999 -1.09998,-3.20001c-2.80002,1 -9.60001,3.30002 -8.90002,0c-3.5,1.10001 -5,1.70001 -7.79999,0c-2,2.90002 -2.70001,1.30002 -5.5,2.40002c-0.39999,1.09998 -2,1.89999 -3.29999,2.39999c-0.80002,-1.89999 -6.60001,-3 -6.70001,0.79999c-2.79999,-4 -6.60001,-0.19998 -10,0c-2,-0.29999 -0.39999,-3.10001 -3.29999,-2.39999c-3.20001,4.70001 -14.70001,-2.29999 -14.40002,4c-1.89999,0.20001 -2.89999,-1 -4.39999,-1.60001c-1.19998,-4.39999 -3.19998,0.20001 -2.19998,2.39999c-2.20001,-0.59998 -3.20001,-2.59998 -5.5,-3.19998c-3,3.69998 -7.70001,0.19998 -12.20001,3.19998c-0.20001,-3.5 -7.20001,-0.09998 -11.10001,-2.39999c4,5.80002 -12.2,-3.39999 -6.69998,3.20001c-3.10001,0.10001 -4.30002,-2.39999 -5.50002,-4c-2.7,4.89999 -6.3,-0.5 -11.09999,3.19998c0.79999,-3.89999 -5.20001,0.40002 -7,-2.09998c-1.90001,-2.5 -10.60001,0.5 -5.20001,2.09998c-4.29999,-0.09998 -10.59999,-2.69998 -6.7,2.40002c-3.5,0.29999 -4,-2.80002 -5.5,-4c-1.2,7.39999 -4.2,-1.80002 -8.89999,3.19998c1.2,-5 -3.2,-0.60001 -6.7,-2.39999c1.39999,3.29999 -2.10001,1.29999 -3.3,1.60001c-1.10001,-1.80002 -3.10001,0.39999 -2.2,1.60001c-1.5,0.29999 -0.90001,-1.90002 -2.20001,-1.60001c-2,-1.60001 -2.5,2.79999 -4.39999,3.19998c-1.5,-5.19998 -3.89999,-2.69998 -7.8,0c-0.8,-5.19998 -3.5,-1.79999 -8.89999,-3.19998c-1.60001,1.5 -3.3,3.29999 -4.40001,4.79999c-1.39999,-1.5 -1.79999,-3.60001 -3.29999,-4.79999c-1,4.39999 -6.60001,4.10001 -4.40001,-0.80002c-3.59999,0.5 -1,3.80002 -3.3,4.80002c-1.39999,-1.5 -1.09999,-3.80002 -3.29999,-4.80002c-2.10001,3.10001 -4.8,3.40002 -5.5,0c-2.40001,0.80002 -3.40001,3 -3.3,4.80002c-3.40001,-6.70001 -13.2,5 -10,-4.80002c-5.5,2.90002 -3.3,4.20001 -7.8,0c-1.8,2.20001 -4.1,4.10001 -5.5,6.40002c-2.7,-0.80002 -1.3,-3.80002 -3.3,-4.80002c-2,3.5 -6.39999,2.20001 -6.7,-0.79999c-3,1.60001 -1.3,4.69998 -3.3,6.39999c-2.1,-1.89999 -4.1,-3.89999 -4.39999,-6.39999c-1.9,0.89999 -0.8,1.19998 -3,2.5c-2.20001,1.29999 -0.8,-2.30002 -1.4,-2.5c-2.5,-1.39999 -4.1,3.19998 -3.3,4.79999c-1.79999,-4.89999 -5.4,-2.39999 -10,-2.39999c-3.29999,0 -13.7,-2.39999 -11.1,1.60001c-3.6,0.39999 -6.3,-1 -8.9,-2.39999c-1,1.79999 -3.7,3.5 -3.3,0c-2.4,0.69998 -2.7,2.79999 -4.4,4c-2.6,-3.30002 -6.1,-1.70001 -8.9,0c-0.5,-3 -8.5,-0.30002 -11.9,-0.60001c-3.4,-0.30002 -9.9,3.5 -13.6,-1.80002c-3.9,3.5 -6,-0.29999 -10,4c1.6,-3.59998 -3.7,-0.39999 -3.3,-3.19998c-3.5,2 -5.7,4.19998 -6.7,0c-2.4,4.5 -5.5,0.5 -8.9,3.19998c0.9,-3.89999 -3.3,-0.89999 -4.4,0.80002c-3.3,-2.80002 -4.3,-1.80002 -6.6,-0.89999c-2.2,0.79999 -6.8,-2.90002 -3.4,2.39999c-2.7,-1.60001 -4.9,-3.20001 -7.8,-0.80002c0.1,-2.19998 -0.6,-5 2.2,-6.39999c2,-0.69998 4.5,-0.69998 6.7,-0.79999c3.4,-0.20001 7.2,-0.5 10,-0.80002c25.7,-1 50.8,-1.89999 76.6,-3.19998c7,-0.30002 14.79999,-0.39999 21.1,-0.80002c22.7,0 45.2,-1.59998 67.7,-1.59998c6.7,0 14,-0.40002 20,-0.80002c12.2,0 24.8,0.39999 36.60001,-0.79999c4.8,-0.5 9.3,-0.80002 14.39999,-0.80002c0.5,0 1.60001,0 2.2,0c4.10001,1.30002 8.20001,0.30002 12.20001,0c14.60001,0 27.69998,-2.39999 42.19998,-2.39999c4,0 7.80002,-0.29999 11.10001,-0.79999c24.30002,-1.39999 49.60001,-1.20001 73.5,-2.30002z"/></g><g fill="none" stroke="#9ab07f" stroke-width="0.2818"><path d="M275.89999,314.5c-3.29999,0.5 -7.10001,0.79999 -11.10001,0.79999c3,-0.19998 7.5,-0.5 11.10001,-0.79999z"/></g><g fill="none" stroke="#a5b88c" stroke-width="0.2818"><path d="M423.60001,314.5c3.89999,0 7.89999,0.39999 11.10001,0.79999c-3.70001,-0.09998 -8.20001,-0.5 -11.10001,-0.79999z"/></g><g fill="none" stroke="#603920" stroke-width="0.2818"><path d="M340.29999,316.10001c1.80002,0.5 0.80002,2.19998 1.90002,3.10001c2.79999,-2.40002 10.09998,-2.90002 7.79999,0c4.60001,-3.40002 8.60001,0.79999 10,-4c2.39999,1.19998 4.60001,2.79999 6.70001,4c7.5,-6.30002 20.39999,3.19998 26.59998,-1.60001c1.10001,1.60001 2.30002,4.10001 5.5,4c-3.5,-3.5 6.20001,-3.39999 10,-4c3.80002,-0.60001 10.5,6.29999 14.40002,0.79999c-1.5,1.89999 3.5,4.80002 3.29999,1.60001c3.29999,-0.5 6.60001,4.79999 7.79999,-0.79999c4.10001,4.39999 10.70001,2.69998 15.5,1.59998c2.40002,0.80002 1.40002,0.30002 1.10001,2.40002c3.5,0.79999 5.30002,-1.40002 7.80002,-2.40002c-1.40002,4.5 3.69998,2.60001 6.69998,1.60001c2.89999,4.20001 4.5,0.80002 5.5,-1.60001c0.70001,2 3.10001,3.10001 4.39999,4.80002c-0.79999,-4.20001 4.10001,-1.60001 5.60001,-1.70001c1.5,-0.10001 4.10001,-3.69998 4.39999,0.89999c2,-0.79999 4.70001,-1.39999 5.5,-3.19998c1,2.10001 2.20001,4.10001 4.40002,0.79999c3.39996,2.89999 13,-1.89999 10,3.20001c2.70001,-0.20001 5.59998,-1.39999 6.70001,-3.20001c2.09998,2.20001 4.29999,4.20001 5.5,0c2.79999,-0.10001 2.29999,2.89999 4.39996,4c3.70001,0.80002 1.10004,-6.29999 4.40002,-2.39999c-3.29999,13.70001 3.20001,32.5 2.20001,46.10001c-1,13.60001 -2.10004,28.60001 -24.5,30.89999c-22.30002,2.29999 -43.90002,0.89999 -66.50003,0.89999c-12.89999,0 -26.69998,0 -38.79999,0.80002c-42.10001,0 -84.30002,0 -126.5,0c-13.30002,0 -27.5,-0.10001 -40,0.79999c-33.3,0 -66.60001,0 -99.90001,0c-23.5,0 -48.39999,-0.79999 -71,0.79999c-20.7,0 -50,-0.69998 -69.9,0c-19.9,0.70001 -41.6,-4.89999 -41,-20.69998c0.6,-15.80002 -3.8,-34.20001 2.1,-49.20001c0.1,-0.19998 1.1,-0.5 1.1,-0.79999c2.9,-2.39999 5.1,-0.80002 7.8,0.79999c-3.4,-5.29999 1.1,-1.5 3.4,-2.39999c2.3,-0.79999 3.3,-1.89999 6.6,0.89999c1,-1.69998 5.3,-4.69998 4.4,-0.79999c3.5,-2.70001 6.5,1.29999 8.9,-3.20001c1.1,4.20001 3.2,2 6.7,0c-0.5,2.80002 4.8,-0.39999 3.3,3.20001c4,-4.30002 6.1,-0.5 10,-4c3.7,5.39999 10.2,1.5 13.6,1.79999c3.4,0.30002 11.4,-2.39999 11.9,0.60001c2.8,-1.70001 6.3,-3.29999 8.9,0c1.7,-1.29999 2,-3.29999 4.4,-4c-0.4,3.5 2.2,1.79999 3.29999,0c2.70001,1.39999 5.3,2.79999 8.9,2.39999c-2.6,-4 7.8,-1.69998 11.1,-1.60001c1.5,0.60001 4.4,1.5 5.5,0c3.10001,0.40002 1.3,3.5 4.4,4c2.9,-1.39999 -1.1,-5.59998 3.3,-6.39999c0.6,0.10001 -0.8,3.80002 1.4,2.5c2.1,-1.29999 1,-1.5 3,-2.5c0.2,2.5 2.29999,4.5 4.39999,6.39999c2,-1.69998 0.3,-4.79999 3.3,-6.39999c0.3,3 4.7,4.30002 6.7,0.80002c2,1.09998 0.60001,4 3.3,4.79999c1.4,-2.39999 3.7,-4.29999 5.5,-6.39999c4.60001,4.19998 2.3,2.89999 7.8,0c-3.2,9.79999 6.59999,-1.80002 10,4.79999c-0.2,-1.79999 0.8,-4.10001 3.3,-4.79999c0.7,3.39999 3.39999,3.10001 5.5,0c2.2,1.10001 1.89999,3.29999 3.29999,4.79999c2.3,-1 -0.29999,-4.39999 3.3,-4.79999c-2.2,4.89999 3.40001,5.19998 4.40001,0.79999c1.5,1.20001 1.89999,3.30002 3.29999,4.80002c1,-1.60001 2.8,-3.30002 4.40001,-4.80002c5.39999,1.39999 8.09999,-2 8.89999,3.20001c3.90001,-2.70001 6.3,-5.20001 7.8,0c1.8,-0.39999 2.3,-4.80002 4.39999,-3.20001c-0.2,1.30002 0.20001,2.80002 2.20001,3.20001c0,-1.20001 0.89999,-2.60001 2.2,-3.20001c1.2,-0.29999 4.59999,1.70001 3.3,-1.60001c3.5,1.90002 7.89999,-2.59998 6.7,2.40002c4.7,-5.10001 7.7,4.19998 8.89999,-3.20001c1.40001,1.20001 2,4.29999 5.5,4c-3.89999,-5.10001 2.5,-2.5 6.7,-2.39999c-5.39999,-1.5 3.40001,-4.60001 5.20001,-2.10001c1.79999,2.5 7.7,-1.89999 7,2.10001c4.79999,-3.80002 8.39999,1.69998 11.09999,-3.20001c1.10001,1.60001 2.3,4.10001 5.50002,4c-5.50002,-6.60001 10.79999,2.60001 6.69998,-3.19998c3.89999,2.29999 10.89999,-1.10001 11.10001,2.39999c4.5,-3 9.10001,0.5 12.20001,-3.20001c2.19998,0.70001 3.19998,2.60001 5.5,3.20001c-1,-2.20001 1,-6.80002 2.19998,-2.39999c1.20001,1.89999 4.10001,3 6.70001,3.19998c-1.89999,-6.5 9.19998,-0.10001 13.29999,-4.79999c-0.39999,2.60001 0.70001,1.69998 2.20001,1.60001c3.39999,-0.20001 7.19998,-4 10,0c0.19998,-3.80002 6,-2.70001 6.69998,-0.80002c1.30002,-0.5 2.80002,-1.29999 3.30002,-2.39999c2.19998,0.60001 5.79999,1.20001 5.5,-1.60001c2.60001,2.70001 6.60001,-0.19998 8.89999,3.20001c0.79999,-3.89999 6.39999,-0.20001 7.79999,-4M313.70001,333.60001c9.89999,1 -1.5,-7 0,0M384.70001,336c10.79999,1.10001 0,-7.10001 0,0M479.10001,332.79999c-5.70001,-1.79999 -8.70001,2.80002 -3.39999,4.80002c5.29999,2.10001 7.79999,-3.30002 3.39999,-4.80002M359.20001,340.79999c9.89999,0 -1.5,-7.69998 0,0M106.1,342.39999c-3.9,-1 -7.4,3 -3,4.5c4.50001,1.39999 7.20001,-3.39999 3,-4.5M146.10001,342.39999c-3.3,-0.5 -4.8,3.20001 -1.10001,4c3.60001,0.70001 3.8,-3.60001 1.10001,-4M0.7,344c-13.3,-4.60001 -5.7,8.29999 0,0M217.10001,344c-3.3,-1.29999 -7.10001,2.5 -3.60001,4.10001c3.5,1.60001 6.39999,-3 3.60001,-4.10001M37.3,347.89999c0.3,-6.5 -9.1,0.30002 0,0M262.60001,344.79999c-2.20001,-0.89999 -7.70001,3.30002 -3.60001,4.90002c4.20001,1.59998 7,-3.5 3.60001,-4.90002M176,345.60001c-9.39999,-0.39999 1.60001,6.69998 0,0M451.29999,345.60001c-3.29999,-1.39999 -7.59998,1.89999 -4.09998,3.69998c3.5,1.80002 7.39999,-2.39999 4.09998,-3.69998M381.39999,349.5c-10.5,-1.29999 0.39999,6.89999 0,0M65.1,350.29999c-3.2,-1.09998 -6.2,2.30002 -3,3.70001c3.20001,1.39999 5.8,-2.70001 3,-3.70001M354.70001,353.5c1,-6 -7.40002,0.39999 0,0M237.10001,351.89999c-3.90001,-1.5 -6.5,3.89999 -3,5.30002c3.5,1.39999 5.89999,-4.20001 3,-5.30002M95,356.70001c1.5,-7.80002 -9.9,0 0,0M410.20001,354.29999c-4.10001,-1.79999 -8.70001,1.90002 -4.70001,4.10001c4,2.30002 7.29999,-3 4.70001,-4.10001M169.39999,358.29999c-3.09999,-1.09998 -6.2,2.20001 -3,3.70001c3.20001,1.39999 5.8,-2.70001 3,-3.70001M-21.5,364.60001c0.9,-2.39999 -1.8,-5.30002 -5.5,-4.80002c-0.9,2.5 1.7,5.40002 5.5,4.80002M266,364.60001c2,-7.10001 -8.20001,-1.30002 0,0M365.79999,371.79999c-0.29999,9.70001 13.5,-0.29999 0,0M84.2,377.10001c3.8,1.10001 5.10001,-3.89999 1.9,-4.5c-4.7,-1 -5.6,3.39999 -1.9,4.5z"/></g><g fill="none" stroke="#484618" stroke-width="0.2818"><path d="M323.60001,316.10001c2.79999,1.69998 4.39999,1.10001 7.79999,0c-0.69998,3.29999 6.20001,1 8.89999,0c-1.5,3.89999 -7,0.10001 -7.79999,4c-2.29999,-3.39999 -6.29999,-0.5 -8.89999,-3.20001c0.39999,2.80002 -3.20001,2.20001 -5.5,1.60001c2.79999,-1 3.5,0.60001 5.5,-2.39999z"/></g><g fill="none" stroke="#aec098" stroke-width="0.2818"><path d="M208.2,317.70001c-5.09999,0 -9.5,0.29999 -14.39999,0.79999c4.89999,-0.89999 9.3,-2.29999 14.39999,-0.79999z"/></g><g fill="none" stroke="#adbe96" stroke-width="0.2818"><path d="M210.5,317.70001c4.10001,0 8.10001,0 12.2,0c-4,0.29999 -8.09999,1.29999 -12.2,0z"/></g><g fill="none" stroke="#4b4a18" stroke-width="0.2818"><path d="M430.20001,321.70001c-0.90002,-7.40002 12.69998,3.79999 7.79999,-2.40002c6,-0.5 6.39999,3.20001 11.10001,1.60001c-4.80002,1.10001 -11.30002,2.80002 -15.5,-1.60001c-1.30002,5.60001 -4.5,0.30002 -7.80002,0.80002c2.90002,-1.20001 1.70001,-2.60001 4.40002,1.60001z"/></g><g fill="none" stroke="#a2b688" stroke-width="0.2818"><path d="M509.09998,318.5c4.90002,0.29999 12.70001,-1.10001 16.60004,0.79999c-3.70001,-1.19998 -13,-0.29999 -16.60004,-0.79999z"/></g><g fill="none" stroke="#a9bb91" stroke-width="0.2818"><path d="M157.2,319.29999c-6,0.40002 -13.3,0.80002 -20,0.80002c6,-0.39999 13.3,-0.80002 20,-0.80002z"/></g><g fill="none" stroke="#494618" stroke-width="0.2818"><path d="M280.39999,323.29999c-0.39999,-6.29999 11.20001,0.70001 14.39999,-4c2.90002,-0.69998 1.20001,2.10001 3.30002,2.40002c-1.5,0.09998 -2.60001,1 -2.20001,-1.60001c-4.10001,4.79999 -15.19998,-1.70001 -13.29999,4.79999c-2.70001,-0.19998 -5.60001,-1.39999 -6.70001,-3.19998c1.5,0.59998 2.60001,1.79999 4.5,1.59998z"/></g><g fill="none" stroke="#aebf98" stroke-width="0.2818"><path d="M69.5,321.70001c-6.3,0.39999 -14.1,0.5 -21.1,0.79999c6.4,-0.79999 14,-0.79999 21.1,-0.79999z"/></g><g fill="none" stroke="#484518" stroke-width="0.2818"><path d="M76.1,329.70001c-0.9,-1.70001 0.70001,-6.20001 3.3,-4.80002c-4.3,0.89999 -0.3,5.10001 -3.3,6.39999c-3,-0.5 -1.29999,-3.59998 -4.4,-4c-1,1.5 -4,0.60001 -5.5,0c4.60001,0 8.10001,-2.5 9.9,2.40002z"/></g><g fill="none" stroke="#484418" stroke-width="0.2818"><path d="M176,326.5c-0.89999,-1.20001 1.10001,-3.39999 2.2,-1.60001c-1.2,0.70001 -2.2,2 -2.2,3.20001c-2,-0.39999 -2.39999,-1.89999 -2.2,-3.20001c1.3,-0.29999 0.8,1.89999 2.2,1.60001z"/></g><g fill="none" stroke="#acbd95" stroke-width="0.2818"><path d="M-28.2,325.70001c-2.8,0.29999 -6.6,0.59998 -10,0.79999c2.9,-0.39999 6.5,-0.70001 10,-0.79999z"/></g><g fill="none" stroke="#849a62" stroke-width="0.2818"><path d="M-44.8,327.20001c-2.8,1.5 -2,4.29999 -2.2,6.39999c0,0.29999 -1,0.60001 -1.1,0.79999c0.5,-3 -1.1,-5.5 3.3,-7.19998z"/></g><g fill="none" stroke="#544c43" stroke-width="0.2818"><path d="M313.70001,333.60001c-1.5,-7 9.89999,1 0,0z"/></g><g fill="none" stroke="#554c43" stroke-width="0.2818"><path d="M384.70001,336c0,-7.10001 10.79999,1.10001 0,0z"/></g><g fill="none" stroke="#554b42" stroke-width="0.2818"><path d="M475.70001,337.60001c-5.30002,-2.10001 -2.20001,-6.60001 3.39999,-4.80002c4.39999,1.5 1.79999,6.90002 -3.39999,4.80002z"/></g><g fill="none" stroke="#564c42" stroke-width="0.2818"><path d="M359.20001,340.79999c-1.5,-7.69998 9.89999,0 0,0z"/></g><g fill="none" stroke="#564b41" stroke-width="0.2818"><path d="M103.1,346.89999c-4.4,-1.39999 -0.9,-5.5 3,-4.5c4.20001,1 1.50001,5.89999 -3,4.5z"/></g><g fill="none" stroke="#564c43" stroke-width="0.2818"><path d="M145,346.39999c-3.7,-0.79999 -2.2,-4.5 1.10001,-4c2.7,0.39999 2.5,4.70001 -1.10001,4z"/></g><g fill="none" stroke="#564a40" stroke-width="0.2818"><path d="M0.7,344c-5.7,8.29999 -13.3,-4.60001 0,0z"/></g><g fill="none" stroke="#544b43" stroke-width="0.2818"><path d="M213.5,348.10001c-3.5,-1.5 0.3,-5.39999 3.60001,-4.10001c2.89999,1.10001 0,5.70001 -3.60001,4.10001z"/></g><g fill="none" stroke="#574b3f" stroke-width="0.2818"><path d="M37.3,347.89999c-9.1,0.30002 0.3,-6.5 0,0z"/></g><g fill="none" stroke="#554a41" stroke-width="0.2818"><path d="M259,349.70001c-4.20001,-1.5 1.39999,-5.80002 3.60001,-4.90002c3.39999,1.30002 0.60001,6.5 -3.60001,4.90002z"/></g><g fill="none" stroke="#564c44" stroke-width="0.2818"><path d="M176,345.60001c1.60001,6.69998 -9.39999,-0.39999 0,0z"/></g><g fill="none" stroke="#564b40" stroke-width="0.2818"><path d="M447.20001,349.29999c-3.5,-1.79999 0.69998,-5.09998 4.09998,-3.69998c3.30002,1.29999 -0.59998,5.5 -4.09998,3.69998z"/></g><g fill="none" stroke="#544940" stroke-width="0.2818"><path d="M381.39999,349.5c0.39999,6.89999 -10.5,-1.29999 0,0z"/></g><g fill="none" stroke="#57493e" stroke-width="0.2818"><path d="M62.1,354c-3.2,-1.39999 -0.1,-4.79999 3,-3.70001c2.8,1 0.20001,5.20001 -3,3.70001z"/></g><g fill="none" stroke="#564c43" stroke-width="0.2818"><path d="M354.70001,353.5c-7.40002,0.39999 1,-6 0,0z"/></g><g fill="none" stroke="#554a40" stroke-width="0.2818"><path d="M234.10001,357.20001c-3.5,-1.40002 -0.90001,-6.80002 3,-5.30002c2.89999,1.10001 0.5,6.70001 -3,5.30002z"/></g><g fill="none" stroke="#554c43" stroke-width="0.2818"><path d="M95,356.70001c-9.9,0 1.5,-7.80002 0,0z"/></g><g fill="none" stroke="#554d44" stroke-width="0.2818"><path d="M405.5,358.39999c-4,-2.19998 0.5,-5.89999 4.70001,-4.10001c2.59998,1.10001 -0.60001,6.40002 -4.70001,4.10001z"/></g><g fill="none" stroke="#574b41" stroke-width="0.2818"><path d="M166.39999,362c-3.2,-1.39999 -0.09999,-4.79999 3,-3.70001c2.8,1 0.20001,5.10001 -3,3.70001z"/></g><g fill="none" stroke="#554c44" stroke-width="0.2818"><path d="M-27,359.79999c3.7,-0.5 6.4,2.30002 5.5,4.80002c-3.8,0.60001 -6.4,-2.30002 -5.5,-4.80002z"/></g><g fill="none" stroke="#554d45" stroke-width="0.2818"><path d="M266,364.60001c-8.20001,-1.30002 2,-7.10001 0,0z"/></g><g fill="none" stroke="#544a41" stroke-width="0.2818"><path d="M365.79999,371.79999c13.5,-0.29999 -0.29999,9.70001 0,0z"/></g><g fill="none" stroke="#564c42" stroke-width="0.2818"><path d="M84.2,377.10001c-3.7,-1.10001 -2.79999,-5.39999 1.9,-4.5c3.3,0.60001 1.9,5.60001 -1.9,4.5z"/></g><g fill="none" stroke="#a28a7a" stroke-width="0.2818"><path d="M436.79999,402c-12.09998,0.79999 -25.89999,0.79999 -38.79999,0.79999c12.20001,-0.89999 26,-0.79999 38.79999,-0.79999z"/></g><g fill="none" stroke="#a28a7a" stroke-width="0.2818"><path d="M271.5,402.79999c-12.5,0.90002 -26.70001,0.80002 -40,0.80002c12.5,-0.89999 26.70001,-0.80002 40,-0.80002z"/></g><g fill="none" stroke="#a48c7d" stroke-width="0.2818"><path d="M131.60001,403.60001c-22.60001,1.60001 -47.50001,0.79999 -71.00001,0.79999c22.70001,-1.60001 47.6,-0.79999 71.00001,-0.79999z"/></g><g fill="#4a6c1a" stroke="none" stroke-width="1"><path d="M349.39999,312.29999c24.80002,-1.19998 48,2.40002 73.30002,2.40002c2.89999,0.19998 7.39999,0.69998 11.09998,0.79999c24.10001,1 49.70001,1.79999 74.40002,3.20001c3.70001,0.5 12.89996,-0.40002 16.59998,0.79999c4.10004,2.10001 0.5,2.70001 0,4.79999c-3.20001,-3.89999 -0.70001,3.20001 -4.39996,2.40002c-2,-1.10001 -1.5,-4.10001 -4.40002,-4c-1.09998,4.19998 -3.29999,2.19998 -5.5,0c-1.20001,1.89999 -4.09998,3 -6.70001,3.19998c3,-5.10001 -6.59998,-0.29999 -10,-3.19998c-2.09998,3.29999 -3.39999,1.29999 -4.39999,-0.80002c-0.79999,1.80002 -3.39999,2.39999 -5.5,3.20001c-0.39999,-4.60001 -2.89999,-1 -4.39999,-0.89999c-1.39999,0.19998 -6.29999,-2.40002 -5.60001,1.69998c-1.29999,-1.69998 -3.60001,-2.89999 -4.39999,-4.79999c-0.89999,2.5 -2.5,5.79999 -5.5,1.60001c-3.10001,1 -8.10001,2.89999 -6.70001,-1.60001c-2.5,1.10001 -4.29999,3.19998 -7.79999,2.39999c0.29999,-2.10001 1.29999,-1.70001 -1.10001,-2.39999c-4.69998,1.5 -5.10001,-2.10001 -11.10001,-1.60001c4.80002,6.29999 -8.69998,-5 -7.79999,2.39999c-2.60001,-4.19998 -1.5,-2.79999 -4.39999,-1.60001c0.19998,3.20001 -4.80002,0.30002 -3.30002,-1.59998c-3.89999,5.39999 -10.59998,-1.40002 -14.39999,-0.80002c-3.79999,0.60001 -13.5,0.60001 -10,4c-3.10001,0.10001 -4.29999,-2.39999 -5.5,-4c-6.10001,4.80002 -19,-4.69998 -26.60001,1.60001c-2.09998,-1.20001 -4.29999,-2.79999 -6.69998,-4c-1.39999,4.89999 -5.39999,0.60001 -10,4c2.29999,-2.89999 -5,-2.39999 -7.80002,0c-0.29999,-1 0.70001,-2.79999 -1.09998,-3.20001c-2.80002,1 -9.60001,3.30002 -8.90002,0c-3.5,1.10001 -5,1.70001 -7.79999,0c-2,2.90002 -2.70001,1.30002 -5.5,2.40002c-0.39999,1.09998 -2,1.89999 -3.29999,2.39999c-0.80002,-1.89999 -6.60001,-3 -6.70001,0.79999c-2.79999,-4 -6.60001,-0.19998 -10,0c-2,-0.29999 -0.39999,-3.10001 -3.29999,-2.39999c-3.20001,4.70001 -14.70001,-2.29999 -14.40002,4c-1.89999,0.20001 -2.89999,-1 -4.39999,-1.60001c-1.19998,-4.39999 -3.19998,0.20001 -2.19998,2.39999c-2.20001,-0.59998 -3.20001,-2.59998 -5.5,-3.19998c-3,3.69998 -7.70001,0.19998 -12.20001,3.19998c-0.20001,-3.5 -7.20001,-0.09998 -11.10001,-2.39999c4,5.80002 -12.2,-3.39999 -6.69998,3.20001c-3.10001,0.10001 -4.30002,-2.39999 -5.50002,-4c-2.7,4.89999 -6.3,-0.5 -11.09999,3.19998c0.79999,-3.89999 -5.20001,0.40002 -7,-2.09998c-1.90001,-2.5 -10.60001,0.5 -5.20001,2.09998c-4.29999,-0.09998 -10.59999,-2.69998 -6.7,2.40002c-3.5,0.29999 -4,-2.80002 -5.5,-4c-1.2,7.39999 -4.2,-1.80002 -8.89999,3.19998c1.2,-5 -3.2,-0.60001 -6.7,-2.39999c1.39999,3.29999 -2.10001,1.29999 -3.3,1.60001c-1.10001,-1.80002 -3.10001,0.39999 -2.2,1.60001c-1.5,0.29999 -0.90001,-1.90002 -2.20001,-1.60001c-2,-1.60001 -2.5,2.79999 -4.39999,3.19998c-1.5,-5.19998 -3.89999,-2.69998 -7.8,0c-0.8,-5.19998 -3.5,-1.79999 -8.89999,-3.19998c-1.60001,1.5 -3.3,3.29999 -4.40001,4.79999c-1.39999,-1.5 -1.79999,-3.60001 -3.29999,-4.79999c-1,4.39999 -6.60001,4.10001 -4.40001,-0.80002c-3.59999,0.5 -1,3.80002 -3.3,4.80002c-1.39999,-1.5 -1.09999,-3.80002 -3.29999,-4.80002c-2.10001,3.10001 -4.8,3.40002 -5.5,0c-2.40001,0.80002 -3.40001,3 -3.3,4.80002c-3.40001,-6.70001 -13.2,5 -10,-4.80002c-5.5,2.90002 -3.3,4.20001 -7.8,0c-1.8,2.20001 -4.1,4.10001 -5.5,6.40002c-2.7,-0.80002 -1.3,-3.80002 -3.3,-4.80002c-2,3.5 -6.39999,2.20001 -6.7,-0.79999c-3,1.60001 -1.3,4.69998 -3.3,6.39999c-2.1,-1.89999 -4.1,-3.89999 -4.39999,-6.39999c-1.9,0.89999 -0.8,1.19998 -3,2.5c-2.20001,1.29999 -0.8,-2.30002 -1.4,-2.5c-2.5,-1.39999 -4.1,3.19998 -3.3,4.79999c-1.79999,-4.89999 -5.4,-2.39999 -10,-2.39999c-3.29999,0 -13.7,-2.39999 -11.1,1.60001c-3.6,0.39999 -6.3,-1 -8.9,-2.39999c-1,1.79999 -3.7,3.5 -3.3,0c-2.4,0.69998 -2.7,2.79999 -4.4,4c-2.6,-3.30002 -6.1,-1.70001 -8.9,0c-0.5,-3 -8.5,-0.30002 -11.9,-0.60001c-3.4,-0.30002 -9.9,3.5 -13.6,-1.80002c-3.9,3.5 -6,-0.29999 -10,4c1.6,-3.59998 -3.7,-0.39999 -3.3,-3.19998c-3.5,2 -5.7,4.19998 -6.7,0c-2.4,4.5 -5.5,0.5 -8.9,3.19998c0.9,-3.89999 -3.3,-0.89999 -4.4,0.80002c-3.3,-2.80002 -4.3,-1.80002 -6.6,-0.89999c-2.2,0.79999 -6.8,-2.90002 -3.4,2.39999c-2.7,-1.60001 -4.9,-3.20001 -7.8,-0.80002c0.1,-2.19998 -0.6,-5 2.2,-6.39999c2,-0.69998 4.5,-0.69998 6.7,-0.79999c3.4,-0.20001 7.2,-0.5 10,-0.80002c25.7,-1 50.8,-1.89999 76.6,-3.19998c7,-0.30002 14.79999,-0.39999 21.1,-0.80002c22.7,0 45.2,-1.59998 67.7,-1.59998c6.7,0 14,-0.40002 20,-0.80002c12.2,0 24.8,0.39999 36.60001,-0.79999c4.8,-0.5 9.3,-0.80002 14.39999,-0.80002c0.5,0 1.60001,0 2.2,0c4.10001,1.30002 8.20001,0.30002 12.20001,0c14.60001,0 27.69998,-2.39999 42.19998,-2.39999c4,0 7.80002,-0.29999 11.10001,-0.79999c24.30002,-1.39999 49.60001,-1.20001 73.5,-2.30002z"/></g><g fill="#9ab07f" stroke="none" stroke-width="1"><path d="M275.89999,314.5c-3.29999,0.5 -7.10001,0.79999 -11.10001,0.79999c3,-0.19998 7.5,-0.5 11.10001,-0.79999z"/></g><g fill="#a5b88c" stroke="none" stroke-width="1"><path d="M423.60001,314.5c3.89999,0 7.89999,0.39999 11.10001,0.79999c-3.70001,-0.09998 -8.20001,-0.5 -11.10001,-0.79999z"/></g><g fill="#825000" stroke="none" stroke-width="1"><path d="M340.29999,316.10001c1.80002,0.5 0.80002,2.19998 1.90002,3.10001c2.79999,-2.40002 10.09998,-2.90002 7.79999,0c4.60001,-3.40002 8.60001,0.79999 10,-4c2.39999,1.19998 4.60001,2.79999 6.70001,4c7.5,-6.30002 20.39999,3.19998 26.59998,-1.60001c1.10001,1.60001 2.30002,4.10001 5.5,4c-3.5,-3.5 6.20001,-3.39999 10,-4c3.80002,-0.60001 10.5,6.29999 14.40002,0.79999c-1.5,1.89999 3.5,4.80002 3.29999,1.60001c3.29999,-0.5 6.60001,4.79999 7.79999,-0.79999c4.10001,4.39999 10.70001,2.69998 15.5,1.59998c2.40002,0.80002 1.40002,0.30002 1.10001,2.40002c3.5,0.79999 5.30002,-1.40002 7.80002,-2.40002c-1.40002,4.5 3.69998,2.60001 6.69998,1.60001c2.89999,4.20001 4.5,0.80002 5.5,-1.60001c0.70001,2 3.10001,3.10001 4.39999,4.80002c-0.79999,-4.20001 4.10001,-1.60001 5.60001,-1.70001c1.5,-0.10001 4.10001,-3.69998 4.39999,0.89999c2,-0.79999 4.70001,-1.39999 5.5,-3.19998c1,2.10001 2.20001,4.10001 4.40002,0.79999c3.39996,2.89999 13,-1.89999 10,3.20001c2.70001,-0.20001 5.59998,-1.39999 6.70001,-3.20001c2.09998,2.20001 4.29999,4.20001 5.5,0c2.79999,-0.10001 2.29999,2.89999 4.39996,4c3.70001,0.80002 1.10004,-6.29999 4.40002,-2.39999c-3.29999,13.70001 3.20001,32.5 2.20001,46.10001c-1,13.60001 -2.10004,28.60001 -24.5,30.89999c-22.30002,2.29999 -43.90002,0.89999 -66.50003,0.89999c-12.89999,0 -26.69998,0 -38.79999,0.80002c-42.10001,0 -84.30002,0 -126.5,0c-13.30002,0 -27.5,-0.10001 -40,0.79999c-33.3,0 -66.60001,0 -99.90001,0c-23.5,0 -48.39999,-0.79999 -71,0.79999c-20.7,0 -50,-0.69998 -69.9,0c-19.9,0.70001 -41.6,-4.89999 -41,-20.69998c0.6,-15.80002 -3.8,-34.20001 2.1,-49.20001c0.1,-0.19998 1.1,-0.5 1.1,-0.79999c2.9,-2.39999 5.1,-0.80002 7.8,0.79999c-3.4,-5.29999 1.1,-1.5 3.4,-2.39999c2.3,-0.79999 3.3,-1.89999 6.6,0.89999c1,-1.69998 5.3,-4.69998 4.4,-0.79999c3.5,-2.70001 6.5,1.29999 8.9,-3.20001c1.1,4.20001 3.2,2 6.7,0c-0.5,2.80002 4.8,-0.39999 3.3,3.20001c4,-4.30002 6.1,-0.5 10,-4c3.7,5.39999 10.2,1.5 13.6,1.79999c3.4,0.30002 11.4,-2.39999 11.9,0.60001c2.8,-1.70001 6.3,-3.29999 8.9,0c1.7,-1.29999 2,-3.29999 4.4,-4c-0.4,3.5 2.2,1.79999 3.29999,0c2.70001,1.39999 5.3,2.79999 8.9,2.39999c-2.6,-4 7.8,-1.69998 11.1,-1.60001c1.5,0.60001 4.4,1.5 5.5,0c3.10001,0.40002 1.3,3.5 4.4,4c2.9,-1.39999 -1.1,-5.59998 3.3,-6.39999c0.6,0.10001 -0.8,3.80002 1.4,2.5c2.1,-1.29999 1,-1.5 3,-2.5c0.2,2.5 2.29999,4.5 4.39999,6.39999c2,-1.69998 0.3,-4.79999 3.3,-6.39999c0.3,3 4.7,4.30002 6.7,0.80002c2,1.09998 0.60001,4 3.3,4.79999c1.4,-2.39999 3.7,-4.29999 5.5,-6.39999c4.60001,4.19998 2.3,2.89999 7.8,0c-3.2,9.79999 6.59999,-1.80002 10,4.79999c-0.2,-1.79999 0.8,-4.10001 3.3,-4.79999c0.7,3.39999 3.39999,3.10001 5.5,0c2.2,1.10001 1.89999,3.29999 3.29999,4.79999c2.3,-1 -0.29999,-4.39999 3.3,-4.79999c-2.2,4.89999 3.40001,5.19998 4.40001,0.79999c1.5,1.20001 1.89999,3.30002 3.29999,4.80002c1,-1.60001 2.8,-3.30002 4.40001,-4.80002c5.39999,1.39999 8.09999,-2 8.89999,3.20001c3.90001,-2.70001 6.3,-5.20001 7.8,0c1.8,-0.39999 2.3,-4.80002 4.39999,-3.20001c-0.2,1.30002 0.20001,2.80002 2.20001,3.20001c0,-1.20001 0.89999,-2.60001 2.2,-3.20001c1.2,-0.29999 4.59999,1.70001 3.3,-1.60001c3.5,1.90002 7.89999,-2.59998 6.7,2.40002c4.7,-5.10001 7.7,4.19998 8.89999,-3.20001c1.40001,1.20001 2,4.29999 5.5,4c-3.89999,-5.10001 2.5,-2.5 6.7,-2.39999c-5.39999,-1.5 3.40001,-4.60001 5.20001,-2.10001c1.79999,2.5 7.7,-1.89999 7,2.10001c4.79999,-3.80002 8.39999,1.69998 11.09999,-3.20001c1.10001,1.60001 2.3,4.10001 5.50002,4c-5.50002,-6.60001 10.79999,2.60001 6.69998,-3.19998c3.89999,2.29999 10.89999,-1.10001 11.10001,2.39999c4.5,-3 9.10001,0.5 12.20001,-3.20001c2.19998,0.70001 3.19998,2.60001 5.5,3.20001c-1,-2.20001 1,-6.80002 2.19998,-2.39999c1.20001,1.89999 4.10001,3 6.70001,3.19998c-1.89999,-6.5 9.19998,-0.10001 13.29999,-4.79999c-0.39999,2.60001 0.70001,1.69998 2.20001,1.60001c3.39999,-0.20001 7.19998,-4 10,0c0.19998,-3.80002 6,-2.70001 6.69998,-0.80002c1.30002,-0.5 2.80002,-1.29999 3.30002,-2.39999c2.19998,0.60001 5.79999,1.20001 5.5,-1.60001c2.60001,2.70001 6.60001,-0.19998 8.89999,3.20001c0.79999,-3.89999 6.39999,-0.20001 7.79999,-4M313.70001,333.60001c9.89999,1 -1.5,-7 0,0M384.70001,336c10.79999,1.10001 0,-7.10001 0,0M479.10001,332.79999c-5.70001,-1.79999 -8.70001,2.80002 -3.39999,4.80002c5.29999,2.10001 7.79999,-3.30002 3.39999,-4.80002M359.20001,340.79999c9.89999,0 -1.5,-7.69998 0,0M106.1,342.39999c-3.9,-1 -7.4,3 -3,4.5c4.50001,1.39999 7.20001,-3.39999 3,-4.5M146.10001,342.39999c-3.3,-0.5 -4.8,3.20001 -1.10001,4c3.60001,0.70001 3.8,-3.60001 1.10001,-4M0.7,344c-13.3,-4.60001 -5.7,8.29999 0,0M217.10001,344c-3.3,-1.29999 -7.10001,2.5 -3.60001,4.10001c3.5,1.60001 6.39999,-3 3.60001,-4.10001M37.3,347.89999c0.3,-6.5 -9.1,0.30002 0,0M262.60001,344.79999c-2.20001,-0.89999 -7.70001,3.30002 -3.60001,4.90002c4.20001,1.59998 7,-3.5 3.60001,-4.90002M176,345.60001c-9.39999,-0.39999 1.60001,6.69998 0,0M451.29999,345.60001c-3.29999,-1.39999 -7.59998,1.89999 -4.09998,3.69998c3.5,1.80002 7.39999,-2.39999 4.09998,-3.69998M381.39999,349.5c-10.5,-1.29999 0.39999,6.89999 0,0M65.1,350.29999c-3.2,-1.09998 -6.2,2.30002 -3,3.70001c3.20001,1.39999 5.8,-2.70001 3,-3.70001M354.70001,353.5c1,-6 -7.40002,0.39999 0,0M237.10001,351.89999c-3.90001,-1.5 -6.5,3.89999 -3,5.30002c3.5,1.39999 5.89999,-4.20001 3,-5.30002M95,356.70001c1.5,-7.80002 -9.9,0 0,0M410.20001,354.29999c-4.10001,-1.79999 -8.70001,1.90002 -4.70001,4.10001c4,2.30002 7.29999,-3 4.70001,-4.10001M169.39999,358.29999c-3.09999,-1.09998 -6.2,2.20001 -3,3.70001c3.20001,1.39999 5.8,-2.70001 3,-3.70001M-21.5,364.60001c0.9,-2.39999 -1.8,-5.30002 -5.5,-4.80002c-0.9,2.5 1.7,5.40002 5.5,4.80002M266,364.60001c2,-7.10001 -8.20001,-1.30002 0,0M365.79999,371.79999c-0.29999,9.70001 13.5,-0.29999 0,0M84.2,377.10001c3.8,1.10001 5.10001,-3.89999 1.9,-4.5c-4.7,-1 -5.6,3.39999 -1.9,4.5z"/></g><g fill="#484618" stroke="none" stroke-width="1"><path d="M323.60001,316.10001c2.79999,1.69998 4.39999,1.10001 7.79999,0c-0.69998,3.29999 6.20001,1 8.89999,0c-1.5,3.89999 -7,0.10001 -7.79999,4c-2.29999,-3.39999 -6.29999,-0.5 -8.89999,-3.20001c0.39999,2.80002 -3.20001,2.20001 -5.5,1.60001c2.79999,-1 3.5,0.60001 5.5,-2.39999z"/></g><g fill="#aec098" stroke="none" stroke-width="1"><path d="M208.2,317.70001c-5.09999,0 -9.5,0.29999 -14.39999,0.79999c4.89999,-0.89999 9.3,-2.29999 14.39999,-0.79999z"/></g><g fill="#adbe96" stroke="none" stroke-width="1"><path d="M210.5,317.70001c4.10001,0 8.10001,0 12.2,0c-4,0.29999 -8.09999,1.29999 -12.2,0z"/></g><g fill="#4b4a18" stroke="none" stroke-width="1"><path d="M430.20001,321.70001c-0.90002,-7.40002 12.69998,3.79999 7.79999,-2.40002c6,-0.5 6.39999,3.20001 11.10001,1.60001c-4.80002,1.10001 -11.30002,2.80002 -15.5,-1.60001c-1.30002,5.60001 -4.5,0.30002 -7.80002,0.80002c2.90002,-1.20001 1.70001,-2.60001 4.40002,1.60001z"/></g><g fill="#a2b688" stroke="none" stroke-width="1"><path d="M509.09998,318.5c4.90002,0.29999 12.70001,-1.10001 16.60004,0.79999c-3.70001,-1.19998 -13,-0.29999 -16.60004,-0.79999z"/></g><g fill="#a9bb91" stroke="none" stroke-width="1"><path d="M157.2,319.29999c-6,0.40002 -13.3,0.80002 -20,0.80002c6,-0.39999 13.3,-0.80002 20,-0.80002z"/></g><g fill="#494618" stroke="none" stroke-width="1"><path d="M280.39999,323.29999c-0.39999,-6.29999 11.20001,0.70001 14.39999,-4c2.90002,-0.69998 1.20001,2.10001 3.30002,2.40002c-1.5,0.09998 -2.60001,1 -2.20001,-1.60001c-4.10001,4.79999 -15.19998,-1.70001 -13.29999,4.79999c-2.70001,-0.19998 -5.60001,-1.39999 -6.70001,-3.19998c1.5,0.59998 2.60001,1.79999 4.5,1.59998z"/></g><g fill="#aebf98" stroke="none" stroke-width="1"><path d="M69.5,321.70001c-6.3,0.39999 -14.1,0.5 -21.1,0.79999c6.4,-0.79999 14,-0.79999 21.1,-0.79999z"/></g><g fill="#484518" stroke="none" stroke-width="1"><path d="M76.1,329.70001c-0.9,-1.70001 0.70001,-6.20001 3.3,-4.80002c-4.3,0.89999 -0.3,5.10001 -3.3,6.39999c-3,-0.5 -1.29999,-3.59998 -4.4,-4c-1,1.5 -4,0.60001 -5.5,0c4.60001,0 8.10001,-2.5 9.9,2.40002z"/></g><g fill="#484418" stroke="none" stroke-width="1"><path d="M176,326.5c-0.89999,-1.20001 1.10001,-3.39999 2.2,-1.60001c-1.2,0.70001 -2.2,2 -2.2,3.20001c-2,-0.39999 -2.39999,-1.89999 -2.2,-3.20001c1.3,-0.29999 0.8,1.89999 2.2,1.60001z"/></g><g fill="#acbd95" stroke="none" stroke-width="1"><path d="M-28.2,325.70001c-2.8,0.29999 -6.6,0.59998 -10,0.79999c2.9,-0.39999 6.5,-0.70001 10,-0.79999z"/></g><g fill="#849a62" stroke="none" stroke-width="1"><path d="M-44.8,327.20001c-2.8,1.5 -2,4.29999 -2.2,6.39999c0,0.29999 -1,0.60001 -1.1,0.79999c0.5,-3 -1.1,-5.5 3.3,-7.19998z"/></g><g fill="#544c43" stroke="none" stroke-width="1"><path d="M313.70001,333.60001c-1.5,-7 9.89999,1 0,0z"/></g><g fill="#554c43" stroke="none" stroke-width="1"><path d="M384.70001,336c0,-7.10001 10.79999,1.10001 0,0z"/></g><g fill="#554b42" stroke="none" stroke-width="1"><path d="M475.70001,337.60001c-5.30002,-2.10001 -2.20001,-6.60001 3.39999,-4.80002c4.39999,1.5 1.79999,6.90002 -3.39999,4.80002z"/></g><g fill="#564c42" stroke="none" stroke-width="1"><path d="M359.20001,340.79999c-1.5,-7.69998 9.89999,0 0,0z"/></g><g fill="#564b41" stroke="none" stroke-width="1"><path d="M103.1,346.89999c-4.4,-1.39999 -0.9,-5.5 3,-4.5c4.20001,1 1.50001,5.89999 -3,4.5z"/></g><g fill="#564c43" stroke="none" stroke-width="1"><path d="M145,346.39999c-3.7,-0.79999 -2.2,-4.5 1.10001,-4c2.7,0.39999 2.5,4.70001 -1.10001,4z"/></g><g fill="#564a40" stroke="none" stroke-width="1"><path d="M0.7,344c-5.7,8.29999 -13.3,-4.60001 0,0z"/></g><g fill="#544b43" stroke="none" stroke-width="1"><path d="M213.5,348.10001c-3.5,-1.5 0.3,-5.39999 3.60001,-4.10001c2.89999,1.10001 0,5.70001 -3.60001,4.10001z"/></g><g fill="#574b3f" stroke="none" stroke-width="1"><path d="M37.3,347.89999c-9.1,0.30002 0.3,-6.5 0,0z"/></g><g fill="#554a41" stroke="none" stroke-width="1"><path d="M259,349.70001c-4.20001,-1.5 1.39999,-5.80002 3.60001,-4.90002c3.39999,1.30002 0.60001,6.5 -3.60001,4.90002z"/></g><g fill="#564c44" stroke="none" stroke-width="1"><path d="M176,345.60001c1.60001,6.69998 -9.39999,-0.39999 0,0z"/></g><g fill="#564b40" stroke="none" stroke-width="1"><path d="M447.20001,349.29999c-3.5,-1.79999 0.69998,-5.09998 4.09998,-3.69998c3.30002,1.29999 -0.59998,5.5 -4.09998,3.69998z"/></g><g fill="#544940" stroke="none" stroke-width="1"><path d="M381.39999,349.5c0.39999,6.89999 -10.5,-1.29999 0,0z"/></g><g fill="#57493e" stroke="none" stroke-width="1"><path d="M62.1,354c-3.2,-1.39999 -0.1,-4.79999 3,-3.70001c2.8,1 0.20001,5.20001 -3,3.70001z"/></g><g fill="#564c43" stroke="none" stroke-width="1"><path d="M354.70001,353.5c-7.40002,0.39999 1,-6 0,0z"/></g><g fill="#554a40" stroke="none" stroke-width="1"><path d="M234.10001,357.20001c-3.5,-1.40002 -0.90001,-6.80002 3,-5.30002c2.89999,1.10001 0.5,6.70001 -3,5.30002z"/></g><g fill="#554c43" stroke="none" stroke-width="1"><path d="M95,356.70001c-9.9,0 1.5,-7.80002 0,0z"/></g><g fill="#554d44" stroke="none" stroke-width="1"><path d="M405.5,358.39999c-4,-2.19998 0.5,-5.89999 4.70001,-4.10001c2.59998,1.10001 -0.60001,6.40002 -4.70001,4.10001z"/></g><g fill="#574b41" stroke="none" stroke-width="1"><path d="M166.39999,362c-3.2,-1.39999 -0.09999,-4.79999 3,-3.70001c2.8,1 0.20001,5.10001 -3,3.70001z"/></g><g fill="#554c44" stroke="none" stroke-width="1"><path d="M-27,359.79999c3.7,-0.5 6.4,2.30002 5.5,4.80002c-3.8,0.60001 -6.4,-2.30002 -5.5,-4.80002z"/></g><g fill="#554d45" stroke="none" stroke-width="1"><path d="M266,364.60001c-8.20001,-1.30002 2,-7.10001 0,0z"/></g><g fill="#544a41" stroke="none" stroke-width="1"><path d="M365.79999,371.79999c13.5,-0.29999 -0.29999,9.70001 0,0z"/></g><g fill="#564c42" stroke="none" stroke-width="1"><path d="M84.2,377.10001c-3.7,-1.10001 -2.79999,-5.39999 1.9,-4.5c3.3,0.60001 1.9,5.60001 -1.9,4.5z"/></g><g fill="#a28a7a" stroke="none" stroke-width="1"><path d="M436.79999,402c-12.09998,0.79999 -25.89999,0.79999 -38.79999,0.79999c12.20001,-0.89999 26,-0.79999 38.79999,-0.79999z"/></g><g fill="#a28a7a" stroke="none" stroke-width="1"><path d="M271.5,402.79999c-12.5,0.90002 -26.70001,0.80002 -40,0.80002c12.5,-0.89999 26.70001,-0.80002 40,-0.80002z"/></g><g fill="#a48c7d" stroke="none" stroke-width="1"><path d="M131.60001,403.60001c-22.60001,1.60001 -47.50001,0.79999 -71.00001,0.79999c22.70001,-1.60001 47.6,-0.79999 71.00001,-0.79999z"/></g></g><path d="M150.018,247.61198c-11.23,-13.12999 -23.36,-24.87999 -32.69,-39.19998c-9.34,-14.31 -22.63,-33.67 -19.54,-51.7c3.09,-18.03 14.41,-33.03999 24.6,-47.28999c10.18001,-14.25 21.06,-25.81 33.61,-38.28c12.55,-12.47 23.97,-23.48001 38.25999,-33.63001c14.28001,-10.14999 29.23001,-21.48001 47.25999,-24.63c18.03,-3.16 37.41,10.32999 51.72,19.60001c14.31,9.28 26.13,21.47 39.23001,32.66998c4.14999,4.15002 8.44,8.44 12.60998,12.61002c11.16,13.06 23.10001,24.94998 32.28003,39.19998c9.17999,14.26001 22.79999,33.63002 19.29999,51.48001c-3.5,17.85001 -14.39999,32.70001 -24.63,46.84001c-10.23001,14.13998 -21.09,25.93999 -33.56,38.32997c-12.48001,12.38 -23.85998,23.26001 -38.04999,33.42001c-14.19,10.16 -29.25,21.31 -47.07001,24.82001c-17.83002,3.50998 -37.04001,-10.04001 -51.3,-19.15003c-14.25,-9.10998 -26.39,-21.32999 -39.42,-32.47c-4.15001,-4.14999 -8.44,-8.43997 -12.61,-12.60999M268.16801,76.06199c-10.10001,-0.41998 -20.68002,5.58002 -29.75,8.92999c-9.07001,3.36002 -16.71001,8.61002 -25.29001,12.97c-8.58,4.36002 -15.33,9.41 -23.68001,14.58002c-8.34999,5.16998 -13.01999,10.42999 -21.23,17.03c-8.22,6.60001 -7.71001,18.57001 -3.8,27.55c3.92,8.99001 7.06,18.19 11.71001,26.55c4.64,8.36 8.47,16.98999 13.70999,24.53999c5.24001,7.56 9.43001,16.22 15.56,22.70001c6.14001,6.47997 11.03001,16.69997 20.73001,17.52998c9.69998,0.82999 20.98001,-5.56 29.82001,-8.86002c8.84,-3.29999 16.94998,-8.45998 25.37997,-12.86998c8.44,-4.41 15.44,-9.41 23.73001,-14.53c8.29001,-5.11999 13.01999,-10.58 21.23001,-17.03c8.19998,-6.44 7.64999,-19.02 3.64999,-27.82001c-4.01001,-8.79999 -7,-18.42999 -11.62,-26.64c-4.62,-8.20999 -8.86002,-16.85001 -13.87,-24.38c-5.02002,-7.53 -9.64002,-16.41 -15.56,-22.69998c-5.93002,-6.30002 -11.60001,-17.15002 -20.73001,-17.53z" fill="#ffffff" stroke="none" stroke-width="1"/></g></g></svg>