<svg xmlns="http://www.w3.org/2000/svg" viewBox="0 0 250 148" height="148" width="250">
    <g id="Group">
        <path d="M 131.71875 39.603409 C 131.759689 39.370209 131.707489 39.159721 131.5625 38.972282 C 129.513123 39.477509 127.638123 39.056854 125.9375 37.710014 C 125.729065 37.920509 125.729065 38.130669 125.9375 38.341156 C 127.421562 39.279007 129.035934 39.804741 130.78125 39.918976 C 130.590622 40.20015 130.486557 40.515709 130.46875 40.865677 C 130.364685 40.865677 130.260315 40.865677 130.15625 40.865677 C 129.514679 40.83474 128.993744 41.045227 128.59375 41.496803 C 125.186874 38.189987 121.124374 37.085518 116.40625 38.183372 C 114.195938 38.663345 112.425003 39.767822 111.09375 41.496803 C 110.348129 41.772285 109.723129 42.245628 109.21875 42.916847 C 111.381874 41.722115 113.673439 40.670029 116.09375 39.761192 C 119.459686 38.869095 122.689064 39.184654 125.78125 40.707893 C 126.856567 41.581375 127.689682 42.633148 128.28125 43.863541 C 128.240616 44.197731 128.084366 44.460594 127.8125 44.652451 C 123.039375 41.797531 118.195625 41.744843 113.28125 44.494667 C 112.531563 45.119484 111.906563 45.803314 111.40625 46.545845 C 110.139061 47.36158 110.243126 47.992722 111.71875 48.439232 C 112.195938 48.416199 112.508438 48.626671 112.65625 49.070358 C 113.608124 49.971931 114.754066 50.550362 116.09375 50.805969 C 119.514687 51.659897 122.952187 51.764969 126.40625 51.121536 C 127.248756 50.880119 128.029999 50.511864 128.75 50.017059 C 128.889999 50.619469 128.629684 50.987732 127.96875 51.121536 C 126.71875 51.437096 125.46875 51.752663 124.21875 52.068222 C 125.501564 52.219696 126.751564 52.06192 127.96875 51.594879 C 127.914368 52.172684 127.601868 52.751419 127.03125 53.33049 C 125.051247 54.234283 122.968117 54.65493 120.78125 54.592751 C 124.775314 55.810829 127.639999 54.496193 129.375 50.648193 C 129.630005 51.065674 129.99469 51.275856 130.46875 51.27932 C 130.616562 51.723015 130.929062 51.933479 131.40625 51.910454 C 133.850616 52.477203 136.350616 52.950562 138.90625 53.33049 C 137.951874 54.022842 136.910004 54.548882 135.78125 54.908318 C 136.891571 55.334328 138.037186 55.702599 139.21875 56.012794 C 138.681564 56.597221 138.056564 57.018181 137.34375 57.275055 C 136.783752 57.530357 136.158752 57.688133 135.46875 57.748405 C 132.031876 58.008743 128.594376 58.113831 125.15625 58.063965 C 120.469063 56.593742 115.833748 54.963226 111.25 53.172707 C 110.155937 53.178696 109.739372 53.704758 110 54.750534 C 111.660309 57.163979 113.795624 59.004982 116.40625 60.272926 C 117.42437 60.73584 118.466255 61.103798 119.53125 61.377403 C 122.205627 62.552559 125.018127 63.288773 127.96875 63.586349 C 128.072815 63.586349 128.177185 63.586349 128.28125 63.586349 C 128.502823 63.871628 128.815323 63.976715 129.21875 63.901909 C 129.670929 66.187874 129.931244 68.501907 130 70.844353 C 130.282806 72.212959 130.751556 73.47522 131.40625 74.631126 C 131.987183 76.374626 133.184998 77.42672 135 77.786781 C 135.479065 77.70063 135.947815 77.595543 136.40625 77.471214 C 136.530319 77.79467 136.738434 77.847366 137.03125 77.628998 C 138.441879 76.653587 139.795929 75.601486 141.09375 74.473351 C 141.494995 74.2575 141.85968 74.310204 142.1875 74.631126 C 142.391571 75.993111 142.756256 77.308067 143.28125 78.575691 C 142.561874 79.199562 141.936874 79.935776 141.40625 80.784645 C 142.107193 80.683975 142.784378 80.736687 143.4375 80.942429 C 143.91156 82.703278 144.015945 84.491592 143.75 86.30703 C 142.378113 86.857391 140.971863 87.38311 139.53125 87.884857 C 139.824371 88.217148 140.189072 88.427628 140.625 88.515991 C 141.697189 88.10228 142.790939 87.786728 143.90625 87.56929 C 145.058441 94.330902 143.652191 100.432037 139.6875 105.87207 C 138.687195 106.987915 137.593445 107.987305 136.40625 108.869934 C 128.570007 112.272667 120.91375 111.904411 113.4375 107.765457 C 106.46093 110.185844 100.52343 108.608032 95.625 103.031982 C 95.364685 102.505936 95.104065 101.980202 94.84375 101.454147 C 95.677185 101.243683 96.510315 101.033508 97.34375 100.823029 C 95.542183 99.016418 93.458748 97.596375 91.09375 96.562904 C 87.902809 93.533157 88.215309 92.954742 92.03125 94.827293 C 93.667496 96.495056 95.646873 97.283966 97.96875 97.194031 C 98.142502 97.073166 98.246567 96.91539 98.28125 96.720673 C 98.901253 96.757607 99.421875 96.547119 99.84375 96.089554 C 101.83812 97.045074 103.71312 96.834923 105.46875 95.45842 C 105.964058 95.611465 106.432808 95.401306 106.875 94.827293 C 107.087814 93.347931 107.817192 92.190735 109.0625 91.356079 C 109.559685 89.83696 110.028435 88.311829 110.46875 86.780396 C 110.232811 85.789497 110.180626 84.790115 110.3125 83.782516 C 107.344681 80.670105 107.917496 78.40844 112.03125 76.997864 C 114.653748 76.662422 117.153748 75.926208 119.53125 74.78891 C 121.131561 73.647202 122.173431 72.12207 122.65625 70.213219 C 121.796875 69.010597 120.859375 67.853424 119.84375 66.742004 C 118.832184 67.220085 117.894684 67.114693 117.03125 66.426437 C 115.644684 67.851845 114.603127 67.641678 113.90625 65.795303 C 113.548126 65.998863 113.235626 66.261711 112.96875 66.584221 C 112.65625 66.794701 112.34375 66.794701 112.03125 66.584221 C 110.796249 65.166061 109.910934 63.535538 109.375 61.692963 C 107.46125 54.958801 107.14875 48.12178 108.4375 41.181236 C 109.084999 39.429855 110.074692 37.904724 111.40625 36.605545 C 117.256248 31.623726 123.714684 30.676895 130.78125 33.765465 C 132.136246 34.6036 133.281876 35.65538 134.21875 36.921112 C 133.756882 38.176422 132.923447 39.070419 131.71875 39.603409 Z" stroke="none" fill-rule="evenodd" fill="#8f58ac" id="Path"></path>
    </g>
    <g id="g1">
        <path d="M 161.71875 42.12793 C 162.292801 42.171799 162.396866 42.382278 162.03125 42.759056 C 161.781891 42.614845 161.677826 42.404373 161.71875 42.12793 Z" opacity="0.094" stroke="none" fill-rule="evenodd" fill="#d897fb" id="path1"></path>
    </g>
    <g id="g2">
        <path d="M 105.46875 45.599152 C 105.885315 45.809624 105.885315 45.809624 105.46875 45.599152 Z" opacity="0.004" stroke="none" fill-rule="evenodd" fill="#000000" id="path2"></path>
    </g>
    <g id="g3">
        <path d="M 172.03125 46.861404 C 172.03125 46.650932 172.03125 46.44075 172.03125 46.230278 C 172.308121 45.827614 172.620621 45.827614 172.96875 46.230278 C 172.810944 46.67807 172.498444 46.888237 172.03125 46.861404 Z" opacity="0.004" stroke="none" fill-rule="evenodd" fill="#d613e8" id="path3"></path>
    </g>
    <g id="g4">
        <path d="M 172.03125 46.230278 C 172.03125 46.44075 172.03125 46.650932 172.03125 46.861404 C 171.68718 47.207901 171.270615 47.260612 170.78125 47.019188 C 171.084686 46.551834 171.501251 46.288658 172.03125 46.230278 Z" opacity="0.008" stroke="none" fill-rule="evenodd" fill="#7b7887" id="path4"></path>
    </g>
    <g id="g5">
        <path d="M 170.15625 47.492531 C 170.572815 47.703018 170.572815 47.703018 170.15625 47.492531 Z" opacity="0.004" stroke="none" fill-rule="evenodd" fill="#00000c" id="path5"></path>
    </g>
    <g id="g6">
        <path d="M 167.65625 56.328354 C 168.230301 56.372223 168.334366 56.582703 167.96875 56.959488 C 167.719391 56.815269 167.615326 56.604797 167.65625 56.328354 Z" opacity="0.004" stroke="none" fill-rule="evenodd" fill="#0e0ca0" id="path6"></path>
    </g>
    <g id="g7">
        <path d="M 153.59375 73.053307 C 153.59375 73.263786 153.489685 73.368874 153.28125 73.368874 C 149.119064 72.870277 145.837814 70.871811 143.4375 67.373138 C 143.229065 66.952484 143.020935 66.531525 142.8125 66.110878 C 142.708435 61.79805 142.604065 57.485535 142.5 53.172707 C 141.05687 54.925034 139.23407 55.503471 137.03125 54.908318 C 138.258438 54.525848 139.508438 54.210281 140.78125 53.961617 C 141.614685 53.54097 142.239685 52.909843 142.65625 52.068222 C 140.928741 52.163841 139.209991 52.427025 137.5 52.857147 C 137.135315 52.75206 136.770935 52.646667 136.40625 52.54158 C 138.632187 52.24968 140.819687 51.776337 142.96875 51.121536 C 143.630005 50.752007 143.838135 50.278656 143.59375 49.701485 C 142.339371 50.756744 140.880936 51.335175 139.21875 51.437096 C 136.161255 51.765923 133.192505 51.39798 130.3125 50.332626 C 130.15625 50.385323 130 50.437706 129.84375 50.49041 C 130.119064 50.713829 130.327194 50.977005 130.46875 51.27932 C 129.99469 51.275856 129.630005 51.065674 129.375 50.648193 C 127.639999 54.496193 124.775314 55.810829 120.78125 54.592751 C 122.968124 54.65493 125.051254 54.234283 127.03125 53.33049 C 127.601875 52.751419 127.914375 52.172684 127.96875 51.594879 C 126.751564 52.06192 125.501564 52.219696 124.21875 52.068222 C 125.46875 51.752663 126.71875 51.437096 127.96875 51.121536 C 128.629684 50.987732 128.889999 50.619469 128.75 50.017059 C 128.029999 50.511864 127.248756 50.880119 126.40625 51.121536 C 122.952187 51.764969 119.514687 51.659897 116.09375 50.805969 C 114.754066 50.550362 113.608124 49.971931 112.65625 49.070358 C 113.489685 49.385925 114.322815 49.701485 115.15625 50.017059 C 115.638123 50.269821 116.158752 50.374908 116.71875 50.332626 C 120.610313 51.735306 124.464378 51.57753 128.28125 49.859268 C 129.378128 49.2575 129.742493 48.363503 129.375 47.176964 C 127.982185 45.468819 126.263435 44.732285 124.21875 44.96801 C 123.825943 44.61364 123.93 44.403465 124.53125 44.336884 C 126.476563 44.346359 128.090942 45.082573 129.375 46.545845 C 129.365936 42.535957 127.439064 39.95874 123.59375 38.814499 C 119.005623 37.920822 114.839058 38.814819 111.09375 41.496803 C 112.425003 39.767822 114.195938 38.663345 116.40625 38.183372 C 121.124374 37.085518 125.186874 38.189987 128.59375 41.496803 C 129.151886 42.713303 129.620636 43.975555 130 45.283585 C 130.326569 45.008095 130.586868 44.692528 130.78125 44.336884 C 131.40625 44.126411 132.03125 43.916237 132.65625 43.705757 C 132.966248 43.651482 133.174377 43.756874 133.28125 44.021324 C 131.655624 44.187309 130.614059 44.923523 130.15625 46.230278 C 131.8125 44.936768 133.6875 44.410736 135.78125 44.652451 C 135.068436 44.917213 134.339066 45.23278 133.59375 45.599152 C 133.303436 45.97435 133.199371 46.394997 133.28125 46.861404 C 132.98938 46.524391 132.884995 46.103737 132.96875 45.599152 C 131.894684 45.79921 130.904999 46.219856 130 46.861404 C 130.31282 47.712807 130.15657 48.501717 129.53125 49.228142 C 131.268753 50.197876 133.143753 50.723923 135.15625 50.805969 C 137.778748 51.22094 140.278748 50.905373 142.65625 49.859268 C 144.395309 48.458168 144.291245 47.248291 142.34375 46.230278 C 143.185944 46.366913 143.863129 46.78756 144.375 47.492531 C 144.40126 44.243805 142.890945 41.98214 139.84375 40.707893 C 137.567184 40.261673 135.27562 40.156601 132.96875 40.392319 C 132.059998 40.609741 131.226563 40.977692 130.46875 41.496803 C 130.219376 41.352585 130.115311 41.142105 130.15625 40.865677 C 130.260315 40.865677 130.364685 40.865677 130.46875 40.865677 C 133.863754 39.37558 137.301254 39.217796 140.78125 40.392319 C 134.590942 31.997345 126.465942 29.262383 116.40625 32.187637 C 109.8125 35.24514 106.583435 40.451965 106.71875 47.808105 C 106.96563 54.654297 107.955002 61.38623 109.6875 68.004265 C 110.003433 68.268394 110.368126 68.373474 110.78125 68.319832 C 110.229683 68.623085 109.604683 68.728485 108.90625 68.635391 C 107.240936 61.85643 106.303436 54.966698 106.09375 47.965889 C 105.557182 43.660957 106.599068 39.821793 109.21875 36.447762 C 108.390625 35.453415 107.504997 34.506721 106.5625 33.607681 C 105.240005 31.955063 104.979691 30.166977 105.78125 28.243065 C 106.27375 27.587616 106.89875 27.114258 107.65625 26.823036 C 109.380943 26.507683 111.047813 26.665474 112.65625 27.296379 C 113.457817 27.328064 114.291252 27.17028 115.15625 26.823036 C 115.918755 19.649918 119.356255 18.072098 125.46875 22.089546 C 126.34594 23.604996 127.43969 24.919853 128.75 26.034111 C 129.810928 25.327904 130.904678 24.696777 132.03125 24.140732 C 134.930634 24.61763 136.128754 26.405853 135.625 29.505333 C 134.987198 30.584213 134.518448 31.741425 134.21875 32.97654 C 137.366882 34.945976 139.815002 37.575592 141.5625 40.865677 C 143.782822 42.510078 144.928757 44.719032 145 47.492531 C 143.865005 50.269821 143.292191 53.162613 143.28125 56.17057 C 143.234375 59.241341 143.390625 62.449379 143.75 65.795303 C 145.975311 69.63195 149.256561 72.051071 153.59375 73.053307 Z" opacity="0.827" stroke="none" fill-rule="evenodd" fill="#181418" id="path7"></path>
    </g>
    <g id="g8">
        <path d="M 137.34375 57.275055 C 138.598129 57.222664 139.848129 57.275368 141.09375 57.432838 C 142.264999 59.638 141.744064 61.268204 139.53125 62.324097 C 139.947815 61.79805 140.364685 61.272316 140.78125 60.746269 C 141.19313 59.77906 141.19313 58.779968 140.78125 57.748405 C 137.079681 57.911865 133.434067 58.279816 129.84375 58.852875 C 128.065933 58.842781 126.295311 58.737389 124.53125 58.537308 C 120.199692 56.991676 115.876564 55.413849 111.5625 53.803833 C 111.197815 53.90892 110.833435 54.014313 110.46875 54.1194 C 110.980629 55.004242 111.553444 55.845863 112.1875 56.643929 C 112.640938 57.263687 113.213753 57.684341 113.90625 57.906181 C 114.01313 58.170631 114.221252 58.276024 114.53125 58.221748 C 116.092819 59.431618 117.759369 60.483398 119.53125 61.377403 C 118.466255 61.103798 117.424377 60.73584 116.40625 60.272926 C 113.795624 59.004982 111.660309 57.163979 110 54.750534 C 109.739372 53.704758 110.155937 53.178696 111.25 53.172707 C 115.833748 54.963226 120.469063 56.593742 125.15625 58.063965 C 128.594376 58.113831 132.031876 58.008743 135.46875 57.748405 C 136.158752 57.688133 136.783752 57.530357 137.34375 57.275055 Z" opacity="0.969" stroke="none" fill-rule="evenodd" fill="#20161b" id="path8"></path>
    </g>
    <g id="g9">
        <path d="M 139.21875 60.115143 C 138.401566 60.364754 137.568115 60.574921 136.71875 60.746269 C 128.885315 61.388771 121.385315 60.126503 114.21875 56.959488 C 113.71875 56.59848 113.197815 56.230217 112.65625 55.855011 C 112.8125 55.802315 112.96875 55.749924 113.125 55.697227 C 120.162811 59.100594 127.610626 60.625717 135.46875 60.272926 C 136.519058 60.166565 137.560623 60.008797 138.59375 59.799576 C 138.87999 59.813141 139.08844 59.918221 139.21875 60.115143 Z" opacity="0.916" stroke="none" fill-rule="evenodd" fill="#231a1a" id="path9"></path>
    </g>
    <g id="g10">
        <path d="M 140.78125 60.746269 C 140.861252 60.022995 140.757187 59.339172 140.46875 58.695091 C 136.930634 58.722229 133.389069 58.774925 129.84375 58.852875 C 133.434067 58.279816 137.079681 57.911865 140.78125 57.748405 C 141.193115 58.779968 141.193115 59.77906 140.78125 60.746269 Z" stroke="none" fill-rule="evenodd" fill="#a44e3c" id="path10"></path>
    </g>
    <g id="g11">
        <path d="M 124.53125 58.537308 C 124.202499 58.490295 123.889999 58.542679 123.59375 58.695091 C 128.985306 59.963341 134.401871 60.121124 139.84375 59.168434 C 139.910934 59.698288 139.702499 60.013847 139.21875 60.115143 C 139.08844 59.918221 138.87999 59.813141 138.59375 59.799576 C 137.560623 60.008797 136.519058 60.166565 135.46875 60.272926 C 127.610626 60.625717 120.162811 59.100594 113.125 55.697227 C 112.96875 55.749924 112.8125 55.802315 112.65625 55.855011 C 113.197815 56.230217 113.71875 56.59848 114.21875 56.959488 C 113.987808 56.918152 113.779373 56.970856 113.59375 57.117271 C 113.828751 57.329025 113.933121 57.591873 113.90625 57.906181 C 113.213745 57.684341 112.64093 57.263687 112.1875 56.643929 C 111.553436 55.845863 110.980621 55.004242 110.46875 54.1194 C 110.833435 54.014313 111.197815 53.90892 111.5625 53.803833 C 115.876556 55.413849 120.199692 56.991676 124.53125 58.537308 Z" stroke="none" fill-rule="evenodd" fill="#c1664f" id="path11"></path>
    </g>
    <g id="g12">
        <path d="M 129.84375 55.697227 C 130.923752 56.024155 131.028122 56.550209 130.15625 57.275055 C 129.554993 56.812752 129.450943 56.28669 129.84375 55.697227 Z" stroke="none" fill-rule="evenodd" fill="#19121d" id="path12"></path>
    </g>
    <g id="g13">
        <path d="M 131.71875 55.381668 C 132.761887 55.600342 132.918137 56.126389 132.1875 56.959488 C 131.790939 56.516121 131.634689 55.990395 131.71875 55.381668 Z" stroke="none" fill-rule="evenodd" fill="#070409" id="path13"></path>
    </g>
    <g id="g14">
        <path d="M 130.46875 51.27932 C 131.071564 51.194435 131.592194 51.352219 132.03125 51.752663 C 131.845627 51.899078 131.637192 51.951782 131.40625 51.910454 C 130.929062 51.933479 130.616562 51.723015 130.46875 51.27932 Z" opacity="0.969" stroke="none" fill-rule="evenodd" fill="#2c1a34" id="path14"></path>
    </g>
    <g id="g15">
        <path d="M 118.28125 47.808105 C 120.345001 50.493874 122.636871 50.704346 125.15625 48.439232 C 125.950623 48.793915 126.783752 49.057114 127.65625 49.228142 C 126.559372 49.877258 125.413437 50.402992 124.21875 50.805969 C 121.712502 50.823013 119.212502 50.665237 116.71875 50.332626 C 116.158752 50.374908 115.638123 50.269821 115.15625 50.017059 C 115.190933 49.822357 115.294998 49.664574 115.46875 49.543701 C 114.663757 49.296944 114.038757 48.823601 113.59375 48.123672 C 115.142502 47.80999 116.705002 47.70491 118.28125 47.808105 Z" stroke="none" fill-rule="evenodd" fill="#fbdcf6" id="path15"></path>
    </g>
    <g id="g16">
        <path d="M 142.34375 46.230278 C 144.291245 47.248291 144.395309 48.458168 142.65625 49.859268 C 140.278748 50.905373 137.778748 51.22094 135.15625 50.805969 C 133.143753 50.723923 131.268753 50.197876 129.53125 49.228142 C 130.15657 48.501717 130.31282 47.712807 130 46.861404 C 130.904999 46.219856 131.894684 45.79921 132.96875 45.599152 C 132.884995 46.103737 132.98938 46.524391 133.28125 46.861404 C 133.28125 47.071884 133.28125 47.282066 133.28125 47.492531 C 130.436249 48.131241 130.436249 48.920143 133.28125 49.859268 C 134.361252 49.916077 135.402817 50.126556 136.40625 50.49041 C 138.513443 50.636192 140.492493 50.162849 142.34375 49.070358 C 141.812195 48.400101 141.187195 48.189613 140.46875 48.439232 C 140.683121 47.244186 140.370621 46.244804 139.53125 45.441368 C 140.449371 45.660995 141.386871 45.924179 142.34375 46.230278 Z" stroke="none" fill-rule="evenodd" fill="#e4b8ea" id="path16"></path>
    </g>
    <g id="g17">
        <path d="M 133.28125 47.492531 C 134.701874 49.603035 136.681259 50.391945 139.21875 49.859268 C 139.885941 49.58284 140.302811 49.109489 140.46875 48.439232 C 141.187195 48.189613 141.812195 48.400101 142.34375 49.070358 C 140.492493 50.162849 138.513443 50.636192 136.40625 50.49041 C 135.402817 50.126556 134.361252 49.916077 133.28125 49.859268 C 130.436249 48.920143 130.436249 48.131241 133.28125 47.492531 Z" stroke="none" fill-rule="evenodd" fill="#f9def5" id="path17"></path>
    </g>
    <g id="g18">
        <path d="M 118.28125 47.808105 C 116.704994 47.70491 115.142494 47.80999 113.59375 48.123672 C 114.03875 48.823601 114.66375 49.296944 115.46875 49.543701 C 115.294998 49.664574 115.190933 49.822357 115.15625 50.017059 C 114.322815 49.701485 113.489685 49.385925 112.65625 49.070358 C 112.508438 48.626671 112.195938 48.416199 111.71875 48.439232 C 111.172501 48.032471 111.068436 47.559128 111.40625 47.019188 C 113.25 45.877792 115.229065 45.088882 117.34375 44.652451 C 117.552185 44.757538 117.760315 44.862938 117.96875 44.96801 C 117.613121 45.956047 117.717506 46.902748 118.28125 47.808105 Z" stroke="none" fill-rule="evenodd" fill="#ecbff2" id="path18"></path>
    </g>
    <g id="g19">
        <path d="M 124.21875 44.96801 C 126.263435 44.732285 127.982185 45.468819 129.375 47.176964 C 129.742493 48.363503 129.378128 49.2575 128.28125 49.859268 C 124.464378 51.57753 120.610313 51.735306 116.71875 50.332626 C 119.212502 50.665237 121.712502 50.823013 124.21875 50.805969 C 125.413437 50.402992 126.559372 49.877258 127.65625 49.228142 C 126.783752 49.057114 125.950623 48.793915 125.15625 48.439232 C 125.207504 47.591309 125.155319 46.749695 125 45.914719 C 124.882187 45.459663 124.62188 45.144096 124.21875 44.96801 Z" stroke="none" fill-rule="evenodd" fill="#e7b9ef" id="path19"></path>
    </g>
    <g id="g20">
        <path d="M 135.78125 44.652451 C 137.139374 44.60006 138.493439 44.652771 139.84375 44.810226 C 140.822815 45.081619 141.65625 45.554962 142.34375 46.230278 C 141.386871 45.924179 140.449371 45.660995 139.53125 45.441368 C 140.370621 46.244804 140.683121 47.244186 140.46875 48.439232 C 140.302811 49.109489 139.885941 49.58284 139.21875 49.859268 C 136.681244 50.391945 134.701874 49.603035 133.28125 47.492531 C 133.28125 47.282066 133.28125 47.071884 133.28125 46.861404 C 133.199371 46.394997 133.303436 45.97435 133.59375 45.599152 C 134.339066 45.23278 135.068436 44.917213 135.78125 44.652451 Z" opacity="0.996" stroke="none" fill-rule="evenodd" fill="#0c0a0c" id="path20"></path>
    </g>
    <g id="g21">
        <path d="M 124.53125 44.336884 C 123.929993 44.403465 123.825943 44.61364 124.21875 44.96801 C 124.62188 45.144096 124.882179 45.459663 125 45.914719 C 125.155312 46.749695 125.207497 47.591309 125.15625 48.439232 C 122.636871 50.704346 120.345001 50.493874 118.28125 47.808105 C 117.717506 46.902748 117.613121 45.956047 117.96875 44.96801 C 117.760315 44.862938 117.552185 44.757538 117.34375 44.652451 C 115.229065 45.088882 113.25 45.877792 111.40625 47.019188 C 111.068436 47.559128 111.172501 48.032471 111.71875 48.439232 C 110.243126 47.992722 110.139061 47.36158 111.40625 46.545845 C 115.528122 44.177216 119.903122 43.440681 124.53125 44.336884 Z" opacity="0.995" stroke="none" fill-rule="evenodd" fill="#0c0a0b" id="path21"></path>
    </g>
    <g id="g22">
        <path d="M 142.34375 46.230278 C 141.65625 45.554962 140.822815 45.081619 139.84375 44.810226 C 138.493439 44.652771 137.139374 44.60006 135.78125 44.652451 C 133.6875 44.410736 131.8125 44.936768 130.15625 46.230278 C 130.614059 44.923523 131.655624 44.187309 133.28125 44.021324 C 134.788757 43.866058 136.246872 43.655586 137.65625 43.390198 C 138.946243 43.545448 140.196243 43.861015 141.40625 44.336884 C 141.614685 44.231796 141.822815 44.126411 142.03125 44.021324 C 140.170929 41.516991 137.670929 40.517609 134.53125 41.02346 C 132.670319 41.275902 131.315933 42.222595 130.46875 43.863541 C 130.490631 44.10495 130.594696 44.262733 130.78125 44.336884 C 130.586868 44.692528 130.326569 45.008095 130 45.283585 C 129.620621 43.975555 129.151871 42.713303 128.59375 41.496803 C 128.993744 41.045227 129.514679 40.83474 130.15625 40.865677 C 130.115311 41.142105 130.219376 41.352585 130.46875 41.496803 C 131.226563 40.977692 132.059998 40.609741 132.96875 40.392319 C 135.27562 40.156601 137.567184 40.261673 139.84375 40.707893 C 142.890945 41.98214 144.40126 44.243805 144.375 47.492531 C 143.863129 46.78756 143.185944 46.366913 142.34375 46.230278 Z" stroke="none" fill-rule="evenodd" fill="#7c38a1" id="path22"></path>
    </g>
    <g id="g23">
        <path d="M 124.53125 44.336884 C 119.903122 43.440681 115.528122 44.177216 111.40625 46.545845 C 111.90657 45.803314 112.53157 45.119484 113.28125 44.494667 C 118.195633 41.744843 123.039383 41.797531 127.8125 44.652451 C 128.084381 44.460594 128.240631 44.197731 128.28125 43.863541 C 127.689682 42.633148 126.856567 41.581375 125.78125 40.707893 C 122.689064 39.184654 119.459686 38.869095 116.09375 39.761192 C 113.673439 40.670029 111.381874 41.722115 109.21875 42.916847 C 109.723129 42.245628 110.348129 41.772285 111.09375 41.496803 C 114.839058 38.814819 119.005623 37.920822 123.59375 38.814499 C 127.439056 39.95874 129.365936 42.535957 129.375 46.545845 C 128.090942 45.082573 126.476563 44.346359 124.53125 44.336884 Z" stroke="none" fill-rule="evenodd" fill="#7a379e" id="path23"></path>
    </g>
    <g id="g24">
        <path d="M 137.65625 43.390198 C 137.092499 43.181297 136.467499 43.07621 135.78125 43.074631 C 134.65094 43.04245 133.609375 43.252922 132.65625 43.705757 C 132.03125 43.916237 131.40625 44.126411 130.78125 44.336884 C 130.594696 44.262733 130.490631 44.10495 130.46875 43.863541 C 131.315933 42.222595 132.670319 41.275902 134.53125 41.02346 C 137.670929 40.517609 140.170929 41.516991 142.03125 44.021324 C 141.822815 44.126411 141.614685 44.231796 141.40625 44.336884 C 140.196243 43.861015 138.946243 43.545448 137.65625 43.390198 Z" stroke="none" fill-rule="evenodd" fill="#905aae" id="path24"></path>
    </g>
    <g id="g25">
        <path d="M 137.65625 43.390198 C 136.246872 43.655586 134.788757 43.866058 133.28125 44.021324 C 133.174377 43.756874 132.966248 43.651482 132.65625 43.705757 C 133.609375 43.252922 134.65094 43.04245 135.78125 43.074631 C 136.467499 43.07621 137.092499 43.181297 137.65625 43.390198 Z" opacity="0.996" stroke="none" fill-rule="evenodd" fill="#3c2148" id="path25"></path>
    </g>
    <g id="g26">
        <path d="M 115.78125 27.611938 C 115.517815 28.139977 115.10125 28.508148 114.53125 28.716415 C 113.382187 28.859215 112.236252 28.80661 111.09375 28.558632 C 108.190315 28.490074 107.096565 29.857498 107.8125 32.66098 C 108.442497 33.350174 109.11969 33.9813 109.84375 34.554375 C 111.650932 33.231834 113.629997 32.285133 115.78125 31.714287 C 113.735626 32.930473 111.756561 34.298134 109.84375 35.816628 C 108.70031 34.924522 107.710625 33.872749 106.875 32.66098 C 105.086563 29.38269 106.024063 27.699707 109.6875 27.611938 C 111.729057 27.993797 113.760307 27.993797 115.78125 27.611938 Z" stroke="none" fill-rule="evenodd" fill="#ed3dad" id="path26"></path>
    </g>
    <g id="g27">
        <path d="M 130.15625 26.349678 C 131.628754 24.673714 133.139069 24.673714 134.6875 26.349678 C 135.131866 27.148087 135.235931 27.989578 135 28.874207 C 134.243118 30.138 133.722183 31.50544 133.4375 32.97654 C 127.819061 30.174927 122.037811 29.754181 116.09375 31.714287 C 116.550308 30.869705 117.279373 30.396362 118.28125 30.294243 C 124.614067 30.606438 126.228752 27.924141 123.125 22.247337 C 119.035942 20.686325 116.952492 22.158943 116.875 26.665253 C 116.665314 26.902679 116.404999 27.007889 116.09375 26.980812 C 116.299683 20.701347 119.112183 19.176132 124.53125 22.405121 C 125.528748 23.889664 126.674377 25.257095 127.96875 26.507469 C 128.714066 26.683052 129.443115 26.63044 130.15625 26.349678 Z" stroke="none" fill-rule="evenodd" fill="#eb3cab" id="path27"></path>
    </g>
    <g id="g28">
        <path d="M 130.15625 26.349678 C 130.776245 26.386528 131.296875 26.176155 131.71875 25.718544 C 131.901871 25.784599 132.058121 25.889771 132.1875 26.034111 C 132.581879 27.42556 132.321259 28.635254 131.40625 29.663116 C 130.359375 29.956558 129.47406 29.693565 128.75 28.874207 C 128.541565 28.558632 128.541565 28.243065 128.75 27.927505 C 129.299377 27.427902 129.768127 26.901939 130.15625 26.349678 Z" stroke="none" fill-rule="evenodd" fill="#fe48d7" id="path28"></path>
    </g>
    <g id="g29">
        <path d="M 116.09375 31.714287 C 115.989685 31.714287 115.885315 31.714287 115.78125 31.714287 C 113.629997 32.285133 111.650932 33.231834 109.84375 34.554375 C 109.11969 33.9813 108.442497 33.350174 107.8125 32.66098 C 107.096565 29.857498 108.190315 28.490074 111.09375 28.558632 C 112.236252 28.80661 113.382187 28.859215 114.53125 28.716415 C 115.10125 28.508148 115.517815 28.139977 115.78125 27.611938 C 115.885315 27.401558 115.989685 27.191193 116.09375 26.980812 C 116.404999 27.007889 116.665314 26.902679 116.875 26.665253 C 116.952492 22.158943 119.035942 20.686325 123.125 22.247337 C 126.228752 27.924141 124.614067 30.606438 118.28125 30.294243 C 117.279373 30.396362 116.550308 30.869705 116.09375 31.714287 Z" stroke="none" fill-rule="evenodd" fill="#fe49d8" id="path29"></path>
    </g>
    <g id="g30">
        <path d="M 171.71875 59.799576 C 171.510315 59.799576 171.40625 59.694489 171.40625 59.484009 C 171.472488 58.889481 171.784988 58.468842 172.34375 58.221748 C 172.68219 58.494705 172.73407 58.81028 172.5 59.168434 C 172.189056 59.347054 171.928741 59.557533 171.71875 59.799576 Z" opacity="0.114" stroke="none" fill-rule="evenodd" fill="#9058aa" id="path30"></path>
    </g>
    <g id="g31">
        <path d="M 114.21875 56.959488 C 121.385315 60.126503 128.885315 61.388771 136.71875 60.746269 C 136.480316 60.988617 136.167816 61.1464 135.78125 61.219612 C 129.778427 62.006004 123.945 61.37487 118.28125 59.326225 C 116.719063 58.842461 115.364685 58.053543 114.21875 56.959488 Z" stroke="none" fill-rule="evenodd" fill="#a24d3d" id="path31"></path>
    </g>
    <g id="g32">
        <path d="M 153.28125 73.368874 C 152.436874 74.316826 151.395004 75.053352 150.15625 75.577827 C 150.77063 75.852997 151.39563 75.800293 152.03125 75.420044 C 154.454376 73.972549 156.537811 72.131859 158.28125 69.897652 C 158.944382 70.725693 159.673431 71.514603 160.46875 72.264389 C 160.677185 72.474876 160.885315 72.474876 161.09375 72.264389 C 157.221878 69.175957 157.013443 65.914909 160.46875 62.48188 C 160.885315 62.271393 161.302185 62.271393 161.71875 62.48188 C 162.357193 63.64032 162.877808 64.849869 163.28125 66.110878 C 164.149063 65.812027 164.774063 66.127594 165.15625 67.057571 C 165.147186 67.540062 164.938751 67.908333 164.53125 68.162048 C 163.489685 68.372528 162.447815 68.372528 161.40625 68.162048 C 160.44751 67.441933 159.66626 66.547615 159.0625 65.479744 C 158.979691 66.004532 159.135941 66.477875 159.53125 66.899788 C 158.977814 67.068611 158.873749 67.331795 159.21875 67.688698 C 160.027512 67.9077 160.756577 68.27565 161.40625 68.793175 C 162.560623 68.880898 163.706573 68.880898 164.84375 68.793175 C 163.655319 69.664131 163.134384 70.768608 163.28125 72.106613 C 163.755005 70.473877 164.692505 69.211617 166.09375 68.319832 C 166.62468 68.269341 167.14563 68.321724 167.65625 68.477615 C 169.097198 70.687195 170.972198 71.107849 173.28125 69.739876 C 173.657501 68.754677 174.178436 67.860367 174.84375 67.057571 C 174.739685 66.952484 174.635315 66.847092 174.53125 66.742004 C 173.636871 68.088516 172.386871 68.877434 170.78125 69.108742 C 173.680634 68.984093 173.680634 69.352356 170.78125 70.213219 C 168.217819 69.51992 167.644699 68.04718 169.0625 65.795303 C 170.207809 64.189713 171.718124 63.50589 173.59375 63.744141 C 175.153748 64.740372 175.726563 66.160416 175.3125 68.004265 C 173.499374 72.941277 170.009689 75.202934 164.84375 74.78891 C 164.174698 74.376152 163.549698 73.902809 162.96875 73.368874 C 162.864685 73.473953 162.760315 73.579353 162.65625 73.684433 C 162.872818 74.005684 163.080948 74.321251 163.28125 74.631126 C 162.159363 75.917374 160.805328 76.916771 159.21875 77.628998 C 157.012497 78.317245 154.824997 79.053459 152.65625 79.837952 C 152.394684 80.15699 152.290619 80.525246 152.34375 80.942429 C 156.179688 80.391144 159.721252 79.07618 162.96875 76.997864 C 163.563126 76.451942 164.084061 75.873512 164.53125 75.26226 C 165.008759 75.267624 165.165009 75.478111 165 75.893387 C 161.774994 79.283508 157.868744 81.281967 153.28125 81.889122 C 153.28125 82.204681 153.28125 82.520256 153.28125 82.835815 C 154.21875 82.730736 154.635315 83.151382 154.53125 84.098083 C 153.71907 84.082603 153.041885 83.767044 152.5 83.151382 C 152.085007 83.631683 152.136887 84.157722 152.65625 84.729218 C 151.134995 85.223389 150.093124 84.697327 149.53125 83.151382 C 149.287186 83.539215 149.130936 83.959869 149.0625 84.413658 C 148.238754 83.768013 148.082504 82.979088 148.59375 82.046921 C 148.209366 81.178162 147.896866 80.283844 147.65625 79.364609 C 147.992188 78.437477 148.044067 77.490784 147.8125 76.524521 C 146.853439 75.755165 146.540939 74.808479 146.875 73.684433 C 145.839371 72.270386 144.641251 71.008125 143.28125 69.897652 C 142.962189 70.056068 142.910004 70.266235 143.125 70.528786 C 144.275635 71.637993 145.369385 72.795174 146.40625 74 C 145.989685 74.10508 145.572815 74.21048 145.15625 74.315567 C 145.777817 74.891159 146.350937 75.522285 146.875 76.208954 C 147.250626 76.895943 147.406876 77.632469 147.34375 78.417908 C 146.976563 78.348801 146.664063 78.45388 146.40625 78.733475 C 147.521561 79.725296 147.729996 80.829773 147.03125 82.046921 C 147.196564 82.538872 147.404999 83.012207 147.65625 83.466949 C 147.552185 83.572037 147.447815 83.677429 147.34375 83.782516 C 147.135315 83.572037 146.927185 83.361862 146.71875 83.151382 C 146.614685 83.309166 146.510315 83.466949 146.40625 83.624733 C 146.685623 84.065262 146.894058 84.538605 147.03125 85.044769 C 146.826248 85.661079 146.722183 86.292206 146.71875 86.938156 C 146.389999 86.891144 146.077499 86.943527 145.78125 87.095955 C 147.144684 93.704201 146.050934 99.857712 142.5 105.556503 C 141.285309 106.827599 139.879059 107.826675 138.28125 108.554367 C 137.774689 109.237885 137.514069 110.026794 137.5 110.921104 C 137.056564 111.224045 136.587814 111.486908 136.09375 111.710022 C 136.676254 112.161591 137.301254 112.529541 137.96875 112.814507 C 137.565628 113.267334 137.044998 113.582901 136.40625 113.761192 C 136.639374 114.15123 136.743439 114.572205 136.71875 115.02346 C 136.271881 115.048386 135.854996 114.943298 135.46875 114.707886 C 135.295624 115.737259 134.774994 116.052834 133.90625 115.654579 C 133.697815 116.075233 133.489685 116.496201 133.28125 116.91684 C 132.501877 115.867279 131.564377 114.972961 130.46875 114.234543 C 126.196869 114.355408 122.134369 113.513786 118.28125 111.710022 C 116.858131 110.638046 115.399689 109.638657 113.90625 108.712158 C 109.591248 110.940681 105.007813 111.624496 100.15625 110.763329 C 99.406876 110.442078 98.677818 110.073822 97.96875 109.658844 C 97.664375 110.366661 97.559998 111.102867 97.65625 111.867798 C 97.142494 111.935333 96.673744 111.829941 96.25 111.552231 C 96.190002 110.896805 96.033752 110.265678 95.78125 109.658844 C 95.299377 110.052353 94.830627 110.052353 94.375 109.658844 C 94.314064 109.120178 94.314064 108.594131 94.375 108.081032 C 93.678436 108.919167 93.105621 108.814079 92.65625 107.765457 C 92.840622 107.35553 93.153122 107.092682 93.59375 106.976547 C 93.068756 106.86705 92.756256 106.551483 92.65625 106.029854 C 93.058128 105.509476 93.579063 105.141541 94.21875 104.925369 C 94.579689 103.995712 94.631569 103.049011 94.375 102.085281 C 92.95813 101.184982 91.916565 100.027817 91.25 98.614082 C 92.564056 99.496384 93.970306 99.917351 95.46875 99.876343 C 93.815002 99.194077 92.148438 98.510254 90.46875 97.825165 C 87.453751 95.902115 86.464066 93.219803 87.5 89.778259 C 87.826569 90.053734 88.086876 90.369293 88.28125 90.724945 C 89.558754 92.097336 90.808754 93.465004 92.03125 94.827293 C 88.215317 92.954742 87.902817 93.533157 91.09375 96.562904 C 93.458748 97.596375 95.542183 99.016418 97.34375 100.823029 C 96.510315 101.033508 95.677185 101.243683 94.84375 101.454147 C 95.104065 101.980202 95.364685 102.505936 95.625 103.031982 C 100.523438 108.608032 106.460938 110.185844 113.4375 107.765457 C 120.913757 111.904411 128.570007 112.272667 136.40625 108.869934 C 137.593445 107.987305 138.687195 106.987915 139.6875 105.87207 C 143.652191 100.432037 145.058441 94.330902 143.90625 87.56929 C 142.790939 87.786728 141.697189 88.10228 140.625 88.515991 C 140.189072 88.427628 139.824371 88.217148 139.53125 87.884857 C 140.971878 87.38311 142.378128 86.857391 143.75 86.30703 C 144.015945 84.491592 143.91156 82.703278 143.4375 80.942429 C 142.784378 80.736687 142.107193 80.683975 141.40625 80.784645 C 141.936874 79.935776 142.561874 79.199562 143.28125 78.575691 C 142.756256 77.308067 142.391571 75.993111 142.1875 74.631126 C 141.85968 74.310204 141.494995 74.2575 141.09375 74.473351 C 139.795929 75.601486 138.441879 76.653587 137.03125 77.628998 C 136.738434 77.847366 136.530319 77.79467 136.40625 77.471214 C 137.259689 76.975464 137.832809 76.23893 138.125 75.26226 C 138.333435 74 138.333435 72.73774 138.125 71.475479 C 136.878433 69.639839 135.472183 67.956612 133.90625 66.426437 C 133.696259 65.52961 133.279373 64.7407 132.65625 64.0597 C 134.524063 63.957458 136.294998 63.589195 137.96875 62.955223 C 138.610321 62.986153 139.131256 62.775673 139.53125 62.324097 C 141.744064 61.268204 142.264999 59.638 141.09375 57.432838 C 139.848129 57.275368 138.598129 57.222664 137.34375 57.275055 C 138.056564 57.018181 138.681564 56.597221 139.21875 56.012794 C 138.037186 55.702599 136.891571 55.334328 135.78125 54.908318 C 136.910004 54.548882 137.951874 54.022842 138.90625 53.33049 C 136.350616 52.950562 133.850616 52.477203 131.40625 51.910454 C 131.637192 51.951782 131.845627 51.899078 132.03125 51.752663 C 131.592194 51.352219 131.071564 51.194435 130.46875 51.27932 C 130.327194 50.977005 130.119064 50.713829 129.84375 50.49041 C 130 50.437706 130.15625 50.385323 130.3125 50.332626 C 133.192505 51.39798 136.161255 51.765923 139.21875 51.437096 C 140.880936 51.335175 142.339371 50.756744 143.59375 49.701485 C 143.838135 50.278656 143.630005 50.752007 142.96875 51.121536 C 140.819687 51.776337 138.632187 52.24968 136.40625 52.54158 C 136.770935 52.646667 137.135315 52.75206 137.5 52.857147 C 139.209991 52.427025 140.928741 52.163841 142.65625 52.068222 C 142.239685 52.909843 141.614685 53.54097 140.78125 53.961617 C 139.508438 54.210281 138.258438 54.525848 137.03125 54.908318 C 139.23407 55.503471 141.05687 54.925034 142.5 53.172707 C 142.604065 57.485535 142.708435 61.79805 142.8125 66.110878 C 143.020935 66.531525 143.229065 66.952484 143.4375 67.373138 C 145.837814 70.871811 149.119064 72.870277 153.28125 73.368874 Z M 113.90625 110.289978 C 114.589066 110.104736 115.110001 110.420303 115.46875 111.236671 C 114.871559 111.055214 114.350624 110.739655 113.90625 110.289978 Z M 115.46875 111.236671 C 115.945938 111.213638 116.258438 111.424118 116.40625 111.867798 C 116.197815 111.867798 115.989685 111.867798 115.78125 111.867798 C 115.677185 111.657333 115.572815 111.447159 115.46875 111.236671 Z" stroke="none" fill-rule="evenodd" fill="#7b379f" id="path32"></path>
    </g>
    <g id="g33">
        <path d="M 114.21875 56.959488 C 115.364685 58.053543 116.719063 58.842461 118.28125 59.326225 C 123.945 61.37487 129.778427 62.006004 135.78125 61.219612 C 136.167816 61.1464 136.480316 60.988617 136.71875 60.746269 C 137.568115 60.574921 138.401566 60.364754 139.21875 60.115143 C 139.702499 60.013847 139.910934 59.698288 139.84375 59.168434 C 134.401871 60.121124 128.985306 59.963341 123.59375 58.695091 C 123.889999 58.542679 124.202499 58.490295 124.53125 58.537308 C 126.295311 58.737389 128.065933 58.842781 129.84375 58.852875 C 133.389069 58.774925 136.930634 58.722229 140.46875 58.695091 C 140.757187 59.339172 140.861252 60.022995 140.78125 60.746269 C 136.365005 62.541519 131.781555 63.119949 127.03125 62.48188 C 122.66156 61.589775 118.494995 60.169739 114.53125 58.221748 C 114.221245 58.276024 114.01313 58.170631 113.90625 57.906181 C 113.933121 57.591873 113.828751 57.329025 113.59375 57.117271 C 113.779373 56.970856 113.987808 56.918152 114.21875 56.959488 Z" stroke="none" fill-rule="evenodd" fill="#e88666" id="path33"></path>
    </g>
    <g id="g34">
        <path d="M 114.53125 58.221748 C 118.494995 60.169739 122.66156 61.589775 127.03125 62.48188 C 131.781555 63.119949 136.365005 62.541519 140.78125 60.746269 C 140.364685 61.272316 139.947815 61.79805 139.53125 62.324097 C 139.131256 62.775673 138.610321 62.986153 137.96875 62.955223 C 134.760925 63.45224 131.531876 63.662727 128.28125 63.586349 C 128.177185 63.586349 128.072815 63.586349 127.96875 63.586349 C 125.219055 62.724541 122.406555 61.988335 119.53125 61.377403 C 117.759369 60.483398 116.092819 59.431618 114.53125 58.221748 Z" stroke="none" fill-rule="evenodd" fill="#9f4d3b" id="path34"></path>
    </g>
    <g id="g35">
        <path d="M 130.46875 40.865677 C 130.486572 40.515709 130.590637 40.20015 130.78125 39.918976 C 131.059692 39.726486 131.372192 39.621399 131.71875 39.603409 C 132.923447 39.070419 133.756882 38.176422 134.21875 36.921112 C 133.281876 35.65538 132.136246 34.6036 130.78125 33.765465 C 123.714684 30.676895 117.256248 31.623726 111.40625 36.605545 C 110.074692 37.904724 109.084999 39.429855 108.4375 41.181236 C 107.14875 48.12178 107.46125 54.958801 109.375 61.692963 C 109.910934 63.535538 110.796249 65.166061 112.03125 66.584221 C 112.34375 66.794701 112.65625 66.794701 112.96875 66.584221 C 113.235626 66.261711 113.548126 65.998863 113.90625 65.795303 C 114.603127 67.641678 115.644684 67.851845 117.03125 66.426437 C 117.894684 67.114693 118.832184 67.220085 119.84375 66.742004 C 120.859375 67.853424 121.796875 69.010597 122.65625 70.213219 C 122.173431 72.12207 121.131561 73.647202 119.53125 74.78891 C 117.153748 75.926208 114.653748 76.662422 112.03125 76.997864 C 107.917496 78.40844 107.344681 80.670105 110.3125 83.782516 C 110.180626 84.790115 110.232811 85.789497 110.46875 86.780396 C 110.028442 88.311829 109.559692 89.83696 109.0625 91.356079 C 107.817192 92.190735 107.087814 93.347931 106.875 94.827293 C 106.432808 95.401306 105.964058 95.611465 105.46875 95.45842 C 106.714691 93.802643 107.391876 91.909264 107.5 89.778259 C 109.609375 87.671227 109.765625 85.409897 107.96875 82.993607 C 106.795944 82.365936 105.545944 82.103081 104.21875 82.204681 C 104.691246 80.303093 105.524376 78.56749 106.71875 76.997864 C 111.885941 76.381256 116.625305 74.645653 120.9375 71.791046 C 121.288437 70.700455 121.02813 69.806145 120.15625 69.108742 C 117.070938 68.443535 113.945938 68.180664 110.78125 68.319832 C 110.368126 68.373474 110.003433 68.268394 109.6875 68.004265 C 107.955002 61.38623 106.96563 54.654297 106.71875 47.808105 C 106.583435 40.451965 109.8125 35.24514 116.40625 32.187637 C 126.465942 29.262383 134.590942 31.997345 140.78125 40.392319 C 137.301254 39.217796 133.863754 39.37558 130.46875 40.865677 Z" stroke="none" fill-rule="evenodd" fill="#7b389f" id="path35"></path>
    </g>
    <g id="g36">
        <path d="M 131.71875 39.603409 C 131.372192 39.621399 131.059692 39.726486 130.78125 39.918976 C 129.035934 39.804741 127.421562 39.279007 125.9375 38.341156 C 125.729065 38.130669 125.729065 37.920509 125.9375 37.710014 C 127.638123 39.056854 129.513123 39.477509 131.5625 38.972282 C 131.707504 39.159721 131.759689 39.370209 131.71875 39.603409 Z" stroke="none" fill-rule="evenodd" fill="#140d16" id="path36"></path>
    </g>
    <g id="g37">
        <path d="M 127.65625 37.710014 C 128.868744 37.690773 130.118744 37.690773 131.40625 37.710014 C 130.167511 38.524498 128.917511 38.524498 127.65625 37.710014 Z" stroke="none" fill-rule="evenodd" fill="#110b14" id="path37"></path>
    </g>
    <g id="g38">
        <path d="M 119.53125 61.377403 C 122.406555 61.988335 125.219055 62.724541 127.96875 63.586349 C 125.018127 63.288773 122.205627 62.552559 119.53125 61.377403 Z" opacity="0.961" stroke="none" fill-rule="evenodd" fill="#271b1e" id="path38"></path>
    </g>
    <g id="g39">
        <path d="M 157.65625 63.270782 C 158.072815 63.481262 158.072815 63.481262 157.65625 63.270782 Z" opacity="0.004" stroke="none" fill-rule="evenodd" fill="#000000" id="path39"></path>
    </g>
    <g id="g40">
        <path d="M 133.90625 66.426437 C 134.084991 66.980263 134.345627 67.506302 134.6875 68.004265 C 135.740631 68.962006 136.678131 70.013786 137.5 71.159912 C 138.381256 73.365395 138.016876 75.311485 136.40625 76.997864 C 135.42688 77.247162 134.48938 77.142082 133.59375 76.682304 C 132.760315 76.094719 132.03125 75.411209 131.40625 74.631126 C 131.40625 74.315567 131.40625 74 131.40625 73.684433 C 130.972809 72.934334 130.712189 72.09304 130.625 71.159912 C 130.424698 68.730064 130.164383 66.310631 129.84375 63.901909 C 130.702194 63.803146 131.535629 63.908241 132.34375 64.217484 C 132.761246 65.054993 133.282181 65.791214 133.90625 66.426437 Z" stroke="none" fill-rule="evenodd" fill="#eb3cac" id="path40"></path>
    </g>
    <g id="g41">
        <path d="M 131.40625 73.684433 C 131.006256 70.843719 130.902191 68.003632 131.09375 65.164177 C 131.608124 65.56778 131.972809 66.093513 132.1875 66.742004 C 133.160309 69.47953 134.254059 72.161835 135.46875 74.78891 C 135.470322 75.471481 135.157822 75.944824 134.53125 76.208954 C 133.372177 75.453171 132.330627 74.611877 131.40625 73.684433 Z" stroke="none" fill-rule="evenodd" fill="#fe48d7" id="path41"></path>
    </g>
    <g id="g42">
        <path d="M 137.96875 62.955223 C 136.294998 63.589195 134.524063 63.957458 132.65625 64.0597 C 133.279373 64.7407 133.696259 65.52961 133.90625 66.426437 C 133.282181 65.791214 132.761246 65.054993 132.34375 64.217484 C 131.535629 63.908241 130.702194 63.803146 129.84375 63.901909 C 130.164368 66.310631 130.424683 68.730064 130.625 71.159912 C 130.712189 72.09304 130.972809 72.934334 131.40625 73.684433 C 131.40625 74 131.40625 74.315567 131.40625 74.631126 C 130.751556 73.47522 130.282806 72.212959 130 70.844353 C 129.931244 68.501907 129.670929 66.187874 129.21875 63.901909 C 128.815323 63.976715 128.502823 63.871628 128.28125 63.586349 C 131.531876 63.662727 134.760925 63.45224 137.96875 62.955223 Z" opacity="0.923" stroke="none" fill-rule="evenodd" fill="#191419" id="path42"></path>
    </g>
    <g id="g43">
        <path d="M 95.15625 75.893387 C 95.614693 75.643456 96.031242 75.643456 96.40625 75.893387 C 95.354057 76.748253 95.041557 77.800034 95.46875 79.049042 C 94.629372 80.12291 93.795937 81.17469 92.96875 82.204681 C 93.244064 81.12262 93.764999 80.175926 94.53125 79.364609 C 91.950943 77.983688 89.503128 76.405869 87.1875 74.631126 C 86.968437 75.712883 87.072495 76.764977 87.5 77.786781 C 88.866554 80.229889 90.376869 82.333763 92.03125 84.098083 C 91.92437 84.362518 91.716248 84.467934 91.40625 84.413658 C 87.459373 81.291138 86.000938 77.293869 87.03125 72.422173 C 87.739067 72.060219 88.468124 72.007523 89.21875 72.264389 C 90.964371 73.763641 92.839371 75.078598 94.84375 76.208954 C 95.033432 76.16983 95.137497 76.064743 95.15625 75.893387 Z" stroke="none" fill-rule="evenodd" fill="#7c389f" id="path43"></path>
    </g>
    <g id="g44">
        <path d="M 92.96875 82.204681 C 92.771873 82.914719 92.459373 83.545845 92.03125 84.098083 C 90.376869 82.333763 88.866554 80.229889 87.5 77.786781 C 87.072495 76.764977 86.968437 75.712883 87.1875 74.631126 C 89.503128 76.405869 91.950943 77.983688 94.53125 79.364609 C 93.764999 80.175926 93.244064 81.12262 92.96875 82.204681 Z" stroke="none" fill-rule="evenodd" fill="#8f59ac" id="path44"></path>
    </g>
    <g id="g45">
        <path d="M 133.90625 66.426437 C 135.472183 67.956612 136.878433 69.639839 138.125 71.475479 C 138.333435 72.73774 138.333435 74 138.125 75.26226 C 137.832809 76.23893 137.259689 76.975464 136.40625 77.471214 C 135.947815 77.595543 135.479065 77.70063 135 77.786781 C 133.184998 77.42672 131.987183 76.374626 131.40625 74.631126 C 132.03125 75.411209 132.760315 76.094719 133.59375 76.682304 C 134.48938 77.142082 135.42688 77.247162 136.40625 76.997864 C 138.016876 75.311485 138.381256 73.365395 137.5 71.159912 C 136.678116 70.013786 135.740616 68.962006 134.6875 68.004265 C 134.345627 67.506302 134.084991 66.980263 133.90625 66.426437 Z" opacity="0.945" stroke="none" fill-rule="evenodd" fill="#20161f" id="path45"></path>
    </g>
    <g id="g46">
        <path d="M 94.21875 75.26226 C 94.46563 75.546585 94.77813 75.757065 95.15625 75.893387 C 95.137497 76.064743 95.033432 76.16983 94.84375 76.208954 C 92.839371 75.078598 90.964371 73.763641 89.21875 72.264389 C 88.468124 72.007523 87.739067 72.060219 87.03125 72.422173 C 86.000938 77.293869 87.459373 81.291138 91.40625 84.413658 C 91.40625 84.624115 91.302185 84.729218 91.09375 84.729218 C 89.569679 83.558144 88.319679 82.138115 87.34375 80.469086 C 87.047188 80.274384 86.786873 80.326767 86.5625 80.626869 C 85.815315 83.231857 86.02375 85.756378 87.1875 88.200424 C 87.829369 89.004166 88.402184 89.845764 88.90625 90.724945 C 88.697815 90.724945 88.489685 90.724945 88.28125 90.724945 C 88.086868 90.369293 87.826569 90.053734 87.5 89.778259 C 86.464058 93.219803 87.453743 95.902115 90.46875 97.825165 C 92.148438 98.510254 93.815002 99.194077 95.46875 99.876343 C 93.970306 99.917351 92.564056 99.496384 91.25 98.614082 C 91.916557 100.027817 92.958122 101.184982 94.375 102.085281 C 94.631569 103.049011 94.579689 103.995712 94.21875 104.925369 C 93.579063 105.141541 93.058128 105.509476 92.65625 106.029854 C 92.756248 106.551483 93.068748 106.86705 93.59375 106.976547 C 93.153122 107.092682 92.840622 107.35553 92.65625 107.765457 C 93.105621 108.814079 93.678436 108.919167 94.375 108.081032 C 94.314056 108.594131 94.314056 109.120178 94.375 109.658844 C 94.830627 110.052353 95.299377 110.052353 95.78125 109.658844 C 96.033752 110.265678 96.190002 110.896805 96.25 111.552231 C 96.673744 111.829941 97.142494 111.935333 97.65625 111.867798 C 97.559998 111.102867 97.664375 110.366661 97.96875 109.658844 C 98.677818 110.073822 99.406868 110.442078 100.15625 110.763329 C 105.007813 111.624496 109.591248 110.940681 113.90625 108.712158 C 115.399681 109.638657 116.858131 110.638046 118.28125 111.710022 C 122.134369 113.513786 126.196869 114.355408 130.46875 114.234543 C 131.564377 114.972961 132.501877 115.867279 133.28125 116.91684 C 133.489685 116.496201 133.697815 116.075233 133.90625 115.654579 C 134.774994 116.052834 135.295624 115.737259 135.46875 114.707886 C 135.854996 114.943298 136.271881 115.048386 136.71875 115.02346 C 136.743439 114.572205 136.639374 114.15123 136.40625 113.761192 C 137.044998 113.582901 137.565628 113.267334 137.96875 112.814507 C 137.948441 112.676285 138.00032 112.570877 138.125 112.498932 C 138.211884 112.787994 138.368134 112.998169 138.59375 113.130066 C 138.287811 113.64917 137.871246 114.070145 137.34375 114.392319 C 138.47438 116.218506 139.82843 116.323906 141.40625 114.707886 C 142.310318 115.11528 143.143753 114.957504 143.90625 114.234543 C 144.39563 113.993134 144.81218 114.045837 145.15625 114.392319 C 146.225937 114.274933 147.007187 114.695572 147.5 115.654579 C 148.039383 120.048523 146.216568 122.835899 142.03125 124.017059 C 140.396561 124.164108 138.781876 124.427292 137.1875 124.805969 C 136.132492 124.177673 135.872177 123.283371 136.40625 122.123672 C 135.922806 119.744621 134.568741 118.166794 132.34375 117.390198 C 131.510315 116.548576 130.677185 115.707275 129.84375 114.865677 C 125.081558 115.215309 120.602501 114.215927 116.40625 111.867798 C 116.258438 111.424118 115.945938 111.213638 115.46875 111.236671 C 115.109993 110.420303 114.589058 110.104736 113.90625 110.289978 C 110.572182 111.465141 107.134682 112.201675 103.59375 112.498932 C 101.947182 112.201675 100.332497 111.780716 98.75 111.236671 C 98.214378 111.418442 97.849686 111.786697 97.65625 112.341156 C 97.152496 112.568352 96.683746 112.515976 96.25 112.183365 C 95.512505 113.085884 94.835312 114.032578 94.21875 115.02346 C 94.622498 115.707275 94.882813 116.443497 95 117.232414 C 96 117.750244 96.26062 118.486465 95.78125 119.441368 C 97.286873 120.477051 97.599373 121.792007 96.71875 123.385918 C 93.736565 124.757065 91.080315 124.283707 88.75 121.965889 C 87.519684 119.547394 86.321877 117.12796 85.15625 114.707886 C 85.264999 114.014587 85.577499 113.436157 86.09375 112.972282 C 87.293747 112.318436 88.491562 111.950165 89.6875 111.867798 C 90.718437 111.247726 91.551559 110.406113 92.1875 109.343292 C 92.050629 108.535439 92.102814 107.746536 92.34375 106.976547 C 91.467506 105.946533 91.675941 105.157631 92.96875 104.609818 C 93.328751 103.787445 93.380623 102.945831 93.125 102.085281 C 91.969994 101.127228 91.032494 99.970062 90.3125 98.614082 C 86.734688 96.401024 85.640938 93.298065 87.03125 89.304901 C 85.319374 86.67215 84.954689 83.884766 85.9375 80.942429 C 86.09375 80.364006 86.458435 79.995735 87.03125 79.837952 C 85.61937 77.434921 85.359055 74.963104 86.25 72.422173 C 86.684067 71.87719 87.205002 71.45623 87.8125 71.159912 C 90.159065 72.219261 92.29438 73.586609 94.21875 75.26226 Z M 113.90625 110.289978 C 114.589058 110.104736 115.109993 110.420303 115.46875 111.236671 C 114.871559 111.055214 114.350624 110.739655 113.90625 110.289978 Z M 115.46875 111.236671 C 115.945938 111.213638 116.258438 111.424118 116.40625 111.867798 C 116.197815 111.867798 115.989685 111.867798 115.78125 111.867798 C 115.677185 111.657333 115.572815 111.447159 115.46875 111.236671 Z" stroke="none" fill-rule="evenodd" fill="#171216" id="path46"></path>
    </g>
    <g id="g47">
        <path d="M 116.40625 79.364609 C 117.392189 79.517334 118.121254 80.043388 118.59375 80.942429 C 117.856255 81.684952 117.022812 82.316078 116.09375 82.835815 C 115.852188 81.847778 116.269066 81.163963 117.34375 80.784645 C 116.83094 80.428375 116.51844 79.955032 116.40625 79.364609 Z" stroke="none" fill-rule="evenodd" fill="#1b131f" id="path47"></path>
    </g>
    <g id="g48">
        <path d="M 91.09375 84.729218 C 91.472504 85.896805 91.264069 86.948578 90.46875 87.884857 C 89.678749 86.660461 88.741249 85.503616 87.65625 84.413658 C 87.70562 87.045456 88.64312 89.359512 90.46875 91.356079 C 90.804062 91.593063 90.856247 91.90863 90.625 92.302765 C 90.092499 91.711731 89.519691 91.185669 88.90625 90.724945 C 88.402184 89.845764 87.829369 89.004166 87.1875 88.200424 C 86.02375 85.756378 85.815315 83.231857 86.5625 80.626869 C 86.786873 80.326767 87.047188 80.274384 87.34375 80.469086 C 88.319687 82.138115 89.569687 83.558144 91.09375 84.729218 Z" stroke="none" fill-rule="evenodd" fill="#7c38a0" id="path48"></path>
    </g>
    <g id="g49">
        <path d="M 108.90625 68.635391 C 109.604683 68.728485 110.229683 68.623085 110.78125 68.319832 C 113.945946 68.180664 117.070946 68.443535 120.15625 69.108742 C 121.02813 69.806145 121.288437 70.700455 120.9375 71.791046 C 116.625313 74.645653 111.885941 76.381256 106.71875 76.997864 C 105.524376 78.56749 104.691246 80.303093 104.21875 82.204681 C 105.545944 82.103081 106.795944 82.365936 107.96875 82.993607 C 109.765625 85.409897 109.609375 87.671227 107.5 89.778259 C 107.391876 91.909264 106.714691 93.802643 105.46875 95.45842 C 103.71312 96.834923 101.83812 97.045074 99.84375 96.089554 C 99.421875 96.547119 98.901253 96.757607 98.28125 96.720673 C 98.246567 96.91539 98.142502 97.073166 97.96875 97.194031 C 95.646881 97.283966 93.667496 96.495056 92.03125 94.827293 C 90.808754 93.465004 89.558754 92.097336 88.28125 90.724945 C 88.489685 90.724945 88.697815 90.724945 88.90625 90.724945 C 89.519691 91.185669 90.092499 91.711731 90.625 92.302765 C 90.856247 91.90863 90.804062 91.593063 90.46875 91.356079 C 90.46875 90.198898 90.46875 89.042038 90.46875 87.884857 C 91.264069 86.948578 91.472504 85.896805 91.09375 84.729218 C 91.302185 84.729218 91.40625 84.624115 91.40625 84.413658 C 91.716255 84.467934 91.92437 84.362518 92.03125 84.098083 C 92.459373 83.545845 92.771873 82.914719 92.96875 82.204681 C 93.795937 81.17469 94.629372 80.12291 95.46875 79.049042 C 95.041565 77.800034 95.354065 76.748253 96.40625 75.893387 C 96.03125 75.643456 95.614693 75.643456 95.15625 75.893387 C 94.77813 75.757065 94.46563 75.546585 94.21875 75.26226 C 94.524376 75.164116 94.732811 74.953636 94.84375 74.631126 C 94.003128 72.671791 94.628128 71.304123 96.71875 70.528786 C 96.887192 69.687485 97.303757 69.003662 97.96875 68.477615 C 99.773438 68.217583 101.335938 68.690933 102.65625 69.897652 C 104.681252 69.175957 106.764687 68.75531 108.90625 68.635391 Z" stroke="none" fill-rule="evenodd" fill="#170b19" id="path49"></path>
    </g>
    <g id="g50">
        <path d="M 98.28125 93.880608 C 98.307808 94.647095 98.620308 95.278229 99.21875 95.773987 C 98.821877 96.022652 98.509377 96.338211 98.28125 96.720673 C 96.344063 97.347382 94.937813 96.716263 94.0625 94.827293 C 93.75 90.198898 93.4375 90.198898 93.125 94.827293 C 91.247818 92.606033 90.726875 90.081505 91.5625 87.253723 C 92.793121 83.521858 94.824371 80.313507 97.65625 77.628998 C 97.107498 77.584816 96.586876 77.742599 96.09375 78.102348 C 95.989685 77.997261 95.885315 77.891861 95.78125 77.786781 C 96.69812 76.040756 97.84375 74.462929 99.21875 73.053307 C 98.81562 72.766769 98.399071 72.819466 97.96875 73.21109 C 97.490944 74.166939 96.761879 74.850449 95.78125 75.26226 C 95.462189 75.103851 95.410004 74.893677 95.625 74.631126 C 96.207809 73.72924 96.885002 72.940338 97.65625 72.264389 C 97.552185 72.106613 97.447815 71.94883 97.34375 71.791046 C 96.711258 72.377365 96.034058 72.903412 95.3125 73.368874 C 95.283745 72.236305 95.85656 71.552475 97.03125 71.317696 C 97.985313 71.261208 98.922813 71.103424 99.84375 70.844353 C 99.175941 70.412659 98.446877 70.097099 97.65625 69.897652 C 97.721565 69.712738 97.825935 69.554955 97.96875 69.424309 C 99.248123 69.182266 100.498123 69.287346 101.71875 69.739876 C 101.910004 70.151054 102.014381 70.519318 102.03125 70.844353 C 103.22094 70.280754 104.47094 69.912804 105.78125 69.739876 C 108.385315 69.356773 110.989372 68.988518 113.59375 68.635391 C 115.491562 68.743317 117.366562 69.0065 119.21875 69.424309 C 119.941559 69.626587 120.462502 70.047234 120.78125 70.686569 C 119.257813 72.427536 117.382813 73.689796 115.15625 74.473351 C 111.524071 75.800613 107.774071 76.536827 103.90625 76.682304 C 104.555313 76.742889 105.180313 76.900673 105.78125 77.155647 C 104.852814 78.505005 104.175941 79.977432 103.75 81.573555 C 103.155312 81.634789 102.582191 81.634789 102.03125 81.573555 C 102.673119 82.108124 103.402504 82.476395 104.21875 82.67804 C 107.550934 82.637009 109.061249 84.267532 108.75 87.56929 C 108.102501 89.03447 107.008751 89.50782 105.46875 88.989334 C 105.133125 88.756134 104.92469 88.440567 104.84375 88.042641 C 105.309372 86.889252 105.257187 85.784775 104.6875 84.729218 C 104.371872 87.187157 104.16375 89.71167 104.0625 92.302765 C 104.229691 92.861633 104.490311 92.966721 104.84375 92.618332 C 104.403755 91.438431 104.45594 90.281258 105 89.147133 C 105.38813 89.580086 105.85688 89.895653 106.40625 90.093819 C 106.61219 92.262695 105.883125 94.103378 104.21875 95.616211 C 103.245621 96.225563 102.204063 96.436035 101.09375 96.247345 C 99.906258 95.729179 98.968758 94.940262 98.28125 93.880608 Z" stroke="none" fill-rule="evenodd" fill="#7c39a0" id="path50"></path>
    </g>
    <g id="g51">
        <path d="M 113.90625 69.582092 C 115.316246 69.471329 116.670311 69.681496 117.96875 70.213219 C 115.579689 70.532257 113.184059 70.795441 110.78125 71.002136 C 107.043755 71.788834 103.398125 72.788231 99.84375 74 C 99.862816 73.339836 100.175316 72.866493 100.78125 72.579956 C 102.042503 72.052963 103.292503 71.526917 104.53125 71.002136 C 107.681244 70.374153 110.806244 69.90081 113.90625 69.582092 Z" stroke="none" fill-rule="evenodd" fill="#905aad" id="path51"></path>
    </g>
    <g id="g52">
        <path d="M 90.46875 87.884857 C 90.46875 89.042038 90.46875 90.198898 90.46875 91.356079 C 88.64312 89.359512 87.70562 87.045456 87.65625 84.413658 C 88.741241 85.503616 89.678741 86.660461 90.46875 87.884857 Z" stroke="none" fill-rule="evenodd" fill="#8f58ac" id="path52"></path>
    </g>
    <g id="g53">
        <path d="M 98.28125 93.880608 C 98.08844 93.845573 97.93219 93.740494 97.8125 93.565033 C 97.604065 92.933899 97.604065 92.302765 97.8125 91.671631 C 98.117813 92.378502 98.274063 93.114716 98.28125 93.880608 Z" stroke="none" fill-rule="evenodd" fill="#1f1025" id="path53"></path>
    </g>
    <g id="g54">
        <path d="M 171.40625 59.484009 C 171.40625 59.694489 171.510315 59.799576 171.71875 59.799576 C 172.967499 60.480881 173.644379 61.532661 173.75 62.955223 C 175.301575 63.928741 176.187195 65.348793 176.40625 67.215355 C 174.914383 72.443634 171.476883 75.389114 166.09375 76.05117 C 163.320618 79.264565 159.883133 81.473541 155.78125 82.67804 C 155.364685 82.993607 155.364685 83.309166 155.78125 83.624733 C 155.405945 83.909691 155.145309 84.277634 155 84.729218 C 154.479065 85.149864 153.958435 85.149864 153.4375 84.729218 C 153.28656 85.028374 153.234695 85.343933 153.28125 85.675903 C 152.092194 86.046997 150.998444 85.83654 150 85.044769 C 149.375 85.886398 148.75 85.886398 148.125 85.044769 C 147.808441 86.218674 147.443756 87.375542 147.03125 88.515991 C 148.01593 94.347633 147.026245 99.922714 144.0625 105.240936 C 142.512802 107.123283 140.690002 108.648407 138.59375 109.816635 C 139.500626 110.720093 139.39624 111.456314 138.28125 112.025589 C 138.542816 112.344627 138.646881 112.712883 138.59375 113.130066 C 138.368134 112.998169 138.211884 112.787994 138.125 112.498932 C 138.00032 112.570877 137.948441 112.676285 137.96875 112.814507 C 137.301254 112.529541 136.676254 112.161591 136.09375 111.710022 C 136.587814 111.486908 137.056564 111.224045 137.5 110.921104 C 137.514069 110.026794 137.774689 109.237885 138.28125 108.554367 C 139.879059 107.826675 141.285309 106.827599 142.5 105.556503 C 146.050934 99.857712 147.144684 93.704201 145.78125 87.095955 C 146.077499 86.943527 146.389999 86.891144 146.71875 86.938156 C 146.722183 86.292206 146.826248 85.661079 147.03125 85.044769 C 146.894058 84.538605 146.685623 84.065262 146.40625 83.624733 C 146.510315 83.466949 146.614685 83.309166 146.71875 83.151382 C 146.927185 83.361862 147.135315 83.572037 147.34375 83.782516 C 147.447815 83.677429 147.552185 83.572037 147.65625 83.466949 C 147.404999 83.012207 147.196564 82.538872 147.03125 82.046921 C 147.729996 80.829773 147.521561 79.725296 146.40625 78.733475 C 146.664063 78.45388 146.976563 78.348801 147.34375 78.417908 C 147.406876 77.632469 147.250626 76.895943 146.875 76.208954 C 146.350937 75.522285 145.777817 74.891159 145.15625 74.315567 C 145.572815 74.21048 145.989685 74.10508 146.40625 74 C 145.369385 72.795174 144.275635 71.637993 143.125 70.528786 C 142.910004 70.266235 142.962189 70.056068 143.28125 69.897652 C 144.641251 71.008125 145.839371 72.270386 146.875 73.684433 C 146.540939 74.808479 146.853439 75.755165 147.8125 76.524521 C 148.044067 77.490784 147.992188 78.437477 147.65625 79.364609 C 147.896866 80.283844 148.209366 81.178162 148.59375 82.046921 C 148.082504 82.979088 148.238754 83.768013 149.0625 84.413658 C 149.130936 83.959869 149.287186 83.539215 149.53125 83.151382 C 150.093124 84.697327 151.134995 85.223389 152.65625 84.729218 C 152.136871 84.157722 152.084991 83.631683 152.5 83.151382 C 153.04187 83.767044 153.719055 84.082603 154.53125 84.098083 C 154.635315 83.151382 154.21875 82.730736 153.28125 82.835815 C 153.28125 82.520256 153.28125 82.204681 153.28125 81.889122 C 157.868744 81.281967 161.774994 79.283508 165 75.893387 C 165.165009 75.478111 165.008759 75.267624 164.53125 75.26226 C 164.165314 74.995605 163.748444 74.785446 163.28125 74.631126 C 163.080933 74.321251 162.872803 74.005684 162.65625 73.684433 C 162.760315 73.579353 162.864685 73.473953 162.96875 73.368874 C 163.549683 73.902809 164.174683 74.376152 164.84375 74.78891 C 170.009689 75.202934 173.499374 72.941277 175.3125 68.004265 C 175.726563 66.160416 175.153748 64.740372 173.59375 63.744141 C 171.718124 63.50589 170.207809 64.189713 169.0625 65.795303 C 167.644684 68.04718 168.217804 69.51992 170.78125 70.213219 C 173.680634 69.352356 173.680634 68.984093 170.78125 69.108742 C 172.386871 68.877434 173.636871 68.088516 174.53125 66.742004 C 174.635315 66.847092 174.739685 66.952484 174.84375 67.057571 C 174.178436 67.860367 173.657501 68.754677 173.28125 69.739876 C 170.972198 71.107849 169.097198 70.687195 167.65625 68.477615 C 167.14563 68.321724 166.62468 68.269341 166.09375 68.319832 C 164.692505 69.211617 163.755005 70.473877 163.28125 72.106613 C 163.134384 70.768608 163.655319 69.664131 164.84375 68.793175 C 163.706573 68.880898 162.560608 68.880898 161.40625 68.793175 C 160.756561 68.27565 160.027496 67.9077 159.21875 67.688698 C 158.873749 67.331795 158.977814 67.068611 159.53125 66.899788 C 159.135925 66.477875 158.979675 66.004532 159.0625 65.479744 C 159.66626 66.547615 160.44751 67.441933 161.40625 68.162048 C 162.447815 68.372528 163.489685 68.372528 164.53125 68.162048 C 164.938751 67.908333 165.147186 67.540062 165.15625 67.057571 C 164.774048 66.127594 164.149048 65.812027 163.28125 66.110878 C 162.877808 64.849869 162.357193 63.64032 161.71875 62.48188 C 161.302185 62.271393 160.885315 62.271393 160.46875 62.48188 C 157.013428 65.914909 157.221863 69.175957 161.09375 72.264389 C 160.885315 72.474876 160.677185 72.474876 160.46875 72.264389 C 159.673431 71.514603 158.944382 70.725693 158.28125 69.897652 C 156.537811 72.131859 154.454376 73.972549 152.03125 75.420044 C 151.39563 75.800293 150.77063 75.852997 150.15625 75.577827 C 151.394989 75.053352 152.436874 74.316826 153.28125 73.368874 C 153.489685 73.368874 153.59375 73.263786 153.59375 73.053307 C 155.254684 72.05928 156.556564 70.691933 157.5 68.950958 C 156.968445 66.249405 157.749695 63.987747 159.84375 62.166313 C 160.435013 61.859261 161.060013 61.648781 161.71875 61.535172 C 164.239059 57.135887 167.46843 56.452377 171.40625 59.484009 Z" opacity="0.798" stroke="none" fill-rule="evenodd" fill="#130914" id="path54"></path>
    </g>
    <g id="g55">
        <path d="M 163.28125 74.631126 C 163.748444 74.785446 164.165314 74.995605 164.53125 75.26226 C 164.084061 75.873512 163.563126 76.451942 162.96875 76.997864 C 159.721252 79.07618 156.179688 80.391144 152.34375 80.942429 C 152.290619 80.525246 152.394684 80.15699 152.65625 79.837952 C 154.824997 79.053459 157.012497 78.317245 159.21875 77.628998 C 160.805328 76.916771 162.159363 75.917374 163.28125 74.631126 Z" stroke="none" fill-rule="evenodd" fill="#905aad" id="path55"></path>
    </g>
    <g id="g56">
        <path d="M 170.46875 71.475479 C 170.885315 71.475479 171.302185 71.475479 171.71875 71.475479 C 171.771866 71.892662 171.667801 72.260925 171.40625 72.579956 C 169.858444 73.346466 168.243759 73.924889 166.5625 74.315567 C 165.882813 74.210167 165.309998 73.8946 164.84375 73.368874 C 166.67157 73.12178 168.442505 72.648438 170.15625 71.94883 C 170.330017 71.827965 170.434052 71.670181 170.46875 71.475479 Z" stroke="none" fill-rule="evenodd" fill="#8f59ac" id="path56"></path>
    </g>
    <g id="g57">
        <path d="M 153.28125 71.159912 C 153.610001 71.1129 153.922501 71.165283 154.21875 71.317696 C 153.957184 71.636734 153.853119 72.004997 153.90625 72.422173 C 152.548431 72.485916 152.339996 72.065269 153.28125 71.159912 Z" opacity="0.007" stroke="none" fill-rule="evenodd" fill="#1a0a20" id="path57"></path>
    </g>
    <g id="g58">
        <path d="M 166.09375 68.319832 C 165.820007 68.361168 165.611557 68.256088 165.46875 68.004265 C 165.620941 67.705742 165.725006 67.390175 165.78125 67.057571 C 165.538452 66.443161 165.225952 65.864738 164.84375 65.32196 C 165.524689 61.578735 167.712189 59.895821 171.40625 60.272926 C 172.409988 60.910049 172.930618 61.804359 172.96875 62.955223 C 169.939056 63.279625 168.272491 64.962532 167.96875 68.004265 C 167.418121 68.049393 166.897186 67.943993 166.40625 67.688698 C 166.156891 67.832909 166.052826 68.043388 166.09375 68.319832 Z" stroke="none" fill-rule="evenodd" fill="#7d3aa0" id="path58"></path>
    </g>
    <g id="g59">
        <path d="M 166.40625 57.906181 C 167.668442 57.641106 168.605942 58.061745 169.21875 59.168434 C 166.51062 60.430389 164.844055 62.534264 164.21875 65.479744 C 163.913116 65.329216 163.652817 65.119049 163.4375 64.848618 C 163.158737 63.970085 162.794373 63.128777 162.34375 62.324097 C 162.733444 61.431358 163.202194 60.590065 163.75 59.799576 C 164.611572 59.079773 165.497192 58.448639 166.40625 57.906181 Z" stroke="none" fill-rule="evenodd" fill="#803fa2" id="path59"></path>
    </g>
    <g id="g60">
        <path d="M 94.53125 118.494667 C 94.33844 118.529694 94.18219 118.634789 94.0625 118.810242 C 93.482193 117.958199 92.700943 117.432472 91.71875 117.232414 C 90.290627 116.89064 88.884377 116.470009 87.5 115.970146 C 86.915314 114.14241 87.540314 112.985214 89.375 112.498932 C 89.769058 112.580666 90.081558 112.791153 90.3125 113.130066 C 90.465622 112.722031 90.517815 112.301071 90.46875 111.867798 C 90.797501 111.91481 91.110001 111.862442 91.40625 111.710022 C 91.996567 110.77626 92.621567 109.882263 93.28125 109.027718 C 93.702812 110.188675 94.536247 110.714417 95.78125 110.605545 C 95.830315 111.038803 95.778122 111.459778 95.625 111.867798 C 94.887505 112.770317 94.210312 113.71701 93.59375 114.707886 C 93.937187 115.985291 94.249687 117.247551 94.53125 118.494667 Z" stroke="none" fill-rule="evenodd" fill="#f1b2a2" id="path60"></path>
    </g>
    <g id="g61">
        <path d="M 113.90625 110.289978 C 114.350624 110.739655 114.871559 111.055214 115.46875 111.236671 C 115.572815 111.447159 115.677185 111.657333 115.78125 111.867798 C 115.78125 112.078278 115.78125 112.288452 115.78125 112.498932 C 115.130623 112.507782 114.557503 112.297279 114.0625 111.867798 C 113.933121 112.012016 113.776871 112.117409 113.59375 112.183365 C 113.207817 111.918297 112.895317 111.602722 112.65625 111.236671 C 113.193436 111.071945 113.610001 110.756378 113.90625 110.289978 Z" opacity="0.004" stroke="none" fill-rule="evenodd" fill="#870fbe" id="path61"></path>
    </g>
    <g id="g62">
        <path d="M 112.65625 111.236671 C 112.584373 112.020226 112.375938 112.178009 112.03125 111.710022 C 112.136246 111.384979 112.344681 111.227203 112.65625 111.236671 Z" opacity="0.004" stroke="none" fill-rule="evenodd" fill="#7b17ac" id="path62"></path>
    </g>
    <g id="g63">
        <path d="M 115.78125 111.867798 C 115.989685 111.867798 116.197815 111.867798 116.40625 111.867798 C 116.371567 112.062515 116.267502 112.220291 116.09375 112.341156 C 117.729378 112.513763 117.729378 112.776627 116.09375 113.130066 C 115.844376 112.985855 115.740311 112.775368 115.78125 112.498932 C 115.78125 112.288452 115.78125 112.078278 115.78125 111.867798 Z" opacity="0.004" stroke="none" fill-rule="evenodd" fill="#000007" id="path63"></path>
    </g>
    <g id="g64">
        <path d="M 86.71875 113.130066 C 86.949692 113.08873 87.158127 113.141418 87.34375 113.287842 C 86.60125 114.41568 86.60125 115.572861 87.34375 116.759064 C 87.239685 116.91684 87.135315 117.074631 87.03125 117.232414 C 86.049057 115.878326 85.944687 114.510979 86.71875 113.130066 Z" stroke="none" fill-rule="evenodd" fill="#e1dce3" id="path64"></path>
    </g>
    <g id="g65">
        <path d="M 145.15625 114.392319 C 145.46875 114.602798 145.78125 114.812973 146.09375 115.02346 C 145.580002 116.629684 145.267502 118.312592 145.15625 120.072495 C 144.947815 117.968628 144.739685 117.968628 144.53125 120.072495 C 144.21875 120.072495 143.90625 120.072495 143.59375 120.072495 C 143.607498 118.939621 144.128433 118.150696 145.15625 117.705757 C 144.709991 117.523041 144.293121 117.575752 143.90625 117.863541 C 143.90625 117.653061 143.90625 117.442886 143.90625 117.232414 C 145.251877 116.941139 145.355942 116.572884 144.21875 116.12793 C 144.584991 115.995705 144.897491 115.785538 145.15625 115.496803 C 144.499374 115.577591 143.874374 115.524887 143.28125 115.33902 C 143.722198 114.695572 144.347198 114.38002 145.15625 114.392319 Z" opacity="0.925" stroke="none" fill-rule="evenodd" fill="#4c3533" id="path65"></path>
    </g>
    <g id="g66">
        <path d="M 121.71875 118.494667 C 121.71875 118.284187 121.71875 118.074013 121.71875 117.863541 C 122.065315 117.845551 122.377815 117.740463 122.65625 117.547981 C 122.956566 116.990997 123.060944 116.359863 122.96875 115.654579 C 123.482506 115.722122 123.951256 115.616714 124.375 115.33902 C 124.801559 115.683929 124.905937 116.104568 124.6875 116.601273 C 124.45594 116.241219 124.195313 116.241219 123.90625 116.601273 C 123.723442 117.358643 123.358749 117.989761 122.8125 118.494667 C 122.383446 118.814964 122.018745 118.814964 121.71875 118.494667 Z" opacity="0.027" stroke="none" fill-rule="evenodd" fill="#f6ae98" id="path66"></path>
    </g>
    <g id="g67">
        <path d="M 143.28125 115.33902 C 143.874374 115.524887 144.499374 115.577591 145.15625 115.496803 C 144.897491 115.785538 144.584991 115.995705 144.21875 116.12793 C 145.355942 116.572884 145.251877 116.941139 143.90625 117.232414 C 143.802185 117.232414 143.697815 117.232414 143.59375 117.232414 C 143.374054 116.533112 142.957489 115.954681 142.34375 115.496803 C 142.639999 115.344391 142.952499 115.291992 143.28125 115.33902 Z" stroke="none" fill-rule="evenodd" fill="#e29d8b" id="path67"></path>
    </g>
    <g id="g68">
        <path d="M 141.71875 116.601273 C 141.985947 116.92662 142.194382 117.294571 142.34375 117.705757 C 141.649384 118.213181 141.232819 118.897018 141.09375 119.756935 C 140.646561 120.160858 140.438126 120.686905 140.46875 121.334747 C 139.769379 121.661987 139.040314 121.714371 138.28125 121.492538 C 137.440933 119.690659 136.294998 118.112846 134.84375 116.759064 C 135.017502 116.638199 135.121567 116.480423 135.15625 116.285706 C 135.746887 115.821823 136.424072 115.506271 137.1875 115.33902 C 137.723114 115.520782 138.087814 115.889053 138.28125 116.443497 C 139.435944 116.263306 140.581558 116.31601 141.71875 116.601273 Z" stroke="none" fill-rule="evenodd" fill="#f8bbad" id="path68"></path>
    </g>
    <g id="g69">
        <path d="M 122.65625 117.547981 C 122.377815 117.740463 122.065315 117.845551 121.71875 117.863541 C 121.944061 117.269646 122.256561 117.164566 122.65625 117.547981 Z" opacity="0.004" stroke="none" fill-rule="evenodd" fill="#ff6f07" id="path69"></path>
    </g>
    <g id="g70">
        <path d="M 120.78125 116.91684 C 120.841248 117.56218 120.841248 118.193314 120.78125 118.810242 C 120.000313 118.211922 120.000313 117.580795 120.78125 116.91684 Z" opacity="0.016" stroke="none" fill-rule="evenodd" fill="#2d1e15" id="path70"></path>
    </g>
    <g id="g71">
        <path d="M 121.71875 117.863541 C 121.71875 118.074013 121.71875 118.284187 121.71875 118.494667 C 120.958435 118.163956 120.958435 117.953796 121.71875 117.863541 Z" opacity="0.004" stroke="none" fill-rule="evenodd" fill="#fd4725" id="path71"></path>
    </g>
    <g id="g72">
        <path d="M 135.15625 116.285706 C 135.121567 116.480423 135.017502 116.638199 134.84375 116.759064 C 136.294998 118.112846 137.440933 119.690659 138.28125 121.492538 C 139.040314 121.714371 139.769379 121.661987 140.46875 121.334747 C 140.444687 121.729218 140.236252 121.992088 139.84375 122.123672 C 137.69313 122.585968 136.494995 121.691658 136.25 119.441368 C 135.612808 118.692215 134.883743 118.061081 134.0625 117.547981 C 133.797821 116.604446 134.162506 116.183472 135.15625 116.285706 Z" stroke="none" fill-rule="evenodd" fill="#db9180" id="path72"></path>
    </g>
    <g id="g73">
        <path d="M 91.71875 117.232414 C 92.700943 117.432472 93.482193 117.958199 94.0625 118.810242 C 94.18219 118.634789 94.33844 118.529694 94.53125 118.494667 C 94.734688 118.308167 94.943123 118.098 95.15625 117.863541 C 95.44812 118.366867 95.44812 118.892601 95.15625 119.441368 C 94.84938 119.643646 94.53688 119.853806 94.21875 120.072495 C 93.868126 119.715912 93.451256 119.505417 92.96875 119.441368 C 92.077507 118.939301 91.140007 118.518646 90.15625 118.179108 C 90.121567 117.984398 90.017502 117.826622 89.84375 117.705757 C 89.09375 117.647064 88.364372 117.489288 87.65625 117.232414 C 89.001877 116.941139 90.355942 116.941139 91.71875 117.232414 Z" stroke="none" fill-rule="evenodd" fill="#1b3c69" id="path73"></path>
    </g>
    <g id="g74">
        <path d="M 143.59375 117.232414 C 143.697815 117.232414 143.802185 117.232414 143.90625 117.232414 C 143.90625 117.442886 143.90625 117.653061 143.90625 117.863541 C 142.950623 118.63887 142.221252 119.585579 141.71875 120.703621 C 141.468124 121.161827 141.311874 121.687561 141.25 122.281456 C 141.145935 122.176361 141.041565 122.070969 140.9375 121.965889 C 140.93187 121.241043 140.984055 120.504501 141.09375 119.756935 C 141.232819 118.897018 141.649384 118.213181 142.34375 117.705757 C 142.194382 117.294571 141.985947 116.92662 141.71875 116.601273 C 141.490616 116.218811 141.178116 115.903244 140.78125 115.654579 C 140.9375 115.5495 141.09375 115.444107 141.25 115.33902 C 142.092499 115.930374 142.873749 116.561516 143.59375 117.232414 Z" stroke="none" fill-rule="evenodd" fill="#1f3256" id="path74"></path>
    </g>
    <g id="g75">
        <path d="M 90.15625 118.179108 C 91.139999 118.518646 92.077499 118.939301 92.96875 119.441368 C 93.320313 119.955429 93.73719 120.428757 94.21875 120.861404 C 93.843437 121.146362 93.582809 121.514313 93.4375 121.965889 C 93.304062 121.0214 92.939377 120.863617 92.34375 121.492538 C 93.165627 122.235695 93.061562 122.393478 92.03125 121.965889 C 92.03125 121.545227 92.03125 121.124283 92.03125 120.703621 C 91.618126 120.649979 91.253433 120.755066 90.9375 121.01918 C 90.625 120.177582 90.3125 120.177582 90 121.01918 C 89.296562 120.224922 89.036247 119.278221 89.21875 118.179108 C 89.53125 118.179108 89.84375 118.179108 90.15625 118.179108 Z" stroke="none" fill-rule="evenodd" fill="#e19c8c" id="path75"></path>
    </g>
    <g id="g76">
        <path d="M 145.15625 120.072495 C 144.989059 120.686584 144.572495 121.002159 143.90625 121.01918 C 143.887497 120.847839 143.783432 120.742752 143.59375 120.703621 C 143.021255 120.939667 142.50032 121.255219 142.03125 121.650314 C 141.754379 121.389969 141.650314 121.074402 141.71875 120.703621 C 142.221252 119.585579 142.950623 118.63887 143.90625 117.863541 C 144.293121 117.575752 144.709991 117.523041 145.15625 117.705757 C 144.128433 118.150696 143.607498 118.939621 143.59375 120.072495 C 143.90625 120.072495 144.21875 120.072495 144.53125 120.072495 C 144.739685 117.968628 144.947815 117.968628 145.15625 120.072495 Z" stroke="none" fill-rule="evenodd" fill="#d59787" id="path76"></path>
    </g>
    <g id="g77">
        <path d="M 95.15625 119.441368 C 95.364685 119.441368 95.572815 119.441368 95.78125 119.441368 C 95.428123 120.014122 95.220001 120.645248 95.15625 121.334747 C 95.714996 121.24482 96.235931 121.349899 96.71875 121.650314 C 96.68 121.841866 96.575935 121.94696 96.40625 121.965889 C 95.415314 122.357498 94.790314 121.989235 94.53125 120.861404 C 94.816879 120.417717 95.024994 119.944374 95.15625 119.441368 Z" stroke="none" fill-rule="evenodd" fill="#d39281" id="path77"></path>
    </g>
    <g id="g78">
        <path d="M 146.09375 115.02346 C 146.878754 115.571587 147.191254 116.360504 147.03125 117.390198 C 146.818756 120.44297 145.256256 122.441437 142.34375 123.385918 C 140.566559 123.634918 138.795944 123.897781 137.03125 124.174843 C 136.980637 123.535187 137.032822 122.904053 137.1875 122.281456 C 137.593445 122.748482 138.11438 122.958664 138.75 122.912582 C 139.742188 122.771835 140.731873 122.614044 141.71875 122.439232 C 142.41156 121.895515 143.140625 121.422165 143.90625 121.01918 C 144.572495 121.002159 144.989059 120.686584 145.15625 120.072495 C 145.267502 118.312592 145.580002 116.629684 146.09375 115.02346 Z" stroke="none" fill-rule="evenodd" fill="#e7e1ea" id="path78"></path>
    </g>
    <g id="g79">
        <path d="M 92.96875 119.441368 C 93.451248 119.505417 93.868118 119.715912 94.21875 120.072495 C 94.536873 119.853806 94.849373 119.643646 95.15625 119.441368 C 95.024994 119.944374 94.816872 120.417717 94.53125 120.861404 C 94.790314 121.989235 95.415314 122.357498 96.40625 121.965889 C 96.757813 122.329422 96.757813 122.644989 96.40625 122.912582 C 95.728752 122.555984 94.999367 122.555984 94.21875 122.912582 C 93.092812 122.751961 92.051247 122.436386 91.09375 121.965889 C 91.052811 121.732666 91.105003 121.522202 91.25 121.334747 C 91.471252 121.61277 91.731873 121.822922 92.03125 121.965889 C 93.061562 122.393478 93.165627 122.235695 92.34375 121.492538 C 92.939377 120.863617 93.304062 121.0214 93.4375 121.965889 C 93.582809 121.514313 93.843437 121.146362 94.21875 120.861404 C 93.73719 120.428757 93.320313 119.955429 92.96875 119.441368 Z" opacity="0.91" stroke="none" fill-rule="evenodd" fill="#58413f" id="path79"></path>
    </g>
    <g id="g80">
        <path d="M 91.09375 121.965889 C 92.051247 122.436386 93.092812 122.751961 94.21875 122.912582 C 94.999374 122.555984 95.728752 122.555984 96.40625 122.912582 C 91.942505 124.31842 88.921875 122.740585 87.34375 118.179108 C 88.056877 117.737312 88.525627 117.947472 88.75 118.810242 C 88.854065 119.441368 88.958435 120.072495 89.0625 120.703621 C 89.728745 121.154259 90.405945 121.574898 91.09375 121.965889 Z" stroke="none" fill-rule="evenodd" fill="#e2dfe6" id="path80"></path>
    </g>
    <g id="g81">
        <path d="M 64.84375 147.842209 C 65.15625 147.42157 65.46875 147.42157 65.78125 147.842209 C 65.46875 147.842209 65.15625 147.842209 64.84375 147.842209 Z" opacity="0.004" stroke="none" fill-rule="evenodd" fill="#000000" id="path81"></path>
    </g>
</svg>
