<svg version="1.1" xmlns="http://www.w3.org/2000/svg" xmlns:xlink="http://www.w3.org/1999/xlink" width="42.76958" height="38.12722" viewBox="0,0,42.76958,38.12722"><g transform="translate(-214.81388,-166.77009)"><g data-paper-data="{&quot;isPaintingLayer&quot;:true}" fill-rule="nonzero" stroke-linecap="butt" stroke-linejoin="miter" stroke-miterlimit="10" stroke-dasharray="" stroke-dashoffset="0" style="mix-blend-mode: normal"><path d="M214.83893,185.97726v-2.75643c0,0 -0.51628,-9.88574 3.13892,-13.83693c2.85102,-3.08188 4.70839,-2.58415 4.70839,-2.58415h27.50439v19.1775z" fill="#fae2bb" stroke="none" stroke-width="0"/><path d="M250.25136,185.69014v19.1775h-27.50439c0,0 -1.85737,0.49774 -4.70838,-2.58415c-3.65519,-3.95119 -3.13892,-13.83693 -3.13892,-13.83693v-2.75643z" data-paper-data="{&quot;index&quot;:null}" fill="#fae2bb" stroke="none" stroke-width="0"/><path d="M222.17637,185.97726v-19.1775h27.50439c0,0 1.85737,-0.49774 4.70838,2.58415c3.65519,3.95119 3.13892,13.83693 3.13892,13.83693v2.75643z" data-paper-data="{&quot;index&quot;:null}" fill="#fae2bb" stroke="none" stroke-width="0"/><path d="M257.55842,185.69014v2.75642c0,0 0.51628,9.88574 -3.13892,13.83693c-2.85102,3.08189 -4.70838,2.58415 -4.70838,2.58415h-27.50439v-19.17749z" data-paper-data="{&quot;index&quot;:null}" fill="#fae2bb" stroke="none" stroke-width="0"/><path d="M220.82441,184.1734l12.28745,-12.73046l0.18439,24.98604z" data-paper-data="{&quot;origRot&quot;:0}" fill="#000000" stroke="none" stroke-width="NaN"/><path d="M232.01197,187.5174v-7.13572l18.24922,3.03648l-0.03036,1.82188z" fill="#000000" stroke="#000000" stroke-width="0"/></g></g></svg>