<svg version="1.1" xmlns="http://www.w3.org/2000/svg" xmlns:xlink="http://www.w3.org/1999/xlink" width="39.00208" height="35.68303" viewBox="0,0,39.00208,35.68303"><g transform="translate(-215.18085,-169.83652)"><g data-paper-data="{&quot;isPaintingLayer&quot;:true}" fill-rule="nonzero" stroke-linejoin="miter" stroke-miterlimit="10" stroke-dasharray="" stroke-dashoffset="0" style="mix-blend-mode: normal"><g fill="#fae2bb" stroke="none" stroke-width="0" stroke-linecap="butt"><path d="M215.20428,187.7981v-2.57767c0,0 -0.48279,-9.24464 2.93536,-12.93959c2.66613,-2.88202 4.40304,-2.41657 4.40304,-2.41657h25.7207v17.93382z" data-paper-data="{&quot;origPos&quot;:null}"/><path d="M248.26338,187.55799v17.93382h-25.7207c0,0 -1.73692,0.46545 -4.40304,-2.41657c-3.41815,-3.69495 -2.93536,-12.93959 -2.93536,-12.93959v-2.57767z" data-paper-data="{&quot;origPos&quot;:null,&quot;index&quot;:null}"/><path d="M221.10042,187.7981v-17.93382h25.7207c0,0 1.73692,-0.46545 4.40303,2.41657c3.41815,3.69495 2.93536,12.93959 2.93536,12.93959v2.57767z" data-paper-data="{&quot;origPos&quot;:null,&quot;index&quot;:null}"/></g><path d="M254.15951,187.55799v2.57766c0,0 0.48279,9.24464 -2.93536,12.93959c-2.66613,2.88202 -4.40303,2.41656 -4.40303,2.41656h-25.7207v-17.93381z" data-paper-data="{&quot;origPos&quot;:null,&quot;index&quot;:null}" fill="#fae2bb" stroke="none" stroke-width="0" stroke-linecap="butt"/><g data-paper-data="{&quot;origPos&quot;:null}"><path d="M227.65992,188.99365c0.93473,0 1.78158,0.37946 2.39547,0.99261c0.61308,0.61382 0.99261,1.46067 0.99261,2.3954c0,0.93473 -0.37952,1.78152 -0.99261,2.3954c-0.61389,0.61315 -1.46074,0.99261 -2.39547,0.99261c-0.93466,0 -1.78152,-0.37946 -2.3954,-0.99261c-0.61315,-0.61389 -0.99261,-1.46067 -0.99261,-2.3954c0,-0.93473 0.37946,-1.78158 0.99261,-2.3954c0.61389,-0.61315 1.46074,-0.99261 2.3954,-0.99261z" fill="#000000" stroke="none" stroke-width="1.09616" stroke-linecap="butt"/><path d="M239.78932,192.80288c0.93473,0 1.78158,0.37946 2.39547,0.99261c0.61308,0.61382 0.99261,1.46067 0.99261,2.3954c0,0.93473 -0.37952,1.78152 -0.99261,2.3954c-0.61389,0.61315 -1.46074,0.99261 -2.39547,0.99261c-0.93466,0 -1.78152,-0.37946 -2.3954,-0.99261c-0.61315,-0.61389 -0.99261,-1.46067 -0.99261,-2.3954c0,-0.93473 0.37946,-1.78158 0.99261,-2.3954c0.61389,-0.61315 1.46074,-0.99261 2.3954,-0.99261z" fill="#000000" stroke="none" stroke-width="1.09616" stroke-linecap="butt"/><path d="M230.27619,192.32479v-16.04275l12.30676,3.40632l-0.07324,15.78639" data-paper-data="{&quot;origPos&quot;:null}" fill="none" stroke="#000000" stroke-width="2.19231" stroke-linecap="round"/></g><path d="M245.5,200l-24,-28" fill="none" stroke="#000000" stroke-width="3" stroke-linecap="round"/></g></g></svg>