<svg xmlns="http://www.w3.org/2000/svg" viewBox="0 0 200 118" height="118" width="200">
    <g id="Group">
        <path d="M 105.125 32.33049 C 105.039497 32.541336 104.873001 32.625366 104.625 32.582092 C 104.026497 32.71167 103.443001 32.879227 102.875 33.085289 C 101.747002 31.971199 100.41375 31.174644 98.875 30.695099 C 96.875 30.527283 94.875 30.527283 92.875 30.695099 C 91.470497 31.149734 90.220497 31.862518 89.125 32.833687 C 89.166748 32.917473 89.208252 33.001503 89.25 33.085289 C 89.685249 32.768776 90.143501 32.517181 90.625 32.33049 C 93.885498 31.303963 97.135498 31.345985 100.375 32.456291 C 101.2155 32.794197 101.9655 33.255371 102.625 33.84008 C 102.791748 33.84008 102.875 33.923866 102.875 34.091682 C 102.641502 34.36039 102.557999 34.695778 102.625 35.098083 C 98.638252 34.242897 94.721497 34.494499 90.875 35.852875 C 90.004753 36.134918 89.337997 36.638115 88.875 37.362473 C 88.714752 37.609543 88.548248 37.861145 88.375 38.117271 C 89.446747 39.161903 90.696747 39.958725 92.125 40.507462 C 93.419746 40.750504 94.669746 41.044121 95.875 41.388062 C 96.093498 41.64595 96.385246 41.813766 96.75 41.891258 C 97.610252 41.669342 98.485252 41.585312 99.375 41.639656 C 98.842247 41.84446 98.259003 41.970261 97.625 42.017059 C 98.202499 42.142105 98.785751 42.183861 99.375 42.14286 C 99.410004 42.551453 99.243248 42.844818 98.875 43.023453 C 97.553253 43.277817 96.219749 43.487396 94.875 43.652451 C 95.178497 44.047211 95.595253 44.25679 96.125 44.281448 C 98.522247 44.540855 99.355499 44.498833 98.625 44.155655 C 101.1455 44.270378 102.728752 43.096169 103.375 40.633263 C 103.944252 40.872032 104.444252 41.207405 104.875 41.639656 C 106.402 42.609833 108.068748 42.987228 109.875 42.771858 C 110.208252 43.023453 110.208252 43.275055 109.875 43.526649 C 107.902496 44.06105 107.985748 44.438446 110.125 44.658852 C 110.179749 44.954475 110.096497 45.20607 109.875 45.413643 C 108.917 45.714554 108.000252 46.050194 107.125 46.420044 C 104.835747 46.711403 102.502251 46.753159 100.125 46.545845 C 98.432999 46.103027 96.766502 45.641594 95.125 45.162048 C 93.170502 44.155655 91.128754 43.31707 89 42.646057 C 88.445 42.657372 88.07 42.908974 87.875 43.400848 C 88.2845 44.106339 88.742752 44.777351 89.25 45.413643 C 89.532249 45.826523 89.907249 46.078117 90.375 46.168442 C 91.295998 47.303162 92.462753 48.057953 93.875 48.432838 C 94.592499 49.01001 95.425751 49.345634 96.375 49.439232 C 97.40625 50.008598 98.489754 50.428017 99.625 50.697227 C 100.553497 51.081169 101.428497 51.584366 102.25 52.206825 C 102.57225 52.924141 102.69725 53.678932 102.625 54.471218 C 102.30175 54.923088 101.92675 55.342503 101.5 55.72921 C 101.387253 57.194023 101.762253 58.535797 102.625 59.754795 C 102.572746 59.902233 102.48925 60.028034 102.375 60.132198 C 101.133499 60.389835 99.925247 60.767235 98.75 61.264393 C 97.661499 60.294479 96.536499 59.371864 95.375 58.496803 C 95.2285 57.908062 94.9785 57.362843 94.625 56.861404 C 93.270752 56.272411 91.937248 55.685432 90.625 55.100212 C 89.060753 53.636414 88.102501 51.833206 87.75 49.690834 C 87.376747 47.645088 86.876747 45.632294 86.25 43.652451 C 85.933502 39.999992 86.183502 36.393814 87 32.833687 C 88.759247 29.135941 91.634247 26.829521 95.625 25.914711 C 98.722252 25.224075 101.722252 25.47567 104.625 26.66951 C 105.64875 27.237877 106.565498 27.950912 107.375 28.808105 C 107.636002 29.378731 107.67775 29.965714 107.5 30.569298 C 106.873749 31.412903 106.082253 31.999886 105.125 32.33049 Z" stroke="none" fill-rule="evenodd" fill="#925dae" id="Path"></path>
    </g>
    <g id="g1">
        <path d="M 102.625 33.84008 C 101.9655 33.255371 101.2155 32.794197 100.375 32.456291 C 97.135498 31.345985 93.885498 31.303963 90.625 32.33049 C 93.028999 31.035759 95.612503 30.574577 98.375 30.946693 C 100.247749 31.297173 101.664497 32.261559 102.625 33.84008 Z" opacity="0.973" stroke="none" fill-rule="evenodd" fill="#7d3aa1" id="path1"></path>
    </g>
    <g id="g2">
        <path d="M 87.625 30.066093 C 85.167747 33.952553 84.167747 38.229736 84.625 42.897652 C 84.834999 47.353218 85.584999 51.714195 86.875 55.980808 C 87.129501 55.806454 87.379501 55.638889 87.625 55.477612 C 87.625 55.56139 87.625 55.645432 87.625 55.72921 C 87.141998 56.402744 87.016998 57.157539 87.25 57.993603 C 87.828751 59.034721 88.537003 59.957333 89.375 60.761192 C 89.941498 61.751488 90.691498 62.590069 91.625 63.277187 C 93.260246 65.025543 95.177002 66.40934 97.375 67.428566 C 96.824997 68.483528 97.074997 69.406143 98.125 70.196159 C 98.486 70.39267 98.819252 70.350647 99.125 70.070358 C 98.69725 69.632576 98.488998 69.129387 98.5 68.560768 C 99.250504 69.712845 100.292252 70.38385 101.625 70.573563 C 102.083252 70.552177 102.416496 70.384361 102.625 70.070358 C 103.007004 70.074631 103.132004 70.242455 103 70.573563 C 101.837753 71.272003 100.712753 71.18821 99.625 70.32196 C 99.005249 70.929321 98.338753 70.971085 97.625 70.447762 C 97.006752 69.464264 96.506752 68.415848 96.125 67.30278 C 94.738747 66.648865 93.488747 65.810028 92.375 64.786781 C 90.377502 63.036156 88.66925 61.023365 87.25 58.748402 C 86.946999 59.549744 86.863503 60.388325 87 61.264393 C 86.733749 63.07616 85.692001 63.830956 83.875 63.528782 C 81.994003 63.391163 80.160751 63.01376 78.375 62.396587 C 76.369247 61.388432 74.452499 60.256233 72.625 59 C 72.625 58.832184 72.708252 58.748402 72.875 58.748402 C 75.963753 60.637661 79.255501 62.063221 82.75 63.025589 C 83.434998 62.959919 84.101501 62.959919 84.75 63.025589 C 85.5765 62.864563 86.0765 62.361366 86.25 61.515991 C 86.55175 60.601933 86.67675 59.721336 86.625 58.874199 C 85.464996 54.049034 84.548248 49.184868 83.875 44.281448 C 83.974998 41.577766 84.18325 38.768158 84.5 35.852875 C 84.869499 34.275604 85.411247 32.766014 86.125 31.324097 C 86.709 30.945686 87.167252 30.44249 87.5 29.814499 C 87.599747 29.871864 87.641251 29.955902 87.625 30.066093 Z" opacity="0.722" stroke="none" fill-rule="evenodd" fill="#0e080f" id="path2"></path>
    </g>
    <g id="g3">
        <path d="M 102.875 34.091682 C 103.521248 35.154945 103.771248 36.245125 103.625 37.362473 C 102.532249 36.225502 101.198753 35.638519 99.625 35.60128 C 99.270248 35.362015 98.853752 35.278229 98.375 35.349678 C 95.063499 35.096313 91.896751 35.767334 88.875 37.362473 C 89.337997 36.638115 90.004753 36.134918 90.875 35.852875 C 94.721497 34.494499 98.638252 34.242897 102.625 35.098083 C 102.557999 34.695778 102.641502 34.36039 102.875 34.091682 Z" opacity="0.973" stroke="none" fill-rule="evenodd" fill="#7d3ba0" id="path3"></path>
    </g>
    <g id="g4">
        <path d="M 129.125 38.117271 C 129.418747 38.062172 129.668747 38.145958 129.875 38.368874 C 129.512253 38.722618 129.179001 39.100021 128.875 39.50106 C 129.477997 40.013069 129.311249 40.264671 128.375 40.255867 C 128.083252 40.717049 127.791748 41.178474 127.5 41.639656 C 127.320503 41.878929 127.112251 41.920692 126.875 41.765457 C 127.223251 40.910278 127.514999 40.029678 127.75 39.123665 C 128.203003 38.752052 128.661255 38.416672 129.125 38.117271 Z" opacity="0.004" stroke="none" fill-rule="evenodd" fill="#000002" id="path4"></path>
    </g>
    <g id="g5">
        <path d="M 115.625 39.878464 C 115.541748 39.878464 115.458252 39.878464 115.375 39.878464 C 112.987747 41.255722 110.404503 41.716904 107.625 41.26226 C 106.429253 41.007133 105.262749 40.755539 104.125 40.507462 C 104.62075 40.982735 105.204002 41.318115 105.875 41.513855 C 105.55175 41.637138 105.218246 41.679153 104.875 41.639656 C 104.444252 41.207405 103.944252 40.872032 103.375 40.633263 C 103.407753 40.412857 103.324501 40.245049 103.125 40.130066 C 102.208748 40.716293 101.208748 41.093697 100.125 41.26226 C 98.710747 41.387802 97.293999 41.429832 95.875 41.388062 C 94.669746 41.044121 93.419746 40.750504 92.125 40.507462 C 90.696747 39.958725 89.446747 39.161903 88.375 38.117271 C 88.548248 37.861145 88.714752 37.609543 88.875 37.362473 C 91.896751 35.767334 95.063499 35.096313 98.375 35.349678 C 97.361252 35.268166 96.361252 35.351944 95.375 35.60128 C 94.91375 36.367653 94.66375 37.206482 94.625 38.117271 C 94.541748 38.117271 94.458252 38.117271 94.375 38.117271 C 94.375 37.446259 94.375 36.77549 94.375 36.104477 C 92.282997 36.134666 90.449501 36.805687 88.875 38.117271 C 91.445 40.085785 94.361504 41.0084 97.625 40.884865 C 99.366501 40.995567 101.033249 40.70195 102.625 40.004265 C 103.827499 39.160156 103.911003 38.237785 102.875 37.236671 C 101.853249 36.460991 100.769997 36.083588 99.625 36.104477 C 99.291748 35.936661 99.291748 35.769096 99.625 35.60128 C 101.198753 35.638519 102.532249 36.225502 103.625 37.362473 C 103.771248 36.245125 103.521248 35.154945 102.875 34.091682 C 102.875 33.923866 102.791748 33.84008 102.625 33.84008 C 101.664497 32.261559 100.247749 31.297173 98.375 30.946693 C 95.612503 30.574577 93.028999 31.035759 90.625 32.33049 C 90.143501 32.517181 89.685249 32.768776 89.25 33.085289 C 89.208252 33.001503 89.166748 32.917473 89.125 32.833687 C 90.220497 31.862518 91.470497 31.149734 92.875 30.695099 C 94.875 30.527283 96.875 30.527283 98.875 30.695099 C 100.41375 31.174644 101.747002 31.971199 102.875 33.085289 C 103.450752 34.022499 103.909248 35.028893 104.25 36.104477 C 106.009499 34.833649 107.967751 34.372467 110.125 34.720688 C 108.685501 34.842705 107.268753 35.094307 105.875 35.475479 C 103.470253 37.032127 103.553497 37.325737 106.125 36.356079 C 106.373001 36.312805 106.539497 36.396828 106.625 36.607681 C 104.657501 36.801414 103.740997 37.891586 103.875 39.878464 C 105.111252 40.21032 106.361252 40.503937 107.625 40.759064 C 109.08725 40.964867 110.503754 40.923096 111.875 40.633263 C 111.958252 40.633263 112.041748 40.633263 112.125 40.633263 C 113.543999 40.381409 114.627251 39.62661 115.375 38.368874 C 114.442253 37.351402 113.359001 36.848206 112.125 36.859276 C 111.7565 36.623772 111.5065 36.288139 111.375 35.852875 C 112.949753 36.183975 114.366501 36.854996 115.625 37.865669 C 115.6745 35.503403 114.591248 33.784233 112.375 32.707893 C 109.740501 31.770935 107.157249 31.896736 104.625 33.085289 C 104.384247 32.967041 104.384247 32.799217 104.625 32.582092 C 104.873001 32.625366 105.039497 32.541336 105.125 32.33049 C 107.544998 31.676834 109.961746 31.676834 112.375 32.33049 C 112.630249 32.204185 112.671997 32.036621 112.5 31.827293 C 107.319252 25.354652 100.777496 23.383881 92.875 25.914711 C 91.875999 26.333122 90.959251 26.87809 90.125 27.55011 C 89.362999 28.484795 88.529747 29.32338 87.625 30.066093 C 87.641251 29.955902 87.599747 29.871864 87.5 29.814499 C 87.167252 30.44249 86.709 30.945686 86.125 31.324097 C 86.441254 30.563004 86.858002 29.850227 87.375 29.185501 C 85.722504 27.869888 84.639 26.192482 84.125 24.153519 C 84.368248 22.69133 85.201752 21.726868 86.625 21.260132 C 88.332748 21.410004 90.082748 21.535805 91.875 21.637527 C 92.293747 20.654381 92.585251 19.606064 92.75 18.492538 C 93.188499 16.791626 94.271751 15.952972 96 15.976547 C 97.505249 16.041969 98.880249 16.50322 100.125 17.360344 C 101.041748 18.584091 102.041748 19.716286 103.125 20.756927 C 103.983498 20.14431 104.900002 19.641106 105.875 19.247337 C 107.679497 19.472824 108.679497 20.563072 108.875 22.51812 C 108.591499 23.813911 108.175003 25.071907 107.625 26.292107 C 109.266251 27.564697 110.807747 28.990257 112.25 30.569298 C 112.730003 31.283585 113.146751 32.038383 113.5 32.833687 C 116.05925 34.646202 116.767754 36.994629 115.625 39.878464 Z" opacity="0.957" stroke="none" fill-rule="evenodd" fill="#191419" id="path5"></path>
    </g>
    <g id="g6">
        <path d="M 106.625 36.607681 C 106.62925 37.127228 106.712502 37.630432 106.875 38.117271 C 106.132248 38.100914 105.4655 38.310745 104.875 38.746269 C 105.041748 38.914078 105.208252 39.081657 105.375 39.249466 C 106.74025 39.852806 108.156998 40.272217 109.625 40.507462 C 110.370499 40.632759 111.120499 40.674767 111.875 40.633263 C 110.503754 40.923096 109.08725 40.964867 107.625 40.759064 C 106.361252 40.503937 105.111252 40.21032 103.875 39.878464 C 103.740997 37.891586 104.657501 36.801414 106.625 36.607681 Z" opacity="0.973" stroke="none" fill-rule="evenodd" fill="#cfa3dc" id="path6"></path>
    </g>
    <g id="g7">
        <path d="M 106.875 38.117271 C 108.021751 39.802986 109.605003 40.431992 111.625 40.004265 C 112.047997 39.675423 112.381248 39.298027 112.625 38.87207 C 112.805496 38.766899 112.930496 38.599342 113 38.368874 C 113.377251 38.517311 113.752251 38.684875 114.125 38.87207 C 113.556999 39.413261 112.890251 39.790657 112.125 40.004265 C 111.850502 40.198006 111.850502 40.407578 112.125 40.633263 C 112.041748 40.633263 111.958252 40.633263 111.875 40.633263 C 111.120499 40.674767 110.370499 40.632759 109.625 40.507462 C 108.156998 40.272217 106.74025 39.852806 105.375 39.249466 C 105.208252 39.081657 105.041748 38.914078 104.875 38.746269 C 105.4655 38.310745 106.132248 38.100914 106.875 38.117271 Z" opacity="0.973" stroke="none" fill-rule="evenodd" fill="#f8d6f6" id="path7"></path>
    </g>
    <g id="g8">
        <path d="M 112.125 36.859276 C 113.359001 36.848206 114.442253 37.351402 115.375 38.368874 C 114.627251 39.62661 113.543999 40.381409 112.125 40.633263 C 111.850502 40.407578 111.850502 40.198006 112.125 40.004265 C 112.890251 39.790657 113.556999 39.413261 114.125 38.87207 C 113.752251 38.684875 113.377251 38.517311 113 38.368874 C 112.930496 38.599342 112.805496 38.766899 112.625 38.87207 C 112.722252 38.103943 112.555748 37.432922 112.125 36.859276 Z" opacity="0.973" stroke="none" fill-rule="evenodd" fill="#dbade7" id="path8"></path>
    </g>
    <g id="g9">
        <path d="M 94.375 38.117271 C 93.466003 38.197533 92.632751 38.490891 91.875 38.997871 C 92.041748 39.16568 92.208252 39.333252 92.375 39.50106 C 95.733002 40.816681 99.066254 40.816681 102.375 39.50106 C 102.658501 39.245445 102.575249 39.077629 102.125 38.997871 C 101.565002 38.752052 100.98175 38.626259 100.375 38.620468 C 100.423248 37.677483 100.173248 36.838646 99.625 36.104477 C 100.769997 36.083588 101.853249 36.460991 102.875 37.236671 C 103.911003 38.237785 103.827499 39.160156 102.625 40.004265 C 101.033249 40.70195 99.366501 40.995567 97.625 40.884865 C 94.361504 41.0084 91.445 40.085785 88.875 38.117271 C 90.449501 36.805687 92.282997 36.134666 94.375 36.104477 C 94.375 36.77549 94.375 37.446259 94.375 38.117271 Z" opacity="0.973" stroke="none" fill-rule="evenodd" fill="#daace7" id="path9"></path>
    </g>
    <g id="g10">
        <path d="M 94.375 38.117271 C 94.458252 38.117271 94.541748 38.117271 94.625 38.117271 C 95.181999 39.407219 96.181999 40.078239 97.625 40.130066 C 98.875 40.178619 99.791748 39.675423 100.375 38.620468 C 100.98175 38.626259 101.565002 38.752052 102.125 38.997871 C 102.575249 39.077629 102.658501 39.245445 102.375 39.50106 C 99.066254 40.816681 95.733002 40.816681 92.375 39.50106 C 92.208252 39.333252 92.041748 39.16568 91.875 38.997871 C 92.632751 38.490891 93.466003 38.197533 94.375 38.117271 Z" opacity="0.973" stroke="none" fill-rule="evenodd" fill="#f9d9f5" id="path10"></path>
    </g>
    <g id="g11">
        <path d="M 111.375 35.852875 C 111.5065 36.288139 111.7565 36.623772 112.125 36.859276 C 112.555748 37.432922 112.722252 38.103943 112.625 38.87207 C 112.381248 39.298027 112.047997 39.675423 111.625 40.004265 C 109.605003 40.431992 108.021751 39.802986 106.875 38.117271 C 106.712502 37.630432 106.62925 37.127228 106.625 36.607681 C 106.539497 36.396828 106.373001 36.312805 106.125 36.356079 C 106.152748 36.200844 106.236 36.075043 106.375 35.978676 C 108.039497 35.852875 109.706253 35.811111 111.375 35.852875 Z" opacity="0.97" stroke="none" fill-rule="evenodd" fill="#0a0809" id="path11"></path>
    </g>
    <g id="g12">
        <path d="M 98.375 35.349678 C 98.853752 35.278229 99.270248 35.362015 99.625 35.60128 C 99.291748 35.769096 99.291748 35.936661 99.625 36.104477 C 100.173248 36.838646 100.423248 37.677483 100.375 38.620468 C 99.791748 39.675423 98.875 40.178619 97.625 40.130066 C 96.181999 40.078239 95.181999 39.407219 94.625 38.117271 C 94.66375 37.206482 94.91375 36.367653 95.375 35.60128 C 96.361252 35.351944 97.361252 35.268166 98.375 35.349678 Z" opacity="0.97" stroke="none" fill-rule="evenodd" fill="#070607" id="path12"></path>
    </g>
    <g id="g13">
        <path d="M 111.375 35.852875 C 109.706253 35.811111 108.039497 35.852875 106.375 35.978676 C 106.236 36.075043 106.152748 36.200844 106.125 36.356079 C 103.553497 37.325737 103.470253 37.032127 105.875 35.475479 C 107.268753 35.094307 108.685501 34.842705 110.125 34.720688 C 107.967751 34.372467 106.009499 34.833649 104.25 36.104477 C 103.909248 35.028893 103.450752 34.022499 102.875 33.085289 C 103.443001 32.879227 104.026497 32.71167 104.625 32.582092 C 104.384247 32.799217 104.384247 32.967041 104.625 33.085289 C 107.157249 31.896736 109.740501 31.770935 112.375 32.707893 C 114.591248 33.784233 115.6745 35.503403 115.625 37.865669 C 114.366501 36.854996 112.949753 36.183975 111.375 35.852875 Z" opacity="0.973" stroke="none" fill-rule="evenodd" fill="#7b389f" id="path13"></path>
    </g>
    <g id="g14">
        <path d="M 104.625 20.756927 C 104.134003 21.754295 103.384003 22.509094 102.375 23.021324 C 102.494247 23.267281 102.660751 23.476944 102.875 23.650322 C 105.197502 24.058365 106.072502 23.09391 105.5 20.756927 C 105.404251 20.617035 105.279251 20.533188 105.125 20.505325 C 106.460999 19.680687 107.502502 20.016144 108.25 21.511726 C 108.416748 22.098785 108.416748 22.68586 108.25 23.272926 C 107.726753 24.242836 107.26825 25.249237 106.875 26.292107 C 103.72525 24.701477 100.391998 24.030533 96.875 24.279312 C 98.489998 22.781113 99.031754 20.936073 98.5 18.744133 C 97.775749 17.572968 96.734253 17.195564 95.375 17.611938 C 94.071251 18.577583 93.529503 19.877495 93.75 21.511726 C 93.218498 22.597626 92.343498 23.142769 91.125 23.147125 C 89.708252 23.23098 88.291748 23.314857 86.875 23.39872 C 85.793747 23.934349 85.585251 24.731087 86.25 25.78891 C 86.727249 26.522072 87.393753 26.94149 88.25 27.046913 C 89.2985 26.249588 90.4235 25.53656 91.625 24.908318 C 92.938499 24.588478 94.271751 24.462677 95.625 24.530914 C 92.724747 25.33931 90.141502 26.764862 87.875 28.808105 C 86.953499 27.838943 86.078499 26.83255 85.25 25.78891 C 84.403252 23.297279 85.278252 22.039276 87.875 22.014923 C 88.926003 22.122101 89.967751 22.289856 91 22.51812 C 91.833252 22.51812 92.5 22.182663 93 21.511726 C 92.837502 17.060837 94.795753 15.67704 98.875 17.360344 C 99.410248 17.689331 99.910248 18.066734 100.375 18.492538 C 100.950752 19.440994 101.617249 20.321587 102.375 21.134331 C 103.185249 21.33387 103.935249 21.208069 104.625 20.756927 Z" opacity="0.973" stroke="none" fill-rule="evenodd" fill="#ee3dad" id="path14"></path>
    </g>
    <g id="g15">
        <path d="M 105.125 20.505325 C 105.279251 20.533188 105.404251 20.617035 105.5 20.756927 C 106.072502 23.09391 105.197502 24.058365 102.875 23.650322 C 102.660751 23.476944 102.494247 23.267281 102.375 23.021324 C 103.384003 22.509094 104.134003 21.754295 104.625 20.756927 C 104.791748 20.673073 104.958252 20.589195 105.125 20.505325 Z" opacity="0.973" stroke="none" fill-rule="evenodd" fill="#fe48d7" id="path15"></path>
    </g>
    <g id="g16">
        <path d="M 96.875 24.279312 C 96.489502 24.480766 96.072998 24.564629 95.625 24.530914 C 94.271751 24.462677 92.938499 24.588478 91.625 24.908318 C 90.4235 25.53656 89.2985 26.249588 88.25 27.046913 C 87.393753 26.94149 86.727249 26.522072 86.25 25.78891 C 85.585251 24.731087 85.793747 23.934349 86.875 23.39872 C 88.291748 23.314857 89.708252 23.23098 91.125 23.147125 C 92.343498 23.142769 93.218498 22.597626 93.75 21.511726 C 93.529503 19.877495 94.071251 18.577583 95.375 17.611938 C 96.734253 17.195564 97.775749 17.572968 98.5 18.744133 C 99.031754 20.936073 98.489998 22.781113 96.875 24.279312 Z" opacity="0.973" stroke="none" fill-rule="evenodd" fill="#fe48d7" id="path16"></path>
    </g>
    <g id="g17">
        <path d="M 128.125 39.123665 C 128.664001 39.217262 128.664001 39.468864 128.125 39.878464 C 127.859497 39.645737 127.859497 39.394142 128.125 39.123665 Z" opacity="0.004" stroke="none" fill-rule="evenodd" fill="#000084" id="path17"></path>
    </g>
    <g id="g18">
        <path d="M 142.375 40.381668 C 142.653244 40.745476 142.695007 41.164894 142.5 41.639656 C 142.376495 41.228546 142.335007 40.809128 142.375 40.381668 Z" opacity="0.004" stroke="none" fill-rule="evenodd" fill="#000000" id="path18"></path>
    </g>
    <g id="g19">
        <path d="M 103.375 40.633263 C 102.728752 43.096169 101.1455 44.270378 98.625 44.155655 C 97.900749 44.25 97.234253 44.124199 96.625 43.778252 C 98.248497 43.761139 99.831749 43.509544 101.375 43.023453 C 101.929749 42.57988 102.429749 42.076683 102.875 41.513855 C 101.70475 41.640167 100.538254 41.849747 99.375 42.14286 C 98.785751 42.183861 98.202499 42.142105 97.625 42.017059 C 98.259003 41.970261 98.842247 41.84446 99.375 41.639656 C 100.7845 41.571724 102.117752 41.236343 103.375 40.633263 Z" opacity="0.925" stroke="none" fill-rule="evenodd" fill="#19141b" id="path19"></path>
    </g>
    <g id="g20">
        <path d="M 103.375 40.633263 C 102.117752 41.236343 100.7845 41.571724 99.375 41.639656 C 98.485252 41.585312 97.610252 41.669342 96.75 41.891258 C 96.385246 41.813766 96.093498 41.64595 95.875 41.388062 C 97.293999 41.429832 98.710747 41.387802 100.125 41.26226 C 101.208748 41.093697 102.208748 40.716293 103.125 40.130066 C 103.324501 40.245049 103.407753 40.412857 103.375 40.633263 Z" opacity="0.973" stroke="none" fill-rule="evenodd" fill="#79379d" id="path20"></path>
    </g>
    <g id="g21">
        <path d="M 117.125 41.136459 C 117.752998 41.316605 117.752998 41.568207 117.125 41.891258 C 116.978249 41.706841 116.978249 41.455238 117.125 41.136459 Z" opacity="0.008" stroke="none" fill-rule="evenodd" fill="#060606" id="path21"></path>
    </g>
    <g id="g22">
        <path d="M 98.625 44.155655 C 99.355499 44.498833 98.522247 44.540855 96.125 44.281448 C 95.595253 44.25679 95.178497 44.047211 94.875 43.652451 C 96.219749 43.487396 97.553253 43.277817 98.875 43.023453 C 99.243248 42.844818 99.410004 42.551453 99.375 42.14286 C 100.538254 41.849747 101.70475 41.640167 102.875 41.513855 C 102.429749 42.076683 101.929749 42.57988 101.375 43.023453 C 99.831749 43.509544 98.248497 43.761139 96.625 43.778252 C 97.234253 44.124199 97.900749 44.25 98.625 44.155655 Z" opacity="0.98" stroke="none" fill-rule="evenodd" fill="#7a389e" id="path22"></path>
    </g>
    <g id="g23">
        <path d="M 117.375 43.904053 C 117.57225 43.975258 117.738998 44.101059 117.875 44.281448 C 117.545998 44.414299 117.37925 44.288498 117.375 43.904053 Z" opacity="0.004" stroke="none" fill-rule="evenodd" fill="#000000" id="path23"></path>
    </g>
    <g id="g24">
        <path d="M 105.375 43.904053 C 106.241501 44.057274 106.491501 44.518463 106.125 45.287842 C 105.685249 45.488625 105.268501 45.446602 104.875 45.162048 C 105.237503 44.822388 105.404251 44.403229 105.375 43.904053 Z" stroke="none" fill-rule="evenodd" fill="#1d151b" id="path24"></path>
    </g>
    <g id="g25">
        <path d="M 95.125 45.162048 C 93.098251 44.663887 91.139999 43.992867 89.25 43.149254 C 88.958252 43.23304 88.666748 43.31707 88.375 43.400848 C 88.98275 44.375298 89.649498 45.297905 90.375 46.168442 C 89.907249 46.078117 89.532249 45.826523 89.25 45.413643 C 88.742752 44.777351 88.2845 44.106339 87.875 43.400848 C 88.07 42.908974 88.445 42.657372 89 42.646057 C 91.128754 43.31707 93.170502 44.155655 95.125 45.162048 Z" opacity="0.898" stroke="none" fill-rule="evenodd" fill="#1d1516" id="path25"></path>
    </g>
    <g id="g26">
        <path d="M 103.625 43.904053 C 103.874001 43.882416 104.082253 43.966446 104.25 44.155655 C 104.373497 44.566765 104.415001 44.986176 104.375 45.413643 C 104.041748 45.413643 103.708252 45.413643 103.375 45.413643 C 103.331253 44.880005 103.414749 44.376801 103.625 43.904053 Z" stroke="none" fill-rule="evenodd" fill="#0e080a" id="path26"></path>
    </g>
    <g id="g27">
        <path d="M 95.125 45.162048 C 96.766502 45.641594 98.432999 46.103027 100.125 46.545845 C 102.502251 46.753159 104.835747 46.711403 107.125 46.420044 C 108.57975 46.236382 110.038254 46.068558 111.5 45.916847 C 112.041748 45.958862 112.583252 46.000626 113.125 46.042648 C 113.313004 46.211472 113.3965 46.421051 113.375 46.671638 C 112.917252 46.295502 112.375504 46.127686 111.75 46.168442 C 108.776001 46.72599 105.776001 47.061371 102.75 47.174835 C 100.018753 47.064644 97.476997 46.393875 95.125 45.162048 Z" opacity="0.957" stroke="none" fill-rule="evenodd" fill="#22181b" id="path27"></path>
    </g>
    <g id="g28">
        <path d="M 117.125 46.420044 C 117.444252 46.720451 117.611 47.13961 117.625 47.67804 C 117.583252 48.09745 117.541748 48.516624 117.5 48.936035 C 117.293503 48.107513 117.168503 47.268936 117.125 46.420044 Z" opacity="0.006" stroke="none" fill-rule="evenodd" fill="#000000" id="path28"></path>
    </g>
    <g id="g29">
        <path d="M 95.125 45.162048 C 97.476997 46.393875 100.018753 47.064644 102.75 47.174835 C 105.776001 47.061371 108.776001 46.72599 111.75 46.168442 C 112.375504 46.127686 112.917252 46.295502 113.375 46.671638 C 113.415749 47.264656 113.374252 47.851639 113.25 48.432838 C 112.536247 49.366524 111.661247 50.037285 110.625 50.445625 C 107.984001 50.933731 105.317253 51.059532 102.625 50.823029 C 100.521248 50.438332 98.437752 49.97715 96.375 49.439232 C 95.6175 48.960434 94.784248 48.624809 93.875 48.432838 C 92.710251 47.678787 91.543747 46.923996 90.375 46.168442 C 89.649498 45.297905 88.98275 44.375298 88.375 43.400848 C 88.666748 43.31707 88.958252 43.23304 89.25 43.149254 C 91.139999 43.992867 93.098251 44.663887 95.125 45.162048 Z" opacity="0.973" stroke="none" fill-rule="evenodd" fill="#e68665" id="path29"></path>
    </g>
    <g id="g30">
        <path d="M 105.125 32.33049 C 106.082253 31.999886 106.873749 31.412903 107.5 30.569298 C 107.67775 29.965714 107.636002 29.378731 107.375 28.808105 C 106.565498 27.950912 105.64875 27.237877 104.625 26.66951 C 101.722252 25.47567 98.722252 25.224075 95.625 25.914711 C 91.634247 26.829521 88.759247 29.135941 87 32.833687 C 86.183502 36.393814 85.933502 39.999992 86.25 43.652451 C 86.876747 45.632294 87.376747 47.645088 87.75 49.690834 C 88.102501 51.833206 89.060753 53.636414 90.625 55.100212 C 91.937248 55.685432 93.270752 56.272411 94.625 56.861404 C 94.9785 57.362843 95.2285 57.908062 95.375 58.496803 C 93.413254 57.383728 91.413254 56.335312 89.375 55.351814 C 88.74025 55.151539 88.156998 55.193558 87.625 55.477612 C 87.379501 55.638889 87.129501 55.806454 86.875 55.980808 C 85.584999 51.714195 84.834999 47.353218 84.625 42.897652 C 84.167747 38.229736 85.167747 33.952553 87.625 30.066093 C 88.529747 29.32338 89.362999 28.484795 90.125 27.55011 C 90.959251 26.87809 91.875999 26.333122 92.875 25.914711 C 100.777496 23.383881 107.319252 25.354652 112.5 31.827293 C 112.671997 32.036621 112.630249 32.204185 112.375 32.33049 C 109.961746 31.676834 107.544998 31.676834 105.125 32.33049 Z" stroke="none" fill-rule="evenodd" fill="#7e3ca1" id="path30"></path>
    </g>
    <g id="g31">
        <path d="M 100.125 30.317696 C 100.139999 30.181076 100.223251 30.097298 100.375 30.066093 C 100.698753 30.216553 101.031998 30.342354 101.375 30.443497 C 102.655502 30.520988 103.905502 30.563004 105.125 30.569298 C 104.665749 31.060417 104.082253 31.312012 103.375 31.324097 C 102.194748 31.239555 101.111504 30.903931 100.125 30.317696 Z" stroke="none" fill-rule="evenodd" fill="#231821" id="path31"></path>
    </g>
    <g id="g32">
        <path d="M 100.875 28.808105 C 101.736504 29.167389 102.653252 29.376968 103.625 29.437103 C 102.926498 29.828842 102.176498 29.912628 101.375 29.688698 C 101.04425 29.483391 100.877747 29.189781 100.875 28.808105 Z" stroke="none" fill-rule="evenodd" fill="#1b1318" id="path32"></path>
    </g>
    <g id="g33">
        <path d="M 90.375 46.168442 C 91.543747 46.923996 92.710251 47.678787 93.875 48.432838 C 92.462753 48.057953 91.295998 47.303162 90.375 46.168442 Z" opacity="0.91" stroke="none" fill-rule="evenodd" fill="#1b1317" id="path33"></path>
    </g>
    <g id="g34">
        <path d="M 90.125 44.910446 C 90.139999 44.773827 90.223251 44.690041 90.375 44.658852 C 97.097748 48.015945 104.181 49.148132 111.625 48.055443 C 110.834999 48.400383 110.001503 48.651978 109.125 48.810234 C 107.125 48.97805 105.125 48.97805 103.125 48.810234 C 100.544502 48.27961 97.96125 47.776413 95.375 47.300636 C 93.554001 46.635414 91.804001 45.838593 90.125 44.910446 Z" opacity="0.937" stroke="none" fill-rule="evenodd" fill="#221918" id="path34"></path>
    </g>
    <g id="g35">
        <path d="M 93.875 48.432838 C 94.784248 48.624809 95.6175 48.960434 96.375 49.439232 C 95.425751 49.345634 94.592499 49.01001 93.875 48.432838 Z" opacity="0.925" stroke="none" fill-rule="evenodd" fill="#120e0f" id="path35"></path>
    </g>
    <g id="g36">
        <path d="M 113.375 46.671638 C 113.780502 48.793373 112.863747 50.051369 110.625 50.445625 C 111.661247 50.037285 112.536247 49.366524 113.25 48.432838 C 113.374252 47.851639 113.415749 47.264656 113.375 46.671638 Z" opacity="0.922" stroke="none" fill-rule="evenodd" fill="#22181a" id="path36"></path>
    </g>
    <g id="g37">
        <path d="M 99.625 50.697227 C 100.928497 51.066582 102.261749 51.234398 103.625 51.200424 C 103.574753 52.012589 103.658249 52.80941 103.875 53.590622 C 103.545998 54.008022 103.129501 54.301384 102.625 54.471218 C 102.69725 53.678932 102.57225 52.924141 102.25 52.206825 C 101.428497 51.584366 100.553497 51.081169 99.625 50.697227 Z" opacity="0.971" stroke="none" fill-rule="evenodd" fill="#7b38a0" id="path37"></path>
    </g>
    <g id="g38">
        <path d="M 134.125 50.194031 C 134.742493 51.277916 134.742493 52.368347 134.125 53.464821 C 133.931503 52.384956 133.931503 51.294777 134.125 50.194031 Z" opacity="0.004" stroke="none" fill-rule="evenodd" fill="#8a3eb1" id="path38"></path>
    </g>
    <g id="g39">
        <path d="M 117.375 51.703629 C 117.56675 51.872704 117.733498 52.082283 117.875 52.332626 C 117.872749 52.767883 117.789497 53.229065 117.625 53.716423 C 117.379997 53.065781 117.296753 52.394775 117.375 51.703629 Z" opacity="0.008" stroke="none" fill-rule="evenodd" fill="#080808" id="path39"></path>
    </g>
    <g id="g40">
        <path d="M 115.375 39.878464 C 115.458252 39.878464 115.541748 39.878464 115.625 39.878464 C 115.253754 41.614998 115.003754 43.37619 114.875 45.162048 C 114.966248 47.116219 115.007751 49.212791 115 51.452026 C 115.621246 53.207184 116.496246 54.80056 117.625 56.23241 C 119.366753 58.027821 121.074997 59.873051 122.75 61.76759 C 123.893753 64.530655 123.560501 67.130432 121.75 69.567162 C 121.004997 70.61055 120.129997 71.533165 119.125 72.334755 C 118.264748 75.067368 117.306503 77.667404 116.25 80.134331 C 114.457748 83.277046 112.166252 86.002632 109.375 88.311302 C 110.198997 89.016022 110.282249 89.770828 109.625 90.575691 C 110.218498 91.088707 110.718498 91.67569 111.125 92.336891 C 112.176003 92.370346 113.176003 92.160515 114.125 91.707893 C 114.422249 91.772308 114.713997 91.856079 115 91.959488 C 115.937248 91.128212 116.978996 91.002411 118.125 91.582092 C 118.966499 93.909882 118.466499 95.922684 116.625 97.620468 C 116.125 97.872063 115.625 98.123665 115.125 98.375259 C 113.434502 98.756439 111.767754 99.217621 110.125 99.759056 C 109.453003 99.632004 108.911247 99.296616 108.5 98.752663 C 108.233749 97.332138 107.983749 95.906326 107.75 94.475479 C 107.260002 93.900574 106.718498 93.397377 106.125 92.965881 C 105.297249 93.180496 104.463997 93.138481 103.625 92.840088 C 103.214752 92.55603 102.964752 92.178627 102.875 91.707893 C 103.125 91.707893 103.375 91.707893 103.625 91.707893 C 103.625 91.959488 103.625 92.211082 103.625 92.462685 C 104.225754 92.489609 104.683998 92.238007 105 91.707893 C 105.12075 91.946404 105.162247 92.198006 105.125 92.462685 C 105.628502 92.489861 106.044998 92.322289 106.375 91.959488 C 106.003754 90.704506 106.211998 90.620728 107 91.707893 C 107.798248 91.443718 108.048248 90.940521 107.75 90.198296 C 108.398003 90.571159 108.981247 90.487137 109.5 89.946701 C 109.654251 89.707924 109.612747 89.498337 109.375 89.317696 C 109.05175 89.19442 108.718246 89.15239 108.375 89.191895 C 108.334999 88.764427 108.376503 88.345016 108.5 87.933899 C 114.199753 83.421722 117.491249 77.551155 118.375 70.32196 C 118.364998 69.836624 118.281754 69.375443 118.125 68.938171 C 118.333 68.765076 118.499496 68.807091 118.625 69.063965 C 118.768501 69.737503 118.935249 70.408257 119.125 71.076767 C 120.999496 69.565903 122.166252 67.637154 122.625 65.289978 C 122.556999 64.00708 122.181999 62.832859 121.5 61.76759 C 120.241997 60.417255 118.908752 59.15926 117.5 57.993603 C 116.046753 56.199196 115.046753 54.186405 114.5 51.955223 C 114.416748 48.852249 114.333252 45.749031 114.25 42.646057 C 113.095497 44.043182 111.637253 44.504364 109.875 44.029854 C 110.973999 43.842155 112.057503 43.590561 113.125 43.275055 C 113.60125 42.818398 114.017998 42.315201 114.375 41.765457 C 113.292 41.806465 112.208504 41.932266 111.125 42.14286 C 110.958252 42.14286 110.875 42.059074 110.875 41.891258 C 112.148247 41.710365 113.398247 41.41674 114.625 41.010658 C 115.035248 40.726608 115.285248 40.349213 115.375 39.878464 Z" opacity="0.771" stroke="none" fill-rule="evenodd" fill="#130f10" id="path40"></path>
    </g>
    <g id="g41">
        <path d="M 102.625 70.070358 C 102.416496 70.384361 102.083252 70.552177 101.625 70.573563 C 100.292252 70.38385 99.250504 69.712845 98.5 68.560768 C 98.488998 69.129387 98.69725 69.632576 99.125 70.070358 C 98.819252 70.350647 98.486 70.39267 98.125 70.196159 C 97.074997 69.406143 96.824997 68.483528 97.375 67.428566 C 95.177002 66.40934 93.260246 65.025543 91.625 63.277187 C 92.860497 64.153 94.110497 65.033592 95.375 65.918976 C 95.958252 66.086792 96.541748 66.086792 97.125 65.918976 C 97.37925 65.655045 97.420998 65.361427 97.25 65.038376 C 94.3965 63.006462 91.688248 60.783836 89.125 58.371002 C 88.849998 58.26231 88.68325 58.388107 88.625 58.748402 C 88.877502 59.423439 89.127502 60.094204 89.375 60.761192 C 88.537003 59.957333 87.828751 59.034721 87.25 57.993603 C 87.016998 57.157539 87.141998 56.402744 87.625 55.72921 C 92.598747 56.795235 96.681999 59.31123 99.875 63.277187 C 99.958252 63.193405 100.041748 63.109367 100.125 63.025589 C 99.879997 62.652969 99.588249 62.317333 99.25 62.019192 C 99.078003 61.80986 99.119751 61.642296 99.375 61.515991 C 100.459747 61.180359 101.542999 60.844975 102.625 60.509594 C 102.911751 60.589603 103.120247 60.757168 103.25 61.012794 C 103.416748 60.677414 103.416748 60.341774 103.25 60.006397 C 102.1735 58.765762 101.757004 57.340199 102 55.72921 C 103.098 54.245281 104.431252 53.909897 106 54.722813 C 106.143997 55.195068 106.102249 55.656498 105.875 56.106609 C 105.421997 56.562504 104.963753 57.023689 104.5 57.490406 C 104.333252 57.658226 104.333252 57.825787 104.5 57.993603 C 105.916748 56.987206 107.333252 55.980808 108.75 54.974411 C 109.060249 54.627964 109.101997 54.29258 108.875 53.968018 C 108.57225 54.451591 108.238998 54.912773 107.875 55.351814 C 107.708252 55.51963 107.541748 55.51963 107.375 55.351814 C 107.67775 55.127132 107.67775 54.917553 107.375 54.722813 C 107.103996 55.015926 106.895752 55.351311 106.75 55.72921 C 106.672249 55.211922 106.547249 54.708725 106.375 54.219616 C 107.130501 53.041878 108.213753 52.538681 109.625 52.710022 C 112.737747 53.039871 113.779503 54.717278 112.75 57.742004 C 112.633751 58.102043 112.425247 58.395405 112.125 58.622601 C 112.362251 58.77784 112.570503 58.736073 112.75 58.496803 C 113.09375 57.595573 113.510498 56.756996 114 55.980808 C 115.893753 56.750957 116.393753 58.092731 115.5 60.006397 C 115.041748 60.467575 114.583252 60.929012 114.125 61.39019 C 115.179497 61.106388 115.888 60.393356 116.25 59.251598 C 116.389252 61.696892 115.430748 63.583885 113.375 64.912582 C 110.237251 66.123779 106.987251 66.710754 103.625 66.673775 C 104.068748 67.03582 104.568748 67.287415 105.125 67.428566 C 103.413254 67.638908 101.746498 67.974289 100.125 68.434967 C 104.554497 68.606567 104.638 68.94194 100.375 69.441368 C 101.051498 69.921417 101.801498 70.130997 102.625 70.070358 Z" stroke="none" fill-rule="evenodd" fill="#803ea3" id="path41"></path>
    </g>
    <g id="g42">
        <path d="M 117.625 55.980808 C 117.958252 56.148628 117.958252 56.148628 117.625 55.980808 Z" opacity="0.004" stroke="none" fill-rule="evenodd" fill="#000000" id="path42"></path>
    </g>
    <g id="g43">
        <path d="M 96.375 49.439232 C 98.437752 49.97715 100.521248 50.438332 102.625 50.823029 C 105.317253 51.059532 107.984001 50.933731 110.625 50.445625 C 110.180748 50.722389 109.680748 50.932228 109.125 51.074623 C 108.19725 51.118652 107.280502 51.244453 106.375 51.452026 C 106.648003 52.543465 107.231499 52.837082 108.125 52.332626 C 110.998253 51.637711 112.831497 52.686119 113.625 55.477612 C 115.579498 55.810226 116.621246 56.98444 116.75 59 C 116.934502 59.946266 116.85125 60.868877 116.5 61.76759 C 115.952499 62.704041 115.411003 63.626659 114.875 64.535179 C 111.916496 66.076477 108.749748 66.915306 105.375 67.051178 C 105.647499 67.3302 105.647499 67.581795 105.375 67.805969 C 104.722748 67.989647 104.056 68.115433 103.375 68.183365 C 103.80275 68.46843 103.92775 68.845825 103.75 69.315559 C 103.316498 69.504013 102.858253 69.629807 102.375 69.69297 C 102.514 69.789322 102.597252 69.915123 102.625 70.070358 C 101.801498 70.130997 101.051498 69.921417 100.375 69.441368 C 104.638 68.94194 104.554497 68.606567 100.125 68.434967 C 101.746498 67.974289 103.413254 67.638908 105.125 67.428566 C 104.568748 67.287415 104.068748 67.03582 103.625 66.673775 C 106.987251 66.710754 110.237251 66.123779 113.375 64.912582 C 115.430748 63.583885 116.389252 61.696892 116.25 59.251598 C 115.888 60.393356 115.179497 61.106388 114.125 61.39019 C 114.583252 60.929012 115.041748 60.467575 115.5 60.006397 C 116.393753 58.092731 115.893753 56.750957 114 55.980808 C 113.510498 56.756996 113.09375 57.595573 112.75 58.496803 C 112.570503 58.736073 112.362251 58.77784 112.125 58.622601 C 112.425247 58.395405 112.633751 58.102043 112.75 57.742004 C 113.779503 54.717278 112.737747 53.039871 109.625 52.710022 C 108.213753 52.538681 107.130501 53.041878 106.375 54.219616 C 106.547249 54.708725 106.672249 55.211922 106.75 55.72921 C 106.895752 55.351311 107.103996 55.015926 107.375 54.722813 C 107.67775 54.917553 107.67775 55.127132 107.375 55.351814 C 107.541748 55.51963 107.708252 55.51963 107.875 55.351814 C 108.238998 54.912773 108.57225 54.451591 108.875 53.968018 C 109.101997 54.29258 109.060249 54.627964 108.75 54.974411 C 107.333252 55.980808 105.916748 56.987206 104.5 57.993603 C 104.333252 57.825787 104.333252 57.658226 104.5 57.490406 C 104.963753 57.023689 105.421997 56.562504 105.875 56.106609 C 106.102249 55.656498 106.143997 55.195068 106 54.722813 C 104.431252 53.909897 103.098 54.245281 102 55.72921 C 101.757004 57.340199 102.1735 58.765762 103.25 60.006397 C 103.416748 60.341774 103.416748 60.677414 103.25 61.012794 C 103.120247 60.757168 102.911751 60.589603 102.625 60.509594 C 101.542999 60.844975 100.459747 61.180359 99.375 61.515991 C 99.119751 61.642296 99.078003 61.80986 99.25 62.019192 C 99.588249 62.317333 99.879997 62.652969 100.125 63.025589 C 100.041748 63.109367 99.958252 63.193405 99.875 63.277187 C 96.681999 59.31123 92.598747 56.795235 87.625 55.72921 C 87.625 55.645432 87.625 55.56139 87.625 55.477612 C 88.156998 55.193558 88.74025 55.151539 89.375 55.351814 C 91.413254 56.335312 93.413254 57.383728 95.375 58.496803 C 96.536499 59.371864 97.661499 60.294479 98.75 61.264393 C 99.925247 60.767235 101.133499 60.389835 102.375 60.132198 C 102.48925 60.028034 102.572746 59.902233 102.625 59.754795 C 101.762253 58.535797 101.387253 57.194023 101.5 55.72921 C 101.92675 55.342503 102.30175 54.923088 102.625 54.471218 C 103.129501 54.301384 103.545998 54.008022 103.875 53.590622 C 103.658249 52.80941 103.574753 52.012589 103.625 51.200424 C 102.261749 51.234398 100.928497 51.066582 99.625 50.697227 C 98.489754 50.428017 97.40625 50.008598 96.375 49.439232 Z" stroke="none" fill-rule="evenodd" fill="#190f18" id="path43"></path>
    </g>
    <g id="g44">
        <path d="M 104.125 51.452026 C 104.811752 51.373276 105.4785 51.457062 106.125 51.703629 C 106.281998 52.145935 106.531998 52.523331 106.875 52.835815 C 106.232498 53.620308 105.399002 53.913925 104.375 53.716423 C 104.210251 52.972939 104.126999 52.21814 104.125 51.452026 Z" opacity="0.973" stroke="none" fill-rule="evenodd" fill="#ed3eb0" id="path44"></path>
    </g>
    <g id="g45">
        <path d="M 70.125 57.238808 C 71.233253 57.418449 72.150002 57.921646 72.875 58.748402 C 72.708252 58.748402 72.625 58.832184 72.625 59 C 71.817749 58.138271 70.817749 57.802891 69.625 57.993603 C 69.887749 57.811947 70.054497 57.560349 70.125 57.238808 Z" stroke="none" fill-rule="evenodd" fill="#271730" id="path45"></path>
    </g>
    <g id="g46">
        <path d="M 92.375 64.786781 C 93.488747 65.810028 94.738747 66.648865 96.125 67.30278 C 96.506752 68.415848 97.006752 69.464264 97.625 70.447762 C 98.338753 70.971085 99.005249 70.929321 99.625 70.32196 C 100.712753 71.18821 101.837753 71.272003 103 70.573563 C 103.132004 70.242455 103.007004 70.074631 102.625 70.070358 C 102.597252 69.915123 102.514 69.789322 102.375 69.69297 C 102.858253 69.629807 103.316498 69.504013 103.75 69.315559 C 103.92775 68.845825 103.80275 68.46843 103.375 68.183365 C 104.056 68.115433 104.722748 67.989647 105.375 67.805969 C 105.647499 67.581795 105.647499 67.3302 105.375 67.051178 C 108.749748 66.915306 111.916496 66.076477 114.875 64.535179 C 115.551498 65.170723 115.718002 65.925522 115.375 66.799576 C 114.698502 66.896942 114.11525 67.148544 113.625 67.554375 C 114.376503 67.868362 115.126503 67.868362 115.875 67.554375 C 116.307251 68.145889 116.473999 68.816895 116.375 69.567162 C 115.833748 69.470543 115.417 69.638367 115.125 70.070358 C 115.511253 70.309891 115.928001 70.393669 116.375 70.32196 C 115.918503 75.644287 113.918503 80.298866 110.375 84.285721 C 109.027748 85.389984 107.611 86.396385 106.125 87.304901 C 105.700249 87.403786 105.325249 87.277985 105 86.927505 C 104.525002 87.072678 104.06675 87.240494 103.625 87.430702 C 102.997749 87.728096 102.664253 88.2313 102.625 88.940292 C 100.69825 89.412804 98.781502 89.748436 96.875 89.946701 C 95.582253 89.54892 94.332253 89.003708 93.125 88.311302 C 90.786247 86.127167 88.828003 83.653191 87.25 80.889122 C 87.977997 83.098671 89.102997 85.111465 90.625 86.927505 C 89.787498 87.265396 88.954247 87.601036 88.125 87.933899 C 86.901001 87.952271 85.651001 87.742691 84.375 87.304901 C 84.403252 86.478653 84.32 85.640076 84.125 84.788918 C 83.541748 84.621094 82.958252 84.621094 82.375 84.788918 C 82.008247 85.06517 81.799751 85.442566 81.75 85.921112 C 80.203003 84.638206 78.703003 83.296425 77.25 81.895523 C 77.127502 81.570206 77.085747 81.234566 77.125 80.889122 C 77.418747 80.944229 77.668747 80.860435 77.875 80.637527 C 75.466248 79.509605 73.216248 78.125809 71.125 76.486145 C 70.614998 75.936401 70.281502 75.307396 70.125 74.599152 C 70.859497 74.882942 71.609497 75.176575 72.375 75.479736 C 73.375 75.64756 74.375 75.64756 75.375 75.479736 C 72.7715 73.892914 70.8965 71.670525 69.75 68.812363 C 69.583252 68.392944 69.583252 67.973785 69.75 67.554375 C 69.890251 67.423035 70.056999 67.339249 70.25 67.30278 C 71.648247 68.827972 73.273247 70.08596 75.125 71.076767 C 75.208252 70.908943 75.291748 70.741371 75.375 70.573563 C 73.774498 68.109406 72.23275 65.593407 70.75 63.025589 C 70.439003 62.254688 70.230751 61.45787 70.125 60.635395 C 70.077248 60.138988 70.244003 59.761589 70.625 59.503197 C 71.479752 59.902233 72.229752 60.447201 72.875 61.138596 C 74.975502 62.321865 77.14225 63.412296 79.375 64.409378 C 81.697502 64.785515 84.030998 65.079132 86.375 65.289978 C 88.368752 65.038887 90.368752 64.871063 92.375 64.786781 Z" stroke="none" fill-rule="evenodd" fill="#935eaf" id="path46"></path>
    </g>
    <g id="g47">
        <path d="M 91.625 63.277187 C 90.691498 62.590069 89.941498 61.751488 89.375 60.761192 C 89.127502 60.094204 88.877502 59.423439 88.625 58.748402 C 88.68325 58.388107 88.849998 58.26231 89.125 58.371002 C 91.688248 60.783836 94.3965 63.006462 97.25 65.038376 C 97.420998 65.361427 97.37925 65.655045 97.125 65.918976 C 96.541748 66.086792 95.958252 66.086792 95.375 65.918976 C 94.110497 65.033592 92.860497 64.153 91.625 63.277187 Z" stroke="none" fill-rule="evenodd" fill="#925dae" id="path47"></path>
    </g>
    <g id="g48">
        <path d="M 115.375 39.878464 C 115.285248 40.349213 115.035248 40.726608 114.625 41.010658 C 113.398247 41.41674 112.148247 41.710365 110.875 41.891258 C 110.268997 41.813766 109.685753 41.897804 109.125 42.14286 C 109.827248 42.469933 110.494003 42.469933 111.125 42.14286 C 112.208504 41.932266 113.292 41.806465 114.375 41.765457 C 114.017998 42.315201 113.60125 42.818398 113.125 43.275055 C 112.057503 43.590561 110.973999 43.842155 109.875 44.029854 C 111.637253 44.504364 113.095497 44.043182 114.25 42.646057 C 114.333252 45.749031 114.416748 48.852249 114.5 51.955223 C 115.046753 54.186405 116.046753 56.199196 117.5 57.993603 C 118.908752 59.15926 120.241997 60.417255 121.5 61.76759 C 122.181999 62.832859 122.556999 64.00708 122.625 65.289978 C 122.166252 67.637154 120.999496 69.565903 119.125 71.076767 C 118.935249 70.408257 118.768501 69.737503 118.625 69.063965 C 118.499496 68.807091 118.333 68.765076 118.125 68.938171 C 118.281754 69.375443 118.364998 69.836624 118.375 70.32196 C 117.491249 77.551155 114.199753 83.421722 108.5 87.933899 C 108.376503 88.345016 108.334999 88.764427 108.375 89.191895 C 108.718246 89.15239 109.05175 89.19442 109.375 89.317696 C 109.612747 89.498337 109.654251 89.707924 109.5 89.946701 C 108.981247 90.487137 108.398003 90.571159 107.75 90.198296 C 108.048248 90.940521 107.798248 91.443718 107 91.707893 C 106.211998 90.620728 106.003754 90.704506 106.375 91.959488 C 106.044998 92.322289 105.628502 92.489861 105.125 92.462685 C 105.162247 92.198006 105.12075 91.946404 105 91.707893 C 104.683998 92.238007 104.225754 92.489609 103.625 92.462685 C 103.625 92.211082 103.625 91.959488 103.625 91.707893 C 103.302254 91.463089 103.302254 91.211487 103.625 90.953094 C 101.880997 90.744011 100.130997 90.61821 98.375 90.575691 C 97.877998 90.339699 97.377998 90.12986 96.875 89.946701 C 98.781502 89.748436 100.69825 89.412804 102.625 88.940292 C 102.664253 88.2313 102.997749 87.728096 103.625 87.430702 C 104.06675 87.240494 104.525002 87.072678 105 86.927505 C 105.325249 87.277985 105.700249 87.403786 106.125 87.304901 C 107.611 86.396385 109.027748 85.389984 110.375 84.285721 C 113.918503 80.298866 115.918503 75.644287 116.375 70.32196 C 115.928001 70.393669 115.511253 70.309891 115.125 70.070358 C 115.417 69.638367 115.833748 69.470543 116.375 69.567162 C 116.473999 68.816895 116.307251 68.145889 115.875 67.554375 C 115.126503 67.868362 114.376503 67.868362 113.625 67.554375 C 114.11525 67.148544 114.698502 66.896942 115.375 66.799576 C 115.718002 65.925522 115.551498 65.170723 114.875 64.535179 C 115.411003 63.626659 115.952499 62.704041 116.5 61.76759 C 116.85125 60.868877 116.934502 59.946266 116.75 59 C 116.621246 56.98444 115.579498 55.810226 113.625 55.477612 C 112.831497 52.686119 110.998253 51.637711 108.125 52.332626 C 107.231499 52.837082 106.648003 52.543465 106.375 51.452026 C 107.280502 51.244453 108.19725 51.118652 109.125 51.074623 C 109.680748 50.932228 110.180748 50.722389 110.625 50.445625 C 112.863747 50.051369 113.780502 48.793373 113.375 46.671638 C 113.3965 46.421051 113.313004 46.211472 113.125 46.042648 C 112.583252 46.000626 112.041748 45.958862 111.5 45.916847 C 110.038254 46.068558 108.57975 46.236382 107.125 46.420044 C 108.000252 46.050194 108.917 45.714554 109.875 45.413643 C 110.096497 45.20607 110.179749 44.954475 110.125 44.658852 C 107.985748 44.438446 107.902496 44.06105 109.875 43.526649 C 110.208252 43.275055 110.208252 43.023453 109.875 42.771858 C 108.068748 42.987228 106.402 42.609833 104.875 41.639656 C 105.218246 41.679153 105.55175 41.637138 105.875 41.513855 C 105.204002 41.318115 104.62075 40.982735 104.125 40.507462 C 105.262749 40.755539 106.429253 41.007133 107.625 41.26226 C 110.404503 41.716904 112.987747 41.255722 115.375 39.878464 Z" stroke="none" fill-rule="evenodd" fill="#7e3ca1" id="path48"></path>
    </g>
    <g id="g49">
        <path d="M 117.625 61.264393 C 121.982498 62.637367 122.81575 65.195381 120.125 68.938171 C 119.80175 69.061447 119.468246 69.10347 119.125 69.063965 C 119.557999 66.531113 119.016251 64.266724 117.5 62.27079 C 117.355247 61.911507 117.397003 61.575874 117.625 61.264393 Z" stroke="none" fill-rule="evenodd" fill="#925eae" id="path49"></path>
    </g>
    <g id="g50">
        <path d="M 110.875 41.891258 C 110.875 42.059074 110.958252 42.14286 111.125 42.14286 C 110.494003 42.469933 109.827248 42.469933 109.125 42.14286 C 109.685753 41.897804 110.268997 41.813766 110.875 41.891258 Z" opacity="0.953" stroke="none" fill-rule="evenodd" fill="#371f42" id="path50"></path>
    </g>
    <g id="g51">
        <path d="M 113.375 68.560768 C 113.836502 68.490822 114.169998 68.658646 114.375 69.063965 C 114.098747 69.414192 113.765251 69.707802 113.375 69.944565 C 112.46125 70.064568 111.627998 70.02256 110.875 69.818756 C 110.994247 69.572701 111.160751 69.363113 111.375 69.189774 C 112.077499 68.993011 112.744247 68.783188 113.375 68.560768 Z" stroke="none" fill-rule="evenodd" fill="#803ea3" id="path51"></path>
    </g>
    <g id="g52">
        <path d="M 70.125 57.238808 C 70.054497 57.560349 69.887749 57.811947 69.625 57.993603 C 69.026497 58.454533 68.776497 59.08353 68.875 59.880596 C 69.326248 63.094524 70.742996 65.820099 73.125 68.057571 C 73.083252 68.14135 73.041748 68.225388 73 68.309166 C 72.774246 68.007004 72.48275 67.797165 72.125 67.680168 C 71.236504 66.661957 70.403252 65.613777 69.625 64.535179 C 69.300247 64.683624 69.092003 64.935226 69 65.289978 C 68.5 69.361099 69.958504 72.590134 73.375 74.97654 C 72.758751 74.834396 72.175499 74.540779 71.625 74.095947 C 71.0345 73.418648 70.450996 72.747635 69.875 72.08316 C 69.702003 72.21524 69.577003 72.383064 69.5 72.586349 C 69.333252 73.341148 69.333252 74.095947 69.5 74.850754 C 69.847 76.064468 70.472 77.112869 71.375 77.995735 C 72.985001 78.889908 74.651749 79.644714 76.375 80.260132 C 75.200752 80.321014 74.1175 80.027649 73.125 79.379532 C 73.041748 79.46331 72.958252 79.547348 72.875 79.631134 C 74.009003 81.945343 75.592247 83.874352 77.625 85.417908 C 76.888252 85.624474 76.138252 85.750282 75.375 85.795311 C 74.653503 86.328697 74.570251 86.873909 75.125 87.430702 C 75.2715 87.37812 75.3965 87.294083 75.5 87.179108 C 75.5 87.514488 75.5 87.850121 75.5 88.185501 C 75.877251 88.333946 76.252251 88.501518 76.625 88.688698 C 76.338753 89.038673 76.338753 89.374054 76.625 89.695099 C 76.933998 89.507401 77.267502 89.423622 77.625 89.443497 C 77.625 89.778877 77.625 90.11451 77.625 90.449898 C 77.875 90.449898 78.125 90.449898 78.375 90.449898 C 78.310997 89.87323 78.394249 89.328011 78.625 88.814499 C 79.767998 89.012505 80.934502 89.138306 82.125 89.191895 C 82.092247 89.4123 82.175499 89.580116 82.375 89.695099 C 83.407997 89.500107 84.449753 89.332535 85.5 89.191895 C 85.767502 89.198944 85.975754 89.282722 86.125 89.443497 C 83.81675 89.99173 81.483498 90.075508 79.125 89.695099 C 78.694 91.434143 77.944 91.601967 76.875 90.198296 C 76.373497 90.575691 75.957001 91.036873 75.625 91.582092 C 75.977501 92.291092 76.394249 92.962105 76.875 93.594887 C 76.76075 93.699051 76.677254 93.824844 76.625 93.972282 C 78.125748 98.456535 76.625748 99.840324 72.125 98.123665 C 71.070251 97.481583 70.278503 96.60099 69.75 95.48188 C 69.469002 93.836418 69.010498 92.24305 68.375 90.701492 C 68.998001 89.753967 69.831497 89.502373 70.875 89.946701 C 72.758247 89.099815 73.966499 87.674004 74.5 85.66951 C 74.894753 85.281799 75.353249 84.988174 75.875 84.788918 C 74.097 83.24913 72.805252 81.362137 72 79.127937 C 69.142754 77.285721 68.350998 74.811752 69.625 71.70575 C 68.043747 69.754105 67.668747 67.615517 68.5 65.289978 C 68.742996 64.835838 69.034752 64.416428 69.375 64.031982 C 68.494003 62.374447 68.202248 60.613255 68.5 58.748402 C 68.851501 58.016502 69.392998 57.513302 70.125 57.238808 Z" opacity="0.745" stroke="none" fill-rule="evenodd" fill="#161315" id="path52"></path>
    </g>
    <g id="g53">
        <path d="M 114.375 70.573563 C 115.283752 70.612808 115.366997 70.906174 114.625 71.454155 C 113.852753 71.491394 113.144501 71.700974 112.5 72.08316 C 111.638 72.159637 110.846497 72.075859 110.125 71.831558 C 110.177254 71.684113 110.26075 71.558327 110.375 71.454155 C 111.747253 71.183685 113.080498 70.890327 114.375 70.573563 Z" stroke="none" fill-rule="evenodd" fill="#7f3da2" id="path53"></path>
    </g>
    <g id="g54">
        <path d="M 119.375 72.334755 C 119.708252 72.502571 119.708252 72.502571 119.375 72.334755 Z" opacity="0.004" stroke="none" fill-rule="evenodd" fill="#0f0500" id="path54"></path>
    </g>
    <g id="g55">
        <path d="M 80.125 76.611938 C 80.903503 76.455688 81.653503 76.623268 82.375 77.115135 C 81.757751 77.469391 81.174248 77.888809 80.625 78.373138 C 80.4785 78.320541 80.3535 78.236519 80.25 78.121536 C 80.126251 77.62513 80.084503 77.121933 80.125 76.611938 Z" stroke="none" fill-rule="evenodd" fill="#181113" id="path55"></path>
    </g>
    <g id="g56">
        <path d="M 69.625 57.993603 C 70.817749 57.802891 71.817749 58.138271 72.625 59 C 74.452499 60.256233 76.369247 61.388432 78.375 62.396587 C 80.160751 63.01376 81.994003 63.391163 83.875 63.528782 C 85.692001 63.830956 86.733749 63.07616 87 61.264393 C 86.863503 60.388325 86.946999 59.549744 87.25 58.748402 C 88.66925 61.023365 90.377502 63.036156 92.375 64.786781 C 90.368752 64.871063 88.368752 65.038887 86.375 65.289978 C 84.030998 65.079132 81.697502 64.785515 79.375 64.409378 C 77.14225 63.412296 74.975502 62.321865 72.875 61.138596 C 72.229752 60.447201 71.479752 59.902233 70.625 59.503197 C 70.244003 59.761589 70.077248 60.138988 70.125 60.635395 C 70.230751 61.45787 70.439003 62.254688 70.75 63.025589 C 72.23275 65.593407 73.774498 68.109406 75.375 70.573563 C 75.291748 70.741371 75.208252 70.908943 75.125 71.076767 C 73.273247 70.08596 71.648247 68.827972 70.25 67.30278 C 70.056999 67.339249 69.890251 67.423035 69.75 67.554375 C 69.583252 67.973785 69.583252 68.392944 69.75 68.812363 C 70.8965 71.670525 72.7715 73.892914 75.375 75.479736 C 74.375 75.64756 73.375 75.64756 72.375 75.479736 C 71.609497 75.176575 70.859497 74.882942 70.125 74.599152 C 70.281502 75.307396 70.614998 75.936401 71.125 76.486145 C 73.216248 78.125809 75.466248 79.509605 77.875 80.637527 C 77.668747 80.860435 77.418747 80.944229 77.125 80.889122 C 77.085747 81.234566 77.127502 81.570206 77.25 81.895523 C 78.703003 83.296425 80.203003 84.638206 81.75 85.921112 C 81.799751 85.442566 82.008247 85.06517 82.375 84.788918 C 82.958252 84.621094 83.541748 84.621094 84.125 84.788918 C 84.32 85.640076 84.403252 86.478653 84.375 87.304901 C 85.651001 87.742691 86.901001 87.952271 88.125 87.933899 C 86.176003 88.558876 84.176003 88.978043 82.125 89.191895 C 80.934502 89.138306 79.767998 89.012505 78.625 88.814499 C 78.394249 89.328011 78.310997 89.87323 78.375 90.449898 C 78.125 90.449898 77.875 90.449898 77.625 90.449898 C 77.625 90.11451 77.625 89.778877 77.625 89.443497 C 77.267502 89.423622 76.933998 89.507401 76.625 89.695099 C 76.338753 89.374054 76.338753 89.038673 76.625 88.688698 C 76.252251 88.501518 75.877251 88.333946 75.5 88.185501 C 75.5 87.850121 75.5 87.514488 75.5 87.179108 C 75.3965 87.294083 75.2715 87.37812 75.125 87.430702 C 74.570251 86.873909 74.653503 86.328697 75.375 85.795311 C 76.138252 85.750282 76.888252 85.624474 77.625 85.417908 C 75.592247 83.874352 74.009003 81.945343 72.875 79.631134 C 72.958252 79.547348 73.041748 79.46331 73.125 79.379532 C 74.1175 80.027649 75.200752 80.321014 76.375 80.260132 C 74.651749 79.644714 72.985001 78.889908 71.375 77.995735 C 70.472 77.112869 69.847 76.064468 69.5 74.850754 C 69.333252 74.095947 69.333252 73.341148 69.5 72.586349 C 69.577003 72.383064 69.702003 72.21524 69.875 72.08316 C 70.450996 72.747635 71.0345 73.418648 71.625 74.095947 C 72.175499 74.540779 72.758751 74.834396 73.375 74.97654 C 69.958504 72.590134 68.5 69.361099 69 65.289978 C 69.092003 64.935226 69.300247 64.683624 69.625 64.535179 C 70.403252 65.613777 71.236504 66.661957 72.125 67.680168 C 72.48275 67.797165 72.774246 68.007004 73 68.309166 C 73.041748 68.225388 73.083252 68.14135 73.125 68.057571 C 70.742996 65.820099 69.326248 63.094524 68.875 59.880596 C 68.776497 59.08353 69.026497 58.454533 69.625 57.993603 Z" stroke="none" fill-rule="evenodd" fill="#7e3ba1" id="path56"></path>
    </g>
    <g id="g57">
        <path d="M 80.875 61.012794 C 81.096497 60.691753 81.346497 60.691753 81.625 61.012794 C 81.393753 61.279991 81.143753 61.279991 80.875 61.012794 Z" opacity="0.008" stroke="none" fill-rule="evenodd" fill="#9245cf" id="path57"></path>
    </g>
    <g id="g58">
        <path d="M 96.875 89.946701 C 97.377998 90.12986 97.877998 90.339699 98.375 90.575691 C 100.130997 90.61821 101.880997 90.744011 103.625 90.953094 C 103.302254 91.211487 103.302254 91.463089 103.625 91.707893 C 103.375 91.707893 103.125 91.707893 102.875 91.707893 C 98.515251 91.859604 94.515251 90.517822 90.875 87.682304 C 89.363747 88.524155 87.780502 89.11113 86.125 89.443497 C 85.975754 89.282722 85.767502 89.198944 85.5 89.191895 C 84.449753 89.332535 83.407997 89.500107 82.375 89.695099 C 82.175499 89.580116 82.092247 89.4123 82.125 89.191895 C 84.176003 88.978043 86.176003 88.558876 88.125 87.933899 C 88.954247 87.601036 89.787498 87.265396 90.625 86.927505 C 89.102997 85.111465 87.977997 83.098671 87.25 80.889122 C 88.828003 83.653191 90.786247 86.127167 93.125 88.311302 C 94.332253 89.003708 95.582253 89.54892 96.875 89.946701 Z" opacity="0.996" stroke="none" fill-rule="evenodd" fill="#160c16" id="path58"></path>
    </g>
    <g id="g59">
        <path d="M 83.375 85.166306 C 83.751999 85.815437 83.585251 86.318634 82.875 86.675911 C 82.469002 86.331467 82.344002 85.912048 82.5 85.417908 C 83.044502 86.16465 83.335999 86.080872 83.375 85.166306 Z" stroke="none" fill-rule="evenodd" fill="#2a1a2a" id="path59"></path>
    </g>
    <g id="g60">
        <path d="M 103.625 85.66951 C 104.226997 85.874565 104.435249 86.293724 104.25 86.927505 C 103.976501 86.530479 103.767998 86.111061 103.625 85.66951 Z" stroke="none" fill-rule="evenodd" fill="#1d151d" id="path60"></path>
    </g>
    <g id="g61">
        <path d="M 103.625 87.430702 C 102.911751 87.257355 102.495247 86.796173 102.375 86.046906 C 102.612251 85.891678 102.820503 85.933441 103 86.172714 C 103.359497 86.52494 103.567749 86.944359 103.625 87.430702 Z" stroke="none" fill-rule="evenodd" fill="#1e151c" id="path61"></path>
    </g>
    <g id="g62">
        <path d="M 75.125 88.437096 C 75.644997 88.894508 75.9785 89.481483 76.125 90.198296 C 75.739754 90.627022 75.40625 91.088196 75.125 91.582092 C 75.402252 92.097115 75.569 92.642075 75.625 93.217484 C 75.353996 93.67514 75.0205 94.094307 74.625 94.475479 C 74.189247 94.088524 73.689247 93.836922 73.125 93.720688 C 72.928253 93.317123 72.595001 93.1493 72.125 93.217484 C 71.543747 92.534645 71.501999 91.779846 72 90.953094 C 73.014999 90.054886 74.056747 89.216057 75.125 88.437096 Z" opacity="0.973" stroke="none" fill-rule="evenodd" fill="#f8bbac" id="path62"></path>
    </g>
    <g id="g63">
        <path d="M 128.375 89.443497 C 128.474243 89.185616 128.640747 89.1436 128.875 89.317696 C 128.726501 89.434441 128.559753 89.476456 128.375 89.443497 Z" opacity="0.004" stroke="none" fill-rule="evenodd" fill="#9535aa" id="path63"></path>
    </g>
    <g id="g64">
        <path d="M 75.125 88.437096 C 74.056747 89.216057 73.014999 90.054886 72 90.953094 C 71.501999 91.779846 71.543747 92.534645 72.125 93.217484 C 71.678001 93.289192 71.261253 93.205406 70.875 92.965881 C 70.363998 91.02253 71.113998 89.806557 73.125 89.317696 C 73.55275 88.666306 74.011253 88.037315 74.5 87.430702 C 74.926498 87.633995 75.13475 87.969376 75.125 88.437096 Z" opacity="0.973" stroke="none" fill-rule="evenodd" fill="#da9080" id="path64"></path>
    </g>
    <g id="g65">
        <path d="M 111.625 92.965881 C 112.662247 92.819962 113.579002 92.987518 114.375 93.469086 C 114.291748 93.469086 114.208252 93.469086 114.125 93.469086 C 113.375 93.720688 112.875 94.223885 112.625 94.978676 C 112.003502 95.809959 111.586998 96.732574 111.375 97.746269 C 110.258247 97.167084 109.716499 96.244728 109.75 94.978676 C 108.958252 94.18187 108.166748 93.385292 107.375 92.588486 C 107.138 92.466957 106.888 92.425201 106.625 92.462685 C 106.415497 92.37664 106.332001 92.209076 106.375 91.959488 C 107.462753 92.202789 108.046249 91.783371 108.125 90.701492 C 108.468246 90.661987 108.80175 90.70401 109.125 90.827286 C 109.649498 91.545357 110.23275 92.21637 110.875 92.840088 C 111.112 92.961609 111.362 93.003365 111.625 92.965881 Z" opacity="0.973" stroke="none" fill-rule="evenodd" fill="#f7baab" id="path65"></path>
    </g>
    <g id="g66">
        <path d="M 116.875 93.217484 C 116.231003 93.22554 115.647751 93.057716 115.125 92.714279 C 115.092247 92.493881 115.175499 92.326073 115.375 92.211082 C 115.741997 92.672264 116.158752 92.75605 116.625 92.462685 C 116.310501 92.592506 116.060501 92.42495 115.875 91.959488 C 117.349998 91.513397 117.68325 91.932571 116.875 93.217484 Z" opacity="0.992" stroke="none" fill-rule="evenodd" fill="#c58071" id="path66"></path>
    </g>
    <g id="g67">
        <path d="M 111.625 92.965881 C 112.40625 92.719574 113.239502 92.635536 114.125 92.714279 C 114.920502 92.875313 115.003754 93.126915 114.375 93.469086 C 113.579002 92.987518 112.662247 92.819962 111.625 92.965881 Z" opacity="0.998" stroke="none" fill-rule="evenodd" fill="#6d514e" id="path67"></path>
    </g>
    <g id="g68">
        <path d="M 115.125 92.714279 C 115.647751 93.057716 116.231003 93.22554 116.875 93.217484 C 116.928749 93.639915 116.762001 93.89151 116.375 93.972282 C 116.183746 93.865852 115.975502 93.78183 115.75 93.720688 C 115.398499 93.950645 115.023499 94.118202 114.625 94.223885 C 114.869003 93.893028 115.119003 93.55764 115.375 93.217484 C 115.284248 93.045639 115.200996 92.877823 115.125 92.714279 Z" opacity="0.965" stroke="none" fill-rule="evenodd" fill="#3e2422" id="path68"></path>
    </g>
    <g id="g69">
        <path d="M 115.125 92.714279 C 115.200996 92.877823 115.284248 93.045639 115.375 93.217484 C 115.119003 93.55764 114.869003 93.893028 114.625 94.223885 C 114.0215 94.578888 113.604752 95.082092 113.375 95.733475 C 113.417999 95.983063 113.334503 96.150627 113.125 96.236671 C 112.915497 96.322723 112.832001 96.490288 112.875 96.739868 C 112.691498 97.086571 112.52475 97.463974 112.375 97.872063 C 112.099998 97.980759 111.93325 97.854965 111.875 97.494675 C 112.149498 96.644005 112.399498 95.805183 112.625 94.978676 C 113.208252 94.559265 113.708252 94.056068 114.125 93.469086 C 114.208252 93.469086 114.291748 93.469086 114.375 93.469086 C 115.003754 93.126915 114.920502 92.875313 114.125 92.714279 C 113.787498 92.42495 113.829002 92.257133 114.25 92.211082 C 114.575752 92.331352 114.867249 92.499168 115.125 92.714279 Z" opacity="0.971" stroke="none" fill-rule="evenodd" fill="#3064a6" id="path69"></path>
    </g>
    <g id="g70">
        <path d="M 75.625 93.217484 C 76.211746 93.496002 76.294998 93.915421 75.875 94.475479 C 75.506752 94.78746 75.089996 95.039063 74.625 95.230278 C 73.497253 94.432457 72.247253 93.92926 70.875 93.720688 C 71.624496 93.433105 72.374496 93.433105 73.125 93.720688 C 73.689247 93.836922 74.189247 94.088524 74.625 94.475479 C 75.0205 94.094307 75.353996 93.67514 75.625 93.217484 Z" opacity="0.941" stroke="none" fill-rule="evenodd" fill="#364e7c" id="path70"></path>
    </g>
    <g id="g71">
        <path d="M 114.125 93.469086 C 113.708252 94.056068 113.208252 94.559265 112.625 94.978676 C 112.875 94.223885 113.375 93.720688 114.125 93.469086 Z" opacity="0.953" stroke="none" fill-rule="evenodd" fill="#292330" id="path71"></path>
    </g>
    <g id="g72">
        <path d="M 116.375 93.972282 C 115.549004 94.200485 115.4655 94.577881 116.125 95.104477 C 115.81575 95.162842 115.56575 95.288643 115.375 95.48188 C 115.410004 95.890472 115.243248 96.183838 114.875 96.362473 C 115.51075 96.953987 115.344254 97.247345 114.375 97.243073 C 114.020248 97.003807 113.603752 96.920013 113.125 96.99147 C 113.125 96.739868 113.125 96.488266 113.125 96.236671 C 113.334503 96.150627 113.417999 95.983063 113.375 95.733475 C 113.9785 95.378464 114.395248 94.875267 114.625 94.223885 C 115.023499 94.118202 115.398499 93.950645 115.75 93.720688 C 115.975502 93.78183 116.183746 93.865852 116.375 93.972282 Z" opacity="0.972" stroke="none" fill-rule="evenodd" fill="#f4b1a1" id="path72"></path>
    </g>
    <g id="g73">
        <path d="M 114.625 94.223885 C 114.395248 94.875267 113.9785 95.378464 113.375 95.733475 C 113.604752 95.082092 114.0215 94.578888 114.625 94.223885 Z" opacity="0.933" stroke="none" fill-rule="evenodd" fill="#331f1b" id="path73"></path>
    </g>
    <g id="g74">
        <path d="M 116.875 93.217484 C 117.041748 93.217484 117.208252 93.217484 117.375 93.217484 C 117.602997 93.528969 117.644753 93.864594 117.5 94.223885 C 117.075752 95.02195 116.6175 95.776749 116.125 96.488266 C 115.735001 96.078423 115.818253 95.784805 116.375 95.607681 C 116.05175 95.484398 115.718246 95.442375 115.375 95.48188 C 115.56575 95.288643 115.81575 95.162842 116.125 95.104477 C 115.4655 94.577881 115.549004 94.200485 116.375 93.972282 C 116.762001 93.89151 116.928749 93.639915 116.875 93.217484 Z" opacity="0.973" stroke="none" fill-rule="evenodd" fill="#6b4a43" id="path74"></path>
    </g>
    <g id="g75">
        <path d="M 116.125 96.488266 C 116.6175 95.776749 117.075752 95.02195 117.5 94.223885 C 117.644753 93.864594 117.602997 93.528969 117.375 93.217484 C 117.502747 92.791023 117.669502 92.371857 117.875 91.959488 C 118.397751 96.150871 116.564499 98.289467 112.375 98.375259 C 113.200249 97.6343 114.200249 97.298676 115.375 97.368874 C 115.658997 97.080795 115.908997 96.78717 116.125 96.488266 Z" opacity="0.977" stroke="none" fill-rule="evenodd" fill="#e1e3e0" id="path75"></path>
    </g>
    <g id="g76">
        <path d="M 75.875 94.475479 C 76.608749 94.835518 76.983749 95.422501 77 96.236671 C 76.771248 96.028343 76.604752 95.776749 76.5 95.48188 C 76.7295 96.665154 76.4795 96.749176 75.75 95.733475 C 75.701248 96.065338 75.742996 96.40097 75.875 96.739868 C 75.481499 96.629921 75.189751 96.378326 75 95.985069 C 74.753502 96.960022 74.461746 96.960022 74.125 95.985069 C 73.723 95.779274 73.306252 95.611458 72.875 95.48188 C 72.619751 95.608185 72.578003 95.775749 72.75 95.985069 C 73.127251 96.133514 73.502251 96.301086 73.875 96.488266 C 73.385002 96.744652 72.885002 96.744652 72.375 96.488266 C 72.149002 96.309891 72.06575 96.058289 72.125 95.733475 C 71.987999 95.256943 71.737999 94.837784 71.375 94.475479 C 72.599998 94.373581 73.68325 94.792747 74.625 95.733475 C 75.236504 95.475838 75.653 95.056419 75.875 94.475479 Z" opacity="0.976" stroke="none" fill-rule="evenodd" fill="#de9b8a" id="path76"></path>
    </g>
    <g id="g77">
        <path d="M 106.625 92.462685 C 106.888 92.425201 107.138 92.466957 107.375 92.588486 C 108.166748 93.385292 108.958252 94.18187 109.75 94.978676 C 109.716499 96.244728 110.258247 97.167084 111.375 97.746269 C 109.891998 98.256012 108.97525 97.7108 108.625 96.110878 C 108.747002 95.712341 108.997002 95.418716 109.375 95.230278 C 108.39875 94.343895 107.482246 93.421272 106.625 92.462685 Z" opacity="0.973" stroke="none" fill-rule="evenodd" fill="#e09484" id="path77"></path>
    </g>
    <g id="g78">
        <path d="M 72.125 95.733475 C 72.06575 96.058289 72.149002 96.309891 72.375 96.488266 C 72.402748 96.643517 72.486 96.76931 72.625 96.865669 C 73.754997 97.070473 74.838501 97.028458 75.875 96.739868 C 77.418503 96.910454 77.418503 97.371887 75.875 98.123665 C 73.595749 98.44899 71.804001 97.652168 70.5 95.733475 C 70.029999 93.972023 69.571747 92.210838 69.125 90.449898 C 69.571999 90.378181 69.988747 90.461975 70.375 90.701492 C 70.251251 91.772804 70.251251 92.821213 70.375 93.846481 C 70.875504 94.566048 71.458748 95.195045 72.125 95.733475 Z" opacity="0.976" stroke="none" fill-rule="evenodd" fill="#eceeea" id="path78"></path>
    </g>
    <g id="g79">
        <path d="M 75.875 96.739868 C 74.838501 97.028458 73.754997 97.070473 72.625 96.865669 C 72.486 96.76931 72.402748 96.643517 72.375 96.488266 C 72.885002 96.744652 73.385002 96.744652 73.875 96.488266 C 73.502251 96.301086 73.127251 96.133514 72.75 95.985069 C 72.578003 95.775749 72.619751 95.608185 72.875 95.48188 C 73.306252 95.611458 73.723 95.779274 74.125 95.985069 C 74.461746 96.960022 74.753502 96.960022 75 95.985069 C 75.189751 96.378326 75.481499 96.629921 75.875 96.739868 Z" opacity="0.969" stroke="none" fill-rule="evenodd" fill="#3b2422" id="path79"></path>
    </g>
    <g id="g80">
        <path d="M 113.125 96.236671 C 113.125 96.488266 113.125 96.739868 113.125 96.99147 C 113.603752 96.920013 114.020248 97.003807 114.375 97.243073 C 113.7295 97.362579 113.2295 97.194771 112.875 96.739868 C 112.832001 96.490288 112.915497 96.322723 113.125 96.236671 Z" opacity="0.969" stroke="none" fill-rule="evenodd" fill="#905b50" id="path80"></path>
    </g>
    <g id="g81">
        <path d="M 95.375 97.746269 C 96.310753 97.735962 96.352501 97.90377 95.5 98.249474 C 95.384003 98.100021 95.342247 97.932205 95.375 97.746269 Z" opacity="0.004" stroke="none" fill-rule="evenodd" fill="#3a3d3a" id="path81"></path>
    </g>
    <g id="g82">
        <path d="M 97.375 97.494675 C 97.668747 97.439568 97.918747 97.523361 98.125 97.746269 C 97.644753 98.03334 97.144753 98.075363 96.625 97.872063 C 96.93425 97.813698 97.18425 97.687904 97.375 97.494675 Z" opacity="0.004" stroke="none" fill-rule="evenodd" fill="#762718" id="path82"></path>
    </g>
    <g id="g83">
        <path d="M 108.625 97.494675 C 109.002502 97.830803 109.41925 98.12442 109.875 98.375259 C 110.583 98.428604 111.249496 98.470627 111.875 98.501068 C 111.112747 98.995705 110.279503 99.121513 109.375 98.878464 C 108.959999 98.504082 108.709999 98.0429 108.625 97.494675 Z" opacity="0.981" stroke="none" fill-rule="evenodd" fill="#dcdcd9" id="path83"></path>
    </g>
</svg>
