<svg version="1.1" xmlns="http://www.w3.org/2000/svg" xmlns:xlink="http://www.w3.org/1999/xlink" width="522" height="400.54" viewBox="0,0,522,400.54"><g transform="translate(21,20.27)"><g data-paper-data="{&quot;isPaintingLayer&quot;:true}" fill-rule="nonzero" stroke="none" stroke-width="1" stroke-linecap="butt" stroke-linejoin="miter" stroke-miterlimit="10" stroke-dasharray="" stroke-dashoffset="0" style="mix-blend-mode: normal"><path d="M-21,380.27v-400.54h522v400.54z" fill="#909fff"/><path d="M151.8,265.19c-11.23,-13.13 -23.36,-24.88 -32.69,-39.2c-9.34,-14.31 -22.63,-33.67 -19.54,-51.7c3.09,-18.03 14.41,-33.04 24.6,-47.29c10.18,-14.25 21.06,-25.81 33.61,-38.28c12.55,-12.47 23.97,-23.48 38.26,-33.63c14.28,-10.15 29.23,-21.48 47.26,-24.63c18.03,-3.16 37.41,10.33 51.72,19.6c14.31,9.28 26.13,21.47 39.23,32.67c4.15,4.15 8.44,8.44 12.61,12.61c11.16,13.06 23.1,24.95 32.28,39.2c9.18,14.26 22.8,33.63 19.3,51.48c-3.5,17.85 -14.4,32.7 -24.63,46.84c-10.23,14.14 -21.09,25.94 -33.56,38.33c-12.48,12.38 -23.86,23.26 -38.05,33.42c-14.19,10.16 -29.25,21.31 -47.07,24.82c-17.83,3.51 -37.04,-10.04 -51.3,-19.15c-14.25,-9.11 -26.39,-21.33 -39.42,-32.47c-4.15,-4.15 -8.44,-8.44 -12.61,-12.61M269.95,93.64c-10.1,-0.42 -20.68,5.58 -29.75,8.93c-9.07,3.36 -16.71,8.61 -25.29,12.97c-8.58,4.36 -15.33,9.41 -23.68,14.58c-8.35,5.17 -13.02,10.43 -21.23,17.03c-8.22,6.6 -7.71,18.57 -3.8,27.55c3.92,8.99 7.06,18.19 11.71,26.55c4.64,8.36 8.47,16.99 13.71,24.54c5.24,7.56 9.43,16.22 15.56,22.7c6.14,6.48 11.03,16.7 20.73,17.53c9.7,0.83 20.98,-5.56 29.82,-8.86c8.84,-3.3 16.95,-8.46 25.38,-12.87c8.44,-4.41 15.44,-9.41 23.73,-14.53c8.29,-5.12 13.02,-10.58 21.23,-17.03c8.2,-6.44 7.65,-19.02 3.65,-27.82c-4.01,-8.8 -7,-18.43 -11.62,-26.64c-4.62,-8.21 -8.86,-16.85 -13.87,-24.38c-5.02,-7.53 -9.64,-16.41 -15.56,-22.7c-5.93,-6.3 -11.6,-17.15 -20.73,-17.53z" fill="#ffffff"/></g></g></svg>